<?xml version="1.0" encoding="utf-8"?>
<!-- Generator: Adobe Illustrator 23.0.3, SVG Export Plug-In . SVG Version: 6.00 Build 0)  -->
<svg version="1.1" id="Layer_1" xmlns="http://www.w3.org/2000/svg" xmlns:xlink="http://www.w3.org/1999/xlink" x="0px" y="0px"
	 viewBox="0 0 50 55" style="enable-background:new 0 0 50 55;" xml:space="preserve">
<style type="text/css">
	.st0{fill:#52A0EF;}
	.st1{clip-path:url(#SVGID_2_);fill:#A1BED3;}
	.st2{clip-path:url(#SVGID_2_);fill:#E4E6F1;}
	.st3{clip-path:url(#SVGID_2_);fill:#D9DCE6;}
	.st4{clip-path:url(#SVGID_2_);}
	.st5{clip-path:url(#SVGID_4_);}
	.st6{clip-path:url(#SVGID_6_);fill:#DCE2E1;}
	.st7{clip-path:url(#SVGID_8_);}
	.st8{clip-path:url(#SVGID_10_);fill:#DCE2E1;}
	.st9{clip-path:url(#SVGID_2_);fill:#83CFD2;}
	.st10{clip-path:url(#SVGID_2_);fill:#DACC66;}
	.st11{clip-path:url(#SVGID_2_);fill:#F6E673;}
	.st12{opacity:0.27;clip-path:url(#SVGID_2_);}
	.st13{clip-path:url(#SVGID_12_);}
	.st14{clip-path:url(#SVGID_14_);fill:#FFFFFF;}
	.st15{opacity:0.55;clip-path:url(#SVGID_2_);}
	.st16{clip-path:url(#SVGID_16_);}
	.st17{clip-path:url(#SVGID_18_);fill:#DBC5B8;}
	.st18{clip-path:url(#SVGID_20_);}
	.st19{clip-path:url(#SVGID_22_);fill:#DBC5B8;}
	.st20{clip-path:url(#SVGID_24_);}
	.st21{clip-path:url(#SVGID_26_);fill:#DBC5B8;}
	.st22{clip-path:url(#SVGID_2_);fill:#F6E53B;}
	.st23{opacity:0.75;clip-path:url(#SVGID_2_);}
	.st24{clip-path:url(#SVGID_28_);}
	.st25{clip-path:url(#SVGID_30_);fill:#CDBFCC;}
	.st26{clip-path:url(#SVGID_2_);fill:#F2F4F1;}
	.st27{clip-path:url(#SVGID_2_);fill:#F26B70;}
	.st28{clip-path:url(#SVGID_32_);}
	.st29{clip-path:url(#SVGID_34_);fill:#F8D4AC;}
	.st30{clip-path:url(#SVGID_36_);}
	.st31{clip-path:url(#SVGID_38_);fill:#F8D4AC;}
	.st32{clip-path:url(#SVGID_40_);}
	.st33{clip-path:url(#SVGID_42_);fill:#F8D4AC;}
	.st34{clip-path:url(#SVGID_44_);}
	.st35{clip-path:url(#SVGID_46_);fill:#F8D4AC;}
	.st36{opacity:0.51;clip-path:url(#SVGID_2_);}
	.st37{clip-path:url(#SVGID_48_);}
	.st38{clip-path:url(#SVGID_50_);fill:#DCBFAC;}
	.st39{clip-path:url(#SVGID_52_);}
	.st40{clip-path:url(#SVGID_54_);fill:#DCBFAC;}
	.st41{clip-path:url(#SVGID_56_);}
	.st42{clip-path:url(#SVGID_58_);fill:#DCBFAC;}
	.st43{clip-path:url(#SVGID_60_);}
	.st44{clip-path:url(#SVGID_62_);fill:#DCBFAC;}
	.st45{clip-path:url(#SVGID_64_);}
	.st46{clip-path:url(#SVGID_66_);fill:#DCBFAC;}
	.st47{clip-path:url(#SVGID_68_);}
	.st48{clip-path:url(#SVGID_70_);fill:#DCBFAC;}
	.st49{clip-path:url(#SVGID_72_);}
	.st50{clip-path:url(#SVGID_74_);fill:#DCBFAC;}
	.st51{clip-path:url(#SVGID_2_);fill:#46B3BC;}
	.st52{clip-path:url(#SVGID_2_);fill:#57AC46;}
	.st53{clip-path:url(#SVGID_2_);fill:#EEE928;}
	.st54{clip-path:url(#SVGID_2_);fill:#F18A21;}
	.st55{clip-path:url(#SVGID_2_);fill:#0F4352;}
	.st56{clip-path:url(#SVGID_2_);fill:#FFFFFF;}
	.st57{clip-path:url(#SVGID_2_);fill:#E0E7E7;}
	.st58{clip-path:url(#SVGID_76_);}
	.st59{clip-path:url(#SVGID_78_);fill:#CBD8D5;}
	.st60{clip-path:url(#SVGID_80_);}
	.st61{clip-path:url(#SVGID_82_);fill:#DCBFAC;}
	.st62{clip-path:url(#SVGID_84_);}
	.st63{clip-path:url(#SVGID_86_);fill:#DCBFAC;}
	.st64{clip-path:url(#SVGID_88_);}
	.st65{clip-path:url(#SVGID_90_);fill:#DCBFAC;}
	.st66{clip-path:url(#SVGID_92_);}
	.st67{clip-path:url(#SVGID_94_);fill:#DCBFAC;}
	.st68{clip-path:url(#SVGID_96_);}
	.st69{clip-path:url(#SVGID_98_);fill:#DCBFAC;}
	.st70{clip-path:url(#SVGID_100_);}
	.st71{clip-path:url(#SVGID_102_);fill:#DCBFAC;}
	.st72{clip-path:url(#SVGID_104_);}
	.st73{clip-path:url(#SVGID_106_);fill:#DCBFAC;}
	.st74{clip-path:url(#SVGID_108_);}
	.st75{clip-path:url(#SVGID_110_);fill:#DCBFAC;}
	.st76{clip-path:url(#SVGID_112_);}
	.st77{clip-path:url(#SVGID_114_);fill:#DCBFAC;}
	.st78{clip-path:url(#SVGID_116_);}
	.st79{clip-path:url(#SVGID_118_);fill:#DCBFAC;}
	.st80{clip-path:url(#SVGID_120_);}
	.st81{clip-path:url(#SVGID_122_);fill:#DCBFAC;}
	.st82{clip-path:url(#SVGID_124_);}
	.st83{clip-path:url(#SVGID_126_);fill:#DCBFAC;}
	.st84{clip-path:url(#SVGID_128_);}
	.st85{clip-path:url(#SVGID_130_);fill:#F8D4AC;}
	.st86{clip-path:url(#SVGID_132_);}
	.st87{clip-path:url(#SVGID_134_);fill:#F8D4AC;}
	.st88{clip-path:url(#SVGID_136_);}
	.st89{clip-path:url(#SVGID_138_);fill:#CDBFCC;}
	.st90{clip-path:url(#SVGID_140_);}
	.st91{clip-path:url(#SVGID_142_);fill:#CDBFCC;}
	.st92{clip-path:url(#SVGID_144_);}
	.st93{clip-path:url(#SVGID_146_);fill:#CDBFCC;}
	.st94{clip-path:url(#SVGID_148_);}
	.st95{clip-path:url(#SVGID_150_);fill:#CDBFCC;}
	.st96{clip-path:url(#SVGID_152_);}
	.st97{clip-path:url(#SVGID_154_);fill:#CDBFCC;}
	.st98{clip-path:url(#SVGID_156_);}
	.st99{clip-path:url(#SVGID_158_);fill:#CDBFCC;}
	.st100{clip-path:url(#SVGID_160_);}
	.st101{clip-path:url(#SVGID_162_);fill:#CDBFCC;}
	.st102{clip-path:url(#SVGID_164_);}
	.st103{clip-path:url(#SVGID_166_);fill:#CDBFCC;}
</style>
<path class="st0" d="M38,55H12C5.4,55,0,49.6,0,43V12C0,5.4,5.4,0,12,0h26c6.6,0,12,5.4,12,12v31C50,49.6,44.6,55,38,55z"/>
<g>
	<defs>
		<path id="SVGID_1_" d="M26.6-1.2c-10,0-21.9,6.1-21.4,13.1c0.3,3.6-1.8,6.7-3.8,8.8c-2,2.1-5.8,7.3-5.3,15.2
			c0.5,7.9,11.6,15.4,15.1,17.6c2.1,1.3,4.8,1.1,7.1,1c1.5-0.1,2.9-0.2,3.9,0.1c2.5,0.8,19.8,2.5,17.1-6.2c-2.6-8.8,4-7.2,8-10.7
			c4-3.5,3-18-0.2-20.7C44,14.2,40,9.5,39.5,7.1C38.3,1.1,32.8-1.2,26.6-1.2C26.6-1.2,26.6-1.2,26.6-1.2"/>
	</defs>
	<clipPath id="SVGID_2_">
		<use xlink:href="#SVGID_1_"  style="overflow:visible;"/>
	</clipPath>
	<path class="st1" d="M28.3,13.6v18.7h-2.8V13.6c0-1.6-1.3-2.9-2.9-2.9V7.9C25.7,7.9,28.3,10.5,28.3,13.6"/>
	<rect x="19.6" y="7.5" class="st2" width="3" height="3.7"/>
	<rect x="25.1" y="13.8" class="st2" width="3.6" height="1.4"/>
	<rect x="25.3" y="15.2" class="st3" width="3.2" height="0.8"/>
	<g class="st4">
		<g>
			<defs>
				<rect id="SVGID_3_" x="25.5" y="15.9" width="2.8" height="0.7"/>
			</defs>
			<clipPath id="SVGID_4_">
				<use xlink:href="#SVGID_3_"  style="overflow:visible;"/>
			</clipPath>
			<g class="st5">
				<defs>
					<rect id="SVGID_5_" x="25.5" y="15.9" width="2.8" height="0.7"/>
				</defs>
				<clipPath id="SVGID_6_">
					<use xlink:href="#SVGID_5_"  style="overflow:visible;"/>
				</clipPath>
				<rect x="25.5" y="15.9" class="st6" width="2.8" height="0.7"/>
			</g>
		</g>
	</g>
	<g class="st4">
		<g>
			<defs>
				<rect id="SVGID_7_" x="22.6" y="7.9" width="0.8" height="2.9"/>
			</defs>
			<clipPath id="SVGID_8_">
				<use xlink:href="#SVGID_7_"  style="overflow:visible;"/>
			</clipPath>
			<g class="st7">
				<defs>
					<rect id="SVGID_9_" x="22.6" y="7.9" width="0.8" height="2.9"/>
				</defs>
				<clipPath id="SVGID_10_">
					<use xlink:href="#SVGID_9_"  style="overflow:visible;"/>
				</clipPath>
				<path class="st8" d="M23.4,8l-0.2,2.8c-0.2,0-0.4-0.1-0.6-0.1V7.9C22.9,7.9,23.1,7.9,23.4,8"/>
			</g>
		</g>
	</g>
	<rect x="25.5" y="32.4" class="st1" width="2.8" height="27.8"/>
	<path class="st9" d="M20.6,20.6v39.8h-1.1V30.7h0V27h0v-6.5c0-0.4-0.4-0.8-0.8-0.8c-0.5,0-0.8,0.4-0.8,0.8v8c0,1.1-0.9,1.9-1.9,1.9
		c-1.1,0-1.9-0.9-1.9-1.9v-2.7l0,0v-5.5h0v-6.5c0-0.4-0.4-0.8-0.8-0.8c-0.4,0-0.8,0.4-0.8,0.8v8c0,1.1-0.9,1.9-1.9,1.9
		c-1.1,0-1.9-0.9-1.9-1.9v-6.6h1.1v6.6c0,0.5,0.4,0.8,0.8,0.8c0.4,0,0.8-0.4,0.8-0.8v-8c0-1,0.9-1.9,1.9-1.9c1,0,1.8,0.8,1.9,1.8
		c0,0,0,0.1,0,0.1v14.7c0,0.5,0.4,0.8,0.8,0.8c0.4,0,0.8-0.4,0.8-0.8v-8c0-1,0.9-1.9,1.9-1.9c1,0,1.8,0.8,1.9,1.8
		C20.6,20.5,20.6,20.5,20.6,20.6"/>
	<rect x="8.5" y="14.8" class="st10" width="1.3" height="0.4"/>
	<rect x="8.3" y="13.9" class="st11" width="1.7" height="1"/>
	<g class="st12">
		<g>
			<defs>
				<rect id="SVGID_11_" x="9.5" y="13.9" width="0.5" height="0.8"/>
			</defs>
			<clipPath id="SVGID_12_">
				<use xlink:href="#SVGID_11_"  style="overflow:visible;"/>
			</clipPath>
			<g class="st13">
				<defs>
					<rect id="SVGID_13_" x="9.5" y="13.9" width="0.5" height="0.8"/>
				</defs>
				<clipPath id="SVGID_14_">
					<use xlink:href="#SVGID_13_"  style="overflow:visible;"/>
				</clipPath>
				<path class="st14" d="M9.5,13.9v0.6c0,0.1,0,0.1,0.1,0.1H10v-0.8H9.5z"/>
			</g>
		</g>
	</g>
	<g class="st15">
		<g>
			<defs>
				<rect id="SVGID_15_" x="8.8" y="13.9" width="0.6" height="0.8"/>
			</defs>
			<clipPath id="SVGID_16_">
				<use xlink:href="#SVGID_15_"  style="overflow:visible;"/>
			</clipPath>
			<g class="st16">
				<defs>
					<rect id="SVGID_17_" x="8.8" y="13.9" width="0.6" height="0.8"/>
				</defs>
				<clipPath id="SVGID_18_">
					<use xlink:href="#SVGID_17_"  style="overflow:visible;"/>
				</clipPath>
				<path class="st17" d="M8.8,13.9v0.6c0,0.1,0,0.1,0.1,0.1h0.4c0.1,0,0.1-0.1,0.1-0.1v-0.6H8.8z"/>
			</g>
		</g>
	</g>
	<g class="st4">
		<g>
			<defs>
				<rect id="SVGID_19_" x="8.3" y="13.9" width="0.5" height="0.8"/>
			</defs>
			<clipPath id="SVGID_20_">
				<use xlink:href="#SVGID_19_"  style="overflow:visible;"/>
			</clipPath>
			<g class="st18">
				<defs>
					<rect id="SVGID_21_" x="8.3" y="13.9" width="0.5" height="0.8"/>
				</defs>
				<clipPath id="SVGID_22_">
					<use xlink:href="#SVGID_21_"  style="overflow:visible;"/>
				</clipPath>
				<path class="st19" d="M8.3,13.9v0.8h0.4c0.1,0,0.1-0.1,0.1-0.1v-0.6L8.3,13.9z"/>
			</g>
		</g>
	</g>
	<g class="st4">
		<g>
			<defs>
				<rect id="SVGID_23_" x="8.6" y="15.2" width="1.1" height="0.4"/>
			</defs>
			<clipPath id="SVGID_24_">
				<use xlink:href="#SVGID_23_"  style="overflow:visible;"/>
			</clipPath>
			<g class="st20">
				<defs>
					<rect id="SVGID_25_" x="8.6" y="15.2" width="1.1" height="0.4"/>
				</defs>
				<clipPath id="SVGID_26_">
					<use xlink:href="#SVGID_25_"  style="overflow:visible;"/>
				</clipPath>
				<rect x="8.6" y="15.2" class="st21" width="1.1" height="0.4"/>
			</g>
		</g>
	</g>
	<path class="st22" d="M60.5,29.9v11.8h-5.3V29.9c0,0,0-0.1,0-0.1c0-0.1,0-0.1,0-0.2c0,0,0-0.1,0-0.1v0c0-0.1,0-0.1,0-0.2
		c0-0.1,0-0.2,0-0.3c0,0,0,0,0,0c0-0.1,0-0.1,0-0.2c0,0,0-0.1,0-0.1c0-0.1,0-0.1,0-0.2c0,0,0,0,0-0.1c0-0.1,0-0.1,0-0.2
		c0-0.1,0-0.2-0.1-0.2c0-0.1-0.1-0.2-0.1-0.3c0-0.1-0.1-0.1-0.1-0.2c0,0,0-0.1-0.1-0.1c0,0,0-0.1-0.1-0.1c0,0,0-0.1-0.1-0.1
		c0,0,0-0.1-0.1-0.1c0,0-0.1-0.1-0.1-0.1c-0.1-0.1-0.2-0.2-0.3-0.3c0,0-0.1-0.1-0.1-0.1c0,0-0.1-0.1-0.1-0.1c0,0,0,0-0.1,0
		c0,0-0.1-0.1-0.2-0.1c0,0,0,0-0.1,0c0,0-0.1-0.1-0.1-0.1c0,0-0.1,0-0.1-0.1c-0.1,0-0.1-0.1-0.2-0.1c-0.1-0.1-0.3-0.1-0.4-0.2
		c-0.1,0-0.1-0.1-0.2-0.1c-0.2-0.1-0.4-0.1-0.6-0.2c-0.3-0.1-0.6-0.1-0.8-0.1c-0.1,0-0.1,0-0.2,0c-0.1,0-0.2,0-0.2,0H19.9
		c-1.9,0-3.1,0.7-3.9,2.1c-0.6,1.1-0.6,2.4-0.6,2.4v29.7h-5.3V29.9c0-3.9,2.6-9.7,9.7-9.7h12.9h0h17.9c3.7,0,9.2,2.4,9.7,8.8
		c0,0.3,0,0.5,0,0.8C60.5,29.9,60.5,29.9,60.5,29.9"/>
	<g class="st23">
		<g>
			<defs>
				<rect id="SVGID_27_" x="12.8" y="20.2" width="45" height="40.1"/>
			</defs>
			<clipPath id="SVGID_28_">
				<use xlink:href="#SVGID_27_"  style="overflow:visible;"/>
			</clipPath>
			<g class="st24">
				<defs>
					<rect id="SVGID_29_" x="12.8" y="20.2" width="45" height="40.1"/>
				</defs>
				<clipPath id="SVGID_30_">
					<use xlink:href="#SVGID_29_"  style="overflow:visible;"/>
				</clipPath>
				<path class="st25" d="M57.8,29.9v11.8h-2.6V29.9c0-1.9-0.7-3.1-2.1-3.8c-1.2-0.6-2.4-0.6-2.4-0.6H19.9c-1.9,0-3.1,0.7-3.9,2.1
					c-0.6,1.1-0.6,2.4-0.6,2.4v30.4h-2.6V29.9c0-0.1,0-1.8,0.9-3.5c0.8-1.6,2.5-3.5,6.2-3.5h6.5l0.6-2.6h0.6v2.6h15.8v-2.6h1l1,2.6
					h5.3c0,0,1.8,0,3.6,0.9C55.9,24.5,57.8,26.3,57.8,29.9"/>
			</g>
		</g>
	</g>
	<rect x="33.8" y="16.2" class="st26" width="3.2" height="2.9"/>
	<path class="st22" d="M43.4,19.2v7.3h-2.1v-0.4h-1.7c-1,1.2-2.5,2.1-4.2,2.1c-1.7,0-3.2-0.8-4.2-2.1h-1.5v0.4h-2.1v-7.3h2.1v0.4
		h1.5c1-1.3,2.5-2.1,4.3-2.1c1.7,0,3.3,0.8,4.3,2.1h1.7v-0.4H43.4z"/>
	<path class="st27" d="M40.1,21.8c-0.2-0.1-0.4-0.2-0.6-0.2c-0.3,0-0.5,0.1-0.7,0.2c-0.3-1.2-1.3-2.2-2.5-2.5
		c0.1-0.2,0.2-0.4,0.2-0.7c0-0.2-0.1-0.4-0.2-0.6C38.2,18.4,39.7,19.9,40.1,21.8"/>
	<path class="st27" d="M40.1,23.8c-0.4,1.9-1.8,3.3-3.7,3.7c0.1-0.1,0.1-0.3,0.1-0.5c0-0.3-0.1-0.6-0.3-0.8c1.3-0.3,2.3-1.3,2.6-2.5
		c0.2,0.1,0.4,0.2,0.7,0.2C39.7,23.9,39.9,23.9,40.1,23.8"/>
	<path class="st27" d="M34.2,27c0,0.2,0,0.3,0.1,0.5c-1.9-0.4-3.3-1.9-3.7-3.7c0.2,0.1,0.4,0.2,0.6,0.2c0.2,0,0.5-0.1,0.7-0.2
		c0.3,1.2,1.3,2.2,2.6,2.5C34.3,26.4,34.2,26.7,34.2,27"/>
	<path class="st27" d="M34.4,19.3c-1.2,0.3-2.2,1.3-2.5,2.5c-0.2-0.1-0.4-0.2-0.7-0.2c-0.2,0-0.5,0.1-0.6,0.2
		c0.4-1.9,1.9-3.4,3.8-3.8c-0.1,0.2-0.2,0.4-0.2,0.6C34.2,18.9,34.3,19.1,34.4,19.3"/>
	<path class="st27" d="M38.3,22.8c0,0.2,0.1,0.5,0.2,0.6h-1.9c-0.1,0.3-0.4,0.5-0.7,0.7v2c-0.2-0.1-0.4-0.2-0.6-0.2
		c-0.2,0-0.5,0.1-0.6,0.2v-2c-0.3-0.1-0.5-0.4-0.7-0.7h-1.8c0.1-0.2,0.2-0.4,0.2-0.6c0-0.2-0.1-0.5-0.2-0.6h1.8
		c0.1-0.3,0.4-0.5,0.7-0.7v-1.9c0.2,0.1,0.4,0.2,0.6,0.2c0.2,0,0.5-0.1,0.6-0.2v1.9c0.3,0.1,0.5,0.4,0.7,0.7h1.9
		C38.4,22.3,38.3,22.5,38.3,22.8"/>
	<path class="st27" d="M36.5,18.6c0,0.3-0.1,0.5-0.2,0.7c-0.1,0.1-0.2,0.2-0.3,0.3c-0.2,0.1-0.4,0.2-0.6,0.2c-0.2,0-0.5-0.1-0.6-0.2
		c-0.1-0.1-0.2-0.2-0.3-0.3c-0.1-0.2-0.2-0.4-0.2-0.7c0-0.2,0.1-0.4,0.2-0.6c0.2-0.3,0.6-0.6,1-0.6c0.4,0,0.8,0.2,1,0.6
		C36.5,18.2,36.5,18.4,36.5,18.6"/>
	<path class="st27" d="M36.5,27c0,0.2,0,0.3-0.1,0.5c-0.2,0.4-0.6,0.7-1.1,0.7c-0.5,0-0.9-0.3-1.1-0.7c-0.1-0.1-0.1-0.3-0.1-0.5
		c0-0.3,0.1-0.6,0.3-0.8c0.1-0.1,0.1-0.1,0.2-0.2c0.2-0.1,0.4-0.2,0.6-0.2c0.2,0,0.5,0.1,0.6,0.2c0.1,0.1,0.2,0.1,0.2,0.2
		C36.4,26.4,36.5,26.7,36.5,27"/>
	<path class="st27" d="M40.7,22.8c0,0.4-0.2,0.8-0.6,1c-0.2,0.1-0.4,0.2-0.6,0.2c-0.3,0-0.5-0.1-0.7-0.2c-0.1-0.1-0.2-0.2-0.3-0.3
		c-0.1-0.2-0.2-0.4-0.2-0.6c0-0.2,0.1-0.5,0.2-0.6c0.1-0.1,0.2-0.2,0.3-0.3c0.2-0.1,0.4-0.2,0.7-0.2c0.2,0,0.4,0.1,0.6,0.2
		C40.4,22,40.7,22.4,40.7,22.8"/>
	<path class="st27" d="M32.4,22.8c0,0.2-0.1,0.5-0.2,0.6c-0.1,0.1-0.2,0.2-0.3,0.3c-0.2,0.1-0.4,0.2-0.7,0.2c-0.2,0-0.5-0.1-0.6-0.2
		c-0.3-0.2-0.5-0.6-0.5-1c0-0.4,0.2-0.8,0.5-1c0.2-0.1,0.4-0.2,0.6-0.2c0.2,0,0.5,0.1,0.7,0.2c0.1,0.1,0.2,0.2,0.3,0.3
		C32.3,22.3,32.4,22.5,32.4,22.8"/>
	<path class="st27" d="M35.9,22.8c0,0.3-0.2,0.5-0.5,0.5c-0.3,0-0.5-0.2-0.5-0.5c0-0.3,0.2-0.5,0.5-0.5
		C35.7,22.2,35.9,22.5,35.9,22.8"/>
	<g class="st4">
		<g>
			<defs>
				<rect id="SVGID_31_" x="36" y="19.3" width="2.8" height="2.8"/>
			</defs>
			<clipPath id="SVGID_32_">
				<use xlink:href="#SVGID_31_"  style="overflow:visible;"/>
			</clipPath>
			<g class="st28">
				<defs>
					<rect id="SVGID_33_" x="36" y="19.3" width="2.8" height="2.8"/>
				</defs>
				<clipPath id="SVGID_34_">
					<use xlink:href="#SVGID_33_"  style="overflow:visible;"/>
				</clipPath>
				<path class="st29" d="M38.8,21.8c-0.1,0.1-0.2,0.2-0.3,0.3h-1.9c-0.1-0.3-0.4-0.5-0.7-0.7v-1.9c0.1-0.1,0.2-0.2,0.3-0.3
					C37.5,19.7,38.5,20.6,38.8,21.8"/>
			</g>
		</g>
	</g>
	<g class="st4">
		<g>
			<defs>
				<rect id="SVGID_35_" x="36" y="23.4" width="2.8" height="2.8"/>
			</defs>
			<clipPath id="SVGID_36_">
				<use xlink:href="#SVGID_35_"  style="overflow:visible;"/>
			</clipPath>
			<g class="st30">
				<defs>
					<rect id="SVGID_37_" x="36" y="23.4" width="2.8" height="2.8"/>
				</defs>
				<clipPath id="SVGID_38_">
					<use xlink:href="#SVGID_37_"  style="overflow:visible;"/>
				</clipPath>
				<path class="st31" d="M38.8,23.7c-0.3,1.2-1.3,2.2-2.6,2.5c-0.1-0.1-0.1-0.1-0.2-0.2v-2c0.3-0.1,0.5-0.4,0.7-0.7h1.9
					C38.6,23.5,38.7,23.6,38.8,23.7"/>
			</g>
		</g>
	</g>
	<g class="st4">
		<g>
			<defs>
				<rect id="SVGID_39_" x="31.9" y="23.4" width="2.8" height="2.8"/>
			</defs>
			<clipPath id="SVGID_40_">
				<use xlink:href="#SVGID_39_"  style="overflow:visible;"/>
			</clipPath>
			<g class="st32">
				<defs>
					<rect id="SVGID_41_" x="31.9" y="23.4" width="2.8" height="2.8"/>
				</defs>
				<clipPath id="SVGID_42_">
					<use xlink:href="#SVGID_41_"  style="overflow:visible;"/>
				</clipPath>
				<path class="st33" d="M34.7,24.1v2c-0.1,0.1-0.2,0.1-0.2,0.2c-1.3-0.3-2.3-1.3-2.6-2.5c0.1-0.1,0.2-0.2,0.3-0.3h1.8
					C34.2,23.7,34.4,23.9,34.7,24.1"/>
			</g>
		</g>
	</g>
	<g class="st4">
		<g>
			<defs>
				<rect id="SVGID_43_" x="31.9" y="19.3" width="2.8" height="2.8"/>
			</defs>
			<clipPath id="SVGID_44_">
				<use xlink:href="#SVGID_43_"  style="overflow:visible;"/>
			</clipPath>
			<g class="st34">
				<defs>
					<rect id="SVGID_45_" x="31.9" y="19.3" width="2.8" height="2.8"/>
				</defs>
				<clipPath id="SVGID_46_">
					<use xlink:href="#SVGID_45_"  style="overflow:visible;"/>
				</clipPath>
				<path class="st35" d="M34.7,19.6v1.9c-0.3,0.1-0.5,0.4-0.7,0.7h-1.8c-0.1-0.1-0.2-0.2-0.3-0.3c0.3-1.2,1.3-2.2,2.5-2.5
					C34.5,19.4,34.6,19.5,34.7,19.6"/>
			</g>
		</g>
	</g>
	<g class="st36">
		<g>
			<defs>
				<rect id="SVGID_47_" x="35.4" y="22.8" width="3.2" height="3.3"/>
			</defs>
			<clipPath id="SVGID_48_">
				<use xlink:href="#SVGID_47_"  style="overflow:visible;"/>
			</clipPath>
			<g class="st37">
				<defs>
					<rect id="SVGID_49_" x="35.4" y="22.8" width="3.2" height="3.3"/>
				</defs>
				<clipPath id="SVGID_50_">
					<use xlink:href="#SVGID_49_"  style="overflow:visible;"/>
				</clipPath>
				<path class="st38" d="M38.5,23.4h-1.9c-0.1,0.3-0.4,0.5-0.7,0.7v2c-0.2-0.1-0.4-0.2-0.6-0.2v-2.2c0.5,0,0.9-0.4,0.9-0.8h2.1
					C38.3,23,38.4,23.2,38.5,23.4"/>
			</g>
		</g>
	</g>
	<g class="st36">
		<g>
			<defs>
				<rect id="SVGID_51_" x="18.8" y="29" width="1.8" height="0.6"/>
			</defs>
			<clipPath id="SVGID_52_">
				<use xlink:href="#SVGID_51_"  style="overflow:visible;"/>
			</clipPath>
			<g class="st39">
				<defs>
					<rect id="SVGID_53_" x="18.8" y="29" width="1.8" height="0.6"/>
				</defs>
				<clipPath id="SVGID_54_">
					<use xlink:href="#SVGID_53_"  style="overflow:visible;"/>
				</clipPath>
				<path class="st40" d="M20.6,29.6h-1.8c0.1-0.2,0.2-0.4,0.2-0.6h1.5C20.5,29.2,20.5,29.5,20.6,29.6"/>
			</g>
		</g>
	</g>
	<g class="st36">
		<g>
			<defs>
				<rect id="SVGID_55_" x="35.4" y="19.6" width="0.6" height="1.9"/>
			</defs>
			<clipPath id="SVGID_56_">
				<use xlink:href="#SVGID_55_"  style="overflow:visible;"/>
			</clipPath>
			<g class="st41">
				<defs>
					<rect id="SVGID_57_" x="35.4" y="19.6" width="0.6" height="1.9"/>
				</defs>
				<clipPath id="SVGID_58_">
					<use xlink:href="#SVGID_57_"  style="overflow:visible;"/>
				</clipPath>
				<path class="st42" d="M36,19.6v1.9c-0.2-0.1-0.4-0.1-0.6-0.1v-1.5C35.6,19.8,35.8,19.7,36,19.6"/>
			</g>
		</g>
	</g>
	<g class="st36">
		<g>
			<defs>
				<rect id="SVGID_59_" x="34.2" y="17.5" width="2.3" height="2.3"/>
			</defs>
			<clipPath id="SVGID_60_">
				<use xlink:href="#SVGID_59_"  style="overflow:visible;"/>
			</clipPath>
			<g class="st43">
				<defs>
					<rect id="SVGID_61_" x="34.2" y="17.5" width="2.3" height="2.3"/>
				</defs>
				<clipPath id="SVGID_62_">
					<use xlink:href="#SVGID_61_"  style="overflow:visible;"/>
				</clipPath>
				<path class="st44" d="M36.5,18.6c0,0.3-0.1,0.5-0.2,0.7c-0.1,0.1-0.2,0.2-0.3,0.3c-0.2,0.1-0.4,0.2-0.6,0.2
					c-0.2,0-0.5-0.1-0.6-0.2c-0.1-0.1-0.2-0.2-0.3-0.3c-0.1-0.2-0.2-0.4-0.2-0.7c0-0.1,0-0.3,0.1-0.4c0,0.1,0,0.3,0.1,0.4
					c0,0.1,0.1,0.1,0.2,0.2c0.1,0.1,0.3,0.1,0.4,0.1c0.1,0,0.3,0,0.4-0.1c0.2-0.1,0.4-0.4,0.4-0.6c0-0.3-0.1-0.5-0.4-0.6
					c-0.1,0-0.1-0.1-0.2-0.1c0.1,0,0.1,0,0.2,0c0.4,0,0.8,0.2,1,0.6C36.5,18.2,36.5,18.4,36.5,18.6"/>
			</g>
		</g>
	</g>
	<g class="st36">
		<g>
			<defs>
				<rect id="SVGID_63_" x="34.2" y="25.9" width="2.3" height="2.3"/>
			</defs>
			<clipPath id="SVGID_64_">
				<use xlink:href="#SVGID_63_"  style="overflow:visible;"/>
			</clipPath>
			<g class="st45">
				<defs>
					<rect id="SVGID_65_" x="34.2" y="25.9" width="2.3" height="2.3"/>
				</defs>
				<clipPath id="SVGID_66_">
					<use xlink:href="#SVGID_65_"  style="overflow:visible;"/>
				</clipPath>
				<path class="st46" d="M36.5,27c0,0.2,0,0.3-0.1,0.5c-0.2,0.4-0.6,0.7-1.1,0.7c-0.5,0-0.9-0.3-1.1-0.7c-0.1-0.1-0.1-0.3-0.1-0.5
					c0-0.1,0-0.3,0.1-0.4c0,0.1,0,0.3,0.1,0.4c0,0.1,0.1,0.1,0.2,0.2c0.1,0.1,0.3,0.1,0.4,0.1c0.1,0,0.3,0,0.4-0.1
					c0.2-0.1,0.4-0.4,0.4-0.6c0-0.3-0.1-0.5-0.4-0.6c-0.1-0.1-0.2-0.1-0.3-0.1c0.1,0,0.2,0,0.2,0c0.2,0,0.5,0.1,0.6,0.2
					c0.1,0.1,0.2,0.1,0.2,0.2C36.4,26.4,36.5,26.7,36.5,27"/>
			</g>
		</g>
	</g>
	<g class="st36">
		<g>
			<defs>
				<rect id="SVGID_67_" x="38.3" y="21.6" width="2.3" height="2.3"/>
			</defs>
			<clipPath id="SVGID_68_">
				<use xlink:href="#SVGID_67_"  style="overflow:visible;"/>
			</clipPath>
			<g class="st47">
				<defs>
					<rect id="SVGID_69_" x="38.3" y="21.6" width="2.3" height="2.3"/>
				</defs>
				<clipPath id="SVGID_70_">
					<use xlink:href="#SVGID_69_"  style="overflow:visible;"/>
				</clipPath>
				<path class="st48" d="M40.7,22.8c0,0.4-0.2,0.8-0.6,1c-0.2,0.1-0.4,0.2-0.6,0.2c-0.3,0-0.5-0.1-0.7-0.2
					c-0.1-0.1-0.2-0.2-0.3-0.3c-0.1-0.2-0.2-0.4-0.2-0.6c0-0.1,0-0.2,0-0.2c0,0.1,0.1,0.2,0.1,0.2c0,0.1,0.1,0.1,0.2,0.2
					c0.1,0.1,0.3,0.1,0.4,0.1c0.1,0,0.3,0,0.4-0.1c0.2-0.1,0.4-0.4,0.4-0.6c0-0.3-0.1-0.5-0.4-0.6c-0.1,0-0.2-0.1-0.3-0.1
					c0.1,0,0.2,0,0.3,0c0.2,0,0.4,0.1,0.6,0.2C40.4,22,40.7,22.4,40.7,22.8"/>
			</g>
		</g>
	</g>
	<g class="st36">
		<g>
			<defs>
				<rect id="SVGID_71_" x="30.1" y="21.6" width="2.3" height="2.3"/>
			</defs>
			<clipPath id="SVGID_72_">
				<use xlink:href="#SVGID_71_"  style="overflow:visible;"/>
			</clipPath>
			<g class="st49">
				<defs>
					<rect id="SVGID_73_" x="30.1" y="21.6" width="2.3" height="2.3"/>
				</defs>
				<clipPath id="SVGID_74_">
					<use xlink:href="#SVGID_73_"  style="overflow:visible;"/>
				</clipPath>
				<path class="st50" d="M32.4,22.8c0,0.2-0.1,0.5-0.2,0.6c-0.1,0.1-0.2,0.2-0.3,0.3c-0.2,0.1-0.4,0.2-0.7,0.2
					c-0.2,0-0.5-0.1-0.6-0.2c-0.3-0.2-0.5-0.6-0.5-1c0-0.1,0-0.1,0-0.2c0,0.1,0.1,0.2,0.1,0.2c0,0.1,0.1,0.1,0.2,0.2
					c0.1,0.1,0.3,0.1,0.4,0.1c0.1,0,0.3,0,0.4-0.1c0.2-0.1,0.3-0.4,0.3-0.6c0-0.3-0.1-0.5-0.3-0.6c-0.1,0-0.2-0.1-0.3-0.1
					c0.1,0,0.2,0,0.3,0c0.2,0,0.5,0.1,0.7,0.2c0.1,0.1,0.2,0.2,0.3,0.3C32.3,22.3,32.4,22.5,32.4,22.8"/>
			</g>
		</g>
	</g>
	<path class="st51" d="M39.3,13.2c0,2.1-1.7,3.9-3.9,3.9c-2.1,0-3.9-1.7-3.9-3.9c0-2.1,1.7-3.9,3.9-3.9C37.5,9.3,39.3,11,39.3,13.2"
		/>
	<path class="st26" d="M38.8,13.2c0,1.9-1.5,3.4-3.4,3.4c-1.9,0-3.4-1.5-3.4-3.4c0-1.9,1.5-3.4,3.4-3.4
		C37.2,9.8,38.8,11.3,38.8,13.2"/>
	<path class="st52" d="M34.6,12.4c-0.3,0.1-0.6,0.3-0.8,0.5L33,12.1c0.3-0.3,0.8-0.6,1.2-0.8L34.6,12.4z"/>
	<path class="st53" d="M36.3,11.2L36,12.4c-0.2-0.1-0.4-0.1-0.6-0.1c-0.3,0-0.5,0-0.8,0.1l-0.4-1.1c0.4-0.1,0.8-0.2,1.2-0.2
		C35.7,11.1,36,11.1,36.3,11.2"/>
	<path class="st54" d="M37.8,12.1l-0.9,0.9c-0.3-0.3-0.6-0.4-0.9-0.5l0.3-1.2C36.9,11.4,37.4,11.7,37.8,12.1"/>
	<rect x="33" y="14.1" class="st55" width="0.7" height="0.9"/>
	<path class="st56" d="M33.5,14.3c0,0-0.1,0-0.1,0c-0.1,0-0.1,0-0.1,0c0,0-0.1,0.1-0.1,0.1v0c0,0,0,0,0,0v0h0.1v0c0,0,0,0,0,0v0
		c0,0,0,0,0,0c0,0,0,0,0.1,0C33.3,14.4,33.4,14.4,33.5,14.3c-0.1,0.1-0.1,0.1-0.1,0.1v0c0,0,0,0,0,0c0,0,0,0.1,0,0.1
		c0,0,0,0.1-0.1,0.1c0,0-0.1,0.1-0.1,0.1l0,0c0,0,0,0,0,0c0,0,0,0,0,0c0,0,0,0,0,0v0.1h0.4v-0.1h-0.2c0,0,0,0,0,0c0,0,0,0,0,0l0,0
		l0,0c0,0,0-0.1,0.1-0.1c0.1-0.1,0.1-0.1,0.1-0.1c0,0,0-0.1,0-0.1v0C33.5,14.4,33.5,14.3,33.5,14.3"/>
	<rect x="33.8" y="14.1" class="st55" width="0.7" height="0.9"/>
	<path class="st56" d="M34.1,14.3C34.1,14.3,34.1,14.3,34.1,14.3C34,14.3,34,14.3,34,14.3v0.1h0.1v0.5h0.1L34.1,14.3L34.1,14.3z"/>
	<rect x="34.6" y="14.1" class="st55" width="0.7" height="0.9"/>
	<path class="st56" d="M35.1,14.5c0,0-0.1,0-0.1,0c0,0,0,0,0,0c0,0,0,0-0.1,0v-0.1h0.2v-0.1h-0.4v0.3h0.1v0c0,0,0,0,0,0c0,0,0,0,0,0
		c0,0,0,0,0,0C35,14.6,35,14.6,35.1,14.5L35,14.7c0,0,0,0.1-0.1,0.1c0,0,0,0,0,0c0,0,0,0,0,0v0l0,0l-0.1,0v0c0,0,0,0.1,0,0.1
		c0,0,0.1,0,0.1,0c0.1,0,0.1,0,0.1,0c0,0,0.1-0.1,0.1-0.1v-0.1C35.1,14.6,35.1,14.5,35.1,14.5"/>
	<rect x="35.4" y="14.1" class="st55" width="0.7" height="0.9"/>
	<path class="st56" d="M35.9,14.7v-0.4h-0.1l-0.1,0.1l0,0l-0.1,0.2v0.1h0.2v0.1h0.1V14.7L35.9,14.7L35.9,14.7L35.9,14.7z M35.8,14.5
		v0.2h-0.1L35.8,14.5z"/>
	<rect x="36.2" y="14.1" class="st55" width="0.7" height="0.9"/>
	<path class="st56" d="M36.7,14.3c0,0-0.1,0-0.1,0c0,0-0.1,0-0.1,0c0,0-0.1,0-0.1,0.1c0,0,0,0.1,0,0.1v0.3c0,0,0,0.1,0,0.1
		c0,0,0.1,0,0.1,0c0,0,0.1,0,0.1,0c0,0,0.1-0.1,0.1-0.1v-0.1c0,0,0-0.1,0-0.1c0,0-0.1,0-0.1,0c0,0-0.1,0-0.1,0v-0.1c0,0,0,0,0,0
		c0,0,0,0,0,0C36.6,14.3,36.6,14.4,36.7,14.3c-0.1,0.1-0.1,0.1-0.1,0.1v0h0.1v0C36.8,14.4,36.7,14.3,36.7,14.3 M36.5,14.6
		C36.5,14.6,36.5,14.6,36.5,14.6C36.6,14.6,36.6,14.6,36.5,14.6c0.1,0,0.1,0,0.1,0v0.1c0,0,0,0,0,0c0,0,0,0,0,0c0,0,0,0,0,0
		c0,0,0,0,0,0L36.5,14.6C36.5,14.6,36.5,14.6,36.5,14.6"/>
	<rect x="37.1" y="14.1" class="st55" width="0.7" height="0.9"/>
	<path class="st56" d="M37.6,14.6C37.6,14.6,37.5,14.6,37.6,14.6C37.5,14.6,37.5,14.5,37.6,14.6c0-0.1,0-0.2,0-0.2v0
		c0,0,0-0.1,0-0.1c0,0-0.1,0-0.1,0h0c-0.1,0-0.1,0-0.1,0c0,0,0,0.1,0,0.1v0c0,0,0,0,0,0.1c0,0,0,0.1,0.1,0.1c0,0,0,0,0,0
		c0,0-0.1,0.1-0.1,0.1v0.1c0,0,0,0.1,0.1,0.1c0,0,0.1,0,0.1,0h0c0.1,0,0.1,0,0.1,0c0,0,0.1-0.1,0.1-0.1L37.6,14.6
		C37.6,14.7,37.6,14.6,37.6,14.6 M37.3,14.4C37.3,14.4,37.3,14.4,37.3,14.4C37.3,14.4,37.3,14.4,37.3,14.4
		C37.4,14.3,37.4,14.3,37.3,14.4c0.1-0.1,0.1-0.1,0.1-0.1c0,0,0,0,0.1,0.1v0c0,0,0,0,0,0.1C37.5,14.5,37.4,14.5,37.3,14.4
		C37.4,14.5,37.4,14.5,37.3,14.4C37.3,14.5,37.3,14.5,37.3,14.4C37.3,14.4,37.3,14.4,37.3,14.4L37.3,14.4z M37.5,14.8
		C37.5,14.8,37.4,14.8,37.5,14.8c-0.1,0-0.1,0-0.1,0c0,0,0,0,0,0c0,0,0,0,0,0v0c0,0,0,0,0-0.1c0,0,0,0,0.1,0c0,0,0,0,0,0
		C37.5,14.6,37.5,14.7,37.5,14.8L37.5,14.8C37.5,14.7,37.5,14.8,37.5,14.8"/>
	<path class="st57" d="M33.1,12.7c0,0.1-0.1,0.3-0.3,0.3c-0.1,0-0.3-0.1-0.3-0.3c0-0.1,0.1-0.3,0.3-0.3C33,12.4,33.1,12.5,33.1,12.7
		"/>
	<path class="st57" d="M33.1,13.6c0,0.1-0.1,0.3-0.3,0.3c-0.1,0-0.3-0.1-0.3-0.3c0-0.1,0.1-0.3,0.3-0.3C33,13.3,33.1,13.5,33.1,13.6
		"/>
	<path class="st57" d="M38.2,12.7c0,0.1-0.1,0.3-0.3,0.3c-0.1,0-0.3-0.1-0.3-0.3c0-0.1,0.1-0.3,0.3-0.3
		C38.1,12.4,38.2,12.5,38.2,12.7"/>
	<path class="st57" d="M38.2,13.6c0,0.1-0.1,0.3-0.3,0.3c-0.1,0-0.3-0.1-0.3-0.3c0-0.1,0.1-0.3,0.3-0.3
		C38.1,13.3,38.2,13.5,38.2,13.6"/>
	<polygon class="st55" points="35.1,13.3 36.4,12 35.4,13.5 	"/>
	<g class="st4">
		<g>
			<defs>
				<rect id="SVGID_75_" x="32" y="9.8" width="6.2" height="6.2"/>
			</defs>
			<clipPath id="SVGID_76_">
				<use xlink:href="#SVGID_75_"  style="overflow:visible;"/>
			</clipPath>
			<g class="st58">
				<defs>
					<rect id="SVGID_77_" x="32" y="9.8" width="6.2" height="6.2"/>
				</defs>
				<clipPath id="SVGID_78_">
					<use xlink:href="#SVGID_77_"  style="overflow:visible;"/>
				</clipPath>
				<path class="st59" d="M38.2,11.3c-0.5-0.4-1.2-0.6-1.9-0.6c-1.9,0-3.4,1.5-3.4,3.4c0,0.7,0.2,1.3,0.6,1.9
					c-0.9-0.6-1.5-1.6-1.5-2.8c0-1.9,1.5-3.4,3.4-3.4C36.5,9.8,37.6,10.4,38.2,11.3"/>
			</g>
		</g>
	</g>
	<g class="st4">
		<g>
			<defs>
				<rect id="SVGID_79_" x="33" y="14.1" width="0.7" height="0.3"/>
			</defs>
			<clipPath id="SVGID_80_">
				<use xlink:href="#SVGID_79_"  style="overflow:visible;"/>
			</clipPath>
			<g class="st60">
				<defs>
					<rect id="SVGID_81_" x="33" y="14.1" width="0.7" height="0.3"/>
				</defs>
				<clipPath id="SVGID_82_">
					<use xlink:href="#SVGID_81_"  style="overflow:visible;"/>
				</clipPath>
				<rect x="33" y="14.1" class="st61" width="0.7" height="0.3"/>
			</g>
		</g>
	</g>
	<g class="st4">
		<g>
			<defs>
				<rect id="SVGID_83_" x="33" y="14.7" width="0.7" height="0.3"/>
			</defs>
			<clipPath id="SVGID_84_">
				<use xlink:href="#SVGID_83_"  style="overflow:visible;"/>
			</clipPath>
			<g class="st62">
				<defs>
					<rect id="SVGID_85_" x="33" y="14.7" width="0.7" height="0.3"/>
				</defs>
				<clipPath id="SVGID_86_">
					<use xlink:href="#SVGID_85_"  style="overflow:visible;"/>
				</clipPath>
				<rect x="33" y="14.7" class="st63" width="0.7" height="0.3"/>
			</g>
		</g>
	</g>
	<g class="st4">
		<g>
			<defs>
				<rect id="SVGID_87_" x="33.8" y="14.1" width="0.7" height="0.3"/>
			</defs>
			<clipPath id="SVGID_88_">
				<use xlink:href="#SVGID_87_"  style="overflow:visible;"/>
			</clipPath>
			<g class="st64">
				<defs>
					<rect id="SVGID_89_" x="33.8" y="14.1" width="0.7" height="0.3"/>
				</defs>
				<clipPath id="SVGID_90_">
					<use xlink:href="#SVGID_89_"  style="overflow:visible;"/>
				</clipPath>
				<rect x="33.8" y="14.1" class="st65" width="0.7" height="0.3"/>
			</g>
		</g>
	</g>
	<g class="st4">
		<g>
			<defs>
				<rect id="SVGID_91_" x="33.8" y="14.7" width="0.7" height="0.3"/>
			</defs>
			<clipPath id="SVGID_92_">
				<use xlink:href="#SVGID_91_"  style="overflow:visible;"/>
			</clipPath>
			<g class="st66">
				<defs>
					<rect id="SVGID_93_" x="33.8" y="14.7" width="0.7" height="0.3"/>
				</defs>
				<clipPath id="SVGID_94_">
					<use xlink:href="#SVGID_93_"  style="overflow:visible;"/>
				</clipPath>
				<rect x="33.8" y="14.7" class="st67" width="0.7" height="0.3"/>
			</g>
		</g>
	</g>
	<g class="st4">
		<g>
			<defs>
				<rect id="SVGID_95_" x="34.6" y="14.1" width="0.7" height="0.3"/>
			</defs>
			<clipPath id="SVGID_96_">
				<use xlink:href="#SVGID_95_"  style="overflow:visible;"/>
			</clipPath>
			<g class="st68">
				<defs>
					<rect id="SVGID_97_" x="34.6" y="14.1" width="0.7" height="0.3"/>
				</defs>
				<clipPath id="SVGID_98_">
					<use xlink:href="#SVGID_97_"  style="overflow:visible;"/>
				</clipPath>
				<rect x="34.6" y="14.1" class="st69" width="0.7" height="0.3"/>
			</g>
		</g>
	</g>
	<g class="st4">
		<g>
			<defs>
				<rect id="SVGID_99_" x="34.6" y="14.7" width="0.7" height="0.3"/>
			</defs>
			<clipPath id="SVGID_100_">
				<use xlink:href="#SVGID_99_"  style="overflow:visible;"/>
			</clipPath>
			<g class="st70">
				<defs>
					<rect id="SVGID_101_" x="34.6" y="14.7" width="0.7" height="0.3"/>
				</defs>
				<clipPath id="SVGID_102_">
					<use xlink:href="#SVGID_101_"  style="overflow:visible;"/>
				</clipPath>
				<rect x="34.6" y="14.7" class="st71" width="0.7" height="0.3"/>
			</g>
		</g>
	</g>
	<g class="st4">
		<g>
			<defs>
				<rect id="SVGID_103_" x="35.4" y="14.1" width="0.7" height="0.3"/>
			</defs>
			<clipPath id="SVGID_104_">
				<use xlink:href="#SVGID_103_"  style="overflow:visible;"/>
			</clipPath>
			<g class="st72">
				<defs>
					<rect id="SVGID_105_" x="35.4" y="14.1" width="0.7" height="0.3"/>
				</defs>
				<clipPath id="SVGID_106_">
					<use xlink:href="#SVGID_105_"  style="overflow:visible;"/>
				</clipPath>
				<rect x="35.4" y="14.1" class="st73" width="0.7" height="0.3"/>
			</g>
		</g>
	</g>
	<g class="st4">
		<g>
			<defs>
				<rect id="SVGID_107_" x="35.4" y="14.7" width="0.7" height="0.3"/>
			</defs>
			<clipPath id="SVGID_108_">
				<use xlink:href="#SVGID_107_"  style="overflow:visible;"/>
			</clipPath>
			<g class="st74">
				<defs>
					<rect id="SVGID_109_" x="35.4" y="14.7" width="0.7" height="0.3"/>
				</defs>
				<clipPath id="SVGID_110_">
					<use xlink:href="#SVGID_109_"  style="overflow:visible;"/>
				</clipPath>
				<rect x="35.4" y="14.7" class="st75" width="0.7" height="0.3"/>
			</g>
		</g>
	</g>
	<g class="st4">
		<g>
			<defs>
				<rect id="SVGID_111_" x="36.2" y="14.1" width="0.7" height="0.3"/>
			</defs>
			<clipPath id="SVGID_112_">
				<use xlink:href="#SVGID_111_"  style="overflow:visible;"/>
			</clipPath>
			<g class="st76">
				<defs>
					<rect id="SVGID_113_" x="36.2" y="14.1" width="0.7" height="0.3"/>
				</defs>
				<clipPath id="SVGID_114_">
					<use xlink:href="#SVGID_113_"  style="overflow:visible;"/>
				</clipPath>
				<rect x="36.2" y="14.1" class="st77" width="0.7" height="0.3"/>
			</g>
		</g>
	</g>
	<g class="st4">
		<g>
			<defs>
				<rect id="SVGID_115_" x="36.2" y="14.7" width="0.7" height="0.3"/>
			</defs>
			<clipPath id="SVGID_116_">
				<use xlink:href="#SVGID_115_"  style="overflow:visible;"/>
			</clipPath>
			<g class="st78">
				<defs>
					<rect id="SVGID_117_" x="36.2" y="14.7" width="0.7" height="0.3"/>
				</defs>
				<clipPath id="SVGID_118_">
					<use xlink:href="#SVGID_117_"  style="overflow:visible;"/>
				</clipPath>
				<rect x="36.2" y="14.7" class="st79" width="0.7" height="0.3"/>
			</g>
		</g>
	</g>
	<g class="st4">
		<g>
			<defs>
				<rect id="SVGID_119_" x="37.1" y="14.1" width="0.7" height="0.3"/>
			</defs>
			<clipPath id="SVGID_120_">
				<use xlink:href="#SVGID_119_"  style="overflow:visible;"/>
			</clipPath>
			<g class="st80">
				<defs>
					<rect id="SVGID_121_" x="37.1" y="14.1" width="0.7" height="0.3"/>
				</defs>
				<clipPath id="SVGID_122_">
					<use xlink:href="#SVGID_121_"  style="overflow:visible;"/>
				</clipPath>
				<rect x="37.1" y="14.1" class="st81" width="0.7" height="0.3"/>
			</g>
		</g>
	</g>
	<g class="st4">
		<g>
			<defs>
				<rect id="SVGID_123_" x="37.1" y="14.7" width="0.7" height="0.3"/>
			</defs>
			<clipPath id="SVGID_124_">
				<use xlink:href="#SVGID_123_"  style="overflow:visible;"/>
			</clipPath>
			<g class="st82">
				<defs>
					<rect id="SVGID_125_" x="37.1" y="14.7" width="0.7" height="0.3"/>
				</defs>
				<clipPath id="SVGID_126_">
					<use xlink:href="#SVGID_125_"  style="overflow:visible;"/>
				</clipPath>
				<rect x="37.1" y="14.7" class="st83" width="0.7" height="0.3"/>
			</g>
		</g>
	</g>
	<g class="st4">
		<g>
			<defs>
				<rect id="SVGID_127_" x="27.6" y="24.5" width="7.4" height="3.6"/>
			</defs>
			<clipPath id="SVGID_128_">
				<use xlink:href="#SVGID_127_"  style="overflow:visible;"/>
			</clipPath>
			<g class="st84">
				<defs>
					<rect id="SVGID_129_" x="27.6" y="24.5" width="7.4" height="3.6"/>
				</defs>
				<clipPath id="SVGID_130_">
					<use xlink:href="#SVGID_129_"  style="overflow:visible;"/>
				</clipPath>
				<path class="st85" d="M34.9,28.1c-0.5,0-1-0.1-1.4-0.3h0c-0.9-0.3-1.8-0.9-2.4-1.7h-1.5v0.4h-2.1v-1.3h2.1v-0.6h1.2
					c0.2,0.6,0.5,1.1,1,1.5l0,0c0.1,0.1,0.2,0.2,0.3,0.3l0,0c0.6,0.6,1.4,1,2.2,1.2C34.4,27.8,34.7,28,34.9,28.1"/>
			</g>
		</g>
	</g>
	<g class="st4">
		<g>
			<defs>
				<rect id="SVGID_131_" x="35.8" y="19.5" width="7.6" height="8.6"/>
			</defs>
			<clipPath id="SVGID_132_">
				<use xlink:href="#SVGID_131_"  style="overflow:visible;"/>
			</clipPath>
			<g class="st86">
				<defs>
					<rect id="SVGID_133_" x="35.8" y="19.5" width="7.6" height="8.6"/>
				</defs>
				<clipPath id="SVGID_134_">
					<use xlink:href="#SVGID_133_"  style="overflow:visible;"/>
				</clipPath>
				<path class="st87" d="M43.4,25.1v1.3h-2.1v-0.4h-1.7c-0.9,1.1-2.3,1.9-3.8,2c0.3-0.1,0.5-0.3,0.6-0.6c1.9-0.4,3.3-1.9,3.7-3.7
					c0.3-0.2,0.6-0.6,0.6-1s-0.2-0.8-0.6-1c-0.2-0.9-0.6-1.7-1.2-2.3l2.4,2.4v3.2H43.4z"/>
			</g>
		</g>
	</g>
	<g class="st23">
		<g>
			<defs>
				<rect id="SVGID_135_" x="25.5" y="18.6" width="2.8" height="1.6"/>
			</defs>
			<clipPath id="SVGID_136_">
				<use xlink:href="#SVGID_135_"  style="overflow:visible;"/>
			</clipPath>
			<g class="st88">
				<defs>
					<rect id="SVGID_137_" x="25.5" y="18.6" width="2.8" height="1.6"/>
				</defs>
				<clipPath id="SVGID_138_">
					<use xlink:href="#SVGID_137_"  style="overflow:visible;"/>
				</clipPath>
				<polygon class="st89" points="28.3,18.6 28.3,19.2 27.6,19.2 27.6,20.2 25.5,20.2 25.5,19.2 27.3,19.2 27.3,18.6 				"/>
			</g>
		</g>
	</g>
	<g class="st23">
		<g>
			<defs>
				<rect id="SVGID_139_" x="25.5" y="25.5" width="2.8" height="1.7"/>
			</defs>
			<clipPath id="SVGID_140_">
				<use xlink:href="#SVGID_139_"  style="overflow:visible;"/>
			</clipPath>
			<g class="st90">
				<defs>
					<rect id="SVGID_141_" x="25.5" y="25.5" width="2.8" height="1.7"/>
				</defs>
				<clipPath id="SVGID_142_">
					<use xlink:href="#SVGID_141_"  style="overflow:visible;"/>
				</clipPath>
				<polygon class="st91" points="28.3,26.4 28.3,27.2 27.1,27.2 27.1,26.5 25.5,26.5 25.5,25.5 27.6,25.5 27.6,26.4 				"/>
			</g>
		</g>
	</g>
	<g class="st23">
		<g>
			<defs>
				<rect id="SVGID_143_" x="16.8" y="19.2" width="3.8" height="1.5"/>
			</defs>
			<clipPath id="SVGID_144_">
				<use xlink:href="#SVGID_143_"  style="overflow:visible;"/>
			</clipPath>
			<g class="st92">
				<defs>
					<rect id="SVGID_145_" x="16.8" y="19.2" width="3.8" height="1.5"/>
				</defs>
				<clipPath id="SVGID_146_">
					<use xlink:href="#SVGID_145_"  style="overflow:visible;"/>
				</clipPath>
				<path class="st93" d="M20.6,20.2h-0.7c-0.2,0-0.3,0-0.5,0c-0.1-0.3-0.4-0.5-0.7-0.5c-0.4,0-0.7,0.3-0.8,0.6
					c-0.4,0.1-0.8,0.2-1.1,0.3v-0.1c0-0.4,0.1-0.8,0.4-1.1c0.8-0.2,1.7-0.3,2.7-0.3H20C20.3,19.4,20.5,19.8,20.6,20.2"/>
			</g>
		</g>
	</g>
	<g class="st23">
		<g>
			<defs>
				<rect id="SVGID_147_" x="14.1" y="20.1" width="1.1" height="1.9"/>
			</defs>
			<clipPath id="SVGID_148_">
				<use xlink:href="#SVGID_147_"  style="overflow:visible;"/>
			</clipPath>
			<g class="st94">
				<defs>
					<rect id="SVGID_149_" x="14.1" y="20.1" width="1.1" height="1.9"/>
				</defs>
				<clipPath id="SVGID_150_">
					<use xlink:href="#SVGID_149_"  style="overflow:visible;"/>
				</clipPath>
				<path class="st95" d="M15.2,20.1v1.2c-0.4,0.2-0.8,0.4-1.1,0.7v-1.3C14.4,20.5,14.8,20.3,15.2,20.1"/>
			</g>
		</g>
	</g>
	<g class="st23">
		<g>
			<defs>
				<rect id="SVGID_151_" x="11" y="22" width="1.4" height="1.7"/>
			</defs>
			<clipPath id="SVGID_152_">
				<use xlink:href="#SVGID_151_"  style="overflow:visible;"/>
			</clipPath>
			<g class="st96">
				<defs>
					<rect id="SVGID_153_" x="11" y="22" width="1.4" height="1.7"/>
				</defs>
				<clipPath id="SVGID_154_">
					<use xlink:href="#SVGID_153_"  style="overflow:visible;"/>
				</clipPath>
				<path class="st97" d="M12.4,22c-0.1,0.8-0.6,1.5-1.4,1.7C11.4,23,11.9,22.5,12.4,22"/>
			</g>
		</g>
	</g>
	<g class="st23">
		<g>
			<defs>
				<rect id="SVGID_155_" x="19.6" y="25.5" width="1.1" height="1.1"/>
			</defs>
			<clipPath id="SVGID_156_">
				<use xlink:href="#SVGID_155_"  style="overflow:visible;"/>
			</clipPath>
			<g class="st98">
				<defs>
					<rect id="SVGID_157_" x="19.6" y="25.5" width="1.1" height="1.1"/>
				</defs>
				<clipPath id="SVGID_158_">
					<use xlink:href="#SVGID_157_"  style="overflow:visible;"/>
				</clipPath>
				<path class="st99" d="M20.6,25.5v1h-0.7c-0.1,0-0.3,0-0.4,0v-1.1c0.1,0,0.2,0,0.4,0H20.6z"/>
			</g>
		</g>
	</g>
	<g class="st23">
		<g>
			<defs>
				<rect id="SVGID_159_" x="16.8" y="25.8" width="1.1" height="2.6"/>
			</defs>
			<clipPath id="SVGID_160_">
				<use xlink:href="#SVGID_159_"  style="overflow:visible;"/>
			</clipPath>
			<g class="st100">
				<defs>
					<rect id="SVGID_161_" x="16.8" y="25.8" width="1.1" height="2.6"/>
				</defs>
				<clipPath id="SVGID_162_">
					<use xlink:href="#SVGID_161_"  style="overflow:visible;"/>
				</clipPath>
				<path class="st101" d="M17.9,25.8V27c-0.5,0.3-0.7,0.7-0.9,1.1c-0.1,0.1-0.1,0.3-0.2,0.4v-1.9C17.1,26.2,17.5,26,17.9,25.8"/>
			</g>
		</g>
	</g>
	<g class="st23">
		<g>
			<defs>
				<rect id="SVGID_163_" x="15.4" y="29.1" width="1.2" height="1.4"/>
			</defs>
			<clipPath id="SVGID_164_">
				<use xlink:href="#SVGID_163_"  style="overflow:visible;"/>
			</clipPath>
			<g class="st102">
				<defs>
					<rect id="SVGID_165_" x="15.4" y="29.1" width="1.2" height="1.4"/>
				</defs>
				<clipPath id="SVGID_166_">
					<use xlink:href="#SVGID_165_"  style="overflow:visible;"/>
				</clipPath>
				<path class="st103" d="M16.6,29.1c-0.1,0.5-0.1,0.8-0.1,0.9v0.4c-0.2,0-0.3,0.1-0.5,0.1c-0.2,0-0.4,0-0.6-0.1v-0.4
					c0,0,0-0.3,0.1-0.7c0.1,0.1,0.3,0.1,0.5,0.1C16.3,29.4,16.5,29.2,16.6,29.1"/>
			</g>
		</g>
	</g>
</g>
</svg>
