<?xml version="1.0" encoding="utf-8"?>
<!-- Generator: Adobe Illustrator 23.0.3, SVG Export Plug-In . SVG Version: 6.00 Build 0)  -->
<svg version="1.1" id="Layer_1" xmlns="http://www.w3.org/2000/svg" xmlns:xlink="http://www.w3.org/1999/xlink" x="0px" y="0px"
	 viewBox="0 0 50 55" style="enable-background:new 0 0 50 55;" xml:space="preserve">
<style type="text/css">
	.st0{fill:#52A0EF;}
	.st1{clip-path:url(#SVGID_2_);fill:#9BBCC1;}
	.st2{clip-path:url(#SVGID_2_);fill:#A1BED3;}
	.st3{opacity:0.35;clip-path:url(#SVGID_2_);}
	.st4{clip-path:url(#SVGID_4_);}
	.st5{clip-path:url(#SVGID_6_);fill:#CDBFCC;}
	.st6{clip-path:url(#SVGID_2_);fill:#E41F26;}
	.st7{clip-path:url(#SVGID_2_);fill:#FFFFFF;}
	.st8{clip-path:url(#SVGID_2_);fill:#D2611C;}
	.st9{opacity:0.36;clip-path:url(#SVGID_2_);}
	.st10{clip-path:url(#SVGID_8_);}
	.st11{clip-path:url(#SVGID_10_);fill:#DCBFAD;}
	.st12{clip-path:url(#SVGID_2_);fill:#F2F4F1;}
	.st13{clip-path:url(#SVGID_2_);fill:#EFF3F0;}
	.st14{clip-path:url(#SVGID_2_);}
	.st15{clip-path:url(#SVGID_12_);}
	.st16{clip-path:url(#SVGID_14_);fill:#CAD8D7;}
	.st17{clip-path:url(#SVGID_16_);}
	.st18{clip-path:url(#SVGID_18_);fill:#CAD8D7;}
	.st19{clip-path:url(#SVGID_20_);}
	.st20{clip-path:url(#SVGID_22_);fill:#CAD8D7;}
	.st21{clip-path:url(#SVGID_24_);}
	.st22{clip-path:url(#SVGID_26_);fill:#CAD8D7;}
	.st23{clip-path:url(#SVGID_28_);}
	.st24{clip-path:url(#SVGID_30_);fill:#CAD8D7;}
	.st25{clip-path:url(#SVGID_2_);fill:none;stroke:#E41F26;stroke-width:2;stroke-miterlimit:10;}
	.st26{clip-path:url(#SVGID_2_);fill:#749AD0;}
</style>
<path class="st0" d="M38,55H12C5.4,55,0,49.6,0,43V12C0,5.4,5.4,0,12,0h26c6.6,0,12,5.4,12,12v31C50,49.6,44.6,55,38,55z"/>
<g>
	<defs>
		<rect id="SVGID_1_" y="-2.4" width="55.7" height="57.4"/>
	</defs>
	<clipPath id="SVGID_2_">
		<use xlink:href="#SVGID_1_"  style="overflow:visible;"/>
	</clipPath>
	<rect x="23.1" y="17" class="st1" width="4.2" height="4.8"/>
	<path class="st2" d="M10.4,25.1v5.6h22.3c3.3,0,6,2.6,6,5.7h5.9c0-6.2-5.3-11.3-11.9-11.3H10.4z"/>
	<rect x="-0.6" y="23.8" class="st2" width="20.7" height="8.3"/>
	<g class="st3">
		<g>
			<defs>
				<rect id="SVGID_3_" x="-0.6" y="27.9" width="18.5" height="4.2"/>
			</defs>
			<clipPath id="SVGID_4_">
				<use xlink:href="#SVGID_3_"  style="overflow:visible;"/>
			</clipPath>
			<g class="st4">
				<defs>
					<rect id="SVGID_5_" x="-0.6" y="27.9" width="18.5" height="4.2"/>
				</defs>
				<clipPath id="SVGID_6_">
					<use xlink:href="#SVGID_5_"  style="overflow:visible;"/>
				</clipPath>
				<rect x="-0.6" y="27.9" class="st5" width="18.5" height="4.2"/>
			</g>
		</g>
	</g>
	<path class="st6" d="M17.3,27.9c0,4.2,3.6,7.5,7.9,7.5c4.4,0,7.9-3.4,7.9-7.5c0-4.2-3.6-7.5-7.9-7.5C20.8,20.4,17.3,23.8,17.3,27.9
		"/>
	<path class="st7" d="M20.1,27.9c0,2.7,2.3,4.9,5.2,4.9c2.9,0,5.2-2.2,5.2-4.9c0-2.7-2.3-4.9-5.2-4.9C22.4,23,20.1,25.2,20.1,27.9"
		/>
	<path class="st8" d="M15.7,17c0,1.2,1,2.1,2.2,2.1c0.8,0,1.5-0.4,1.9-1h3.4c0.4,0.6,1.1,1,1.9,1c0.8,0,1.5-0.4,1.9-1h3.4
		c0.4,0.6,1.1,1,1.9,1c1.2,0,2.2-0.9,2.2-2.1c0-1.2-1-2.1-2.2-2.1c-0.8,0-1.5,0.4-1.9,1.1h-3.4c-0.4-0.6-1.1-1.1-1.9-1.1
		c-0.8,0-1.5,0.4-1.9,1.1h-3.4c-0.4-0.6-1.1-1.1-1.9-1.1C16.7,14.9,15.7,15.9,15.7,17"/>
	<g class="st9">
		<g>
			<defs>
				<rect id="SVGID_7_" x="15.7" y="15.2" width="19" height="3.9"/>
			</defs>
			<clipPath id="SVGID_8_">
				<use xlink:href="#SVGID_7_"  style="overflow:visible;"/>
			</clipPath>
			<g class="st10">
				<defs>
					<rect id="SVGID_9_" x="15.7" y="15.2" width="19" height="3.9"/>
				</defs>
				<clipPath id="SVGID_10_">
					<use xlink:href="#SVGID_9_"  style="overflow:visible;"/>
				</clipPath>
				<path class="st11" d="M15.7,17c0,1.2,1,2.1,2.2,2.1c0.8,0,1.5-0.4,1.9-1h3.4c0.4,0.6,1.1,1,1.9,1c0.8,0,1.5-0.4,1.9-1h3.4
					c0.4,0.6,1.1,1,1.9,1c1.2,0,2.2-0.9,2.2-2.1c0-0.3-0.1-0.5-0.2-0.8c0,0.3-0.1,0.5-0.2,0.8c-0.3,0.5-0.8,0.8-1.4,0.8
					c-0.6,0-1.2-0.3-1.5-0.8h-4.6c-0.3,0.5-0.8,0.8-1.4,0.8c-0.6,0-1.2-0.3-1.5-0.8h-4.5c-0.3,0.5-0.8,0.8-1.4,0.8
					c-0.6,0-1.2-0.3-1.5-0.8c-0.1-0.2-0.2-0.5-0.2-0.8c0-0.4,0.2-0.8,0.4-1.1C16.2,15.6,15.7,16.2,15.7,17"/>
			</g>
		</g>
	</g>
	<rect x="38.1" y="36.4" class="st12" width="7" height="3.3"/>
	<rect x="9.6" y="23" class="st13" width="4.5" height="9.9"/>
	<g class="st14">
		<g>
			<defs>
				<rect id="SVGID_11_" x="12.9" y="23" width="0.5" height="9.9"/>
			</defs>
			<clipPath id="SVGID_12_">
				<use xlink:href="#SVGID_11_"  style="overflow:visible;"/>
			</clipPath>
			<g class="st15">
				<defs>
					<rect id="SVGID_13_" x="12.9" y="23" width="0.5" height="9.9"/>
				</defs>
				<clipPath id="SVGID_14_">
					<use xlink:href="#SVGID_13_"  style="overflow:visible;"/>
				</clipPath>
				<rect x="12.9" y="23" class="st16" width="0.5" height="9.9"/>
			</g>
		</g>
	</g>
	<g class="st14">
		<g>
			<defs>
				<rect id="SVGID_15_" x="12.1" y="23" width="0.5" height="9.9"/>
			</defs>
			<clipPath id="SVGID_16_">
				<use xlink:href="#SVGID_15_"  style="overflow:visible;"/>
			</clipPath>
			<g class="st17">
				<defs>
					<rect id="SVGID_17_" x="12.1" y="23" width="0.5" height="9.9"/>
				</defs>
				<clipPath id="SVGID_18_">
					<use xlink:href="#SVGID_17_"  style="overflow:visible;"/>
				</clipPath>
				<rect x="12.1" y="23" class="st18" width="0.5" height="9.9"/>
			</g>
		</g>
	</g>
	<g class="st14">
		<g>
			<defs>
				<rect id="SVGID_19_" x="11.3" y="23" width="0.5" height="9.9"/>
			</defs>
			<clipPath id="SVGID_20_">
				<use xlink:href="#SVGID_19_"  style="overflow:visible;"/>
			</clipPath>
			<g class="st19">
				<defs>
					<rect id="SVGID_21_" x="11.3" y="23" width="0.5" height="9.9"/>
				</defs>
				<clipPath id="SVGID_22_">
					<use xlink:href="#SVGID_21_"  style="overflow:visible;"/>
				</clipPath>
				<rect x="11.3" y="23" class="st20" width="0.5" height="9.9"/>
			</g>
		</g>
	</g>
	<g class="st14">
		<g>
			<defs>
				<rect id="SVGID_23_" x="10.4" y="23" width="0.5" height="9.9"/>
			</defs>
			<clipPath id="SVGID_24_">
				<use xlink:href="#SVGID_23_"  style="overflow:visible;"/>
			</clipPath>
			<g class="st21">
				<defs>
					<rect id="SVGID_25_" x="10.4" y="23" width="0.5" height="9.9"/>
				</defs>
				<clipPath id="SVGID_26_">
					<use xlink:href="#SVGID_25_"  style="overflow:visible;"/>
				</clipPath>
				<rect x="10.4" y="23" class="st22" width="0.5" height="9.9"/>
			</g>
		</g>
	</g>
	<path class="st2" d="M23.1,18.1v2.6c0.7-0.2,1.4-0.3,2.1-0.3c0.7,0,1.4,0.1,2.1,0.3v-2.6h-0.2c-0.2,0.4-0.6,0.7-1.1,0.9h0
		c-0.2,0.1-0.5,0.1-0.8,0.1c-0.3,0-0.6,0-0.8-0.1h0c-0.5-0.2-0.9-0.5-1.1-0.9H23.1z"/>
	<g class="st14">
		<g>
			<defs>
				<rect id="SVGID_27_" x="32.6" y="28.6" width="8.3" height="11"/>
			</defs>
			<clipPath id="SVGID_28_">
				<use xlink:href="#SVGID_27_"  style="overflow:visible;"/>
			</clipPath>
			<g class="st23">
				<defs>
					<rect id="SVGID_29_" x="32.6" y="28.6" width="8.3" height="11"/>
				</defs>
				<clipPath id="SVGID_30_">
					<use xlink:href="#SVGID_29_"  style="overflow:visible;"/>
				</clipPath>
				<path class="st24" d="M32.6,30.7L32.6,30.7c0.6,0,1.1,0.1,1.6,0.2c2.6,0.6,4.5,2.9,4.5,5.5h-0.6v3.3l2.2,0c0-0.3,0-0.6,0-0.6
					v-2.7h0.7c0-0.1,0-0.2,0-0.3c0-3.6-2.7-6.6-6.3-7.3c-0.5-0.1-1-0.1-1.5-0.1C33,29.4,32.9,30,32.6,30.7"/>
			</g>
		</g>
	</g>
	<line class="st25" x1="20" y1="23.8" x2="30.3" y2="32.6"/>
	<line class="st25" x1="20" y1="32.6" x2="30.3" y2="23.8"/>
	<path class="st26" d="M76.6-4.3H44c-6.6,0-12-5.4-12-12v-38.3c0-6.6,5.4-12,12-12h32.6c6.6,0,12,5.4,12,12v38.3
		C88.6-9.7,83.2-4.3,76.6-4.3z"/>
</g>
</svg>
