<?xml version="1.0" encoding="utf-8"?>
<!-- Generator: Adobe Illustrator 23.0.3, SVG Export Plug-In . SVG Version: 6.00 Build 0)  -->
<svg version="1.1" id="Layer_1" xmlns="http://www.w3.org/2000/svg" xmlns:xlink="http://www.w3.org/1999/xlink" x="0px" y="0px"
	 viewBox="0 0 210 79" style="enable-background:new 0 0 210 79;" xml:space="preserve">
<style type="text/css">
	.st0{fill:#529FA2;}
	.st1{fill:none;}
	.st2{fill-rule:evenodd;clip-rule:evenodd;fill:#1D1D1B;}
	.st3{fill:#FFFFFF;}
</style>
<g>
	<g>
		<rect x="0.8" y="1.5" class="st0" width="210" height="79"/>
		<g>
			<g>
				<g>
					<g>
						<g>
							<rect x="-0.7" y="76.3" class="st1" width="3" height="2.7"/>
						</g>
						<rect x="0.7" y="76.5" class="st2" width="0.3" height="0.5"/>
						<rect x="0.7" y="77.4" class="st2" width="0.3" height="0.5"/>
						<rect x="0.7" y="78.3" class="st2" width="0.3" height="0.5"/>
					</g>
				</g>
				<g>
					<g>
						<g>
							<rect x="-0.7" y="73.6" class="st1" width="3" height="2.7"/>
						</g>
						<rect x="0.7" y="73.8" class="st2" width="0.3" height="0.5"/>
						<rect x="0.7" y="74.7" class="st2" width="0.3" height="0.5"/>
						<rect x="0.7" y="75.6" class="st2" width="0.3" height="0.5"/>
					</g>
				</g>
				<g>
					<g>
						<g>
							<rect x="-0.7" y="70.9" class="st1" width="3" height="2.7"/>
						</g>
						<rect x="0.7" y="71.1" class="st2" width="0.3" height="0.5"/>
						<rect x="0.7" y="72" class="st2" width="0.3" height="0.5"/>
						<rect x="0.7" y="72.9" class="st2" width="0.3" height="0.5"/>
					</g>
				</g>
				<g>
					<g>
						<g>
							<rect x="-0.7" y="68.1" class="st1" width="3" height="2.7"/>
						</g>
						<rect x="0.7" y="68.3" class="st2" width="0.3" height="0.5"/>
						<rect x="0.7" y="69.2" class="st2" width="0.3" height="0.5"/>
						<rect x="0.7" y="70.1" class="st2" width="0.3" height="0.5"/>
					</g>
				</g>
				<g>
					<g>
						<g>
							<rect x="-0.7" y="65.4" class="st1" width="3" height="2.7"/>
						</g>
						<rect x="0.7" y="65.6" class="st2" width="0.3" height="0.5"/>
						<rect x="0.7" y="66.5" class="st2" width="0.3" height="0.5"/>
						<rect x="0.7" y="67.4" class="st2" width="0.3" height="0.5"/>
					</g>
				</g>
				<g>
					<g>
						<g>
							<rect x="-0.7" y="62.7" class="st1" width="3" height="2.7"/>
						</g>
						<rect x="0.7" y="62.9" class="st2" width="0.3" height="0.5"/>
						<rect x="0.7" y="63.8" class="st2" width="0.3" height="0.5"/>
						<rect x="0.7" y="64.7" class="st2" width="0.3" height="0.5"/>
					</g>
				</g>
				<g>
					<g>
						<g>
							<rect x="-0.7" y="60" class="st1" width="3" height="2.7"/>
						</g>
						<rect x="0.7" y="60.2" class="st2" width="0.3" height="0.5"/>
						<rect x="0.7" y="61.1" class="st2" width="0.3" height="0.5"/>
						<rect x="0.7" y="62" class="st2" width="0.3" height="0.5"/>
					</g>
				</g>
				<g>
					<g>
						<g>
							<rect x="-0.7" y="57.3" class="st1" width="3" height="2.7"/>
						</g>
						<rect x="0.7" y="57.5" class="st2" width="0.3" height="0.5"/>
						<rect x="0.7" y="58.4" class="st2" width="0.3" height="0.5"/>
						<rect x="0.7" y="59.3" class="st2" width="0.3" height="0.5"/>
					</g>
				</g>
				<g>
					<g>
						<g>
							<rect x="-0.7" y="54.6" class="st1" width="3" height="2.7"/>
						</g>
						<rect x="0.7" y="54.8" class="st2" width="0.3" height="0.5"/>
						<rect x="0.7" y="55.7" class="st2" width="0.3" height="0.5"/>
						<rect x="0.7" y="56.6" class="st2" width="0.3" height="0.5"/>
					</g>
				</g>
				<g>
					<g>
						<g>
							<rect x="-0.7" y="51.9" class="st1" width="3" height="2.7"/>
						</g>
						<rect x="0.7" y="52.1" class="st2" width="0.3" height="0.5"/>
						<rect x="0.7" y="53" class="st2" width="0.3" height="0.5"/>
						<rect x="0.7" y="53.9" class="st2" width="0.3" height="0.5"/>
					</g>
				</g>
				<g>
					<g>
						<g>
							<rect x="-0.7" y="49.1" class="st1" width="3" height="2.7"/>
						</g>
						<rect x="0.7" y="49.3" class="st2" width="0.3" height="0.5"/>
						<rect x="0.7" y="50.2" class="st2" width="0.3" height="0.5"/>
						<rect x="0.7" y="51.1" class="st2" width="0.3" height="0.5"/>
					</g>
				</g>
				<g>
					<g>
						<g>
							<rect x="-0.7" y="46.4" class="st1" width="3" height="2.7"/>
						</g>
						<rect x="0.7" y="46.6" class="st2" width="0.3" height="0.5"/>
						<rect x="0.7" y="47.5" class="st2" width="0.3" height="0.5"/>
						<rect x="0.7" y="48.4" class="st2" width="0.3" height="0.5"/>
					</g>
				</g>
				<g>
					<g>
						<g>
							<rect x="-0.7" y="43.7" class="st1" width="3" height="2.7"/>
						</g>
						<rect x="0.7" y="43.9" class="st2" width="0.3" height="0.5"/>
						<rect x="0.7" y="44.8" class="st2" width="0.3" height="0.5"/>
						<rect x="0.7" y="45.7" class="st2" width="0.3" height="0.5"/>
					</g>
				</g>
				<g>
					<g>
						<g>
							<rect x="-0.7" y="41" class="st1" width="3" height="2.7"/>
						</g>
						<rect x="0.7" y="41.2" class="st2" width="0.3" height="0.5"/>
						<rect x="0.7" y="42.1" class="st2" width="0.3" height="0.5"/>
						<rect x="0.7" y="43" class="st2" width="0.3" height="0.5"/>
					</g>
				</g>
				<g>
					<g>
						<g>
							<rect x="-0.7" y="38.3" class="st1" width="3" height="2.7"/>
						</g>
						<rect x="0.7" y="38.5" class="st2" width="0.3" height="0.5"/>
						<rect x="0.7" y="39.4" class="st2" width="0.3" height="0.5"/>
						<rect x="0.7" y="40.3" class="st2" width="0.3" height="0.5"/>
					</g>
				</g>
				<g>
					<g>
						<g>
							<rect x="-0.7" y="35.6" class="st1" width="3" height="2.7"/>
						</g>
						<rect x="0.7" y="35.8" class="st2" width="0.3" height="0.5"/>
						<rect x="0.7" y="36.7" class="st2" width="0.3" height="0.5"/>
						<rect x="0.7" y="37.6" class="st2" width="0.3" height="0.5"/>
					</g>
				</g>
				<g>
					<g>
						<g>
							<rect x="-0.7" y="32.9" class="st1" width="3" height="2.7"/>
						</g>
						<rect x="0.7" y="33.1" class="st2" width="0.3" height="0.5"/>
						<rect x="0.7" y="34" class="st2" width="0.3" height="0.5"/>
						<rect x="0.7" y="34.9" class="st2" width="0.3" height="0.5"/>
					</g>
				</g>
				<g>
					<g>
						<g>
							<rect x="-0.7" y="30.1" class="st1" width="3" height="2.7"/>
						</g>
						<rect x="0.7" y="30.3" class="st2" width="0.3" height="0.5"/>
						<rect x="0.7" y="31.2" class="st2" width="0.3" height="0.5"/>
						<rect x="0.7" y="32.1" class="st2" width="0.3" height="0.5"/>
					</g>
				</g>
				<g>
					<g>
						<g>
							<rect x="-0.7" y="27.4" class="st1" width="3" height="2.7"/>
						</g>
						<rect x="0.7" y="27.6" class="st2" width="0.3" height="0.5"/>
						<rect x="0.7" y="28.5" class="st2" width="0.3" height="0.5"/>
						<rect x="0.7" y="29.4" class="st2" width="0.3" height="0.5"/>
					</g>
				</g>
				<g>
					<g>
						<g>
							<rect x="-0.7" y="24.7" class="st1" width="3" height="2.7"/>
						</g>
						<rect x="0.7" y="24.9" class="st2" width="0.3" height="0.5"/>
						<rect x="0.7" y="25.8" class="st2" width="0.3" height="0.5"/>
						<rect x="0.7" y="26.7" class="st2" width="0.3" height="0.5"/>
					</g>
				</g>
				<g>
					<g>
						<g>
							<rect x="-0.7" y="22" class="st1" width="3" height="2.7"/>
						</g>
						<rect x="0.7" y="22.2" class="st2" width="0.3" height="0.5"/>
						<rect x="0.7" y="23.1" class="st2" width="0.3" height="0.5"/>
						<rect x="0.7" y="24" class="st2" width="0.3" height="0.5"/>
					</g>
				</g>
				<g>
					<g>
						<g>
							<rect x="-0.7" y="19.3" class="st1" width="3" height="2.7"/>
						</g>
						<rect x="0.7" y="19.5" class="st2" width="0.3" height="0.5"/>
						<rect x="0.7" y="20.4" class="st2" width="0.3" height="0.5"/>
						<rect x="0.7" y="21.3" class="st2" width="0.3" height="0.5"/>
					</g>
				</g>
				<g>
					<g>
						<g>
							<rect x="-0.7" y="16.6" class="st1" width="3" height="2.7"/>
						</g>
						<rect x="0.7" y="16.8" class="st2" width="0.3" height="0.5"/>
						<rect x="0.7" y="17.7" class="st2" width="0.3" height="0.5"/>
						<rect x="0.7" y="18.6" class="st2" width="0.3" height="0.5"/>
					</g>
				</g>
				<g>
					<g>
						<g>
							<rect x="-0.7" y="13.9" class="st1" width="3" height="2.7"/>
						</g>
						<rect x="0.7" y="14.1" class="st2" width="0.3" height="0.5"/>
						<rect x="0.7" y="15" class="st2" width="0.3" height="0.5"/>
						<rect x="0.7" y="15.9" class="st2" width="0.3" height="0.5"/>
					</g>
				</g>
				<g>
					<g>
						<g>
							<rect x="-0.7" y="11.1" class="st1" width="3" height="2.7"/>
						</g>
						<rect x="0.7" y="11.3" class="st2" width="0.3" height="0.5"/>
						<rect x="0.7" y="12.2" class="st2" width="0.3" height="0.5"/>
						<rect x="0.7" y="13.1" class="st2" width="0.3" height="0.5"/>
					</g>
				</g>
				<g>
					<g>
						<g>
							<rect x="-0.7" y="8.4" class="st1" width="3" height="2.7"/>
						</g>
						<rect x="0.7" y="8.6" class="st2" width="0.3" height="0.5"/>
						<rect x="0.7" y="9.5" class="st2" width="0.3" height="0.5"/>
						<rect x="0.7" y="10.4" class="st2" width="0.3" height="0.5"/>
					</g>
				</g>
				<g>
					<g>
						<g>
							<rect x="-0.7" y="5.7" class="st1" width="3" height="2.7"/>
						</g>
						<rect x="0.7" y="5.9" class="st2" width="0.3" height="0.5"/>
						<rect x="0.7" y="6.8" class="st2" width="0.3" height="0.5"/>
						<rect x="0.7" y="7.7" class="st2" width="0.3" height="0.5"/>
					</g>
				</g>
				<g>
					<g>
						<g>
							<rect x="-0.7" y="3" class="st1" width="3" height="2.7"/>
						</g>
						<rect x="0.7" y="3.2" class="st2" width="0.3" height="0.5"/>
						<rect x="0.7" y="4.1" class="st2" width="0.3" height="0.5"/>
						<rect x="0.7" y="5" class="st2" width="0.3" height="0.5"/>
					</g>
				</g>
				<g>
					<g>
						<g>
							<rect x="2.3" y="0" class="st1" width="2.7" height="3"/>
						</g>
						<rect x="4.3" y="1.4" class="st2" width="0.5" height="0.3"/>
						<rect x="3.4" y="1.4" class="st2" width="0.5" height="0.3"/>
						<rect x="2.5" y="1.4" class="st2" width="0.5" height="0.3"/>
					</g>
				</g>
				<g>
					<g>
						<g>
							<rect x="5" y="0" class="st1" width="2.7" height="3"/>
						</g>
						<rect x="7" y="1.4" class="st2" width="0.5" height="0.3"/>
						<rect x="6.1" y="1.4" class="st2" width="0.5" height="0.3"/>
						<rect x="5.2" y="1.4" class="st2" width="0.5" height="0.3"/>
					</g>
				</g>
				<g>
					<g>
						<g>
							<rect x="7.7" y="0" class="st1" width="2.7" height="3"/>
						</g>
						<rect x="9.7" y="1.4" class="st2" width="0.5" height="0.3"/>
						<rect x="8.8" y="1.4" class="st2" width="0.5" height="0.3"/>
						<rect x="7.9" y="1.4" class="st2" width="0.5" height="0.3"/>
					</g>
				</g>
				<g>
					<g>
						<g>
							<rect x="10.4" y="0" class="st1" width="2.7" height="3"/>
						</g>
						<rect x="12.4" y="1.4" class="st2" width="0.5" height="0.3"/>
						<rect x="11.5" y="1.4" class="st2" width="0.5" height="0.3"/>
						<rect x="10.6" y="1.4" class="st2" width="0.5" height="0.3"/>
					</g>
				</g>
				<g>
					<g>
						<g>
							<rect x="13.1" y="0" class="st1" width="2.7" height="3"/>
						</g>
						<rect x="15" y="1.4" class="st2" width="0.5" height="0.3"/>
						<rect x="14.1" y="1.4" class="st2" width="0.5" height="0.3"/>
						<rect x="13.3" y="1.4" class="st2" width="0.5" height="0.3"/>
					</g>
				</g>
				<g>
					<g>
						<g>
							<rect x="15.7" y="0" class="st1" width="2.7" height="3"/>
						</g>
						<rect x="17.7" y="1.4" class="st2" width="0.5" height="0.3"/>
						<rect x="16.8" y="1.4" class="st2" width="0.5" height="0.3"/>
						<rect x="15.9" y="1.4" class="st2" width="0.5" height="0.3"/>
					</g>
				</g>
				<g>
					<g>
						<g>
							<rect x="18.4" y="0" class="st1" width="2.7" height="3"/>
						</g>
						<rect x="20.4" y="1.4" class="st2" width="0.5" height="0.3"/>
						<rect x="19.5" y="1.4" class="st2" width="0.5" height="0.3"/>
						<rect x="18.6" y="1.4" class="st2" width="0.5" height="0.3"/>
					</g>
				</g>
				<g>
					<g>
						<g>
							<rect x="21.1" y="0" class="st1" width="2.7" height="3"/>
						</g>
						<rect x="23.1" y="1.4" class="st2" width="0.5" height="0.3"/>
						<rect x="22.2" y="1.4" class="st2" width="0.5" height="0.3"/>
						<rect x="21.3" y="1.4" class="st2" width="0.5" height="0.3"/>
					</g>
				</g>
				<g>
					<g>
						<g>
							<rect x="23.8" y="0" class="st1" width="2.7" height="3"/>
						</g>
						<rect x="25.8" y="1.4" class="st2" width="0.5" height="0.3"/>
						<rect x="24.9" y="1.4" class="st2" width="0.5" height="0.3"/>
						<rect x="24" y="1.4" class="st2" width="0.5" height="0.3"/>
					</g>
				</g>
				<g>
					<g>
						<g>
							<rect x="26.5" y="0" class="st1" width="2.7" height="3"/>
						</g>
						<rect x="28.5" y="1.4" class="st2" width="0.5" height="0.3"/>
						<rect x="27.6" y="1.4" class="st2" width="0.5" height="0.3"/>
						<rect x="26.7" y="1.4" class="st2" width="0.5" height="0.3"/>
					</g>
				</g>
				<g>
					<g>
						<g>
							<rect x="29.2" y="0" class="st1" width="2.7" height="3"/>
						</g>
						<rect x="31.2" y="1.4" class="st2" width="0.5" height="0.3"/>
						<rect x="30.3" y="1.4" class="st2" width="0.5" height="0.3"/>
						<rect x="29.4" y="1.4" class="st2" width="0.5" height="0.3"/>
					</g>
				</g>
				<g>
					<g>
						<g>
							<rect x="31.9" y="0" class="st1" width="2.7" height="3"/>
						</g>
						<rect x="33.9" y="1.4" class="st2" width="0.5" height="0.3"/>
						<rect x="33" y="1.4" class="st2" width="0.5" height="0.3"/>
						<rect x="32.1" y="1.4" class="st2" width="0.5" height="0.3"/>
					</g>
				</g>
				<g>
					<g>
						<g>
							<rect x="34.6" y="0" class="st1" width="2.7" height="3"/>
						</g>
						<rect x="36.6" y="1.4" class="st2" width="0.5" height="0.3"/>
						<rect x="35.7" y="1.4" class="st2" width="0.5" height="0.3"/>
						<rect x="34.8" y="1.4" class="st2" width="0.5" height="0.3"/>
					</g>
				</g>
				<g>
					<g>
						<g>
							<rect x="37.2" y="0" class="st1" width="2.7" height="3"/>
						</g>
						<rect x="39.2" y="1.4" class="st2" width="0.5" height="0.3"/>
						<rect x="38.3" y="1.4" class="st2" width="0.5" height="0.3"/>
						<rect x="37.5" y="1.4" class="st2" width="0.5" height="0.3"/>
					</g>
				</g>
				<g>
					<g>
						<g>
							<rect x="39.9" y="0" class="st1" width="2.7" height="3"/>
						</g>
						<rect x="41.9" y="1.4" class="st2" width="0.5" height="0.3"/>
						<rect x="41" y="1.4" class="st2" width="0.5" height="0.3"/>
						<rect x="40.1" y="1.4" class="st2" width="0.5" height="0.3"/>
					</g>
				</g>
				<g>
					<g>
						<g>
							<rect x="42.6" y="0" class="st1" width="2.7" height="3"/>
						</g>
						<rect x="44.6" y="1.4" class="st2" width="0.5" height="0.3"/>
						<rect x="43.7" y="1.4" class="st2" width="0.5" height="0.3"/>
						<rect x="42.8" y="1.4" class="st2" width="0.5" height="0.3"/>
					</g>
				</g>
				<g>
					<g>
						<g>
							<rect x="45.3" y="0" class="st1" width="2.7" height="3"/>
						</g>
						<rect x="47.3" y="1.4" class="st2" width="0.5" height="0.3"/>
						<rect x="46.4" y="1.4" class="st2" width="0.5" height="0.3"/>
						<rect x="45.5" y="1.4" class="st2" width="0.5" height="0.3"/>
					</g>
				</g>
				<g>
					<g>
						<g>
							<rect x="48" y="0" class="st1" width="2.7" height="3"/>
						</g>
						<rect x="50" y="1.4" class="st2" width="0.5" height="0.3"/>
						<rect x="49.1" y="1.4" class="st2" width="0.5" height="0.3"/>
						<rect x="48.2" y="1.4" class="st2" width="0.5" height="0.3"/>
					</g>
				</g>
				<g>
					<g>
						<g>
							<rect x="50.7" y="0" class="st1" width="2.7" height="3"/>
						</g>
						<rect x="52.7" y="1.4" class="st2" width="0.5" height="0.3"/>
						<rect x="51.8" y="1.4" class="st2" width="0.5" height="0.3"/>
						<rect x="50.9" y="1.4" class="st2" width="0.5" height="0.3"/>
					</g>
				</g>
				<g>
					<g>
						<g>
							<rect x="53.4" y="0" class="st1" width="2.7" height="3"/>
						</g>
						<rect x="55.4" y="1.4" class="st2" width="0.5" height="0.3"/>
						<rect x="54.5" y="1.4" class="st2" width="0.5" height="0.3"/>
						<rect x="53.6" y="1.4" class="st2" width="0.5" height="0.3"/>
					</g>
				</g>
				<g>
					<g>
						<g>
							<rect x="56.1" y="0" class="st1" width="2.7" height="3"/>
						</g>
						<rect x="58.1" y="1.4" class="st2" width="0.5" height="0.3"/>
						<rect x="57.2" y="1.4" class="st2" width="0.5" height="0.3"/>
						<rect x="56.3" y="1.4" class="st2" width="0.5" height="0.3"/>
					</g>
				</g>
				<g>
					<g>
						<g>
							<rect x="58.8" y="0" class="st1" width="2.7" height="3"/>
						</g>
						<rect x="60.7" y="1.4" class="st2" width="0.5" height="0.3"/>
						<rect x="59.9" y="1.4" class="st2" width="0.5" height="0.3"/>
						<rect x="59" y="1.4" class="st2" width="0.5" height="0.3"/>
					</g>
				</g>
				<g>
					<g>
						<g>
							<rect x="61.4" y="0" class="st1" width="2.7" height="3"/>
						</g>
						<rect x="63.4" y="1.4" class="st2" width="0.5" height="0.3"/>
						<rect x="62.5" y="1.4" class="st2" width="0.5" height="0.3"/>
						<rect x="61.6" y="1.4" class="st2" width="0.5" height="0.3"/>
					</g>
				</g>
				<g>
					<g>
						<g>
							<rect x="64.1" y="0" class="st1" width="2.7" height="3"/>
						</g>
						<rect x="66.1" y="1.4" class="st2" width="0.5" height="0.3"/>
						<rect x="65.2" y="1.4" class="st2" width="0.5" height="0.3"/>
						<rect x="64.3" y="1.4" class="st2" width="0.5" height="0.3"/>
					</g>
				</g>
				<g>
					<g>
						<g>
							<rect x="66.8" y="0" class="st1" width="2.7" height="3"/>
						</g>
						<rect x="68.8" y="1.4" class="st2" width="0.5" height="0.3"/>
						<rect x="67.9" y="1.4" class="st2" width="0.5" height="0.3"/>
						<rect x="67" y="1.4" class="st2" width="0.5" height="0.3"/>
					</g>
				</g>
				<g>
					<g>
						<g>
							<rect x="69.5" y="0" class="st1" width="2.7" height="3"/>
						</g>
						<rect x="71.5" y="1.4" class="st2" width="0.5" height="0.3"/>
						<rect x="70.6" y="1.4" class="st2" width="0.5" height="0.3"/>
						<rect x="69.7" y="1.4" class="st2" width="0.5" height="0.3"/>
					</g>
				</g>
				<g>
					<g>
						<g>
							<rect x="72.2" y="0" class="st1" width="2.7" height="3"/>
						</g>
						<rect x="74.2" y="1.4" class="st2" width="0.5" height="0.3"/>
						<rect x="73.3" y="1.4" class="st2" width="0.5" height="0.3"/>
						<rect x="72.4" y="1.4" class="st2" width="0.5" height="0.3"/>
					</g>
				</g>
				<g>
					<g>
						<g>
							<rect x="74.9" y="0" class="st1" width="2.7" height="3"/>
						</g>
						<rect x="76.9" y="1.4" class="st2" width="0.5" height="0.3"/>
						<rect x="76" y="1.4" class="st2" width="0.5" height="0.3"/>
						<rect x="75.1" y="1.4" class="st2" width="0.5" height="0.3"/>
					</g>
				</g>
				<g>
					<g>
						<g>
							<rect x="77.6" y="0" class="st1" width="2.7" height="3"/>
						</g>
						<rect x="79.6" y="1.4" class="st2" width="0.5" height="0.3"/>
						<rect x="78.7" y="1.4" class="st2" width="0.5" height="0.3"/>
						<rect x="77.8" y="1.4" class="st2" width="0.5" height="0.3"/>
					</g>
				</g>
				<g>
					<g>
						<g>
							<rect x="80.3" y="0" class="st1" width="2.7" height="3"/>
						</g>
						<rect x="82.3" y="1.4" class="st2" width="0.5" height="0.3"/>
						<rect x="81.4" y="1.4" class="st2" width="0.5" height="0.3"/>
						<rect x="80.5" y="1.4" class="st2" width="0.5" height="0.3"/>
					</g>
				</g>
				<g>
					<g>
						<g>
							<rect x="82.9" y="0" class="st1" width="2.7" height="3"/>
						</g>
						<rect x="84.9" y="1.4" class="st2" width="0.5" height="0.3"/>
						<rect x="84" y="1.4" class="st2" width="0.5" height="0.3"/>
						<rect x="83.2" y="1.4" class="st2" width="0.5" height="0.3"/>
					</g>
				</g>
				<g>
					<g>
						<g>
							<rect x="85.6" y="0" class="st1" width="2.7" height="3"/>
						</g>
						<rect x="87.6" y="1.4" class="st2" width="0.5" height="0.3"/>
						<rect x="86.7" y="1.4" class="st2" width="0.5" height="0.3"/>
						<rect x="85.8" y="1.4" class="st2" width="0.5" height="0.3"/>
					</g>
				</g>
				<g>
					<g>
						<g>
							<rect x="88.3" y="0" class="st1" width="2.7" height="3"/>
						</g>
						<rect x="90.3" y="1.4" class="st2" width="0.5" height="0.3"/>
						<rect x="89.4" y="1.4" class="st2" width="0.5" height="0.3"/>
						<rect x="88.5" y="1.4" class="st2" width="0.5" height="0.3"/>
					</g>
				</g>
				<g>
					<g>
						<g>
							<rect x="91" y="0" class="st1" width="2.7" height="3"/>
						</g>
						<rect x="93" y="1.4" class="st2" width="0.5" height="0.3"/>
						<rect x="92.1" y="1.4" class="st2" width="0.5" height="0.3"/>
						<rect x="91.2" y="1.4" class="st2" width="0.5" height="0.3"/>
					</g>
				</g>
				<g>
					<g>
						<g>
							<rect x="93.7" y="0" class="st1" width="2.7" height="3"/>
						</g>
						<rect x="95.7" y="1.4" class="st2" width="0.5" height="0.3"/>
						<rect x="94.8" y="1.4" class="st2" width="0.5" height="0.3"/>
						<rect x="93.9" y="1.4" class="st2" width="0.5" height="0.3"/>
					</g>
				</g>
				<g>
					<g>
						<g>
							<rect x="96.4" y="0" class="st1" width="2.7" height="3"/>
						</g>
						<rect x="98.4" y="1.4" class="st2" width="0.5" height="0.3"/>
						<rect x="97.5" y="1.4" class="st2" width="0.5" height="0.3"/>
						<rect x="96.6" y="1.4" class="st2" width="0.5" height="0.3"/>
					</g>
				</g>
				<g>
					<g>
						<g>
							<rect x="99.1" y="0" class="st1" width="2.7" height="3"/>
						</g>
						<rect x="101.1" y="1.4" class="st2" width="0.5" height="0.3"/>
						<rect x="100.2" y="1.4" class="st2" width="0.5" height="0.3"/>
						<rect x="99.3" y="1.4" class="st2" width="0.5" height="0.3"/>
					</g>
				</g>
				<g>
					<g>
						<g>
							<rect x="101.8" y="0" class="st1" width="2.7" height="3"/>
						</g>
						<rect x="103.8" y="1.4" class="st2" width="0.5" height="0.3"/>
						<rect x="102.9" y="1.4" class="st2" width="0.5" height="0.3"/>
						<rect x="102" y="1.4" class="st2" width="0.5" height="0.3"/>
					</g>
				</g>
				<g>
					<g>
						<g>
							<rect x="104.5" y="0" class="st1" width="2.7" height="3"/>
						</g>
						<rect x="106.4" y="1.4" class="st2" width="0.5" height="0.3"/>
						<rect x="105.6" y="1.4" class="st2" width="0.5" height="0.3"/>
						<rect x="104.7" y="1.4" class="st2" width="0.5" height="0.3"/>
					</g>
				</g>
				<g>
					<g>
						<g>
							<rect x="107.1" y="0" class="st1" width="2.7" height="3"/>
						</g>
						<rect x="109.1" y="1.4" class="st2" width="0.5" height="0.3"/>
						<rect x="108.2" y="1.4" class="st2" width="0.5" height="0.3"/>
						<rect x="107.3" y="1.4" class="st2" width="0.5" height="0.3"/>
					</g>
				</g>
				<g>
					<g>
						<g>
							<rect x="109.8" y="0" class="st1" width="2.7" height="3"/>
						</g>
						<rect x="111.8" y="1.4" class="st2" width="0.5" height="0.3"/>
						<rect x="110.9" y="1.4" class="st2" width="0.5" height="0.3"/>
						<rect x="110" y="1.4" class="st2" width="0.5" height="0.3"/>
					</g>
				</g>
				<g>
					<g>
						<g>
							<rect x="112.5" y="0" class="st1" width="2.7" height="3"/>
						</g>
						<rect x="114.5" y="1.4" class="st2" width="0.5" height="0.3"/>
						<rect x="113.6" y="1.4" class="st2" width="0.5" height="0.3"/>
						<rect x="112.7" y="1.4" class="st2" width="0.5" height="0.3"/>
					</g>
				</g>
				<g>
					<g>
						<g>
							<rect x="115.2" y="0" class="st1" width="2.7" height="3"/>
						</g>
						<rect x="117.2" y="1.4" class="st2" width="0.5" height="0.3"/>
						<rect x="116.3" y="1.4" class="st2" width="0.5" height="0.3"/>
						<rect x="115.4" y="1.4" class="st2" width="0.5" height="0.3"/>
					</g>
				</g>
				<g>
					<g>
						<g>
							<rect x="117.9" y="0" class="st1" width="2.7" height="3"/>
						</g>
						<rect x="119.9" y="1.4" class="st2" width="0.5" height="0.3"/>
						<rect x="119" y="1.4" class="st2" width="0.5" height="0.3"/>
						<rect x="118.1" y="1.4" class="st2" width="0.5" height="0.3"/>
					</g>
				</g>
				<g>
					<g>
						<g>
							<rect x="120.6" y="0" class="st1" width="2.7" height="3"/>
						</g>
						<rect x="122.6" y="1.4" class="st2" width="0.5" height="0.3"/>
						<rect x="121.7" y="1.4" class="st2" width="0.5" height="0.3"/>
						<rect x="120.8" y="1.4" class="st2" width="0.5" height="0.3"/>
					</g>
				</g>
				<g>
					<g>
						<g>
							<rect x="123.3" y="0" class="st1" width="2.7" height="3"/>
						</g>
						<rect x="125.3" y="1.4" class="st2" width="0.5" height="0.3"/>
						<rect x="124.4" y="1.4" class="st2" width="0.5" height="0.3"/>
						<rect x="123.5" y="1.4" class="st2" width="0.5" height="0.3"/>
					</g>
				</g>
				<g>
					<g>
						<g>
							<rect x="126" y="0" class="st1" width="2.7" height="3"/>
						</g>
						<rect x="128" y="1.4" class="st2" width="0.5" height="0.3"/>
						<rect x="127.1" y="1.4" class="st2" width="0.5" height="0.3"/>
						<rect x="126.2" y="1.4" class="st2" width="0.5" height="0.3"/>
					</g>
				</g>
				<g>
					<g>
						<g>
							<rect x="128.7" y="0" class="st1" width="2.7" height="3"/>
						</g>
						<rect x="130.6" y="1.4" class="st2" width="0.5" height="0.3"/>
						<rect x="129.7" y="1.4" class="st2" width="0.5" height="0.3"/>
						<rect x="128.9" y="1.4" class="st2" width="0.5" height="0.3"/>
					</g>
				</g>
				<g>
					<g>
						<g>
							<rect x="131.3" y="0" class="st1" width="2.7" height="3"/>
						</g>
						<rect x="133.3" y="1.4" class="st2" width="0.5" height="0.3"/>
						<rect x="132.4" y="1.4" class="st2" width="0.5" height="0.3"/>
						<rect x="131.5" y="1.4" class="st2" width="0.5" height="0.3"/>
					</g>
				</g>
				<g>
					<g>
						<g>
							<rect x="134" y="0" class="st1" width="2.7" height="3"/>
						</g>
						<rect x="136" y="1.4" class="st2" width="0.5" height="0.3"/>
						<rect x="135.1" y="1.4" class="st2" width="0.5" height="0.3"/>
						<rect x="134.2" y="1.4" class="st2" width="0.5" height="0.3"/>
					</g>
				</g>
				<g>
					<g>
						<g>
							<rect x="136.7" y="0" class="st1" width="2.7" height="3"/>
						</g>
						<rect x="138.7" y="1.4" class="st2" width="0.5" height="0.3"/>
						<rect x="137.8" y="1.4" class="st2" width="0.5" height="0.3"/>
						<rect x="136.9" y="1.4" class="st2" width="0.5" height="0.3"/>
					</g>
				</g>
				<g>
					<g>
						<g>
							<rect x="139.4" y="0" class="st1" width="2.7" height="3"/>
						</g>
						<rect x="141.4" y="1.4" class="st2" width="0.5" height="0.3"/>
						<rect x="140.5" y="1.4" class="st2" width="0.5" height="0.3"/>
						<rect x="139.6" y="1.4" class="st2" width="0.5" height="0.3"/>
					</g>
				</g>
				<g>
					<g>
						<g>
							<rect x="142.1" y="0" class="st1" width="2.7" height="3"/>
						</g>
						<rect x="144.1" y="1.4" class="st2" width="0.5" height="0.3"/>
						<rect x="143.2" y="1.4" class="st2" width="0.5" height="0.3"/>
						<rect x="142.3" y="1.4" class="st2" width="0.5" height="0.3"/>
					</g>
				</g>
				<g>
					<g>
						<g>
							<rect x="144.8" y="0" class="st1" width="2.7" height="3"/>
						</g>
						<rect x="146.8" y="1.4" class="st2" width="0.5" height="0.3"/>
						<rect x="145.9" y="1.4" class="st2" width="0.5" height="0.3"/>
						<rect x="145" y="1.4" class="st2" width="0.5" height="0.3"/>
					</g>
				</g>
				<g>
					<g>
						<g>
							<rect x="147.5" y="0" class="st1" width="2.7" height="3"/>
						</g>
						<rect x="149.5" y="1.4" class="st2" width="0.5" height="0.3"/>
						<rect x="148.6" y="1.4" class="st2" width="0.5" height="0.3"/>
						<rect x="147.7" y="1.4" class="st2" width="0.5" height="0.3"/>
					</g>
				</g>
				<g>
					<g>
						<g>
							<rect x="150.2" y="0" class="st1" width="2.7" height="3"/>
						</g>
						<rect x="152.1" y="1.4" class="st2" width="0.5" height="0.3"/>
						<rect x="151.3" y="1.4" class="st2" width="0.5" height="0.3"/>
						<rect x="150.4" y="1.4" class="st2" width="0.5" height="0.3"/>
					</g>
				</g>
				<g>
					<g>
						<g>
							<rect x="152.8" y="0" class="st1" width="2.7" height="3"/>
						</g>
						<rect x="154.8" y="1.4" class="st2" width="0.5" height="0.3"/>
						<rect x="153.9" y="1.4" class="st2" width="0.5" height="0.3"/>
						<rect x="153" y="1.4" class="st2" width="0.5" height="0.3"/>
					</g>
				</g>
				<g>
					<g>
						<g>
							<rect x="155.5" y="0" class="st1" width="2.7" height="3"/>
						</g>
						<rect x="157.5" y="1.4" class="st2" width="0.5" height="0.3"/>
						<rect x="156.6" y="1.4" class="st2" width="0.5" height="0.3"/>
						<rect x="155.7" y="1.4" class="st2" width="0.5" height="0.3"/>
					</g>
				</g>
				<g>
					<g>
						<g>
							<rect x="158.2" y="0" class="st1" width="2.7" height="3"/>
						</g>
						<rect x="160.2" y="1.4" class="st2" width="0.5" height="0.3"/>
						<rect x="159.3" y="1.4" class="st2" width="0.5" height="0.3"/>
						<rect x="158.4" y="1.4" class="st2" width="0.5" height="0.3"/>
					</g>
				</g>
				<g>
					<g>
						<g>
							<rect x="160.9" y="0" class="st1" width="2.7" height="3"/>
						</g>
						<rect x="162.9" y="1.4" class="st2" width="0.5" height="0.3"/>
						<rect x="162" y="1.4" class="st2" width="0.5" height="0.3"/>
						<rect x="161.1" y="1.4" class="st2" width="0.5" height="0.3"/>
					</g>
				</g>
				<g>
					<g>
						<g>
							<rect x="163.6" y="0" class="st1" width="2.7" height="3"/>
						</g>
						<rect x="165.6" y="1.4" class="st2" width="0.5" height="0.3"/>
						<rect x="164.7" y="1.4" class="st2" width="0.5" height="0.3"/>
						<rect x="163.8" y="1.4" class="st2" width="0.5" height="0.3"/>
					</g>
				</g>
				<g>
					<g>
						<g>
							<rect x="166.3" y="0" class="st1" width="2.7" height="3"/>
						</g>
						<rect x="168.3" y="1.4" class="st2" width="0.5" height="0.3"/>
						<rect x="167.4" y="1.4" class="st2" width="0.5" height="0.3"/>
						<rect x="166.5" y="1.4" class="st2" width="0.5" height="0.3"/>
					</g>
				</g>
				<g>
					<g>
						<g>
							<rect x="169" y="0" class="st1" width="2.7" height="3"/>
						</g>
						<rect x="171" y="1.4" class="st2" width="0.5" height="0.3"/>
						<rect x="170.1" y="1.4" class="st2" width="0.5" height="0.3"/>
						<rect x="169.2" y="1.4" class="st2" width="0.5" height="0.3"/>
					</g>
				</g>
				<g>
					<g>
						<g>
							<rect x="171.7" y="0" class="st1" width="2.7" height="3"/>
						</g>
						<rect x="173.7" y="1.4" class="st2" width="0.5" height="0.3"/>
						<rect x="172.8" y="1.4" class="st2" width="0.5" height="0.3"/>
						<rect x="171.9" y="1.4" class="st2" width="0.5" height="0.3"/>
					</g>
				</g>
				<g>
					<g>
						<g>
							<rect x="174.4" y="0" class="st1" width="2.7" height="3"/>
						</g>
						<rect x="176.3" y="1.4" class="st2" width="0.5" height="0.3"/>
						<rect x="175.4" y="1.4" class="st2" width="0.5" height="0.3"/>
						<rect x="174.6" y="1.4" class="st2" width="0.5" height="0.3"/>
					</g>
				</g>
				<g>
					<g>
						<g>
							<rect x="177" y="0" class="st1" width="2.7" height="3"/>
						</g>
						<rect x="179" y="1.4" class="st2" width="0.5" height="0.3"/>
						<rect x="178.1" y="1.4" class="st2" width="0.5" height="0.3"/>
						<rect x="177.2" y="1.4" class="st2" width="0.5" height="0.3"/>
					</g>
				</g>
				<g>
					<g>
						<g>
							<rect x="179.7" y="0" class="st1" width="2.7" height="3"/>
						</g>
						<rect x="181.7" y="1.4" class="st2" width="0.5" height="0.3"/>
						<rect x="180.8" y="1.4" class="st2" width="0.5" height="0.3"/>
						<rect x="179.9" y="1.4" class="st2" width="0.5" height="0.3"/>
					</g>
				</g>
				<g>
					<g>
						<g>
							<rect x="182.4" y="0" class="st1" width="2.7" height="3"/>
						</g>
						<rect x="184.4" y="1.4" class="st2" width="0.5" height="0.3"/>
						<rect x="183.5" y="1.4" class="st2" width="0.5" height="0.3"/>
						<rect x="182.6" y="1.4" class="st2" width="0.5" height="0.3"/>
					</g>
				</g>
				<g>
					<g>
						<g>
							<rect x="185.1" y="0" class="st1" width="2.7" height="3"/>
						</g>
						<rect x="187.1" y="1.4" class="st2" width="0.5" height="0.3"/>
						<rect x="186.2" y="1.4" class="st2" width="0.5" height="0.3"/>
						<rect x="185.3" y="1.4" class="st2" width="0.5" height="0.3"/>
					</g>
				</g>
				<g>
					<g>
						<g>
							<rect x="187.8" y="0" class="st1" width="2.7" height="3"/>
						</g>
						<rect x="189.8" y="1.4" class="st2" width="0.5" height="0.3"/>
						<rect x="188.9" y="1.4" class="st2" width="0.5" height="0.3"/>
						<rect x="188" y="1.4" class="st2" width="0.5" height="0.3"/>
					</g>
				</g>
				<g>
					<g>
						<g>
							<rect x="190.5" y="0" class="st1" width="2.7" height="3"/>
						</g>
						<rect x="192.5" y="1.4" class="st2" width="0.5" height="0.3"/>
						<rect x="191.6" y="1.4" class="st2" width="0.5" height="0.3"/>
						<rect x="190.7" y="1.4" class="st2" width="0.5" height="0.3"/>
					</g>
				</g>
				<g>
					<g>
						<g>
							<rect x="193.2" y="0" class="st1" width="2.7" height="3"/>
						</g>
						<rect x="195.2" y="1.4" class="st2" width="0.5" height="0.3"/>
						<rect x="194.3" y="1.4" class="st2" width="0.5" height="0.3"/>
						<rect x="193.4" y="1.4" class="st2" width="0.5" height="0.3"/>
					</g>
				</g>
				<g>
					<g>
						<g>
							<rect x="195.9" y="0" class="st1" width="2.7" height="3"/>
						</g>
						<rect x="197.8" y="1.4" class="st2" width="0.5" height="0.3"/>
						<rect x="197" y="1.4" class="st2" width="0.5" height="0.3"/>
						<rect x="196.1" y="1.4" class="st2" width="0.5" height="0.3"/>
					</g>
				</g>
				<g>
					<g>
						<g>
							<rect x="198.5" y="0" class="st1" width="2.7" height="3"/>
						</g>
						<rect x="200.5" y="1.4" class="st2" width="0.5" height="0.3"/>
						<rect x="199.6" y="1.4" class="st2" width="0.5" height="0.3"/>
						<rect x="198.8" y="1.4" class="st2" width="0.5" height="0.3"/>
					</g>
				</g>
				<g>
					<g>
						<g>
							<rect x="201.2" y="0" class="st1" width="2.7" height="3"/>
						</g>
						<rect x="203.2" y="1.4" class="st2" width="0.5" height="0.3"/>
						<rect x="202.3" y="1.4" class="st2" width="0.5" height="0.3"/>
						<rect x="201.4" y="1.4" class="st2" width="0.5" height="0.3"/>
					</g>
				</g>
				<g>
					<g>
						<g>
							<rect x="203.9" y="0" class="st1" width="2.7" height="3"/>
						</g>
						<rect x="205.9" y="1.4" class="st2" width="0.5" height="0.3"/>
						<rect x="205" y="1.4" class="st2" width="0.5" height="0.3"/>
						<rect x="204.1" y="1.4" class="st2" width="0.5" height="0.3"/>
					</g>
				</g>
				<g>
					<g>
						<g>
							<rect x="206.6" y="0" class="st1" width="2.7" height="3"/>
						</g>
						<rect x="208.6" y="1.4" class="st2" width="0.5" height="0.3"/>
						<rect x="207.7" y="1.4" class="st2" width="0.5" height="0.3"/>
						<rect x="206.8" y="1.4" class="st2" width="0.5" height="0.3"/>
					</g>
				</g>
				<g>
					<g>
						<g>
							<rect x="209.3" y="3" class="st1" width="3" height="2.7"/>
						</g>
					</g>
				</g>
				<g>
					<g>
						<g>
							<rect x="209.3" y="5.7" class="st1" width="3" height="2.7"/>
						</g>
					</g>
				</g>
				<g>
					<g>
						<g>
							<rect x="209.3" y="8.4" class="st1" width="3" height="2.7"/>
						</g>
					</g>
				</g>
				<g>
					<g>
						<g>
							<rect x="209.3" y="11.1" class="st1" width="3" height="2.7"/>
						</g>
					</g>
				</g>
				<g>
					<g>
						<g>
							<rect x="209.3" y="13.9" class="st1" width="3" height="2.7"/>
						</g>
					</g>
				</g>
				<g>
					<g>
						<g>
							<rect x="209.3" y="16.6" class="st1" width="3" height="2.7"/>
						</g>
					</g>
				</g>
				<g>
					<g>
						<g>
							<rect x="209.3" y="19.3" class="st1" width="3" height="2.7"/>
						</g>
					</g>
				</g>
				<g>
					<g>
						<g>
							<rect x="209.3" y="22" class="st1" width="3" height="2.7"/>
						</g>
					</g>
				</g>
				<g>
					<g>
						<g>
							<rect x="209.3" y="24.7" class="st1" width="3" height="2.7"/>
						</g>
					</g>
				</g>
				<g>
					<g>
						<g>
							<rect x="209.3" y="27.4" class="st1" width="3" height="2.7"/>
						</g>
					</g>
				</g>
				<g>
					<g>
						<g>
							<rect x="209.3" y="30.1" class="st1" width="3" height="2.7"/>
						</g>
					</g>
				</g>
				<g>
					<g>
						<g>
							<rect x="209.3" y="32.9" class="st1" width="3" height="2.7"/>
						</g>
					</g>
				</g>
				<g>
					<g>
						<g>
							<rect x="209.3" y="35.6" class="st1" width="3" height="2.7"/>
						</g>
					</g>
				</g>
				<g>
					<g>
						<g>
							<rect x="209.3" y="38.3" class="st1" width="3" height="2.7"/>
						</g>
					</g>
				</g>
				<g>
					<g>
						<g>
							<rect x="209.3" y="41" class="st1" width="3" height="2.7"/>
						</g>
					</g>
				</g>
				<g>
					<g>
						<g>
							<rect x="209.3" y="43.7" class="st1" width="3" height="2.7"/>
						</g>
					</g>
				</g>
				<g>
					<g>
						<g>
							<rect x="209.3" y="46.4" class="st1" width="3" height="2.7"/>
						</g>
					</g>
				</g>
				<g>
					<g>
						<g>
							<rect x="209.3" y="49.1" class="st1" width="3" height="2.7"/>
						</g>
					</g>
				</g>
				<g>
					<g>
						<g>
							<rect x="209.3" y="51.9" class="st1" width="3" height="2.7"/>
						</g>
					</g>
				</g>
				<g>
					<g>
						<g>
							<rect x="209.3" y="54.6" class="st1" width="3" height="2.7"/>
						</g>
					</g>
				</g>
				<g>
					<g>
						<g>
							<rect x="209.3" y="57.3" class="st1" width="3" height="2.7"/>
						</g>
					</g>
				</g>
				<g>
					<g>
						<g>
							<rect x="209.3" y="60" class="st1" width="3" height="2.7"/>
						</g>
					</g>
				</g>
				<g>
					<g>
						<g>
							<rect x="209.3" y="62.7" class="st1" width="3" height="2.7"/>
						</g>
					</g>
				</g>
				<g>
					<g>
						<g>
							<rect x="209.3" y="65.4" class="st1" width="3" height="2.7"/>
						</g>
					</g>
				</g>
				<g>
					<g>
						<g>
							<rect x="209.3" y="68.1" class="st1" width="3" height="2.7"/>
						</g>
					</g>
				</g>
				<g>
					<g>
						<g>
							<rect x="209.3" y="70.9" class="st1" width="3" height="2.7"/>
						</g>
					</g>
				</g>
				<g>
					<g>
						<g>
							<rect x="209.3" y="73.6" class="st1" width="3" height="2.7"/>
						</g>
					</g>
				</g>
				<g>
					<g>
						<g>
							<rect x="209.3" y="76.3" class="st1" width="3" height="2.7"/>
						</g>
					</g>
				</g>
				<g>
					<rect x="0.7" y="2.3" class="st2" width="0.3" height="0.5"/>
					<polygon class="st2" points="0.7,1.4 0.7,1.9 1,1.9 1,1.7 1.2,1.7 1.2,1.4 					"/>
					<rect x="1.6" y="1.4" class="st2" width="0.5" height="0.3"/>
				</g>
				<g>
					<rect x="209.5" y="1.4" class="st2" width="0.5" height="0.3"/>
				</g>
			</g>
		</g>
	</g>
	<g>
		<path class="st3" d="M42.8,21.5l-1,2.5h-4l5.5-14.3h4.1L52.8,24h-4l-0.9-2.5H42.8z M45.4,14.1L45.4,14.1l-1.6,4.6h3.1L45.4,14.1z"
			/>
		<path class="st3" d="M66.4,9.7v8.1c0,1.8-0.1,3.7-1.5,5.1c-1.2,1.2-3.1,1.6-4.8,1.6s-3.6-0.4-4.7-1.6c-1.4-1.4-1.5-3.2-1.5-5.1
			V9.7h3.7v7.5c0,1.9,0.1,3.9,2.5,3.9s2.5-2,2.5-3.9V9.7H66.4z"/>
		<path class="st3" d="M76.6,13.4c-0.7-0.6-1.6-1-2.5-1c-0.7,0-1.6,0.4-1.6,1.2c0,0.8,1,1.2,1.7,1.4l1,0.3c2,0.6,3.5,1.6,3.5,3.9
			c0,1.4-0.3,2.9-1.5,3.9c-1.1,0.9-2.6,1.3-4.1,1.3c-1.8,0-3.6-0.6-5-1.6l1.6-3c0.9,0.8,2,1.5,3.3,1.5c0.9,0,1.8-0.4,1.8-1.4
			c0-1-1.5-1.4-2.3-1.6c-2.3-0.7-3.9-1.3-3.9-4c0-2.9,2.1-4.8,4.9-4.8c1.4,0,3.2,0.5,4.5,1.2L76.6,13.4z"/>
		<path class="st3" d="M84.2,12.8v2.4h4.2v3.2h-4.2v2.5h4.4V24h-8.1V9.7h8.1v3.2H84.2z"/>
		<path class="st3" d="M90.9,9.7h3.7l6.8,8.8h0V9.7h3.7V24h-3.7l-6.8-8.8h0V24h-3.7V9.7z"/>
		<path class="st3" d="M117.9,14.5c-0.8-1-2-1.6-3.3-1.6c-2.3,0-3.8,1.7-3.8,4c0,2.3,1.6,3.9,3.9,3.9c1.2,0,2.4-0.6,3.2-1.5v4.5
			c-1.2,0.4-2.1,0.7-3.3,0.7c-2,0-3.9-0.8-5.4-2.1c-1.6-1.4-2.3-3.3-2.3-5.4c0-2,0.7-3.8,2.1-5.2c1.4-1.4,3.4-2.3,5.5-2.3
			c1.2,0,2.3,0.3,3.4,0.7V14.5z"/>
		<path class="st3" d="M123.9,24h-3.7V9.7h3.7V24z"/>
		<path class="st3" d="M130,21.5l-1,2.5h-4l5.5-14.3h4.1L140,24h-4l-0.9-2.5H130z M132.6,14.1L132.6,14.1l-1.6,4.6h3.1L132.6,14.1z"
			/>
		<path class="st3" d="M147.7,9.7h5.3c4,0,7.3,3.1,7.3,7.2S156.9,24,153,24h-5.3V9.7z M151.4,20.8h0.8c2.2,0,4.1-1.2,4.1-4
			c0-2.6-1.7-4-4.1-4h-0.9V20.8z"/>
		<path class="st3" d="M165.7,12.8v2.4h4.2v3.2h-4.2v2.5h4.4V24H162V9.7h8.1v3.2H165.7z"/>
		<path class="st3" d="M46.6,32.5h3.7l2.9,7.7l3.1-7.7H60l2.2,14.3h-3.7l-1-8.2h0l-3.4,8.2h-1.5l-3.3-8.2h0l-1.2,8.2h-3.7L46.6,32.5
			z"/>
		<path class="st3" d="M78.9,39.4c0,4.6-3.3,7.9-7.9,7.9c-4.6,0-7.9-3.3-7.9-7.9c0-4.3,3.8-7.4,7.9-7.4C75.1,32,78.9,35,78.9,39.4z
			 M66.9,39.4c0,2.5,1.8,4.3,4,4.3s4-1.8,4-4.3c0-2-1.8-3.8-4-3.8S66.9,37.4,66.9,39.4z"/>
		<path class="st3" d="M80.6,32.5h3.7l6.8,8.8h0v-8.8h3.7v14.3h-3.7L84.3,38h0v8.8h-3.7V32.5z"/>
		<path class="st3" d="M112.4,39.4c0,4.6-3.3,7.9-7.9,7.9c-4.6,0-7.9-3.3-7.9-7.9c0-4.3,3.8-7.4,7.9-7.4
			C108.6,32,112.4,35,112.4,39.4z M100.5,39.4c0,2.5,1.8,4.3,4,4.3s4-1.8,4-4.3c0-2-1.8-3.8-4-3.8S100.5,37.4,100.5,39.4z
			 M104.1,31.6l-1.5-1.1l2.7-3.3l2.1,1.5L104.1,31.6z"/>
		<path class="st3" d="M113.8,32.5h4.6l2.2,3.7l2.2-3.7h4.6l-4.6,6.7l5.3,7.7h-4.5l-3-4.7l-3.3,4.7h-4.5l5.6-7.7L113.8,32.5z"/>
		<path class="st3" d="M132.9,46.8h-3.7V32.5h3.7V46.8z"/>
		<path class="st3" d="M135.3,32.5h5.3c4,0,7.3,3.1,7.3,7.2c0,4-3.3,7.2-7.3,7.2h-5.3V32.5z M139,43.6h0.8c2.2,0,4.1-1.2,4.1-4
			c0-2.6-1.7-4-4.1-4H139V43.6z"/>
		<path class="st3" d="M164.7,39.4c0,4.6-3.3,7.9-7.9,7.9c-4.6,0-7.9-3.3-7.9-7.9c0-4.3,3.8-7.4,7.9-7.4
			C160.9,32,164.7,35,164.7,39.4z M152.8,39.4c0,2.5,1.8,4.3,4,4.3s4-1.8,4-4.3c0-2-1.8-3.8-4-3.8S152.8,37.4,152.8,39.4z"/>
		<path class="st3" d="M41.6,55.3h5.3c4,0,7.3,3.1,7.3,7.2s-3.3,7.2-7.3,7.2h-5.3V55.3z M45.3,66.4h0.8c2.2,0,4.1-1.2,4.1-4
			c0-2.6-1.7-4-4.1-4h-0.9V66.4z"/>
		<path class="st3" d="M59.6,58.4v2.4h4.2V64h-4.2v2.5H64v3.2h-8.1V55.3H64v3.2H59.6z"/>
		<path class="st3" d="M83.1,60.1c-0.8-1-2-1.6-3.3-1.6c-2.3,0-3.8,1.7-3.8,4c0,2.3,1.6,3.9,3.9,3.9c1.2,0,2.4-0.6,3.2-1.5v4.5
			C81.8,69.7,81,70,79.8,70c-2,0-3.9-0.8-5.4-2.1c-1.6-1.4-2.3-3.3-2.3-5.4c0-2,0.7-3.8,2.1-5.2c1.4-1.4,3.4-2.3,5.5-2.3
			c1.2,0,2.3,0.3,3.4,0.7V60.1z"/>
		<path class="st3" d="M89,67.1l-1,2.5h-4l5.5-14.3h4.1l5.4,14.3h-4l-0.9-2.5H89z M91.6,59.7L91.6,59.7l-1.6,4.6h3.1L91.6,59.7z"/>
		<path class="st3" d="M112.1,69.6h-4.6l-3.5-5.5h0v5.5h-3.7V55.3h5.6c2.8,0,5,1.3,5,4.4c0,2-1.1,3.7-3.1,4L112.1,69.6z M103.9,61.7
			h0.4c1.2,0,2.6-0.2,2.6-1.8s-1.4-1.8-2.6-1.8h-0.4V61.7z"/>
		<path class="st3" d="M113.1,69.6V55.3h5.3c2.5,0,4.3,1,4.3,3.7c0,1.3-0.4,2.3-1.6,2.9v0c2.1,0.3,2.9,1.7,2.9,3.6c0,3-2.6,4-5.2,4
			H113.1z M116.9,60.9h0.4c1,0,2-0.2,2-1.4c0-1.3-1.2-1.4-2.2-1.4h-0.3V60.9z M116.9,66.8h0.5c1.1,0,3,0.1,3-1.5
			c0-1.7-1.8-1.6-3.1-1.6h-0.4V66.8z"/>
		<path class="st3" d="M141.1,62.2c0,4.6-3.3,7.9-7.9,7.9c-4.6,0-7.9-3.3-7.9-7.9c0-4.3,3.8-7.4,7.9-7.4
			C137.3,54.8,141.1,57.8,141.1,62.2z M129.2,62.2c0,2.5,1.8,4.3,4,4.3s4-1.8,4-4.3c0-2-1.8-3.8-4-3.8S129.2,60.2,129.2,62.2z"/>
		<path class="st3" d="M142.9,55.3h3.7l6.8,8.8h0v-8.8h3.7v14.3h-3.7l-6.8-8.8h0v8.8h-3.7V55.3z"/>
		<path class="st3" d="M174.7,62.2c0,4.6-3.3,7.9-7.9,7.9c-4.6,0-7.9-3.3-7.9-7.9c0-4.3,3.8-7.4,7.9-7.4
			C170.9,54.8,174.7,57.8,174.7,62.2z M162.7,62.2c0,2.5,1.8,4.3,4,4.3s4-1.8,4-4.3c0-2-1.8-3.8-4-3.8S162.7,60.2,162.7,62.2z"/>
	</g>
</g>
</svg>
