<?xml version="1.0" encoding="utf-8"?>
<!-- Generator: Adobe Illustrator 23.0.3, SVG Export Plug-In . SVG Version: 6.00 Build 0)  -->
<svg version="1.1" id="Layer_1" xmlns="http://www.w3.org/2000/svg" xmlns:xlink="http://www.w3.org/1999/xlink" x="0px" y="0px"
	 viewBox="0 0 210 79" style="enable-background:new 0 0 210 79;" xml:space="preserve">
<style type="text/css">
	.st0{fill:#C48956;}
	.st1{fill:#C2C2C2;}
	.st2{fill:#373737;}
	.st3{fill:#424242;}
	.st4{opacity:0.1;fill:#212121;enable-background:new    ;}
	.st5{fill:#BABABA;}
	.st6{opacity:5.000000e-02;enable-background:new    ;}
	.st7{opacity:0.3;fill:#FFFFFF;enable-background:new    ;}
	.st8{fill:#8A8A8A;}
	.st9{fill:#E6E6E6;}
	.st10{fill:#E0E0E0;}
	.st11{opacity:0.15;enable-background:new    ;}
	.st12{fill:#2C7300;}
	.st13{fill:#378F00;}
	.st14{fill:#FAB700;}
	.st15{fill:#BA8800;}
	.st16{fill:#FFD154;}
	.st17{fill:#66C30F;}
	.st18{fill:#808080;}
	.st19{clip-path:url(#SVGID_2_);}
	.st20{fill:#00A0DF;}
	.st21{fill:#40A0DF;}
	.st22{fill:none;}
</style>
<path class="st0" d="M198,79H12C5.4,79,0,73.6,0,67V12C0,5.4,5.4,0,12,0h186c6.6,0,12,5.4,12,12v55C210,73.6,204.6,79,198,79z"/>
<rect x="8.3" y="43.1" class="st1" width="193.4" height="32.8"/>
<g>
	<rect x="174" y="67" class="st2" width="5.4" height="9.6"/>
	<rect x="155.5" y="67" class="st2" width="5.4" height="9.6"/>
	<rect x="136.9" y="67" class="st2" width="5.4" height="9.6"/>
	<rect x="118.5" y="66.9" class="st2" width="5.4" height="9.6"/>
	<path class="st3" d="M116.9,64.1h64c1.5,0,2.8,1.3,2.8,2.8s-1.3,2.8-2.8,2.8h-64c-1.5,0-2.8-1.3-2.8-2.8
		C114.1,65.4,115.4,64.1,116.9,64.1z"/>
</g>
<g>
	<rect x="86.4" y="67" class="st2" width="5.4" height="9.6"/>
	<rect x="67.8" y="67" class="st2" width="5.4" height="9.6"/>
	<rect x="49.4" y="67" class="st2" width="5.4" height="9.6"/>
	<rect x="30.9" y="66.9" class="st2" width="5.4" height="9.6"/>
	<path class="st3" d="M29.4,64.1h64c1.5,0,2.8,1.3,2.8,2.8s-1.3,2.8-2.8,2.8h-64c-1.5,0-2.8-1.3-2.8-2.8
		C26.6,65.4,27.8,64.1,29.4,64.1z"/>
</g>
<polygon class="st4" points="201.7,46.3 8.3,54.5 8.3,46.3 "/>
<g>
	<g>
		<rect x="114" y="25.3" class="st5" width="71.6" height="6.7"/>
		<rect x="117.5" y="25.3" class="st6" width="14.2" height="6.7"/>
		<rect x="171.6" y="25.3" class="st7" width="9.1" height="6.7"/>
		<polygon class="st8" points="185.6,32.1 114,32.1 114,25.3 115.1,31.4 		"/>
		<polygon class="st9" points="185.6,32.1 184.6,26.1 114,25.3 185.6,25.3 		"/>
		<rect x="114" y="60.2" class="st5" width="71.6" height="4.8"/>
		<rect x="172.1" y="60.3" class="st7" width="9.5" height="4.7"/>
		<rect x="117.5" y="60.3" class="st6" width="14.2" height="4.7"/>
		<polygon class="st8" points="185.6,65 114,65 114,60.2 115.1,64.6 		"/>
		<polygon class="st9" points="185.6,65 184.6,60.8 114,60.2 185.6,60.2 		"/>
		<rect x="114.5" y="32.1" class="st10" width="70.6" height="28.3"/>
		<rect x="114.5" y="32.1" class="st11" width="70.6" height="1.7"/>
		<rect x="171.3" y="33.8" class="st7" width="9.4" height="26.5"/>
		<rect x="118.5" y="33.8" class="st6" width="13.7" height="26.5"/>
		<path class="st5" d="M197.4,31h-11.8v-4.8h11.8c0.5,0,1.1,0.4,1.1,1.1v2.8C198.4,30.5,197.9,31,197.4,31z"/>
		<rect x="185.6" y="26.1" class="st11" width="1.9" height="4.8"/>
		<rect x="193.3" y="26.1" class="st7" width="3.1" height="4.8"/>
		<path class="st5" d="M102.3,26.1h11.8v4.8h-11.8c-0.5,0-1.1-0.4-1.1-1.1v-2.8C101.3,26.6,101.7,26.1,102.3,26.1z"/>
		<rect x="112.1" y="26.1" class="st11" width="1.9" height="4.8"/>
		<rect x="103.3" y="26.1" class="st7" width="3.1" height="4.8"/>
		<g>
			<g>
				<path class="st12" d="M151.2,50.9c0.5-1.9-3.9-0.5-3.9-0.5S150.6,52.8,151.2,50.9z"/>
				<path class="st13" d="M153.2,40.9c-0.7,1.8-1.6,2.1-1.4,3.7C152.5,44.8,154,43.7,153.2,40.9z"/>
				<g>
					<path class="st14" d="M152.9,40.8c0.1,2-0.3,3.7-0.9,3.7c-0.6,0-1.2-1.6-1.3-3.6c-0.1-2,0.3-3.7,0.9-3.7
						C152.1,37.1,152.8,38.8,152.9,40.8z"/>
					<path class="st15" d="M151.3,38.1h-0.2c0,0-0.1,0-0.1-0.1l0,0c0,0,0-0.1,0.1-0.1h0.2c0,0,0.1,0,0.1,0.1L151.3,38.1
						C151.4,38.1,151.4,38.1,151.3,38.1z"/>
					<path class="st15" d="M151.8,38.4h-0.2c0,0-0.1,0-0.1-0.1l0,0c0,0,0-0.1,0.1-0.1h0.2c0,0,0.1,0,0.1,0.1L151.8,38.4L151.8,38.4z
						"/>
					<path class="st15" d="M151.8,39.1h-0.2c0,0-0.1,0-0.1-0.1l0,0c0,0,0-0.1,0.1-0.1h0.2c0,0,0.1,0,0.1,0.1L151.8,39.1
						C151.9,39,151.8,39.1,151.8,39.1z"/>
					<path class="st15" d="M151.7,37.9h-0.2c0,0-0.1,0-0.1-0.1l0,0c0,0,0-0.1,0.1-0.1h0.2c0,0,0.1,0,0.1,0.1L151.7,37.9
						C151.8,37.8,151.8,37.9,151.7,37.9z"/>
					<path class="st15" d="M152.1,38.1h-0.2c0,0-0.1,0-0.1-0.1l0,0c0,0,0-0.1,0.1-0.1h0.2c0,0,0.1,0,0.1,0.1L152.1,38.1
						C152.2,38.1,152.2,38.1,152.1,38.1z"/>
					<path class="st15" d="M152.2,38.6H152c0,0-0.1,0-0.1-0.1l0,0c0,0,0-0.1,0.1-0.1h0.2c0,0,0.1,0,0.1,0.1L152.2,38.6
						C152.4,38.6,152.4,38.6,152.2,38.6z"/>
					<path class="st15" d="M151.3,38.8h-0.2c0,0-0.1,0-0.1-0.1l0,0c0,0,0-0.1,0.1-0.1h0.2c0,0,0.1,0,0.1,0.1L151.3,38.8
						C151.4,38.6,151.4,38.8,151.3,38.8z"/>
					<path class="st15" d="M151.8,39.6h-0.2c0,0-0.1,0-0.1-0.1l0,0c0,0,0-0.1,0.1-0.1h0.2c0,0,0.1,0,0.1,0.1L151.8,39.6
						C151.9,39.6,151.9,39.6,151.8,39.6z"/>
					<path class="st15" d="M152.2,39.3H152c0,0-0.1,0-0.1-0.1l0,0c0,0,0-0.1,0.1-0.1h0.2c0,0,0.1,0,0.1,0.1L152.2,39.3
						C152.4,39.2,152.4,39.3,152.2,39.3z"/>
					<path class="st15" d="M151.3,39.3h-0.2c0,0-0.1,0-0.1-0.1l0,0c0,0,0-0.1,0.1-0.1h0.2c0,0,0.1,0,0.1,0.1L151.3,39.3
						C151.4,39.3,151.4,39.3,151.3,39.3z"/>
					<path class="st15" d="M151.8,40.3h-0.2c0,0-0.1,0-0.1-0.1l0,0c0,0,0-0.1,0.1-0.1h0.2c0,0,0.1,0,0.1,0.1L151.8,40.3
						C151.9,40.3,151.9,40.3,151.8,40.3z"/>
					<path class="st15" d="M152.4,39.9h-0.2c0,0-0.1,0-0.1-0.1l0,0c0,0,0-0.1,0.1-0.1h0.2c0,0,0.1,0,0.1,0.1L152.4,39.9
						C152.5,39.8,152.4,39.9,152.4,39.9z"/>
					<path class="st15" d="M151.4,39.9h-0.2c0,0-0.1,0-0.1-0.1l0,0c0,0,0-0.1,0.1-0.1h0.2c0,0,0.1,0,0.1,0.1L151.4,39.9
						C151.5,39.9,151.4,39.9,151.4,39.9z"/>
					<path class="st15" d="M151.9,40.9h-0.2c0,0-0.1,0-0.1-0.1l0,0c0,0,0-0.1,0.1-0.1h0.2c0,0,0.1,0,0.1,0.1L151.9,40.9
						C152,40.9,151.9,40.9,151.9,40.9z"/>
					<path class="st15" d="M152.4,40.6h-0.2c0,0-0.1,0-0.1-0.1l0,0c0,0,0-0.1,0.1-0.1h0.2c0,0,0.1,0,0.1,0.1L152.4,40.6
						C152.5,40.5,152.4,40.6,152.4,40.6z"/>
					<path class="st16" d="M152.6,40.3h-0.2c0,0-0.1,0-0.1-0.1l0,0c0,0,0-0.1,0.1-0.1h0.2c0,0,0.1,0,0.1,0.1L152.6,40.3
						C152.7,40.1,152.7,40.3,152.6,40.3z"/>
					<path class="st16" d="M152.6,39.6h-0.2c0,0-0.1,0-0.1-0.1l0,0c0,0,0-0.1,0.1-0.1h0.2c0,0,0.1,0,0.1,0.1L152.6,39.6
						C152.7,39.5,152.6,39.6,152.6,39.6z"/>
					<path class="st16" d="M152.5,39h-0.2c0,0-0.1,0-0.1-0.1l0,0c0,0,0-0.1,0.1-0.1h0.2c0,0,0.1,0,0.1,0.1L152.5,39
						C152.6,39,152.5,39,152.5,39z"/>
					<path class="st16" d="M151.8,38.8h-0.2c0,0-0.1,0-0.1-0.1l0,0c0,0,0-0.1,0.1-0.1h0.2c0,0,0.1,0,0.1,0.1L151.8,38.8
						C151.9,38.8,151.8,38.8,151.8,38.8z"/>
					<path class="st16" d="M152.2,38.4H152c0,0-0.1,0-0.1-0.1l0,0c0,0,0-0.1,0.1-0.1h0.2c0,0,0.1,0,0.1,0.1L152.2,38.4
						C152.4,38.3,152.4,38.4,152.2,38.4z"/>
					<path class="st16" d="M151.3,38.4h-0.2c0,0-0.1,0-0.1-0.1l0,0c0,0,0-0.1,0.1-0.1h0.2c0,0,0.1,0,0.1,0.1L151.3,38.4
						C151.4,38.4,151.4,38.4,151.3,38.4z"/>
					<path class="st16" d="M151.8,38.2h-0.2c0,0-0.1,0-0.1-0.1l0,0c0,0,0-0.1,0.1-0.1h0.2c0,0,0.1,0,0.1,0.1L151.8,38.2
						C151.8,38.1,151.8,38.2,151.8,38.2z"/>
					<path class="st16" d="M151.7,37.6h-0.2c0,0-0.1,0-0.1-0.1l0,0c0,0,0-0.1,0.1-0.1h0.2c0,0,0.1,0,0.1,0.1L151.7,37.6
						C151.8,37.5,151.8,37.6,151.7,37.6z"/>
					<path class="st16" d="M151.2,39.1H151c0,0-0.1,0-0.1-0.1l0,0c0,0,0-0.1,0.1-0.1h0.2c0,0,0.1,0,0.1,0.1L151.2,39.1
						C151.3,39,151.3,39,151.2,39.1z"/>
					<path class="st16" d="M151.8,39.3h-0.2c0,0-0.1,0-0.1-0.1l0,0c0,0,0-0.1,0.1-0.1h0.2c0,0,0.1,0,0.1,0.1L151.8,39.3
						C151.9,39.3,151.8,39.3,151.8,39.3z"/>
					<path class="st16" d="M151.2,39.6H151c0,0-0.1,0-0.1-0.1l0,0c0,0,0-0.1,0.1-0.1h0.2c0,0,0.1,0,0.1,0.1L151.2,39.6
						C151.3,39.6,151.3,39.6,151.2,39.6z"/>
					<path class="st16" d="M151.8,39.9h-0.2c0,0-0.1,0-0.1-0.1l0,0c0,0,0-0.1,0.1-0.1h0.2c0,0,0.1,0,0.1,0.1L151.8,39.9
						C151.9,39.9,151.9,39.9,151.8,39.9z"/>
					<path class="st16" d="M151.2,40.3H151c0,0-0.1,0-0.1-0.1l0,0c0,0,0-0.1,0.1-0.1h0.2c0,0,0.1,0,0.1,0.1L151.2,40.3
						C151.3,40.3,151.2,40.3,151.2,40.3z"/>
					<path class="st16" d="M151.9,40.6h-0.2c0,0-0.1,0-0.1-0.1l0,0c0,0,0-0.1,0.1-0.1h0.2c0,0,0.1,0,0.1,0.1L151.9,40.6L151.9,40.6z
						"/>
					<path class="st16" d="M152.7,40.8h-0.2c0,0-0.1,0-0.1-0.1l0,0c0,0,0-0.1,0.1-0.1h0.2c0,0,0.1,0,0.1,0.1L152.7,40.8L152.7,40.8z
						"/>
					<path class="st16" d="M152.7,41.4h-0.2c0,0-0.1,0-0.1-0.1l0,0c0,0,0-0.1,0.1-0.1h0.2c0,0,0.1,0,0.1,0.1L152.7,41.4L152.7,41.4z
						"/>
					<path class="st16" d="M152.6,42.1h-0.2c0,0-0.1,0-0.1-0.1l0,0c0,0,0-0.1,0.1-0.1h0.2c0,0,0.1,0,0.1,0.1L152.6,42.1
						C152.7,42.1,152.7,42.1,152.6,42.1z"/>
					<path class="st16" d="M152.6,42.6h-0.2c0,0-0.1,0-0.1-0.1l0,0c0,0,0-0.1,0.1-0.1h0.2c0,0,0.1,0,0.1,0.1L152.6,42.6
						C152.7,42.6,152.6,42.6,152.6,42.6z"/>
					<path class="st16" d="M152.6,43.3h-0.2c0,0-0.1,0-0.1-0.1l0,0c0,0,0-0.1,0.1-0.1h0.2c0,0,0.1,0,0.1,0.1L152.6,43.3L152.6,43.3z
						"/>
					<path class="st16" d="M152.5,43.9h-0.2c0,0-0.1,0-0.1-0.1l0,0c0,0,0-0.1,0.1-0.1h0.2c0,0,0.1,0,0.1,0.1L152.5,43.9
						C152.6,43.8,152.5,43.9,152.5,43.9z"/>
					<path class="st16" d="M151.6,43.9h-0.2c0,0-0.1,0-0.1-0.1l0,0c0,0,0-0.1,0.1-0.1h0.2c0,0,0.1,0,0.1,0.1L151.6,43.9
						C151.7,43.9,151.6,43.9,151.6,43.9z"/>
					<path class="st16" d="M151.5,43.4h-0.2c0,0-0.1,0-0.1-0.1l0,0c0,0,0-0.1,0.1-0.1h0.2c0,0,0.1,0,0.1,0.1L151.5,43.4
						C151.6,43.3,151.5,43.4,151.5,43.4z"/>
					<path class="st16" d="M151.4,42.7h-0.2c0,0-0.1,0-0.1-0.1l0,0c0,0,0-0.1,0.1-0.1h0.2c0,0,0.1,0,0.1,0.1L151.4,42.7L151.4,42.7z
						"/>
					<path class="st16" d="M151.3,42.2h-0.2c0,0-0.1,0-0.1-0.1l0,0c0,0,0-0.1,0.1-0.1h0.2c0,0,0.1,0,0.1,0.1L151.3,42.2
						C151.4,42.1,151.3,42.2,151.3,42.2z"/>
					<path class="st16" d="M151.2,41.5H151c0,0-0.1,0-0.1-0.1l0,0c0,0,0-0.1,0.1-0.1h0.2c0,0,0.1,0,0.1,0.1L151.2,41.5
						C151.3,41.4,151.2,41.5,151.2,41.5z"/>
					<path class="st16" d="M151.9,41.2h-0.2c0,0-0.1,0-0.1-0.1l0,0c0,0,0-0.1,0.1-0.1h0.2c0,0,0.1,0,0.1,0.1L151.9,41.2
						C152,41.2,151.9,41.2,151.9,41.2z"/>
					<path class="st16" d="M151.9,41.9h-0.2c0,0-0.1,0-0.1-0.1l0,0c0,0,0-0.1,0.1-0.1h0.2c0,0,0.1,0,0.1,0.1L151.9,41.9
						C152,41.8,152,41.8,151.9,41.9z"/>
					<path class="st16" d="M151.9,42.4h-0.2c0,0-0.1,0-0.1-0.1l0,0c0,0,0-0.1,0.1-0.1h0.2c0,0,0.1,0,0.1,0.1L151.9,42.4
						C152,42.4,152,42.4,151.9,42.4z"/>
					<path class="st16" d="M152,43h-0.2c0,0-0.1,0-0.1-0.1l0,0c0,0,0-0.1,0.1-0.1h0.2c0,0,0.1,0,0.1,0.1L152,43
						C152.1,42.9,152,43,152,43z"/>
					<path class="st16" d="M152,43.6h-0.2c0,0-0.1,0-0.1-0.1l0,0c0,0,0-0.1,0.1-0.1h0.2c0,0,0.1,0,0.1,0.1L152,43.6
						C152.1,43.6,152,43.6,152,43.6z"/>
					<path class="st16" d="M152,44.2h-0.2c0,0-0.1,0-0.1-0.1l0,0c0,0,0-0.1,0.1-0.1h0.2c0,0,0.1,0,0.1,0.1L152,44.2
						C152.1,44.1,152.1,44.2,152,44.2z"/>
					<path class="st16" d="M151.2,40.9H151c0,0-0.1,0-0.1-0.1l0,0c0,0,0-0.1,0.1-0.1h0.2c0,0,0.1,0,0.1,0.1L151.2,40.9
						C151.3,40.8,151.3,40.9,151.2,40.9z"/>
					<path class="st15" d="M151.4,40.6h-0.2c0,0-0.1,0-0.1-0.1l0,0c0,0,0-0.1,0.1-0.1h0.2c0,0,0.1,0,0.1,0.1L151.4,40.6
						C151.5,40.6,151.5,40.6,151.4,40.6z"/>
					<path class="st15" d="M151.9,41.5h-0.2c0,0-0.1,0-0.1-0.1l0,0c0,0,0-0.1,0.1-0.1h0.2c0,0,0.1,0,0.1,0.1L151.9,41.5
						C152,41.4,151.9,41.5,151.9,41.5z"/>
					<path class="st15" d="M152.4,41.1h-0.2c0,0-0.1,0-0.1-0.1l0,0c0,0,0-0.1,0.1-0.1h0.2c0,0,0.1,0,0.1,0.1L152.4,41.1
						C152.5,41.1,152.5,41.1,152.4,41.1z"/>
					<path class="st15" d="M151.4,41.2h-0.2c0,0-0.1,0-0.1-0.1l0,0c0,0,0-0.1,0.1-0.1h0.2c0,0,0.1,0,0.1,0.1L151.4,41.2
						C151.5,41.1,151.5,41.2,151.4,41.2z"/>
					<path class="st15" d="M151.9,42.2h-0.2c0,0-0.1,0-0.1-0.1l0,0c0,0,0-0.1,0.1-0.1h0.2c0,0,0.1,0,0.1,0.1L151.9,42.2
						C152,42.1,152,42.2,151.9,42.2z"/>
					<path class="st15" d="M152.5,41.8h-0.2c0,0-0.1,0-0.1-0.1l0,0c0,0,0-0.1,0.1-0.1h0.2c0,0,0.1,0,0.1,0.1L152.5,41.8L152.5,41.8z
						"/>
					<path class="st15" d="M151.5,41.9h-0.2c0,0-0.1,0-0.1-0.1l0,0c0,0,0-0.1,0.1-0.1h0.2c0,0,0.1,0,0.1,0.1L151.5,41.9
						C151.5,41.8,151.5,41.9,151.5,41.9z"/>
					<path class="st15" d="M152,42.7h-0.2c0,0-0.1,0-0.1-0.1l0,0c0,0,0-0.1,0.1-0.1h0.2c0,0,0.1,0,0.1,0.1L152,42.7L152,42.7z"/>
					<path class="st15" d="M152.5,42.4h-0.2c0,0-0.1,0-0.1-0.1l0,0c0,0,0-0.1,0.1-0.1h0.2c0,0,0.1,0,0.1,0.1L152.5,42.4
						C152.6,42.3,152.5,42.4,152.5,42.4z"/>
					<path class="st15" d="M151.5,42.4h-0.2c0,0-0.1,0-0.1-0.1l0,0c0,0,0-0.1,0.1-0.1h0.2c0,0,0.1,0,0.1,0.1L151.5,42.4
						C151.6,42.4,151.5,42.4,151.5,42.4z"/>
					<path class="st15" d="M152,43.4h-0.2c0,0-0.1,0-0.1-0.1l0,0c0,0,0-0.1,0.1-0.1h0.2c0,0,0.1,0,0.1,0.1L152,43.4
						C152.1,43.3,152,43.4,152,43.4z"/>
					<path class="st15" d="M152.5,42.9h-0.2c0,0-0.1,0-0.1-0.1l0,0c0,0,0-0.1,0.1-0.1h0.2c0,0,0.1,0,0.1,0.1L152.5,42.9
						C152.6,42.9,152.6,42.9,152.5,42.9z"/>
					<path class="st15" d="M151.5,43h-0.2c0,0-0.1,0-0.1-0.1l0,0c0,0,0-0.1,0.1-0.1h0.2c0,0,0.1,0,0.1,0.1L151.5,43
						C151.6,42.9,151.6,43,151.5,43z"/>
					<path class="st15" d="M152,43.9h-0.2c0,0-0.1,0-0.1-0.1l0,0c0,0,0-0.1,0.1-0.1h0.2c0,0,0.1,0,0.1,0.1L152,43.9
						C152.1,43.9,152.1,43.9,152,43.9z"/>
					<path class="st15" d="M152,44.4h-0.2c0,0-0.1,0-0.1-0.1l0,0c0,0,0-0.1,0.1-0.1h0.2c0,0,0.1,0,0.1,0.1L152,44.4
						C152.1,44.4,152.1,44.4,152,44.4z"/>
					<path class="st15" d="M152.5,43.6h-0.2c0,0-0.1,0-0.1-0.1l0,0c0,0,0-0.1,0.1-0.1h0.2c0,0,0.1,0,0.1,0.1L152.5,43.6
						C152.6,43.5,152.6,43.6,152.5,43.6z"/>
					<path class="st15" d="M151.5,43.6h-0.2c0,0-0.1,0-0.1-0.1l0,0c0,0,0-0.1,0.1-0.1h0.2c0,0,0.1,0,0.1,0.1L151.5,43.6
						C151.6,43.6,151.6,43.6,151.5,43.6z"/>
				</g>
				<path class="st17" d="M150.1,39.6c1,2.4,2,2.9,1.8,4.9C151.2,44.8,149.1,43.4,150.1,39.6z"/>
				<path class="st17" d="M150.4,58.1c-0.3-3.4,0.2-5.7,0.6-7.7c0.4-1.8,0.7-3.6,0.5-5.9h0.3c0.2,2.4-0.1,4.1-0.5,6
					c-0.4,2.1-1,4.3-0.6,7.6L150.4,58.1z"/>
				<path class="st13" d="M151.9,47.5c0.6,1.8,3.4-1.7,3.4-1.7S151.3,45.7,151.9,47.5z"/>
			</g>
			<g>
				<path class="st13" d="M149.2,53.8c0.2-3.2-6.3,0.3-6.3,0.3S149.9,57.1,149.2,53.8z"/>
				<path class="st17" d="M150.3,58.2c-0.4-3.3-1.2-4.8-1.8-6.2c-0.2-0.3-0.3-0.6-0.4-1l0.5-0.2c0.1,0.3,0.3,0.6,0.4,1
					c0.7,1.4,1.5,3,1.9,6.4H150.3z"/>
				<path class="st13" d="M148.6,42.9c-0.4,4.1-1.8,5.1-0.5,8.2C149.4,51.1,151.7,48,148.6,42.9z"/>
				<g>
					<path class="st14" d="M147.7,43.1c1.5,4,1.7,7.5,0.6,7.9c-1.2,0.4-3.2-2.5-4.7-6.4c-1.5-4-1.7-7.5-0.6-7.9
						C144.2,36.3,146.2,39.2,147.7,43.1z"/>
					<path class="st15" d="M143.1,38.9l-0.5,0.2c-0.1,0-0.2,0-0.2-0.1v-0.1c0-0.1,0-0.2,0.1-0.2l0.5-0.2c0.1,0,0.2,0,0.2,0.1v0.1
						C143.2,38.6,143.2,38.8,143.1,38.9z"/>
					<path class="st15" d="M144.2,39.2l-0.5,0.2c-0.1,0-0.2,0-0.2-0.1v-0.1c0-0.1,0-0.2,0.1-0.2l0.5-0.2c0.1,0,0.2,0,0.2,0.1V39
						C144.4,39.1,144.3,39.2,144.2,39.2z"/>
					<path class="st15" d="M144.6,40.4l-0.5,0.2c-0.1,0-0.2,0-0.2-0.1v-0.1c0-0.1,0-0.2,0.1-0.2l0.5-0.2c0.1,0,0.2,0,0.2,0.1v0.1
						C144.7,40.1,144.7,40.3,144.6,40.4z"/>
					<path class="st15" d="M143.8,38l-0.5,0.2c-0.1,0-0.2,0-0.2-0.1V38c0-0.1,0-0.2,0.1-0.2l0.5-0.2c0.1,0,0.2,0,0.2,0.1v0.1
						C144,37.9,143.9,38,143.8,38z"/>
					<path class="st15" d="M144.7,38.3l-0.5,0.2c-0.1,0-0.2,0-0.2-0.1v-0.1c0-0.1,0-0.2,0.1-0.2l0.5-0.2c0.1,0,0.2,0,0.2,0.1v0.1
						C145,38.1,144.9,38.2,144.7,38.3z"/>
					<path class="st15" d="M145.3,39.3l-0.5,0.2c-0.1,0-0.2,0-0.2-0.1v-0.1c0-0.1,0-0.2,0.1-0.2l0.5-0.2c0.1,0,0.2,0,0.2,0.1v0.1
						C145.5,39.2,145.4,39.3,145.3,39.3z"/>
					<path class="st15" d="M143.5,40l-0.5,0.2c-0.1,0-0.2,0-0.2-0.1V40c0-0.1,0-0.2,0.1-0.2l0.5-0.2c0.1,0,0.2,0,0.2,0.1v0.1
						C143.6,39.8,143.6,39.9,143.5,40z"/>
					<path class="st15" d="M145.1,41.4l-0.5,0.2c-0.1,0-0.2,0-0.2-0.1v-0.1c0-0.1,0-0.2,0.1-0.2L145,41c0.1,0,0.2,0,0.2,0.1v0.1
						C145.2,41.3,145.2,41.4,145.1,41.4z"/>
					<path class="st15" d="M145.7,40.5l-0.5,0.2c-0.1,0-0.2,0-0.2-0.1v-0.1c0-0.1,0-0.2,0.1-0.2l0.5-0.2c0.1,0,0.2,0,0.2,0.1v0.1
						C145.9,40.3,145.8,40.4,145.7,40.5z"/>
					<path class="st15" d="M143.9,41.1l-0.5,0.2c-0.1,0-0.2,0-0.2-0.1v-0.1c0-0.1,0-0.2,0.1-0.2l0.5-0.2c0.1,0,0.2,0,0.2,0.1v0.1
						C144,41,144,41.1,143.9,41.1z"/>
					<path class="st15" d="M145.5,42.6l-0.5,0.2c-0.1,0-0.2,0-0.2-0.1v-0.1c0-0.1,0-0.2,0.1-0.2l0.5-0.2c0.1,0,0.2,0,0.2,0.1v0.1
						C145.7,42.5,145.6,42.6,145.5,42.6z"/>
					<path class="st15" d="M146.1,41.6l-0.5,0.2c-0.1,0-0.2,0-0.2-0.1v-0.1c0-0.1,0-0.2,0.1-0.2l0.5-0.2c0.1,0,0.2,0,0.2,0.1v0.1
						C146.4,41.5,146.2,41.6,146.1,41.6z"/>
					<path class="st15" d="M144.3,42.4l-0.5,0.2c-0.1,0-0.2,0-0.2-0.1v-0.1c0-0.1,0-0.2,0.1-0.2l0.5-0.2c0.1,0,0.2,0,0.2,0.1v0.1
						C144.5,42.2,144.4,42.3,144.3,42.4z"/>
					<path class="st15" d="M146,43.9l-0.5,0.2c-0.1,0-0.2,0-0.2-0.1v-0.1c0-0.1,0-0.2,0.1-0.2l0.5-0.2c0.1,0,0.2,0,0.2,0.1v0.1
						C146.1,43.8,146,43.9,146,43.9z"/>
					<path class="st15" d="M146.7,42.9l-0.5,0.2c-0.1,0-0.2,0-0.2-0.1v-0.1c0-0.1,0-0.2,0.1-0.2l0.5-0.2c0.1,0,0.2,0,0.2,0.1v0.1
						C146.8,42.8,146.8,42.9,146.7,42.9z"/>
					<path class="st16" d="M146.9,42.2l-0.5,0.2c-0.1,0-0.2,0-0.2-0.1v-0.1c0-0.1,0-0.2,0.1-0.2l0.5-0.2c0.1,0,0.2,0,0.2,0.1V42
						C147.1,42,147,42.1,146.9,42.2z"/>
					<path class="st16" d="M146.5,40.9l-0.5,0.2c-0.1,0-0.2,0-0.2-0.1v-0.1c0-0.1,0-0.2,0.1-0.2l0.5-0.2c0.1,0,0.2,0,0.2,0.1v0.1
						C146.6,40.8,146.6,40.9,146.5,40.9z"/>
					<path class="st16" d="M145.8,39.8l-0.5,0.2c-0.1,0-0.2,0-0.2-0.1v-0.1c0-0.1,0-0.2,0.1-0.2l0.5-0.2c0.1,0,0.2,0,0.2,0.1v0.1
						C145.9,39.6,145.9,39.7,145.8,39.8z"/>
					<path class="st16" d="M144.4,39.7l-0.5,0.2c-0.1,0-0.2,0-0.2-0.1v-0.1c0-0.1,0-0.2,0.1-0.2l0.5-0.2c0.1,0,0.2,0,0.2,0.1v0.1
						C144.5,39.6,144.5,39.7,144.4,39.7z"/>
					<path class="st16" d="M145.2,38.8l-0.5,0.2c-0.1,0-0.2,0-0.2-0.1v-0.1c0-0.1,0-0.2,0.1-0.2l0.5-0.2c0.1,0,0.2,0,0.2,0.1v0.1
						C145.3,38.6,145.3,38.8,145.2,38.8z"/>
					<path class="st16" d="M143.2,39.5l-0.5,0.2c-0.1,0-0.2,0-0.2-0.1v-0.1c0-0.1,0-0.2,0.1-0.2l0.5-0.2c0.1,0,0.2,0,0.2,0.1v0.1
						C143.5,39.3,143.4,39.4,143.2,39.5z"/>
					<path class="st16" d="M144,38.6l-0.5,0.2c-0.1,0-0.2,0-0.2-0.1v-0.1c0-0.1,0-0.2,0.1-0.2l0.5-0.2c0.1,0,0.2,0,0.2,0.1v0.1
						C144.2,38.5,144.1,38.6,144,38.6z"/>
					<path class="st16" d="M143.6,37.5l-0.5,0.2c-0.1,0-0.2,0-0.2-0.1v-0.1c0-0.1,0-0.2,0.1-0.2l0.5-0.2c0.1,0,0.2,0,0.2,0.1v0.1
						C143.7,37.4,143.7,37.5,143.6,37.5z"/>
					<path class="st16" d="M143.5,40.7l-0.5,0.2c-0.1,0-0.2,0-0.2-0.1v-0.1c0-0.1,0-0.2,0.1-0.2l0.5-0.2c0.1,0,0.2,0,0.2,0.1v0.1
						C143.7,40.5,143.6,40.6,143.5,40.7z"/>
					<path class="st16" d="M144.9,40.9l-0.5,0.2c-0.1,0-0.2,0-0.2-0.1v-0.1c0-0.1,0-0.2,0.1-0.2l0.5-0.2c0.1,0,0.2,0,0.2,0.1v0.1
						C145,40.7,145,40.8,144.9,40.9z"/>
					<path class="st16" d="M143.8,41.9l-0.5,0.2c-0.1,0-0.2,0-0.2-0.1v-0.1c0-0.1,0-0.2,0.1-0.2l0.5-0.2c0.1,0,0.2,0,0.2,0.1v0.1
						C144,41.8,143.9,41.9,143.8,41.9z"/>
					<path class="st16" d="M145.3,42.1l-0.5,0.2c-0.1,0-0.2,0-0.2-0.1v-0.1c0-0.1,0-0.2,0.1-0.2l0.5-0.2c0.1,0,0.2,0,0.2,0.1v0.1
						C145.5,42,145.4,42.1,145.3,42.1z"/>
					<path class="st16" d="M144.1,43.1l-0.5,0.2c-0.1,0-0.2,0-0.2-0.1v-0.1c0-0.1,0-0.2,0.1-0.2l0.5-0.2c0.1,0,0.2,0,0.2,0.1v0.1
						C144.3,43,144.2,43.1,144.1,43.1z"/>
					<path class="st16" d="M145.7,43.3l-0.5,0.2c-0.1,0-0.2,0-0.2-0.1v-0.1c0-0.1,0-0.2,0.1-0.2l0.5-0.2c0.1,0,0.2,0,0.2,0.1V43
						C145.9,43.1,145.8,43.3,145.7,43.3z"/>
					<path class="st16" d="M147.3,43.3l-0.5,0.2c-0.1,0-0.2,0-0.2-0.1v-0.1c0-0.1,0-0.2,0.1-0.2l0.5-0.2c0.1,0,0.2,0,0.2,0.1V43
						C147.5,43.1,147.4,43.3,147.3,43.3z"/>
					<path class="st16" d="M147.7,44.5l-0.5,0.2c-0.1,0-0.2,0-0.2-0.1v-0.1c0-0.1,0-0.2,0.1-0.2l0.5-0.2c0.1,0,0.2,0,0.2,0.1v0.1
						C147.9,44.4,147.9,44.5,147.7,44.5z"/>
					<path class="st16" d="M148.1,45.7l-0.5,0.2c-0.1,0-0.2,0-0.2-0.1v-0.1c0-0.1,0-0.2,0.1-0.2l0.5-0.2c0.1,0,0.2,0,0.2,0.1v0.1
						C148.2,45.6,148.2,45.7,148.1,45.7z"/>
					<path class="st16" d="M148.3,46.9l-0.5,0.2c-0.1,0-0.2,0-0.2-0.1v-0.1c0-0.1,0-0.2,0.1-0.2l0.5-0.2c0.1,0,0.2,0,0.2,0.1v0.1
						C148.5,46.8,148.4,46.9,148.3,46.9z"/>
					<path class="st16" d="M148.7,48.2l-0.5,0.2c-0.1,0-0.2,0-0.2-0.1v-0.1c0-0.1,0-0.2,0.1-0.2l0.5-0.2c0.1,0,0.2,0,0.2,0.1V48
						C148.8,48,148.7,48.1,148.7,48.2z"/>
					<path class="st16" d="M148.9,49.4l-0.4,0.1c-0.1,0-0.2,0-0.2-0.1v-0.1c0-0.1,0-0.2,0.1-0.2l0.4-0.1c0.1,0,0.2,0,0.2,0.1v0.1
						C149,49.3,149,49.4,148.9,49.4z"/>
					<path class="st16" d="M147.2,50l-0.4,0.1c-0.1,0-0.2,0-0.2-0.1v-0.1c0-0.1,0-0.2,0.1-0.2l0.4-0.1c0.1,0,0.2,0,0.2,0.1v0.1
						C147.3,49.8,147.3,49.9,147.2,50z"/>
					<path class="st16" d="M146.7,48.9l-0.5,0.2c-0.1,0-0.2,0-0.2-0.1v-0.1c0-0.1,0-0.2,0.1-0.2l0.5-0.2c0.1,0,0.2,0,0.2,0.1v0.1
						C146.8,48.7,146.8,48.8,146.7,48.9z"/>
					<path class="st16" d="M146,47.9l-0.5,0.2c-0.1,0-0.2,0-0.2-0.1v-0.1c0-0.1,0-0.2,0.1-0.2l0.5-0.2c0.1,0,0.2,0,0.2,0.1v0.1
						C146.1,47.8,146.1,47.9,146,47.9z"/>
					<path class="st16" d="M145.5,46.7l-0.5,0.2c-0.1,0-0.2,0-0.2-0.1v-0.1c0-0.1,0-0.2,0.1-0.2l0.5-0.2c0.1,0,0.2,0,0.2,0.1v0.1
						C145.6,46.6,145.6,46.7,145.5,46.7z"/>
					<path class="st16" d="M145,45.6l-0.5,0.2c-0.1,0-0.2,0-0.2-0.1v-0.1c0-0.1,0-0.2,0.1-0.2l0.5-0.2c0.1,0,0.2,0,0.2,0.1v0.1
						C145.1,45.4,145.1,45.5,145,45.6z"/>
					<path class="st16" d="M146.2,44.5l-0.5,0.2c-0.1,0-0.2,0-0.2-0.1v-0.1c0-0.1,0-0.2,0.1-0.2l0.5-0.2c0.1,0,0.2,0,0.2,0.1v0.1
						C146.4,44.3,146.2,44.4,146.2,44.5z"/>
					<path class="st16" d="M146.6,45.6l-0.5,0.2c-0.1,0-0.2,0-0.2-0.1v-0.1c0-0.1,0-0.2,0.1-0.2l0.5-0.2c0.1,0,0.2,0,0.2,0.1v0.1
						C146.8,45.5,146.7,45.6,146.6,45.6z"/>
					<path class="st16" d="M147.1,46.9l-0.5,0.2c-0.1,0-0.2,0-0.2-0.1v-0.1c0-0.1,0-0.2,0.1-0.2l0.5-0.2c0.1,0,0.2,0,0.2,0.1v0.1
						C147.2,46.7,147.2,46.8,147.1,46.9z"/>
					<path class="st16" d="M147.5,48l-0.5,0.2c-0.1,0-0.2,0-0.2-0.1V48c0-0.1,0-0.2,0.1-0.2l0.5-0.2c0.1,0,0.2,0,0.2,0.1v0.1
						C147.6,47.9,147.5,48,147.5,48z"/>
					<path class="st16" d="M148,49.1l-0.5,0.2c-0.1,0-0.2,0-0.2-0.1v-0.1c0-0.1,0-0.2,0.1-0.2l0.5-0.2c0.1,0,0.2,0,0.2,0.1v0.1
						C148.1,49,148,49.1,148,49.1z"/>
					<path class="st16" d="M148.3,50.2l-0.5,0.2c-0.1,0-0.2,0-0.2-0.1v-0.1c0-0.1,0-0.2,0.1-0.2l0.5-0.2c0.1,0,0.2,0,0.2,0.1V50
						C148.5,50.1,148.4,50.2,148.3,50.2z"/>
					<path class="st16" d="M144.5,44.2l-0.5,0.2c-0.1,0-0.2,0-0.2-0.1v-0.1c0-0.1,0-0.2,0.1-0.2l0.5-0.2c0.1,0,0.2,0,0.2,0.1V44
						C144.6,44.1,144.6,44.2,144.5,44.2z"/>
					<path class="st15" d="M144.9,43.6l-0.5,0.2c-0.1,0-0.2,0-0.2-0.1v-0.1c0-0.1,0-0.2,0.1-0.2l0.5-0.2c0.1,0,0.2,0,0.2,0.1v0.1
						C145,43.5,144.9,43.6,144.9,43.6z"/>
					<path class="st15" d="M146.4,45.1l-0.5,0.2c-0.1,0-0.2,0-0.2-0.1v-0.1c0-0.1,0-0.2,0.1-0.2l0.5-0.2c0.1,0,0.2,0,0.2,0.1v0.1
						C146.6,44.9,146.5,45,146.4,45.1z"/>
					<path class="st15" d="M147.1,44l-0.5,0.2c-0.1,0-0.2,0-0.2-0.1V44c0-0.1,0-0.2,0.1-0.2l0.5-0.2c0.1,0,0.2,0,0.2,0.1v0.1
						C147.2,43.9,147.2,44,147.1,44z"/>
					<path class="st15" d="M145.2,44.8l-0.5,0.2c-0.1,0-0.2,0-0.2-0.1v-0.1c0-0.1,0-0.2,0.1-0.2l0.5-0.2c0.1,0,0.2,0,0.2,0.1v0.1
						C145.4,44.5,145.3,44.6,145.2,44.8z"/>
					<path class="st15" d="M146.9,46.3l-0.5,0.2c-0.1,0-0.2,0-0.2-0.1v-0.1c0-0.1,0-0.2,0.1-0.2l0.5-0.2c0.1,0,0.2,0,0.2,0.1V46
						C147,46.1,147,46.3,146.9,46.3z"/>
					<path class="st15" d="M147.5,45.3l-0.5,0.2c-0.1,0-0.2,0-0.2-0.1v-0.1c0-0.1,0-0.2,0.1-0.2l0.5-0.2c0.1,0,0.2,0,0.2,0.1v0.1
						C147.6,45.2,147.6,45.3,147.5,45.3z"/>
					<path class="st15" d="M145.7,46l-0.5,0.2c-0.1,0-0.2,0-0.2-0.1V46c0-0.1,0-0.2,0.1-0.2l0.5-0.2c0.1,0,0.2,0,0.2,0.1v0.1
						C145.8,45.8,145.8,45.9,145.7,46z"/>
					<path class="st15" d="M147.3,47.4l-0.5,0.2c-0.1,0-0.2,0-0.2-0.1v-0.1c0-0.1,0-0.2,0.1-0.2l0.5-0.2c0.1,0,0.2,0,0.2,0.1v0.1
						C147.4,47.2,147.3,47.3,147.3,47.4z"/>
					<path class="st15" d="M148,46.5l-0.5,0.2c-0.1,0-0.2,0-0.2-0.1v-0.1c0-0.1,0-0.2,0.1-0.2l0.5-0.2c0.1,0,0.2,0,0.2,0.1v0.1
						C148.1,46.3,148.1,46.4,148,46.5z"/>
					<path class="st15" d="M146.1,47.1l-0.5,0.2c-0.1,0-0.2,0-0.2-0.1v-0.1c0-0.1,0-0.2,0.1-0.2l0.5-0.2c0.1,0,0.2,0,0.2,0.1v0.1
						C146.2,47,146.1,47.1,146.1,47.1z"/>
					<path class="st15" d="M147.7,48.6l-0.5,0.2c-0.1,0-0.2,0-0.2-0.1v-0.1c0-0.1,0-0.2,0.1-0.2l0.5-0.2c0.1,0,0.2,0,0.2,0.1v0.1
						C147.9,48.4,147.7,48.5,147.7,48.6z"/>
					<path class="st15" d="M148.4,47.5l-0.5,0.2c-0.1,0-0.2,0-0.2-0.1v-0.1c0-0.1,0-0.2,0.1-0.2l0.5-0.2c0.1,0,0.2,0,0.2,0.1v0.1
						C148.5,47.4,148.5,47.5,148.4,47.5z"/>
					<path class="st15" d="M146.6,48.3l-0.5,0.2c-0.1,0-0.2,0-0.2-0.1v-0.1c0-0.1,0-0.2,0.1-0.2l0.5-0.2c0.1,0,0.2,0,0.2,0.1v0.1
						C146.7,48.1,146.6,48.3,146.6,48.3z"/>
					<path class="st15" d="M148.1,49.7l-0.5,0.2c-0.1,0-0.2,0-0.2-0.1v-0.1c0-0.1,0-0.2,0.1-0.2l0.5-0.2c0.1,0,0.2,0,0.2,0.1v0.1
						C148.3,49.6,148.2,49.7,148.1,49.7z"/>
					<path class="st15" d="M148.5,50.8L148,51c-0.1,0-0.2,0-0.2-0.1v-0.1c0-0.1,0-0.2,0.1-0.2l0.5-0.2c0.1,0,0.2,0,0.2,0.1v0.1
						C148.6,50.6,148.6,50.8,148.5,50.8z"/>
					<path class="st15" d="M148.8,48.7l-0.5,0.2c-0.1,0-0.2,0-0.2-0.1v-0.1c0-0.1,0-0.2,0.1-0.2l0.5-0.2c0.1,0,0.2,0,0.2,0.1v0.1
						C148.9,48.5,148.9,48.7,148.8,48.7z"/>
					<path class="st15" d="M146.9,49.4l-0.5,0.2c-0.1,0-0.2,0-0.2-0.1v-0.1c0-0.1,0-0.2,0.1-0.2l0.5-0.2c0.1,0,0.2,0,0.2,0.1v0.1
						C147.1,49.3,147,49.4,146.9,49.4z"/>
				</g>
				<path class="st17" d="M141.7,42.6c3.4,4.1,5.8,4.3,6.6,8.6C147,51.9,142.1,50.4,141.7,42.6z"/>
				<path class="st13" d="M150.5,56.4c1.8,3.3,6-4.5,6-4.5S148.6,53.1,150.5,56.4z"/>
			</g>
			<g>
				<path class="st17" d="M150.3,58.1c0-1.4,1-2.2,2-3.3c1.1-1,2.2-2.1,2.9-4.1l0.5,0.2c-0.7,2-2,3.2-3.1,4.3
					c-1.1,1-1.8,1.8-1.8,2.9L150.3,58.1z"/>
				<path class="st13" d="M159.5,46c-2.2,2.5-3.7,2.6-4.4,5.1C156.1,51.7,159.1,50.9,159.5,46z"/>
				<g>
					<path class="st14" d="M158.9,45.7c-1,3.3-2.6,5.8-3.5,5.5c-1-0.3-1-3.2,0.1-6.5c1-3.3,2.6-5.8,3.5-5.5S159.9,42.4,158.9,45.7z"
						/>
					<path class="st15" d="M158,40.7l-0.4-0.1c-0.1,0-0.1-0.1-0.1-0.2v-0.1c0-0.1,0.1-0.1,0.2-0.1l0.4,0.1c0.1,0,0.1,0.1,0.1,0.2
						v0.1C158.1,40.6,158.1,40.7,158,40.7z"/>
					<path class="st15" d="M158.6,41.4l-0.4-0.1c-0.1,0-0.1-0.1-0.1-0.2V41c0-0.1,0.1-0.1,0.2-0.1l0.4,0.1c0.1,0,0.1,0.1,0.1,0.2
						v0.1C158.7,41.4,158.6,41.4,158.6,41.4z"/>
					<path class="st15" d="M158.2,42.4l-0.4-0.1c-0.1,0-0.1-0.1-0.1-0.2V42c0-0.1,0.1-0.1,0.2-0.1l0.4,0.1c0.1,0,0.1,0.1,0.1,0.2
						v0.1C158.5,42.3,158.4,42.4,158.2,42.4z"/>
					<path class="st15" d="M158.8,40.5l-0.4-0.1c-0.1,0-0.1-0.1-0.1-0.2V40c0-0.1,0.1-0.1,0.2-0.1l0.4,0.1c0.1,0,0.1,0.1,0.1,0.2
						v0.1C159,40.5,158.9,40.5,158.8,40.5z"/>
					<path class="st15" d="M159.3,41.1l-0.4-0.1c-0.1,0-0.1-0.1-0.1-0.2v-0.1c0-0.1,0.1-0.1,0.2-0.1l0.4,0.1c0.1,0,0.1,0.1,0.1,0.2
						V41C159.5,41.1,159.4,41.1,159.3,41.1z"/>
					<path class="st15" d="M159.2,42.1l-0.4-0.1c-0.1,0-0.1-0.1-0.1-0.2v-0.1c0-0.1,0.1-0.1,0.2-0.1l0.4,0.1c0.1,0,0.1,0.1,0.1,0.2
						V42C159.3,42,159.2,42.1,159.2,42.1z"/>
					<path class="st15" d="M157.6,41.5l-0.4-0.1c-0.1,0-0.1-0.1-0.1-0.2v-0.1c0-0.1,0.1-0.1,0.2-0.1l0.4,0.1c0.1,0,0.1,0.1,0.1,0.2
						v0.1C157.8,41.5,157.7,41.6,157.6,41.5z"/>
					<path class="st15" d="M158,43.3l-0.4-0.1c-0.1,0-0.1-0.1-0.1-0.2v-0.1c0-0.1,0.1-0.1,0.2-0.1l0.4,0.1c0.1,0,0.1,0.1,0.1,0.2
						v0.1C158.1,43.3,158,43.4,158,43.3z"/>
					<path class="st15" d="M158.9,42.9l-0.4-0.1c-0.1,0-0.1-0.1-0.1-0.2v-0.1c0-0.1,0.1-0.1,0.2-0.1l0.4,0.1c0.1,0,0.1,0.1,0.1,0.2
						v0.1C159.1,42.9,159,43,158.9,42.9z"/>
					<path class="st15" d="M157.4,42.5l-0.4-0.1c-0.1,0-0.1-0.1-0.1-0.2v-0.1c0-0.1,0.1-0.1,0.2-0.1l0.4,0.1c0.1,0,0.1,0.1,0.1,0.2
						v0.1C157.5,42.5,157.5,42.5,157.4,42.5z"/>
					<path class="st15" d="M157.7,44.3l-0.4-0.1c-0.1,0-0.1-0.1-0.1-0.2v-0.1c0-0.1,0.1-0.1,0.2-0.1l0.4,0.1c0.1,0,0.1,0.1,0.1,0.2
						v0.1C157.8,44.3,157.7,44.3,157.7,44.3z"/>
					<path class="st15" d="M158.6,44l-0.4-0.1c-0.1,0-0.1-0.1-0.1-0.2v-0.1c0-0.1,0.1-0.1,0.2-0.1l0.4,0.1c0.1,0,0.1,0.1,0.1,0.2
						v0.1C158.8,44,158.7,44,158.6,44z"/>
					<path class="st15" d="M157.1,43.6l-0.4-0.1c-0.1,0-0.1-0.1-0.1-0.2v-0.1c0-0.1,0.1-0.1,0.2-0.1l0.4,0.1c0.1,0,0.1,0.1,0.1,0.2
						v0.1C157.2,43.5,157.2,43.6,157.1,43.6z"/>
					<path class="st15" d="M157.4,45.4l-0.4-0.1c-0.1,0-0.1-0.1-0.1-0.2V45c0-0.1,0.1-0.1,0.2-0.1l0.4,0.1c0.1,0,0.1,0.1,0.1,0.2
						v0.1C157.5,45.3,157.5,45.4,157.4,45.4z"/>
					<path class="st15" d="M158.2,45.1l-0.4-0.1c-0.1,0-0.1-0.1-0.1-0.2v-0.1c0-0.1,0.1-0.1,0.2-0.1l0.4,0.1c0.1,0,0.1,0.1,0.1,0.2
						V45C158.5,45.1,158.4,45.1,158.2,45.1z"/>
					<path class="st16" d="M158.9,44.6l-0.4-0.1c-0.1,0-0.1-0.1-0.1-0.2v-0.1c0-0.1,0.1-0.1,0.2-0.1l0.4,0.1c0.1,0,0.1,0.1,0.1,0.2
						v0.1C159,44.6,158.9,44.6,158.9,44.6z"/>
					<path class="st16" d="M159.2,43.7l-0.4-0.1c-0.1,0-0.1-0.1-0.1-0.2v-0.1c0-0.1,0.1-0.1,0.2-0.1l0.4,0.1c0.1,0,0.1,0.1,0.1,0.2
						v0.1C159.3,43.6,159.2,43.7,159.2,43.7z"/>
					<path class="st16" d="M159.3,42.6l-0.4-0.1c-0.1,0-0.1-0.1-0.1-0.2v-0.1c0-0.1,0.1-0.1,0.2-0.1l0.4,0.1c0.1,0,0.1,0.1,0.1,0.2
						v0.1C159.4,42.5,159.3,42.6,159.3,42.6z"/>
					<path class="st16" d="M158.4,41.9l-0.4-0.1c-0.1,0-0.1-0.1-0.1-0.2v-0.1c0-0.1,0.1-0.1,0.2-0.1l0.4,0.1c0.1,0,0.1,0.1,0.1,0.2
						v0.1C158.6,41.9,158.5,42,158.4,41.9z"/>
					<path class="st16" d="M159.3,41.6l-0.4-0.1c-0.1,0-0.1-0.1-0.1-0.2v-0.1c0-0.1,0.1-0.1,0.2-0.1l0.4,0.1c0.1,0,0.1,0.1,0.1,0.2
						v0.1C159.5,41.5,159.4,41.6,159.3,41.6z"/>
					<path class="st16" d="M157.8,41.1l-0.4-0.1c-0.1,0-0.1-0.1-0.1-0.2v-0.1c0-0.1,0.1-0.1,0.2-0.1l0.4,0.1c0.1,0,0.1,0.1,0.1,0.2
						V41C157.9,41.1,157.8,41.1,157.8,41.1z"/>
					<path class="st16" d="M158.7,41l-0.4-0.1c-0.1,0-0.1-0.1-0.1-0.2v-0.1c0-0.1,0.1-0.1,0.2-0.1l0.4,0.1c0.1,0,0.1,0.1,0.1,0.2
						v0.1C158.9,40.9,158.8,41,158.7,41z"/>
					<path class="st16" d="M159,39.9l-0.4-0.1c-0.1,0-0.1-0.1-0.1-0.2v-0.1c0-0.1,0.1-0.1,0.2-0.1l0.4,0.1c0.1,0,0.1,0.1,0.1,0.2
						v0.1C159.1,39.9,159,40,159,39.9z"/>
					<path class="st16" d="M157.4,42l-0.4-0.1c-0.1,0-0.1-0.1-0.1-0.2v-0.1c0-0.1,0.1-0.1,0.2-0.1l0.4,0.1c0.1,0,0.1,0.1,0.1,0.2
						v0.1C157.5,42,157.4,42.1,157.4,42z"/>
					<path class="st16" d="M158.1,42.8l-0.4-0.1c-0.1,0-0.1-0.1-0.1-0.2v-0.1c0-0.1,0.1-0.1,0.2-0.1l0.4,0.1c0.1,0,0.1,0.1,0.1,0.2
						v0.1C158.2,42.8,158.2,42.8,158.1,42.8z"/>
					<path class="st16" d="M157,42.9l-0.4-0.1c-0.1,0-0.1-0.1-0.1-0.2v-0.1c0-0.1,0.1-0.1,0.2-0.1l0.4,0.1c0.1,0,0.1,0.1,0.1,0.2
						v0.1C157.1,42.9,157.1,43,157,42.9z"/>
					<path class="st16" d="M157.8,43.8l-0.4-0.1c-0.1,0-0.1-0.1-0.1-0.2v-0.1c0-0.1,0.1-0.1,0.2-0.1l0.4,0.1c0.1,0,0.1,0.1,0.1,0.2
						v0.1C158,43.8,157.9,43.9,157.8,43.8z"/>
					<path class="st16" d="M156.5,44l-0.4-0.1c-0.1,0-0.1-0.1-0.1-0.2v-0.1c0-0.1,0.1-0.1,0.2-0.1l0.4,0.1c0.1,0,0.1,0.1,0.1,0.2
						v0.1C156.7,44,156.6,44,156.5,44z"/>
					<path class="st16" d="M157.5,44.9l-0.4-0.1c-0.1,0-0.1-0.1-0.1-0.2v-0.1c0-0.1,0.1-0.1,0.2-0.1l0.4,0.1c0.1,0,0.1,0.1,0.1,0.2
						v0.1C157.7,44.8,157.6,44.9,157.5,44.9z"/>
					<path class="st16" d="M158.6,45.6l-0.4-0.1c-0.1,0-0.1-0.1-0.1-0.2v-0.1c0-0.1,0.1-0.1,0.2-0.1l0.4,0.1c0.1,0,0.1,0.1,0.1,0.2
						v0.1C158.8,45.6,158.7,45.6,158.6,45.6z"/>
					<path class="st16" d="M158.2,46.6l-0.4-0.1c-0.1,0-0.1-0.1-0.1-0.2v-0.1c0-0.1,0.1-0.1,0.2-0.1l0.4,0.1c0.1,0,0.1,0.1,0.1,0.2
						v0.1C158.4,46.6,158.2,46.7,158.2,46.6z"/>
					<path class="st16" d="M157.8,47.5l-0.4-0.1c-0.1,0-0.1-0.1-0.1-0.2v-0.1c0-0.1,0.1-0.1,0.2-0.1l0.4,0.1c0.1,0,0.1,0.1,0.1,0.2
						v0.1C157.9,47.5,157.9,47.6,157.8,47.5z"/>
					<path class="st16" d="M157.4,48.5l-0.4-0.1c-0.1,0-0.1-0.1-0.1-0.2v-0.1c0-0.1,0.1-0.1,0.2-0.1l0.4,0.1c0.1,0,0.1,0.1,0.1,0.2
						v0.1C157.6,48.4,157.5,48.5,157.4,48.5z"/>
					<path class="st16" d="M157.1,49.5l-0.4-0.1c-0.1,0-0.1-0.1-0.1-0.2V49c0-0.1,0.1-0.1,0.2-0.1l0.4,0.1c0.1,0,0.1,0.1,0.1,0.2
						v0.1C157.2,49.4,157.2,49.5,157.1,49.5z"/>
					<path class="st16" d="M156.6,50.3l-0.3-0.1c-0.1,0-0.1-0.1-0.1-0.2v-0.1c0-0.1,0.1-0.1,0.2-0.1l0.3,0.1c0.1,0,0.1,0.1,0.1,0.2
						v0.1C156.7,50.3,156.6,50.3,156.6,50.3z"/>
					<path class="st16" d="M155.2,49.9l-0.3-0.1c-0.1,0-0.1-0.1-0.1-0.2v-0.1c0-0.1,0.1-0.1,0.2-0.1l0.3,0.1c0.1,0,0.1,0.1,0.1,0.2
						v0.1C155.4,49.9,155.2,50,155.2,49.9z"/>
					<path class="st16" d="M155.4,48.9l-0.4-0.1c-0.1,0-0.1-0.1-0.1-0.2v-0.1c0-0.1,0.1-0.1,0.2-0.1l0.4,0.1c0.1,0,0.1,0.1,0.1,0.2
						v0.1C155.6,48.9,155.5,48.9,155.4,48.9z"/>
					<path class="st16" d="M155.5,48l-0.4-0.1c-0.1,0-0.1-0.1-0.1-0.2v-0.1c0-0.1,0.1-0.1,0.2-0.1l0.4,0.1c0.1,0,0.1,0.1,0.1,0.2
						v0.1C155.7,48,155.6,48,155.5,48z"/>
					<path class="st16" d="M155.7,46.9l-0.4-0.1c-0.1,0-0.1-0.1-0.1-0.2v-0.1c0-0.1,0.1-0.1,0.2-0.1l0.4,0.1c0.1,0,0.1,0.1,0.1,0.2
						v0.1C155.8,46.9,155.8,47,155.7,46.9z"/>
					<path class="st16" d="M155.9,45.9l-0.4-0.1c-0.1,0-0.1-0.1-0.1-0.2v-0.1c0-0.1,0.1-0.1,0.2-0.1l0.4,0.1c0.1,0,0.1,0.1,0.1,0.2
						v0.1C156,45.9,156,45.9,155.9,45.9z"/>
					<path class="st16" d="M157.2,45.8l-0.4-0.1c-0.1,0-0.1-0.1-0.1-0.2v-0.1c0-0.1,0.1-0.1,0.2-0.1l0.4,0.1c0.1,0,0.1,0.1,0.1,0.2
						v0.1C157.4,45.8,157.3,45.8,157.2,45.8z"/>
					<path class="st16" d="M157,46.8l-0.4-0.1c-0.1,0-0.1-0.1-0.1-0.2v-0.1c0-0.1,0.1-0.1,0.2-0.1l0.4,0.1c0.1,0,0.1,0.1,0.1,0.2
						v0.1C157.1,46.8,157.1,46.8,157,46.8z"/>
					<path class="st16" d="M156.6,47.9l-0.4-0.1c-0.1,0-0.1-0.1-0.1-0.2v-0.1c0-0.1,0.1-0.1,0.2-0.1l0.4,0.1c0.1,0,0.1,0.1,0.1,0.2
						v0.1C156.7,47.8,156.7,47.9,156.6,47.9z"/>
					<path class="st16" d="M156.3,48.7l-0.4-0.1c-0.1,0-0.1-0.1-0.1-0.2v-0.1c0-0.1,0.1-0.1,0.2-0.1l0.4,0.1c0.1,0,0.1,0.1,0.1,0.2
						v0.1C156.5,48.7,156.4,48.8,156.3,48.7z"/>
					<path class="st16" d="M156.1,49.7l-0.4-0.1c-0.1,0-0.1-0.1-0.1-0.2v-0.1c0-0.1,0.1-0.1,0.2-0.1l0.4,0.1c0.1,0,0.1,0.1,0.1,0.2
						v0.1C156.2,49.7,156.1,49.8,156.1,49.7z"/>
					<path class="st16" d="M155.8,50.6l-0.4-0.1c-0.1,0-0.1-0.1-0.1-0.2v-0.1c0-0.1,0.1-0.1,0.2-0.1l0.4,0.1c0.1,0,0.1,0.1,0.1,0.2
						v0.1C156,50.6,155.9,50.6,155.8,50.6z"/>
					<path class="st16" d="M156.3,44.9l-0.4-0.1c-0.1,0-0.1-0.1-0.1-0.2v-0.1c0-0.1,0.1-0.1,0.2-0.1l0.4,0.1c0.1,0,0.1,0.1,0.1,0.2
						v0.1C156.4,44.9,156.3,44.9,156.3,44.9z"/>
					<path class="st15" d="M156.7,44.5l-0.4-0.1c-0.1,0-0.1-0.1-0.1-0.2v-0.1c0-0.1,0.1-0.1,0.2-0.1l0.4,0.1c0.1,0,0.1,0.1,0.1,0.2
						v0.1C157,44.5,156.9,44.6,156.7,44.5z"/>
					<path class="st15" d="M157.1,46.3l-0.4-0.1c-0.1,0-0.1-0.1-0.1-0.2v-0.1c0-0.1,0.1-0.1,0.2-0.1l0.4,0.1c0.1,0,0.1,0.1,0.1,0.2
						v0.1C157.3,46.3,157.2,46.4,157.1,46.3z"/>
					<path class="st15" d="M158,45.9l-0.4-0.1c-0.1,0-0.1-0.1-0.1-0.2v-0.1c0-0.1,0.1-0.1,0.2-0.1l0.4,0.1c0.1,0,0.1,0.1,0.1,0.2
						v0.1C158.1,45.9,158.1,46,158,45.9z"/>
					<path class="st15" d="M156.4,45.5l-0.4-0.1c-0.1,0-0.1-0.1-0.1-0.2v-0.1c0-0.1,0.1-0.1,0.2-0.1l0.4,0.1c0.1,0,0.1,0.1,0.1,0.2
						v0.1C156.6,45.5,156.5,45.5,156.4,45.5z"/>
					<path class="st15" d="M156.7,47.3l-0.4-0.1c-0.1,0-0.1-0.1-0.1-0.2v-0.1c0-0.1,0.1-0.1,0.2-0.1l0.4,0.1c0.1,0,0.1,0.1,0.1,0.2
						v0.1C157,47.3,156.9,47.3,156.7,47.3z"/>
					<path class="st15" d="M157.7,47l-0.4-0.1c-0.1,0-0.1-0.1-0.1-0.2v-0.1c0-0.1,0.1-0.1,0.2-0.1l0.4,0.1c0.1,0,0.1,0.1,0.1,0.2
						v0.1C157.8,47,157.8,47.1,157.7,47z"/>
					<path class="st15" d="M156.1,46.6l-0.4-0.1c-0.1,0-0.1-0.1-0.1-0.2v-0.1c0-0.1,0.1-0.1,0.2-0.1l0.4,0.1c0.1,0,0.1,0.1,0.1,0.2
						v0.1C156.3,46.6,156.2,46.6,156.1,46.6z"/>
					<path class="st15" d="M156.5,48.3l-0.4-0.1c-0.1,0-0.1-0.1-0.1-0.2v-0.1c0-0.1,0.1-0.1,0.2-0.1l0.4,0.1c0.1,0,0.1,0.1,0.1,0.2
						v0.1C156.6,48.3,156.5,48.3,156.5,48.3z"/>
					<path class="st15" d="M157.4,48l-0.4-0.1c-0.1,0-0.1-0.1-0.1-0.2v-0.1c0-0.1,0.1-0.1,0.2-0.1l0.4,0.1c0.1,0,0.1,0.1,0.1,0.2
						v0.1C157.6,48,157.5,48,157.4,48z"/>
					<path class="st15" d="M155.9,47.5l-0.4-0.1c-0.1,0-0.1-0.1-0.1-0.2v-0.1c0-0.1,0.1-0.1,0.2-0.1l0.4,0.1c0.1,0,0.1,0.1,0.1,0.2
						v0.1C156,47.4,156,47.5,155.9,47.5z"/>
					<path class="st15" d="M156.2,49.3l-0.4-0.1c-0.1,0-0.1-0.1-0.1-0.2v-0.1c0-0.1,0.1-0.1,0.2-0.1l0.4,0.1c0.1,0,0.1,0.1,0.1,0.2
						v0.1C156.4,49.3,156.3,49.3,156.2,49.3z"/>
					<path class="st15" d="M157.2,48.9l-0.4-0.1c-0.1,0-0.1-0.1-0.1-0.2v-0.1c0-0.1,0.1-0.1,0.2-0.1l0.4,0.1c0.1,0,0.1,0.1,0.1,0.2
						v0.1C157.3,48.9,157.2,48.9,157.2,48.9z"/>
					<path class="st15" d="M155.6,48.5l-0.4-0.1c-0.1,0-0.1-0.1-0.1-0.2v-0.1c0-0.1,0.1-0.1,0.2-0.1l0.4,0.1c0.1,0,0.1,0.1,0.1,0.2
						v0.1C155.8,48.4,155.7,48.5,155.6,48.5z"/>
					<path class="st15" d="M155.9,50.2l-0.4-0.1c-0.1,0-0.1-0.1-0.1-0.2v-0.1c0-0.1,0.1-0.1,0.2-0.1l0.4,0.1c0.1,0,0.1,0.1,0.1,0.2
						v0.1C156.1,50.1,156,50.2,155.9,50.2z"/>
					<path class="st15" d="M155.7,51.1l-0.4-0.1c-0.1,0-0.1-0.1-0.1-0.2v-0.1c0-0.1,0.1-0.1,0.2-0.1l0.4,0.1c0.1,0,0.1,0.1,0.1,0.2
						V51C155.8,51.1,155.8,51.1,155.7,51.1z"/>
					<path class="st15" d="M156.9,49.9l-0.4-0.1c-0.1,0-0.1-0.1-0.1-0.2v-0.1c0-0.1,0.1-0.1,0.2-0.1l0.4,0.1c0.1,0,0.1,0.1,0.1,0.2
						v0.1C157.1,49.8,157,49.9,156.9,49.9z"/>
					<path class="st15" d="M155.4,49.4l-0.4-0.1c-0.1,0-0.1-0.1-0.1-0.2v-0.1c0-0.1,0.1-0.1,0.2-0.1l0.4,0.1c0.1,0,0.1,0.1,0.1,0.2
						v0.1C155.5,49.4,155.4,49.5,155.4,49.4z"/>
				</g>
				<path class="st17" d="M155.2,42.4c0.2,4.4,1.7,5.7,0.2,8.9C154.1,51.1,151.7,47.6,155.2,42.4z"/>
				<path class="st12" d="M154.3,52.9c1.5-1.3-2.8-2.7-2.8-2.7S152.8,54.2,154.3,52.9z"/>
				<path class="st12" d="M152.9,55c-1.1,1.6,3.4,1.7,3.4,1.7S154.1,53.4,152.9,55z"/>
			</g>
		</g>
		<rect x="114" y="23.8" class="st3" width="71.6" height="1.5"/>
	</g>
	<g>
		<path class="st18" d="M181.5,19.7h-63.4c-2.2,0-4.1,1.8-4.1,4.1l0,0h71.6l0,0C185.6,21.5,183.7,19.7,181.5,19.7z"/>
		<path class="st6" d="M136.4,19.7h-15.6c-3,0-3.2,4.2-3.2,4.2h16.4C134,21.5,136.4,19.7,136.4,19.7z"/>
		<path class="st7" d="M168.1,19.7h9.2c3,0,3.2,4.2,3.2,4.2h-10C170.6,21.5,168.1,19.7,168.1,19.7z"/>
		<path class="st18" d="M159.2,19.7H157v-2.9c0-1.2-1-2.1-2.1-2.1h-10c-1.2,0-2.1,1-2.1,2.1v2.9h-2.4v-2.9c0-2.5,1.9-4.4,4.4-4.4h10
			c2.5,0,4.4,2,4.4,4.4v2.9H159.2z"/>
		<path class="st11" d="M158,19.7h-1.2v-2.9c0-1.2-1-2.1-2.1-2.1h-10c-1.2,0-2.1,1-2.1,2.1v2.9h-1.2v-2.9c0-1.6,1.5-3.2,3.3-3.2h10
			c2.5,0,3.3,1.4,3.3,3.2V19.7z"/>
		<rect x="156.9" y="18.7" class="st11" width="2.2" height="1"/>
		<rect x="140.4" y="18.7" class="st11" width="2.2" height="1"/>
		<path class="st7" d="M144.5,12.5h10.2c2.4,0,4.2,1.8,4.2,4.2v1.8l-0.1-1.8c-0.1-2.1-1.9-3.9-4.1-3.9L144.5,12.5z"/>
	</g>
</g>
<g>
	<g>
		<defs>
			<rect id="SVGID_1_" x="97" y="53.9" width="100.3" height="22.1"/>
		</defs>
		<clipPath id="SVGID_2_">
			<use xlink:href="#SVGID_1_"  style="overflow:visible;"/>
		</clipPath>
		<g class="st19">
			<path class="st20" d="M148,79.2c0,0-14-2,0-19.6C148,59.6,161.2,74.6,148,79.2z"/>
			<path class="st21" d="M147.9,78.5c0,0-9.6-1.4,0-13.5C147.9,65.1,157.1,75.4,147.9,78.5z"/>
			<path class="st20" d="M138.4,78.4c0,0,11.5-0.5-0.9-16.5C137.5,61.9,127.3,73.5,138.4,78.4z"/>
			<path class="st21" d="M138.3,78.9c0,0,7.4-0.3-0.5-10.7C137.8,68.1,131,75.7,138.3,78.9z"/>
			<path class="st20" d="M130.4,79.1c0,0,12-1.3-3.1-18C127.3,61.1,118,74.4,130.4,79.1z"/>
			<path class="st21" d="M130,79.2c0,0,7-0.7-1.8-10.5C128.1,68.7,122.8,76.5,130,79.2z"/>
			<path class="st20" d="M120.2,79.9c0,0,11.5,1.5-2-20C118.2,59.9,108.6,71.9,120.2,79.9z"/>
			<path class="st21" d="M120.9,80.4c0,0,7.4,1-1.3-13C119.6,67.5,113.5,75.3,120.9,80.4z"/>
			<path class="st20" d="M116.5,80.4c0,0-12.2,0-13.6-20.5C102.8,60,123.5,73.7,116.5,80.4z"/>
			<path class="st21" d="M114.9,78.9c0,0-7.2,0-7.9-12C106.9,66.9,119,75,114.9,78.9z"/>
			<path class="st20" d="M158.2,78.4c0,0-11.5-0.5,0.9-16.5C159.1,61.9,169.4,73.5,158.2,78.4z"/>
			<path class="st20" d="M166.3,79.1c0,0-12-1.3,3.1-18C169.4,61.1,178.6,74.4,166.3,79.1z"/>
			<path class="st20" d="M176.5,79.9c0,0-11.5,1.5,2-20C178.5,59.9,188,71.9,176.5,79.9z"/>
			<path class="st20" d="M180.2,80.4c0,0,12.2,0,13.6-20.5C193.9,60,173.1,73.7,180.2,80.4z"/>
			<path class="st21" d="M157.9,78.9c0,0-7.4-0.3,0.5-10.7C158.5,68.1,165.2,75.7,157.9,78.9z"/>
			<path class="st21" d="M166.3,79.2c0,0-7-0.7,1.8-10.5C168.1,68.7,173.6,76.5,166.3,79.2z"/>
			<path class="st21" d="M175.4,80.4c0,0-7.4,1,1.3-13C176.7,67.5,182.8,75.3,175.4,80.4z"/>
			<path class="st21" d="M181.4,78.9c0,0,7.2,0,7.9-12C189.3,66.9,177.2,75,181.4,78.9z"/>
		</g>
	</g>
</g>
</svg>
