<?xml version="1.0" encoding="utf-8"?>
<!-- Generator: Adobe Illustrator 23.0.3, SVG Export Plug-In . SVG Version: 6.00 Build 0) -->
<svg version="1.1" id="Layer_1" xmlns="http://www.w3.org/2000/svg" xmlns:xlink="http://www.w3.org/1999/xlink" x="0px" y="0px"
viewBox="0 0 282.3 222.8" style="enable-background:new 0 0 282.3 222.8;" xml:space="preserve">
<style type="text/css">
.st0{fill:#C85E1C;}
.st1{fill:#E57102;}
.st2{fill:#FFFEFD;}
</style>
<image style="overflow:visible;enable-background:new ;" width="435" height="445" xlink:href="Eco House Assets/7FEE10AB.png" transform="matrix(0.4938 0 0 0.4938 32.7252 0.8962)">
</image>
<g>
<g>
<polyline class="st0" points="13.6,163.2 0,142.5 61.8,142.5 61.8,184.2 0,184.2 13.6,163.2 "/>
<polyline class="st0" points="268.7,163.2 282.3,142.5 220.5,142.5 220.5,184.2 282.3,184.2 268.7,163.2 "/>
<rect x="38.8" y="127.6" class="st1" width="204.7" height="44.6"/>
</g>
</g>
<g>
<path class="st2" d="M45.7,148.1c0,1.2-1,2.2-2.2,2.2s-2.2-1-2.2-2.2s1-2.2,2.2-2.2S45.7,146.9,45.7,148.1z M45.3,151.2v9.5h-3.6
v-9.5H45.3z"/>
<path class="st2" d="M52,156h-3.7v-14.3H52V156z"/>
<path class="st2" d="M57.9,147.5L57.9,147.5c0.8-1.2,1.8-1.6,3.2-1.6c2.6,0,3.7,1.7,3.7,4v6h-3.5v-4.7c0-0.9,0.2-2.6-1.6-2.6
c-1.4,0-1.8,1-1.8,2.3v5.1h-3.5v-9.7h3.5C57.9,146.3,57.9,147.5,57.9,147.5z"/>
<path class="st2" d="M70.7,156h-3.5v-6.9h-1.1v-2.8h1.1v-2.9h3.5v2.9h2v2.8h-2V156z"/>
<path class="st2" d="M83.8,151.7h-7.3c0,1.4,0.7,2.2,2.2,2.2c0.7,0,1.3-0.2,1.7-0.9h3.3c-0.3,1.1-1,2-1.8,2.5
c-0.9,0.6-2,0.8-3.1,0.8c-3.2,0-5.6-1.8-5.6-5.2c0-3.2,2.2-5.2,5.4-5.2c3.4,0,5.3,2.1,5.3,5.4L83.8,151.7L83.8,151.7z M80.6,149.7
c-0.2-0.9-1-1.5-2-1.5s-1.8,0.5-2.1,1.5H80.6z"/>
<path class="st2" d="M88.9,147.5L88.9,147.5c0.8-1.2,1.8-1.6,3.2-1.6c2.6,0,3.7,1.7,3.7,4v6h-3.5v-4.7c0-0.9,0.2-2.6-1.6-2.6
c-1.4,0-1.8,1-1.8,2.3v5.1h-3.5v-9.7h3.5C88.9,146.3,88.9,147.5,88.9,147.5z"/>
<path class="st2" d="M101.7,156h-3.5v-6.9h-1.1v-2.8h1.1v-2.9h3.5v2.9h2v2.8h-2V156z"/>
<path class="st2" d="M115.4,156H112v-1.1l0,0c-0.6,1-1.8,1.4-2.9,1.4c-2.9,0-4.9-2.4-4.9-5.2s2-5.2,4.9-5.2c1.1,0,2.3,0.4,3,1.3
v-0.9h3.5v9.7H115.4z M107.7,151.2c0,1.2,0.8,2.2,2.2,2.2c1.4,0,2.2-0.9,2.2-2.2c0-1.2-0.8-2.2-2.2-2.2S107.7,150,107.7,151.2z"/>
<path class="st2" d="M121.2,156h-3.5v-15.8h3.5V156z"/>
<path class="st2" d="M134.5,151.2c0,3.3-2.7,5.2-5.9,5.2c-3.1,0-5.9-1.9-5.9-5.2s2.7-5.2,5.9-5.2
C131.8,146,134.5,147.8,134.5,151.2z M126.4,151.2c0,1.2,0.8,2.2,2.2,2.2c1.4,0,2.2-0.9,2.2-2.2c0-1.2-0.8-2.2-2.2-2.2
S126.4,150,126.4,151.2z"/>
<path class="st2" d="M149.9,154.9L149.9,154.9c-0.6,1-1.8,1.4-3,1.4c-2.9,0-4.9-2.4-4.9-5.2s2-5.2,4.9-5.2c1.1,0,2.3,0.4,3,1.3v-7
h3.5V156h-3.5V154.9z M145.6,151.2c0,1.2,0.8,2.2,2.2,2.2s2.2-0.9,2.2-2.2c0-1.2-0.8-2.2-2.2-2.2C146.4,149,145.6,150,145.6,151.2z
"/>
<path class="st2" d="M165.6,151.7h-7.3c0,1.4,0.7,2.2,2.2,2.2c0.7,0,1.3-0.2,1.7-0.9h3.3c-0.3,1.1-1,2-1.8,2.5
c-0.9,0.6-2,0.8-3.1,0.8c-3.2,0-5.6-1.8-5.6-5.2c0-3.2,2.2-5.2,5.4-5.2c3.4,0,5.3,2.1,5.3,5.4L165.6,151.7L165.6,151.7z
M162.3,149.7c-0.2-0.9-1-1.5-2-1.5s-1.8,0.5-2.1,1.5H162.3z"/>
<path class="st2" d="M177.1,147.5L177.1,147.5c0.8-1.2,1.8-1.6,3.2-1.6c2.6,0,3.7,1.7,3.7,4v6h-3.5v-4.7c0-0.9,0.2-2.6-1.6-2.6
c-1.4,0-1.8,1-1.8,2.3v5.1h-3.5v-9.7h3.5L177.1,147.5L177.1,147.5z"/>
<path class="st2" d="M189.6,146.3v5.2c0,1.2,0.3,2.1,1.7,2.1s1.7-0.9,1.7-2.1v-5.2h3.5v5.9c0,3.2-2.3,4.2-5.2,4.2s-5.2-1-5.2-4.2
v-5.9H189.6z"/>
<path class="st2" d="M208.7,151.7h-7.3c0,1.4,0.7,2.2,2.2,2.2c0.7,0,1.3-0.2,1.7-0.9h3.3c-0.3,1.1-1,2-1.8,2.5
c-0.9,0.6-2,0.8-3.1,0.8c-3.2,0-5.6-1.8-5.6-5.2c0-3.2,2.2-5.2,5.4-5.2c3.4,0,5.3,2.1,5.3,5.4L208.7,151.7L208.7,151.7z
M205.5,149.7c-0.2-0.9-1-1.5-2-1.5s-1.8,0.5-2.1,1.5H205.5z"/>
<path class="st2" d="M215.1,151.3l2.3-5h3.9l-5.1,9.7H214l-5.1-9.7h3.9L215.1,151.3z"/>
<path class="st2" d="M233.2,151.2c0,3.3-2.7,5.2-5.9,5.2c-3.1,0-5.9-1.9-5.9-5.2s2.7-5.2,5.9-5.2S233.2,147.8,233.2,151.2z
M225.1,151.2c0,1.2,0.8,2.2,2.2,2.2s2.2-0.9,2.2-2.2c0-1.2-0.8-2.2-2.2-2.2S225.1,150,225.1,151.2z"/>
<path class="st2" d="M239.5,154.2c0,1.2-1,2.2-2.2,2.2s-2.2-1-2.2-2.2s1-2.2,2.2-2.2S239.5,152.9,239.5,154.2z M235.5,141.7h3.6
v9.5h-3.6V141.7z"/>
</g>
</svg>