<?xml version="1.0" encoding="utf-8"?>
<!-- Generator: Adobe Illustrator 23.0.3, SVG Export Plug-In . SVG Version: 6.00 Build 0)  -->
<svg version="1.1" id="Capa_1" xmlns="http://www.w3.org/2000/svg" xmlns:xlink="http://www.w3.org/1999/xlink" x="0px" y="0px"
	 viewBox="0 0 793.7 566.93" style="enable-background:new 0 0 793.7 566.93;" xml:space="preserve">
<style type="text/css">
	.st0{fill-rule:evenodd;clip-rule:evenodd;fill:#CCCCCC;}
	.st1{fill:#99898B;}
	.st2{fill:#161415;}
	.st3{fill:#382D37;}
	.st4{fill:#F59C00;}
	.st5{fill:#FCBF37;}
	.st6{fill:#707075;}
	.st7{fill:#2D2B2E;}
	.st8{fill:#00A0DF;}
	.st9{fill:#4CC2F1;}
	.st10{fill-rule:evenodd;clip-rule:evenodd;fill:#529FA2;}
	.st11{opacity:0.5;}
	.st12{fill-rule:evenodd;clip-rule:evenodd;fill:#FEFEFE;}
	.st13{fill-rule:evenodd;clip-rule:evenodd;fill:#FDFDFD;}
	.st14{fill-rule:evenodd;clip-rule:evenodd;fill:#FBFBFB;}
	.st15{fill-rule:evenodd;clip-rule:evenodd;fill:#FCFCFC;}
	.st16{fill-rule:evenodd;clip-rule:evenodd;fill:#D1D1D1;}
	.st17{fill-rule:evenodd;clip-rule:evenodd;fill:#ECECEC;}
	.st18{fill-rule:evenodd;clip-rule:evenodd;fill:#F8F8F8;}
	.st19{fill-rule:evenodd;clip-rule:evenodd;fill:#DFDFDF;}
	.st20{fill-rule:evenodd;clip-rule:evenodd;fill:#F7F7F7;}
	.st21{fill-rule:evenodd;clip-rule:evenodd;fill:#D0D0D0;}
	.st22{fill-rule:evenodd;clip-rule:evenodd;fill:#CFCFCF;}
	.st23{fill-rule:evenodd;clip-rule:evenodd;fill:#C4C4C4;}
	.st24{fill-rule:evenodd;clip-rule:evenodd;fill:#979797;}
	.st25{fill-rule:evenodd;clip-rule:evenodd;fill:#E4E4E4;}
	.st26{fill-rule:evenodd;clip-rule:evenodd;fill:#EEEEEE;}
	.st27{fill-rule:evenodd;clip-rule:evenodd;fill:#F6F6F6;}
	.st28{fill-rule:evenodd;clip-rule:evenodd;fill:#CDCDCD;}
	.st29{fill-rule:evenodd;clip-rule:evenodd;fill:#EDEDED;}
	.st30{fill-rule:evenodd;clip-rule:evenodd;fill:#DADADA;}
	.st31{fill-rule:evenodd;clip-rule:evenodd;fill:#E9E9E9;}
	.st32{fill-rule:evenodd;clip-rule:evenodd;fill:#F2F2F2;}
	.st33{fill-rule:evenodd;clip-rule:evenodd;fill:#C7C7C7;}
	.st34{fill-rule:evenodd;clip-rule:evenodd;fill:#F9F9F9;}
	.st35{fill-rule:evenodd;clip-rule:evenodd;fill:#DCDCDC;}
	.st36{fill-rule:evenodd;clip-rule:evenodd;fill:#D9D9D9;}
	.st37{fill-rule:evenodd;clip-rule:evenodd;fill:#F4F4F4;}
	.st38{fill-rule:evenodd;clip-rule:evenodd;fill:#DDDDDD;}
	.st39{fill-rule:evenodd;clip-rule:evenodd;fill:#F1F1F1;}
	.st40{fill-rule:evenodd;clip-rule:evenodd;fill:#EFEFEF;}
	.st41{fill-rule:evenodd;clip-rule:evenodd;fill:#C0C0C0;}
	.st42{fill-rule:evenodd;clip-rule:evenodd;fill:#C5C5C5;}
	.st43{fill-rule:evenodd;clip-rule:evenodd;fill:#C8C8C8;}
	.st44{fill-rule:evenodd;clip-rule:evenodd;fill:#E8E8E8;}
	.st45{fill-rule:evenodd;clip-rule:evenodd;fill:#E6E6E6;}
	.st46{fill-rule:evenodd;clip-rule:evenodd;fill:#C3C3C3;}
	.st47{fill-rule:evenodd;clip-rule:evenodd;fill:#ACACAC;}
	.st48{fill-rule:evenodd;clip-rule:evenodd;fill:#E0E0E0;}
	.st49{fill-rule:evenodd;clip-rule:evenodd;fill:#8E8E8E;}
	.st50{fill-rule:evenodd;clip-rule:evenodd;fill:#C1C1C1;}
	.st51{fill-rule:evenodd;clip-rule:evenodd;fill:#CBCBCB;}
	.st52{fill-rule:evenodd;clip-rule:evenodd;fill:#D3D3D3;}
	.st53{fill-rule:evenodd;clip-rule:evenodd;fill:#D7D7D7;}
	.st54{fill-rule:evenodd;clip-rule:evenodd;fill:#727272;}
	.st55{fill-rule:evenodd;clip-rule:evenodd;fill:#D6D6D6;}
	.st56{fill-rule:evenodd;clip-rule:evenodd;fill:#E3E3E3;}
	.st57{fill-rule:evenodd;clip-rule:evenodd;fill:#CACACA;}
	.st58{fill-rule:evenodd;clip-rule:evenodd;fill:#B9B9B9;}
	.st59{fill-rule:evenodd;clip-rule:evenodd;fill:#FAFAFA;}
	.st60{fill-rule:evenodd;clip-rule:evenodd;fill:#E2E2E2;}
	.st61{fill-rule:evenodd;clip-rule:evenodd;fill:#BFBFBF;}
	.st62{fill-rule:evenodd;clip-rule:evenodd;fill:#CECECE;}
	.st63{fill-rule:evenodd;clip-rule:evenodd;fill:#E1E1E1;}
	.st64{fill-rule:evenodd;clip-rule:evenodd;fill:#D2D2D2;}
	.st65{fill-rule:evenodd;clip-rule:evenodd;fill:#ADADAD;}
	.st66{fill-rule:evenodd;clip-rule:evenodd;fill:#BABABA;}
	.st67{fill-rule:evenodd;clip-rule:evenodd;fill:#A4A4A4;}
	.st68{fill-rule:evenodd;clip-rule:evenodd;fill:#D4D4D4;}
	.st69{fill-rule:evenodd;clip-rule:evenodd;fill:#C6C6C6;}
	.st70{fill-rule:evenodd;clip-rule:evenodd;fill:#F0F0F0;}
	.st71{fill-rule:evenodd;clip-rule:evenodd;fill:#B0B0B0;}
	.st72{fill-rule:evenodd;clip-rule:evenodd;fill:#EBEBEB;}
	.st73{fill-rule:evenodd;clip-rule:evenodd;fill:#B3B3B3;}
	.st74{fill-rule:evenodd;clip-rule:evenodd;fill:#6C6C6C;}
	.st75{fill-rule:evenodd;clip-rule:evenodd;fill:#EAEAEA;}
	.st76{fill-rule:evenodd;clip-rule:evenodd;fill:#9D9D9D;}
	.st77{fill-rule:evenodd;clip-rule:evenodd;fill:#D5D5D5;}
	.st78{fill-rule:evenodd;clip-rule:evenodd;fill:#DBDBDB;}
	.st79{fill-rule:evenodd;clip-rule:evenodd;fill:#F3F3F3;}
	.st80{fill-rule:evenodd;clip-rule:evenodd;fill:#696969;}
	.st81{fill-rule:evenodd;clip-rule:evenodd;fill:#B2B2B2;}
	.st82{fill-rule:evenodd;clip-rule:evenodd;fill:#E7E7E7;}
	.st83{fill-rule:evenodd;clip-rule:evenodd;fill:#BDBDBD;}
	.st84{fill-rule:evenodd;clip-rule:evenodd;fill:#F5F5F5;}
	.st85{fill-rule:evenodd;clip-rule:evenodd;fill:#969696;}
	.st86{fill-rule:evenodd;clip-rule:evenodd;fill:#767676;}
	.st87{fill-rule:evenodd;clip-rule:evenodd;fill:#9E9E9E;}
	.st88{fill-rule:evenodd;clip-rule:evenodd;fill:#B4B4B4;}
	.st89{fill-rule:evenodd;clip-rule:evenodd;fill:#BCBCBC;}
	.st90{fill-rule:evenodd;clip-rule:evenodd;fill:#838383;}
	.st91{fill-rule:evenodd;clip-rule:evenodd;fill:#E5E5E5;}
	.st92{fill-rule:evenodd;clip-rule:evenodd;fill:#AEAEAE;}
	.st93{fill-rule:evenodd;clip-rule:evenodd;fill:#BBBBBB;}
	.st94{fill-rule:evenodd;clip-rule:evenodd;fill:#D8D8D8;}
	.st95{fill-rule:evenodd;clip-rule:evenodd;fill:#8A8A8A;}
	.st96{fill-rule:evenodd;clip-rule:evenodd;fill:#DEDEDE;}
	.st97{fill-rule:evenodd;clip-rule:evenodd;fill:#C9C9C9;}
	.st98{fill-rule:evenodd;clip-rule:evenodd;fill:#A1A1A1;}
	.st99{fill-rule:evenodd;clip-rule:evenodd;fill:#949494;}
	.st100{fill-rule:evenodd;clip-rule:evenodd;fill:#8C8C8C;}
	.st101{fill-rule:evenodd;clip-rule:evenodd;fill:#898989;}
	.st102{fill-rule:evenodd;clip-rule:evenodd;fill:#C2C2C2;}
	.st103{fill-rule:evenodd;clip-rule:evenodd;fill:#AAAAAA;}
	.st104{fill-rule:evenodd;clip-rule:evenodd;fill:#A2A2A2;}
	.st105{fill-rule:evenodd;clip-rule:evenodd;fill:#9F9F9F;}
	.st106{fill-rule:evenodd;clip-rule:evenodd;fill:#8F8F8F;}
	.st107{fill-rule:evenodd;clip-rule:evenodd;fill:#999999;}
	.st108{fill-rule:evenodd;clip-rule:evenodd;fill:#B5B5B5;}
	.st109{fill-rule:evenodd;clip-rule:evenodd;fill:#7D7D7D;}
	.st110{fill-rule:evenodd;clip-rule:evenodd;fill:#A8A8A8;}
	.st111{fill-rule:evenodd;clip-rule:evenodd;fill:#BEBEBE;}
	.st112{fill-rule:evenodd;clip-rule:evenodd;fill:#8D8D8D;}
	.st113{fill-rule:evenodd;clip-rule:evenodd;fill:#828282;}
	.st114{fill-rule:evenodd;clip-rule:evenodd;fill:#B1B1B1;}
	.st115{fill-rule:evenodd;clip-rule:evenodd;fill:#818181;}
	.st116{fill-rule:evenodd;clip-rule:evenodd;fill:#7C7C7C;}
	.st117{fill-rule:evenodd;clip-rule:evenodd;fill:#878787;}
	.st118{fill-rule:evenodd;clip-rule:evenodd;fill:#B6B6B6;}
	.st119{fill-rule:evenodd;clip-rule:evenodd;fill:#939393;}
	.st120{fill-rule:evenodd;clip-rule:evenodd;fill:#797979;}
	.st121{fill-rule:evenodd;clip-rule:evenodd;fill:#B7B7B7;}
	.st122{fill-rule:evenodd;clip-rule:evenodd;fill:#989898;}
	.st123{fill-rule:evenodd;clip-rule:evenodd;fill:#9A9A9A;}
	.st124{fill-rule:evenodd;clip-rule:evenodd;fill:#4E4E4E;}
	.st125{fill-rule:evenodd;clip-rule:evenodd;fill:#A5A5A5;}
	.st126{fill-rule:evenodd;clip-rule:evenodd;fill:#ABABAB;}
	.st127{fill-rule:evenodd;clip-rule:evenodd;fill:#A9A9A9;}
	.st128{fill-rule:evenodd;clip-rule:evenodd;fill:#4A4A4A;}
	.st129{fill-rule:evenodd;clip-rule:evenodd;fill:#686868;}
	.st130{fill-rule:evenodd;clip-rule:evenodd;fill:#2B2B2B;}
	.st131{fill-rule:evenodd;clip-rule:evenodd;fill:#343434;}
	.st132{fill-rule:evenodd;clip-rule:evenodd;fill:#676767;}
	.st133{fill-rule:evenodd;clip-rule:evenodd;fill:#282828;}
	.st134{fill-rule:evenodd;clip-rule:evenodd;fill:#3F3F3F;}
	.st135{fill-rule:evenodd;clip-rule:evenodd;fill:#434343;}
	.st136{fill-rule:evenodd;clip-rule:evenodd;fill:#313131;}
	.st137{fill-rule:evenodd;clip-rule:evenodd;fill:#4B4B4B;}
	.st138{fill-rule:evenodd;clip-rule:evenodd;fill:#4D4D4D;}
	.st139{fill-rule:evenodd;clip-rule:evenodd;fill:#737373;}
	.st140{fill-rule:evenodd;clip-rule:evenodd;fill:#5E5E5E;}
	.st141{fill-rule:evenodd;clip-rule:evenodd;fill:#6F6F6F;}
	.st142{fill-rule:evenodd;clip-rule:evenodd;fill:#626262;}
	.st143{fill-rule:evenodd;clip-rule:evenodd;fill:#717171;}
	.st144{fill-rule:evenodd;clip-rule:evenodd;fill:#868686;}
	.st145{fill-rule:evenodd;clip-rule:evenodd;fill:#A0A0A0;}
	.st146{fill-rule:evenodd;clip-rule:evenodd;fill:#9B9B9B;}
	.st147{fill-rule:evenodd;clip-rule:evenodd;fill:#2A2A2A;}
	.st148{fill-rule:evenodd;clip-rule:evenodd;fill:#2D2D2D;}
	.st149{fill-rule:evenodd;clip-rule:evenodd;fill:#272727;}
	.st150{fill-rule:evenodd;clip-rule:evenodd;fill:#292929;}
	.st151{fill-rule:evenodd;clip-rule:evenodd;fill:#3E3E3E;}
	.st152{fill-rule:evenodd;clip-rule:evenodd;fill:#414141;}
	.st153{fill-rule:evenodd;clip-rule:evenodd;fill:#5B5B5B;}
	.st154{fill-rule:evenodd;clip-rule:evenodd;fill:#545454;}
	.st155{fill-rule:evenodd;clip-rule:evenodd;fill:#565656;}
	.st156{fill-rule:evenodd;clip-rule:evenodd;fill:#555555;}
	.st157{fill-rule:evenodd;clip-rule:evenodd;fill:#515151;}
	.st158{fill-rule:evenodd;clip-rule:evenodd;fill:#A6A6A6;}
	.st159{fill-rule:evenodd;clip-rule:evenodd;fill:#B8B8B8;}
	.st160{fill-rule:evenodd;clip-rule:evenodd;fill:#4F4F4F;}
	.st161{fill-rule:evenodd;clip-rule:evenodd;fill:#464646;}
	.st162{fill-rule:evenodd;clip-rule:evenodd;fill:#424242;}
	.st163{fill-rule:evenodd;clip-rule:evenodd;fill:#A7A7A7;}
	.st164{fill-rule:evenodd;clip-rule:evenodd;fill:#959595;}
	.st165{fill-rule:evenodd;clip-rule:evenodd;fill:#787878;}
	.st166{fill-rule:evenodd;clip-rule:evenodd;fill:#8B8B8B;}
	.st167{fill-rule:evenodd;clip-rule:evenodd;fill:#383838;}
	.st168{fill-rule:evenodd;clip-rule:evenodd;fill:#747474;}
	.st169{fill-rule:evenodd;clip-rule:evenodd;fill:#646464;}
	.st170{fill-rule:evenodd;clip-rule:evenodd;fill:#454545;}
	.st171{fill-rule:evenodd;clip-rule:evenodd;fill:#656565;}
	.st172{fill-rule:evenodd;clip-rule:evenodd;fill:#858585;}
	.st173{fill-rule:evenodd;clip-rule:evenodd;fill:#6D6D6D;}
	.st174{fill-rule:evenodd;clip-rule:evenodd;fill:#9C9C9C;}
	.st175{fill-rule:evenodd;clip-rule:evenodd;fill:#6B6B6B;}
	.st176{fill-rule:evenodd;clip-rule:evenodd;fill:#404040;}
	.st177{fill-rule:evenodd;clip-rule:evenodd;fill:#7A7A7A;}
	.st178{fill-rule:evenodd;clip-rule:evenodd;fill:#7F7F7F;}
	.st179{fill-rule:evenodd;clip-rule:evenodd;fill:#A3A3A3;}
	.st180{fill-rule:evenodd;clip-rule:evenodd;fill:#636363;}
	.st181{fill-rule:evenodd;clip-rule:evenodd;fill:#808080;}
	.st182{fill-rule:evenodd;clip-rule:evenodd;fill:#777777;}
	.st183{fill-rule:evenodd;clip-rule:evenodd;fill:#919191;}
	.st184{fill-rule:evenodd;clip-rule:evenodd;fill:#6A6A6A;}
	.st185{fill-rule:evenodd;clip-rule:evenodd;fill:#262626;}
	.st186{fill-rule:evenodd;clip-rule:evenodd;fill:#575757;}
	.st187{fill-rule:evenodd;clip-rule:evenodd;fill:#5A5A5A;}
	.st188{fill-rule:evenodd;clip-rule:evenodd;fill:#484848;}
	.st189{fill-rule:evenodd;clip-rule:evenodd;fill:#3B3B3B;}
	.st190{fill-rule:evenodd;clip-rule:evenodd;fill:#494949;}
	.st191{fill-rule:evenodd;clip-rule:evenodd;fill:#6E6E6E;}
	.st192{fill-rule:evenodd;clip-rule:evenodd;fill:#AFAFAF;}
	.st193{fill-rule:evenodd;clip-rule:evenodd;fill:#535353;}
	.st194{fill-rule:evenodd;clip-rule:evenodd;fill:#444444;}
	.st195{fill-rule:evenodd;clip-rule:evenodd;fill:#373737;}
	.st196{fill-rule:evenodd;clip-rule:evenodd;fill:#505050;}
	.st197{fill-rule:evenodd;clip-rule:evenodd;fill:#606060;}
	.st198{fill-rule:evenodd;clip-rule:evenodd;fill:#3C3C3C;}
	.st199{fill-rule:evenodd;clip-rule:evenodd;fill:#474747;}
	.st200{fill-rule:evenodd;clip-rule:evenodd;fill:#3D3D3D;}
	.st201{fill-rule:evenodd;clip-rule:evenodd;fill:#7E7E7E;}
	.st202{fill-rule:evenodd;clip-rule:evenodd;fill:#393939;}
	.st203{fill-rule:evenodd;clip-rule:evenodd;fill:#353535;}
	.st204{fill-rule:evenodd;clip-rule:evenodd;fill:#363636;}
	.st205{fill-rule:evenodd;clip-rule:evenodd;fill:#707070;}
	.st206{fill-rule:evenodd;clip-rule:evenodd;fill:#595959;}
	.st207{fill-rule:evenodd;clip-rule:evenodd;fill:#525252;}
	.st208{fill-rule:evenodd;clip-rule:evenodd;fill:#5C5C5C;}
	.st209{fill-rule:evenodd;clip-rule:evenodd;fill:#2C2C2C;}
	.st210{fill-rule:evenodd;clip-rule:evenodd;fill:#666666;}
	.st211{fill-rule:evenodd;clip-rule:evenodd;fill:#7B7B7B;}
	.st212{fill-rule:evenodd;clip-rule:evenodd;fill:#585858;}
	.st213{fill-rule:evenodd;clip-rule:evenodd;fill:#929292;}
	.st214{fill-rule:evenodd;clip-rule:evenodd;fill:#757575;}
	.st215{fill-rule:evenodd;clip-rule:evenodd;fill:#848484;}
	.st216{fill-rule:evenodd;clip-rule:evenodd;fill:#323232;}
	.st217{fill-rule:evenodd;clip-rule:evenodd;fill:#616161;}
	.st218{fill-rule:evenodd;clip-rule:evenodd;fill:#5F5F5F;}
	.st219{fill-rule:evenodd;clip-rule:evenodd;fill:#303030;}
	.st220{fill-rule:evenodd;clip-rule:evenodd;fill:#191919;}
	.st221{fill-rule:evenodd;clip-rule:evenodd;fill:#3A3A3A;}
	.st222{fill-rule:evenodd;clip-rule:evenodd;fill:#888888;}
	.st223{fill-rule:evenodd;clip-rule:evenodd;fill:#242424;}
	.st224{fill-rule:evenodd;clip-rule:evenodd;fill:#222222;}
	.st225{fill-rule:evenodd;clip-rule:evenodd;fill:#2F2F2F;}
	.st226{fill-rule:evenodd;clip-rule:evenodd;fill:#909090;}
	.st227{fill-rule:evenodd;clip-rule:evenodd;fill:#212121;}
	.st228{fill-rule:evenodd;clip-rule:evenodd;fill:#1E1E1E;}
	.st229{fill-rule:evenodd;clip-rule:evenodd;fill:#4C4C4C;}
	.st230{fill-rule:evenodd;clip-rule:evenodd;fill:#1C1C1C;}
	.st231{fill-rule:evenodd;clip-rule:evenodd;fill:#252525;}
	.st232{fill-rule:evenodd;clip-rule:evenodd;fill:#1F1F1F;}
	.st233{fill-rule:evenodd;clip-rule:evenodd;fill:#1A1A1A;}
	.st234{fill-rule:evenodd;clip-rule:evenodd;fill:#1B1B1B;}
	.st235{fill-rule:evenodd;clip-rule:evenodd;fill:#1D1D1D;}
	.st236{fill-rule:evenodd;clip-rule:evenodd;fill:#232323;}
	.st237{fill-rule:evenodd;clip-rule:evenodd;fill:#2E2E2E;}
	.st238{fill-rule:evenodd;clip-rule:evenodd;fill:#333333;}
	.st239{fill-rule:evenodd;clip-rule:evenodd;fill:#202020;}
	.st240{fill-rule:evenodd;clip-rule:evenodd;fill:#151515;}
	.st241{fill-rule:evenodd;clip-rule:evenodd;fill:#171717;}
	.st242{fill-rule:evenodd;clip-rule:evenodd;fill:#101010;}
	.st243{fill-rule:evenodd;clip-rule:evenodd;fill:#5D5D5D;}
	.st244{fill-rule:evenodd;clip-rule:evenodd;fill:#181818;}
	.st245{fill-rule:evenodd;clip-rule:evenodd;fill:#141414;}
	.st246{fill-rule:evenodd;clip-rule:evenodd;fill:#0E0E0E;}
	.st247{fill-rule:evenodd;clip-rule:evenodd;fill:#161616;}
	.st248{fill-rule:evenodd;clip-rule:evenodd;fill:#131313;}
	.st249{fill-rule:evenodd;clip-rule:evenodd;fill:#0D0D0D;}
	.st250{fill-rule:evenodd;clip-rule:evenodd;fill:#111111;}
	.st251{fill-rule:evenodd;clip-rule:evenodd;fill:#060606;}
	.st252{fill-rule:evenodd;clip-rule:evenodd;fill:#0F0F0F;}
	.st253{fill-rule:evenodd;clip-rule:evenodd;fill:#0B0B0B;}
	.st254{fill-rule:evenodd;clip-rule:evenodd;fill:#121212;}
	.st255{fill-rule:evenodd;clip-rule:evenodd;fill:#0C0C0C;}
	.st256{fill-rule:evenodd;clip-rule:evenodd;fill:#090909;}
	.st257{fill-rule:evenodd;clip-rule:evenodd;fill:#0A0A0A;}
	.st258{fill-rule:evenodd;clip-rule:evenodd;fill:#070707;}
	.st259{fill-rule:evenodd;clip-rule:evenodd;fill:#080808;}
	.st260{fill-rule:evenodd;clip-rule:evenodd;fill:#040404;}
	.st261{fill-rule:evenodd;clip-rule:evenodd;fill:#050505;}
	.st262{fill:#C2C2C0;}
	.st263{fill:#7A7977;}
	.st264{fill:#EDEDED;}
	.st265{opacity:0.7;}
	.st266{opacity:0.6;fill-rule:evenodd;clip-rule:evenodd;fill:#529FA2;}
	.st267{fill:#F1F1F2;}
	.st268{fill:#63BC8F;}
	.st269{opacity:0.58;fill:#A2A4A7;}
	.st270{fill:#FFFFFF;}
	.st271{fill:#FBBB76;}
	.st272{fill:#6586B5;}
	.st273{fill:#CFD0D2;}
	.st274{opacity:0.58;fill:#D7D8DA;}
	.st275{fill:#FBB756;}
	.st276{fill:#FCD745;}
	.st277{fill:#231F20;}
	.st278{fill:#F58435;}
	.st279{opacity:0.5;fill:#05A23F;}
	.st280{fill:#C48956;}
	.st281{fill:#C2C2C2;}
	.st282{fill:#373737;}
	.st283{fill:#424242;}
	.st284{opacity:0.1;fill:#212121;}
	.st285{fill:#EEEEEE;}
	.st286{fill:#E0E0E0;}
	.st287{fill:#606060;}
	.st288{fill:none;}
	.st289{fill:#BABABA;}
	.st290{opacity:0.05;}
	.st291{opacity:0.3;fill:#FFFFFF;}
	.st292{fill:#8A8A8A;}
	.st293{fill:#E6E6E6;}
	.st294{opacity:0.15;}
	.st295{fill:#2C7300;}
	.st296{fill:#378F00;}
	.st297{fill:#FAB700;}
	.st298{fill:#BA8800;}
	.st299{fill:#FFD154;}
	.st300{fill:#66C30F;}
	.st301{fill:#808080;}
	.st302{clip-path:url(#SVGID_2_);}
	.st303{fill:#40A0DF;}
	.st304{opacity:0.7;fill:#CE0B10;}
	.st305{fill-rule:evenodd;clip-rule:evenodd;fill:#FFCE3D;}
	.st306{fill-rule:evenodd;clip-rule:evenodd;fill:#482A4A;}
	.st307{opacity:0.4;}
	.st308{fill:#F4F0EF;}
	.st309{clip-path:url(#SVGID_7_);}
	.st310{clip-path:url(#SVGID_9_);fill:url(#SVGID_10_);}
	.st311{fill:url(#SVGID_11_);}
	.st312{fill:url(#SVGID_12_);}
	.st313{fill:url(#SVGID_13_);}
	.st314{opacity:0;fill:#FFFFFF;}
	.st315{opacity:0.0164;fill:#FFFFFF;}
	.st316{opacity:0.0328;fill:#FFFFFF;}
	.st317{opacity:0.0492;fill:#FFFFFF;}
	.st318{opacity:0.0656;fill:#FFFFFF;}
	.st319{opacity:0.082;fill:#FFFFFF;}
	.st320{opacity:0.0984;fill:#FFFFFF;}
	.st321{opacity:0.1148;fill:#FFFFFF;}
	.st322{opacity:0.1311;fill:#FFFFFF;}
	.st323{opacity:0.1475;fill:#FFFFFF;}
	.st324{opacity:0.1639;fill:#FFFFFF;}
	.st325{opacity:0.1803;fill:#FFFFFF;}
	.st326{opacity:0.1967;fill:#FFFFFF;}
	.st327{opacity:0.2131;fill:#FFFFFF;}
	.st328{opacity:0.2295;fill:#FFFFFF;}
	.st329{opacity:0.2459;fill:#FFFFFF;}
	.st330{opacity:0.2623;fill:#FFFFFF;}
	.st331{opacity:0.2787;fill:#FFFFFF;}
	.st332{opacity:0.2951;fill:#FFFFFF;}
	.st333{opacity:0.3115;fill:#FFFFFF;}
	.st334{opacity:0.3279;fill:#FFFFFF;}
	.st335{opacity:0.3443;fill:#FFFFFF;}
	.st336{opacity:0.3607;fill:#FFFFFF;}
	.st337{opacity:0.377;fill:#FFFFFF;}
	.st338{opacity:0.3934;fill:#FFFFFF;}
	.st339{opacity:0.4098;fill:#FFFFFF;}
	.st340{opacity:0.4262;fill:#FFFFFF;}
	.st341{opacity:0.4426;fill:#FFFFFF;}
	.st342{opacity:0.459;fill:#FFFFFF;}
	.st343{opacity:0.4754;fill:#FFFFFF;}
	.st344{opacity:0.4918;fill:#FFFFFF;}
	.st345{opacity:0.5082;fill:#FFFFFF;}
	.st346{opacity:0.5246;fill:#FFFFFF;}
	.st347{opacity:0.541;fill:#FFFFFF;}
	.st348{opacity:0.5574;fill:#FFFFFF;}
	.st349{opacity:0.5738;fill:#FFFFFF;}
	.st350{opacity:0.5902;fill:#FFFFFF;}
	.st351{opacity:0.6066;fill:#FFFFFF;}
	.st352{opacity:0.623;fill:#FFFFFF;}
	.st353{opacity:0.6393;fill:#FFFFFF;}
	.st354{opacity:0.6557;fill:#FFFFFF;}
	.st355{opacity:0.6721;fill:#FFFFFF;}
	.st356{opacity:0.6885;fill:#FFFFFF;}
	.st357{opacity:0.7049;fill:#FFFFFF;}
	.st358{opacity:0.7213;fill:#FFFFFF;}
	.st359{opacity:0.7377;fill:#FFFFFF;}
	.st360{opacity:0.7541;fill:#FFFFFF;}
	.st361{opacity:0.7705;fill:#FFFFFF;}
	.st362{opacity:0.7869;fill:#FFFFFF;}
	.st363{opacity:0.8033;fill:#FFFFFF;}
	.st364{opacity:0.8197;fill:#FFFFFF;}
	.st365{opacity:0.8361;fill:#FFFFFF;}
	.st366{opacity:0.8525;fill:#FFFFFF;}
	.st367{opacity:0.8689;fill:#FFFFFF;}
	.st368{opacity:0.8852;fill:#FFFFFF;}
	.st369{opacity:0.9016;fill:#FFFFFF;}
	.st370{opacity:0.918;fill:#FFFFFF;}
	.st371{opacity:0.9344;fill:#FFFFFF;}
	.st372{opacity:0.9508;fill:#FFFFFF;}
	.st373{opacity:0.9672;fill:#FFFFFF;}
	.st374{opacity:0.9836;fill:#FFFFFF;}
	.st375{fill:#69E6F9;}
	.st376{filter:url(#Adobe_OpacityMaskFilter);}
	.st377{filter:url(#Adobe_OpacityMaskFilter_1_);}
	.st378{mask:url(#SVGID_14_);fill:url(#SVGID_15_);}
	.st379{fill:url(#SVGID_16_);}
	.st380{clip-path:url(#SVGID_18_);fill:url(#SVGID_19_);}
	.st381{fill:url(#SVGID_20_);}
	.st382{fill:url(#SVGID_21_);}
	.st383{filter:url(#Adobe_OpacityMaskFilter_2_);}
	.st384{filter:url(#Adobe_OpacityMaskFilter_3_);}
	.st385{mask:url(#SVGID_22_);fill:url(#SVGID_23_);}
	.st386{fill:url(#SVGID_24_);}
	.st387{opacity:0.7;fill:url(#SVGID_25_);}
	.st388{fill:url(#SVGID_26_);}
	.st389{filter:url(#Adobe_OpacityMaskFilter_4_);}
	.st390{filter:url(#Adobe_OpacityMaskFilter_5_);}
	.st391{mask:url(#SVGID_27_);fill:url(#SVGID_28_);}
	.st392{fill:url(#SVGID_29_);}
	.st393{opacity:0.6;fill:url(#SVGID_30_);}
	.st394{fill:url(#SVGID_31_);}
	.st395{filter:url(#Adobe_OpacityMaskFilter_6_);}
	.st396{filter:url(#Adobe_OpacityMaskFilter_7_);}
	.st397{mask:url(#SVGID_32_);fill:url(#SVGID_33_);}
	.st398{opacity:0.7;fill:url(#SVGID_34_);}
	.st399{opacity:0;fill:#6D747A;}
	.st400{opacity:0.0164;fill:#6D747A;}
	.st401{opacity:0.0328;fill:#6D747A;}
	.st402{opacity:0.0492;fill:#6D747A;}
	.st403{opacity:0.0656;fill:#6D747A;}
	.st404{opacity:0.082;fill:#6D747A;}
	.st405{opacity:0.0984;fill:#6D747A;}
	.st406{opacity:0.1148;fill:#6D747A;}
	.st407{opacity:0.1311;fill:#6D747A;}
	.st408{opacity:0.1475;fill:#6D747A;}
	.st409{opacity:0.1639;fill:#6D747A;}
	.st410{opacity:0.1803;fill:#6D747A;}
	.st411{opacity:0.1967;fill:#6D747A;}
	.st412{opacity:0.2131;fill:#6D747A;}
	.st413{opacity:0.2295;fill:#6D747A;}
	.st414{opacity:0.2459;fill:#6D747A;}
	.st415{opacity:0.2623;fill:#6D747A;}
	.st416{opacity:0.2787;fill:#6D747A;}
	.st417{opacity:0.2951;fill:#6D747A;}
	.st418{opacity:0.3115;fill:#6D747A;}
	.st419{opacity:0.3279;fill:#6D747A;}
	.st420{opacity:0.3443;fill:#6D747A;}
	.st421{opacity:0.3607;fill:#6D747A;}
	.st422{opacity:0.377;fill:#6D747A;}
	.st423{opacity:0.3934;fill:#6D747A;}
	.st424{opacity:0.4098;fill:#6D747A;}
	.st425{opacity:0.4262;fill:#6D747A;}
	.st426{opacity:0.4426;fill:#6D747A;}
	.st427{opacity:0.459;fill:#6D747A;}
	.st428{opacity:0.4754;fill:#6D747A;}
	.st429{opacity:0.4918;fill:#6D747A;}
	.st430{opacity:0.5082;fill:#6D747A;}
	.st431{opacity:0.5246;fill:#6D747A;}
	.st432{opacity:0.541;fill:#6D747A;}
	.st433{opacity:0.5574;fill:#6D747A;}
	.st434{opacity:0.5738;fill:#6D747A;}
	.st435{opacity:0.5902;fill:#6D747A;}
	.st436{opacity:0.6066;fill:#6D747A;}
	.st437{opacity:0.623;fill:#6D747A;}
	.st438{opacity:0.6393;fill:#6D747A;}
	.st439{opacity:0.6557;fill:#6D747A;}
	.st440{opacity:0.6721;fill:#6D747A;}
	.st441{opacity:0.6885;fill:#6D747A;}
	.st442{opacity:0.7049;fill:#6D747A;}
	.st443{opacity:0.7213;fill:#6D747A;}
	.st444{opacity:0.7377;fill:#6D747A;}
	.st445{opacity:0.7541;fill:#6D747A;}
	.st446{opacity:0.7705;fill:#6D747A;}
	.st447{opacity:0.7869;fill:#6D747A;}
	.st448{opacity:0.8033;fill:#6D747A;}
	.st449{opacity:0.8197;fill:#6D747A;}
	.st450{opacity:0.8361;fill:#6D747A;}
	.st451{opacity:0.8525;fill:#6D747A;}
	.st452{opacity:0.8689;fill:#6D747A;}
	.st453{opacity:0.8852;fill:#6D747A;}
	.st454{opacity:0.9016;fill:#6D747A;}
	.st455{opacity:0.918;fill:#6D747A;}
	.st456{opacity:0.9344;fill:#6D747A;}
	.st457{opacity:0.9508;fill:#6D747A;}
	.st458{opacity:0.9672;fill:#6D747A;}
	.st459{opacity:0.9836;fill:#6D747A;}
	.st460{fill:#6D747A;}
	.st461{fill:#B1EFF9;}
	.st462{fill:#66AFCC;}
	.st463{fill:#FDFCFC;}
	.st464{fill:#ABDFF3;}
	.st465{fill:#76CBEE;}
	.st466{opacity:0.5;fill-rule:evenodd;clip-rule:evenodd;fill:#FFCE3D;}
	.st467{fill:#39B54A;}
	.st468{fill:#3A1700;}
	.st469{fill:#FF5757;}
	.st470{opacity:0.29;fill:#B50000;}
	.st471{filter:url(#Adobe_OpacityMaskFilter_8_);}
	.st472{filter:url(#Adobe_OpacityMaskFilter_9_);}
	.st473{mask:url(#SVGID_35_);fill:url(#SVGID_36_);}
	.st474{fill:url(#SVGID_37_);}
	.st475{opacity:0.13;fill:#990000;}
	.st476{filter:url(#Adobe_OpacityMaskFilter_10_);}
	.st477{filter:url(#Adobe_OpacityMaskFilter_11_);}
	.st478{mask:url(#SVGID_38_);fill:url(#SVGID_39_);}
	.st479{opacity:0.38;fill:url(#SVGID_40_);}
	.st480{fill:#62432D;}
	.st481{filter:url(#Adobe_OpacityMaskFilter_12_);}
	.st482{filter:url(#Adobe_OpacityMaskFilter_13_);}
	.st483{mask:url(#SVGID_41_);fill:url(#SVGID_42_);}
	.st484{opacity:0.25;fill:url(#SVGID_43_);}
	.st485{opacity:0.32;fill:#331601;}
	.st486{fill:#E7D39C;}
	.st487{fill:#BC9D58;}
	.st488{fill:#D6BD7F;}
	.st489{filter:url(#Adobe_OpacityMaskFilter_14_);}
	.st490{filter:url(#Adobe_OpacityMaskFilter_15_);}
	.st491{mask:url(#SVGID_44_);fill:url(#SVGID_45_);}
	.st492{fill:url(#SVGID_46_);}
	.st493{fill:#87A7C2;}
	.st494{opacity:0.36;fill:#D3BE66;}
	.st495{filter:url(#Adobe_OpacityMaskFilter_16_);}
	.st496{filter:url(#Adobe_OpacityMaskFilter_17_);}
	.st497{mask:url(#SVGID_47_);fill:url(#SVGID_48_);}
	.st498{opacity:0.54;fill:url(#SVGID_49_);}
	.st499{fill:#6790A6;}
	.st500{fill:#7A5338;}
	.st501{filter:url(#Adobe_OpacityMaskFilter_18_);}
	.st502{filter:url(#Adobe_OpacityMaskFilter_19_);}
	.st503{mask:url(#SVGID_50_);fill:url(#SVGID_51_);}
	.st504{fill:url(#SVGID_52_);}
	.st505{filter:url(#Adobe_OpacityMaskFilter_20_);}
	.st506{filter:url(#Adobe_OpacityMaskFilter_21_);}
	.st507{mask:url(#SVGID_53_);fill:url(#SVGID_54_);}
	.st508{fill:url(#SVGID_55_);}
	.st509{filter:url(#Adobe_OpacityMaskFilter_22_);}
	.st510{filter:url(#Adobe_OpacityMaskFilter_23_);}
	.st511{mask:url(#SVGID_56_);fill:url(#SVGID_57_);}
	.st512{fill:url(#SVGID_58_);}
	.st513{opacity:0.23;fill:#331601;}
	.st514{opacity:0.17;fill:#331601;}
	.st515{filter:url(#Adobe_OpacityMaskFilter_24_);}
	.st516{filter:url(#Adobe_OpacityMaskFilter_25_);}
	.st517{mask:url(#SVGID_59_);fill:url(#SVGID_60_);}
	.st518{fill:url(#SVGID_61_);}
	.st519{filter:url(#Adobe_OpacityMaskFilter_26_);}
	.st520{filter:url(#Adobe_OpacityMaskFilter_27_);}
	.st521{mask:url(#SVGID_62_);fill:url(#SVGID_63_);}
	.st522{fill:url(#SVGID_64_);}
	.st523{filter:url(#Adobe_OpacityMaskFilter_28_);}
	.st524{filter:url(#Adobe_OpacityMaskFilter_29_);}
	.st525{mask:url(#SVGID_65_);fill:url(#SVGID_66_);}
	.st526{fill:url(#SVGID_67_);}
	.st527{fill:#473122;}
	.st528{filter:url(#Adobe_OpacityMaskFilter_30_);}
	.st529{filter:url(#Adobe_OpacityMaskFilter_31_);}
	.st530{mask:url(#SVGID_68_);fill:url(#SVGID_69_);}
	.st531{fill:url(#SVGID_70_);}
	.st532{filter:url(#Adobe_OpacityMaskFilter_32_);}
	.st533{filter:url(#Adobe_OpacityMaskFilter_33_);}
	.st534{mask:url(#SVGID_71_);fill:url(#SVGID_72_);}
	.st535{fill:url(#SVGID_73_);}
	.st536{opacity:0.09;fill:#680200;}
	.st537{filter:url(#Adobe_OpacityMaskFilter_34_);}
	.st538{filter:url(#Adobe_OpacityMaskFilter_35_);}
	.st539{mask:url(#SVGID_74_);fill:url(#SVGID_75_);}
	.st540{opacity:0.52;fill:url(#SVGID_76_);}
	.st541{filter:url(#Adobe_OpacityMaskFilter_36_);}
	.st542{filter:url(#Adobe_OpacityMaskFilter_37_);}
	.st543{mask:url(#SVGID_77_);fill:url(#SVGID_78_);}
	.st544{fill:url(#SVGID_79_);}
	.st545{filter:url(#Adobe_OpacityMaskFilter_38_);}
	.st546{filter:url(#Adobe_OpacityMaskFilter_39_);}
	.st547{mask:url(#SVGID_80_);fill:url(#SVGID_81_);}
	.st548{fill:url(#SVGID_82_);}
	.st549{fill:#798B3E;}
	.st550{fill:#60701E;}
	.st551{fill:#00A652;}
	.st552{fill:#4DB748;}
	.st553{fill:#BFD630;}
	.st554{fill:#FEF200;}
	.st555{fill:#FDB813;}
	.st556{fill:#F37022;}
	.st557{fill:#E4332D;}
	.st558{opacity:0.7;fill-rule:evenodd;clip-rule:evenodd;fill:#CCCCCC;}
	.st559{fill:#FEF4A7;}
	.st560{fill:url(#SVGID_83_);}
	.st561{fill:#CBCBCB;}
	.st562{fill:#999999;}
	.st563{fill:#E71F28;}
	.st564{fill:#CF1B22;}
	.st565{fill:#EA1C25;}
	.st566{fill:#F49424;}
	.st567{fill:#FBBF61;}
	.st568{fill:#D3801E;}
	.st569{fill:#F9AF3F;}
	.st570{fill:#CD8026;}
	.st571{fill:#FEFEFD;}
	.st572{fill:#7A7A7A;}
	.st573{fill:#E5E5E5;}
	.st574{fill:#B2B2B2;}
	.st575{fill:url(#SVGID_84_);}
	.st576{fill:url(#SVGID_85_);}
	.st577{fill:url(#SVGID_86_);}
	.st578{opacity:0.7;fill:#FEF4A7;}
	.st579{clip-path:url(#XMLID_11_);fill:#E07E39;}
	.st580{clip-path:url(#XMLID_11_);}
	.st581{fill:#E07E39;}
	.st582{clip-path:url(#XMLID_12_);}
	.st583{fill:#207D7B;}
	.st584{clip-path:url(#XMLID_12_);fill:none;stroke:#207D7B;stroke-width:4;stroke-miterlimit:10;}
	.st585{clip-path:url(#XMLID_12_);fill:#207D7B;}
	.st586{clip-path:url(#XMLID_12_);fill:none;stroke:#207D7B;stroke-width:2;stroke-miterlimit:10;}
	.st587{clip-path:url(#XMLID_13_);fill:none;stroke:#9C4842;stroke-width:4;stroke-linecap:round;stroke-miterlimit:10;}
	.st588{clip-path:url(#XMLID_13_);fill:none;stroke:#FFFFFF;stroke-width:4;stroke-linecap:round;stroke-miterlimit:10;}
	.st589{opacity:0.5;clip-path:url(#XMLID_13_);fill:#9C4842;}
	.st590{clip-path:url(#XMLID_13_);fill:#FFFFFF;}
	.st591{clip-path:url(#XMLID_13_);}
	.st592{fill:#9C4842;}
	.st593{clip-path:url(#XMLID_13_);fill:none;stroke:#9C4842;stroke-width:3;stroke-miterlimit:10;}
	.st594{fill:none;stroke:#FFD000;stroke-width:3;stroke-linecap:round;stroke-miterlimit:10;}
	.st595{fill:#FF6A28;}
	.st596{fill-rule:evenodd;clip-rule:evenodd;fill:#C48956;}
	.st597{fill:#766864;}
	.st598{fill:#E2D2BD;}
	.st599{fill:#574947;}
	.st600{fill:#3F3432;}
	.st601{fill:#796558;}
	.st602{fill:#EE7927;}
	.st603{fill:#EA5C29;}
	.st604{fill:#F18B20;}
	.st605{fill:#5B4C48;}
	.st606{opacity:0.47;fill:url(#XMLID_14_);}
	.st607{fill:#45B8EA;}
	.st608{fill:#E53519;}
	.st609{fill:#3EACD2;}
	.st610{fill:#D42028;}
	.st611{fill:#F09E4A;}
	.st612{clip-path:url(#SVGID_88_);}
	.st613{fill:#B8B7B8;}
	.st614{fill:#B8B8B8;}
	.st615{fill:url(#SVGID_89_);}
	.st616{fill:#403D3C;}
	.st617{fill:url(#SVGID_90_);}
	.st618{fill:url(#SVGID_91_);}
	.st619{fill:url(#SVGID_92_);}
	.st620{fill:url(#SVGID_93_);}
	.st621{fill:#EEEFEF;}
	.st622{fill:url(#SVGID_94_);}
	.st623{fill:url(#SVGID_95_);}
	.st624{fill:url(#SVGID_96_);}
	.st625{fill:url(#SVGID_97_);}
	.st626{clip-path:url(#SVGID_99_);}
	.st627{fill:#737171;}
	.st628{fill:#6F6D6D;}
	.st629{fill:#6C6969;}
	.st630{fill:#686666;}
	.st631{fill:#646262;}
	.st632{fill:#605E5E;}
	.st633{fill:#5D5A5A;}
	.st634{fill:#595757;}
	.st635{fill:#555353;}
	.st636{fill:#524F4F;}
	.st637{fill:#4E4B4B;}
	.st638{fill:#4A4848;}
	.st639{fill:#464444;}
	.st640{fill:#434040;}
	.st641{fill:#3F3C3C;}
	.st642{fill:#3B3939;}
	.st643{fill:#373535;}
	.st644{fill:#343131;}
	.st645{fill:#302D2D;}
	.st646{fill:#2C2A2A;}
	.st647{fill:#292626;}
	.st648{fill:#252222;}
	.st649{fill:#211E1E;}
	.st650{fill:#1D1B1B;}
	.st651{fill:#1A1717;}
	.st652{fill:#161313;}
	.st653{fill:url(#SVGID_100_);}
	.st654{fill:url(#SVGID_101_);}
	.st655{fill:#ED7F78;}
	.st656{fill:#FFC700;}
	.st657{fill:#333333;}
	.st658{fill:#616161;}
	.st659{fill:#757575;}
	.st660{fill:#F7F7F7;}
	.st661{opacity:0.3;}
	.st662{fill:#FBFBFB;}
	.st663{fill:#F1F1F1;}
	.st664{clip-path:url(#SVGID_103_);}
	.st665{fill-rule:evenodd;clip-rule:evenodd;fill:#CA8BD0;}
	.st666{fill:#EF676E;}
	.st667{fill:#DA4547;}
	.st668{fill:#BC2B33;}
	.st669{fill:#F4DABF;}
	.st670{fill:#EAC0A0;}
	.st671{opacity:0.1;fill:#F9F7F7;}
	.st672{fill-rule:evenodd;clip-rule:evenodd;fill:#749AD0;}
	.st673{fill:#383838;}
	.st674{fill:url(#SVGID_104_);}
	.st675{fill:url(#SVGID_105_);}
	.st676{fill:url(#SVGID_106_);}
	.st677{fill:url(#SVGID_107_);}
	.st678{fill:url(#SVGID_108_);}
	.st679{fill:url(#SVGID_109_);}
	.st680{fill:url(#SVGID_110_);}
	.st681{fill:url(#SVGID_111_);}
	.st682{fill:url(#SVGID_112_);}
	.st683{fill:url(#SVGID_113_);}
	.st684{fill:url(#SVGID_114_);}
	.st685{fill:url(#SVGID_115_);}
	.st686{fill:url(#SVGID_116_);}
	.st687{fill:url(#SVGID_117_);}
	.st688{fill:url(#SVGID_118_);}
	.st689{fill:url(#SVGID_119_);}
	.st690{fill:url(#SVGID_120_);}
	.st691{fill:url(#SVGID_121_);}
	.st692{fill:url(#SVGID_122_);}
	.st693{fill:url(#SVGID_123_);}
	.st694{fill:url(#SVGID_124_);}
	.st695{fill:url(#SVGID_125_);}
	.st696{fill:url(#SVGID_126_);}
	.st697{fill:url(#SVGID_127_);}
	.st698{fill:url(#SVGID_128_);}
	.st699{fill:url(#SVGID_129_);}
	.st700{fill:url(#SVGID_130_);}
	.st701{fill:url(#SVGID_131_);}
	.st702{fill:url(#SVGID_132_);}
	.st703{fill:url(#SVGID_133_);}
	.st704{fill:url(#SVGID_134_);}
	.st705{fill:url(#SVGID_135_);}
	.st706{fill:url(#SVGID_136_);}
	.st707{fill:url(#SVGID_137_);}
	.st708{fill:url(#SVGID_138_);}
	.st709{fill:url(#SVGID_139_);}
	.st710{fill:url(#SVGID_140_);}
	.st711{fill:url(#SVGID_141_);}
	.st712{fill:url(#SVGID_142_);}
	.st713{fill:url(#SVGID_143_);}
	.st714{fill:url(#SVGID_144_);}
	.st715{fill:url(#SVGID_145_);}
	.st716{fill:url(#SVGID_146_);}
	.st717{fill:url(#SVGID_147_);}
	.st718{fill:url(#SVGID_148_);}
	.st719{fill:url(#SVGID_149_);}
	.st720{fill:url(#SVGID_150_);}
	.st721{fill:url(#SVGID_151_);}
	.st722{fill:url(#SVGID_152_);}
	.st723{fill:url(#SVGID_153_);}
	.st724{fill:url(#SVGID_154_);}
	.st725{fill:url(#SVGID_155_);}
	.st726{fill:url(#SVGID_156_);}
	.st727{fill:url(#SVGID_157_);}
	.st728{fill:#C1272D;}
	.st729{fill:#52C961;}
	.st730{fill:#F72735;}
	.st731{opacity:0.8;fill-rule:evenodd;clip-rule:evenodd;fill:#CCCCCC;}
	.st732{clip-path:url(#SVGID_162_);}
	.st733{clip-path:url(#SVGID_164_);fill:url(#SVGID_165_);}
	.st734{fill:url(#SVGID_166_);}
	.st735{fill:url(#SVGID_167_);}
	.st736{fill:url(#SVGID_168_);}
	.st737{filter:url(#Adobe_OpacityMaskFilter_40_);}
	.st738{filter:url(#Adobe_OpacityMaskFilter_41_);}
	.st739{mask:url(#SVGID_169_);fill:url(#SVGID_170_);}
	.st740{fill:url(#SVGID_171_);}
	.st741{clip-path:url(#SVGID_173_);fill:url(#SVGID_174_);}
	.st742{fill:url(#SVGID_175_);}
	.st743{fill:url(#SVGID_176_);}
	.st744{filter:url(#Adobe_OpacityMaskFilter_42_);}
	.st745{filter:url(#Adobe_OpacityMaskFilter_43_);}
	.st746{mask:url(#SVGID_177_);fill:url(#SVGID_178_);}
	.st747{fill:url(#SVGID_179_);}
	.st748{opacity:0.7;fill:url(#SVGID_180_);}
	.st749{fill:url(#SVGID_181_);}
	.st750{filter:url(#Adobe_OpacityMaskFilter_44_);}
	.st751{filter:url(#Adobe_OpacityMaskFilter_45_);}
	.st752{mask:url(#SVGID_182_);fill:url(#SVGID_183_);}
	.st753{fill:url(#SVGID_184_);}
	.st754{opacity:0.6;fill:url(#SVGID_185_);}
	.st755{fill:url(#SVGID_186_);}
	.st756{filter:url(#Adobe_OpacityMaskFilter_46_);}
	.st757{filter:url(#Adobe_OpacityMaskFilter_47_);}
	.st758{mask:url(#SVGID_187_);fill:url(#SVGID_188_);}
	.st759{opacity:0.7;fill:url(#SVGID_189_);}
	.st760{opacity:0.47;fill:url(#XMLID_16_);}
	.st761{opacity:0.6;fill-rule:evenodd;clip-rule:evenodd;fill:#C48956;}
	.st762{clip-path:url(#SVGID_191_);}
	.st763{fill:url(#SVGID_192_);}
	.st764{fill:url(#SVGID_193_);}
	.st765{fill:url(#SVGID_194_);}
	.st766{fill:url(#SVGID_195_);}
	.st767{fill:url(#SVGID_196_);}
	.st768{fill:url(#SVGID_197_);}
	.st769{fill:url(#SVGID_198_);}
	.st770{fill:url(#SVGID_199_);}
	.st771{fill:url(#SVGID_200_);}
	.st772{clip-path:url(#SVGID_202_);}
	.st773{fill:url(#SVGID_203_);}
	.st774{fill:url(#SVGID_204_);}
	.st775{opacity:0.5;fill:#F09E4A;}
	.st776{fill:url(#SVGID_205_);}
	.st777{fill:url(#SVGID_206_);}
	.st778{fill:url(#SVGID_207_);}
	.st779{fill:url(#SVGID_208_);}
	.st780{fill:url(#SVGID_209_);}
	.st781{fill:url(#SVGID_210_);}
	.st782{fill:url(#SVGID_211_);}
	.st783{fill:url(#SVGID_212_);}
	.st784{fill:url(#SVGID_213_);}
	.st785{fill:url(#SVGID_214_);}
	.st786{fill:url(#SVGID_215_);}
	.st787{fill:url(#SVGID_216_);}
	.st788{fill:url(#SVGID_217_);}
	.st789{fill:url(#SVGID_218_);}
	.st790{fill:url(#SVGID_219_);}
	.st791{fill:url(#SVGID_220_);}
	.st792{fill:url(#SVGID_221_);}
	.st793{fill:url(#SVGID_222_);}
	.st794{fill:url(#SVGID_223_);}
	.st795{fill:url(#SVGID_224_);}
	.st796{fill:url(#SVGID_225_);}
	.st797{fill:url(#SVGID_226_);}
	.st798{fill:url(#SVGID_227_);}
	.st799{fill:url(#SVGID_228_);}
	.st800{fill:url(#SVGID_229_);}
	.st801{fill:url(#SVGID_230_);}
	.st802{fill:url(#SVGID_231_);}
	.st803{fill:url(#SVGID_232_);}
	.st804{fill:url(#SVGID_233_);}
	.st805{fill:url(#SVGID_234_);}
	.st806{fill:url(#SVGID_235_);}
	.st807{fill:url(#SVGID_236_);}
	.st808{fill:url(#SVGID_237_);}
	.st809{fill:url(#SVGID_238_);}
	.st810{fill:url(#SVGID_239_);}
	.st811{fill:url(#SVGID_240_);}
	.st812{fill:url(#SVGID_241_);}
	.st813{fill:url(#SVGID_242_);}
	.st814{fill:url(#SVGID_243_);}
	.st815{fill:url(#SVGID_244_);}
	.st816{fill:url(#SVGID_245_);}
	.st817{fill:url(#SVGID_246_);}
	.st818{fill:url(#SVGID_247_);}
	.st819{fill:url(#SVGID_248_);}
	.st820{fill:url(#SVGID_249_);}
	.st821{fill:url(#SVGID_250_);}
	.st822{fill:url(#SVGID_251_);}
	.st823{fill:url(#SVGID_252_);}
	.st824{fill:url(#SVGID_253_);}
	.st825{fill:url(#SVGID_254_);}
	.st826{fill:url(#SVGID_255_);}
	.st827{fill:url(#SVGID_256_);}
	.st828{fill:url(#SVGID_257_);}
	.st829{fill:url(#SVGID_258_);}
	.st830{opacity:0.6;fill-rule:evenodd;clip-rule:evenodd;fill:#749AD0;}
</style>
<rect x="0" y="-0.02" class="st596" width="793.7" height="566.93"/>
<g>
	<path d="M119.49,538.51h-2.27v-33.59h-9.24v-2.13h20.75v2.13h-9.24V538.51z"/>
	<path d="M127.93,527.76c-0.14,5.54,3.7,9.24,8.76,9.24c3.41,0,6.16-2.04,7.72-4.97l1.8,1.04c-1.99,3.79-5.5,5.92-9.81,5.92
		c-6.49,0-10.61-5.26-10.61-11.47c0-6.11,4.22-11.37,10.61-11.37c6.63,0,10.57,5.31,10.52,11.61H127.93z M144.8,525.77
		c-0.52-4.03-3.84-7.63-8.34-7.63c-4.45,0-8.15,3.51-8.53,7.63H144.8z"/>
	<path d="M154.23,519.37h0.09c1-2.04,3.17-3.22,5.5-3.22c2.79,0,5.02,1.42,6.16,3.98c1.18-2.61,3.6-3.98,6.4-3.98
		c5.64,0,6.78,3.84,6.78,8.62v13.74h-2.13v-14.02c0-3.36-0.52-6.35-4.69-6.35c-4.55,0-5.64,3.98-5.64,7.77v12.6h-2.13v-13.5
		c0-3.41-0.62-6.87-4.88-6.87c-4.6,0-5.45,4.79-5.45,8.34v12.03h-2.13v-21.89h2.13V519.37z"/>
	<path d="M188.58,520.56h0.09c1.61-2.8,5.12-4.41,8.34-4.41c6.68,0,10.8,5.21,10.8,11.61s-4.12,11.23-10.71,11.23
		c-3.36,0-6.63-1.47-8.43-4.26h-0.09v16.58h-2.13v-34.68h2.13V520.56z M188.44,528.04c0,5.12,3.46,8.95,8.72,8.95
		c5.12,0,8.53-4.31,8.53-9.19c0-5.02-3.27-9.67-8.62-9.67C191.47,518.14,188.44,522.78,188.44,528.04z"/>
	<path d="M212.98,527.76c-0.14,5.54,3.7,9.24,8.76,9.24c3.41,0,6.16-2.04,7.72-4.97l1.8,1.04c-1.99,3.79-5.5,5.92-9.81,5.92
		c-6.49,0-10.61-5.26-10.61-11.47c0-6.11,4.22-11.37,10.61-11.37c6.63,0,10.57,5.31,10.52,11.61H212.98z M229.85,525.77
		c-0.52-4.03-3.84-7.63-8.34-7.63c-4.45,0-8.15,3.51-8.53,7.63H229.85z"/>
	<path d="M239.28,519.47h0.09c0.85-1.99,2.42-3.32,4.74-3.32c0.85,0,1.56,0.19,2.32,0.52l-1.14,1.9c-0.52-0.28-0.95-0.43-1.52-0.43
		c-4.79,0-4.5,5.97-4.5,9.19v11.18h-2.13v-21.89h2.13V519.47z"/>
	<path d="M269.56,538.51h-2.13v-3.93h-0.09c-1.61,2.8-5.12,4.41-8.34,4.41c-6.63,0-10.8-5.16-10.8-11.56
		c0-6.4,4.12-11.28,10.71-11.28c3.36,0,6.59,1.52,8.43,4.26h0.09v-3.79h2.13V538.51z M250.32,527.42c0,5.02,3.32,9.57,8.62,9.57
		c5.59,0,8.62-4.55,8.62-9.81c0-5.07-3.46-9.05-8.76-9.05C253.78,518.14,250.32,522.69,250.32,527.42z"/>
	<path d="M279.22,538.51h-2.13v-19.9h-2.42v-1.99h2.42v-7.82h2.13v7.82h3.84v1.99h-3.84V538.51z"/>
	<path d="M302.16,516.62v13.12c0,2.23,0.05,4.45-1.33,6.3c-1.52,1.99-4.08,2.94-6.54,2.94c-2.46,0-5.02-0.95-6.54-2.94
		c-1.37-1.85-1.33-4.07-1.33-6.3v-13.12h2.13v12.37c0,4.22,0.47,8.01,5.73,8.01c5.26,0,5.73-3.79,5.73-8.01v-12.37H302.16z"/>
	<path d="M311.25,519.47h0.09c0.85-1.99,2.42-3.32,4.74-3.32c0.85,0,1.56,0.19,2.32,0.52l-1.14,1.9c-0.52-0.28-0.95-0.43-1.52-0.43
		c-4.79,0-4.5,5.97-4.5,9.19v11.18h-2.13v-21.89h2.13V519.47z"/>
	<path d="M341.53,538.51h-2.13v-3.93h-0.09c-1.61,2.8-5.12,4.41-8.34,4.41c-6.63,0-10.8-5.16-10.8-11.56
		c0-6.4,4.12-11.28,10.71-11.28c3.36,0,6.59,1.52,8.43,4.26h0.09v-3.79h2.13V538.51z M322.3,527.42c0,5.02,3.32,9.57,8.62,9.57
		c5.59,0,8.62-4.55,8.62-9.81c0-5.07-3.46-9.05-8.76-9.05C325.75,518.14,322.3,522.69,322.3,527.42z"/>
	<path d="M380.62,534.58h-0.09c-1.61,2.8-5.12,4.41-8.34,4.41c-6.63,0-10.8-5.16-10.8-11.56c0-6.4,4.12-11.28,10.71-11.28
		c3.36,0,6.59,1.52,8.43,4.26h0.09v-20.99h2.13v39.09h-2.13V534.58z M380.76,527.19c0-5.07-3.46-9.05-8.76-9.05
		c-5.02,0-8.48,4.55-8.48,9.29c0,5.02,3.32,9.57,8.62,9.57C377.73,536.99,380.76,532.45,380.76,527.19z"/>
	<path d="M390.05,527.76c-0.14,5.54,3.7,9.24,8.76,9.24c3.41,0,6.16-2.04,7.72-4.97l1.8,1.04c-1.99,3.79-5.5,5.92-9.81,5.92
		c-6.49,0-10.61-5.26-10.61-11.47c0-6.11,4.22-11.37,10.61-11.37c6.63,0,10.57,5.31,10.52,11.61H390.05z M406.92,525.77
		c-0.52-4.03-3.84-7.63-8.34-7.63c-4.45,0-8.15,3.51-8.53,7.63H406.92z"/>
	<path d="M431.04,538.51h-2.13v-39.09h2.13V538.51z"/>
	<path d="M457.57,538.51h-2.13v-3.93h-0.09c-1.61,2.8-5.12,4.41-8.34,4.41c-6.63,0-10.8-5.16-10.8-11.56
		c0-6.4,4.12-11.28,10.71-11.28c3.36,0,6.59,1.52,8.43,4.26h0.09v-3.79h2.13V538.51z M438.34,527.42c0,5.02,3.32,9.57,8.62,9.57
		c5.59,0,8.62-4.55,8.62-9.81c0-5.07-3.46-9.05-8.76-9.05C441.8,518.14,438.34,522.69,438.34,527.42z"/>
	<path d="M496.33,521.69c-2.08-2.27-4.6-3.55-7.72-3.55c-5.16,0-9.05,4.41-9.05,9.38c0,4.98,3.84,9.48,9,9.48
		c3.13,0,6.06-1.52,8.05-3.93v2.89c-2.23,1.94-5.02,3.03-7.96,3.03c-6.49,0-11.23-5.07-11.23-11.47c0-6.35,4.83-11.37,11.28-11.37
		c2.84,0,5.45,0.85,7.63,2.7V521.69z"/>
	<path d="M521.4,538.51h-2.13v-3.93h-0.09c-1.61,2.8-5.12,4.41-8.34,4.41c-6.63,0-10.8-5.16-10.8-11.56
		c0-6.4,4.12-11.28,10.71-11.28c3.36,0,6.59,1.52,8.43,4.26h0.09v-3.79h2.13V538.51z M502.16,527.42c0,5.02,3.32,9.57,8.62,9.57
		c5.59,0,8.62-4.55,8.62-9.81c0-5.07-3.46-9.05-8.76-9.05C505.62,518.14,502.16,522.69,502.16,527.42z"/>
	<path d="M530.83,538.51h-2.13v-39.09h2.13V538.51z"/>
	<path d="M538.13,527.76c-0.14,5.54,3.7,9.24,8.76,9.24c3.41,0,6.16-2.04,7.72-4.97l1.8,1.04c-1.99,3.79-5.5,5.92-9.81,5.92
		c-6.49,0-10.61-5.26-10.61-11.47c0-6.11,4.22-11.37,10.61-11.37c6.63,0,10.57,5.31,10.52,11.61H538.13z M554.99,525.77
		c-0.52-4.03-3.84-7.63-8.34-7.63c-4.45,0-8.15,3.51-8.53,7.63H554.99z"/>
	<path d="M564.42,538.51h-2.13v-19.9h-2.42v-1.99h2.42v-9.81c0-1.61,0.05-3.93,0.85-5.35c1-1.75,2.89-2.65,4.88-2.65
		c0.66,0,1.28,0.09,1.9,0.33v1.94c-0.57-0.09-1.14-0.28-1.75-0.28c-3.7,0-3.74,3.7-3.74,6.44v9.38h5.5v1.99h-5.5V538.51z"/>
	<path d="M592.9,538.51h-2.13v-3.93h-0.09c-1.61,2.8-5.12,4.41-8.34,4.41c-6.63,0-10.8-5.16-10.8-11.56
		c0-6.4,4.12-11.28,10.71-11.28c3.36,0,6.59,1.52,8.43,4.26h0.09v-3.79h2.13V538.51z M573.66,527.42c0,5.02,3.32,9.57,8.62,9.57
		c5.59,0,8.62-4.55,8.62-9.81c0-5.07-3.46-9.05-8.76-9.05C577.12,518.14,573.66,522.69,573.66,527.42z"/>
	<path d="M616.97,521.69c-2.08-2.27-4.6-3.55-7.72-3.55c-5.16,0-9.05,4.41-9.05,9.38c0,4.98,3.84,9.48,9,9.48
		c3.13,0,6.06-1.52,8.05-3.93v2.89c-2.23,1.94-5.02,3.03-7.96,3.03c-6.49,0-11.23-5.07-11.23-11.47c0-6.35,4.83-11.37,11.28-11.37
		c2.84,0,5.45,0.85,7.63,2.7V521.69z"/>
	<path d="M639.57,521.69c-2.08-2.27-4.6-3.55-7.72-3.55c-5.16,0-9.05,4.41-9.05,9.38c0,4.98,3.84,9.48,9,9.48
		c3.13,0,6.06-1.52,8.05-3.93v2.89c-2.23,1.94-5.02,3.03-7.96,3.03c-6.49,0-11.23-5.07-11.23-11.47c0-6.35,4.83-11.37,11.28-11.37
		c2.84,0,5.45,0.85,7.63,2.7V521.69z"/>
	<path d="M649.24,509.33c0,1.09-0.85,1.94-1.94,1.94s-1.94-0.85-1.94-1.94c0-1.04,0.85-1.94,1.94-1.94S649.24,508.28,649.24,509.33z
		 M648.34,538.51h-2.13v-21.89h2.13V538.51z"/>
	<path d="M677.24,527.57c0,6.49-5.07,11.42-11.51,11.42c-6.3,0-11.37-5.16-11.37-11.37c0-6.3,5.02-11.46,11.37-11.46
		C672.17,516.15,677.24,521.08,677.24,527.57z M656.49,527.61c0,4.98,3.93,9.38,9.1,9.38c5.35,0,9.52-4.07,9.52-9.38
		c0-5.4-4.12-9.48-9.52-9.48C660.37,518.14,656.49,522.54,656.49,527.61z M670.32,505.58l-5.88,6.87l-1.8-0.8l4.79-6.96
		L670.32,505.58z"/>
	<path d="M684.54,520.03h0.09c1.28-2.42,3.65-3.88,6.49-3.88c5.64,0,7.2,3.51,7.2,9.14v13.22h-2.13v-13.22
		c0-3.93-0.47-7.15-5.26-7.15c-5.5,0-6.4,5.12-6.4,9.57v10.8h-2.13v-21.89h2.13V520.03z"/>
</g>
<path id="XMLID_9484_" class="st597" d="M295.23,350v99.86c0,5.64,48.6,10.21,108.56,10.21s108.56-4.57,108.56-10.21V350H295.23z"/>
<path id="XMLID_9483_" class="st597" d="M426.71,96.2h-45.85c-4.19,0-7.62-3.43-7.62-7.62v-65.7c0-4.19,3.43-7.62,7.62-7.62h45.85
	c4.19,0,7.62,3.43,7.62,7.62v65.7C434.33,92.77,430.9,96.2,426.71,96.2z"/>
<path id="XMLID_9482_" class="st598" d="M512.34,70.86H295.23v305.62h36.87c10.44-8.37,38.58-20.05,71.68-20.05
	c33.1,0,61.24,11.67,71.68,20.05h36.87V70.86z"/>
<rect id="XMLID_9481_" x="364.91" y="378.73" class="st599" width="77.75" height="28.67"/>
<circle id="XMLID_9480_" class="st599" cx="488.09" cy="398.31" r="12.62"/>
<path id="XMLID_9479_" class="st600" d="M497.08,398.31c0,4.97-4.03,9-9,9c-4.97,0-9-4.03-9-9c0-4.97,4.03-9,9-9
	C493.06,389.32,497.08,393.34,497.08,398.31z"/>
<ellipse id="XMLID_9478_" transform="matrix(0.7071 -0.7071 0.7071 0.7071 -162.4437 471.6326)" class="st599" cx="488.09" cy="431.9" rx="12.62" ry="12.62"/>
<path id="XMLID_9477_" class="st600" d="M497.08,431.9c0,4.97-4.03,9-9,9c-4.97,0-9-4.03-9-9c0-4.97,4.03-9,9-9
	C493.06,422.91,497.08,426.94,497.08,431.9z"/>
<rect id="XMLID_9476_" x="364.91" y="407.4" class="st600" width="77.75" height="3.29"/>
<rect id="XMLID_9475_" x="373.24" y="65.94" class="st601" width="61.09" height="4.92"/>
<ellipse id="XMLID_9474_" transform="matrix(0.1717 -0.9852 0.9852 0.1717 38.8917 644.3942)" class="st600" cx="402.65" cy="299.07" rx="35.21" ry="35.21"/>
<g id="XMLID_9392_">
	<path id="XMLID_9398_" class="st602" d="M425.62,309.97c-0.14-6.08-3.52-10.92-7.63-15.53c-6.75-7.66-15.38-14.46-14.75-25.87
		c0,0-0.02,0.02-0.04,0.05c-2.37,2.41-4.07,4.83-5.11,7.34c-0.9,1.93-1.48,4.01-1.2,5.93c0,1.22,0.13,2.47,0.41,3.76
		c0.55,2.59,1.18,5.17,0.95,7.78c-0.07,0.82-0.22,1.64-0.49,2.47c-0.36,1.09-0.56,2.44-2.28,2.44c-1.71,0-1.87-1.4-2.26-2.45
		c-1.04-2.95-0.35-6-0.65-9.88c-1.4,1.77-2.68,3.52-3.83,5.29c-1.67,2.56-3.07,5.13-4.15,7.75c-1.56,3.76-2.47,7.63-2.62,11.73
		c-0.17,4.47,1.14,8.29,4.1,11.29c0.52,0.53,1.1,1.03,1.72,1.5c1.16,0.89,2.5,1.68,4.05,2.35c2.58,1.1,5.19,1.8,7.85,2.12h3.77h3.1
		c1.86-0.23,3.74-0.6,5.6-1.16c4.05-1.23,7.13-3.05,9.37-5.38C424.32,318.5,425.72,314.67,425.62,309.97z"/>
	<path id="XMLID_9397_" class="st603" d="M425.62,309.97c-0.14-6.08-3.52-10.92-7.63-15.53c-6.75-7.66-15.38-14.46-14.75-25.87
		c-4.21,4.25-6.34,8.56-6.35,13.31c3,5.11,7.69,9.37,11.71,13.94c4.1,4.61,7.49,9.45,7.63,15.53c0.11,4.7-1.29,8.53-4.09,11.51
		c-2.11,2.2-4.97,3.94-8.68,5.16h3.1c1.86-0.23,3.74-0.6,5.6-1.16c4.05-1.23,7.13-3.05,9.37-5.38
		C424.33,318.5,425.73,314.67,425.62,309.97z"/>
	<path id="XMLID_9395_" class="st604" d="M398.25,293.41c-0.07,0.82-0.22,1.64-0.49,2.47c-0.36,1.09-0.56,2.44-2.28,2.44
		c-1.71,0-1.87-1.4-2.26-2.45c-1.04-2.95-0.35-6-0.65-9.88c-1.4,1.77-2.68,3.52-3.83,5.29c-1.67,2.56-3.07,5.13-4.15,7.75
		c-1.56,3.76-2.47,7.63-2.62,11.73c-0.17,4.47,1.14,8.29,4.1,11.29c0.52,0.53,1.1,1.03,1.72,1.5
		C412.25,320.56,404.93,303.48,398.25,293.41z"/>
	<path id="XMLID_9394_" class="st602" d="M416.23,311.34c-0.14-6.08-3.52-10.92-7.63-15.53c0,0-12.71-14.34-5.36-27.25
		c0,0-7.21,7.4-6.35,13.31l0.84,1.34c-0.29-0.44-0.58-0.89-0.84-1.34c0,1.22,0.13,2.47,0.41,3.76c0.55,2.59,1.18,5.17,0.95,7.78
		c6.68,10.07,14,27.14-10.47,30.13c1.16,0.89,2.5,1.68,4.05,2.35c2.58,1.1,5.19,1.8,7.85,2.12h3.77c3.71-1.22,6.58-2.97,8.68-5.16
		C414.94,319.87,416.34,316.05,416.23,311.34z"/>
</g>
<rect id="XMLID_9473_" x="295.23" y="376.48" class="st599" width="36.88" height="3.59"/>
<rect id="XMLID_9472_" x="475.47" y="376.48" class="st599" width="36.88" height="3.59"/>
<path id="XMLID_9430_" class="st605" d="M441.69,60.42h-75.78c-1.26,0-2.28,1.02-2.28,2.28v8.16h80.33v-8.16
	C443.97,61.44,442.95,60.42,441.69,60.42z"/>
<linearGradient id="XMLID_11_" gradientUnits="userSpaceOnUse" x1="404.153" y1="101.8859" x2="403.0913" y2="27.0438">
	<stop  offset="0" style="stop-color:#FFFFFF"/>
	<stop  offset="0.0877" style="stop-color:#F8F8F8"/>
	<stop  offset="0.2166" style="stop-color:#E4E4E4"/>
	<stop  offset="0.3708" style="stop-color:#C4C4C4"/>
	<stop  offset="0.5447" style="stop-color:#979797"/>
	<stop  offset="0.735" style="stop-color:#5D5D5D"/>
	<stop  offset="0.9361" style="stop-color:#181818"/>
	<stop  offset="1" style="stop-color:#000000"/>
</linearGradient>
<rect id="XMLID_9429_" x="295.23" y="70.86" style="opacity:0.47;fill:url(#XMLID_11_);" width="217.11" height="9.91"/>
<circle id="XMLID_9428_" class="st599" cx="330.24" cy="415.84" r="23.39"/>
<circle id="XMLID_9427_" class="st270" cx="330.24" cy="415.84" r="19.18"/>
<path id="XMLID_9418_" class="st607" d="M330.24,399.61v2.17c-6.2,0-11.54,3.71-13.92,9.02h-2.34
	C316.5,404.26,322.84,399.61,330.24,399.61z"/>
<path id="XMLID_9417_" class="st602" d="M330.24,401.77v-2.17c7.41,0,13.75,4.65,16.26,11.19h-2.34
	C341.78,405.48,336.45,401.77,330.24,401.77z"/>
<path id="XMLID_9416_" class="st608" d="M344.16,410.8h-2.41c-2.22-4.08-6.54-6.86-11.5-6.86v-2.17
	C336.45,401.77,341.78,405.48,344.16,410.8z"/>
<path id="XMLID_9415_" class="st609" d="M330.24,401.77v2.17c-4.96,0-9.29,2.78-11.5,6.86h-2.41
	C318.71,405.48,324.04,401.77,330.24,401.77z"/>
<path id="XMLID_9412_" class="st610" d="M327.15,416.6c0,1.71,1.38,3.09,3.09,3.09c1.71,0,3.09-1.38,3.09-3.09
	c0-1.46-1.01-2.68-2.37-3v-17.01h-1.44v17.01C328.16,413.92,327.15,415.14,327.15,416.6z"/>
<rect id="XMLID_9401_" x="425.87" y="378.73" class="st600" width="1.26" height="30.31"/>
<rect id="XMLID_9400_" x="425.87" y="393.41" class="st600" width="16.78" height="1.35"/>
</svg>
