<?xml version="1.0" encoding="utf-8"?>
<!-- Generator: Adobe Illustrator 23.0.3, SVG Export Plug-In . SVG Version: 6.00 Build 0)  -->
<svg version="1.1" id="Capa_1" xmlns="http://www.w3.org/2000/svg" xmlns:xlink="http://www.w3.org/1999/xlink" x="0px" y="0px"
	 viewBox="0 0 793.7 566.93" style="enable-background:new 0 0 793.7 566.93;" xml:space="preserve">
<style type="text/css">
	.st0{fill-rule:evenodd;clip-rule:evenodd;fill:#CCCCCC;}
	.st1{fill:#99898B;}
	.st2{fill:#161415;}
	.st3{fill:#382D37;}
	.st4{fill:#F59C00;}
	.st5{fill:#FCBF37;}
	.st6{fill:#707075;}
	.st7{fill:#2D2B2E;}
	.st8{fill:#00A0DF;}
	.st9{fill:#4CC2F1;}
	.st10{fill-rule:evenodd;clip-rule:evenodd;fill:#529FA2;}
	.st11{opacity:0.5;}
	.st12{fill-rule:evenodd;clip-rule:evenodd;fill:#FEFEFE;}
	.st13{fill-rule:evenodd;clip-rule:evenodd;fill:#FDFDFD;}
	.st14{fill-rule:evenodd;clip-rule:evenodd;fill:#FBFBFB;}
	.st15{fill-rule:evenodd;clip-rule:evenodd;fill:#FCFCFC;}
	.st16{fill-rule:evenodd;clip-rule:evenodd;fill:#D1D1D1;}
	.st17{fill-rule:evenodd;clip-rule:evenodd;fill:#ECECEC;}
	.st18{fill-rule:evenodd;clip-rule:evenodd;fill:#F8F8F8;}
	.st19{fill-rule:evenodd;clip-rule:evenodd;fill:#DFDFDF;}
	.st20{fill-rule:evenodd;clip-rule:evenodd;fill:#F7F7F7;}
	.st21{fill-rule:evenodd;clip-rule:evenodd;fill:#D0D0D0;}
	.st22{fill-rule:evenodd;clip-rule:evenodd;fill:#CFCFCF;}
	.st23{fill-rule:evenodd;clip-rule:evenodd;fill:#C4C4C4;}
	.st24{fill-rule:evenodd;clip-rule:evenodd;fill:#979797;}
	.st25{fill-rule:evenodd;clip-rule:evenodd;fill:#E4E4E4;}
	.st26{fill-rule:evenodd;clip-rule:evenodd;fill:#EEEEEE;}
	.st27{fill-rule:evenodd;clip-rule:evenodd;fill:#F6F6F6;}
	.st28{fill-rule:evenodd;clip-rule:evenodd;fill:#CDCDCD;}
	.st29{fill-rule:evenodd;clip-rule:evenodd;fill:#EDEDED;}
	.st30{fill-rule:evenodd;clip-rule:evenodd;fill:#DADADA;}
	.st31{fill-rule:evenodd;clip-rule:evenodd;fill:#E9E9E9;}
	.st32{fill-rule:evenodd;clip-rule:evenodd;fill:#F2F2F2;}
	.st33{fill-rule:evenodd;clip-rule:evenodd;fill:#C7C7C7;}
	.st34{fill-rule:evenodd;clip-rule:evenodd;fill:#F9F9F9;}
	.st35{fill-rule:evenodd;clip-rule:evenodd;fill:#DCDCDC;}
	.st36{fill-rule:evenodd;clip-rule:evenodd;fill:#D9D9D9;}
	.st37{fill-rule:evenodd;clip-rule:evenodd;fill:#F4F4F4;}
	.st38{fill-rule:evenodd;clip-rule:evenodd;fill:#DDDDDD;}
	.st39{fill-rule:evenodd;clip-rule:evenodd;fill:#F1F1F1;}
	.st40{fill-rule:evenodd;clip-rule:evenodd;fill:#EFEFEF;}
	.st41{fill-rule:evenodd;clip-rule:evenodd;fill:#C0C0C0;}
	.st42{fill-rule:evenodd;clip-rule:evenodd;fill:#C5C5C5;}
	.st43{fill-rule:evenodd;clip-rule:evenodd;fill:#C8C8C8;}
	.st44{fill-rule:evenodd;clip-rule:evenodd;fill:#E8E8E8;}
	.st45{fill-rule:evenodd;clip-rule:evenodd;fill:#E6E6E6;}
	.st46{fill-rule:evenodd;clip-rule:evenodd;fill:#C3C3C3;}
	.st47{fill-rule:evenodd;clip-rule:evenodd;fill:#ACACAC;}
	.st48{fill-rule:evenodd;clip-rule:evenodd;fill:#E0E0E0;}
	.st49{fill-rule:evenodd;clip-rule:evenodd;fill:#8E8E8E;}
	.st50{fill-rule:evenodd;clip-rule:evenodd;fill:#C1C1C1;}
	.st51{fill-rule:evenodd;clip-rule:evenodd;fill:#CBCBCB;}
	.st52{fill-rule:evenodd;clip-rule:evenodd;fill:#D3D3D3;}
	.st53{fill-rule:evenodd;clip-rule:evenodd;fill:#D7D7D7;}
	.st54{fill-rule:evenodd;clip-rule:evenodd;fill:#727272;}
	.st55{fill-rule:evenodd;clip-rule:evenodd;fill:#D6D6D6;}
	.st56{fill-rule:evenodd;clip-rule:evenodd;fill:#E3E3E3;}
	.st57{fill-rule:evenodd;clip-rule:evenodd;fill:#CACACA;}
	.st58{fill-rule:evenodd;clip-rule:evenodd;fill:#B9B9B9;}
	.st59{fill-rule:evenodd;clip-rule:evenodd;fill:#FAFAFA;}
	.st60{fill-rule:evenodd;clip-rule:evenodd;fill:#E2E2E2;}
	.st61{fill-rule:evenodd;clip-rule:evenodd;fill:#BFBFBF;}
	.st62{fill-rule:evenodd;clip-rule:evenodd;fill:#CECECE;}
	.st63{fill-rule:evenodd;clip-rule:evenodd;fill:#E1E1E1;}
	.st64{fill-rule:evenodd;clip-rule:evenodd;fill:#D2D2D2;}
	.st65{fill-rule:evenodd;clip-rule:evenodd;fill:#ADADAD;}
	.st66{fill-rule:evenodd;clip-rule:evenodd;fill:#BABABA;}
	.st67{fill-rule:evenodd;clip-rule:evenodd;fill:#A4A4A4;}
	.st68{fill-rule:evenodd;clip-rule:evenodd;fill:#D4D4D4;}
	.st69{fill-rule:evenodd;clip-rule:evenodd;fill:#C6C6C6;}
	.st70{fill-rule:evenodd;clip-rule:evenodd;fill:#F0F0F0;}
	.st71{fill-rule:evenodd;clip-rule:evenodd;fill:#B0B0B0;}
	.st72{fill-rule:evenodd;clip-rule:evenodd;fill:#EBEBEB;}
	.st73{fill-rule:evenodd;clip-rule:evenodd;fill:#B3B3B3;}
	.st74{fill-rule:evenodd;clip-rule:evenodd;fill:#6C6C6C;}
	.st75{fill-rule:evenodd;clip-rule:evenodd;fill:#EAEAEA;}
	.st76{fill-rule:evenodd;clip-rule:evenodd;fill:#9D9D9D;}
	.st77{fill-rule:evenodd;clip-rule:evenodd;fill:#D5D5D5;}
	.st78{fill-rule:evenodd;clip-rule:evenodd;fill:#DBDBDB;}
	.st79{fill-rule:evenodd;clip-rule:evenodd;fill:#F3F3F3;}
	.st80{fill-rule:evenodd;clip-rule:evenodd;fill:#696969;}
	.st81{fill-rule:evenodd;clip-rule:evenodd;fill:#B2B2B2;}
	.st82{fill-rule:evenodd;clip-rule:evenodd;fill:#E7E7E7;}
	.st83{fill-rule:evenodd;clip-rule:evenodd;fill:#BDBDBD;}
	.st84{fill-rule:evenodd;clip-rule:evenodd;fill:#F5F5F5;}
	.st85{fill-rule:evenodd;clip-rule:evenodd;fill:#969696;}
	.st86{fill-rule:evenodd;clip-rule:evenodd;fill:#767676;}
	.st87{fill-rule:evenodd;clip-rule:evenodd;fill:#9E9E9E;}
	.st88{fill-rule:evenodd;clip-rule:evenodd;fill:#B4B4B4;}
	.st89{fill-rule:evenodd;clip-rule:evenodd;fill:#BCBCBC;}
	.st90{fill-rule:evenodd;clip-rule:evenodd;fill:#838383;}
	.st91{fill-rule:evenodd;clip-rule:evenodd;fill:#E5E5E5;}
	.st92{fill-rule:evenodd;clip-rule:evenodd;fill:#AEAEAE;}
	.st93{fill-rule:evenodd;clip-rule:evenodd;fill:#BBBBBB;}
	.st94{fill-rule:evenodd;clip-rule:evenodd;fill:#D8D8D8;}
	.st95{fill-rule:evenodd;clip-rule:evenodd;fill:#8A8A8A;}
	.st96{fill-rule:evenodd;clip-rule:evenodd;fill:#DEDEDE;}
	.st97{fill-rule:evenodd;clip-rule:evenodd;fill:#C9C9C9;}
	.st98{fill-rule:evenodd;clip-rule:evenodd;fill:#A1A1A1;}
	.st99{fill-rule:evenodd;clip-rule:evenodd;fill:#949494;}
	.st100{fill-rule:evenodd;clip-rule:evenodd;fill:#8C8C8C;}
	.st101{fill-rule:evenodd;clip-rule:evenodd;fill:#898989;}
	.st102{fill-rule:evenodd;clip-rule:evenodd;fill:#C2C2C2;}
	.st103{fill-rule:evenodd;clip-rule:evenodd;fill:#AAAAAA;}
	.st104{fill-rule:evenodd;clip-rule:evenodd;fill:#A2A2A2;}
	.st105{fill-rule:evenodd;clip-rule:evenodd;fill:#9F9F9F;}
	.st106{fill-rule:evenodd;clip-rule:evenodd;fill:#8F8F8F;}
	.st107{fill-rule:evenodd;clip-rule:evenodd;fill:#999999;}
	.st108{fill-rule:evenodd;clip-rule:evenodd;fill:#B5B5B5;}
	.st109{fill-rule:evenodd;clip-rule:evenodd;fill:#7D7D7D;}
	.st110{fill-rule:evenodd;clip-rule:evenodd;fill:#A8A8A8;}
	.st111{fill-rule:evenodd;clip-rule:evenodd;fill:#BEBEBE;}
	.st112{fill-rule:evenodd;clip-rule:evenodd;fill:#8D8D8D;}
	.st113{fill-rule:evenodd;clip-rule:evenodd;fill:#828282;}
	.st114{fill-rule:evenodd;clip-rule:evenodd;fill:#B1B1B1;}
	.st115{fill-rule:evenodd;clip-rule:evenodd;fill:#818181;}
	.st116{fill-rule:evenodd;clip-rule:evenodd;fill:#7C7C7C;}
	.st117{fill-rule:evenodd;clip-rule:evenodd;fill:#878787;}
	.st118{fill-rule:evenodd;clip-rule:evenodd;fill:#B6B6B6;}
	.st119{fill-rule:evenodd;clip-rule:evenodd;fill:#939393;}
	.st120{fill-rule:evenodd;clip-rule:evenodd;fill:#797979;}
	.st121{fill-rule:evenodd;clip-rule:evenodd;fill:#B7B7B7;}
	.st122{fill-rule:evenodd;clip-rule:evenodd;fill:#989898;}
	.st123{fill-rule:evenodd;clip-rule:evenodd;fill:#9A9A9A;}
	.st124{fill-rule:evenodd;clip-rule:evenodd;fill:#4E4E4E;}
	.st125{fill-rule:evenodd;clip-rule:evenodd;fill:#A5A5A5;}
	.st126{fill-rule:evenodd;clip-rule:evenodd;fill:#ABABAB;}
	.st127{fill-rule:evenodd;clip-rule:evenodd;fill:#A9A9A9;}
	.st128{fill-rule:evenodd;clip-rule:evenodd;fill:#4A4A4A;}
	.st129{fill-rule:evenodd;clip-rule:evenodd;fill:#686868;}
	.st130{fill-rule:evenodd;clip-rule:evenodd;fill:#2B2B2B;}
	.st131{fill-rule:evenodd;clip-rule:evenodd;fill:#343434;}
	.st132{fill-rule:evenodd;clip-rule:evenodd;fill:#676767;}
	.st133{fill-rule:evenodd;clip-rule:evenodd;fill:#282828;}
	.st134{fill-rule:evenodd;clip-rule:evenodd;fill:#3F3F3F;}
	.st135{fill-rule:evenodd;clip-rule:evenodd;fill:#434343;}
	.st136{fill-rule:evenodd;clip-rule:evenodd;fill:#313131;}
	.st137{fill-rule:evenodd;clip-rule:evenodd;fill:#4B4B4B;}
	.st138{fill-rule:evenodd;clip-rule:evenodd;fill:#4D4D4D;}
	.st139{fill-rule:evenodd;clip-rule:evenodd;fill:#737373;}
	.st140{fill-rule:evenodd;clip-rule:evenodd;fill:#5E5E5E;}
	.st141{fill-rule:evenodd;clip-rule:evenodd;fill:#6F6F6F;}
	.st142{fill-rule:evenodd;clip-rule:evenodd;fill:#626262;}
	.st143{fill-rule:evenodd;clip-rule:evenodd;fill:#717171;}
	.st144{fill-rule:evenodd;clip-rule:evenodd;fill:#868686;}
	.st145{fill-rule:evenodd;clip-rule:evenodd;fill:#A0A0A0;}
	.st146{fill-rule:evenodd;clip-rule:evenodd;fill:#9B9B9B;}
	.st147{fill-rule:evenodd;clip-rule:evenodd;fill:#2A2A2A;}
	.st148{fill-rule:evenodd;clip-rule:evenodd;fill:#2D2D2D;}
	.st149{fill-rule:evenodd;clip-rule:evenodd;fill:#272727;}
	.st150{fill-rule:evenodd;clip-rule:evenodd;fill:#292929;}
	.st151{fill-rule:evenodd;clip-rule:evenodd;fill:#3E3E3E;}
	.st152{fill-rule:evenodd;clip-rule:evenodd;fill:#414141;}
	.st153{fill-rule:evenodd;clip-rule:evenodd;fill:#5B5B5B;}
	.st154{fill-rule:evenodd;clip-rule:evenodd;fill:#545454;}
	.st155{fill-rule:evenodd;clip-rule:evenodd;fill:#565656;}
	.st156{fill-rule:evenodd;clip-rule:evenodd;fill:#555555;}
	.st157{fill-rule:evenodd;clip-rule:evenodd;fill:#515151;}
	.st158{fill-rule:evenodd;clip-rule:evenodd;fill:#A6A6A6;}
	.st159{fill-rule:evenodd;clip-rule:evenodd;fill:#B8B8B8;}
	.st160{fill-rule:evenodd;clip-rule:evenodd;fill:#4F4F4F;}
	.st161{fill-rule:evenodd;clip-rule:evenodd;fill:#464646;}
	.st162{fill-rule:evenodd;clip-rule:evenodd;fill:#424242;}
	.st163{fill-rule:evenodd;clip-rule:evenodd;fill:#A7A7A7;}
	.st164{fill-rule:evenodd;clip-rule:evenodd;fill:#959595;}
	.st165{fill-rule:evenodd;clip-rule:evenodd;fill:#787878;}
	.st166{fill-rule:evenodd;clip-rule:evenodd;fill:#8B8B8B;}
	.st167{fill-rule:evenodd;clip-rule:evenodd;fill:#383838;}
	.st168{fill-rule:evenodd;clip-rule:evenodd;fill:#747474;}
	.st169{fill-rule:evenodd;clip-rule:evenodd;fill:#646464;}
	.st170{fill-rule:evenodd;clip-rule:evenodd;fill:#454545;}
	.st171{fill-rule:evenodd;clip-rule:evenodd;fill:#656565;}
	.st172{fill-rule:evenodd;clip-rule:evenodd;fill:#858585;}
	.st173{fill-rule:evenodd;clip-rule:evenodd;fill:#6D6D6D;}
	.st174{fill-rule:evenodd;clip-rule:evenodd;fill:#9C9C9C;}
	.st175{fill-rule:evenodd;clip-rule:evenodd;fill:#6B6B6B;}
	.st176{fill-rule:evenodd;clip-rule:evenodd;fill:#404040;}
	.st177{fill-rule:evenodd;clip-rule:evenodd;fill:#7A7A7A;}
	.st178{fill-rule:evenodd;clip-rule:evenodd;fill:#7F7F7F;}
	.st179{fill-rule:evenodd;clip-rule:evenodd;fill:#A3A3A3;}
	.st180{fill-rule:evenodd;clip-rule:evenodd;fill:#636363;}
	.st181{fill-rule:evenodd;clip-rule:evenodd;fill:#808080;}
	.st182{fill-rule:evenodd;clip-rule:evenodd;fill:#777777;}
	.st183{fill-rule:evenodd;clip-rule:evenodd;fill:#919191;}
	.st184{fill-rule:evenodd;clip-rule:evenodd;fill:#6A6A6A;}
	.st185{fill-rule:evenodd;clip-rule:evenodd;fill:#262626;}
	.st186{fill-rule:evenodd;clip-rule:evenodd;fill:#575757;}
	.st187{fill-rule:evenodd;clip-rule:evenodd;fill:#5A5A5A;}
	.st188{fill-rule:evenodd;clip-rule:evenodd;fill:#484848;}
	.st189{fill-rule:evenodd;clip-rule:evenodd;fill:#3B3B3B;}
	.st190{fill-rule:evenodd;clip-rule:evenodd;fill:#494949;}
	.st191{fill-rule:evenodd;clip-rule:evenodd;fill:#6E6E6E;}
	.st192{fill-rule:evenodd;clip-rule:evenodd;fill:#AFAFAF;}
	.st193{fill-rule:evenodd;clip-rule:evenodd;fill:#535353;}
	.st194{fill-rule:evenodd;clip-rule:evenodd;fill:#444444;}
	.st195{fill-rule:evenodd;clip-rule:evenodd;fill:#373737;}
	.st196{fill-rule:evenodd;clip-rule:evenodd;fill:#505050;}
	.st197{fill-rule:evenodd;clip-rule:evenodd;fill:#606060;}
	.st198{fill-rule:evenodd;clip-rule:evenodd;fill:#3C3C3C;}
	.st199{fill-rule:evenodd;clip-rule:evenodd;fill:#474747;}
	.st200{fill-rule:evenodd;clip-rule:evenodd;fill:#3D3D3D;}
	.st201{fill-rule:evenodd;clip-rule:evenodd;fill:#7E7E7E;}
	.st202{fill-rule:evenodd;clip-rule:evenodd;fill:#393939;}
	.st203{fill-rule:evenodd;clip-rule:evenodd;fill:#353535;}
	.st204{fill-rule:evenodd;clip-rule:evenodd;fill:#363636;}
	.st205{fill-rule:evenodd;clip-rule:evenodd;fill:#707070;}
	.st206{fill-rule:evenodd;clip-rule:evenodd;fill:#595959;}
	.st207{fill-rule:evenodd;clip-rule:evenodd;fill:#525252;}
	.st208{fill-rule:evenodd;clip-rule:evenodd;fill:#5C5C5C;}
	.st209{fill-rule:evenodd;clip-rule:evenodd;fill:#2C2C2C;}
	.st210{fill-rule:evenodd;clip-rule:evenodd;fill:#666666;}
	.st211{fill-rule:evenodd;clip-rule:evenodd;fill:#7B7B7B;}
	.st212{fill-rule:evenodd;clip-rule:evenodd;fill:#585858;}
	.st213{fill-rule:evenodd;clip-rule:evenodd;fill:#929292;}
	.st214{fill-rule:evenodd;clip-rule:evenodd;fill:#757575;}
	.st215{fill-rule:evenodd;clip-rule:evenodd;fill:#848484;}
	.st216{fill-rule:evenodd;clip-rule:evenodd;fill:#323232;}
	.st217{fill-rule:evenodd;clip-rule:evenodd;fill:#616161;}
	.st218{fill-rule:evenodd;clip-rule:evenodd;fill:#5F5F5F;}
	.st219{fill-rule:evenodd;clip-rule:evenodd;fill:#303030;}
	.st220{fill-rule:evenodd;clip-rule:evenodd;fill:#191919;}
	.st221{fill-rule:evenodd;clip-rule:evenodd;fill:#3A3A3A;}
	.st222{fill-rule:evenodd;clip-rule:evenodd;fill:#888888;}
	.st223{fill-rule:evenodd;clip-rule:evenodd;fill:#242424;}
	.st224{fill-rule:evenodd;clip-rule:evenodd;fill:#222222;}
	.st225{fill-rule:evenodd;clip-rule:evenodd;fill:#2F2F2F;}
	.st226{fill-rule:evenodd;clip-rule:evenodd;fill:#909090;}
	.st227{fill-rule:evenodd;clip-rule:evenodd;fill:#212121;}
	.st228{fill-rule:evenodd;clip-rule:evenodd;fill:#1E1E1E;}
	.st229{fill-rule:evenodd;clip-rule:evenodd;fill:#4C4C4C;}
	.st230{fill-rule:evenodd;clip-rule:evenodd;fill:#1C1C1C;}
	.st231{fill-rule:evenodd;clip-rule:evenodd;fill:#252525;}
	.st232{fill-rule:evenodd;clip-rule:evenodd;fill:#1F1F1F;}
	.st233{fill-rule:evenodd;clip-rule:evenodd;fill:#1A1A1A;}
	.st234{fill-rule:evenodd;clip-rule:evenodd;fill:#1B1B1B;}
	.st235{fill-rule:evenodd;clip-rule:evenodd;fill:#1D1D1D;}
	.st236{fill-rule:evenodd;clip-rule:evenodd;fill:#232323;}
	.st237{fill-rule:evenodd;clip-rule:evenodd;fill:#2E2E2E;}
	.st238{fill-rule:evenodd;clip-rule:evenodd;fill:#333333;}
	.st239{fill-rule:evenodd;clip-rule:evenodd;fill:#202020;}
	.st240{fill-rule:evenodd;clip-rule:evenodd;fill:#151515;}
	.st241{fill-rule:evenodd;clip-rule:evenodd;fill:#171717;}
	.st242{fill-rule:evenodd;clip-rule:evenodd;fill:#101010;}
	.st243{fill-rule:evenodd;clip-rule:evenodd;fill:#5D5D5D;}
	.st244{fill-rule:evenodd;clip-rule:evenodd;fill:#181818;}
	.st245{fill-rule:evenodd;clip-rule:evenodd;fill:#141414;}
	.st246{fill-rule:evenodd;clip-rule:evenodd;fill:#0E0E0E;}
	.st247{fill-rule:evenodd;clip-rule:evenodd;fill:#161616;}
	.st248{fill-rule:evenodd;clip-rule:evenodd;fill:#131313;}
	.st249{fill-rule:evenodd;clip-rule:evenodd;fill:#0D0D0D;}
	.st250{fill-rule:evenodd;clip-rule:evenodd;fill:#111111;}
	.st251{fill-rule:evenodd;clip-rule:evenodd;fill:#060606;}
	.st252{fill-rule:evenodd;clip-rule:evenodd;fill:#0F0F0F;}
	.st253{fill-rule:evenodd;clip-rule:evenodd;fill:#0B0B0B;}
	.st254{fill-rule:evenodd;clip-rule:evenodd;fill:#121212;}
	.st255{fill-rule:evenodd;clip-rule:evenodd;fill:#0C0C0C;}
	.st256{fill-rule:evenodd;clip-rule:evenodd;fill:#090909;}
	.st257{fill-rule:evenodd;clip-rule:evenodd;fill:#0A0A0A;}
	.st258{fill-rule:evenodd;clip-rule:evenodd;fill:#070707;}
	.st259{fill-rule:evenodd;clip-rule:evenodd;fill:#080808;}
	.st260{fill-rule:evenodd;clip-rule:evenodd;fill:#040404;}
	.st261{fill-rule:evenodd;clip-rule:evenodd;fill:#050505;}
	.st262{fill:#C2C2C0;}
	.st263{fill:#7A7977;}
	.st264{fill:#EDEDED;}
	.st265{opacity:0.7;}
	.st266{opacity:0.6;fill-rule:evenodd;clip-rule:evenodd;fill:#529FA2;}
	.st267{fill:#F1F1F2;}
	.st268{fill:#63BC8F;}
	.st269{opacity:0.58;fill:#A2A4A7;}
	.st270{fill:#FFFFFF;}
	.st271{fill:#FBBB76;}
	.st272{fill:#6586B5;}
	.st273{fill:#CFD0D2;}
	.st274{opacity:0.58;fill:#D7D8DA;}
	.st275{fill:#FBB756;}
	.st276{fill:#FCD745;}
	.st277{fill:#231F20;}
	.st278{fill:#F58435;}
	.st279{opacity:0.5;fill:#05A23F;}
	.st280{fill:#C48956;}
	.st281{fill:#C2C2C2;}
	.st282{fill:#373737;}
	.st283{fill:#424242;}
	.st284{opacity:0.1;fill:#212121;}
	.st285{fill:#EEEEEE;}
	.st286{fill:#E0E0E0;}
	.st287{fill:#606060;}
	.st288{fill:none;}
	.st289{fill:#BABABA;}
	.st290{opacity:0.05;}
	.st291{opacity:0.3;fill:#FFFFFF;}
	.st292{fill:#8A8A8A;}
	.st293{fill:#E6E6E6;}
	.st294{opacity:0.15;}
	.st295{fill:#2C7300;}
	.st296{fill:#378F00;}
	.st297{fill:#FAB700;}
	.st298{fill:#BA8800;}
	.st299{fill:#FFD154;}
	.st300{fill:#66C30F;}
	.st301{fill:#808080;}
	.st302{clip-path:url(#SVGID_2_);}
	.st303{fill:#40A0DF;}
	.st304{opacity:0.7;fill:#CE0B10;}
	.st305{fill-rule:evenodd;clip-rule:evenodd;fill:#FFCE3D;}
	.st306{fill-rule:evenodd;clip-rule:evenodd;fill:#482A4A;}
	.st307{opacity:0.4;}
	.st308{fill:#F4F0EF;}
	.st309{clip-path:url(#SVGID_7_);}
	.st310{clip-path:url(#SVGID_9_);fill:url(#SVGID_10_);}
	.st311{fill:url(#SVGID_11_);}
	.st312{fill:url(#SVGID_12_);}
	.st313{fill:url(#SVGID_13_);}
	.st314{opacity:0;fill:#FFFFFF;}
	.st315{opacity:0.0164;fill:#FFFFFF;}
	.st316{opacity:0.0328;fill:#FFFFFF;}
	.st317{opacity:0.0492;fill:#FFFFFF;}
	.st318{opacity:0.0656;fill:#FFFFFF;}
	.st319{opacity:0.082;fill:#FFFFFF;}
	.st320{opacity:0.0984;fill:#FFFFFF;}
	.st321{opacity:0.1148;fill:#FFFFFF;}
	.st322{opacity:0.1311;fill:#FFFFFF;}
	.st323{opacity:0.1475;fill:#FFFFFF;}
	.st324{opacity:0.1639;fill:#FFFFFF;}
	.st325{opacity:0.1803;fill:#FFFFFF;}
	.st326{opacity:0.1967;fill:#FFFFFF;}
	.st327{opacity:0.2131;fill:#FFFFFF;}
	.st328{opacity:0.2295;fill:#FFFFFF;}
	.st329{opacity:0.2459;fill:#FFFFFF;}
	.st330{opacity:0.2623;fill:#FFFFFF;}
	.st331{opacity:0.2787;fill:#FFFFFF;}
	.st332{opacity:0.2951;fill:#FFFFFF;}
	.st333{opacity:0.3115;fill:#FFFFFF;}
	.st334{opacity:0.3279;fill:#FFFFFF;}
	.st335{opacity:0.3443;fill:#FFFFFF;}
	.st336{opacity:0.3607;fill:#FFFFFF;}
	.st337{opacity:0.377;fill:#FFFFFF;}
	.st338{opacity:0.3934;fill:#FFFFFF;}
	.st339{opacity:0.4098;fill:#FFFFFF;}
	.st340{opacity:0.4262;fill:#FFFFFF;}
	.st341{opacity:0.4426;fill:#FFFFFF;}
	.st342{opacity:0.459;fill:#FFFFFF;}
	.st343{opacity:0.4754;fill:#FFFFFF;}
	.st344{opacity:0.4918;fill:#FFFFFF;}
	.st345{opacity:0.5082;fill:#FFFFFF;}
	.st346{opacity:0.5246;fill:#FFFFFF;}
	.st347{opacity:0.541;fill:#FFFFFF;}
	.st348{opacity:0.5574;fill:#FFFFFF;}
	.st349{opacity:0.5738;fill:#FFFFFF;}
	.st350{opacity:0.5902;fill:#FFFFFF;}
	.st351{opacity:0.6066;fill:#FFFFFF;}
	.st352{opacity:0.623;fill:#FFFFFF;}
	.st353{opacity:0.6393;fill:#FFFFFF;}
	.st354{opacity:0.6557;fill:#FFFFFF;}
	.st355{opacity:0.6721;fill:#FFFFFF;}
	.st356{opacity:0.6885;fill:#FFFFFF;}
	.st357{opacity:0.7049;fill:#FFFFFF;}
	.st358{opacity:0.7213;fill:#FFFFFF;}
	.st359{opacity:0.7377;fill:#FFFFFF;}
	.st360{opacity:0.7541;fill:#FFFFFF;}
	.st361{opacity:0.7705;fill:#FFFFFF;}
	.st362{opacity:0.7869;fill:#FFFFFF;}
	.st363{opacity:0.8033;fill:#FFFFFF;}
	.st364{opacity:0.8197;fill:#FFFFFF;}
	.st365{opacity:0.8361;fill:#FFFFFF;}
	.st366{opacity:0.8525;fill:#FFFFFF;}
	.st367{opacity:0.8689;fill:#FFFFFF;}
	.st368{opacity:0.8852;fill:#FFFFFF;}
	.st369{opacity:0.9016;fill:#FFFFFF;}
	.st370{opacity:0.918;fill:#FFFFFF;}
	.st371{opacity:0.9344;fill:#FFFFFF;}
	.st372{opacity:0.9508;fill:#FFFFFF;}
	.st373{opacity:0.9672;fill:#FFFFFF;}
	.st374{opacity:0.9836;fill:#FFFFFF;}
	.st375{fill:#69E6F9;}
	.st376{filter:url(#Adobe_OpacityMaskFilter);}
	.st377{filter:url(#Adobe_OpacityMaskFilter_1_);}
	.st378{mask:url(#SVGID_14_);fill:url(#SVGID_15_);}
	.st379{fill:url(#SVGID_16_);}
	.st380{clip-path:url(#SVGID_18_);fill:url(#SVGID_19_);}
	.st381{fill:url(#SVGID_20_);}
	.st382{fill:url(#SVGID_21_);}
	.st383{filter:url(#Adobe_OpacityMaskFilter_2_);}
	.st384{filter:url(#Adobe_OpacityMaskFilter_3_);}
	.st385{mask:url(#SVGID_22_);fill:url(#SVGID_23_);}
	.st386{fill:url(#SVGID_24_);}
	.st387{opacity:0.7;fill:url(#SVGID_25_);}
	.st388{fill:url(#SVGID_26_);}
	.st389{filter:url(#Adobe_OpacityMaskFilter_4_);}
	.st390{filter:url(#Adobe_OpacityMaskFilter_5_);}
	.st391{mask:url(#SVGID_27_);fill:url(#SVGID_28_);}
	.st392{fill:url(#SVGID_29_);}
	.st393{opacity:0.6;fill:url(#SVGID_30_);}
	.st394{fill:url(#SVGID_31_);}
	.st395{filter:url(#Adobe_OpacityMaskFilter_6_);}
	.st396{filter:url(#Adobe_OpacityMaskFilter_7_);}
	.st397{mask:url(#SVGID_32_);fill:url(#SVGID_33_);}
	.st398{opacity:0.7;fill:url(#SVGID_34_);}
	.st399{opacity:0;fill:#6D747A;}
	.st400{opacity:0.0164;fill:#6D747A;}
	.st401{opacity:0.0328;fill:#6D747A;}
	.st402{opacity:0.0492;fill:#6D747A;}
	.st403{opacity:0.0656;fill:#6D747A;}
	.st404{opacity:0.082;fill:#6D747A;}
	.st405{opacity:0.0984;fill:#6D747A;}
	.st406{opacity:0.1148;fill:#6D747A;}
	.st407{opacity:0.1311;fill:#6D747A;}
	.st408{opacity:0.1475;fill:#6D747A;}
	.st409{opacity:0.1639;fill:#6D747A;}
	.st410{opacity:0.1803;fill:#6D747A;}
	.st411{opacity:0.1967;fill:#6D747A;}
	.st412{opacity:0.2131;fill:#6D747A;}
	.st413{opacity:0.2295;fill:#6D747A;}
	.st414{opacity:0.2459;fill:#6D747A;}
	.st415{opacity:0.2623;fill:#6D747A;}
	.st416{opacity:0.2787;fill:#6D747A;}
	.st417{opacity:0.2951;fill:#6D747A;}
	.st418{opacity:0.3115;fill:#6D747A;}
	.st419{opacity:0.3279;fill:#6D747A;}
	.st420{opacity:0.3443;fill:#6D747A;}
	.st421{opacity:0.3607;fill:#6D747A;}
	.st422{opacity:0.377;fill:#6D747A;}
	.st423{opacity:0.3934;fill:#6D747A;}
	.st424{opacity:0.4098;fill:#6D747A;}
	.st425{opacity:0.4262;fill:#6D747A;}
	.st426{opacity:0.4426;fill:#6D747A;}
	.st427{opacity:0.459;fill:#6D747A;}
	.st428{opacity:0.4754;fill:#6D747A;}
	.st429{opacity:0.4918;fill:#6D747A;}
	.st430{opacity:0.5082;fill:#6D747A;}
	.st431{opacity:0.5246;fill:#6D747A;}
	.st432{opacity:0.541;fill:#6D747A;}
	.st433{opacity:0.5574;fill:#6D747A;}
	.st434{opacity:0.5738;fill:#6D747A;}
	.st435{opacity:0.5902;fill:#6D747A;}
	.st436{opacity:0.6066;fill:#6D747A;}
	.st437{opacity:0.623;fill:#6D747A;}
	.st438{opacity:0.6393;fill:#6D747A;}
	.st439{opacity:0.6557;fill:#6D747A;}
	.st440{opacity:0.6721;fill:#6D747A;}
	.st441{opacity:0.6885;fill:#6D747A;}
	.st442{opacity:0.7049;fill:#6D747A;}
	.st443{opacity:0.7213;fill:#6D747A;}
	.st444{opacity:0.7377;fill:#6D747A;}
	.st445{opacity:0.7541;fill:#6D747A;}
	.st446{opacity:0.7705;fill:#6D747A;}
	.st447{opacity:0.7869;fill:#6D747A;}
	.st448{opacity:0.8033;fill:#6D747A;}
	.st449{opacity:0.8197;fill:#6D747A;}
	.st450{opacity:0.8361;fill:#6D747A;}
	.st451{opacity:0.8525;fill:#6D747A;}
	.st452{opacity:0.8689;fill:#6D747A;}
	.st453{opacity:0.8852;fill:#6D747A;}
	.st454{opacity:0.9016;fill:#6D747A;}
	.st455{opacity:0.918;fill:#6D747A;}
	.st456{opacity:0.9344;fill:#6D747A;}
	.st457{opacity:0.9508;fill:#6D747A;}
	.st458{opacity:0.9672;fill:#6D747A;}
	.st459{opacity:0.9836;fill:#6D747A;}
	.st460{fill:#6D747A;}
	.st461{fill:#B1EFF9;}
	.st462{fill:#66AFCC;}
	.st463{fill:#FDFCFC;}
	.st464{fill:#ABDFF3;}
	.st465{fill:#76CBEE;}
	.st466{opacity:0.5;fill-rule:evenodd;clip-rule:evenodd;fill:#FFCE3D;}
	.st467{fill:#39B54A;}
	.st468{fill:#3A1700;}
	.st469{fill:#FF5757;}
	.st470{opacity:0.29;fill:#B50000;}
	.st471{filter:url(#Adobe_OpacityMaskFilter_8_);}
	.st472{filter:url(#Adobe_OpacityMaskFilter_9_);}
	.st473{mask:url(#SVGID_35_);fill:url(#SVGID_36_);}
	.st474{fill:url(#SVGID_37_);}
	.st475{opacity:0.13;fill:#990000;}
	.st476{filter:url(#Adobe_OpacityMaskFilter_10_);}
	.st477{filter:url(#Adobe_OpacityMaskFilter_11_);}
	.st478{mask:url(#SVGID_38_);fill:url(#SVGID_39_);}
	.st479{opacity:0.38;fill:url(#SVGID_40_);}
	.st480{fill:#62432D;}
	.st481{filter:url(#Adobe_OpacityMaskFilter_12_);}
	.st482{filter:url(#Adobe_OpacityMaskFilter_13_);}
	.st483{mask:url(#SVGID_41_);fill:url(#SVGID_42_);}
	.st484{opacity:0.25;fill:url(#SVGID_43_);}
	.st485{opacity:0.32;fill:#331601;}
	.st486{fill:#E7D39C;}
	.st487{fill:#BC9D58;}
	.st488{fill:#D6BD7F;}
	.st489{filter:url(#Adobe_OpacityMaskFilter_14_);}
	.st490{filter:url(#Adobe_OpacityMaskFilter_15_);}
	.st491{mask:url(#SVGID_44_);fill:url(#SVGID_45_);}
	.st492{fill:url(#SVGID_46_);}
	.st493{fill:#87A7C2;}
	.st494{opacity:0.36;fill:#D3BE66;}
	.st495{filter:url(#Adobe_OpacityMaskFilter_16_);}
	.st496{filter:url(#Adobe_OpacityMaskFilter_17_);}
	.st497{mask:url(#SVGID_47_);fill:url(#SVGID_48_);}
	.st498{opacity:0.54;fill:url(#SVGID_49_);}
	.st499{fill:#6790A6;}
	.st500{fill:#7A5338;}
	.st501{filter:url(#Adobe_OpacityMaskFilter_18_);}
	.st502{filter:url(#Adobe_OpacityMaskFilter_19_);}
	.st503{mask:url(#SVGID_50_);fill:url(#SVGID_51_);}
	.st504{fill:url(#SVGID_52_);}
	.st505{filter:url(#Adobe_OpacityMaskFilter_20_);}
	.st506{filter:url(#Adobe_OpacityMaskFilter_21_);}
	.st507{mask:url(#SVGID_53_);fill:url(#SVGID_54_);}
	.st508{fill:url(#SVGID_55_);}
	.st509{filter:url(#Adobe_OpacityMaskFilter_22_);}
	.st510{filter:url(#Adobe_OpacityMaskFilter_23_);}
	.st511{mask:url(#SVGID_56_);fill:url(#SVGID_57_);}
	.st512{fill:url(#SVGID_58_);}
	.st513{opacity:0.23;fill:#331601;}
	.st514{opacity:0.17;fill:#331601;}
	.st515{filter:url(#Adobe_OpacityMaskFilter_24_);}
	.st516{filter:url(#Adobe_OpacityMaskFilter_25_);}
	.st517{mask:url(#SVGID_59_);fill:url(#SVGID_60_);}
	.st518{fill:url(#SVGID_61_);}
	.st519{filter:url(#Adobe_OpacityMaskFilter_26_);}
	.st520{filter:url(#Adobe_OpacityMaskFilter_27_);}
	.st521{mask:url(#SVGID_62_);fill:url(#SVGID_63_);}
	.st522{fill:url(#SVGID_64_);}
	.st523{filter:url(#Adobe_OpacityMaskFilter_28_);}
	.st524{filter:url(#Adobe_OpacityMaskFilter_29_);}
	.st525{mask:url(#SVGID_65_);fill:url(#SVGID_66_);}
	.st526{fill:url(#SVGID_67_);}
	.st527{fill:#473122;}
	.st528{filter:url(#Adobe_OpacityMaskFilter_30_);}
	.st529{filter:url(#Adobe_OpacityMaskFilter_31_);}
	.st530{mask:url(#SVGID_68_);fill:url(#SVGID_69_);}
	.st531{fill:url(#SVGID_70_);}
	.st532{filter:url(#Adobe_OpacityMaskFilter_32_);}
	.st533{filter:url(#Adobe_OpacityMaskFilter_33_);}
	.st534{mask:url(#SVGID_71_);fill:url(#SVGID_72_);}
	.st535{fill:url(#SVGID_73_);}
	.st536{opacity:0.09;fill:#680200;}
	.st537{filter:url(#Adobe_OpacityMaskFilter_34_);}
	.st538{filter:url(#Adobe_OpacityMaskFilter_35_);}
	.st539{mask:url(#SVGID_74_);fill:url(#SVGID_75_);}
	.st540{opacity:0.52;fill:url(#SVGID_76_);}
	.st541{filter:url(#Adobe_OpacityMaskFilter_36_);}
	.st542{filter:url(#Adobe_OpacityMaskFilter_37_);}
	.st543{mask:url(#SVGID_77_);fill:url(#SVGID_78_);}
	.st544{fill:url(#SVGID_79_);}
	.st545{filter:url(#Adobe_OpacityMaskFilter_38_);}
	.st546{filter:url(#Adobe_OpacityMaskFilter_39_);}
	.st547{mask:url(#SVGID_80_);fill:url(#SVGID_81_);}
	.st548{fill:url(#SVGID_82_);}
	.st549{fill:#798B3E;}
	.st550{fill:#60701E;}
	.st551{fill:#00A652;}
	.st552{fill:#4DB748;}
	.st553{fill:#BFD630;}
	.st554{fill:#FEF200;}
	.st555{fill:#FDB813;}
	.st556{fill:#F37022;}
	.st557{fill:#E4332D;}
	.st558{opacity:0.7;fill-rule:evenodd;clip-rule:evenodd;fill:#CCCCCC;}
	.st559{fill:#FEF4A7;}
	.st560{fill:url(#SVGID_83_);}
	.st561{fill:#CBCBCB;}
	.st562{fill:#999999;}
	.st563{fill:#E71F28;}
	.st564{fill:#CF1B22;}
	.st565{fill:#EA1C25;}
	.st566{fill:#F49424;}
	.st567{fill:#FBBF61;}
	.st568{fill:#D3801E;}
	.st569{fill:#F9AF3F;}
	.st570{fill:#CD8026;}
	.st571{fill:#FEFEFD;}
	.st572{fill:#7A7A7A;}
	.st573{fill:#E5E5E5;}
	.st574{fill:#B2B2B2;}
	.st575{fill:url(#SVGID_84_);}
	.st576{fill:url(#SVGID_85_);}
	.st577{fill:url(#SVGID_86_);}
	.st578{opacity:0.7;fill:#FEF4A7;}
	.st579{clip-path:url(#XMLID_11_);fill:#E07E39;}
	.st580{clip-path:url(#XMLID_11_);}
	.st581{fill:#E07E39;}
	.st582{clip-path:url(#XMLID_12_);}
	.st583{fill:#207D7B;}
	.st584{clip-path:url(#XMLID_12_);fill:none;stroke:#207D7B;stroke-width:4;stroke-miterlimit:10;}
	.st585{clip-path:url(#XMLID_12_);fill:#207D7B;}
	.st586{clip-path:url(#XMLID_12_);fill:none;stroke:#207D7B;stroke-width:2;stroke-miterlimit:10;}
	.st587{clip-path:url(#XMLID_13_);fill:none;stroke:#9C4842;stroke-width:4;stroke-linecap:round;stroke-miterlimit:10;}
	.st588{clip-path:url(#XMLID_13_);fill:none;stroke:#FFFFFF;stroke-width:4;stroke-linecap:round;stroke-miterlimit:10;}
	.st589{opacity:0.5;clip-path:url(#XMLID_13_);fill:#9C4842;}
	.st590{clip-path:url(#XMLID_13_);fill:#FFFFFF;}
	.st591{clip-path:url(#XMLID_13_);}
	.st592{fill:#9C4842;}
	.st593{clip-path:url(#XMLID_13_);fill:none;stroke:#9C4842;stroke-width:3;stroke-miterlimit:10;}
	.st594{fill:none;stroke:#FFD000;stroke-width:3;stroke-linecap:round;stroke-miterlimit:10;}
	.st595{fill:#FF6A28;}
	.st596{fill-rule:evenodd;clip-rule:evenodd;fill:#C48956;}
	.st597{fill:#766864;}
	.st598{fill:#E2D2BD;}
	.st599{fill:#574947;}
	.st600{fill:#3F3432;}
	.st601{fill:#796558;}
	.st602{fill:#EE7927;}
	.st603{fill:#EA5C29;}
	.st604{fill:#F18B20;}
	.st605{fill:#5B4C48;}
	.st606{opacity:0.47;fill:url(#XMLID_14_);}
	.st607{fill:#45B8EA;}
	.st608{fill:#E53519;}
	.st609{fill:#3EACD2;}
	.st610{fill:#D42028;}
	.st611{fill:#F09E4A;}
	.st612{clip-path:url(#SVGID_88_);}
	.st613{fill:#B8B7B8;}
	.st614{fill:#B8B8B8;}
	.st615{fill:url(#SVGID_89_);}
	.st616{fill:#403D3C;}
	.st617{fill:url(#SVGID_90_);}
	.st618{fill:url(#SVGID_91_);}
	.st619{fill:url(#SVGID_92_);}
	.st620{fill:url(#SVGID_93_);}
	.st621{fill:#EEEFEF;}
	.st622{fill:url(#SVGID_94_);}
	.st623{fill:url(#SVGID_95_);}
	.st624{fill:url(#SVGID_96_);}
	.st625{fill:url(#SVGID_97_);}
	.st626{clip-path:url(#SVGID_99_);}
	.st627{fill:#737171;}
	.st628{fill:#6F6D6D;}
	.st629{fill:#6C6969;}
	.st630{fill:#686666;}
	.st631{fill:#646262;}
	.st632{fill:#605E5E;}
	.st633{fill:#5D5A5A;}
	.st634{fill:#595757;}
	.st635{fill:#555353;}
	.st636{fill:#524F4F;}
	.st637{fill:#4E4B4B;}
	.st638{fill:#4A4848;}
	.st639{fill:#464444;}
	.st640{fill:#434040;}
	.st641{fill:#3F3C3C;}
	.st642{fill:#3B3939;}
	.st643{fill:#373535;}
	.st644{fill:#343131;}
	.st645{fill:#302D2D;}
	.st646{fill:#2C2A2A;}
	.st647{fill:#292626;}
	.st648{fill:#252222;}
	.st649{fill:#211E1E;}
	.st650{fill:#1D1B1B;}
	.st651{fill:#1A1717;}
	.st652{fill:#161313;}
	.st653{fill:url(#SVGID_100_);}
	.st654{fill:url(#SVGID_101_);}
	.st655{fill:#ED7F78;}
	.st656{fill:#FFC700;}
	.st657{fill:#333333;}
	.st658{fill:#616161;}
	.st659{fill:#757575;}
	.st660{fill:#F7F7F7;}
	.st661{opacity:0.3;}
	.st662{fill:#FBFBFB;}
	.st663{fill:#F1F1F1;}
	.st664{clip-path:url(#SVGID_103_);}
	.st665{fill-rule:evenodd;clip-rule:evenodd;fill:#CA8BD0;}
	.st666{fill:#EF676E;}
	.st667{fill:#DA4547;}
	.st668{fill:#BC2B33;}
	.st669{fill:#F4DABF;}
	.st670{fill:#EAC0A0;}
	.st671{opacity:0.1;fill:#F9F7F7;}
	.st672{fill-rule:evenodd;clip-rule:evenodd;fill:#749AD0;}
	.st673{fill:#383838;}
	.st674{fill:url(#SVGID_104_);}
	.st675{fill:url(#SVGID_105_);}
	.st676{fill:url(#SVGID_106_);}
	.st677{fill:url(#SVGID_107_);}
	.st678{fill:url(#SVGID_108_);}
	.st679{fill:url(#SVGID_109_);}
	.st680{fill:url(#SVGID_110_);}
	.st681{fill:url(#SVGID_111_);}
	.st682{fill:url(#SVGID_112_);}
	.st683{fill:url(#SVGID_113_);}
	.st684{fill:url(#SVGID_114_);}
	.st685{fill:url(#SVGID_115_);}
	.st686{fill:url(#SVGID_116_);}
	.st687{fill:url(#SVGID_117_);}
	.st688{fill:url(#SVGID_118_);}
	.st689{fill:url(#SVGID_119_);}
	.st690{fill:url(#SVGID_120_);}
	.st691{fill:url(#SVGID_121_);}
	.st692{fill:url(#SVGID_122_);}
	.st693{fill:url(#SVGID_123_);}
	.st694{fill:url(#SVGID_124_);}
	.st695{fill:url(#SVGID_125_);}
	.st696{fill:url(#SVGID_126_);}
	.st697{fill:url(#SVGID_127_);}
	.st698{fill:url(#SVGID_128_);}
	.st699{fill:url(#SVGID_129_);}
	.st700{fill:url(#SVGID_130_);}
	.st701{fill:url(#SVGID_131_);}
	.st702{fill:url(#SVGID_132_);}
	.st703{fill:url(#SVGID_133_);}
	.st704{fill:url(#SVGID_134_);}
	.st705{fill:url(#SVGID_135_);}
	.st706{fill:url(#SVGID_136_);}
	.st707{fill:url(#SVGID_137_);}
	.st708{fill:url(#SVGID_138_);}
	.st709{fill:url(#SVGID_139_);}
	.st710{fill:url(#SVGID_140_);}
	.st711{fill:url(#SVGID_141_);}
	.st712{fill:url(#SVGID_142_);}
	.st713{fill:url(#SVGID_143_);}
	.st714{fill:url(#SVGID_144_);}
	.st715{fill:url(#SVGID_145_);}
	.st716{fill:url(#SVGID_146_);}
	.st717{fill:url(#SVGID_147_);}
	.st718{fill:url(#SVGID_148_);}
	.st719{fill:url(#SVGID_149_);}
	.st720{fill:url(#SVGID_150_);}
	.st721{fill:url(#SVGID_151_);}
	.st722{fill:url(#SVGID_152_);}
	.st723{fill:url(#SVGID_153_);}
	.st724{fill:url(#SVGID_154_);}
	.st725{fill:url(#SVGID_155_);}
	.st726{fill:url(#SVGID_156_);}
	.st727{fill:url(#SVGID_157_);}
	.st728{fill:#C1272D;}
	.st729{fill:#52C961;}
	.st730{fill:#F72735;}
	.st731{opacity:0.8;fill-rule:evenodd;clip-rule:evenodd;fill:#CCCCCC;}
	.st732{clip-path:url(#SVGID_162_);}
	.st733{clip-path:url(#SVGID_164_);fill:url(#SVGID_165_);}
	.st734{fill:url(#SVGID_166_);}
	.st735{fill:url(#SVGID_167_);}
	.st736{fill:url(#SVGID_168_);}
	.st737{filter:url(#Adobe_OpacityMaskFilter_40_);}
	.st738{filter:url(#Adobe_OpacityMaskFilter_41_);}
	.st739{mask:url(#SVGID_169_);fill:url(#SVGID_170_);}
	.st740{fill:url(#SVGID_171_);}
	.st741{clip-path:url(#SVGID_173_);fill:url(#SVGID_174_);}
	.st742{fill:url(#SVGID_175_);}
	.st743{fill:url(#SVGID_176_);}
	.st744{filter:url(#Adobe_OpacityMaskFilter_42_);}
	.st745{filter:url(#Adobe_OpacityMaskFilter_43_);}
	.st746{mask:url(#SVGID_177_);fill:url(#SVGID_178_);}
	.st747{fill:url(#SVGID_179_);}
	.st748{opacity:0.7;fill:url(#SVGID_180_);}
	.st749{fill:url(#SVGID_181_);}
	.st750{filter:url(#Adobe_OpacityMaskFilter_44_);}
	.st751{filter:url(#Adobe_OpacityMaskFilter_45_);}
	.st752{mask:url(#SVGID_182_);fill:url(#SVGID_183_);}
	.st753{fill:url(#SVGID_184_);}
	.st754{opacity:0.6;fill:url(#SVGID_185_);}
	.st755{fill:url(#SVGID_186_);}
	.st756{filter:url(#Adobe_OpacityMaskFilter_46_);}
	.st757{filter:url(#Adobe_OpacityMaskFilter_47_);}
	.st758{mask:url(#SVGID_187_);fill:url(#SVGID_188_);}
	.st759{opacity:0.7;fill:url(#SVGID_189_);}
	.st760{opacity:0.47;fill:url(#XMLID_16_);}
	.st761{opacity:0.6;fill-rule:evenodd;clip-rule:evenodd;fill:#C48956;}
	.st762{clip-path:url(#SVGID_191_);}
	.st763{fill:url(#SVGID_192_);}
	.st764{fill:url(#SVGID_193_);}
	.st765{fill:url(#SVGID_194_);}
	.st766{fill:url(#SVGID_195_);}
	.st767{fill:url(#SVGID_196_);}
	.st768{fill:url(#SVGID_197_);}
	.st769{fill:url(#SVGID_198_);}
	.st770{fill:url(#SVGID_199_);}
	.st771{fill:url(#SVGID_200_);}
	.st772{clip-path:url(#SVGID_202_);}
	.st773{fill:url(#SVGID_203_);}
	.st774{fill:url(#SVGID_204_);}
	.st775{opacity:0.5;fill:#F09E4A;}
	.st776{fill:url(#SVGID_205_);}
	.st777{fill:url(#SVGID_206_);}
	.st778{fill:url(#SVGID_207_);}
	.st779{fill:url(#SVGID_208_);}
	.st780{fill:url(#SVGID_209_);}
	.st781{fill:url(#SVGID_210_);}
	.st782{fill:url(#SVGID_211_);}
	.st783{fill:url(#SVGID_212_);}
	.st784{fill:url(#SVGID_213_);}
	.st785{fill:url(#SVGID_214_);}
	.st786{fill:url(#SVGID_215_);}
	.st787{fill:url(#SVGID_216_);}
	.st788{fill:url(#SVGID_217_);}
	.st789{fill:url(#SVGID_218_);}
	.st790{fill:url(#SVGID_219_);}
	.st791{fill:url(#SVGID_220_);}
	.st792{fill:url(#SVGID_221_);}
	.st793{fill:url(#SVGID_222_);}
	.st794{fill:url(#SVGID_223_);}
	.st795{fill:url(#SVGID_224_);}
	.st796{fill:url(#SVGID_225_);}
	.st797{fill:url(#SVGID_226_);}
	.st798{fill:url(#SVGID_227_);}
	.st799{fill:url(#SVGID_228_);}
	.st800{fill:url(#SVGID_229_);}
	.st801{fill:url(#SVGID_230_);}
	.st802{fill:url(#SVGID_231_);}
	.st803{fill:url(#SVGID_232_);}
	.st804{fill:url(#SVGID_233_);}
	.st805{fill:url(#SVGID_234_);}
	.st806{fill:url(#SVGID_235_);}
	.st807{fill:url(#SVGID_236_);}
	.st808{fill:url(#SVGID_237_);}
	.st809{fill:url(#SVGID_238_);}
	.st810{fill:url(#SVGID_239_);}
	.st811{fill:url(#SVGID_240_);}
	.st812{fill:url(#SVGID_241_);}
	.st813{fill:url(#SVGID_242_);}
	.st814{fill:url(#SVGID_243_);}
	.st815{fill:url(#SVGID_244_);}
	.st816{fill:url(#SVGID_245_);}
	.st817{fill:url(#SVGID_246_);}
	.st818{fill:url(#SVGID_247_);}
	.st819{fill:url(#SVGID_248_);}
	.st820{fill:url(#SVGID_249_);}
	.st821{fill:url(#SVGID_250_);}
	.st822{fill:url(#SVGID_251_);}
	.st823{fill:url(#SVGID_252_);}
	.st824{fill:url(#SVGID_253_);}
	.st825{fill:url(#SVGID_254_);}
	.st826{fill:url(#SVGID_255_);}
	.st827{fill:url(#SVGID_256_);}
	.st828{fill:url(#SVGID_257_);}
	.st829{fill:url(#SVGID_258_);}
	.st830{opacity:0.6;fill-rule:evenodd;clip-rule:evenodd;fill:#749AD0;}
</style>
<g>
	<polygon class="st551" points="526.23,192.89 48.26,192.89 48.26,51.93 526.23,51.93 582.62,118.57 	"/>
	<polygon class="st552" points="236.34,261.32 48.26,261.32 48.26,215.45 236.34,215.45 254.68,237.14 	"/>
	<polygon class="st553" points="288.88,316.37 48.26,316.37 48.26,270.5 288.88,270.5 307.23,292.18 	"/>
	<polygon class="st554" points="337.67,371.42 48.26,371.42 48.26,325.54 337.67,325.54 356.02,347.23 	"/>
	<polygon class="st555" points="390.63,425.63 48.26,425.63 48.26,379.76 390.63,379.76 408.98,401.44 	"/>
	<polygon class="st556" points="437.34,482.35 48.26,482.35 48.26,436.47 437.34,436.47 455.69,458.16 	"/>
	<polygon class="st730" points="488.64,536.14 48.26,536.14 48.26,490.27 488.64,490.27 506.98,511.95 	"/>
	<g>
		<path class="st270" d="M128.56,140.32l-5.38,19.4h-17.72l23.1-75.58H151l23.44,75.58h-18.39l-5.83-19.4H128.56z M147.74,127.54
			l-4.72-16.04c-1.34-4.49-2.69-10.1-3.81-14.58h-0.22c-1.12,4.48-2.24,10.2-3.47,14.58l-4.49,16.04H147.74z"/>
	</g>
	<g>
		<path class="st270" d="M223.58,92.37v24.45h23.44v10.54h-23.44v24.67H212.6v-24.67h-23.43v-10.54h23.43V92.37H223.58z"/>
	</g>
	<g>
		<path class="st270" d="M290.9,92.37v24.45h23.44v10.54H290.9v24.67h-10.99v-24.67h-23.44v-10.54h23.44V92.37H290.9z"/>
	</g>
	<g>
		<path class="st270" d="M74.39,244.23l-1.75,6.3h-5.77l7.51-24.57h7.29l7.62,24.57h-5.99l-1.9-6.3H74.39z M80.62,240.07l-1.53-5.21
			c-0.45-1.46-0.88-3.28-1.24-4.73h-0.08c-0.36,1.45-0.72,3.32-1.13,4.73l-1.45,5.21H80.62z"/>
	</g>
	<g>
		<path class="st270" d="M105.3,228.64v7.95h7.62v3.42h-7.62v8.02h-3.57v-8.02h-7.61v-3.42h7.61v-7.95H105.3z"/>
	</g>
	<g>
		<path class="st270" d="M127.2,228.64v7.95h7.62v3.42h-7.62v8.02h-3.57v-8.02h-7.61v-3.42h7.61v-7.95H127.2z"/>
	</g>
	<g>
		<path class="st270" d="M74.39,298.85l-1.75,6.3h-5.77l7.51-24.57h7.29l7.62,24.57h-5.99l-1.9-6.3H74.39z M80.62,294.7l-1.53-5.21
			c-0.45-1.46-0.88-3.28-1.24-4.74h-0.08c-0.36,1.46-0.72,3.32-1.13,4.74l-1.45,5.21H80.62z"/>
	</g>
	<g>
		<path class="st270" d="M74.39,353.9l-1.75,6.3h-5.77l7.51-24.57h7.29l7.62,24.57h-5.99l-1.9-6.3H74.39z M80.62,349.75l-1.53-5.21
			c-0.45-1.46-0.88-3.28-1.24-4.74h-0.08c-0.36,1.46-0.72,3.32-1.13,4.74l-1.45,5.21H80.62z"/>
	</g>
	<g>
		<path class="st270" d="M68.66,389.13c1.46-0.29,4.42-0.51,7.19-0.51c3.39,0,5.46,0.33,7.25,1.38c1.72,0.91,2.96,2.59,2.96,4.81
			c0,2.19-1.28,4.23-4.05,5.25v0.07c2.81,0.76,4.88,2.88,4.88,6.05c0,2.22-1.02,3.98-2.55,5.21c-1.79,1.42-4.77,2.22-9.66,2.22
			c-2.73,0-4.77-0.18-6.02-0.36V389.13z M74.17,398.54h1.82c2.92,0,4.49-1.2,4.49-3.02c0-1.86-1.42-2.84-3.94-2.84
			c-1.2,0-1.89,0.07-2.36,0.14V398.54z M74.17,409.44c0.55,0.07,1.2,0.07,2.14,0.07c2.52,0,4.74-0.95,4.74-3.54
			c0-2.48-2.22-3.46-4.99-3.46h-1.9V409.44z"/>
	</g>
	<g>
		<path class="st270" d="M86.7,470.23c-1.02,0.51-3.32,1.06-6.3,1.06c-8.5,0-12.86-5.28-12.86-12.28c0-8.38,5.98-13.05,13.41-13.05
			c2.88,0,5.06,0.58,6.04,1.09l-1.13,4.41c-1.12-0.47-2.69-0.91-4.67-0.91c-4.41,0-7.83,2.66-7.83,8.13c0,4.92,2.92,8.02,7.87,8.02
			c1.68,0,3.53-0.36,4.63-0.8L86.7,470.23z"/>
	</g>
	<g>
		<path class="st270" d="M68.66,500.48c2.05-0.33,4.71-0.51,7.51-0.51c4.67,0,7.69,0.84,10.05,2.62c2.55,1.9,4.16,4.92,4.16,9.26
			c0,4.7-1.72,7.95-4.08,9.95c-2.59,2.15-6.53,3.17-11.34,3.17c-2.89,0-4.92-0.18-6.31-0.36V500.48z M74.24,520.53
			c0.48,0.11,1.24,0.11,1.94,0.11c5.02,0.04,8.31-2.73,8.31-8.6c0.04-5.1-2.95-7.8-7.73-7.8c-1.23,0-2.03,0.11-2.51,0.22V520.53z"/>
	</g>
	<g>
		<path class="st270" d="M105.3,283.27v7.95h7.62v3.42h-7.62v8.02h-3.57v-8.02h-7.61v-3.42h7.61v-7.95H105.3z"/>
	</g>
	<g>
		<path class="st270" d="M358.18,92.37v24.45h23.44v10.54h-23.44v24.67h-10.99v-24.67h-23.43v-10.54h23.43V92.37H358.18z"/>
	</g>
	<polygon class="st277" points="618.09,115.57 661.73,69.65 763.13,69.65 763.13,161.11 661.73,161.11 	"/>
	<g>
		<path class="st270" d="M664.51,120.7l-1.81,6.52h-5.95l7.76-25.4h7.54l7.88,25.4h-6.18l-1.96-6.52H664.51z M670.95,116.4
			l-1.58-5.39c-0.45-1.51-0.9-3.39-1.28-4.9h-0.07c-0.38,1.51-0.75,3.43-1.17,4.9l-1.51,5.39H670.95z"/>
	</g>
	<g>
		<path class="st270" d="M696.44,104.58v8.22h7.88v3.54h-7.88v8.29h-3.69v-8.29h-7.88v-3.54h7.88v-8.22H696.44z"/>
	</g>
	<g>
		<path class="st270" d="M719.06,104.58v8.22h7.88v3.54h-7.88v8.29h-3.69v-8.29h-7.88v-3.54h7.88v-8.22H719.06z"/>
	</g>
	<g>
		<path class="st270" d="M741.67,104.58v8.22h7.88v3.54h-7.88v8.29h-3.69v-8.29h-7.88v-3.54h7.88v-8.22H741.67z"/>
	</g>
</g>
<rect x="2" y="4" class="st558" width="793.7" height="566.93"/>
<rect x="-0.02" y="190.71" class="st279" width="793.7" height="188.23"/>
<g>
	<path class="st270" d="M92.75,222.43h12.27l9.72,25.61l10.29-25.61h12.39l7.25,47.92h-12.46l-3.5-27.58h-0.13l-11.5,27.58h-4.96
		l-10.99-27.58h-0.13l-4,27.58H84.62L92.75,222.43z"/>
	<path class="st270" d="M162.14,262.02l-3.3,8.32h-13.22l18.43-47.92h13.6l18.05,47.92h-13.28l-3.11-8.32H162.14z M170.85,237.23
		h-0.13l-5.15,15.25h10.36L170.85,237.23z"/>
	<path class="st270" d="M186.67,222.43h14.93l8.96,13.03l8.96-13.03h14.93l-17.67,24.91v23.01h-12.46v-23.01L186.67,222.43z"/>
	<path class="st270" d="M287.9,245.5c0,15.51-11.12,26.44-26.5,26.44S234.9,261,234.9,245.5c0-14.49,12.71-24.66,26.5-24.66
		C275.19,220.84,287.9,231.01,287.9,245.5z M247.86,245.56c0,8.26,6.1,14.3,13.54,14.3c7.44,0,13.54-6.04,13.54-14.3
		c0-6.61-6.1-12.65-13.54-12.65C253.97,232.91,247.86,238.95,247.86,245.56z"/>
	<path class="st270" d="M333.53,270.34h-15.51l-11.76-18.43h-0.13v18.43h-12.46v-47.92h18.62c9.47,0,16.65,4.51,16.65,14.74
		c0,6.61-3.69,12.33-10.49,13.54L333.53,270.34z M306.14,243.91h1.21c4.07,0,8.64-0.76,8.64-5.97c0-5.21-4.58-5.97-8.64-5.97h-1.21
		V243.91z"/>
	<path class="st270" d="M371.14,232.98v8.01h14.05v10.55h-14.05v8.26h14.81v10.55h-27.26v-47.92h27.26v10.55H371.14z"/>
	<path class="st270" d="M406.09,232.98v8.01h13.66v10.55h-13.66v18.81h-12.46v-47.92h27.52v10.55H406.09z"/>
	<path class="st270" d="M440.53,270.34h-12.46v-47.92h12.46V270.34z"/>
	<path class="st270" d="M482.92,238.51c-2.54-3.43-6.67-5.28-10.93-5.28c-7.63,0-12.77,5.85-12.77,13.28
		c0,7.56,5.21,13.03,12.96,13.03c4.07,0,8.13-1.97,10.74-5.09v14.94c-4.13,1.27-7.12,2.22-10.99,2.22c-6.67,0-13.03-2.54-17.99-7.05
		c-5.27-4.77-7.69-10.99-7.69-18.11c0-6.55,2.48-12.84,7.05-17.54c4.7-4.83,11.5-7.75,18.24-7.75c4,0,7.69,0.89,11.38,2.41V238.51z"
		/>
	<path class="st270" d="M503.06,270.34H490.6v-47.92h12.46V270.34z"/>
	<path class="st270" d="M523.65,232.98v8.01h14.05v10.55h-14.05v8.26h14.81v10.55h-27.26v-47.92h27.26v10.55H523.65z"/>
	<path class="st270" d="M546.14,222.43h12.46l22.82,29.3h0.13v-29.3H594v47.92h-12.46l-22.82-29.36h-0.13v29.36h-12.46V222.43z"/>
	<path class="st270" d="M636.38,238.51c-2.54-3.43-6.67-5.28-10.93-5.28c-7.63,0-12.77,5.85-12.77,13.28
		c0,7.56,5.21,13.03,12.96,13.03c4.07,0,8.13-1.97,10.74-5.09v14.94c-4.13,1.27-7.12,2.22-10.99,2.22c-6.67,0-13.03-2.54-17.99-7.05
		c-5.27-4.77-7.69-10.99-7.69-18.11c0-6.55,2.48-12.84,7.05-17.54c4.7-4.83,11.5-7.75,18.24-7.75c4,0,7.69,0.89,11.38,2.41V238.51z"
		/>
	<path class="st270" d="M656.52,270.34h-12.46v-47.92h12.46V270.34z"/>
	<path class="st270" d="M676.85,262.02l-3.3,8.32h-13.22l18.43-47.92h13.6l18.05,47.92h-13.28l-3.11-8.32H676.85z M685.56,237.23
		h-0.13l-5.15,15.25h10.36L685.56,237.23z"/>
	<path class="st270" d="M211.55,309.23v8.01h14.05v10.55h-14.05v8.26h14.81v10.55h-27.26v-47.92h27.26v10.55H211.55z"/>
	<path class="st270" d="M234.04,298.68h12.46l22.82,29.3h0.13v-29.3h12.46v47.92h-12.46l-22.82-29.36h-0.13v29.36h-12.46V298.68z"/>
	<path class="st270" d="M302.48,309.23v8.01h14.05v10.55h-14.05v8.26h14.81v10.55h-27.26v-47.92h27.26v10.55H302.48z"/>
	<path class="st270" d="M364.82,346.6h-15.51l-11.76-18.43h-0.13v18.43h-12.46v-47.92h18.62c9.47,0,16.65,4.51,16.65,14.74
		c0,6.61-3.69,12.33-10.49,13.54L364.82,346.6z M337.43,320.16h1.21c4.07,0,8.64-0.76,8.64-5.97s-4.58-5.97-8.64-5.97h-1.21V320.16z
		"/>
	<path class="st270" d="M415.98,319.84c-0.13,6.99-0.64,12.96-4.89,18.94c-4.7,6.55-11.76,9.41-19.77,9.41
		c-15.06,0-25.55-10.23-25.55-25.29c0-15.57,10.55-25.8,25.99-25.8c9.85,0,17.48,4.45,21.61,13.41l-11.82,4.96
		c-1.72-4.58-5.34-7.63-10.36-7.63c-8.2,0-12.46,7.82-12.46,15.13c0,7.44,4.45,15,12.65,15c5.4,0,9.53-2.79,10.04-8.32h-10.17v-9.79
		H415.98z"/>
	<path class="st270" d="M434.14,309.23v8.01h14.05v10.55h-14.05v8.26h14.81v10.55h-27.26v-47.92h27.26v10.55H434.14z M432.24,295.76
		l-5.15-3.75l8.96-10.93l7.05,5.08L432.24,295.76z"/>
	<path class="st270" d="M475.7,346.6h-12.46v-37.37h-10.3v-10.55H486v10.55h-10.3V346.6z"/>
	<path class="st270" d="M502.96,346.6h-12.46v-47.92h12.46V346.6z"/>
	<path class="st270" d="M545.35,314.76c-2.54-3.43-6.67-5.28-10.93-5.28c-7.63,0-12.77,5.85-12.77,13.28
		c0,7.56,5.21,13.03,12.96,13.03c4.07,0,8.13-1.97,10.74-5.08v14.94c-4.13,1.27-7.12,2.22-10.99,2.22c-6.67,0-13.03-2.54-17.99-7.05
		c-5.27-4.77-7.69-11-7.69-18.11c0-6.54,2.48-12.84,7.05-17.54c4.7-4.83,11.5-7.75,18.24-7.75c4,0,7.69,0.89,11.38,2.41V314.76z"/>
	<path class="st270" d="M565.24,338.27l-3.3,8.33h-13.22l18.43-47.92h13.6l18.05,47.92h-13.28l-3.11-8.33H565.24z M573.94,313.49
		h-0.13l-5.15,15.25h10.36L573.94,313.49z"/>
</g>
</svg>
