<?xml version="1.0" encoding="utf-8"?>
<!-- Generator: Adobe Illustrator 23.0.3, SVG Export Plug-In . SVG Version: 6.00 Build 0)  -->
<svg version="1.1" id="Capa_1" xmlns="http://www.w3.org/2000/svg" xmlns:xlink="http://www.w3.org/1999/xlink" x="0px" y="0px"
	 viewBox="0 0 793.7 566.93" style="enable-background:new 0 0 793.7 566.93;" xml:space="preserve">
<style type="text/css">
	.st0{fill-rule:evenodd;clip-rule:evenodd;fill:#CCCCCC;}
	.st1{fill:#99898B;}
	.st2{fill:#161415;}
	.st3{fill:#382D37;}
	.st4{fill:#F59C00;}
	.st5{fill:#FCBF37;}
	.st6{fill:#707075;}
	.st7{fill:#2D2B2E;}
	.st8{fill:#00A0DF;}
	.st9{fill:#4CC2F1;}
	.st10{fill-rule:evenodd;clip-rule:evenodd;fill:#529FA2;}
	.st11{opacity:0.5;}
	.st12{fill-rule:evenodd;clip-rule:evenodd;fill:#FEFEFE;}
	.st13{fill-rule:evenodd;clip-rule:evenodd;fill:#FDFDFD;}
	.st14{fill-rule:evenodd;clip-rule:evenodd;fill:#FBFBFB;}
	.st15{fill-rule:evenodd;clip-rule:evenodd;fill:#FCFCFC;}
	.st16{fill-rule:evenodd;clip-rule:evenodd;fill:#D1D1D1;}
	.st17{fill-rule:evenodd;clip-rule:evenodd;fill:#ECECEC;}
	.st18{fill-rule:evenodd;clip-rule:evenodd;fill:#F8F8F8;}
	.st19{fill-rule:evenodd;clip-rule:evenodd;fill:#DFDFDF;}
	.st20{fill-rule:evenodd;clip-rule:evenodd;fill:#F7F7F7;}
	.st21{fill-rule:evenodd;clip-rule:evenodd;fill:#D0D0D0;}
	.st22{fill-rule:evenodd;clip-rule:evenodd;fill:#CFCFCF;}
	.st23{fill-rule:evenodd;clip-rule:evenodd;fill:#C4C4C4;}
	.st24{fill-rule:evenodd;clip-rule:evenodd;fill:#979797;}
	.st25{fill-rule:evenodd;clip-rule:evenodd;fill:#E4E4E4;}
	.st26{fill-rule:evenodd;clip-rule:evenodd;fill:#EEEEEE;}
	.st27{fill-rule:evenodd;clip-rule:evenodd;fill:#F6F6F6;}
	.st28{fill-rule:evenodd;clip-rule:evenodd;fill:#CDCDCD;}
	.st29{fill-rule:evenodd;clip-rule:evenodd;fill:#EDEDED;}
	.st30{fill-rule:evenodd;clip-rule:evenodd;fill:#DADADA;}
	.st31{fill-rule:evenodd;clip-rule:evenodd;fill:#E9E9E9;}
	.st32{fill-rule:evenodd;clip-rule:evenodd;fill:#F2F2F2;}
	.st33{fill-rule:evenodd;clip-rule:evenodd;fill:#C7C7C7;}
	.st34{fill-rule:evenodd;clip-rule:evenodd;fill:#F9F9F9;}
	.st35{fill-rule:evenodd;clip-rule:evenodd;fill:#DCDCDC;}
	.st36{fill-rule:evenodd;clip-rule:evenodd;fill:#D9D9D9;}
	.st37{fill-rule:evenodd;clip-rule:evenodd;fill:#F4F4F4;}
	.st38{fill-rule:evenodd;clip-rule:evenodd;fill:#DDDDDD;}
	.st39{fill-rule:evenodd;clip-rule:evenodd;fill:#F1F1F1;}
	.st40{fill-rule:evenodd;clip-rule:evenodd;fill:#EFEFEF;}
	.st41{fill-rule:evenodd;clip-rule:evenodd;fill:#C0C0C0;}
	.st42{fill-rule:evenodd;clip-rule:evenodd;fill:#C5C5C5;}
	.st43{fill-rule:evenodd;clip-rule:evenodd;fill:#C8C8C8;}
	.st44{fill-rule:evenodd;clip-rule:evenodd;fill:#E8E8E8;}
	.st45{fill-rule:evenodd;clip-rule:evenodd;fill:#E6E6E6;}
	.st46{fill-rule:evenodd;clip-rule:evenodd;fill:#C3C3C3;}
	.st47{fill-rule:evenodd;clip-rule:evenodd;fill:#ACACAC;}
	.st48{fill-rule:evenodd;clip-rule:evenodd;fill:#E0E0E0;}
	.st49{fill-rule:evenodd;clip-rule:evenodd;fill:#8E8E8E;}
	.st50{fill-rule:evenodd;clip-rule:evenodd;fill:#C1C1C1;}
	.st51{fill-rule:evenodd;clip-rule:evenodd;fill:#CBCBCB;}
	.st52{fill-rule:evenodd;clip-rule:evenodd;fill:#D3D3D3;}
	.st53{fill-rule:evenodd;clip-rule:evenodd;fill:#D7D7D7;}
	.st54{fill-rule:evenodd;clip-rule:evenodd;fill:#727272;}
	.st55{fill-rule:evenodd;clip-rule:evenodd;fill:#D6D6D6;}
	.st56{fill-rule:evenodd;clip-rule:evenodd;fill:#E3E3E3;}
	.st57{fill-rule:evenodd;clip-rule:evenodd;fill:#CACACA;}
	.st58{fill-rule:evenodd;clip-rule:evenodd;fill:#B9B9B9;}
	.st59{fill-rule:evenodd;clip-rule:evenodd;fill:#FAFAFA;}
	.st60{fill-rule:evenodd;clip-rule:evenodd;fill:#E2E2E2;}
	.st61{fill-rule:evenodd;clip-rule:evenodd;fill:#BFBFBF;}
	.st62{fill-rule:evenodd;clip-rule:evenodd;fill:#CECECE;}
	.st63{fill-rule:evenodd;clip-rule:evenodd;fill:#E1E1E1;}
	.st64{fill-rule:evenodd;clip-rule:evenodd;fill:#D2D2D2;}
	.st65{fill-rule:evenodd;clip-rule:evenodd;fill:#ADADAD;}
	.st66{fill-rule:evenodd;clip-rule:evenodd;fill:#BABABA;}
	.st67{fill-rule:evenodd;clip-rule:evenodd;fill:#A4A4A4;}
	.st68{fill-rule:evenodd;clip-rule:evenodd;fill:#D4D4D4;}
	.st69{fill-rule:evenodd;clip-rule:evenodd;fill:#C6C6C6;}
	.st70{fill-rule:evenodd;clip-rule:evenodd;fill:#F0F0F0;}
	.st71{fill-rule:evenodd;clip-rule:evenodd;fill:#B0B0B0;}
	.st72{fill-rule:evenodd;clip-rule:evenodd;fill:#EBEBEB;}
	.st73{fill-rule:evenodd;clip-rule:evenodd;fill:#B3B3B3;}
	.st74{fill-rule:evenodd;clip-rule:evenodd;fill:#6C6C6C;}
	.st75{fill-rule:evenodd;clip-rule:evenodd;fill:#EAEAEA;}
	.st76{fill-rule:evenodd;clip-rule:evenodd;fill:#9D9D9D;}
	.st77{fill-rule:evenodd;clip-rule:evenodd;fill:#D5D5D5;}
	.st78{fill-rule:evenodd;clip-rule:evenodd;fill:#DBDBDB;}
	.st79{fill-rule:evenodd;clip-rule:evenodd;fill:#F3F3F3;}
	.st80{fill-rule:evenodd;clip-rule:evenodd;fill:#696969;}
	.st81{fill-rule:evenodd;clip-rule:evenodd;fill:#B2B2B2;}
	.st82{fill-rule:evenodd;clip-rule:evenodd;fill:#E7E7E7;}
	.st83{fill-rule:evenodd;clip-rule:evenodd;fill:#BDBDBD;}
	.st84{fill-rule:evenodd;clip-rule:evenodd;fill:#F5F5F5;}
	.st85{fill-rule:evenodd;clip-rule:evenodd;fill:#969696;}
	.st86{fill-rule:evenodd;clip-rule:evenodd;fill:#767676;}
	.st87{fill-rule:evenodd;clip-rule:evenodd;fill:#9E9E9E;}
	.st88{fill-rule:evenodd;clip-rule:evenodd;fill:#B4B4B4;}
	.st89{fill-rule:evenodd;clip-rule:evenodd;fill:#BCBCBC;}
	.st90{fill-rule:evenodd;clip-rule:evenodd;fill:#838383;}
	.st91{fill-rule:evenodd;clip-rule:evenodd;fill:#E5E5E5;}
	.st92{fill-rule:evenodd;clip-rule:evenodd;fill:#AEAEAE;}
	.st93{fill-rule:evenodd;clip-rule:evenodd;fill:#BBBBBB;}
	.st94{fill-rule:evenodd;clip-rule:evenodd;fill:#D8D8D8;}
	.st95{fill-rule:evenodd;clip-rule:evenodd;fill:#8A8A8A;}
	.st96{fill-rule:evenodd;clip-rule:evenodd;fill:#DEDEDE;}
	.st97{fill-rule:evenodd;clip-rule:evenodd;fill:#C9C9C9;}
	.st98{fill-rule:evenodd;clip-rule:evenodd;fill:#A1A1A1;}
	.st99{fill-rule:evenodd;clip-rule:evenodd;fill:#949494;}
	.st100{fill-rule:evenodd;clip-rule:evenodd;fill:#8C8C8C;}
	.st101{fill-rule:evenodd;clip-rule:evenodd;fill:#898989;}
	.st102{fill-rule:evenodd;clip-rule:evenodd;fill:#C2C2C2;}
	.st103{fill-rule:evenodd;clip-rule:evenodd;fill:#AAAAAA;}
	.st104{fill-rule:evenodd;clip-rule:evenodd;fill:#A2A2A2;}
	.st105{fill-rule:evenodd;clip-rule:evenodd;fill:#9F9F9F;}
	.st106{fill-rule:evenodd;clip-rule:evenodd;fill:#8F8F8F;}
	.st107{fill-rule:evenodd;clip-rule:evenodd;fill:#999999;}
	.st108{fill-rule:evenodd;clip-rule:evenodd;fill:#B5B5B5;}
	.st109{fill-rule:evenodd;clip-rule:evenodd;fill:#7D7D7D;}
	.st110{fill-rule:evenodd;clip-rule:evenodd;fill:#A8A8A8;}
	.st111{fill-rule:evenodd;clip-rule:evenodd;fill:#BEBEBE;}
	.st112{fill-rule:evenodd;clip-rule:evenodd;fill:#8D8D8D;}
	.st113{fill-rule:evenodd;clip-rule:evenodd;fill:#828282;}
	.st114{fill-rule:evenodd;clip-rule:evenodd;fill:#B1B1B1;}
	.st115{fill-rule:evenodd;clip-rule:evenodd;fill:#818181;}
	.st116{fill-rule:evenodd;clip-rule:evenodd;fill:#7C7C7C;}
	.st117{fill-rule:evenodd;clip-rule:evenodd;fill:#878787;}
	.st118{fill-rule:evenodd;clip-rule:evenodd;fill:#B6B6B6;}
	.st119{fill-rule:evenodd;clip-rule:evenodd;fill:#939393;}
	.st120{fill-rule:evenodd;clip-rule:evenodd;fill:#797979;}
	.st121{fill-rule:evenodd;clip-rule:evenodd;fill:#B7B7B7;}
	.st122{fill-rule:evenodd;clip-rule:evenodd;fill:#989898;}
	.st123{fill-rule:evenodd;clip-rule:evenodd;fill:#9A9A9A;}
	.st124{fill-rule:evenodd;clip-rule:evenodd;fill:#4E4E4E;}
	.st125{fill-rule:evenodd;clip-rule:evenodd;fill:#A5A5A5;}
	.st126{fill-rule:evenodd;clip-rule:evenodd;fill:#ABABAB;}
	.st127{fill-rule:evenodd;clip-rule:evenodd;fill:#A9A9A9;}
	.st128{fill-rule:evenodd;clip-rule:evenodd;fill:#4A4A4A;}
	.st129{fill-rule:evenodd;clip-rule:evenodd;fill:#686868;}
	.st130{fill-rule:evenodd;clip-rule:evenodd;fill:#2B2B2B;}
	.st131{fill-rule:evenodd;clip-rule:evenodd;fill:#343434;}
	.st132{fill-rule:evenodd;clip-rule:evenodd;fill:#676767;}
	.st133{fill-rule:evenodd;clip-rule:evenodd;fill:#282828;}
	.st134{fill-rule:evenodd;clip-rule:evenodd;fill:#3F3F3F;}
	.st135{fill-rule:evenodd;clip-rule:evenodd;fill:#434343;}
	.st136{fill-rule:evenodd;clip-rule:evenodd;fill:#313131;}
	.st137{fill-rule:evenodd;clip-rule:evenodd;fill:#4B4B4B;}
	.st138{fill-rule:evenodd;clip-rule:evenodd;fill:#4D4D4D;}
	.st139{fill-rule:evenodd;clip-rule:evenodd;fill:#737373;}
	.st140{fill-rule:evenodd;clip-rule:evenodd;fill:#5E5E5E;}
	.st141{fill-rule:evenodd;clip-rule:evenodd;fill:#6F6F6F;}
	.st142{fill-rule:evenodd;clip-rule:evenodd;fill:#626262;}
	.st143{fill-rule:evenodd;clip-rule:evenodd;fill:#717171;}
	.st144{fill-rule:evenodd;clip-rule:evenodd;fill:#868686;}
	.st145{fill-rule:evenodd;clip-rule:evenodd;fill:#A0A0A0;}
	.st146{fill-rule:evenodd;clip-rule:evenodd;fill:#9B9B9B;}
	.st147{fill-rule:evenodd;clip-rule:evenodd;fill:#2A2A2A;}
	.st148{fill-rule:evenodd;clip-rule:evenodd;fill:#2D2D2D;}
	.st149{fill-rule:evenodd;clip-rule:evenodd;fill:#272727;}
	.st150{fill-rule:evenodd;clip-rule:evenodd;fill:#292929;}
	.st151{fill-rule:evenodd;clip-rule:evenodd;fill:#3E3E3E;}
	.st152{fill-rule:evenodd;clip-rule:evenodd;fill:#414141;}
	.st153{fill-rule:evenodd;clip-rule:evenodd;fill:#5B5B5B;}
	.st154{fill-rule:evenodd;clip-rule:evenodd;fill:#545454;}
	.st155{fill-rule:evenodd;clip-rule:evenodd;fill:#565656;}
	.st156{fill-rule:evenodd;clip-rule:evenodd;fill:#555555;}
	.st157{fill-rule:evenodd;clip-rule:evenodd;fill:#515151;}
	.st158{fill-rule:evenodd;clip-rule:evenodd;fill:#A6A6A6;}
	.st159{fill-rule:evenodd;clip-rule:evenodd;fill:#B8B8B8;}
	.st160{fill-rule:evenodd;clip-rule:evenodd;fill:#4F4F4F;}
	.st161{fill-rule:evenodd;clip-rule:evenodd;fill:#464646;}
	.st162{fill-rule:evenodd;clip-rule:evenodd;fill:#424242;}
	.st163{fill-rule:evenodd;clip-rule:evenodd;fill:#A7A7A7;}
	.st164{fill-rule:evenodd;clip-rule:evenodd;fill:#959595;}
	.st165{fill-rule:evenodd;clip-rule:evenodd;fill:#787878;}
	.st166{fill-rule:evenodd;clip-rule:evenodd;fill:#8B8B8B;}
	.st167{fill-rule:evenodd;clip-rule:evenodd;fill:#383838;}
	.st168{fill-rule:evenodd;clip-rule:evenodd;fill:#747474;}
	.st169{fill-rule:evenodd;clip-rule:evenodd;fill:#646464;}
	.st170{fill-rule:evenodd;clip-rule:evenodd;fill:#454545;}
	.st171{fill-rule:evenodd;clip-rule:evenodd;fill:#656565;}
	.st172{fill-rule:evenodd;clip-rule:evenodd;fill:#858585;}
	.st173{fill-rule:evenodd;clip-rule:evenodd;fill:#6D6D6D;}
	.st174{fill-rule:evenodd;clip-rule:evenodd;fill:#9C9C9C;}
	.st175{fill-rule:evenodd;clip-rule:evenodd;fill:#6B6B6B;}
	.st176{fill-rule:evenodd;clip-rule:evenodd;fill:#404040;}
	.st177{fill-rule:evenodd;clip-rule:evenodd;fill:#7A7A7A;}
	.st178{fill-rule:evenodd;clip-rule:evenodd;fill:#7F7F7F;}
	.st179{fill-rule:evenodd;clip-rule:evenodd;fill:#A3A3A3;}
	.st180{fill-rule:evenodd;clip-rule:evenodd;fill:#636363;}
	.st181{fill-rule:evenodd;clip-rule:evenodd;fill:#808080;}
	.st182{fill-rule:evenodd;clip-rule:evenodd;fill:#777777;}
	.st183{fill-rule:evenodd;clip-rule:evenodd;fill:#919191;}
	.st184{fill-rule:evenodd;clip-rule:evenodd;fill:#6A6A6A;}
	.st185{fill-rule:evenodd;clip-rule:evenodd;fill:#262626;}
	.st186{fill-rule:evenodd;clip-rule:evenodd;fill:#575757;}
	.st187{fill-rule:evenodd;clip-rule:evenodd;fill:#5A5A5A;}
	.st188{fill-rule:evenodd;clip-rule:evenodd;fill:#484848;}
	.st189{fill-rule:evenodd;clip-rule:evenodd;fill:#3B3B3B;}
	.st190{fill-rule:evenodd;clip-rule:evenodd;fill:#494949;}
	.st191{fill-rule:evenodd;clip-rule:evenodd;fill:#6E6E6E;}
	.st192{fill-rule:evenodd;clip-rule:evenodd;fill:#AFAFAF;}
	.st193{fill-rule:evenodd;clip-rule:evenodd;fill:#535353;}
	.st194{fill-rule:evenodd;clip-rule:evenodd;fill:#444444;}
	.st195{fill-rule:evenodd;clip-rule:evenodd;fill:#373737;}
	.st196{fill-rule:evenodd;clip-rule:evenodd;fill:#505050;}
	.st197{fill-rule:evenodd;clip-rule:evenodd;fill:#606060;}
	.st198{fill-rule:evenodd;clip-rule:evenodd;fill:#3C3C3C;}
	.st199{fill-rule:evenodd;clip-rule:evenodd;fill:#474747;}
	.st200{fill-rule:evenodd;clip-rule:evenodd;fill:#3D3D3D;}
	.st201{fill-rule:evenodd;clip-rule:evenodd;fill:#7E7E7E;}
	.st202{fill-rule:evenodd;clip-rule:evenodd;fill:#393939;}
	.st203{fill-rule:evenodd;clip-rule:evenodd;fill:#353535;}
	.st204{fill-rule:evenodd;clip-rule:evenodd;fill:#363636;}
	.st205{fill-rule:evenodd;clip-rule:evenodd;fill:#707070;}
	.st206{fill-rule:evenodd;clip-rule:evenodd;fill:#595959;}
	.st207{fill-rule:evenodd;clip-rule:evenodd;fill:#525252;}
	.st208{fill-rule:evenodd;clip-rule:evenodd;fill:#5C5C5C;}
	.st209{fill-rule:evenodd;clip-rule:evenodd;fill:#2C2C2C;}
	.st210{fill-rule:evenodd;clip-rule:evenodd;fill:#666666;}
	.st211{fill-rule:evenodd;clip-rule:evenodd;fill:#7B7B7B;}
	.st212{fill-rule:evenodd;clip-rule:evenodd;fill:#585858;}
	.st213{fill-rule:evenodd;clip-rule:evenodd;fill:#929292;}
	.st214{fill-rule:evenodd;clip-rule:evenodd;fill:#757575;}
	.st215{fill-rule:evenodd;clip-rule:evenodd;fill:#848484;}
	.st216{fill-rule:evenodd;clip-rule:evenodd;fill:#323232;}
	.st217{fill-rule:evenodd;clip-rule:evenodd;fill:#616161;}
	.st218{fill-rule:evenodd;clip-rule:evenodd;fill:#5F5F5F;}
	.st219{fill-rule:evenodd;clip-rule:evenodd;fill:#303030;}
	.st220{fill-rule:evenodd;clip-rule:evenodd;fill:#191919;}
	.st221{fill-rule:evenodd;clip-rule:evenodd;fill:#3A3A3A;}
	.st222{fill-rule:evenodd;clip-rule:evenodd;fill:#888888;}
	.st223{fill-rule:evenodd;clip-rule:evenodd;fill:#242424;}
	.st224{fill-rule:evenodd;clip-rule:evenodd;fill:#222222;}
	.st225{fill-rule:evenodd;clip-rule:evenodd;fill:#2F2F2F;}
	.st226{fill-rule:evenodd;clip-rule:evenodd;fill:#909090;}
	.st227{fill-rule:evenodd;clip-rule:evenodd;fill:#212121;}
	.st228{fill-rule:evenodd;clip-rule:evenodd;fill:#1E1E1E;}
	.st229{fill-rule:evenodd;clip-rule:evenodd;fill:#4C4C4C;}
	.st230{fill-rule:evenodd;clip-rule:evenodd;fill:#1C1C1C;}
	.st231{fill-rule:evenodd;clip-rule:evenodd;fill:#252525;}
	.st232{fill-rule:evenodd;clip-rule:evenodd;fill:#1F1F1F;}
	.st233{fill-rule:evenodd;clip-rule:evenodd;fill:#1A1A1A;}
	.st234{fill-rule:evenodd;clip-rule:evenodd;fill:#1B1B1B;}
	.st235{fill-rule:evenodd;clip-rule:evenodd;fill:#1D1D1D;}
	.st236{fill-rule:evenodd;clip-rule:evenodd;fill:#232323;}
	.st237{fill-rule:evenodd;clip-rule:evenodd;fill:#2E2E2E;}
	.st238{fill-rule:evenodd;clip-rule:evenodd;fill:#333333;}
	.st239{fill-rule:evenodd;clip-rule:evenodd;fill:#202020;}
	.st240{fill-rule:evenodd;clip-rule:evenodd;fill:#151515;}
	.st241{fill-rule:evenodd;clip-rule:evenodd;fill:#171717;}
	.st242{fill-rule:evenodd;clip-rule:evenodd;fill:#101010;}
	.st243{fill-rule:evenodd;clip-rule:evenodd;fill:#5D5D5D;}
	.st244{fill-rule:evenodd;clip-rule:evenodd;fill:#181818;}
	.st245{fill-rule:evenodd;clip-rule:evenodd;fill:#141414;}
	.st246{fill-rule:evenodd;clip-rule:evenodd;fill:#0E0E0E;}
	.st247{fill-rule:evenodd;clip-rule:evenodd;fill:#161616;}
	.st248{fill-rule:evenodd;clip-rule:evenodd;fill:#131313;}
	.st249{fill-rule:evenodd;clip-rule:evenodd;fill:#0D0D0D;}
	.st250{fill-rule:evenodd;clip-rule:evenodd;fill:#111111;}
	.st251{fill-rule:evenodd;clip-rule:evenodd;fill:#060606;}
	.st252{fill-rule:evenodd;clip-rule:evenodd;fill:#0F0F0F;}
	.st253{fill-rule:evenodd;clip-rule:evenodd;fill:#0B0B0B;}
	.st254{fill-rule:evenodd;clip-rule:evenodd;fill:#121212;}
	.st255{fill-rule:evenodd;clip-rule:evenodd;fill:#0C0C0C;}
	.st256{fill-rule:evenodd;clip-rule:evenodd;fill:#090909;}
	.st257{fill-rule:evenodd;clip-rule:evenodd;fill:#0A0A0A;}
	.st258{fill-rule:evenodd;clip-rule:evenodd;fill:#070707;}
	.st259{fill-rule:evenodd;clip-rule:evenodd;fill:#080808;}
	.st260{fill-rule:evenodd;clip-rule:evenodd;fill:#040404;}
	.st261{fill-rule:evenodd;clip-rule:evenodd;fill:#050505;}
	.st262{fill:#C2C2C0;}
	.st263{fill:#7A7977;}
	.st264{fill:#EDEDED;}
	.st265{opacity:0.7;}
	.st266{opacity:0.6;fill-rule:evenodd;clip-rule:evenodd;fill:#529FA2;}
	.st267{fill:#F1F1F2;}
	.st268{fill:#63BC8F;}
	.st269{opacity:0.58;fill:#A2A4A7;}
	.st270{fill:#FFFFFF;}
	.st271{fill:#FBBB76;}
	.st272{fill:#6586B5;}
	.st273{fill:#CFD0D2;}
	.st274{opacity:0.58;fill:#D7D8DA;}
	.st275{fill:#FBB756;}
	.st276{fill:#FCD745;}
	.st277{fill:#231F20;}
	.st278{fill:#F58435;}
	.st279{opacity:0.5;fill:#05A23F;}
	.st280{fill:#C48956;}
	.st281{fill:#C2C2C2;}
	.st282{fill:#373737;}
	.st283{fill:#424242;}
	.st284{opacity:0.1;fill:#212121;}
	.st285{fill:#EEEEEE;}
	.st286{fill:#E0E0E0;}
	.st287{fill:#606060;}
	.st288{fill:none;}
	.st289{fill:#BABABA;}
	.st290{opacity:0.05;}
	.st291{opacity:0.3;fill:#FFFFFF;}
	.st292{fill:#8A8A8A;}
	.st293{fill:#E6E6E6;}
	.st294{opacity:0.15;}
	.st295{fill:#2C7300;}
	.st296{fill:#378F00;}
	.st297{fill:#FAB700;}
	.st298{fill:#BA8800;}
	.st299{fill:#FFD154;}
	.st300{fill:#66C30F;}
	.st301{fill:#808080;}
	.st302{clip-path:url(#SVGID_2_);}
	.st303{fill:#40A0DF;}
	.st304{opacity:0.7;fill:#CE0B10;}
	.st305{fill-rule:evenodd;clip-rule:evenodd;fill:#FFCE3D;}
	.st306{fill-rule:evenodd;clip-rule:evenodd;fill:#482A4A;}
	.st307{opacity:0.4;}
	.st308{fill:#F4F0EF;}
	.st309{clip-path:url(#SVGID_7_);}
	.st310{clip-path:url(#SVGID_9_);fill:url(#SVGID_10_);}
	.st311{fill:url(#SVGID_11_);}
	.st312{fill:url(#SVGID_12_);}
	.st313{fill:url(#SVGID_13_);}
	.st314{opacity:0;fill:#FFFFFF;}
	.st315{opacity:0.0164;fill:#FFFFFF;}
	.st316{opacity:0.0328;fill:#FFFFFF;}
	.st317{opacity:0.0492;fill:#FFFFFF;}
	.st318{opacity:0.0656;fill:#FFFFFF;}
	.st319{opacity:0.082;fill:#FFFFFF;}
	.st320{opacity:0.0984;fill:#FFFFFF;}
	.st321{opacity:0.1148;fill:#FFFFFF;}
	.st322{opacity:0.1311;fill:#FFFFFF;}
	.st323{opacity:0.1475;fill:#FFFFFF;}
	.st324{opacity:0.1639;fill:#FFFFFF;}
	.st325{opacity:0.1803;fill:#FFFFFF;}
	.st326{opacity:0.1967;fill:#FFFFFF;}
	.st327{opacity:0.2131;fill:#FFFFFF;}
	.st328{opacity:0.2295;fill:#FFFFFF;}
	.st329{opacity:0.2459;fill:#FFFFFF;}
	.st330{opacity:0.2623;fill:#FFFFFF;}
	.st331{opacity:0.2787;fill:#FFFFFF;}
	.st332{opacity:0.2951;fill:#FFFFFF;}
	.st333{opacity:0.3115;fill:#FFFFFF;}
	.st334{opacity:0.3279;fill:#FFFFFF;}
	.st335{opacity:0.3443;fill:#FFFFFF;}
	.st336{opacity:0.3607;fill:#FFFFFF;}
	.st337{opacity:0.377;fill:#FFFFFF;}
	.st338{opacity:0.3934;fill:#FFFFFF;}
	.st339{opacity:0.4098;fill:#FFFFFF;}
	.st340{opacity:0.4262;fill:#FFFFFF;}
	.st341{opacity:0.4426;fill:#FFFFFF;}
	.st342{opacity:0.459;fill:#FFFFFF;}
	.st343{opacity:0.4754;fill:#FFFFFF;}
	.st344{opacity:0.4918;fill:#FFFFFF;}
	.st345{opacity:0.5082;fill:#FFFFFF;}
	.st346{opacity:0.5246;fill:#FFFFFF;}
	.st347{opacity:0.541;fill:#FFFFFF;}
	.st348{opacity:0.5574;fill:#FFFFFF;}
	.st349{opacity:0.5738;fill:#FFFFFF;}
	.st350{opacity:0.5902;fill:#FFFFFF;}
	.st351{opacity:0.6066;fill:#FFFFFF;}
	.st352{opacity:0.623;fill:#FFFFFF;}
	.st353{opacity:0.6393;fill:#FFFFFF;}
	.st354{opacity:0.6557;fill:#FFFFFF;}
	.st355{opacity:0.6721;fill:#FFFFFF;}
	.st356{opacity:0.6885;fill:#FFFFFF;}
	.st357{opacity:0.7049;fill:#FFFFFF;}
	.st358{opacity:0.7213;fill:#FFFFFF;}
	.st359{opacity:0.7377;fill:#FFFFFF;}
	.st360{opacity:0.7541;fill:#FFFFFF;}
	.st361{opacity:0.7705;fill:#FFFFFF;}
	.st362{opacity:0.7869;fill:#FFFFFF;}
	.st363{opacity:0.8033;fill:#FFFFFF;}
	.st364{opacity:0.8197;fill:#FFFFFF;}
	.st365{opacity:0.8361;fill:#FFFFFF;}
	.st366{opacity:0.8525;fill:#FFFFFF;}
	.st367{opacity:0.8689;fill:#FFFFFF;}
	.st368{opacity:0.8852;fill:#FFFFFF;}
	.st369{opacity:0.9016;fill:#FFFFFF;}
	.st370{opacity:0.918;fill:#FFFFFF;}
	.st371{opacity:0.9344;fill:#FFFFFF;}
	.st372{opacity:0.9508;fill:#FFFFFF;}
	.st373{opacity:0.9672;fill:#FFFFFF;}
	.st374{opacity:0.9836;fill:#FFFFFF;}
	.st375{fill:#69E6F9;}
	.st376{filter:url(#Adobe_OpacityMaskFilter);}
	.st377{filter:url(#Adobe_OpacityMaskFilter_1_);}
	.st378{mask:url(#SVGID_14_);fill:url(#SVGID_15_);}
	.st379{fill:url(#SVGID_16_);}
	.st380{clip-path:url(#SVGID_18_);fill:url(#SVGID_19_);}
	.st381{fill:url(#SVGID_20_);}
	.st382{fill:url(#SVGID_21_);}
	.st383{filter:url(#Adobe_OpacityMaskFilter_2_);}
	.st384{filter:url(#Adobe_OpacityMaskFilter_3_);}
	.st385{mask:url(#SVGID_22_);fill:url(#SVGID_23_);}
	.st386{fill:url(#SVGID_24_);}
	.st387{opacity:0.7;fill:url(#SVGID_25_);}
	.st388{fill:url(#SVGID_26_);}
	.st389{filter:url(#Adobe_OpacityMaskFilter_4_);}
	.st390{filter:url(#Adobe_OpacityMaskFilter_5_);}
	.st391{mask:url(#SVGID_27_);fill:url(#SVGID_28_);}
	.st392{fill:url(#SVGID_29_);}
	.st393{opacity:0.6;fill:url(#SVGID_30_);}
	.st394{fill:url(#SVGID_31_);}
	.st395{filter:url(#Adobe_OpacityMaskFilter_6_);}
	.st396{filter:url(#Adobe_OpacityMaskFilter_7_);}
	.st397{mask:url(#SVGID_32_);fill:url(#SVGID_33_);}
	.st398{opacity:0.7;fill:url(#SVGID_34_);}
	.st399{opacity:0;fill:#6D747A;}
	.st400{opacity:0.0164;fill:#6D747A;}
	.st401{opacity:0.0328;fill:#6D747A;}
	.st402{opacity:0.0492;fill:#6D747A;}
	.st403{opacity:0.0656;fill:#6D747A;}
	.st404{opacity:0.082;fill:#6D747A;}
	.st405{opacity:0.0984;fill:#6D747A;}
	.st406{opacity:0.1148;fill:#6D747A;}
	.st407{opacity:0.1311;fill:#6D747A;}
	.st408{opacity:0.1475;fill:#6D747A;}
	.st409{opacity:0.1639;fill:#6D747A;}
	.st410{opacity:0.1803;fill:#6D747A;}
	.st411{opacity:0.1967;fill:#6D747A;}
	.st412{opacity:0.2131;fill:#6D747A;}
	.st413{opacity:0.2295;fill:#6D747A;}
	.st414{opacity:0.2459;fill:#6D747A;}
	.st415{opacity:0.2623;fill:#6D747A;}
	.st416{opacity:0.2787;fill:#6D747A;}
	.st417{opacity:0.2951;fill:#6D747A;}
	.st418{opacity:0.3115;fill:#6D747A;}
	.st419{opacity:0.3279;fill:#6D747A;}
	.st420{opacity:0.3443;fill:#6D747A;}
	.st421{opacity:0.3607;fill:#6D747A;}
	.st422{opacity:0.377;fill:#6D747A;}
	.st423{opacity:0.3934;fill:#6D747A;}
	.st424{opacity:0.4098;fill:#6D747A;}
	.st425{opacity:0.4262;fill:#6D747A;}
	.st426{opacity:0.4426;fill:#6D747A;}
	.st427{opacity:0.459;fill:#6D747A;}
	.st428{opacity:0.4754;fill:#6D747A;}
	.st429{opacity:0.4918;fill:#6D747A;}
	.st430{opacity:0.5082;fill:#6D747A;}
	.st431{opacity:0.5246;fill:#6D747A;}
	.st432{opacity:0.541;fill:#6D747A;}
	.st433{opacity:0.5574;fill:#6D747A;}
	.st434{opacity:0.5738;fill:#6D747A;}
	.st435{opacity:0.5902;fill:#6D747A;}
	.st436{opacity:0.6066;fill:#6D747A;}
	.st437{opacity:0.623;fill:#6D747A;}
	.st438{opacity:0.6393;fill:#6D747A;}
	.st439{opacity:0.6557;fill:#6D747A;}
	.st440{opacity:0.6721;fill:#6D747A;}
	.st441{opacity:0.6885;fill:#6D747A;}
	.st442{opacity:0.7049;fill:#6D747A;}
	.st443{opacity:0.7213;fill:#6D747A;}
	.st444{opacity:0.7377;fill:#6D747A;}
	.st445{opacity:0.7541;fill:#6D747A;}
	.st446{opacity:0.7705;fill:#6D747A;}
	.st447{opacity:0.7869;fill:#6D747A;}
	.st448{opacity:0.8033;fill:#6D747A;}
	.st449{opacity:0.8197;fill:#6D747A;}
	.st450{opacity:0.8361;fill:#6D747A;}
	.st451{opacity:0.8525;fill:#6D747A;}
	.st452{opacity:0.8689;fill:#6D747A;}
	.st453{opacity:0.8852;fill:#6D747A;}
	.st454{opacity:0.9016;fill:#6D747A;}
	.st455{opacity:0.918;fill:#6D747A;}
	.st456{opacity:0.9344;fill:#6D747A;}
	.st457{opacity:0.9508;fill:#6D747A;}
	.st458{opacity:0.9672;fill:#6D747A;}
	.st459{opacity:0.9836;fill:#6D747A;}
	.st460{fill:#6D747A;}
	.st461{fill:#B1EFF9;}
	.st462{fill:#66AFCC;}
	.st463{fill:#FDFCFC;}
	.st464{fill:#ABDFF3;}
	.st465{fill:#76CBEE;}
	.st466{opacity:0.5;fill-rule:evenodd;clip-rule:evenodd;fill:#FFCE3D;}
	.st467{fill:#39B54A;}
	.st468{fill:#3A1700;}
	.st469{fill:#FF5757;}
	.st470{opacity:0.29;fill:#B50000;}
	.st471{filter:url(#Adobe_OpacityMaskFilter_8_);}
	.st472{filter:url(#Adobe_OpacityMaskFilter_9_);}
	.st473{mask:url(#SVGID_35_);fill:url(#SVGID_36_);}
	.st474{fill:url(#SVGID_37_);}
	.st475{opacity:0.13;fill:#990000;}
	.st476{filter:url(#Adobe_OpacityMaskFilter_10_);}
	.st477{filter:url(#Adobe_OpacityMaskFilter_11_);}
	.st478{mask:url(#SVGID_38_);fill:url(#SVGID_39_);}
	.st479{opacity:0.38;fill:url(#SVGID_40_);}
	.st480{fill:#62432D;}
	.st481{filter:url(#Adobe_OpacityMaskFilter_12_);}
	.st482{filter:url(#Adobe_OpacityMaskFilter_13_);}
	.st483{mask:url(#SVGID_41_);fill:url(#SVGID_42_);}
	.st484{opacity:0.25;fill:url(#SVGID_43_);}
	.st485{opacity:0.32;fill:#331601;}
	.st486{fill:#E7D39C;}
	.st487{fill:#BC9D58;}
	.st488{fill:#D6BD7F;}
	.st489{filter:url(#Adobe_OpacityMaskFilter_14_);}
	.st490{filter:url(#Adobe_OpacityMaskFilter_15_);}
	.st491{mask:url(#SVGID_44_);fill:url(#SVGID_45_);}
	.st492{fill:url(#SVGID_46_);}
	.st493{fill:#87A7C2;}
	.st494{opacity:0.36;fill:#D3BE66;}
	.st495{filter:url(#Adobe_OpacityMaskFilter_16_);}
	.st496{filter:url(#Adobe_OpacityMaskFilter_17_);}
	.st497{mask:url(#SVGID_47_);fill:url(#SVGID_48_);}
	.st498{opacity:0.54;fill:url(#SVGID_49_);}
	.st499{fill:#6790A6;}
	.st500{fill:#7A5338;}
	.st501{filter:url(#Adobe_OpacityMaskFilter_18_);}
	.st502{filter:url(#Adobe_OpacityMaskFilter_19_);}
	.st503{mask:url(#SVGID_50_);fill:url(#SVGID_51_);}
	.st504{fill:url(#SVGID_52_);}
	.st505{filter:url(#Adobe_OpacityMaskFilter_20_);}
	.st506{filter:url(#Adobe_OpacityMaskFilter_21_);}
	.st507{mask:url(#SVGID_53_);fill:url(#SVGID_54_);}
	.st508{fill:url(#SVGID_55_);}
	.st509{filter:url(#Adobe_OpacityMaskFilter_22_);}
	.st510{filter:url(#Adobe_OpacityMaskFilter_23_);}
	.st511{mask:url(#SVGID_56_);fill:url(#SVGID_57_);}
	.st512{fill:url(#SVGID_58_);}
	.st513{opacity:0.23;fill:#331601;}
	.st514{opacity:0.17;fill:#331601;}
	.st515{filter:url(#Adobe_OpacityMaskFilter_24_);}
	.st516{filter:url(#Adobe_OpacityMaskFilter_25_);}
	.st517{mask:url(#SVGID_59_);fill:url(#SVGID_60_);}
	.st518{fill:url(#SVGID_61_);}
	.st519{filter:url(#Adobe_OpacityMaskFilter_26_);}
	.st520{filter:url(#Adobe_OpacityMaskFilter_27_);}
	.st521{mask:url(#SVGID_62_);fill:url(#SVGID_63_);}
	.st522{fill:url(#SVGID_64_);}
	.st523{filter:url(#Adobe_OpacityMaskFilter_28_);}
	.st524{filter:url(#Adobe_OpacityMaskFilter_29_);}
	.st525{mask:url(#SVGID_65_);fill:url(#SVGID_66_);}
	.st526{fill:url(#SVGID_67_);}
	.st527{fill:#473122;}
	.st528{filter:url(#Adobe_OpacityMaskFilter_30_);}
	.st529{filter:url(#Adobe_OpacityMaskFilter_31_);}
	.st530{mask:url(#SVGID_68_);fill:url(#SVGID_69_);}
	.st531{fill:url(#SVGID_70_);}
	.st532{filter:url(#Adobe_OpacityMaskFilter_32_);}
	.st533{filter:url(#Adobe_OpacityMaskFilter_33_);}
	.st534{mask:url(#SVGID_71_);fill:url(#SVGID_72_);}
	.st535{fill:url(#SVGID_73_);}
	.st536{opacity:0.09;fill:#680200;}
	.st537{filter:url(#Adobe_OpacityMaskFilter_34_);}
	.st538{filter:url(#Adobe_OpacityMaskFilter_35_);}
	.st539{mask:url(#SVGID_74_);fill:url(#SVGID_75_);}
	.st540{opacity:0.52;fill:url(#SVGID_76_);}
	.st541{filter:url(#Adobe_OpacityMaskFilter_36_);}
	.st542{filter:url(#Adobe_OpacityMaskFilter_37_);}
	.st543{mask:url(#SVGID_77_);fill:url(#SVGID_78_);}
	.st544{fill:url(#SVGID_79_);}
	.st545{filter:url(#Adobe_OpacityMaskFilter_38_);}
	.st546{filter:url(#Adobe_OpacityMaskFilter_39_);}
	.st547{mask:url(#SVGID_80_);fill:url(#SVGID_81_);}
	.st548{fill:url(#SVGID_82_);}
	.st549{fill:#798B3E;}
	.st550{fill:#60701E;}
	.st551{fill:#00A652;}
	.st552{fill:#4DB748;}
	.st553{fill:#BFD630;}
	.st554{fill:#FEF200;}
	.st555{fill:#FDB813;}
	.st556{fill:#F37022;}
	.st557{fill:#E4332D;}
	.st558{opacity:0.7;fill-rule:evenodd;clip-rule:evenodd;fill:#CCCCCC;}
	.st559{fill:#FEF4A7;}
	.st560{fill:url(#SVGID_83_);}
	.st561{fill:#CBCBCB;}
	.st562{fill:#999999;}
	.st563{fill:#E71F28;}
	.st564{fill:#CF1B22;}
	.st565{fill:#EA1C25;}
	.st566{fill:#F49424;}
	.st567{fill:#FBBF61;}
	.st568{fill:#D3801E;}
	.st569{fill:#F9AF3F;}
	.st570{fill:#CD8026;}
	.st571{fill:#FEFEFD;}
	.st572{fill:#7A7A7A;}
	.st573{fill:#E5E5E5;}
	.st574{fill:#B2B2B2;}
	.st575{fill:url(#SVGID_84_);}
	.st576{fill:url(#SVGID_85_);}
	.st577{fill:url(#SVGID_86_);}
	.st578{opacity:0.7;fill:#FEF4A7;}
	.st579{clip-path:url(#XMLID_11_);fill:#E07E39;}
	.st580{clip-path:url(#XMLID_11_);}
	.st581{fill:#E07E39;}
	.st582{clip-path:url(#XMLID_12_);}
	.st583{fill:#207D7B;}
	.st584{clip-path:url(#XMLID_12_);fill:none;stroke:#207D7B;stroke-width:4;stroke-miterlimit:10;}
	.st585{clip-path:url(#XMLID_12_);fill:#207D7B;}
	.st586{clip-path:url(#XMLID_12_);fill:none;stroke:#207D7B;stroke-width:2;stroke-miterlimit:10;}
	.st587{clip-path:url(#XMLID_13_);fill:none;stroke:#9C4842;stroke-width:4;stroke-linecap:round;stroke-miterlimit:10;}
	.st588{clip-path:url(#XMLID_13_);fill:none;stroke:#FFFFFF;stroke-width:4;stroke-linecap:round;stroke-miterlimit:10;}
	.st589{opacity:0.5;clip-path:url(#XMLID_13_);fill:#9C4842;}
	.st590{clip-path:url(#XMLID_13_);fill:#FFFFFF;}
	.st591{clip-path:url(#XMLID_13_);}
	.st592{fill:#9C4842;}
	.st593{clip-path:url(#XMLID_13_);fill:none;stroke:#9C4842;stroke-width:3;stroke-miterlimit:10;}
	.st594{fill:none;stroke:#FFD000;stroke-width:3;stroke-linecap:round;stroke-miterlimit:10;}
	.st595{fill:#FF6A28;}
	.st596{fill-rule:evenodd;clip-rule:evenodd;fill:#C48956;}
	.st597{fill:#766864;}
	.st598{fill:#E2D2BD;}
	.st599{fill:#574947;}
	.st600{fill:#3F3432;}
	.st601{fill:#796558;}
	.st602{fill:#EE7927;}
	.st603{fill:#EA5C29;}
	.st604{fill:#F18B20;}
	.st605{fill:#5B4C48;}
	.st606{opacity:0.47;fill:url(#XMLID_14_);}
	.st607{fill:#45B8EA;}
	.st608{fill:#E53519;}
	.st609{fill:#3EACD2;}
	.st610{fill:#D42028;}
	.st611{fill:#F09E4A;}
	.st612{clip-path:url(#SVGID_88_);}
	.st613{fill:#B8B7B8;}
	.st614{fill:#B8B8B8;}
	.st615{fill:url(#SVGID_89_);}
	.st616{fill:#403D3C;}
	.st617{fill:url(#SVGID_90_);}
	.st618{fill:url(#SVGID_91_);}
	.st619{fill:url(#SVGID_92_);}
	.st620{fill:url(#SVGID_93_);}
	.st621{fill:#EEEFEF;}
	.st622{fill:url(#SVGID_94_);}
	.st623{fill:url(#SVGID_95_);}
	.st624{fill:url(#SVGID_96_);}
	.st625{fill:url(#SVGID_97_);}
	.st626{clip-path:url(#SVGID_99_);}
	.st627{fill:#737171;}
	.st628{fill:#6F6D6D;}
	.st629{fill:#6C6969;}
	.st630{fill:#686666;}
	.st631{fill:#646262;}
	.st632{fill:#605E5E;}
	.st633{fill:#5D5A5A;}
	.st634{fill:#595757;}
	.st635{fill:#555353;}
	.st636{fill:#524F4F;}
	.st637{fill:#4E4B4B;}
	.st638{fill:#4A4848;}
	.st639{fill:#464444;}
	.st640{fill:#434040;}
	.st641{fill:#3F3C3C;}
	.st642{fill:#3B3939;}
	.st643{fill:#373535;}
	.st644{fill:#343131;}
	.st645{fill:#302D2D;}
	.st646{fill:#2C2A2A;}
	.st647{fill:#292626;}
	.st648{fill:#252222;}
	.st649{fill:#211E1E;}
	.st650{fill:#1D1B1B;}
	.st651{fill:#1A1717;}
	.st652{fill:#161313;}
	.st653{fill:url(#SVGID_100_);}
	.st654{fill:url(#SVGID_101_);}
	.st655{fill:#ED7F78;}
	.st656{fill:#FFC700;}
	.st657{fill:#333333;}
	.st658{fill:#616161;}
	.st659{fill:#757575;}
	.st660{fill:#F7F7F7;}
	.st661{opacity:0.3;}
	.st662{fill:#FBFBFB;}
	.st663{fill:#F1F1F1;}
	.st664{clip-path:url(#SVGID_103_);}
	.st665{fill-rule:evenodd;clip-rule:evenodd;fill:#CA8BD0;}
	.st666{fill:#EF676E;}
	.st667{fill:#DA4547;}
	.st668{fill:#BC2B33;}
	.st669{fill:#F4DABF;}
	.st670{fill:#EAC0A0;}
	.st671{opacity:0.1;fill:#F9F7F7;}
	.st672{fill-rule:evenodd;clip-rule:evenodd;fill:#749AD0;}
	.st673{fill:#383838;}
	.st674{fill:url(#SVGID_104_);}
	.st675{fill:url(#SVGID_105_);}
	.st676{fill:url(#SVGID_106_);}
	.st677{fill:url(#SVGID_107_);}
	.st678{fill:url(#SVGID_108_);}
	.st679{fill:url(#SVGID_109_);}
	.st680{fill:url(#SVGID_110_);}
	.st681{fill:url(#SVGID_111_);}
	.st682{fill:url(#SVGID_112_);}
	.st683{fill:url(#SVGID_113_);}
	.st684{fill:url(#SVGID_114_);}
	.st685{fill:url(#SVGID_115_);}
	.st686{fill:url(#SVGID_116_);}
	.st687{fill:url(#SVGID_117_);}
	.st688{fill:url(#SVGID_118_);}
	.st689{fill:url(#SVGID_119_);}
	.st690{fill:url(#SVGID_120_);}
	.st691{fill:url(#SVGID_121_);}
	.st692{fill:url(#SVGID_122_);}
	.st693{fill:url(#SVGID_123_);}
	.st694{fill:url(#SVGID_124_);}
	.st695{fill:url(#SVGID_125_);}
	.st696{fill:url(#SVGID_126_);}
	.st697{fill:url(#SVGID_127_);}
	.st698{fill:url(#SVGID_128_);}
	.st699{fill:url(#SVGID_129_);}
	.st700{fill:url(#SVGID_130_);}
	.st701{fill:url(#SVGID_131_);}
	.st702{fill:url(#SVGID_132_);}
	.st703{fill:url(#SVGID_133_);}
	.st704{fill:url(#SVGID_134_);}
	.st705{fill:url(#SVGID_135_);}
	.st706{fill:url(#SVGID_136_);}
	.st707{fill:url(#SVGID_137_);}
	.st708{fill:url(#SVGID_138_);}
	.st709{fill:url(#SVGID_139_);}
	.st710{fill:url(#SVGID_140_);}
	.st711{fill:url(#SVGID_141_);}
	.st712{fill:url(#SVGID_142_);}
	.st713{fill:url(#SVGID_143_);}
	.st714{fill:url(#SVGID_144_);}
	.st715{fill:url(#SVGID_145_);}
	.st716{fill:url(#SVGID_146_);}
	.st717{fill:url(#SVGID_147_);}
	.st718{fill:url(#SVGID_148_);}
	.st719{fill:url(#SVGID_149_);}
	.st720{fill:url(#SVGID_150_);}
	.st721{fill:url(#SVGID_151_);}
	.st722{fill:url(#SVGID_152_);}
	.st723{fill:url(#SVGID_153_);}
	.st724{fill:url(#SVGID_154_);}
	.st725{fill:url(#SVGID_155_);}
	.st726{fill:url(#SVGID_156_);}
	.st727{fill:url(#SVGID_157_);}
	.st728{fill:#C1272D;}
	.st729{fill:#52C961;}
	.st730{fill:#F72735;}
	.st731{opacity:0.8;fill-rule:evenodd;clip-rule:evenodd;fill:#CCCCCC;}
	.st732{clip-path:url(#SVGID_162_);}
	.st733{clip-path:url(#SVGID_164_);fill:url(#SVGID_165_);}
	.st734{fill:url(#SVGID_166_);}
	.st735{fill:url(#SVGID_167_);}
	.st736{fill:url(#SVGID_168_);}
	.st737{filter:url(#Adobe_OpacityMaskFilter_40_);}
	.st738{filter:url(#Adobe_OpacityMaskFilter_41_);}
	.st739{mask:url(#SVGID_169_);fill:url(#SVGID_170_);}
	.st740{fill:url(#SVGID_171_);}
	.st741{clip-path:url(#SVGID_173_);fill:url(#SVGID_174_);}
	.st742{fill:url(#SVGID_175_);}
	.st743{fill:url(#SVGID_176_);}
	.st744{filter:url(#Adobe_OpacityMaskFilter_42_);}
	.st745{filter:url(#Adobe_OpacityMaskFilter_43_);}
	.st746{mask:url(#SVGID_177_);fill:url(#SVGID_178_);}
	.st747{fill:url(#SVGID_179_);}
	.st748{opacity:0.7;fill:url(#SVGID_180_);}
	.st749{fill:url(#SVGID_181_);}
	.st750{filter:url(#Adobe_OpacityMaskFilter_44_);}
	.st751{filter:url(#Adobe_OpacityMaskFilter_45_);}
	.st752{mask:url(#SVGID_182_);fill:url(#SVGID_183_);}
	.st753{fill:url(#SVGID_184_);}
	.st754{opacity:0.6;fill:url(#SVGID_185_);}
	.st755{fill:url(#SVGID_186_);}
	.st756{filter:url(#Adobe_OpacityMaskFilter_46_);}
	.st757{filter:url(#Adobe_OpacityMaskFilter_47_);}
	.st758{mask:url(#SVGID_187_);fill:url(#SVGID_188_);}
	.st759{opacity:0.7;fill:url(#SVGID_189_);}
	.st760{opacity:0.47;fill:url(#XMLID_16_);}
	.st761{opacity:0.6;fill-rule:evenodd;clip-rule:evenodd;fill:#C48956;}
	.st762{clip-path:url(#SVGID_191_);}
	.st763{fill:url(#SVGID_192_);}
	.st764{fill:url(#SVGID_193_);}
	.st765{fill:url(#SVGID_194_);}
	.st766{fill:url(#SVGID_195_);}
	.st767{fill:url(#SVGID_196_);}
	.st768{fill:url(#SVGID_197_);}
	.st769{fill:url(#SVGID_198_);}
	.st770{fill:url(#SVGID_199_);}
	.st771{fill:url(#SVGID_200_);}
	.st772{clip-path:url(#SVGID_202_);}
	.st773{fill:url(#SVGID_203_);}
	.st774{fill:url(#SVGID_204_);}
	.st775{opacity:0.5;fill:#F09E4A;}
	.st776{fill:url(#SVGID_205_);}
	.st777{fill:url(#SVGID_206_);}
	.st778{fill:url(#SVGID_207_);}
	.st779{fill:url(#SVGID_208_);}
	.st780{fill:url(#SVGID_209_);}
	.st781{fill:url(#SVGID_210_);}
	.st782{fill:url(#SVGID_211_);}
	.st783{fill:url(#SVGID_212_);}
	.st784{fill:url(#SVGID_213_);}
	.st785{fill:url(#SVGID_214_);}
	.st786{fill:url(#SVGID_215_);}
	.st787{fill:url(#SVGID_216_);}
	.st788{fill:url(#SVGID_217_);}
	.st789{fill:url(#SVGID_218_);}
	.st790{fill:url(#SVGID_219_);}
	.st791{fill:url(#SVGID_220_);}
	.st792{fill:url(#SVGID_221_);}
	.st793{fill:url(#SVGID_222_);}
	.st794{fill:url(#SVGID_223_);}
	.st795{fill:url(#SVGID_224_);}
	.st796{fill:url(#SVGID_225_);}
	.st797{fill:url(#SVGID_226_);}
	.st798{fill:url(#SVGID_227_);}
	.st799{fill:url(#SVGID_228_);}
	.st800{fill:url(#SVGID_229_);}
	.st801{fill:url(#SVGID_230_);}
	.st802{fill:url(#SVGID_231_);}
	.st803{fill:url(#SVGID_232_);}
	.st804{fill:url(#SVGID_233_);}
	.st805{fill:url(#SVGID_234_);}
	.st806{fill:url(#SVGID_235_);}
	.st807{fill:url(#SVGID_236_);}
	.st808{fill:url(#SVGID_237_);}
	.st809{fill:url(#SVGID_238_);}
	.st810{fill:url(#SVGID_239_);}
	.st811{fill:url(#SVGID_240_);}
	.st812{fill:url(#SVGID_241_);}
	.st813{fill:url(#SVGID_242_);}
	.st814{fill:url(#SVGID_243_);}
	.st815{fill:url(#SVGID_244_);}
	.st816{fill:url(#SVGID_245_);}
	.st817{fill:url(#SVGID_246_);}
	.st818{fill:url(#SVGID_247_);}
	.st819{fill:url(#SVGID_248_);}
	.st820{fill:url(#SVGID_249_);}
	.st821{fill:url(#SVGID_250_);}
	.st822{fill:url(#SVGID_251_);}
	.st823{fill:url(#SVGID_252_);}
	.st824{fill:url(#SVGID_253_);}
	.st825{fill:url(#SVGID_254_);}
	.st826{fill:url(#SVGID_255_);}
	.st827{fill:url(#SVGID_256_);}
	.st828{fill:url(#SVGID_257_);}
	.st829{fill:url(#SVGID_258_);}
	.st830{opacity:0.6;fill-rule:evenodd;clip-rule:evenodd;fill:#749AD0;}
</style>
<rect x="-1" y="0.43" class="st0" width="793.7" height="566.93"/>
<g>
	<ellipse class="st1" cx="396.71" cy="316.76" rx="274.87" ry="194.39"/>
	<ellipse class="st2" cx="396.71" cy="316.76" rx="242.78" ry="171.7"/>
	<ellipse class="st3" cx="396.71" cy="316.76" rx="221.8" ry="156.86"/>
	<g>
		<path class="st8" d="M398.56,197.27c0,0-31.14-5.95,0-58.78C398.56,138.49,428.1,183.51,398.56,197.27z"/>
		<path class="st8" d="M423.82,199.99c0,0-29.94-9.96,8.84-58.2C432.66,141.79,455.14,190.22,423.82,199.99z"/>
		<path class="st8" d="M448.48,204.92c0,0-28.76-12.62,14.86-57.13C463.34,147.79,480.67,198.03,448.48,204.92z"/>
		<path class="st8" d="M472.78,212.81c0,0-27.48-14.88,20.09-55.72C492.87,157.09,505.49,208.53,472.78,212.81z"/>
		<path class="st8" d="M496,222.65c0,0-25.89-17.19,25.53-53.75C521.53,168.9,529,221.2,496,222.65z"/>
		<path class="st8" d="M372.43,198.01c0,0,29.94-9.96-8.84-58.2C363.59,139.81,341.11,188.24,372.43,198.01z"/>
		<path class="st8" d="M347.77,202.94c0,0,28.76-12.62-14.86-57.13C332.91,145.81,315.57,196.04,347.77,202.94z"/>
		<path class="st8" d="M323.46,210.83c0,0,27.49-14.88-20.09-55.72C303.38,155.11,290.75,206.55,323.46,210.83z"/>
		<path class="st8" d="M300.24,220.66c0,0,25.89-17.19-25.53-53.75C274.71,166.91,267.25,219.22,300.24,220.66z"/>
		<path class="st8" d="M397.72,414.78c0,0,34.7,6.63,0,65.5C397.72,480.28,364.8,430.12,397.72,414.78z"/>
		<path class="st8" d="M369.57,411.75c0,0,33.36,11.1-9.85,64.85C359.72,476.6,334.67,422.64,369.57,411.75z"/>
		<path class="st8" d="M342.09,406.26c0,0,32.05,14.06-16.56,63.66C325.53,469.92,306.22,413.94,342.09,406.26z"/>
		<path class="st8" d="M315.01,397.47c0,0,30.63,16.58-22.38,62.09C292.63,459.56,278.56,402.24,315.01,397.47z"/>
		<path class="st8" d="M289.14,386.51c0,0,28.85,19.15-28.44,59.9C260.69,446.4,252.37,388.12,289.14,386.51z"/>
		<path class="st8" d="M268.57,370.9c0,0,23.89,24.37-41.3,53C227.27,423.9,232.26,365.29,268.57,370.9z"/>
		<path class="st8" d="M254.17,352.04c0,0,13.83,30.39-57.88,37.16C196.29,389.2,221.94,335.48,254.17,352.04z"/>
		<path class="st8" d="M242.06,331.83c0,0,3.37,32.86-67.2,19.21C174.86,351.04,216.67,307,242.06,331.83z"/>
		<path class="st8" d="M238.25,308.48c0,0-5.03,32.67-70.16,3.92C168.09,312.4,219.85,278.78,238.25,308.48z"/>
		<path class="st8" d="M243.21,285c0,0-12.31,30.95-69.47-9.96C173.74,275.04,231.94,252.35,243.21,285z"/>
		<path class="st8" d="M252.55,262.17c0,0-17.43,25.88-60.93-21.25C191.62,240.92,248.96,230.6,252.55,262.17z"/>
		<path class="st8" d="M266.33,246.21c0,0-22.64,19.1-48.86-33.39C217.47,212.81,271.67,217.06,266.33,246.21z"/>
		<path class="st8" d="M283.11,229.88c0,0-25.34,15.88-43.23-39.56C239.87,190.31,292.87,201.74,283.11,229.88z"/>
		<path class="st8" d="M524.86,370.9c0,0-23.89,24.37,41.3,53C566.16,423.9,561.16,365.29,524.86,370.9z"/>
		<path class="st8" d="M539.26,352.04c0,0-13.83,30.39,57.88,37.16C597.14,389.2,571.49,335.48,539.26,352.04z"/>
		<path class="st8" d="M551.37,331.83c0,0-3.37,32.86,67.2,19.21C618.57,351.04,576.76,307,551.37,331.83z"/>
		<path class="st8" d="M555.18,308.48c0,0,5.03,32.67,70.16,3.92C625.34,312.4,573.58,278.78,555.18,308.48z"/>
		<path class="st8" d="M550.22,285c0,0,12.31,30.95,69.47-9.96C619.69,275.04,561.48,252.35,550.22,285z"/>
		<path class="st8" d="M540.88,262.17c0,0,17.43,25.88,60.93-21.25C601.81,240.92,544.47,230.6,540.88,262.17z"/>
		<path class="st8" d="M527.1,246.21c0,0,22.64,19.1,48.86-33.39C575.96,212.81,521.76,217.06,527.1,246.21z"/>
		<path class="st8" d="M510.32,229.88c0,0,25.34,15.88,43.23-39.56C553.55,190.31,500.56,201.74,510.32,229.88z"/>
		<path class="st8" d="M426.83,413.96c0,0-33.36,11.1,9.85,64.85C436.68,478.81,461.73,424.85,426.83,413.96z"/>
		<path class="st8" d="M454.31,408.47c0,0-32.05,14.06,16.56,63.66C470.87,472.13,490.18,416.15,454.31,408.47z"/>
		<path class="st8" d="M481.39,399.68c0,0-30.63,16.58,22.38,62.09C503.77,461.77,517.84,404.45,481.39,399.68z"/>
		<path class="st8" d="M507.27,388.72c0,0-28.85,19.15,28.44,59.9C535.71,448.61,544.03,390.33,507.27,388.72z"/>
	</g>
	<g>
		<path class="st9" d="M397.89,186.83c-1.01-0.76-2.08-1.91-2.81-3.64c-1.14-2.73-2.51-9.78,3.45-24.11
			c2.9,7.43,4.94,15.81,3.18,21.97C401.04,183.4,399.79,185.3,397.89,186.83z"/>
		<path class="st9" d="M424.58,189.55c-0.82-0.84-1.64-2.04-2.08-3.71c-0.75-2.85-1.09-10.05,7.09-23.63
			c1.71,7.63,2.43,16.04-0.16,21.86C428.38,186.44,426.8,188.23,424.58,189.55z"/>
		<path class="st9" d="M450.24,194.58c-0.69-0.87-1.33-2.08-1.59-3.68c-0.47-2.91-0.1-10.14,9.54-23.01c0.88,7.67,0.7,16-2.43,21.53
			C454.43,191.76,452.64,193.45,450.24,194.58z"/>
		<path class="st9" d="M475.42,202.64c-0.57-0.89-1.06-2.08-1.18-3.6c-0.23-2.95,0.79-10.16,11.7-22.32
			c0.16,7.65-0.81,15.82-4.46,21.14C479.92,200.12,477.95,201.69,475.42,202.64z"/>
		<path class="st9" d="M499.57,212.72c-0.44-0.89-0.78-2.05-0.76-3.47c0.05-2.97,1.73-10.09,13.85-21.32
			c-0.62,7.57-2.4,15.53-6.53,20.48C504.35,210.57,502.21,211.98,499.57,212.72z"/>
		<path class="st9" d="M371.66,187.56c-2.22-1.31-3.8-3.11-4.85-5.48c-2.59-5.83-1.86-14.23-0.16-21.86
			c8.18,13.58,7.84,20.78,7.09,23.63C373.31,185.52,372.48,186.72,371.66,187.56z"/>
		<path class="st9" d="M346,192.59c-2.4-1.13-4.19-2.82-5.52-5.15c-3.14-5.54-3.31-13.86-2.43-21.54
			c9.83,13.11,10.06,20.37,9.49,23.28C347.27,190.64,346.65,191.77,346,192.59z"/>
		<path class="st9" d="M320.83,200.65c-2.53-0.95-4.5-2.51-6.06-4.78c-3.65-5.32-4.62-13.49-4.46-21.15
			c11.12,12.38,11.98,19.65,11.67,22.6C321.83,198.71,321.35,199.82,320.83,200.65z"/>
		<path class="st9" d="M296.67,210.74c-2.64-0.74-4.77-2.15-6.57-4.31c-4.12-4.96-5.91-12.91-6.53-20.48
			c12.11,11.22,13.8,18.35,13.85,21.32C297.45,208.69,297.11,209.84,296.67,210.74z"/>
		<path class="st9" d="M397.7,460.19c-3.81-9-6.78-19.73-4.53-27.62c0.89-3.12,2.59-5.56,5.26-7.48c1.41,0.9,3.06,2.42,4.12,4.93
			C404.29,434.1,405.41,442.95,397.7,460.19z"/>
		<path class="st9" d="M362.67,456.68c-2.37-9.3-3.65-20.14-0.33-27.61c1.38-3.11,3.5-5.39,6.54-6.99c1.2,1.04,2.52,2.67,3.18,5.13
			C373.2,431.47,373.03,440.43,362.67,456.68z"/>
		<path class="st9" d="M330.5,450.26c-1.35-9.4-1.47-20.15,2.55-27.26c1.73-3.05,4.11-5.17,7.37-6.52c1.04,1.11,2.13,2.79,2.53,5.18
			C343.54,425.2,343.1,434.2,330.5,450.26z"/>
		<path class="st9" d="M299.39,440.3c-0.45-9.41,0.44-20.04,5.06-26.77c2.03-2.95,4.63-4.91,8.04-6c0.9,1.16,1.77,2.85,1.96,5.16
			C314.73,416.27,313.5,425.23,299.39,440.3z"/>
		<path class="st9" d="M269.34,427.73c0.5-9.36,2.45-19.76,7.68-26.04c2.33-2.81,5.15-4.55,8.68-5.36c0.74,1.19,1.4,2.88,1.37,5.08
			C287.03,405.01,284.95,413.86,269.34,427.73z"/>
		<path class="st9" d="M240.1,407.08c3.57-12.34,10.42-26.72,23.01-27.22c0.38,1.22,0.58,2.82,0.15,4.74
			C262.47,388.16,258.55,396.48,240.1,407.08z"/>
		<path class="st9" d="M214.78,377.1c7.18-9.47,16.98-18.9,26.88-18.9c1.41,0,2.81,0.18,4.21,0.56c-0.12,1.15-0.51,2.54-1.44,4.03
			C242.44,365.96,235.86,372.72,214.78,377.1z"/>
		<path class="st9" d="M205.1,345.02c-2.65,0-5.47-0.11-8.44-0.34c8.24-5.84,18.2-11.11,26.88-11.11c3.16,0,5.9,0.69,8.4,2.15
			c-0.39,0.82-0.98,1.72-1.85,2.61C225.91,342.65,217.04,345.02,205.1,345.02z"/>
		<path class="st9" d="M212.53,314.9c-6.08,0-13.29-1.27-21.55-3.8c7.25-2.99,15.72-5.55,23.42-5.55c6.61,0,10.56,1.99,13.07,4.31
			C225.52,312.2,221.37,314.9,212.53,314.9z"/>
		<path class="st9" d="M222.72,286.89c-5.33,0-13.79-1.71-26.33-8.52c4.98-0.97,10.44-1.67,15.73-1.67
			c12.53,0,17.83,3.84,20.28,7.27C230.61,285.41,227.6,286.89,222.72,286.89z"/>
		<path class="st9" d="M236.98,259.92c-4.12,0-11.9-1.75-23.72-11.28c11.49,0.17,24.5,2.27,28.71,10.27
			C240.74,259.48,239.09,259.92,236.98,259.92z"/>
		<path class="st9" d="M255.7,240.26c-3.16,0-10.31-1.72-19.66-14.45c8.04,2.39,15.66,5.91,19.26,10.59
			c0.93,1.21,1.53,2.43,1.84,3.75C256.7,240.22,256.22,240.26,255.7,240.26z"/>
		<path class="st9" d="M274.61,222.65c-6.21,0-12.69-6.16-18.45-17.12c7.62,3.42,14.69,7.91,17.55,13.02
			c0.76,1.36,1.18,2.69,1.26,4.1C274.84,222.65,274.73,222.65,274.61,222.65z"/>
		<path class="st9" d="M553.33,407.09c-18.78-10.78-22.54-19.22-23.23-22.8c-0.34-1.78-0.14-3.28,0.21-4.42
			C542.9,380.35,549.75,394.74,553.33,407.09z"/>
		<path class="st9" d="M578.66,377.11c-21.53-4.46-27.97-11.4-29.86-14.65c-0.79-1.36-1.12-2.63-1.24-3.69
			c1.41-0.37,2.81-0.56,4.22-0.56C561.67,358.21,571.47,367.63,578.66,377.11z"/>
		<path class="st9" d="M588.33,345.02c-12.23,0-21.21-2.48-25.27-6.98c-0.71-0.79-1.21-1.59-1.57-2.32c2.5-1.46,5.24-2.15,8.4-2.15
			c8.68,0,18.64,5.27,26.88,11.11C593.8,344.91,590.98,345.02,588.33,345.02L588.33,345.02z"/>
		<path class="st9" d="M580.9,314.9c-8.85,0-13-2.71-14.93-5.04c2.51-2.32,6.46-4.31,13.07-4.31c7.7,0,16.17,2.57,23.42,5.55
			C594.19,313.63,586.99,314.9,580.9,314.9L580.9,314.9z"/>
		<path class="st9" d="M570.71,286.89c-4.88,0-7.9-1.48-9.68-2.92c2.44-3.43,7.74-7.27,20.28-7.27c5.32,0,10.78,0.7,15.75,1.67
			C584.51,285.18,576.05,286.89,570.71,286.89L570.71,286.89z"/>
		<path class="st9" d="M556.44,259.92c-2.1,0-3.75-0.45-4.99-1.01c4.21-8,17.22-10.09,28.71-10.27
			C568.35,258.17,560.57,259.92,556.44,259.92L556.44,259.92z"/>
		<path class="st9" d="M537.72,240.26c-0.51,0-0.99-0.04-1.43-0.11c0.31-1.32,0.92-2.55,1.85-3.76c3.76-4.89,11.5-8.31,19.25-10.58
			C548.04,238.54,540.89,240.26,537.72,240.26L537.72,240.26z"/>
		<path class="st9" d="M518.47,222.64c0.08-1.4,0.5-2.74,1.26-4.11c3-5.33,10.19-9.74,17.54-13c-5.76,10.95-12.24,17.12-18.45,17.12
			C518.82,222.65,518.58,222.65,518.47,222.64z"/>
		<path class="st9" d="M433.71,458.85c-10.34-16.22-10.51-25.17-9.37-29.43c0.66-2.46,1.98-4.1,3.18-5.13
			c3.05,1.6,5.17,3.89,6.55,7.01C437.36,438.71,436.05,449.57,433.71,458.85z"/>
		<path class="st9" d="M465.9,452.47c-12.59-16.06-13.04-25.06-12.45-28.6c0.4-2.39,1.49-4.07,2.53-5.18
			c3.26,1.34,5.64,3.46,7.37,6.52C467.37,432.32,467.25,443.08,465.9,452.47z"/>
		<path class="st9" d="M496.98,442.49c-14.31-15.29-15.38-24.29-15-27.88c0.23-2.14,1.09-3.76,1.94-4.86
			c3.42,1.09,6.02,3.05,8.05,6.02C496.54,422.44,497.42,433.1,496.98,442.49z"/>
		<path class="st9" d="M527.07,429.94c-15.62-13.87-17.69-22.72-17.73-26.32c-0.02-2.2,0.63-3.89,1.37-5.08
			c3.53,0.8,6.34,2.55,8.68,5.36C524.61,410.18,526.57,420.59,527.07,429.94z"/>
	</g>
	<ellipse class="st6" cx="396.71" cy="309.39" rx="165.9" ry="122.75"/>
	<ellipse cx="396.71" cy="291.37" rx="166.7" ry="119.88"/>
	<ellipse class="st7" cx="396.89" cy="283.71" rx="166.01" ry="111.87"/>
	<path d="M464.88,331.25v-21.02l216.79,125.93v36.82c0,18.57-19.94,30.33-36.19,21.34l-82.33-45.55v-20.81l80.7,46.34v-33.41
		L464.88,331.25z"/>
	<path d="M351.02,320.74v-21.02L119.37,436.16v36.82c0,18.57,19.94,30.33,36.19,21.34l82.33-45.55v-20.81l-80.7,46.34v-33.41
		L351.02,320.74z"/>
	<path d="M450.77,218.46L629.14,67.73v41.19c0,8.52-3.78,16.6-10.32,22.06l-76.26,63.67v-19.75l64.73-54.64v-15.55L450.77,235.7
		V218.46z"/>
	<path d="M340.48,223.37L158.03,67.73v41.19c0,8.52,3.78,16.6,10.32,22.06l76.26,63.67v-19.75l-64.73-54.64v-15.55l160.6,135.88
		V223.37z"/>
</g>
<g>
	<defs>
		<rect id="SVGID_87_" x="513.09" y="573.56" width="477.18" height="566.44"/>
	</defs>
	<clipPath id="SVGID_2_">
		<use xlink:href="#SVGID_87_"  style="overflow:visible;"/>
	</clipPath>
	<g class="st302">
		<linearGradient id="SVGID_4_" gradientUnits="userSpaceOnUse" x1="758.4854" y1="466.2361" x2="763.476" y2="466.2361">
			<stop  offset="0" style="stop-color:#0D0D0D"/>
			<stop  offset="0.4165" style="stop-color:#0F0F0F"/>
			<stop  offset="0.5771" style="stop-color:#161616"/>
			<stop  offset="0.693" style="stop-color:#222222"/>
			<stop  offset="0.7875" style="stop-color:#333333"/>
			<stop  offset="0.8008" style="stop-color:#363636"/>
			<stop  offset="0.9337" style="stop-color:#0D0D0D"/>
		</linearGradient>
		<rect x="758.49" y="215.95" style="fill:url(#SVGID_4_);" width="4.99" height="500.57"/>
	</g>
</g>
</svg>
