<?xml version="1.0" encoding="utf-8"?>
<!-- Generator: Adobe Illustrator 23.0.3, SVG Export Plug-In . SVG Version: 6.00 Build 0)  -->
<svg version="1.1" id="Capa_1" xmlns="http://www.w3.org/2000/svg" xmlns:xlink="http://www.w3.org/1999/xlink" x="0px" y="0px"
	 viewBox="0 0 256.6 206" style="enable-background:new 0 0 256.6 206;" xml:space="preserve">
<style type="text/css">
	.st0{clip-path:url(#SVGID_2_);fill:#4E555B;}
	.st1{clip-path:url(#SVGID_2_);fill:#859097;}
	.st2{clip-path:url(#SVGID_2_);fill:#E7B577;}
	.st3{clip-path:url(#SVGID_2_);fill:#D89F62;}
	.st4{clip-path:url(#SVGID_2_);fill:#552E1A;}
	.st5{clip-path:url(#SVGID_2_);fill:#FFFFFF;}
	.st6{clip-path:url(#SVGID_2_);fill:#D78E4C;}
	.st7{clip-path:url(#SVGID_2_);fill:#043D5D;}
	.st8{clip-path:url(#SVGID_2_);fill:#C49B66;}
	.st9{clip-path:url(#SVGID_2_);fill:#00559C;}
	.st10{clip-path:url(#SVGID_2_);fill:#CC6B40;}
	.st11{clip-path:url(#SVGID_2_);fill:#007DC5;}
	.st12{clip-path:url(#SVGID_2_);fill:#00ABC5;}
	.st13{clip-path:url(#SVGID_2_);fill:none;stroke:#043D5D;stroke-width:1.6756;stroke-miterlimit:10;}
	.st14{clip-path:url(#SVGID_2_);fill:none;stroke:#043D5D;stroke-width:1.1969;stroke-miterlimit:10;}
	.st15{clip-path:url(#SVGID_2_);fill:#E6E7E8;}
	.st16{clip-path:url(#SVGID_2_);fill:#FAA74A;}
	.st17{clip-path:url(#SVGID_2_);fill:#116984;}
	.st18{clip-path:url(#SVGID_2_);fill:#D2611C;}
	.st19{clip-path:url(#SVGID_2_);fill:#5A2F1C;}
	.st20{clip-path:url(#SVGID_2_);fill:#F8971D;}
	.st21{clip-path:url(#SVGID_2_);fill:#BCCBD3;}
	.st22{opacity:0.3;clip-path:url(#SVGID_2_);}
	.st23{clip-path:url(#SVGID_4_);}
	.st24{clip-path:url(#SVGID_6_);fill:#00ABC5;}
	.st25{clip-path:url(#SVGID_6_);fill:#00B4CB;}
	.st26{clip-path:url(#SVGID_2_);fill:#D4EFFC;}
	.st27{clip-path:url(#SVGID_2_);fill:#FFCB05;}
	.st28{clip-path:url(#SVGID_2_);fill:#F47721;}
	.st29{clip-path:url(#SVGID_2_);fill:none;stroke:#043D5D;stroke-width:0.7181;stroke-miterlimit:10;}
</style>
<g>
	<defs>
		<rect id="SVGID_1_" x="-0.3" width="256.6" height="206"/>
	</defs>
	<clipPath id="SVGID_2_">
		<use xlink:href="#SVGID_1_"  style="overflow:visible;"/>
	</clipPath>
	<path class="st0" d="M201.5,125c-0.1,1.3-1.3,2.4-2.6,2.4h-22.7c-1.3,0-2.5-1.1-2.6-2.4l-3.1-38.3c-0.1-1.3,0.9-2.4,2.2-2.4h29.6
		c1.3,0,2.4,1.1,2.2,2.4L201.5,125z"/>
	<path class="st1" d="M173,118.5l-2.5-31.8c-0.1-1.3,0.9-2.4,2.2-2.4h29.6L173,118.5z"/>
	<path class="st0" d="M204.3,81.8c-0.1,1.3-1.3,2.4-2.6,2.4h-28.8c-1.3,0-2.5-1.1-2.6-2.4l-0.5-6.4c-0.1-1.3,0.9-2.4,2.3-2.4h30.5
		c1.3,0,2.4,1.1,2.3,2.4L204.3,81.8z"/>
	<path class="st2" d="M171.7,108.9c-1.6,0.1-10.3-8.3-10.3-8.3s1.1-2.5,0.5-2.7c-0.5-0.2-1.2,1.8-1.2,1.8s-2.3-2.5-2.6-2.2
		c-0.6,0.6,1.2,2.1,1.2,2.1s-2.8-1.1-3-0.5c-0.2,0.7,2.9,1.4,2.9,1.4s-3.1,0-3.1,0.6c0,0.8,3,0.1,3,0.1s-2.4,0.8-2.4,1.5
		c0,0.6,3.1-0.6,3.1-0.6c1.5,1.5,8.8,9.7,12.3,10.3c2.9,0.5,7-6.1,9-9.5l0.8-1.1c0,0-2.9-1.5-4-2.8
		C176.1,101.9,172.9,108.9,171.7,108.9"/>
	<path class="st2" d="M199.3,99.4c-2.4-0.4-4.1,1.5-4.2,2.6c1.5,3.1,6.1,9.1,6.5,10.9c0.3,1.8-1.9,6.4-3.7,9.2l0,0c0,0,0,0,0,0.1
		c0,0,0,0,0,0.1c0,0,0,0,0,0l-0.4,0.6c0,0,0,0,0,0c-0.1,0.1-0.2,0.3-0.2,0.4l0,0v0c0,0,0,0.1-0.1,0.1c0,0.1-0.1,0.1-0.1,0.2
		c-0.3-0.5-0.7-1.3-1-1.2c-0.4,0.1,0.1,1.7,0.1,1.7s-3,0.3-3,0.9c0,0.6,2.3,0.1,2.3,0.1s-2.6,0.9-2.2,1.4c0.3,0.5,2.6-0.7,2.6-0.7
		s-2.1,1.5-1.6,1.9c0.5,0.4,2.2-1.4,2.2-1.4s-1.5,1.8-1,2.3c0.5,0.5,2.1-2.8,2.1-2.8l0.1-0.2c0.2-0.3,0.6-0.7,1-1.2v0l0.4-0.6
		c0,0,0,0,0,0c0.1-0.1,0.2-0.3,0.4-0.4l0,0c2.5-3.1,5.2-7.2,5.7-9.3C205.7,111,200,100.7,199.3,99.4"/>
	<path class="st3" d="M172.1,112.4c2.9,0.5,7-6.1,9-9.5l0.8-1.1c0,0-0.2,0-0.8-0.3c-0.5,1-5.8,10.8-9,10.2
		c-3.6-0.6-11.2-8.6-11.2-8.6l-1.1-0.9C162.3,104.7,169,111.9,172.1,112.4"/>
	<path class="st2" d="M186.8,91c0-0.4,0-2.8,0.1-3.5c0.1,0,0.3,0,0.4,0c1,0,1.6-0.1,2.4-0.3c0.1,1,0.4,4.2,1.2,4.3
		c0,0-0.7,7.4-2.5,7.4c-1.2,0-2.9-4.7-2.9-4.7S186.8,91.5,186.8,91"/>
	<path class="st3" d="M189.7,86.5c0,0.4,0.1,1.8,0.2,2.3c-0.5,0.4-0.5,0.7-1.7,1c-0.6,0.2-1.1,0-1.4-0.1c0-0.4,0-2.5,0-2.9
		c0.2,0,0.4,0.1,0.6,0.1C188.2,86.9,189,86.8,189.7,86.5"/>
	<path class="st2" d="M194,82.7c0,0-3.7,5.9-10.3,5.9c-3.4,0-3.7-5.4-3.9-7.5c-1.5,0.7-2.7-0.6-2.7-0.6s2.3-5,2.7-8.2
		c0.3-2.8,0.7-4.8,0.7-4.8s3.6-0.5,8.7-0.5C197.6,67,194,82.7,194,82.7"/>
	<path class="st4" d="M184.8,78.1c0.1,0.7-0.2,1.2-0.6,1.3c-0.4,0-0.8-0.5-0.8-1.1c-0.1-0.7,0.2-1.2,0.6-1.3
		C184.4,76.9,184.8,77.4,184.8,78.1"/>
	<path class="st5" d="M184.2,77.7c0,0.3-0.1,0.5-0.2,0.5c-0.2,0-0.3-0.2-0.3-0.4c0-0.3,0.1-0.5,0.2-0.5
		C184.1,77.2,184.2,77.4,184.2,77.7"/>
	<path class="st6" d="M182.6,79.4c0,0,0.2-0.1,0.5-0.2c0.2,0,0.4-0.1,0.6-0.1c0.2,0,0.4,0,0.7,0c0.2,0,0.5,0.1,0.7,0.2
		c0.2,0.1,0.4,0.2,0.5,0.3c0.1,0.1,0.2,0.2,0.3,0.3c0.1,0.1,0.1,0.1,0.1,0.1s-0.1,0-0.1-0.1c-0.1,0-0.2-0.1-0.4-0.1
		c-0.1,0-0.2,0-0.2-0.1c-0.1,0-0.2,0-0.3-0.1c-0.2,0-0.4-0.1-0.6-0.1c-0.4,0-0.8-0.1-1.1-0.1C182.9,79.4,182.6,79.4,182.6,79.4"/>
	<path class="st7" d="M182.8,75.5c0,0,0-0.1,0.2-0.2c0.1-0.1,0.3-0.3,0.5-0.4c0.1-0.1,0.2-0.1,0.4-0.2c0.1-0.1,0.3-0.1,0.5-0.1
		c0.2,0,0.4,0,0.6,0c0.2,0,0.4,0.1,0.6,0.2c0.2,0.1,0.4,0.2,0.5,0.3c0.2,0.1,0.3,0.3,0.4,0.5c0.1,0.2,0.1,0.3,0.2,0.5
		c0,0.2,0.1,0.3,0.1,0.4c0,0.1,0,0.3,0,0.4c0,0.1,0,0.2,0,0.3c0,0.2-0.1,0.2-0.1,0.2s-0.1-0.1-0.2-0.2c0-0.1-0.1-0.1-0.2-0.2
		c-0.1-0.1-0.1-0.2-0.2-0.2c-0.1-0.1-0.1-0.2-0.2-0.3c-0.1-0.1-0.2-0.2-0.2-0.2c-0.1-0.1-0.2-0.1-0.3-0.2c-0.1,0-0.2-0.1-0.3-0.2
		c-0.1-0.1-0.2-0.1-0.3-0.1c-0.1,0-0.2-0.1-0.3-0.1c-0.1,0-0.2,0-0.4-0.1c-0.1,0-0.2,0-0.4,0C183.1,75.5,182.8,75.5,182.8,75.5"/>
	<path class="st8" d="M179.7,81.2c0.3,2,0.5,7.5,3.9,7.5c4.6,0,7.8-2.9,9.3-4.6c0,0,0,0,0,0c-1-2.5-2.5-7-2.5-7
		C187.3,82,179.7,81.2,179.7,81.2"/>
	<path class="st7" d="M189.2,60.4c4.1,0,7.2,2.4,7.2,5.3c0,2.4-0.7,2.3-0.7,2.3s-0.2,0.3,0.5,0.3c0.9,0,2,2.9,2,5.1
		c0,8.9-5.2,10.6-5.2,10.6c-0.8-0.7-1-3.2-1-3.2l-0.2-0.5c0,0-1.5-2.4-1.5-5.3c0-2.9,0.6-2.5,0.7-2.9c0.1-0.4-0.2-0.3-0.2-0.3
		s-3.4,1-8.8,1c-3.3,0-7.2-3.2-7.2-8.6c0-2.8,1.6-4.6,1.6-4.6s0.4,3.2,2.8,3.2c0,0-1-3,2.4-6.4c0,0,0.6,4.3,2.7,4.3
		c0,0-0.6-2.5,2.7-4.3C187,56.5,184.3,60.4,189.2,60.4"/>
	<path class="st9" d="M184.2,63.2c0,0,0.5,0.2,1.9-0.2c1.6-0.4,2.2-1.3,3.5-1.5c0.8-0.2,3.7,0.2,4.9,2.2c0,0-2.6-1.6-4.8-1.1
		C187.5,63.1,185.2,64.1,184.2,63.2"/>
	<path class="st9" d="M194.7,68.5c0,0-0.3-2.6-1.9-3.9c0,0,0.5,0.9,0.5,2.1c0,0-1.4-1.7-3.8-1.6c0,0,2.3,0.5,2.5,2.2
		c0,0-1.5-1.1-3.6-0.6c0,0,1.8-0.1,2.8,1.4c0,0-1.6,1.5-5.7,1.3c0,0,1.5,1.4,4.4,0.9c1.4-0.3,2.1-1.7,3.2-0.6c0,0,0.1-0.8-0.1-1.3
		c0,0,0.6,0.3,0.9,0.7c0,0,0.2-0.6,0-1.1C193.9,68,194.5,68.2,194.7,68.5"/>
	<path class="st9" d="M181.9,66c0,0,3.5-0.6,4.5,1.5C186.4,67.5,183,68.4,181.9,66"/>
	<path class="st2" d="M191.3,79.4c0,0,1.5-1.4,2.3-1.4c0.9,0,1.1,1.3,1.1,1.3s0.4,2.2-2.7,2.2L191.3,79.4z"/>
	<path class="st6" d="M192.1,79.8c0,0,0-0.1,0.1-0.2c0.1-0.1,0.3-0.3,0.5-0.5c0.1-0.1,0.3-0.1,0.4-0.1c0.1,0,0.2,0,0.2,0
		c0.1,0,0.1,0,0.2,0.1c0.1,0.1,0.2,0.2,0.3,0.3c0,0.1,0.1,0.1,0.1,0.2l0,0l0,0v0v0v0v0c0,0,0,0,0,0c0,0,0,0.1,0,0.1
		c0,0.1-0.2,0.2-0.3,0.3c-0.2,0.1-0.3,0.1-0.5,0.1c-0.2,0-0.4,0.1-0.5,0.1c0,0-0.1,0-0.1,0.1c0,0-0.1,0.1-0.1,0.2c0,0,0,0,0,0.1l0,0
		c0,0,0,0.1,0,0.1c0,0.1,0.1,0.1,0.1,0.1c0.2,0.1,0.3,0.1,0.4,0.1c0.1,0,0.2,0,0.3,0c0.2,0,0.3-0.1,0.3-0.1s-0.1,0-0.3,0
		c-0.1,0-0.2,0-0.3,0c-0.1,0-0.2-0.1-0.3-0.1c0,0,0,0,0-0.1c0,0,0,0,0,0l0,0c0,0,0,0,0,0c0,0,0,0,0,0c0,0,0,0,0.1,0
		c0.1,0,0.3-0.1,0.5-0.1c0.2,0,0.4-0.1,0.6-0.1c0.1,0,0.2-0.1,0.3-0.1c0.1-0.1,0.2-0.2,0.3-0.3c0-0.1,0.1-0.1,0.1-0.2
		c0,0,0-0.1,0-0.1l0,0l0,0l0,0c0-0.1-0.1-0.3-0.1-0.4c-0.1-0.2-0.3-0.4-0.5-0.5c-0.1,0-0.2-0.1-0.3-0.1c-0.1,0-0.2,0-0.3,0.1
		c-0.2,0.1-0.3,0.1-0.5,0.2c-0.1,0.1-0.2,0.2-0.3,0.3c-0.1,0.1-0.1,0.2-0.1,0.3C192.1,79.7,192.1,79.8,192.1,79.8"/>
	<path class="st10" d="M179.9,82.6c0,0,2.1,0.4,4.3-0.1c0,0-0.9,3.2-3.4,3.9C180.8,86.4,179.9,84.2,179.9,82.6"/>
	<path class="st11" d="M186.8,91c0,0-3.5,0-5.3,2.3c-1.8,2.3-4,6-4,6s1.6,2.2,4.2,3c0,0,0.5-0.4,0.9-1.3l-5.2,19.4
		c0,0,5.3,1.5,10.5,1.5c5.3,0,9.8-2.1,9.8-2.1l-3.4-18.8l0.8,1.3c0,0,3.1-2.3,4.9-2.3c0,0-3.1-9.2-9.5-9.2c0,0,0,3-1.9,3
		C186.6,94,186.8,91,186.8,91"/>
	<path class="st9" d="M197.6,119.9l-3.4-18.7l-0.4-0.9c0,0-1.1,19.9-16.5,20.2c0,0,5.3,1.5,10.5,1.5S197.6,119.9,197.6,119.9"/>
	<path class="st12" d="M186.8,91c0,0,0,0.1,0.1,0.3c0.1,0.2,0.1,0.5,0.3,0.8c0.1,0.2,0.1,0.3,0.2,0.5c0.1,0.2,0.2,0.3,0.3,0.5
		c0.1,0.1,0.2,0.3,0.4,0.3c0.1,0.1,0.2,0,0.2,0.1l0.2,0l0.2,0l0.1,0l0,0c0,0,0.1,0,0.1,0c0,0,0.1,0,0.1-0.1c0.1-0.1,0.3-0.2,0.4-0.3
		c0.1-0.2,0.2-0.3,0.3-0.5c0.1-0.2,0.2-0.3,0.2-0.5c0.1-0.3,0.2-0.6,0.3-0.8c0.1-0.2,0.1-0.3,0.1-0.3s0,0.1,0.1,0.3
		c0,0.2,0,0.5,0,0.9c0,0.2-0.1,0.4-0.1,0.6c-0.1,0.2-0.2,0.4-0.3,0.7c-0.2,0.2-0.3,0.5-0.6,0.6c-0.1,0-0.1,0.1-0.2,0.1
		c-0.1,0-0.2,0.1-0.3,0.1l-0.1,0l-0.1,0l-0.2,0l0,0l-0.1,0l-0.1,0l-0.1,0c-0.1,0-0.2,0-0.2,0c-0.2-0.1-0.3-0.1-0.4-0.2l-0.2-0.1
		c-0.1,0-0.1-0.1-0.2-0.2c-0.1-0.1-0.2-0.2-0.3-0.3c-0.1-0.1-0.1-0.2-0.2-0.3c0-0.1-0.1-0.2-0.1-0.3c-0.1-0.2-0.1-0.4-0.1-0.6
		c0-0.4,0-0.7,0.1-0.9C186.8,91.1,186.8,91,186.8,91"/>
	<path class="st12" d="M177.9,98.5c0,0,0.1,0.1,0.2,0.2c0.1,0.1,0.2,0.3,0.4,0.4c0.1,0.1,0.2,0.2,0.3,0.3c0.1,0.1,0.2,0.2,0.3,0.3
		c0.1,0.1,0.2,0.2,0.4,0.3c0.1,0.1,0.3,0.2,0.4,0.3c0.1,0.1,0.3,0.2,0.4,0.3c0.1,0.1,0.3,0.2,0.4,0.3c0.1,0.1,0.3,0.2,0.4,0.2
		c0.1,0.1,0.2,0.1,0.4,0.2c0.4,0.2,0.7,0.4,0.7,0.4s-0.3-0.1-0.8-0.2c-0.1,0-0.3-0.1-0.4-0.1c-0.1-0.1-0.3-0.1-0.4-0.2
		c-0.1-0.1-0.3-0.1-0.4-0.2c-0.1-0.1-0.3-0.2-0.4-0.3c-0.1-0.1-0.3-0.2-0.4-0.3c-0.1-0.1-0.2-0.2-0.4-0.4c-0.1-0.1-0.2-0.2-0.3-0.4
		c-0.1-0.1-0.2-0.2-0.2-0.3c-0.1-0.1-0.1-0.2-0.2-0.3c-0.1-0.1-0.1-0.2-0.1-0.2C178,98.6,177.9,98.5,177.9,98.5"/>
	<path class="st12" d="M194.6,101.7c0,0,0.2-0.3,0.6-0.7c0.2-0.2,0.4-0.4,0.7-0.6c0.3-0.2,0.6-0.4,0.9-0.6c0.3-0.2,0.7-0.3,1-0.4
		c0.2,0,0.3-0.1,0.5-0.1c0.2,0,0.3-0.1,0.4-0.1c0.3,0,0.5,0,0.7,0c0.2,0,0.2,0,0.2,0s-0.1,0-0.2,0.1c-0.2,0-0.4,0.1-0.6,0.2
		c-0.1,0-0.3,0.1-0.4,0.1c-0.1,0-0.3,0.1-0.4,0.2c-0.2,0.1-0.3,0.1-0.5,0.2c-0.2,0.1-0.3,0.2-0.5,0.2c-0.6,0.3-1.2,0.7-1.7,1
		C194.9,101.5,194.6,101.7,194.6,101.7"/>
	<path class="st12" d="M183.8,98.9c0,0,0.2-0.1,0.4-0.3c0.1,0,0.1-0.1,0.2-0.1c0.1,0,0.2-0.1,0.3-0.1c0.1,0,0.2,0,0.3,0
		c0.1,0,0.2,0,0.3,0c0.1,0,0.2,0,0.3,0c0.1,0,0.2,0,0.3,0.1c0.1,0,0.2,0,0.3,0.1c0.1,0,0.2,0.1,0.2,0.1c0.3,0.1,0.4,0.2,0.4,0.2
		s-0.2,0-0.5,0c-0.1,0-0.1,0-0.2,0c-0.1,0-0.2,0-0.3,0c-0.2,0-0.4,0-0.5,0c-0.1,0-0.2,0-0.3,0c-0.1,0-0.2,0-0.3,0
		c-0.1,0-0.2,0-0.3,0c-0.1,0-0.2,0-0.2,0C184,98.9,183.8,98.9,183.8,98.9"/>
	<path class="st13" d="M203.6,117.7c0,4.8-7.3,8.8-16.4,8.8c-9.1,0-16.4-3.9-16.4-8.8c0-4.8,7.3-8.8,16.4-8.8
		C196.3,108.9,203.6,112.9,203.6,117.7z"/>
	<line class="st14" x1="179.3" y1="110" x2="187.2" y2="117.7"/>
	<line class="st14" x1="202.5" y1="114.7" x2="187.2" y2="117.7"/>
	<path class="st7" d="M191.3,117.3c0,1.4-1.8,2.6-4.1,2.6c-2.3,0-4.1-1.2-4.1-2.6c0-1.4,1.8-2.6,4.1-2.6
		C189.4,114.7,191.3,115.9,191.3,117.3"/>
	<path class="st1" d="M108.5,133.5c0.4-1.3,0.8-2.6,1.3-3.9l1.3-3.9l1.3-3.9l0.7-1.9l0.3-1c0.1-0.4,0.2-0.6,0.4-1
		c0.6-1.4,1.4-2.6,2.5-3.7c0.6-0.5,1.2-1,1.9-1.3c0.7-0.3,1.4-0.6,2.1-0.8c1.4-0.4,2.9-0.5,4.3-0.6c1.4-0.1,2.8-0.1,4.2,0
		c1.4,0,2.8,0,4.1,0l4.2,0c1.4,0,2.8,0,4.2,0l4.2,0c2.8,0,5.5,0,8.3,0.1l8.3,0.1l0.9,0l0,0.9l-0.1,5.3c0,0.9-0.1,1.8-0.1,2.6
		l-0.1,2.6c0,0.9-0.1,1.8-0.1,2.6l-0.1,2.6c-0.1,1.8-0.2,3.5-0.3,5.3c-0.1-1.8-0.2-3.5-0.3-5.3l-0.1-2.6c0-0.9-0.1-1.8-0.1-2.6
		l-0.1-2.6c0-0.9-0.1-1.8-0.1-2.6l-0.1-5.3l0.9,0.9l-8.3,0.1c-2.8,0-5.5,0-8.3,0.1l-4.2,0c-1.4,0-2.8,0-4.2,0l-4.2,0
		c-1.4,0-2.8,0-4.2,0c-1.4,0-2.8-0.1-4.1,0c-1.3,0-2.7,0.1-3.9,0.4c-1.2,0.3-2.4,0.8-3.3,1.6c-0.9,0.8-1.7,1.8-2.2,3
		c-0.1,0.3-0.3,0.6-0.4,0.9l-0.4,1l-0.8,1.9c-0.5,1.3-1.1,2.5-1.7,3.8c-0.6,1.3-1.1,2.5-1.7,3.8C109.7,131,109.1,132.2,108.5,133.5"
		/>
	<path class="st1" d="M91.7,147.9l8.6-15.8c1.7-3.6,3.7-5.6,9.7-5.6h52.2c0,0,5.2-8.2,12.7-8.2h27.5c4.1,0,8.8,4.1,11.9,10.8v22
		H91.7V147.9z"/>
	<path class="st15" d="M161.7,127.9c0,0-0.1,0.2-0.2,0.7c-0.1,0.4-0.3,1-0.3,1.7c0,0.4,0,0.8,0,1.2c0,0.4,0.2,0.8,0.3,1.2
		c0.2,0.4,0.4,0.8,0.7,1.1c0.3,0.3,0.7,0.6,1.1,0.9c0.4,0.2,0.8,0.5,1.3,0.6c0.4,0.2,0.9,0.3,1.3,0.5c0.2,0.1,0.4,0.1,0.7,0.2
		c0.2,0,0.4,0.1,0.6,0.1c0.4,0.1,0.8,0.1,1.2,0.2c0.4,0.1,0.7,0.1,1,0.2c0.3,0,0.6,0.1,0.8,0.1c0.4,0.1,0.7,0.1,0.7,0.1
		s-0.3,0-0.7,0.1c-0.2,0-0.5,0.1-0.8,0.1c-0.3,0-0.7,0-1,0c-0.4,0-0.8,0-1.2-0.1c-0.2,0-0.4-0.1-0.7-0.1c-0.2,0-0.5-0.1-0.7-0.1
		c-0.2,0-0.5-0.1-0.7-0.2c-0.2-0.1-0.5-0.1-0.7-0.2c-0.2-0.1-0.5-0.2-0.7-0.3c-0.2-0.1-0.5-0.2-0.7-0.4c-0.4-0.3-0.9-0.6-1.2-1.1
		c-0.4-0.4-0.6-0.9-0.8-1.4c-0.4-1-0.3-1.9-0.1-2.7c0.2-0.8,0.4-1.4,0.6-1.7C161.5,128.1,161.7,127.9,161.7,127.9"/>
	<path class="st15" d="M256.3,192.2c0,7.6-57.4,13.8-128.3,13.8c-70.9,0-128.3-6.2-128.3-13.8s57.4-13.8,128.3-13.8
		C198.9,178.3,256.3,184.5,256.3,192.2"/>
	<path class="st9" d="M44.5,87.6c0,0,2.9-2.8,1-6.7c0,0,2.3,2,5.7,2c3.4,0,6.4-3.1,9.4-3.1s3.9,5,1.8,6.6c2,0,6.3-3.7,6.3-5.9
		c0,0-1.1,0.9-2.1,0.9c0,0,3.6-3.1,3.6-4.9c0,0-1.3,1.8-3,1.8c0,0,3.9-1.9,3.9-5.4c0-0.8-0.1-1.9-0.5-2.3c0,0-0.6,3.4-4.3,3.4
		c0,0,5.6-3.2,5.6-9c0-1.2-0.6-3.1-0.9-3.4c0,0,1.1,5.7-6.5,5.7c-2.1,0-3.1,1-3.3,1.2c0,0,0.8-1.5,0.8-3.1c0-1.7-0.5-2.3-0.5-2.3
		s-2,5.5-5.9,5.5c-1.1,0-2.5-0.5-3.3,0.3c0,0,0.6-1.3-0.4-2.2c0,0-0.1,1.6-2.1,2.4c-1.9,0.9-7.8,2.1-7.8,9.7c0,0-1.7,1.4-1.7,4.6
		c0,2.4,1.2,3.9,1.2,3.9s0.3-1.1,1.4-1.1C44.2,86.4,44.5,87.6,44.5,87.6"/>
	<path class="st7" d="M65.1,82.5c0-0.5-0.1-1-0.4-1.6c-0.2-0.6-0.6-1.1-1.2-1.5c-0.6-0.4-1.3-0.7-2-0.7c-0.1,0-0.2,0-0.3,0
		c-0.1,0-0.2,0-0.3,0c-0.2,0-0.4,0-0.6,0c-0.2,0-0.4,0.1-0.6,0.1c-0.2,0-0.4,0.1-0.6,0.1c-0.8,0.2-1.5,0.6-2.2,1
		c-0.7,0.4-1.4,0.8-2.1,1.2c-0.7,0.4-1.4,0.6-2.1,0.8c-0.2,0-0.4,0.1-0.5,0.1c-0.2,0-0.4,0-0.5,0l-0.1,0l-0.1,0c-0.1,0-0.2,0-0.3,0
		c-0.2,0-0.3,0-0.5,0c-0.7,0-1.3-0.2-1.9-0.3c-0.6-0.1-1.1-0.3-1.6-0.5c-0.5-0.2-0.8-0.4-1.1-0.5c-0.6-0.3-0.9-0.6-0.9-0.6
		s0.1,0.1,0.2,0.2c0.2,0.1,0.4,0.3,0.7,0.4c0.3,0.2,0.7,0.4,1.1,0.6c0.4,0.2,1,0.4,1.6,0.5c0.6,0.1,1.2,0.3,1.9,0.3
		c0.2,0,0.3,0,0.5,0c0.1,0,0.2,0,0.3,0l0.1,0l0.1,0c0.2,0,0.4,0,0.5,0c0.2,0,0.4-0.1,0.6-0.1c0.7-0.1,1.5-0.4,2.2-0.8
		c0.7-0.4,1.4-0.8,2.1-1.2c0.7-0.4,1.4-0.7,2.1-1c0.2,0,0.4-0.1,0.6-0.1c0.2,0,0.4-0.1,0.6-0.1c0.2,0,0.4,0,0.6,0c0.1,0,0.2,0,0.3,0
		c0.1,0,0.2,0,0.3,0c0.7,0.1,1.4,0.3,2,0.7c0.5,0.4,0.9,0.9,1.2,1.5C64.8,81.5,64.9,82.1,65.1,82.5c0,0.5-0.1,0.9-0.2,1.2
		c-0.1,0.3-0.2,0.6-0.3,0.7c0,0.1-0.1,0.1-0.1,0.2c0,0,0,0.1,0,0.1s0,0,0-0.1c0,0,0.1-0.1,0.1-0.2c0.1-0.2,0.2-0.4,0.3-0.7
		C65,83.5,65.1,83,65.1,82.5"/>
	<path class="st11" d="M51.8,68.7c0,0-0.6,0.7-2.8,1.6c-0.8,0.3-1.3,0.5-1.9,1.5c0,0,0.9-0.8,2.1-0.9C50.5,70.8,51.8,69.7,51.8,68.7
		 M41.7,85.6c1-1.7,0.3-4.6,0.3-4.6C40.5,82.7,41.7,85.6,41.7,85.6 M53.7,72.8c-1.7,0-2.3,2.5-2.3,2.5
		C53.3,75.3,53.7,72.8,53.7,72.8 M64.9,69.5c3.2,0,3.8-2,3.8-2c-0.8,0.8-1.3,1-4.2,1c-2.9,0-3.5,2.2-3.5,2.2
		C61.4,70.2,61.6,69.5,64.9,69.5 M52.6,75.8c-1.6,1.3-5.5,2.3-5.5,2.3c0.7-2.1,2.5-3.7,2.5-3.7c-2,0.4-3.9,2.9-3.9,2.9
		c0.1-2,1.7-3.9,1.7-3.9c-1.9,0.9-3.1,3.4-3.1,3.4c0-1.4,0.4-2.4,0.4-2.4c-1.7,1.6-1.8,4.6-1.8,4.6c0.2-0.5,0.9-0.7,0.9-0.7
		c-0.2,0.6,0.1,1.3,0.1,1.3c0.3-0.4,0.9-0.9,0.9-0.9c-0.2,0.6,0,1.5,0,1.5c0.9-0.7,1.8-0.7,2.8-0.9C50.7,78.4,52.6,75.8,52.6,75.8
		 M54.7,78.9c0,0-3.8,0.1-5.6,1.6C49,80.5,52.6,82,54.7,78.9 M66.1,74.7c-0.9,0-1.7,0-2.6,1c0,0,1.4-0.5,2.6,0
		c1.2,0.5,2.8-0.4,2.8-1.4C68.9,74.3,68.5,74.7,66.1,74.7 M60.1,72.3c-2.2,0-3.1,1.7-3.1,1.7s1.5-0.7,3.2-0.7c3.2,0,4-2.2,4-2.2
		C62.8,72.5,61.5,72.3,60.1,72.3 M60.4,67c0,0-1.6,2.4-4.2,2.4C56.2,69.4,60.4,70.8,60.4,67"/>
	<path class="st9" d="M44.7,90.8c-1,0-1-0.2-1-0.2c0,4.1,5.1,7.4,5.1,7.4C46.6,95.8,44.7,90.8,44.7,90.8"/>
	<path class="st16" d="M65,190.9c0,0-0.1,0-0.1,0c-0.1,0-0.2,0-0.3,0c-0.1,0-0.2,0-0.3,0l-0.1,0l-0.1,0c0,0-0.1,0-0.1,0c0,0,0,0,0,0
		c0.1-0.1,0.3-0.2,0.4-0.3c0.1,0,0.1-0.1,0.1-0.2c0-0.1-0.1-0.2-0.2-0.2l0,0c-0.2,0-0.4,0.1-0.6,0.1c-0.2,0-0.4,0-0.6,0
		c-0.1,0-0.1,0-0.1,0c0,0,0,0-0.1,0c0,0,0,0,0.1-0.1c0.2-0.1,0.4-0.3,0.5-0.4c-0.2,0-0.4,0.1-0.7,0.2c-0.1,0-0.1,0.1-0.2,0.1
		c0,0-0.1,0.1-0.1,0.1c0,0,0,0.1,0,0.1c0,0,0,0.1,0.1,0.1c0,0,0,0,0.1,0l0,0l0,0l0,0c0,0,0,0,0.1,0c0.1,0,0.1,0,0.2,0
		c0.1,0,0.2,0,0.4,0c0.1,0,0.2,0,0.3,0c0,0,0,0.1-0.1,0.1c0,0,0,0.1,0,0.1c0,0.1,0,0.1,0.1,0.2c0.1,0.1,0.2,0.1,0.2,0.1
		c0.1,0,0.1,0,0.2,0l0.2,0l0.1,0c0.1,0,0.2,0,0.3,0c0.1,0,0.2-0.1,0.3-0.1c0.1,0,0.2-0.1,0.3-0.1C65.1,190.9,65,190.9,65,190.9
		 M62.7,190.4C62.7,190.4,62.7,190.4,62.7,190.4C62.7,190.4,62.7,190.4,62.7,190.4 M63.8,190.9L63.8,190.9
		C63.8,190.9,63.8,190.8,63.8,190.9 M53.6,190.8c-0.1,0-0.2-0.1-0.3-0.1c-0.1,0-0.2,0-0.3,0c-0.3,0-0.7-0.1-1-0.1
		c0.3,0.1,0.7,0.2,1,0.3c0.1,0,0.2,0,0.2,0.1c0,0,0,0,0,0c0,0-0.1,0-0.1,0c-0.1,0-0.2,0-0.2,0c-0.1,0-0.2,0-0.2,0
		c-0.2,0-0.3,0-0.5,0c-0.3,0-0.7,0-1,0h0c-0.1,0-0.2,0.1-0.2,0.2c0,0.1,0.1,0.2,0.2,0.2c0.3,0,0.6,0.1,0.9,0.2
		c0.1,0,0.3,0.1,0.4,0.1l-0.2,0.1c-0.1,0-0.1,0-0.2,0c-0.1,0-0.1,0-0.2,0c-0.1,0-0.1,0-0.2,0l-0.2,0l-0.2,0c-0.2,0-0.3,0-0.5,0
		c0.1,0.1,0.3,0.1,0.4,0.1c0.1,0,0.3,0.1,0.5,0.1c0.1,0,0.2,0,0.2,0c0.1,0,0.2,0,0.2,0c0.1,0,0.2,0,0.3,0l0.2-0.1l0,0l0,0l0,0l0,0
		c0,0,0,0,0.1,0c0,0,0.1-0.1,0.1-0.2c0-0.1-0.1-0.2-0.1-0.2c0,0-0.1-0.1-0.1-0.1c-0.1,0-0.1-0.1-0.2-0.1c0.1,0,0.2,0,0.3,0
		c0.1,0,0.2,0,0.3,0c0.1,0,0.2,0,0.3-0.1c0.1,0,0.2-0.1,0.2-0.1l0,0c0,0,0,0,0,0c0,0,0,0,0,0c0,0,0,0,0.1-0.1c0,0,0,0,0-0.1
		c0,0,0-0.1,0-0.1C53.7,190.9,53.7,190.9,53.6,190.8C53.6,190.8,53.6,190.8,53.6,190.8"/>
	<path class="st17" d="M49.4,136.6c0.1,0,0.2,0,0.3-0.1c0.1,0,0.2-0.1,0.3-0.1c0.1,0,0.2-0.1,0.3-0.2c0.1-0.1,0.2-0.2,0.2-0.2
		c0.1-0.1,0.1-0.2,0.2-0.3c0-0.1,0.1-0.2,0.1-0.3c0-0.1,0-0.2,0.1-0.3c0-0.1,0-0.2,0-0.3c0,0,0-0.1,0-0.1c0,0,0-0.1,0-0.1
		c0-0.1,0-0.1,0-0.2c0-0.1,0-0.1,0-0.1s0,0,0,0.1c0,0,0,0.1,0,0.2c0,0.1,0,0.1-0.1,0.2c0,0.1,0,0.1-0.1,0.2c0,0.1-0.1,0.1-0.1,0.2
		c0,0.1-0.1,0.1-0.1,0.2c0,0.1-0.1,0.1-0.1,0.2c-0.1,0.1-0.1,0.1-0.2,0.2c0,0-0.1,0.1-0.1,0.1c0,0-0.1,0.1-0.1,0.1
		c-0.1,0.1-0.1,0.1-0.2,0.1c-0.1,0-0.1,0.1-0.2,0.1c-0.1,0.1-0.2,0.1-0.3,0.1c-0.1,0-0.1,0.1-0.1,0.1s0,0,0.1,0
		C49.1,136.7,49.2,136.7,49.4,136.6 M50.4,164.5c0.2-0.1,0.4-0.2,0.7-0.4c0.1-0.1,0.2-0.2,0.3-0.2c0.1-0.1,0.2-0.2,0.3-0.3l0.4-0.4
		l-0.5,0.3c-0.1,0.1-0.3,0.1-0.4,0.2c-0.1,0.1-0.3,0.1-0.4,0.2c-0.3,0.1-0.6,0.1-0.9,0.2c-0.3,0-0.6,0-0.9,0c-0.3,0-0.6-0.1-0.9-0.2
		c0.3,0.1,0.6,0.2,0.9,0.2c0.3,0,0.6,0.1,0.9,0.1c0.3,0,0.6-0.1,0.9-0.1c0.1,0,0.2-0.1,0.3-0.1c0,0-0.1,0.1-0.1,0.1
		c-0.2,0.1-0.4,0.3-0.6,0.4c-0.2,0.1-0.4,0.2-0.7,0.2c-0.2,0.1-0.5,0.1-0.7,0.1l-0.8,0l0.8,0.2c0.2,0,0.4,0.1,0.7,0.1
		c0.2,0,0.4,0.1,0.7,0.1c0.2,0,0.4,0,0.7,0c0.2,0,0.3,0,0.5,0c0,0-0.1,0.1-0.1,0.1c-0.1,0.1-0.2,0.1-0.3,0.2
		c-0.1,0.1-0.2,0.1-0.3,0.2c-0.1,0-0.2,0.1-0.3,0.1c-0.1,0-0.2,0.1-0.3,0.1c-0.1,0-0.2,0.1-0.3,0.1c-0.1,0-0.2,0-0.4,0.1
		c-0.1,0-0.2,0-0.4,0c0.1,0,0.2,0,0.4,0c0.1,0,0.2,0,0.4,0c0.1,0,0.2,0,0.4-0.1c0.1,0,0.2-0.1,0.3-0.1c0.2-0.1,0.5-0.2,0.7-0.3
		c0.1-0.1,0.2-0.1,0.3-0.2c0.1-0.1,0.2-0.1,0.3-0.2l0.1-0.1l-0.2,0c-0.2,0-0.4,0-0.7,0c-0.2,0-0.4,0-0.7,0c-0.2,0-0.4,0-0.6-0.1
		c0,0,0.1,0,0.1,0C49.9,164.7,50.1,164.6,50.4,164.5 M65.4,164.2c0.1-0.1,0.2-0.1,0.3-0.2c0.1-0.1,0.2-0.1,0.3-0.2l0.4-0.4l-0.5,0.2
		c-0.1,0.1-0.3,0.1-0.4,0.2c-0.1,0-0.3,0.1-0.4,0.1c-0.3,0.1-0.6,0.1-0.9,0.1c-0.3,0-0.6,0-0.9-0.1c-0.3-0.1-0.6-0.2-0.9-0.3
		c0.3,0.1,0.6,0.3,0.9,0.3c0.3,0.1,0.6,0.1,0.9,0.2c0.3,0,0.6,0,0.9-0.1c0.1,0,0.2,0,0.3-0.1c0,0-0.1,0.1-0.1,0.1
		c-0.2,0.1-0.4,0.2-0.7,0.3c-0.2,0.1-0.5,0.1-0.7,0.2c-0.2,0-0.5,0-0.7,0l-0.8-0.1l0.8,0.3c0.2,0.1,0.4,0.1,0.6,0.2
		c0.2,0,0.4,0.1,0.7,0.1c0.2,0,0.4,0.1,0.7,0.1c0.2,0,0.3,0,0.5,0c0,0-0.1,0-0.1,0.1c-0.1,0.1-0.2,0.1-0.3,0.1
		c-0.2,0.1-0.5,0.2-0.7,0.2c-0.1,0-0.1,0-0.2,0c-0.1,0-0.1,0-0.2,0c-0.1,0-0.2,0-0.4,0c-0.1,0-0.2,0-0.4,0c-0.1,0-0.2,0-0.4,0
		c0.1,0,0.2,0,0.4,0c0.1,0,0.2,0,0.4,0c0.1,0,0.2,0,0.4,0c0.1,0,0.1,0,0.2,0c0.1,0,0.1,0,0.2,0c0.2,0,0.5-0.1,0.7-0.2
		c0.1,0,0.2-0.1,0.3-0.1c0.1-0.1,0.2-0.1,0.3-0.2l0.2-0.1l-0.2,0c-0.2,0-0.4-0.1-0.6-0.1c-0.2,0-0.4-0.1-0.6-0.1
		c-0.2,0-0.4-0.1-0.6-0.1c0.3,0,0.6-0.1,0.8-0.2C64.9,164.5,65.2,164.4,65.4,164.2 M62.6,136c0.1,0,0.1,0,0.1,0S62.7,136,62.6,136
		c-0.1-0.1-0.2-0.2-0.3-0.2c-0.1,0-0.1-0.1-0.2-0.1c-0.1,0-0.1-0.1-0.2-0.1c0,0-0.1-0.1-0.1-0.1c0,0-0.1-0.1-0.1-0.1
		c-0.1-0.1-0.1-0.1-0.2-0.2c-0.1-0.1-0.1-0.1-0.1-0.2c0-0.1-0.1-0.2-0.1-0.2c0-0.1-0.1-0.2-0.1-0.2c0-0.1,0-0.1-0.1-0.2
		c0-0.1,0-0.1-0.1-0.2c0-0.1,0-0.1,0-0.2c0-0.1,0-0.1,0-0.1s0,0,0,0.1c0,0,0,0.1,0,0.2c0,0,0,0.1,0,0.1c0,0,0,0.1,0,0.1
		c0,0.1,0,0.2,0,0.3c0,0.1,0,0.2,0.1,0.3c0,0.1,0.1,0.2,0.1,0.3c0.1,0.1,0.1,0.2,0.2,0.3c0.1,0.1,0.1,0.2,0.2,0.2
		c0.1,0.1,0.2,0.1,0.3,0.2c0.1,0.1,0.2,0.1,0.3,0.1c0.1,0,0.2,0,0.3,0.1C62.4,136.1,62.5,136.1,62.6,136"/>
	<path class="st9" d="M45.5,143.4c0,0.1,0.1,0.1,0.1,0.2l0.1-0.1C45.7,143.5,45.6,143.5,45.5,143.4L45.5,143.4z M45.9,142.8
		L45.9,142.8c-0.1-0.1-0.2,0-0.2,0l0.1,0.1C45.7,142.8,45.8,142.8,45.9,142.8 M45.9,143.7L45.9,143.7c0,0.1,0.1,0.1,0.2,0.1h0l0-0.1
		C46,143.7,45.9,143.7,45.9,143.7 M45.6,143L45.6,143c-0.1,0-0.1,0.1-0.1,0.2v0l0.1,0C45.6,143.1,45.6,143.1,45.6,143 M46.1,142.6
		L46.1,142.6L46.1,142.6c0.1,0.1,0.1,0.1,0.2,0.1l0-0.1C46.2,142.6,46.1,142.6,46.1,142.6 M46.5,143.2c0,0.1,0,0.1,0,0.2l0.1,0
		c0-0.1,0-0.1,0-0.2v0L46.5,143.2z M46.5,142.8L46.5,142.8c0,0.1,0,0.2,0,0.2l0.1,0C46.6,142.9,46.5,142.8,46.5,142.8 M46.2,143.7
		L46.2,143.7c0.1,0.1,0.2,0,0.2,0l-0.1-0.1C46.4,143.6,46.3,143.6,46.2,143.7"/>
	<path class="st3" d="M55.9,100.6c-0.5,0.2-1.1,0.3-1.7,0.3c-0.7,0-1.3-0.1-1.9-0.3c0,0.3,0,0.6,0,0.9c0.4,0.1,1,0.2,1.7,0.2
		c1,0,1.6-0.2,1.9-0.3C55.9,101.2,55.9,100.9,55.9,100.6"/>
	<path class="st7" d="M50.8,84.6c-0.1,0-0.2,0-0.3-0.1c-0.1,0-0.3,0-0.4,0c-0.1,0-0.3,0-0.4,0c-0.2,0-0.3,0.1-0.5,0.1
		c-0.2,0-0.3,0.1-0.5,0.2c-0.2,0.1-0.3,0.2-0.4,0.2c-0.1,0-0.1,0.1-0.2,0.2c-0.1,0.1-0.1,0.1-0.2,0.2c-0.1,0.1-0.2,0.2-0.3,0.3
		c-0.1,0.1-0.2,0.2-0.2,0.4c0,0.1-0.1,0.2-0.1,0.3c0,0.1,0,0.2,0,0.3c0,0.1,0,0.2,0,0.2s0,0,0,0c0,0,0.1-0.1,0.1-0.1
		c0.1-0.1,0.2-0.2,0.4-0.4c0.1-0.1,0.2-0.1,0.3-0.2c0.1,0,0.1-0.1,0.1-0.1c0.1,0,0.1-0.1,0.2-0.1c0.1-0.1,0.2-0.1,0.3-0.2
		c0.1,0,0.1-0.1,0.2-0.1c0.1,0,0.1-0.1,0.2-0.1c0.1-0.1,0.3-0.1,0.4-0.2c0.1,0,0.3-0.1,0.4-0.1c0.1,0,0.3-0.1,0.4-0.1
		c0.1,0,0.2-0.1,0.3-0.1c0.1,0,0.2-0.1,0.3-0.1c0.1,0,0.2-0.1,0.2-0.1c0.1,0,0.2-0.1,0.2-0.1s-0.1,0-0.2-0.1
		C51,84.7,50.9,84.7,50.8,84.6 M62,86.5c0-0.1,0-0.2-0.1-0.3c0-0.1-0.1-0.2-0.1-0.3c-0.1-0.1-0.1-0.2-0.2-0.3c0-0.1-0.1-0.1-0.1-0.2
		l-0.1-0.1c0,0-0.1,0-0.1-0.1c-0.1-0.1-0.2-0.2-0.4-0.2c-0.1-0.1-0.3-0.1-0.4-0.2c-0.1,0-0.1,0-0.2,0c-0.1,0-0.1,0-0.2,0
		c-0.3,0-0.5,0-0.7,0.1c-0.2,0.1-0.4,0.2-0.5,0.2c-0.1,0.1-0.2,0.1-0.2,0.1s0.1,0,0.2,0c0.1,0,0.3,0,0.5,0.1c0.1,0,0.2,0,0.3,0.1
		c0.1,0,0.2,0,0.3,0.1c0.1,0,0.2,0.1,0.3,0.1c0.1,0,0.2,0.1,0.3,0.1c0.1,0,0.2,0.1,0.3,0.1c0.1,0,0.2,0.1,0.2,0.2
		c0.1,0.1,0.1,0.1,0.2,0.2c0,0,0.1,0.1,0.1,0.1c0,0,0.1,0.1,0.1,0.1c0.1,0.1,0.1,0.1,0.2,0.2c0,0.1,0.1,0.1,0.1,0.2
		c0.1,0.1,0.1,0.1,0.1,0.1s0-0.1,0-0.2C62,86.7,62,86.6,62,86.5"/>
	<path class="st10" d="M55.4,94.9c-3.6,0-5.3-1.9-5.3-1.9s0.3,4.9,5,4.9c3.4,0,4.6-3.8,4.6-3.8S58.5,94.9,55.4,94.9"/>
	<path class="st18" d="M60.4,111.4c0,0,0.1,0.1,0.1,0.1c0,0,0.1,0,0.1,0.1c0,0,0.1,0,0.1,0l0.1,0c0,0.1,0,0.1,0.1,0.2
		c0,0.1,0,0.2,0.1,0.3c0,0.1,0,0.2,0,0.3c0,0.1,0,0.2,0,0.3c0,0.1,0,0.2,0,0.3c0,0.1,0,0.2,0,0.3c0,0.1,0,0.2,0,0.3
		c0,0.1,0,0.2,0,0.3c0-0.1,0.1-0.2,0.1-0.3c0-0.1,0.1-0.2,0.1-0.3c0-0.1,0-0.2,0-0.3c0-0.1,0-0.2,0-0.3c0-0.1,0-0.2,0-0.3
		c0-0.1,0-0.2,0-0.3c0-0.1,0-0.2-0.1-0.3c0-0.1-0.1-0.2-0.1-0.3l0,0l-0.1,0l-0.1,0c0,0-0.1,0-0.1,0c0,0-0.1,0-0.1,0
		c0,0-0.1,0-0.1-0.1c-0.1,0-0.2-0.1-0.2-0.1c-0.1-0.1-0.2-0.1-0.2-0.2c0.1,0.1,0.1,0.2,0.2,0.2C60.2,111.3,60.3,111.4,60.4,111.4
		 M46.9,112.4c-0.1-0.1-0.3-0.2-0.4-0.3c-0.2-0.2-0.5-0.5-0.7-0.7c0.1,0.2,0.2,0.3,0.3,0.4c0.1,0.1,0.2,0.3,0.3,0.4
		c0.1,0.1,0.2,0.3,0.4,0.4c0.1,0.1,0.1,0.1,0.2,0.2c0,0,0.1,0,0.2,0.1c0,0.1,0,0.1-0.1,0.2c0,0.1,0,0.2-0.1,0.3c0,0.1,0,0.2-0.1,0.3
		c0,0.1,0,0.2,0,0.3c0,0.1,0,0.2,0,0.3l0,0.3c0,0.1,0,0.2,0,0.3c0,0.1,0,0.2,0,0.3c0-0.2,0-0.4,0.1-0.7l0-0.3c0-0.1,0-0.2,0-0.3
		c0-0.1,0-0.2,0.1-0.3c0-0.1,0-0.2,0.1-0.3c0-0.1,0-0.2,0.1-0.3c0-0.1,0.1-0.2,0.1-0.3l0-0.1l-0.1,0C47.1,112.5,47,112.5,46.9,112.4
		 M62.3,129.8c-0.2,0.1-0.6,0.1-0.9,0.1c-0.4,0-0.8,0.1-1.2,0.1c-0.4,0-0.9,0.1-1.4,0.1c-0.5,0-1,0-1.6,0.1c-0.5,0-1.1,0-1.7,0
		c-0.3,0-0.6,0-0.9,0c-0.1,0-0.3,0-0.4,0c-0.1,0-0.3-0.1-0.3-0.1c0,0,0,0,0,0c0,0,0.1,0,0.2-0.1c0.1,0,0.3,0,0.4,0
		c0.3,0,0.6,0,0.9,0c0.3,0,0.6,0,0.9,0c0.3,0,0.6,0,0.8,0c0.3,0,0.5,0,0.8-0.1c0.3,0,0.5-0.1,0.8-0.1c0.2,0,0.5-0.1,0.7-0.1
		c0.2,0,0.5-0.1,0.7-0.1c0.2,0,0.4-0.1,0.6-0.1c0.2,0,0.4-0.1,0.6-0.1c0.3-0.1,0.6-0.2,0.9-0.3c0.2-0.1,0.4-0.2,0.5-0.2
		c0.1-0.1,0.2-0.1,0.2-0.1s-0.1,0-0.2,0.1c-0.1,0.1-0.3,0.1-0.5,0.2c-0.2,0.1-0.5,0.2-0.9,0.2c-0.3,0.1-0.7,0.1-1.2,0.2
		c-0.2,0-0.4,0.1-0.7,0.1c-0.2,0-0.5,0-0.7,0.1c-0.2,0-0.5,0-0.8,0.1c-0.3,0-0.5,0-0.8,0c-0.3,0-0.5,0-0.8,0c-0.3,0-0.6,0-0.9,0
		c-0.3,0-0.6,0-0.9,0c-0.1,0-0.3,0-0.5,0c-0.1,0-0.2,0-0.2,0.1c0,0-0.1,0-0.1,0.1c0,0,0,0.1,0,0.1c0,0,0,0.1,0.1,0.1
		c0.2,0.1,0.3,0.2,0.5,0.2c0.2,0,0.3,0,0.5,0c0.3,0,0.6,0,0.9,0c0.6,0,1.1,0,1.7,0c0.5,0,1.1-0.1,1.6-0.1c0.5,0,1-0.1,1.4-0.1
		c0.4-0.1,0.8-0.1,1.2-0.2C61.7,129.9,62,129.9,62.3,129.8c0.3,0,0.5-0.1,0.6-0.1c0.1,0,0.2-0.1,0.2-0.1s-0.1,0-0.2,0.1
		C62.7,129.7,62.5,129.7,62.3,129.8 M63.1,108.7L63.1,108.7c-0.1,0.1-0.2,0.1-0.2,0.1c-0.1,0.1-0.3,0.1-0.4,0.2
		c-0.1,0-0.1,0-0.2,0.1c-0.1,0-0.1,0-0.2,0c0,0-0.1,0-0.1,0c0,0,0.1,0,0.1-0.1l0.2-0.1c0.1,0,0.1-0.1,0.2-0.2
		c0.1-0.1,0.1-0.1,0.2-0.2c0.1-0.1,0.1-0.1,0.2-0.2c0.1-0.1,0.1-0.1,0.1-0.2c0-0.1,0.1-0.1,0.1-0.2c-0.1,0.1-0.1,0.1-0.2,0.2
		c-0.1,0.1-0.1,0.1-0.2,0.2c-0.1,0.1-0.1,0.1-0.2,0.2c-0.1,0.1-0.1,0.1-0.2,0.1c-0.1,0-0.1,0.1-0.2,0.1l-0.2,0.1
		c-0.1,0-0.1,0.1-0.2,0.1l-0.2,0.1l-0.3,0.1l0.3,0.1c0.1,0,0.2,0,0.3,0c0.1,0,0.2,0,0.2,0c0.2,0,0.3-0.1,0.5-0.1c0,0,0.1,0,0.1,0
		c0,0,0.1,0,0.1-0.1l0.1-0.1c0,0,0.1,0,0.1-0.1c0,0,0.1-0.1,0.1-0.1L63.1,108.7c0.1,0,0.1-0.1,0.2-0.1
		C63.2,108.6,63.2,108.7,63.1,108.7 M54.6,124.3c0.2,0,0.4-0.1,0.5-0.1l0.5-0.2c0.2,0,0.4-0.1,0.5-0.2c0.1,0,0.2-0.1,0.3-0.1
		c0.1,0,0.2-0.1,0.3-0.2l0.3-0.2l-0.3,0l-1.1,0.1c-0.2,0-0.4,0-0.5,0.1l-0.5,0l-0.5,0c-0.2,0-0.4,0-0.5,0l-1.1,0c-0.4,0-0.7,0-1.1,0
		c-0.4,0-0.7,0-1.1,0c-0.4,0-0.7,0-1.1,0c-0.4,0-0.7,0-1.1-0.1c0.4,0,0.7,0.1,1.1,0.1c0.4,0,0.7,0.1,1.1,0.1c0.4,0,0.7,0,1.1,0.1
		c0.4,0,0.7,0,1.1,0l1.1,0c0.2,0,0.4,0,0.5,0l0.5,0l0.5,0c0.2,0,0.4,0,0.5,0l0.6-0.1c0,0,0,0-0.1,0c-0.2,0.1-0.3,0.2-0.5,0.2
		l-0.5,0.2c-0.2,0.1-0.4,0.1-0.5,0.1l-0.5,0.1c-0.2,0-0.4,0.1-0.5,0.1l-1.1,0.2l-1.1,0.1l-0.6,0c-0.2,0-0.4,0-0.6,0
		c-0.7,0-1.5,0.1-2.2,0.1c0.7,0,1.5,0,2.2,0c0.2,0,0.4,0,0.6,0l0.6,0l1.1-0.1l1.1-0.1c0.2,0,0.4,0,0.6-0.1L54.6,124.3z"/>
	<path class="st9" d="M54.6,111.2c0,0,2,2.4,0.3,4.6c0,0,0-1-1.4-1.7c0,0,0.4,0.6,0,1.5c-0.4,0.9-1.1,1.2-1.1,3.2c0,1.4,1.5,3,3.1,3
		c2,0,3.6-1.1,3.6-3.1C59.2,117.9,59.4,114.1,54.6,111.2 M55.6,120.7c-1.2,0-1.6-0.8-1.6-1.6c0-0.6,0.4-1,0.5-1.4
		c0.1-0.5-0.1-0.8-0.1-0.8c0.7,0.1,0.8,1.2,0.8,1.2c0.6-0.5,0-1.7,0-1.7c0.9,0.4,1,1.6,1,1.6c0.6-0.7,0.2-1.8,0.2-1.8
		C58.4,118.2,57.7,120.7,55.6,120.7"/>
	<path class="st18" d="M49.3,103.5c0,0-0.1,0.1-0.1,0.1c-1.7,1.7,1.8,2.9,3.7,2.9c-0.8,0.3-2.7,0-2.7,0.9c0,0.9,4.4,2.4,4.4,2.4
		l-2.3-7.7C52.3,102,51,101.9,49.3,103.5 M59.1,103.6c0,0-0.1-0.1-0.1-0.1c-1.7-1.6-3-1.5-3-1.5l-1.4,7.7c0,0,4.1-0.8,4.1-2.1
		c0-1-1.2-0.4-2.5-1.1C58,106.5,60.8,105.4,59.1,103.6"/>
	<path class="st7" d="M61,79.9C61,79.9,61,79.9,61,79.9L61,79.9C61,79.9,61,79.9,61,79.9"/>
	<path class="st7" d="M61,79.9c0.9,1.8,1.3,3.9,1.4,5.8c0,0.3,0.1,0.6,0.1,0.9C64.5,85,63.8,80.3,61,79.9"/>
	<path class="st12" d="M46.1,142.3c-0.5,0-0.9,0.4-0.9,0.9c0,0.5,0.4,0.9,0.9,0.9s0.9-0.4,0.9-0.9C47,142.7,46.6,142.3,46.1,142.3
		 M45.8,142.7L45.8,142.7c0,0.1-0.1,0.2-0.1,0.2l-0.1-0.1C45.7,142.7,45.8,142.7,45.8,142.7 M45.5,143.2c0-0.1,0-0.2,0-0.2l0.1,0
		c0,0.1,0,0.1,0,0.2H45.5L45.5,143.2z M45.6,143.6c-0.1-0.1-0.1-0.1-0.1-0.2l0.1,0C45.6,143.5,45.7,143.5,45.6,143.6L45.6,143.6z
		 M46.1,143.8c-0.1,0-0.2,0-0.2,0l0-0.1C45.9,143.7,46,143.7,46.1,143.8L46.1,143.8L46.1,143.8z M46.1,142.7L46.1,142.7L46.1,142.7
		c0.1-0.1,0.2-0.1,0.2-0.1l0,0.1C46.2,142.7,46.1,142.7,46.1,142.7 M46.3,143.8L46.3,143.8c0-0.1,0.1-0.2,0.1-0.2l0.1,0.1
		C46.4,143.7,46.4,143.7,46.3,143.8 M46.4,142.9L46.4,142.9c0.1,0,0.2,0,0.2,0.1l-0.1,0C46.5,143,46.4,142.9,46.4,142.9 M46.6,143.2
		c0,0.1,0,0.2,0,0.2l-0.1,0c0-0.1,0-0.1,0-0.2H46.6L46.6,143.2z"/>
	<path class="st9" d="M46.9,142.9c0.1-0.1,0.1-0.2,0.2-0.4l-0.5-0.7c0,0-0.1,0.2-0.3,0.5C46.6,142.4,46.8,142.6,46.9,142.9"/>
	<path class="st9" d="M45.2,143.6c-0.1,0-0.1,0.1-0.2,0.1l0.6,0.6c0,0,0.1-0.1,0.3-0.2C45.6,144.1,45.3,143.9,45.2,143.6"/>
	<path class="st2" d="M91.7,129.1c0.1-0.5-3.8-1.3-3.8-1.3s1.5-1.9,1-2.3c-0.6-0.5-2.6,2.6-2.6,2.6s-13.3-3.3-15-3.6
		c-1.4-0.3-4.8-8-6.3-11.7c-1.4,1.2-3.9,1.6-3.9,1.6l0.2,1.3c1.7,4.2,4.3,11,7.5,12.2c3.5,1.2,14.6,2,16.9,2.7c0,0,0.9,3.3,1.5,2.9
		c0.7-0.4-0.2-2.9-0.2-2.9s1.4,3,2.2,2.5c0.7-0.4-1.2-3.4-1.2-3.4s2.6,2.5,3.2,2c0.5-0.5-2.3-2.6-2.3-2.6S91.6,130,91.7,129.1
		 M46.1,142.3c0.1,0,0.2,0,0.2,0c0.1-0.2,0.2-0.3,0.3-0.4c-2-3.1-6.5-9.8-6.2-12c0.3-2,4.7-11.1,6.4-14.6c-0.4-0.1-1.6-0.4-3.8-1.8
		c-0.8,1.5-7.5,14.4-6.6,17.8c0.7,2.5,5.9,8.9,8.8,12.3c0,0,0,0,0,0c0,0,0,0.1,0.1,0.1c-0.1-0.1-0.1-0.3-0.1-0.5
		C45.1,142.7,45.5,142.3,46.1,142.3 M49.3,145.1c0,0,2.6,0.5,2.6-0.2c0-0.7-3.4-1-3.4-1s0.6-1.9,0.1-2c-0.4-0.1-0.8,0.8-1.2,1.4
		c0-0.1-0.1-0.1-0.1-0.2c-0.1-0.1-0.2-0.3-0.3-0.5c0,0.1-0.1,0.1-0.1,0.2c0,0.1,0.1,0.2,0.1,0.4c0,0.5-0.4,0.9-0.9,0.9
		c-0.1,0-0.1,0-0.2,0c-0.1,0.1-0.1,0.1-0.2,0.1c0.5,0.6,1,1.1,1.2,1.4l0.1,0.3c0,0,1.9,3.7,2.5,3.1c0.6-0.5-1.2-2.6-1.2-2.6
		s2,2.1,2.5,1.6c0.5-0.5-1.9-2.2-1.9-2.2s2.6,1.3,3,0.7C52.3,146,49.3,145.1,49.3,145.1"/>
	<path class="st3" d="M45.8,144.2c0,0-0.1,0.1-0.1,0.1c0.6,0.7,1,1.2,1.3,1.5C47,145.7,46.6,145.1,45.8,144.2 M45.1,143.2
		c-0.5-0.6-1-1.3-1.5-2.1c-0.5-0.7-1.1-1.4-1.6-2.2c-0.6-0.8-1.2-1.6-1.8-2.5c-0.6-0.9-1.2-1.8-1.8-2.8c-0.3-0.5-0.6-1-0.8-1.5
		c-0.1-0.2-0.2-0.5-0.3-0.7c0-0.1,0-0.1-0.1-0.2c0-0.1,0-0.1,0-0.2c0-0.1,0-0.2,0-0.4c0-0.5,0-1.1,0.1-1.6c0.1-0.5,0.2-1.1,0.4-1.6
		c0.3-1.1,0.6-2.1,1-3.1c0.4-1,0.7-2,1.1-2.9c0.4-0.9,0.7-1.8,1-2.6c0.6-1.6,1.2-2.9,1.6-3.8c0.4-0.9,0.6-1.5,0.6-1.5
		c-1,1.9-7.5,14.4-6.5,17.7c0.7,2.5,5.9,8.9,8.8,12.3c0,0,0,0,0,0c0,0,0,0,0,0C45.2,143.5,45.1,143.3,45.1,143.2L45.1,143.2z"/>
	<path class="st19" d="M50.2,87.3c-0.4,0-0.7,0.7-0.7,1.5c0.1,0.5,0.3,1,0.6,1.2c0.1,0,0.2,0,0.3,0c0.1,0,0.2,0,0.4,0
		c0.3-0.2,0.4-0.7,0.3-1.3C51,87.8,50.6,87.3,50.2,87.3 M59.8,87.3c-0.4,0-0.9,0.5-1,1.3c-0.1,0.8,0.2,1.4,0.7,1.5
		c0.4,0,0.9-0.5,1-1.3C60.6,88,60.3,87.3,59.8,87.3"/>
	<path class="st12" d="M56.4,116.3c0,0,0.4,1-0.2,1.8c0,0-0.1-1.2-1-1.6c0,0,0.6,1.1,0,1.7c0,0-0.1-1-0.8-1.2c0,0,0.2,0.3,0.1,0.8
		c-0.1,0.3-0.5,0.8-0.5,1.4c0,0.7,0.4,1.6,1.6,1.6C57.7,120.7,58.4,118.2,56.4,116.3"/>
	<path class="st18" d="M54.9,115.8c0.5-0.6,0.7-1.2,0.7-1.7c-0.5,0-1.1,0.1-1.5,0.4C54.9,115.1,54.9,115.8,54.9,115.8 M58.4,115
		c0.9,1.7,0.8,3.2,0.8,3.7c0,2.1-1.6,3.1-3.6,3.1c-1.6,0-3.1-1.6-3.1-3c0-2,0.6-2.3,1.1-3.2c0.2-0.4,0.2-0.7,0.2-1
		c-1.3,0.7-2.2,2.1-2.2,3.7c0,2.4,1.9,4.3,4.3,4.3c2.4,0,4.3-1.9,4.3-4.3C60.1,117,59.4,115.8,58.4,115"/>
	<path class="st16" d="M65.5,112.3c0,0-2.1-6.3-6-8.1c0.7,1.4-1.7,2.3-3.3,2.3c1.3,0.7,2.5,0.1,2.5,1.1c0,1.3-4.1,2.1-4.1,2.1
		s-4.4-1.5-4.4-2.4c0-0.8,1.9-0.5,2.7-0.8l0,0c-1.6,0-4.3-0.8-4.1-2.1c-2.3,1.5-5,4.7-5.9,9.1c3,1.8,4.1,1.8,4.1,1.8
		c0-0.1,0-0.2,0-0.3c0-0.1,0-0.2,0-0.3l0-0.3c0-0.1,0-0.2,0-0.3c0-0.1,0-0.2,0-0.3c0-0.1,0-0.2,0.1-0.3c0-0.1,0-0.2,0.1-0.3
		c0-0.1,0-0.1,0.1-0.2c-0.1,0-0.1,0-0.2-0.1c-0.1,0-0.2-0.1-0.2-0.2c-0.1-0.1-0.3-0.2-0.4-0.4c-0.1-0.1-0.2-0.3-0.3-0.4
		c-0.1-0.1-0.2-0.3-0.3-0.4c0.2,0.3,0.5,0.5,0.7,0.7c0.1,0.1,0.2,0.2,0.4,0.3c0.1,0.1,0.3,0.2,0.4,0.2l0.1,0l0,0.1
		c0,0.1-0.1,0.2-0.1,0.3c0,0.1-0.1,0.2-0.1,0.3c0,0.1,0,0.2-0.1,0.3c0,0.1,0,0.2-0.1,0.3c0,0.1,0,0.2,0,0.3l0,0.3
		c0,0.2,0,0.4-0.1,0.7c0,0,0.2,14.3,0.2,18.1c0,0,3.6,0.7,8.2,0.7s8.4-1.8,8.4-1.8l-2.7-17.9C61.1,114.4,64.2,113.9,65.5,112.3
		 M53.7,114.7c0-0.3-0.2-0.5-0.2-0.5c0.2,0.1,0.4,0.2,0.5,0.3c0,0,0,0,0,0c0.5-0.2,1-0.3,1.5-0.4c0.1-1.6-1-2.9-1-2.9
		c2,1.2,3.1,2.5,3.8,3.8c1,0.8,1.7,2,1.7,3.4c0,2.4-1.9,4.3-4.3,4.3c-2.4,0-4.3-1.9-4.3-4.3C51.5,116.8,52.4,115.4,53.7,114.7
		 M52.4,124.7l-1.1,0.1l-0.6,0c-0.2,0-0.4,0-0.6,0c-0.7,0-1.5,0-2.2,0c0.7,0,1.5-0.1,2.2-0.1c0.2,0,0.4,0,0.6,0l0.6,0l1.1-0.1
		l1.1-0.2c0.2,0,0.4,0,0.5-0.1l0.5-0.1c0.2,0,0.4-0.1,0.5-0.1l0.5-0.2c0.2,0,0.3-0.1,0.5-0.2c0,0,0,0,0.1,0l-0.6,0.1
		c-0.2,0-0.4,0-0.5,0l-1.1,0c-0.2,0-0.4,0-0.5,0l-1.1,0c-0.4,0-0.7,0-1.1,0c-0.4,0-0.7,0-1.1-0.1c-0.4,0-0.7-0.1-1.1-0.1
		c-0.4,0-0.7-0.1-1.1-0.1c0.4,0,0.7,0.1,1.1,0.1c0.4,0,0.7,0,1.1,0c0.4,0,0.7,0,1.1,0c0.4,0,0.7,0,1.1,0l1.1,0c0.2,0,0.4,0,0.5,0
		l0.5,0l0.5,0c0.2,0,0.4,0,0.5-0.1l1.1-0.1l0.3,0l-0.3,0.2c-0.1,0.1-0.2,0.1-0.3,0.2c-0.1,0-0.2,0.1-0.3,0.1
		c-0.2,0.1-0.3,0.2-0.5,0.2l-0.5,0.2c-0.2,0.1-0.4,0.1-0.5,0.1l-0.5,0.1c-0.2,0-0.4,0.1-0.6,0.1L52.4,124.7z M61.2,129.2
		c0.3-0.1,0.6-0.2,0.9-0.2c0.2-0.1,0.4-0.2,0.5-0.2c0.1-0.1,0.2-0.1,0.2-0.1s-0.1,0-0.2,0.1c-0.1,0.1-0.3,0.2-0.5,0.2
		C61.8,129.1,61.6,129.2,61.2,129.2c-0.2,0.1-0.3,0.2-0.5,0.2c-0.2,0-0.4,0.1-0.6,0.1c-0.2,0-0.4,0.1-0.7,0.1
		c-0.2,0-0.5,0.1-0.7,0.1c-0.3,0-0.5,0.1-0.8,0.1c-0.3,0-0.5,0-0.8,0.1c-0.3,0-0.6,0-0.8,0c-0.3,0-0.6,0-0.9,0c-0.3,0-0.6,0-0.9,0
		c-0.1,0-0.3,0-0.4,0c-0.1,0-0.1,0-0.2,0.1c0,0,0,0,0,0c0.1,0.1,0.2,0.1,0.3,0.1c0.1,0,0.3,0,0.4,0c0.3,0,0.6,0,0.9,0
		c0.6,0,1.1,0,1.7,0c0.5,0,1.1,0,1.6-0.1c0.5,0,1-0.1,1.4-0.1c0.4,0,0.8-0.1,1.2-0.1c0.3-0.1,0.7-0.1,0.9-0.1c0.3,0,0.4-0.1,0.6-0.1
		c0.1,0,0.2-0.1,0.2-0.1s-0.1,0-0.2,0.1c-0.1,0-0.3,0.1-0.6,0.1c-0.2,0.1-0.6,0.1-0.9,0.2c-0.4,0.1-0.7,0.1-1.2,0.2
		c-0.4,0-0.9,0.1-1.4,0.1c-0.5,0-1,0.1-1.6,0.1c-0.5,0-1.1,0-1.7,0c-0.3,0-0.6,0-0.9,0c-0.1,0-0.3,0-0.5,0c-0.2,0-0.3-0.1-0.5-0.2
		c0,0,0,0-0.1-0.1c0,0,0-0.1,0-0.1c0-0.1,0.1-0.1,0.1-0.1c0.1,0,0.2-0.1,0.2-0.1c0.2,0,0.3,0,0.5,0c0.3,0,0.6,0,0.9,0
		c0.3,0,0.6,0,0.9,0c0.3,0,0.6,0,0.8,0c0.3,0,0.5,0,0.8,0c0.3,0,0.5,0,0.8-0.1c0.2,0,0.5-0.1,0.7-0.1c0.2,0,0.5-0.1,0.7-0.1
		C60.5,129.4,60.8,129.3,61.2,129.2 M61.2,112.7c0,0.1,0,0.2,0,0.3c0,0.1,0,0.2,0,0.3c0,0.1,0,0.2-0.1,0.3c0,0.1-0.1,0.2-0.1,0.3
		c0-0.1,0-0.2,0-0.3c0-0.1,0-0.2,0-0.3c0-0.1,0-0.2,0-0.3c0-0.1,0-0.2,0-0.3c0-0.1,0-0.2,0-0.3c0-0.1,0-0.2,0-0.3
		c0-0.1,0-0.2-0.1-0.3c0-0.1,0-0.1-0.1-0.2l-0.1,0c-0.1,0-0.1,0-0.1-0.1c0,0-0.1,0-0.1-0.1c0,0-0.1-0.1-0.1-0.1
		c-0.1-0.1-0.2-0.1-0.2-0.2c-0.1-0.1-0.1-0.1-0.2-0.2c0.1,0.1,0.2,0.1,0.2,0.2c0.1,0.1,0.2,0.1,0.2,0.1c0,0,0.1,0,0.1,0.1
		c0,0,0.1,0,0.1,0c0,0,0.1,0,0.1,0l0.1,0l0.1,0l0,0c0,0.1,0.1,0.2,0.1,0.3c0,0.1,0,0.2,0.1,0.3c0,0.1,0,0.2,0,0.3
		C61.3,112.5,61.2,112.6,61.2,112.7 M63.2,108.8L63.2,108.8c-0.1,0.1-0.1,0.1-0.2,0.2c0,0-0.1,0.1-0.1,0.1l-0.1,0.1
		c0,0-0.1,0-0.1,0.1c0,0-0.1,0-0.1,0.1c-0.2,0.1-0.3,0.1-0.5,0.1c-0.1,0-0.2,0-0.2,0c-0.1,0-0.2,0-0.3,0l-0.3-0.1l0.3-0.1l0.2-0.1
		c0.1,0,0.2-0.1,0.2-0.1l0.2-0.1c0.1,0,0.1-0.1,0.2-0.1c0.1,0,0.1-0.1,0.2-0.1c0.1-0.1,0.1-0.1,0.2-0.2c0.1-0.1,0.1-0.1,0.2-0.2
		c0.1-0.1,0.1-0.1,0.2-0.2c0,0.1-0.1,0.2-0.1,0.2c0,0.1-0.1,0.1-0.1,0.2c-0.1,0.1-0.1,0.1-0.2,0.2c-0.1,0.1-0.1,0.1-0.2,0.2
		c-0.1,0.1-0.1,0.1-0.2,0.2l-0.2,0.1c0,0-0.1,0-0.1,0.1c0,0,0.1,0,0.1,0c0.1,0,0.2,0,0.2,0c0.1,0,0.1,0,0.2-0.1
		c0.1,0,0.3-0.1,0.4-0.2c0,0,0.1,0,0.1-0.1L63.2,108.8c0-0.1,0.1-0.1,0.1-0.2C63.3,108.6,63.2,108.7,63.2,108.8"/>
	<path class="st7" d="M63.3,132.6c-1.2,0.5-4.3,1.6-7.9,1.6c-3.6,0-6.6-0.4-7.7-0.6c-0.1,1.1-0.3,4.8-0.5,9.4
		c0.1,0.1,0.1,0.2,0.2,0.3c0,0.1,0.1,0.1,0.1,0.2c0.3-0.6,0.8-1.5,1.2-1.4c0.5,0.1-0.1,2-0.1,2s3.5,0.2,3.4,1c0,0.7-2.6,0.2-2.6,0.2
		s3,1,2.6,1.5c-0.4,0.6-3-0.7-3-0.7s2.5,1.7,1.9,2.2c-0.5,0.5-2.5-1.6-2.5-1.6s1.8,2.1,1.2,2.6c-0.5,0.5-2.2-2.7-2.4-3.1
		c-0.1,4-0.3,8.3-0.3,12c0,10.2,5.8,31.5,5.8,31.5s0.2,0.5,1.4,0.5c1.3,0,1.9-0.5,1.9-0.5s-3.5-22.6-3.5-30.1
		c0-7.5,1.6-19.8,1.6-19.8s2,0.4,4.6,0.4c0,0,2.9,14.1,2.9,22.9c0,8.8-2,26.2-2,26.2s0.7,0.6,2,0.6c1.3,0,1.7-0.4,1.7-0.4
		s3.6-18.6,3.6-26.5C66.9,152.7,65.8,147.1,63.3,132.6 M50.7,135c0,0.1,0,0.2,0,0.3c0,0.1,0,0.2-0.1,0.3c0,0.1-0.1,0.2-0.1,0.3
		c-0.1,0.1-0.1,0.2-0.2,0.3c-0.1,0.1-0.1,0.2-0.2,0.2c-0.1,0.1-0.2,0.1-0.3,0.2c-0.1,0.1-0.2,0.1-0.3,0.1c-0.1,0-0.2,0-0.3,0.1
		c-0.2,0-0.3,0-0.4,0c-0.1,0-0.1,0-0.1,0s0,0,0.1-0.1c0.1,0,0.2-0.1,0.3-0.1c0.1,0,0.1-0.1,0.2-0.1c0.1,0,0.1-0.1,0.2-0.1
		c0,0,0.1-0.1,0.1-0.1c0,0,0.1-0.1,0.1-0.1c0.1-0.1,0.1-0.1,0.2-0.2c0.1-0.1,0.1-0.1,0.1-0.2c0-0.1,0.1-0.2,0.1-0.2
		c0-0.1,0.1-0.2,0.1-0.2c0-0.1,0-0.1,0.1-0.2c0-0.1,0-0.1,0.1-0.2c0-0.1,0-0.1,0-0.1c0-0.1,0-0.1,0-0.1s0,0,0,0.1c0,0,0,0.1,0,0.2
		c0,0,0,0.1,0,0.1C50.7,134.9,50.7,134.9,50.7,135 M50.2,164.9c0.2,0,0.4,0,0.7,0c0.2,0,0.4,0,0.7,0l0.2,0l-0.1,0.1
		c-0.1,0.1-0.2,0.1-0.3,0.2c-0.1,0.1-0.2,0.1-0.3,0.2c-0.2,0.1-0.4,0.2-0.7,0.3c-0.1,0-0.2,0.1-0.3,0.1c-0.1,0-0.2,0-0.4,0.1
		c-0.1,0-0.2,0-0.4,0c-0.1,0-0.2,0-0.4,0c0.1,0,0.2,0,0.4,0c0.1,0,0.2,0,0.4-0.1c0.1,0,0.2,0,0.3-0.1c0.1,0,0.2-0.1,0.3-0.1
		c0.1,0,0.2-0.1,0.3-0.1c0.1,0,0.2-0.1,0.3-0.2c0.1-0.1,0.2-0.1,0.3-0.2c0,0,0.1-0.1,0.1-0.1c-0.2,0-0.3,0-0.5,0c-0.2,0-0.4,0-0.7,0
		c-0.2,0-0.4,0-0.7-0.1c-0.2,0-0.4-0.1-0.7-0.1l-0.8-0.2l0.8,0c0.2,0,0.5,0,0.7-0.1c0.2-0.1,0.5-0.1,0.7-0.2
		c0.2-0.1,0.4-0.2,0.6-0.4c0,0,0.1-0.1,0.1-0.1c-0.1,0-0.2,0.1-0.3,0.1c-0.3,0.1-0.6,0.1-0.9,0.1c-0.3,0-0.6,0-0.9-0.1
		c-0.3-0.1-0.6-0.1-0.9-0.2c0.3,0.1,0.6,0.2,0.9,0.2c0.3,0,0.6,0,0.9,0c0.3,0,0.6-0.1,0.9-0.2c0.1,0,0.3-0.1,0.4-0.2
		c0.1-0.1,0.3-0.1,0.4-0.2l0.5-0.3l-0.4,0.4c-0.1,0.1-0.2,0.2-0.3,0.3c-0.1,0.1-0.2,0.2-0.3,0.2c-0.2,0.1-0.4,0.3-0.7,0.4
		c-0.2,0.1-0.5,0.2-0.7,0.3c0,0-0.1,0-0.1,0C49.8,164.8,50,164.8,50.2,164.9 M62,136c-0.1,0-0.2-0.1-0.3-0.1
		c-0.1-0.1-0.2-0.1-0.3-0.2c-0.1-0.1-0.2-0.2-0.2-0.2c-0.1-0.1-0.1-0.2-0.2-0.3c0-0.1-0.1-0.2-0.1-0.3c0-0.1,0-0.2-0.1-0.3
		c0-0.1,0-0.2,0-0.3c0,0,0-0.1,0-0.1c0,0,0-0.1,0-0.1c0-0.1,0-0.1,0-0.2c0-0.1,0-0.1,0-0.1s0,0,0,0.1c0,0,0,0.1,0,0.2
		c0,0.1,0,0.1,0.1,0.2c0,0.1,0,0.1,0.1,0.2c0,0.1,0.1,0.1,0.1,0.2c0,0.1,0.1,0.1,0.1,0.2c0,0.1,0.1,0.1,0.1,0.2
		c0.1,0.1,0.1,0.1,0.2,0.2c0,0,0.1,0.1,0.1,0.1c0,0,0.1,0.1,0.1,0.1c0.1,0,0.1,0.1,0.2,0.1c0.1,0,0.1,0.1,0.2,0.1
		c0.1,0.1,0.2,0.1,0.3,0.1c0.1,0,0.1,0,0.1,0s-0.1,0-0.1,0c-0.1,0-0.2,0-0.4,0C62.2,136,62.1,136,62,136 M64.5,164.9
		c0.2,0,0.4,0.1,0.6,0.1c0.2,0,0.4,0.1,0.6,0.1l0.2,0l-0.2,0.1c-0.1,0.1-0.2,0.1-0.3,0.2c-0.1,0-0.2,0.1-0.3,0.1
		c-0.2,0.1-0.5,0.1-0.7,0.2c-0.1,0-0.1,0-0.2,0c-0.1,0-0.1,0-0.2,0c-0.1,0-0.2,0-0.4,0c-0.1,0-0.2,0-0.4,0c-0.1,0-0.2,0-0.4,0
		c0.1,0,0.2,0,0.4,0c0.1,0,0.2,0,0.4,0c0.1,0,0.2,0,0.4,0c0.1,0,0.1,0,0.2,0c0.1,0,0.1,0,0.2,0c0.2-0.1,0.5-0.1,0.7-0.2
		c0.1,0,0.2-0.1,0.3-0.1c0,0,0.1,0,0.1-0.1c-0.2,0-0.3,0-0.5,0c-0.2,0-0.4-0.1-0.7-0.1c-0.2,0-0.4-0.1-0.7-0.1
		c-0.2-0.1-0.4-0.1-0.6-0.2l-0.8-0.3l0.8,0.1c0.2,0,0.5,0,0.7,0c0.2,0,0.5-0.1,0.7-0.2c0.2-0.1,0.5-0.2,0.7-0.3c0,0,0.1,0,0.1-0.1
		c-0.1,0-0.2,0.1-0.3,0.1c-0.3,0.1-0.6,0.1-0.9,0.1c-0.3,0-0.6-0.1-0.9-0.2c-0.3-0.1-0.6-0.2-0.9-0.3c0.3,0.1,0.6,0.2,0.9,0.3
		c0.3,0.1,0.6,0.1,0.9,0.1c0.3,0,0.6,0,0.9-0.1c0.1,0,0.3-0.1,0.4-0.1c0.1,0,0.3-0.1,0.4-0.2l0.5-0.2l-0.4,0.4
		c-0.1,0.1-0.2,0.2-0.3,0.2c-0.1,0.1-0.2,0.1-0.3,0.2c-0.2,0.1-0.5,0.2-0.7,0.3c-0.3,0.1-0.6,0.2-0.8,0.2
		C64.1,164.8,64.3,164.9,64.5,164.9"/>
	<path class="st18" d="M63.2,189.3L63.2,189.3c-0.2,0.1-0.7,0.3-1.6,0.3c-1,0-1.6-0.3-1.9-0.5l-0.3,1.3c0,0-0.2,0.9,0.6,1.4
		c0.3,0.2,5,1.7,5.6,1.8c0.6,0.1,2.5,0.5,2.8-0.4C68.6,192.6,65.7,190.7,63.2,189.3 M64.8,191c-0.1,0-0.2,0.1-0.3,0.1
		c-0.1,0-0.2,0-0.3,0l-0.1,0l-0.2,0c-0.1,0-0.1,0-0.2,0c-0.1,0-0.1,0-0.2-0.1c0,0-0.1-0.1-0.1-0.2c0-0.1,0-0.1,0-0.1
		c0,0,0-0.1,0.1-0.1c-0.1,0-0.2,0-0.3,0c-0.1,0-0.2,0-0.4,0c-0.1,0-0.1,0-0.2,0c0,0-0.1,0-0.1,0l0,0l0,0l0,0c0,0,0,0-0.1,0
		c0,0,0,0-0.1-0.1c0,0,0-0.1,0-0.1c0-0.1,0.1-0.1,0.1-0.1c0.1-0.1,0.1-0.1,0.2-0.1c0.2-0.1,0.4-0.2,0.7-0.2
		c-0.2,0.1-0.4,0.2-0.5,0.4c0,0,0,0-0.1,0.1c0,0,0,0,0.1,0c0,0,0.1,0,0.1,0c0.2,0,0.4,0,0.6,0c0.2,0,0.4-0.1,0.6-0.1l0,0
		c0.1,0,0.2,0.1,0.2,0.2c0,0.1,0,0.2-0.1,0.2c-0.2,0.1-0.3,0.2-0.4,0.3c0,0,0,0,0,0c0,0,0.1,0,0.1,0l0.1,0l0.1,0c0.1,0,0.2,0,0.3,0
		c0.1,0,0.2,0,0.3,0c0,0,0.1,0,0.1,0c0,0,0.1,0,0.1,0C65,191,64.9,191,64.8,191 M54,189.9c-0.7,0-1.1-0.2-1.3-0.3
		c-1.3,1-5.1,4.3-3.9,4.9c1.4,0.8,6.9-1.8,7-2.9c0.1-1.1-0.1-2-0.1-2.1C55.5,189.7,54.9,189.9,54,189.9 M53.7,191
		C53.7,191,53.7,191.1,53.7,191c-0.1,0.1-0.1,0.1-0.1,0.1c0,0,0,0,0,0c0,0,0,0,0,0l0,0c-0.1,0-0.2,0.1-0.2,0.1c-0.1,0-0.2,0-0.3,0.1
		c-0.1,0-0.2,0-0.3,0c-0.1,0-0.2,0-0.3,0c0.1,0,0.1,0.1,0.2,0.1c0,0,0.1,0,0.1,0.1c0,0,0.1,0.1,0.1,0.2c0,0.1-0.1,0.2-0.1,0.2
		c0,0,0,0-0.1,0l0,0l0,0l0,0l0,0l-0.2,0.1c-0.1,0-0.2,0-0.3,0c-0.1,0-0.2,0-0.2,0c-0.1,0-0.2,0-0.2,0c-0.2,0-0.3,0-0.5-0.1
		c-0.1,0-0.3-0.1-0.4-0.1c0.2,0,0.3,0,0.5,0l0.2,0l0.2,0c0.1,0,0.1,0,0.2,0c0.1,0,0.1,0,0.2,0c0.1,0,0.1,0,0.2,0l0.2-0.1
		c-0.1-0.1-0.3-0.1-0.4-0.1c-0.3-0.1-0.6-0.1-0.9-0.2c-0.1,0-0.2-0.1-0.2-0.2c0-0.1,0.1-0.2,0.2-0.2h0c0.3,0,0.7,0,1,0
		c0.2,0,0.3,0,0.5,0c0.1,0,0.2,0,0.2,0c0.1,0,0.2,0,0.2,0c0,0,0.1,0,0.1,0c0,0,0,0,0,0c-0.1,0-0.2-0.1-0.2-0.1
		c-0.3-0.1-0.6-0.2-1-0.3c0.3,0,0.7,0,1,0.1c0.1,0,0.2,0,0.3,0c0.1,0,0.2,0,0.3,0.1c0,0,0.1,0,0.1,0.1
		C53.7,190.9,53.7,190.9,53.7,191C53.7,191,53.7,191,53.7,191 M62.7,190.4C62.7,190.4,62.7,190.4,62.7,190.4
		C62.7,190.4,62.7,190.4,62.7,190.4 M63.8,190.9L63.8,190.9C63.8,190.8,63.8,190.9,63.8,190.9"/>
	<path class="st5" d="M50.8,88.8c-0.2,0-0.4,0.2-0.4,0.5c-0.1,0.3,0,0.6,0.2,0.6c0.2,0,0.4-0.2,0.4-0.5C51,89.1,51,88.8,50.8,88.8
		 M60.2,88.7c-0.2-0.1-0.4,0.1-0.5,0.4c-0.1,0.3,0,0.6,0.1,0.6c0.2,0.1,0.4-0.1,0.5-0.4C60.4,89.1,60.3,88.8,60.2,88.7"/>
	<path class="st6" d="M44.4,89c-0.1,0-0.1-0.1-0.2-0.1c-0.1,0-0.1,0-0.2,0c-0.1,0-0.2,0-0.3,0c-0.2,0-0.3,0-0.5-0.1
		c-0.2-0.1-0.3-0.2-0.4-0.3c-0.1-0.1-0.2-0.3-0.3-0.5c0-0.2-0.1-0.3,0-0.5c0.1-0.1,0.2-0.2,0.3-0.3c0.2,0,0.3,0,0.5,0
		c0.1,0,0.3,0.1,0.4,0.1c0.1,0.1,0.2,0.2,0.2,0.2c0,0.1,0.1,0.1,0.1,0.2c0,0,0,0.1,0,0.1c0,0,0,0,0,0c0,0,0,0,0,0c0,0,0,0,0-0.1
		c0,0,0-0.1-0.1-0.2c0-0.1-0.1-0.2-0.2-0.3c-0.1-0.1-0.2-0.2-0.4-0.2c-0.2,0-0.3-0.1-0.5-0.1c-0.2,0-0.4,0.2-0.5,0.4
		c-0.1,0.2-0.1,0.4-0.1,0.6c0,0.2,0.1,0.4,0.3,0.6c0.1,0.2,0.3,0.3,0.5,0.4c0.2,0.1,0.4,0.2,0.6,0.2c0.1,0,0.2,0,0.3,0
		c0.1,0,0.1,0,0.1,0c0,0,0.1,0,0.1,0c0,0,0.1,0,0.1,0.1c0,0,0,0.1,0,0.1c0,0.1-0.1,0.2-0.2,0.3c-0.1,0.1-0.2,0.1-0.2,0.1
		c-0.1,0-0.1,0.1-0.2,0.1c0,0-0.1,0-0.1,0l0,0c0,0,0,0,0,0c0,0,0,0,0,0c0,0,0,0,0.1,0c0,0,0.1,0,0.2,0c0.1,0,0.2,0,0.3-0.1
		c0.1-0.1,0.3-0.2,0.4-0.4c0-0.1,0.1-0.2,0-0.3C44.6,89.1,44.5,89,44.4,89"/>
	<path class="st6" d="M56,83.2c0.1-0.2,0.3-0.3,0.5-0.5c0.1-0.1,0.2-0.2,0.3-0.2c0.1,0,0.1-0.1,0.1-0.1c0,0,0.1-0.1,0.1-0.1
		c0,0,0.1,0,0.1-0.1c0,0,0.1,0,0.1,0c0.1,0,0.1,0,0.1,0s0,0-0.1,0c0,0-0.1,0-0.1,0c0,0-0.1,0-0.2,0c-0.1,0-0.1,0-0.2,0
		c-0.1,0-0.1,0-0.2,0.1c-0.1,0.1-0.3,0.2-0.4,0.3c-0.1,0.1-0.1,0.1-0.2,0.2c0,0.1-0.1,0.1-0.1,0.2c-0.1,0.1-0.1,0.2-0.2,0.3
		c-0.1,0.2-0.1,0.4-0.1,0.4S55.8,83.3,56,83.2"/>
	<path class="st6" d="M48.5,83.6c0,0-0.1-0.1-0.2-0.1c0,0-0.1,0-0.1,0c0,0-0.1,0-0.1,0c-0.1,0-0.2,0.1-0.3,0.2
		c-0.1,0.1-0.1,0.2-0.2,0.2c0,0.1-0.1,0.2-0.1,0.2c0,0.1,0,0.1,0,0.2c0,0,0,0.1,0,0.1s0,0,0,0c0,0,0.1-0.1,0.1-0.1
		c0-0.1,0.1-0.1,0.1-0.2c0.1-0.1,0.1-0.1,0.2-0.2c0.1-0.1,0.1-0.1,0.2-0.1c0.1,0,0.1-0.1,0.2-0.1C48.4,83.6,48.5,83.6,48.5,83.6"/>
	<path class="st6" d="M52.2,90.3c-0.1,0-0.2-0.1-0.3-0.1c-0.1-0.1-0.2-0.1-0.3-0.1c-0.1,0-0.1,0-0.2-0.1c-0.1,0-0.1,0-0.2,0
		c-0.1,0-0.3,0-0.4-0.1c-0.1,0-0.3,0-0.4,0c-0.1,0-0.3,0-0.4,0c-0.1,0-0.3,0.1-0.4,0.1c-0.3,0.1-0.5,0.2-0.7,0.3
		c-0.4,0.2-0.6,0.4-0.6,0.4s0.3-0.1,0.7-0.2c0.1,0,0.2-0.1,0.3-0.1c0.1,0,0.2-0.1,0.4-0.1c0.1,0,0.3,0,0.4-0.1c0.1,0,0.3,0,0.4,0
		c0.1,0,0.3,0,0.4,0c0.1,0,0.1,0,0.2,0c0.1,0,0.1,0,0.2,0c0.1,0,0.1,0,0.2,0c0.1,0,0.1,0,0.2,0c0.1,0,0.2,0,0.3,0.1
		c0.1,0,0.2,0.1,0.3,0.1c0.1,0,0.2,0.1,0.2,0.1c0.1,0,0.2,0.1,0.2,0.1s-0.1,0-0.2-0.1C52.4,90.4,52.3,90.3,52.2,90.3"/>
	<path class="st6" d="M58.6,91.4l-0.3-0.3c-0.1-0.1-0.2-0.2-0.3-0.3c-0.1-0.1-0.2-0.2-0.2-0.4c-0.1-0.1-0.2-0.3-0.2-0.4
		c-0.1-0.1-0.1-0.3-0.2-0.4c-0.1-0.1-0.1-0.3-0.2-0.4c-0.1-0.1-0.1-0.3-0.2-0.4c-0.1-0.1-0.1-0.3-0.1-0.4c0-0.1-0.1-0.3-0.1-0.4
		l-0.1-0.4L56.5,87c0-0.1-0.1-0.3-0.1-0.4l-0.1-0.4c0-0.1-0.1-0.3-0.1-0.5c-0.1-0.3-0.1-0.6-0.2-0.9c0,0.3,0,0.6,0,0.9
		c0,0.3,0,0.6,0.1,0.9c0,0.3,0.1,0.6,0.1,0.9l0.1,0.5c0,0.2,0.1,0.3,0.1,0.5c0,0.2,0.1,0.3,0.1,0.5c0,0.2,0.1,0.3,0.1,0.5
		c0.1,0.1,0.1,0.3,0.2,0.4c0.1,0.1,0.1,0.3,0.2,0.4c0.1,0.1,0.1,0.3,0.2,0.4c0.1,0.1,0.2,0.3,0.3,0.4c0.1,0.1,0.2,0.3,0.3,0.4
		l0.2,0.2c0,0,0,0,0,0.1c-0.1,0.1-0.1,0.2-0.2,0.2c-0.1,0.1-0.1,0.1-0.2,0.2c-0.1,0.1-0.1,0.1-0.2,0.2c-0.1,0.1-0.2,0.1-0.2,0.2
		c-0.1,0-0.2,0.1-0.2,0.1c-0.1,0-0.2,0.1-0.3,0.1c-0.1,0-0.2,0-0.3,0.1l-0.1,0l0,0c0,0,0,0,0,0h0l-0.1,0l-0.2,0l-0.1,0
		c-0.1,0-0.2,0-0.3,0c-0.1,0-0.2-0.1-0.3-0.1c0,0-0.1,0-0.1-0.1c0,0-0.1,0-0.1-0.1c-0.1-0.1-0.2-0.1-0.2-0.2
		c-0.1-0.1-0.1-0.1-0.2-0.2c-0.1-0.1-0.1-0.2-0.2-0.2c0.1,0.2,0.2,0.4,0.3,0.5c0.1,0.1,0.1,0.2,0.2,0.2c0,0,0.1,0.1,0.1,0.1
		c0,0,0.1,0.1,0.1,0.1c0.1,0.1,0.2,0.1,0.3,0.1c0.1,0,0.2,0.1,0.3,0.1l0.2,0l0.2,0l0.1,0l0,0l0,0l0,0l0.2,0c0.1,0,0.2,0,0.3,0
		c0.1,0,0.2-0.1,0.3-0.1c0.1,0,0.2-0.1,0.3-0.1c0.1-0.1,0.2-0.1,0.3-0.2c0.1-0.1,0.2-0.1,0.3-0.2c0.1-0.1,0.2-0.1,0.2-0.2
		c0.1-0.1,0.1-0.2,0.2-0.3c0.1-0.1,0.1-0.2,0.2-0.3l0.1-0.2L58.6,91.4z"/>
	<path class="st2" d="M61,79.9c-0.1,0-0.2,0-0.3,0c-3.1,0-6,3.1-9.4,3.1c-3.4,0-5.7-2-5.7-2c1.9,3.9-1,6.7-1,6.7s-0.3-1.3-1.3-1.3
		c-1.1,0-1.4,1.1-1.4,1.1c-0.1,1.4,0.6,3.3,2.9,3.3c0,0,3.4,10.1,9.5,10.1c5.4,0,8.2-8.4,8.2-12.1C62.4,86.7,62.5,83,61,79.9
		 M44.6,89.6c-0.1,0.2-0.2,0.3-0.4,0.4C44.1,90,44,90,43.9,90c-0.1,0-0.2,0-0.2,0c0,0-0.1,0-0.1,0c0,0,0,0,0,0c0,0,0,0,0,0l0,0
		c0,0,0,0,0.1,0c0,0,0.1,0,0.2-0.1c0.1,0,0.2-0.1,0.2-0.1c0.1-0.1,0.1-0.2,0.2-0.3c0,0,0-0.1,0-0.1c0,0,0,0-0.1-0.1c0,0,0,0-0.1,0
		c0,0,0,0-0.1,0c-0.1,0-0.2,0-0.3,0c-0.2,0-0.4-0.1-0.6-0.2c-0.2-0.1-0.4-0.3-0.5-0.4c-0.1-0.2-0.2-0.4-0.3-0.6c0-0.2,0-0.4,0.1-0.6
		c0.1-0.2,0.3-0.4,0.5-0.4c0.2,0,0.4,0,0.5,0.1c0.2,0,0.3,0.1,0.4,0.2c0.1,0.1,0.2,0.2,0.2,0.3c0,0.1,0,0.2,0.1,0.2c0,0,0,0.1,0,0.1
		c0,0,0,0,0,0c0,0,0,0,0,0c0,0,0,0,0-0.1c0,0,0-0.1-0.1-0.2c0-0.1-0.1-0.2-0.2-0.2c-0.1-0.1-0.2-0.1-0.3-0.1c-0.1,0-0.3,0-0.5,0
		c-0.1,0-0.3,0.1-0.3,0.3c-0.1,0.1,0,0.3,0,0.5c0,0.2,0.1,0.3,0.3,0.5c0.1,0.1,0.3,0.2,0.4,0.3c0.2,0.1,0.3,0.1,0.5,0.1
		c0.1,0,0.2,0,0.3,0c0,0,0.1,0,0.2,0c0.1,0,0.1,0,0.2,0.1c0.1,0.1,0.2,0.2,0.2,0.3C44.7,89.4,44.7,89.5,44.6,89.6 M55.8,83.1
		c0-0.1,0.1-0.2,0.2-0.3c0-0.1,0.1-0.1,0.1-0.2c0-0.1,0.1-0.1,0.2-0.2c0.1-0.1,0.2-0.2,0.4-0.3c0.1,0,0.1-0.1,0.2-0.1
		c0.1,0,0.1,0,0.2,0c0.1,0,0.1,0,0.2,0c0,0,0.1,0,0.1,0c0.1,0,0.1,0,0.1,0s0,0-0.1,0c0,0-0.1,0-0.1,0c0,0-0.1,0-0.1,0.1
		c0,0-0.1,0.1-0.1,0.1c-0.1,0-0.1,0.1-0.1,0.1c-0.1,0.1-0.2,0.2-0.3,0.2c-0.2,0.2-0.4,0.4-0.5,0.5c-0.1,0.2-0.3,0.3-0.3,0.3
		S55.8,83.3,55.8,83.1 M54.6,92.2c0.1,0.1,0.1,0.1,0.2,0.2c0.1,0.1,0.2,0.1,0.2,0.2c0,0,0.1,0.1,0.1,0.1c0,0,0.1,0,0.1,0.1
		c0.1,0,0.2,0.1,0.3,0.1c0.1,0,0.2,0,0.3,0l0.1,0l0.2,0l0.1,0h0c0,0,0,0,0,0l0,0l0.1,0c0.1,0,0.2,0,0.3-0.1c0.1,0,0.2-0.1,0.3-0.1
		c0.1,0,0.2-0.1,0.2-0.1c0.1,0,0.2-0.1,0.2-0.2c0.1-0.1,0.1-0.1,0.2-0.2c0.1-0.1,0.1-0.1,0.2-0.2c0.1-0.1,0.1-0.1,0.2-0.2
		c0,0,0,0,0-0.1l-0.2-0.2c-0.1-0.1-0.2-0.3-0.3-0.4c-0.1-0.1-0.2-0.3-0.3-0.4c-0.1-0.1-0.2-0.3-0.2-0.4c-0.1-0.1-0.1-0.3-0.2-0.4
		c-0.1-0.1-0.1-0.3-0.2-0.4c-0.1-0.1-0.1-0.3-0.1-0.5c0-0.1-0.1-0.3-0.1-0.5c0-0.2-0.1-0.3-0.1-0.5l-0.1-0.5
		c-0.1-0.3-0.1-0.6-0.1-0.9c0-0.3-0.1-0.6-0.1-0.9c0-0.3,0-0.6,0-0.9c0.1,0.3,0.1,0.6,0.2,0.9c0,0.2,0.1,0.3,0.1,0.5l0.1,0.4
		c0,0.1,0.1,0.3,0.1,0.4l0.1,0.4l0.1,0.4c0,0.1,0.1,0.3,0.1,0.4c0,0.1,0.1,0.3,0.1,0.4c0.1,0.1,0.1,0.3,0.2,0.4
		c0.1,0.1,0.1,0.3,0.2,0.4c0.1,0.1,0.1,0.3,0.2,0.4c0.1,0.1,0.1,0.3,0.2,0.4c0.1,0.1,0.1,0.3,0.2,0.4c0.1,0.1,0.2,0.2,0.3,0.3
		l0.3,0.3l0.2,0.2l-0.1,0.2c-0.1,0.1-0.1,0.2-0.2,0.3c-0.1,0.1-0.1,0.2-0.2,0.3c-0.1,0.1-0.2,0.2-0.2,0.2c-0.1,0.1-0.2,0.1-0.3,0.2
		c-0.1,0.1-0.2,0.1-0.3,0.2C57.3,93,57.2,93,57.1,93c-0.1,0-0.2,0.1-0.3,0.1c-0.1,0-0.2,0-0.3,0l-0.2,0l0,0l0,0l0,0l-0.1,0l-0.2,0
		l-0.2,0c-0.1,0-0.2-0.1-0.3-0.1c-0.1,0-0.2-0.1-0.3-0.1c0,0-0.1-0.1-0.1-0.1c0,0-0.1-0.1-0.1-0.1c-0.1-0.1-0.2-0.1-0.2-0.2
		c-0.1-0.2-0.2-0.4-0.3-0.5C54.5,92,54.5,92.1,54.6,92.2 M47.4,84.2c0-0.1,0-0.2,0.1-0.2c0-0.1,0.1-0.2,0.2-0.2
		c0.1-0.1,0.2-0.1,0.3-0.2c0,0,0.1,0,0.1,0c0,0,0.1,0,0.1,0c0.2,0,0.2,0.1,0.2,0.1s-0.1,0-0.2,0.1c-0.1,0-0.1,0.1-0.2,0.1
		c-0.1,0-0.1,0.1-0.2,0.1c-0.1,0.1-0.1,0.1-0.2,0.2c-0.1,0.1-0.1,0.1-0.1,0.2c0,0-0.1,0.1-0.1,0.1c0,0,0,0,0,0s0,0,0-0.1
		C47.4,84.4,47.4,84.3,47.4,84.2 M48,86.2c-0.1,0.1-0.2,0.1-0.3,0.2c-0.2,0.1-0.3,0.3-0.4,0.4c0,0.1-0.1,0.1-0.1,0.1c0,0,0,0,0,0
		s0-0.1,0-0.2c0-0.1,0-0.2,0-0.3c0-0.1,0.1-0.2,0.1-0.3c0.1-0.1,0.1-0.2,0.2-0.4c0.1-0.1,0.2-0.2,0.3-0.3c0.1-0.1,0.1-0.1,0.2-0.2
		c0.1-0.1,0.1-0.1,0.2-0.2c0.1-0.1,0.3-0.2,0.4-0.2c0.2-0.1,0.3-0.1,0.5-0.2c0.2,0,0.3-0.1,0.5-0.1c0.2,0,0.3,0,0.4,0
		c0.1,0,0.3,0,0.4,0c0.1,0,0.2,0,0.3,0.1c0.1,0,0.2,0,0.3,0.1c0.1,0,0.2,0.1,0.2,0.1s-0.1,0-0.2,0.1c-0.1,0-0.1,0.1-0.2,0.1
		c-0.1,0-0.2,0.1-0.3,0.1c-0.1,0-0.2,0.1-0.3,0.1c-0.1,0-0.2,0.1-0.4,0.1c-0.1,0-0.3,0.1-0.4,0.1c-0.1,0-0.3,0.1-0.4,0.2
		c-0.1,0-0.1,0.1-0.2,0.1c-0.1,0-0.1,0.1-0.2,0.1c-0.1,0.1-0.2,0.1-0.3,0.2c-0.1,0-0.1,0.1-0.2,0.1C48.1,86.1,48.1,86.2,48,86.2
		 M49.6,90.3c-0.1,0-0.3,0-0.4,0.1c-0.1,0-0.2,0.1-0.3,0.1c-0.4,0.1-0.7,0.2-0.7,0.2s0.2-0.2,0.6-0.4c0.2-0.1,0.4-0.2,0.7-0.3
		c0.1,0,0.3-0.1,0.4-0.1c0,0,0,0,0,0c-0.3-0.2-0.5-0.6-0.5-1.1c-0.1-0.8,0.2-1.4,0.7-1.5c0.4,0,0.9,0.5,0.9,1.3
		c0.1,0.5-0.1,1-0.3,1.3c0,0,0,0,0,0c0.1,0,0.3,0,0.4,0.1c0.1,0,0.1,0,0.2,0c0.1,0,0.1,0,0.2,0.1c0.1,0,0.2,0.1,0.3,0.1
		c0.1,0,0.2,0.1,0.3,0.1c0.1,0.1,0.1,0.1,0.2,0.1c0.1,0.1,0.2,0.1,0.2,0.1s-0.1,0-0.2-0.1c-0.1,0-0.1,0-0.2-0.1
		c-0.1,0-0.2,0-0.3-0.1c-0.1,0-0.2,0-0.3-0.1c-0.1,0-0.1,0-0.2,0c-0.1,0-0.1,0-0.2,0c-0.1,0-0.1,0-0.2,0c-0.1,0-0.1,0-0.2,0
		c-0.1,0-0.3,0-0.4,0c-0.1,0-0.3,0-0.4,0C49.9,90.2,49.7,90.2,49.6,90.3 M55.1,97.9c-4.7,0-5-4.9-5-4.9s1.7,1.9,5.3,1.9
		c3.1,0,4.3-0.9,4.3-0.9S58.5,97.9,55.1,97.9 M60.5,88.8c-0.1,0.8-0.5,1.3-1,1.3c-0.4,0-0.7-0.7-0.7-1.5c0.1-0.8,0.5-1.3,1-1.3
		C60.3,87.3,60.6,88,60.5,88.8 M61.9,86.9c0,0-0.1-0.1-0.1-0.1c0,0-0.1-0.1-0.1-0.2c0-0.1-0.1-0.1-0.2-0.2c0,0-0.1-0.1-0.1-0.1
		c0,0-0.1-0.1-0.1-0.1c-0.1-0.1-0.1-0.1-0.2-0.2c-0.1-0.1-0.2-0.1-0.2-0.2c-0.1-0.1-0.2-0.1-0.3-0.1c-0.1-0.1-0.2-0.1-0.3-0.1
		c-0.1,0-0.2-0.1-0.3-0.1c-0.1,0-0.2-0.1-0.3-0.1c-0.1,0-0.2,0-0.3-0.1c-0.2,0-0.3-0.1-0.5-0.1c-0.1,0-0.2,0-0.2,0s0-0.1,0.2-0.1
		c0.1-0.1,0.3-0.2,0.5-0.2c0.2-0.1,0.4-0.1,0.7-0.1c0.1,0,0.1,0,0.2,0c0.1,0,0.1,0,0.2,0c0.1,0,0.3,0.1,0.4,0.2
		c0.1,0.1,0.3,0.2,0.4,0.2c0,0,0.1,0,0.1,0.1l0.1,0.1c0,0.1,0.1,0.1,0.1,0.2c0.1,0.1,0.1,0.2,0.2,0.3c0.1,0.1,0.1,0.2,0.1,0.3
		c0,0.1,0.1,0.2,0.1,0.3c0,0.1,0,0.2,0,0.2C62,86.9,61.9,86.9,61.9,86.9 M54,101.7c-0.8,0-1.3-0.1-1.7-0.2c0,0.2,0,0.3,0,0.5
		l2.3,7.7L56,102c0-0.2,0-0.4,0-0.6C55.7,101.5,55,101.7,54,101.7"/>
	<path class="st7" d="M95.4,175.8c0,0,1.9,21.1,9.9,21.1h15c4.9,0,7.2-9.5,7.2-21.1H95.4z"/>
	<path class="st9" d="M120.6,196.9c5.1,0,7.4-9.8,7.4-21.8h-9.7C118.3,182.3,119.9,196.9,120.6,196.9"/>
	<path class="st7" d="M212.9,175.8c0,0-1.9,21.1-9.9,21.1h-15c-4.9,0-7.2-9.5-7.2-21.1H212.9z"/>
	<path class="st9" d="M188,196.9c-5.1,0-7.4-9.8-7.4-21.8h9.7C190.3,182.3,188.7,196.9,188,196.9"/>
	<path class="st20" d="M153.5,30.6c32.7,0,67.5,4.5,67.5,4.5l-0.5,45l0.9-71.7c0-3.4-2.7-6.2-6.2-6.2c0,0-21.5-2.2-61.2-2.2
		c-39.7,0-61.2,2.2-61.2,2.2c-3.4,0-6.2,2.8-6.2,6.2l0.3,26.7C87.8,34.9,121.2,30.6,153.5,30.6"/>
	<path class="st20" d="M153.9,144.4c-30,0-65.7,3.3-65.7,3.3L88,127.3l0.6,47.7c0,3.4,2.9,6.2,6.3,6.2h118.1c3.4,0,6.3-2.8,6.3-6.2
		l0.3-27.4C218.4,147.6,183.9,144.4,153.9,144.4"/>
	<path class="st15" d="M214.6,34.9l0.2-22.2c0-3.1-2.5-5.6-5.6-5.6c0,0-19.4-2-55.3-2c-35.9,0-55.3,2-55.3,2C95.5,7,93,9.6,93,12.6
		l0.2,22.2H214.6z"/>
	<path class="st21" d="M153.7,183c0,0,55.4,1.6,59,1.7c3.6,0.2,7-0.5,7.8-4.8c0.8-4.4,0.2-2.8-5.9-2.6c-6.1,0.2-60.9-1.8-60.9-1.8
		s-54.8,1.9-60.9,1.8c-6.1-0.2-6.7-1.7-5.9,2.6c0.8,4.3,4.2,5,7.8,4.8C98.3,184.6,153.7,183,153.7,183"/>
	<path class="st15" d="M213,169.2c-0.1,1-1.1,1.7-2.3,1.7c-45-2.9-69.4-2.9-114.4,0c-1.2,0.1-2.2-0.7-2.3-1.7
		c-0.5-4.8-0.9-9.6-1.4-14.3c-0.1-1,0.8-1.9,2.1-1.9c46.1-2.9,71.6-2.9,117.7,0c1.2,0.1,2.1,1,2.1,1.9
		C213.9,159.6,213.5,164.4,213,169.2"/>
	<g class="st22">
		<g>
			<defs>
				<rect id="SVGID_3_" x="86.8" y="30.6" width="134.1" height="117.1"/>
			</defs>
			<clipPath id="SVGID_4_">
				<use xlink:href="#SVGID_3_"  style="overflow:visible;"/>
			</clipPath>
			<g class="st23">
				<defs>
					<rect id="SVGID_5_" x="86.8" y="30.6" width="134.1" height="117.1"/>
				</defs>
				<clipPath id="SVGID_6_">
					<use xlink:href="#SVGID_5_"  style="overflow:visible;"/>
				</clipPath>
				<path class="st24" d="M86.8,35.1c0,0,34-4.5,66.6-4.5c32.7,0,67.5,4.5,67.5,4.5l-1.3,112.5c0,0-35.2-3.3-65.7-3.3
					c-30,0-65.7,3.3-65.7,3.3L86.8,35.1z"/>
				<path class="st25" d="M221,35.1l-1.3,112.5c0,0-35.2-3.3-65.7-3.3c-30,0-65.7,3.3-65.7,3.3L221,35.1z"/>
			</g>
		</g>
	</g>
	<path class="st26" d="M124.9,53.5c0,0-0.3,0.4-0.9,1.2c-0.5,0.8-1.3,1.9-2.3,3.2c-0.9,1.3-2.1,2.8-3.2,4.5
		c-0.6,0.8-1.2,1.7-1.8,2.5c-0.6,0.8-1.3,1.7-1.9,2.6c-0.6,0.9-1.3,1.7-1.9,2.6c-0.6,0.9-1.2,1.7-1.8,2.5c-0.6,0.8-1.1,1.6-1.7,2.4
		c-0.5,0.8-1,1.5-1.5,2.1c-0.4,0.7-0.9,1.3-1.2,1.8c-0.4,0.5-0.7,1-0.9,1.4c-0.5,0.8-0.8,1.2-0.8,1.2s0.2-0.5,0.6-1.4
		c0.2-0.4,0.4-1,0.7-1.5c0.3-0.6,0.6-1.3,1-2c0.4-0.7,0.8-1.5,1.3-2.3c0.5-0.8,1-1.6,1.5-2.5c0.6-0.8,1.1-1.7,1.7-2.6
		c0.6-0.9,1.2-1.8,1.9-2.6c0.6-0.9,1.3-1.7,1.9-2.6c0.6-0.9,1.3-1.7,1.9-2.5c0.6-0.8,1.3-1.5,1.9-2.3c0.6-0.7,1.2-1.4,1.7-2
		c1.1-1.2,2-2.2,2.7-2.9C124.5,53.9,124.9,53.5,124.9,53.5"/>
	<path class="st26" d="M153.6,53.5c0,0-0.5,0.7-1.4,1.9c-0.9,1.2-2.2,2.9-3.8,4.9c-3.1,4-7.3,9.4-11.5,14.8c-1,1.3-2.1,2.7-3.1,4
		c-1,1.3-2,2.6-3,3.9c-1.9,2.6-3.7,4.9-5.3,7c-3,4.1-5,6.9-5,6.9s1.7-2.9,4.4-7.3c0.7-1.1,1.5-2.2,2.3-3.4c0.8-1.2,1.7-2.5,2.6-3.8
		c0.9-1.3,1.9-2.6,2.9-4c1-1.3,2-2.7,3.1-4.1c2.1-2.7,4.2-5.4,6.3-7.8c1-1.2,2-2.4,3-3.5c0.9-1.1,1.9-2.2,2.7-3.1
		c1.7-1.9,3.1-3.5,4.1-4.6c0.5-0.6,0.9-1,1.2-1.3C153.4,53.7,153.6,53.5,153.6,53.5"/>
	<path class="st26" d="M165,72c0,0-0.4,0.6-1,1.6c-0.7,1-1.6,2.4-2.8,4.1c-1.2,1.7-2.6,3.7-4.1,5.7c-0.8,1-1.6,2.1-2.4,3.2
		c-0.8,1.1-1.7,2.2-2.5,3.2c-0.9,1.1-1.7,2.1-2.6,3.2c-0.9,1.1-1.7,2.1-2.6,3.1c-0.8,1-1.7,1.9-2.5,2.8c-0.8,0.9-1.6,1.7-2.3,2.5
		c-0.7,0.7-1.4,1.4-2,2c-0.6,0.6-1.1,1.1-1.6,1.5c-0.9,0.8-1.5,1.2-1.5,1.2s0.5-0.5,1.3-1.4c0.4-0.4,0.9-1,1.4-1.6
		c0.6-0.6,1.1-1.4,1.8-2.2c0.7-0.8,1.3-1.7,2.1-2.6c0.8-0.9,1.5-1.9,2.3-2.9c1.6-2,3.3-4.2,5-6.3c0.9-1.1,1.7-2.2,2.6-3.2
		c0.8-1.1,1.7-2.1,2.5-3.1c0.8-1,1.6-2,2.3-2.9c0.7-0.9,1.5-1.8,2.1-2.6C163.1,74.1,165,72,165,72"/>
	<path class="st18" d="M218,91.6l7.5-3.1c0,0,0.5-4.7,2.9-4.7c2.4,0,8.5,0.9,8.5,0.9c2.6,0.8,0.5,19-3.3,19c-3.8,0-5.5,1.1-6.7-12.7
		l-6.9,4.9C220,95.9,217.4,94.9,218,91.6"/>
	<path class="st18" d="M89.3,91.6l-7.5-3.1c0,0-0.5-4.7-2.9-4.7c-2.4,0-8.5,0.9-8.5,0.9c-2.6,0.8-0.5,19,3.3,19
		c3.8,0,5.5,1.1,6.7-12.7l6.9,4.9C87.3,95.9,89.9,94.9,89.3,91.6"/>
	<path class="st27" d="M194.7,165.7c0,0.3,0.2,0.5,0.5,0.5c4.6,0.3,9.2,0.8,13.8,1.2c0.3,0,0.5-0.2,0.5-0.5c0.3-3.2,0.5-6.3,0.8-9.5
		c0-0.3-0.2-0.5-0.5-0.6c-4.6-1-9.2-1.5-13.8-1.2c-0.3,0-0.5,0.3-0.5,0.5C195.2,159.4,194.9,162.6,194.7,165.7"/>
	<path class="st16" d="M195.1,166.3c4.6,0.3,9.2,0.8,13.8,1.2c0.3,0,0.5-0.2,0.5-0.5c0.3-3.2,0.5-6.3,0.8-9.5L195.1,166.3z"/>
	<path class="st27" d="M112.2,165.7c0,0.3-0.2,0.5-0.5,0.5c-4.6,0.3-9.2,0.8-13.8,1.2c-0.3,0-0.5-0.2-0.5-0.5
		c-0.3-3.2-0.5-6.3-0.8-9.5c0-0.3,0.2-0.5,0.5-0.6c4.6-1,9.2-1.5,13.8-1.2c0.3,0,0.5,0.3,0.5,0.5
		C111.7,159.4,111.9,162.6,112.2,165.7"/>
	<path class="st18" d="M115.4,156.4c0,0,1.2-0.1,3.3-0.3c1-0.1,2.3-0.2,3.7-0.3c1.4-0.1,3.1-0.2,4.9-0.3c1.8-0.1,3.7-0.2,5.8-0.3
		c2-0.1,4.2-0.2,6.4-0.3c1.1,0,2.2-0.1,3.4-0.1c1.1,0,2.3-0.1,3.5-0.1c2.3-0.1,4.7-0.1,7.1-0.2c2.4,0,4.8,0.1,7.1,0.1
		c1.2,0,2.3,0.1,3.5,0.1c0.6,0,1.1,0,1.7,0c0.6,0,1.1,0.1,1.7,0.1c2.2,0.1,4.4,0.2,6.4,0.3c2,0.1,4,0.2,5.8,0.3
		c1.8,0.1,3.4,0.2,4.9,0.3c1.4,0.1,2.7,0.2,3.7,0.3c2.1,0.2,3.3,0.3,3.3,0.3s-4.8-0.2-11.9-0.5c-1.8-0.1-3.7-0.1-5.8-0.2
		c-2-0.1-4.2-0.2-6.4-0.2c-0.6,0-1.1,0-1.7-0.1c-0.6,0-1.1,0-1.7,0c-1.1,0-2.3,0-3.5-0.1c-2.3,0-4.7-0.1-7.1-0.1
		c-2.4,0-4.8,0.1-7.1,0.1c-1.2,0-2.3,0-3.5,0.1c-1.1,0-2.3,0.1-3.4,0.1c-4.5,0.2-8.6,0.3-12.2,0.4
		C120.2,156.2,115.4,156.4,115.4,156.4"/>
	<path class="st18" d="M115.4,159.9c0,0,1.2-0.1,3.3-0.3c1-0.1,2.3-0.2,3.7-0.3c1.4-0.1,3.1-0.2,4.9-0.3c1.8-0.1,3.7-0.2,5.8-0.3
		c2-0.1,4.2-0.2,6.4-0.3c1.1,0,2.2-0.1,3.4-0.1c1.1,0,2.3-0.1,3.5-0.1c2.3-0.1,4.7-0.1,7.1-0.2c2.4,0,4.8,0.1,7.1,0.1
		c1.2,0,2.3,0.1,3.5,0.1c0.6,0,1.1,0,1.7,0c0.6,0,1.1,0.1,1.7,0.1c2.2,0.1,4.4,0.2,6.4,0.3c2,0.1,4,0.2,5.8,0.3
		c1.8,0.1,3.4,0.2,4.9,0.3c1.4,0.1,2.7,0.2,3.7,0.3c2.1,0.2,3.3,0.3,3.3,0.3s-4.8-0.2-11.9-0.5c-1.8-0.1-3.7-0.1-5.8-0.2
		c-2-0.1-4.2-0.2-6.4-0.2c-0.6,0-1.1,0-1.7-0.1c-0.6,0-1.1,0-1.7,0c-1.1,0-2.3,0-3.5-0.1c-2.3,0-4.7-0.1-7.1-0.1
		c-2.4,0-4.8,0.1-7.1,0.1c-1.2,0-2.3,0-3.5,0.1c-1.1,0-2.3,0.1-3.4,0.1c-4.5,0.2-8.6,0.3-12.2,0.4
		C120.2,159.7,115.4,159.9,115.4,159.9"/>
	<path class="st18" d="M115.4,163.4c0,0,1.2-0.1,3.3-0.3c1-0.1,2.3-0.2,3.7-0.3c1.4-0.1,3.1-0.2,4.9-0.3c1.8-0.1,3.7-0.2,5.8-0.3
		c2-0.1,4.2-0.2,6.4-0.3c1.1,0,2.2-0.1,3.4-0.1c1.1,0,2.3-0.1,3.5-0.1c2.3-0.1,4.7-0.1,7.1-0.2c2.4,0,4.8,0.1,7.1,0.1
		c1.2,0,2.3,0.1,3.5,0.1c0.6,0,1.1,0,1.7,0c0.6,0,1.1,0.1,1.7,0.1c2.2,0.1,4.4,0.2,6.4,0.3c2,0.1,4,0.2,5.8,0.3
		c1.8,0.1,3.4,0.2,4.9,0.3c1.4,0.1,2.7,0.2,3.7,0.3c2.1,0.2,3.3,0.3,3.3,0.3s-4.8-0.2-11.9-0.5c-1.8-0.1-3.7-0.1-5.8-0.2
		c-2-0.1-4.2-0.2-6.4-0.2c-0.6,0-1.1,0-1.7-0.1c-0.6,0-1.1,0-1.7,0c-1.1,0-2.3,0-3.5-0.1c-2.3,0-4.7-0.1-7.1-0.1
		c-2.4,0-4.8,0.1-7.1,0.1c-1.2,0-2.3,0-3.5,0.1c-1.1,0-2.3,0.1-3.4,0.1c-4.5,0.2-8.6,0.3-12.2,0.4
		C120.2,163.2,115.4,163.4,115.4,163.4"/>
	<path class="st18" d="M115.4,165.2c0,0,1.2-0.1,3.3-0.3c1-0.1,2.3-0.2,3.7-0.3c1.4-0.1,3.1-0.2,4.9-0.3c1.8-0.1,3.7-0.2,5.8-0.3
		c2-0.1,4.2-0.2,6.4-0.3c1.1,0,2.2-0.1,3.4-0.1c1.1,0,2.3-0.1,3.5-0.1c2.3-0.1,4.7-0.1,7.1-0.2c2.4,0,4.8,0.1,7.1,0.1
		c1.2,0,2.3,0.1,3.5,0.1c0.6,0,1.1,0,1.7,0c0.6,0,1.1,0.1,1.7,0.1c2.2,0.1,4.4,0.2,6.4,0.3c2,0.1,4,0.2,5.8,0.3
		c1.8,0.1,3.4,0.2,4.9,0.3c1.4,0.1,2.7,0.2,3.7,0.3c2.1,0.2,3.3,0.3,3.3,0.3s-4.8-0.2-11.9-0.5c-1.8-0.1-3.7-0.1-5.8-0.2
		c-2-0.1-4.2-0.2-6.4-0.2c-0.6,0-1.1,0-1.7-0.1c-0.6,0-1.1,0-1.7,0c-1.1,0-2.3,0-3.5-0.1c-2.3,0-4.7-0.1-7.1-0.1
		c-2.4,0-4.8,0.1-7.1,0.1c-1.2,0-2.3,0-3.5,0.1c-1.1,0-2.3,0.1-3.4,0.1c-4.5,0.2-8.6,0.3-12.2,0.4
		C120.2,165,115.4,165.2,115.4,165.2"/>
	<path class="st18" d="M115.4,161.7c0,0,1.2-0.1,3.3-0.3c1-0.1,2.3-0.2,3.7-0.3c1.4-0.1,3.1-0.2,4.9-0.3c1.8-0.1,3.7-0.2,5.8-0.3
		c2-0.1,4.2-0.2,6.4-0.3c1.1,0,2.2-0.1,3.4-0.1c1.1,0,2.3-0.1,3.5-0.1c2.3-0.1,4.7-0.1,7.1-0.2c2.4,0,4.8,0.1,7.1,0.1
		c1.2,0,2.3,0.1,3.5,0.1c0.6,0,1.1,0,1.7,0c0.6,0,1.1,0.1,1.7,0.1c2.2,0.1,4.4,0.2,6.4,0.3c2,0.1,4,0.2,5.8,0.3
		c1.8,0.1,3.4,0.2,4.9,0.3c1.4,0.1,2.7,0.2,3.7,0.3c2.1,0.2,3.3,0.3,3.3,0.3s-4.8-0.2-11.9-0.5c-1.8-0.1-3.7-0.1-5.8-0.2
		c-2-0.1-4.2-0.2-6.4-0.2c-0.6,0-1.1,0-1.7-0.1c-0.6,0-1.1,0-1.7,0c-1.1,0-2.3,0-3.5-0.1c-2.3,0-4.7-0.1-7.1-0.1
		c-2.4,0-4.8,0.1-7.1,0.1c-1.2,0-2.3,0-3.5,0.1c-1.1,0-2.3,0.1-3.4,0.1c-4.5,0.2-8.6,0.3-12.2,0.4
		C120.2,161.5,115.4,161.7,115.4,161.7"/>
	<path class="st18" d="M115.4,158.2c0,0,1.2-0.1,3.3-0.3c1-0.1,2.3-0.2,3.7-0.3c1.4-0.1,3.1-0.2,4.9-0.3c1.8-0.1,3.7-0.2,5.8-0.3
		c2-0.1,4.2-0.2,6.4-0.3c1.1,0,2.2-0.1,3.4-0.1c1.1,0,2.3-0.1,3.5-0.1c2.3-0.1,4.7-0.1,7.1-0.2c2.4,0,4.8,0.1,7.1,0.1
		c1.2,0,2.3,0.1,3.5,0.1c0.6,0,1.1,0,1.7,0c0.6,0,1.1,0.1,1.7,0.1c2.2,0.1,4.4,0.2,6.4,0.3c2,0.1,4,0.2,5.8,0.3
		c1.8,0.1,3.4,0.2,4.9,0.3c1.4,0.1,2.7,0.2,3.7,0.3c2.1,0.2,3.3,0.3,3.3,0.3s-4.8-0.2-11.9-0.5c-1.8-0.1-3.7-0.1-5.8-0.2
		c-2-0.1-4.2-0.2-6.4-0.2c-0.6,0-1.1,0-1.7-0.1c-0.6,0-1.1,0-1.7,0c-1.1,0-2.3,0-3.5-0.1c-2.3,0-4.7-0.1-7.1-0.1
		c-2.4,0-4.8,0.1-7.1,0.1c-1.2,0-2.3,0-3.5,0.1c-1.1,0-2.3,0.1-3.4,0.1c-4.5,0.2-8.6,0.3-12.2,0.4
		C120.2,158,115.4,158.2,115.4,158.2"/>
	<path class="st7" d="M153.5,35.4c16.2,0,61.4,0.1,61.4,11.3c0,11.2,0.3,94.3-6,94.3c-6.3,0-43.2-2.7-55.4-2.7h0.5
		c-12.1,0-49,2.7-55.4,2.7c-6.3,0-6-83.1-6-94.3c0-11.2,45.1-11.3,61.4-11.3H153.5z M88.2,147.7c0,0,35.7-3.3,65.7-3.3
		c30.5,0,65.7,3.3,65.7,3.3L221,35.1c0,0-34.8-4.5-67.5-4.5c-32.7,0-66.6,4.5-66.6,4.5L88.2,147.7z"/>
	<path class="st16" d="M111.4,156.2c0.3,3.2,0.5,6.4,0.8,9.6c0,0.3-0.2,0.5-0.5,0.5c-4.6,0.3-9.2,0.8-13.8,1.2L111.4,156.2z"/>
	<path class="st1" d="M89.6,184c1.4,0.7,3.2,0.9,5.1,0.8c3.6-0.2,59-1.7,59-1.7s55.4,1.6,59,1.7c3.6,0.2,7-0.5,7.8-4.8
		c0.5-3,0.4-3.2-1.7-3L89.6,184z"/>
	<path class="st5" d="M164.8,17.4c0,5.3-4.3,9.6-9.7,9.6c-5.4,0-9.7-4.3-9.7-9.6c0-5.3,4.3-9.6,9.7-9.6
		C160.5,7.8,164.8,12.1,164.8,17.4"/>
	<path class="st28" d="M162.7,13.5c0.1-0.1,0.2-0.1,0.3-0.1c0.1,0,0.2,0.1,0.2,0.2c0,1-5,6.8-6.5,8.2c-1.2,1.1-2.1,1.9-2.6,1.9
		c-0.2,0-0.3-0.1-0.3-0.3c0-0.7,1.1-2.7,1.1-2.7v-0.1l-2.1,1.8c-0.5,0.4-1.1,0.6-1.6,0.6c-1,0-1.8-0.8-1.8-2.5v-9.4
		c0-0.4,0.3-0.6,0.6-0.6c0.2,0,0.4,0.1,0.7,0.2c1.5,0.9,3.4,2.7,4.9,5.1c0.2,0.4,0.3,0.8,0.3,1.1c0,1.2-1,2.5-2,3.6v0.1L162.7,13.5z
		"/>
	<path class="st29" d="M87.7,104.2c0,0-4.1,0.4-4.1,3.4c0,3,1.2,37.9,1.2,37.9s1.9,2.1,3.4,2.1"/>
</g>
</svg>
