<?xml version="1.0" encoding="utf-8"?>
<!-- Generator: Adobe Illustrator 23.0.3, SVG Export Plug-In . SVG Version: 6.00 Build 0)  -->
<svg version="1.1" id="Layer_1" xmlns="http://www.w3.org/2000/svg" xmlns:xlink="http://www.w3.org/1999/xlink" x="0px" y="0px"
	 viewBox="0 0 59.8 66" style="enable-background:new 0 0 59.8 66;" xml:space="preserve">
<style type="text/css">
	.st0{fill:#CCCCCC;}
	.st1{clip-path:url(#SVGID_2_);fill:#E6E7E8;}
	.st2{clip-path:url(#SVGID_4_);fill:#D4EFFC;}
	.st3{clip-path:url(#SVGID_6_);fill:#E7B577;}
	.st4{clip-path:url(#SVGID_8_);fill:#FFFFFF;}
	.st5{clip-path:url(#SVGID_10_);fill:#E7B577;}
	.st6{clip-path:url(#SVGID_12_);fill:#E29B6F;}
	.st7{clip-path:url(#SVGID_14_);fill:#FFFFFF;}
	.st8{clip-path:url(#SVGID_16_);fill:#E7B577;}
	.st9{clip-path:url(#SVGID_18_);fill:#00559C;}
	.st10{clip-path:url(#SVGID_20_);fill:#007DC5;}
	.st11{clip-path:url(#SVGID_22_);fill:#043D5D;}
	.st12{clip-path:url(#SVGID_24_);fill:#CC6B40;}
	.st13{clip-path:url(#SVGID_26_);fill:#D89F62;}
	.st14{clip-path:url(#SVGID_28_);fill:#D88D43;}
	.st15{clip-path:url(#SVGID_30_);fill:#5A2F1C;}
	.st16{clip-path:url(#SVGID_32_);fill:#FFFFFF;}
	.st17{clip-path:url(#SVGID_34_);fill:#E7B577;}
	.st18{clip-path:url(#SVGID_36_);fill:#D89F62;}
	.st19{clip-path:url(#SVGID_38_);fill:#D89F62;}
	.st20{clip-path:url(#SVGID_40_);fill:#FFFFFF;}
	.st21{clip-path:url(#SVGID_42_);fill:#FFFFFF;}
	.st22{clip-path:url(#SVGID_44_);fill:#FFFFFF;}
	.st23{clip-path:url(#SVGID_46_);fill:#FFFFFF;}
	.st24{clip-path:url(#SVGID_48_);fill:#FFFFFF;}
	.st25{clip-path:url(#SVGID_50_);fill:#FFFFFF;}
	.st26{clip-path:url(#SVGID_52_);fill:#FFFFFF;}
	.st27{clip-path:url(#SVGID_54_);fill:#00559C;}
	.st28{clip-path:url(#SVGID_56_);fill:#043D5D;}
	.st29{clip-path:url(#SVGID_58_);fill:#B9C7D4;}
	.st30{clip-path:url(#SVGID_60_);fill:#007DC5;}
	.st31{clip-path:url(#SVGID_62_);fill:#007DC5;}
	.st32{clip-path:url(#SVGID_64_);fill:#007DC5;}
	.st33{clip-path:url(#SVGID_66_);fill:#007DC5;}
	.st34{clip-path:url(#SVGID_68_);fill:#007DC5;}
	.st35{clip-path:url(#SVGID_70_);fill:#007DC5;}
	.st36{clip-path:url(#SVGID_72_);fill:#007DC5;}
	.st37{clip-path:url(#SVGID_74_);fill:#007DC5;}
	.st38{clip-path:url(#SVGID_76_);fill:#007DC5;}
	.st39{clip-path:url(#SVGID_78_);fill:#007DC5;}
	.st40{clip-path:url(#SVGID_80_);fill:#007DC5;}
	.st41{clip-path:url(#SVGID_82_);fill:#007DC5;}
	.st42{clip-path:url(#SVGID_84_);fill:#007DC5;}
	.st43{clip-path:url(#SVGID_86_);fill:#007DC5;}
	.st44{clip-path:url(#SVGID_88_);fill:#007DC5;}
	.st45{clip-path:url(#SVGID_90_);fill:#007DC5;}
	.st46{clip-path:url(#SVGID_92_);fill:#007DC5;}
	.st47{clip-path:url(#SVGID_94_);fill:#007DC5;}
	.st48{clip-path:url(#SVGID_96_);fill:#007DC5;}
	.st49{clip-path:url(#SVGID_98_);fill:#007DC5;}
	.st50{clip-path:url(#SVGID_100_);fill:#007DC5;}
	.st51{clip-path:url(#SVGID_102_);fill:#007DC5;}
	.st52{clip-path:url(#SVGID_104_);fill:#007DC5;}
	.st53{clip-path:url(#SVGID_106_);fill:#007DC5;}
	.st54{clip-path:url(#SVGID_108_);fill:#007DC5;}
	.st55{clip-path:url(#SVGID_110_);fill:#007DC5;}
	.st56{clip-path:url(#SVGID_112_);fill:#007DC5;}
	.st57{clip-path:url(#SVGID_114_);fill:#007DC5;}
	.st58{clip-path:url(#SVGID_116_);fill:#007DC5;}
	.st59{clip-path:url(#SVGID_118_);fill:#007DC5;}
	.st60{clip-path:url(#SVGID_120_);fill:#007DC5;}
	.st61{clip-path:url(#SVGID_122_);fill:#007DC5;}
	.st62{clip-path:url(#SVGID_124_);fill:#007DC5;}
	.st63{clip-path:url(#SVGID_126_);fill:#007DC5;}
	.st64{clip-path:url(#SVGID_128_);fill:#007DC5;}
	.st65{clip-path:url(#SVGID_130_);fill:#007DC5;}
	.st66{clip-path:url(#SVGID_132_);fill:#007DC5;}
	.st67{clip-path:url(#SVGID_134_);fill:#007DC5;}
	.st68{clip-path:url(#SVGID_136_);fill:#007DC5;}
	.st69{clip-path:url(#SVGID_138_);fill:#007DC5;}
	.st70{clip-path:url(#SVGID_140_);fill:#007DC5;}
	.st71{clip-path:url(#SVGID_142_);fill:#007DC5;}
	.st72{clip-path:url(#SVGID_144_);fill:#007DC5;}
	.st73{clip-path:url(#SVGID_146_);fill:#007DC5;}
	.st74{clip-path:url(#SVGID_148_);fill:#007DC5;}
	.st75{clip-path:url(#SVGID_150_);fill:#B9E5FA;}
	.st76{clip-path:url(#SVGID_152_);fill:#B9E5FA;}
	.st77{clip-path:url(#SVGID_154_);fill:#B9E5FA;}
	.st78{clip-path:url(#SVGID_156_);fill:#B9E5FA;}
	.st79{clip-path:url(#SVGID_158_);fill:#B9E5FA;}
	.st80{clip-path:url(#SVGID_160_);fill:#B9E5FA;}
	.st81{clip-path:url(#SVGID_162_);fill:#B9E5FA;}
	.st82{clip-path:url(#SVGID_164_);fill:#B9E5FA;}
	.st83{clip-path:url(#SVGID_166_);fill:#B9E5FA;}
	.st84{clip-path:url(#SVGID_168_);fill:#E6E7E8;}
	.st85{clip-path:url(#SVGID_170_);fill:#E6E7E8;}
	.st86{clip-path:url(#SVGID_172_);fill:#00559C;}
	.st87{clip-path:url(#SVGID_174_);fill:#D4EFFC;}
	.st88{opacity:0.5;clip-path:url(#SVGID_176_);}
	.st89{clip-path:url(#SVGID_178_);}
	.st90{clip-path:url(#SVGID_180_);fill:#F37167;}
	.st91{clip-path:url(#SVGID_182_);fill:none;stroke:#00559C;stroke-width:0.8772;stroke-linecap:round;stroke-miterlimit:10;}
	.st92{clip-path:url(#SVGID_184_);fill:none;stroke:#00559C;stroke-width:0.8772;stroke-linecap:round;stroke-miterlimit:10;}
	.st93{clip-path:url(#SVGID_186_);fill:none;stroke:#00559C;stroke-width:0.8772;stroke-linecap:round;stroke-miterlimit:10;}
	.st94{clip-path:url(#SVGID_188_);fill:#007DC5;}
	.st95{clip-path:url(#SVGID_190_);fill:none;stroke:#00559C;stroke-width:0.8772;stroke-miterlimit:10;}
	.st96{clip-path:url(#SVGID_192_);fill:#FFFFFF;}
	.st97{clip-path:url(#SVGID_194_);fill:#007DC5;}
	.st98{clip-path:url(#SVGID_196_);fill:#B9C7D4;}
	.st99{clip-path:url(#SVGID_198_);fill:#4E555B;}
	.st100{clip-path:url(#SVGID_200_);fill:#859097;}
	.st101{clip-path:url(#SVGID_202_);fill:#4E555B;}
	.st102{clip-path:url(#SVGID_204_);fill:#859097;}
	.st103{clip-path:url(#SVGID_206_);fill:#4E555B;}
	.st104{clip-path:url(#SVGID_208_);fill:#859097;}
	.st105{clip-path:url(#SVGID_210_);fill:#B9E5FA;}
	.st106{clip-path:url(#SVGID_212_);fill:#B9E5FA;}
	.st107{clip-path:url(#SVGID_214_);fill:#B9E5FA;}
	.st108{clip-path:url(#SVGID_216_);fill:#FFFFFF;}
	.st109{clip-path:url(#SVGID_218_);fill:#FFFFFF;}
	.st110{clip-path:url(#SVGID_220_);fill:#FFFFFF;}
	.st111{clip-path:url(#SVGID_222_);fill:#FFFFFF;}
	.st112{clip-path:url(#SVGID_224_);fill:#FFFFFF;}
	.st113{clip-path:url(#SVGID_226_);fill:#FFFFFF;}
	.st114{clip-path:url(#SVGID_228_);fill:#FFFFFF;}
	.st115{clip-path:url(#SVGID_230_);fill:#FFFFFF;}
	.st116{clip-path:url(#SVGID_232_);fill:#FFFFFF;}
	.st117{clip-path:url(#SVGID_234_);fill:#FFFFFF;}
	.st118{clip-path:url(#SVGID_236_);fill:#FFFFFF;}
	.st119{clip-path:url(#SVGID_238_);fill:#FFFFFF;}
	.st120{clip-path:url(#SVGID_240_);fill:#FFFFFF;}
	.st121{clip-path:url(#SVGID_242_);fill:#FFFFFF;}
	.st122{clip-path:url(#SVGID_244_);fill:#FFFFFF;}
	.st123{clip-path:url(#SVGID_246_);fill:#FFFFFF;}
	.st124{clip-path:url(#SVGID_248_);fill:#FFFFFF;}
	.st125{clip-path:url(#SVGID_250_);fill:#FFFFFF;}
	.st126{clip-path:url(#SVGID_252_);fill:#FFFFFF;}
	.st127{clip-path:url(#SVGID_254_);fill:#FFFFFF;}
	.st128{fill:#3D3D3D;}
</style>
<path class="st0" d="M48.2,61.3H12c-6.6,0-12-5.4-12-12V15.6c0-6.6,5.4-12,12-12h36.2c6.6,0,12,5.4,12,12v33.7
	C60.2,55.9,54.8,61.3,48.2,61.3z"/>
<g>
	<g>
		<defs>
			<rect id="SVGID_1_" x="-10.7" y="5.6" width="78.3" height="50.3"/>
		</defs>
		<clipPath id="SVGID_2_">
			<use xlink:href="#SVGID_1_"  style="overflow:visible;"/>
		</clipPath>
		<path class="st1" d="M11.7,25.7c0,0-4.6-0.3-4.5-1.8s1.5-4.1-0.7-4.1c-2.3,0-8.9,3.2-5.5,4.7c3.4,1.5,5.1,1.9,4.9,2.9
			s-2.5,4.2,0.3,3C9,29.2,17.5,29,11.7,25.7"/>
	</g>
</g>
<g>
	<g>
		<defs>
			<path id="SVGID_3_" d="M14.5,15.1c0.4,2.4,3.4,7.7,2.1,9.2s-4.3,3.3-4.3,9.3c0,2.9,2.7,1.4,3.3,3.9c0.5,2.5,4.5,4.6,5.3,7.7
				c0.7,3.1,1,6.2,3.4,7.6c1.4,0.8,2.3,0,3.2-0.7c0.7-0.6,1.4-1.2,2.2-1c1.7,0.5,13.6,1,11.5-4.9c-2.1-6,5.2-10.3,7.8-12.9
				c2.6-2.5-2.4-10.3-4.7-12.1c-2.3-1.7-0.2-2,0-3.7c0.3-3.8-16-6.8-17.4-6.8c-1.5,0-0.1,1.9-1.6,1.9s-3.9-2.7-3.9-2.7
				C19.4,10.1,14,12.7,14.5,15.1"/>
		</defs>
		<clipPath id="SVGID_4_">
			<use xlink:href="#SVGID_3_"  style="overflow:visible;"/>
		</clipPath>
		<rect x="-3.9" y="-6.9" class="st2" width="60" height="66.7"/>
	</g>
	<g>
		<defs>
			<path id="SVGID_5_" d="M14.5,15.1c0.4,2.4,3.4,7.7,2.1,9.2s-4.3,3.3-4.3,9.3c0,2.9,2.7,1.4,3.3,3.9c0.5,2.5,4.5,4.6,5.3,7.7
				c0.7,3.1,1,6.2,3.4,7.6c1.4,0.8,2.3,0,3.2-0.7c0.7-0.6,1.4-1.2,2.2-1c1.7,0.5,13.6,1,11.5-4.9c-2.1-6,5.2-10.3,7.8-12.9
				c2.6-2.5-2.4-10.3-4.7-12.1c-2.3-1.7-0.2-2,0-3.7c0.3-3.8-16-6.8-17.4-6.8c-1.5,0-0.1,1.9-1.6,1.9s-3.9-2.7-3.9-2.7
				C19.4,10.1,14,12.7,14.5,15.1"/>
		</defs>
		<clipPath id="SVGID_6_">
			<use xlink:href="#SVGID_5_"  style="overflow:visible;"/>
		</clipPath>
		<path class="st3" d="M44.5,41.5c0.4-1-6.2-10.4-6.2-10.4s-1.8,0.4-1.9-0.1c-0.1-0.4,1.4-0.6,1.4-0.6s-1.3-1.9-1.1-2.1
			c0.2-0.2,1.2,1.1,1.2,1.1s-0.3-2.1,0.1-2.1c0.5,0,0.5,2.2,0.5,2.2s0.4-2.1,0.9-2s-0.3,2-0.3,2s0.9-1.5,1.3-1.4s-1,1.9-1,1.9
			c0.8,1.2,6.5,6.4,7.2,8.7"/>
	</g>
	<g>
		<defs>
			<path id="SVGID_7_" d="M14.5,15.1c0.4,2.4,3.4,7.7,2.1,9.2s-4.3,3.3-4.3,9.3c0,2.9,2.7,1.4,3.3,3.9c0.5,2.5,4.5,4.6,5.3,7.7
				c0.7,3.1,1,6.2,3.4,7.6c1.4,0.8,2.3,0,3.2-0.7c0.7-0.6,1.4-1.2,2.2-1c1.7,0.5,13.6,1,11.5-4.9c-2.1-6,5.2-10.3,7.8-12.9
				c2.6-2.5-2.4-10.3-4.7-12.1c-2.3-1.7-0.2-2,0-3.7c0.3-3.8-16-6.8-17.4-6.8c-1.5,0-0.1,1.9-1.6,1.9s-3.9-2.7-3.9-2.7
				C19.4,10.1,14,12.7,14.5,15.1"/>
		</defs>
		<clipPath id="SVGID_8_">
			<use xlink:href="#SVGID_7_"  style="overflow:visible;"/>
		</clipPath>
		<path class="st4" d="M38.6,27.1c0,0,1.7,0,1.3,1c-0.4,0.9-0.8,1.6-0.8,1.6s0.4,0.1,0.2,1c-0.2,0.8-0.7,1.1-0.7,1.1
			s0.7,0.5-0.6,1.2C38,32.9,38.6,28.4,38.6,27.1"/>
	</g>
	<g>
		<defs>
			<path id="SVGID_9_" d="M14.5,15.1c0.4,2.4,3.4,7.7,2.1,9.2s-4.3,3.3-4.3,9.3c0,2.9,2.7,1.4,3.3,3.9c0.5,2.5,4.5,4.6,5.3,7.7
				c0.7,3.1,1,6.2,3.4,7.6c1.4,0.8,2.3,0,3.2-0.7c0.7-0.6,1.4-1.2,2.2-1c1.7,0.5,13.6,1,11.5-4.9c-2.1-6,5.2-10.3,7.8-12.9
				c2.6-2.5-2.4-10.3-4.7-12.1c-2.3-1.7-0.2-2,0-3.7c0.3-3.8-16-6.8-17.4-6.8c-1.5,0-0.1,1.9-1.6,1.9s-3.9-2.7-3.9-2.7
				C19.4,10.1,14,12.7,14.5,15.1"/>
		</defs>
		<clipPath id="SVGID_10_">
			<use xlink:href="#SVGID_9_"  style="overflow:visible;"/>
		</clipPath>
		<path class="st5" d="M20,32.8c-0.1,0.4,1.6,1.5,1.6,1.5s-3.1,5.9-4.3,8.7c-1.3,3.3-1.3,4.8-1.6,7.2c0.3-0.1,0.8-0.3,1.4-0.4
			c0.6-0.1,1.1,0.1,1.5,0.2c0.3-1.7,0.3-3.7,1-6.6c0.8-3.5,3.7-9,3.9-10c0.2-1,0.3-1.8-0.1-1.9S23.1,33,23.1,33s-0.4-1.7-0.9-1.8
			c-0.4-0.1,0.3,1.8,0.3,1.8s-1.7-1.9-1.8-1.5c-0.1,0.4,1.1,1.8,1.1,1.8S20.2,32.3,20,32.8"/>
	</g>
	<g>
		<defs>
			<path id="SVGID_11_" d="M14.5,15.1c0.4,2.4,3.4,7.7,2.1,9.2s-4.3,3.3-4.3,9.3c0,2.9,2.7,1.4,3.3,3.9c0.5,2.5,4.5,4.6,5.3,7.7
				c0.7,3.1,1,6.2,3.4,7.6c1.4,0.8,2.3,0,3.2-0.7c0.7-0.6,1.4-1.2,2.2-1c1.7,0.5,13.6,1,11.5-4.9c-2.1-6,5.2-10.3,7.8-12.9
				c2.6-2.5-2.4-10.3-4.7-12.1c-2.3-1.7-0.2-2,0-3.7c0.3-3.8-16-6.8-17.4-6.8c-1.5,0-0.1,1.9-1.6,1.9s-3.9-2.7-3.9-2.7
				C19.4,10.1,14,12.7,14.5,15.1"/>
		</defs>
		<clipPath id="SVGID_12_">
			<use xlink:href="#SVGID_11_"  style="overflow:visible;"/>
		</clipPath>
		<path class="st6" d="M17.4,43.9C17.4,43.9,17.4,43.9,17.4,43.9c0,0.2,0,0.3,0.1,0.4h0.1l0,0l0,0c0,0,0,0,0.1,0l0,0l0,0l0.1-0.1
			c0.1-0.1,0.1-0.2,0.1-0.2c0-0.1,0.1-0.2,0.1-0.3s0-0.2,0-0.3s-0.1-0.1-0.2-0.1s-0.2,0-0.2,0c-0.1,0-0.1,0.1-0.1,0.1
			c0,0.1,0,0.1,0,0.2c0,0.1,0.1,0.1,0.1,0.1c0.1,0.1,0.1,0.1,0.1,0.1h-0.1l-0.1-0.1c0-0.1-0.1-0.1-0.1-0.2c0-0.1,0-0.2,0.1-0.2
			s0.2,0,0.3,0c0.1,0,0.2,0.1,0.3,0.2c0.1,0.1,0.1,0.2,0.1,0.3c0,0.2-0.1,0.4-0.2,0.6c-0.1,0.1-0.1,0.1-0.3,0.2c0,0,0,0-0.1,0l0,0
			l0,0c0,0-0.1,0-0.1-0.1c-0.1-0.1-0.1-0.1-0.1-0.2c0-0.1,0-0.1,0-0.2C17.3,43.9,17.4,43.9,17.4,43.9"/>
	</g>
	<g>
		<defs>
			<path id="SVGID_13_" d="M14.5,15.1c0.4,2.4,3.4,7.7,2.1,9.2s-4.3,3.3-4.3,9.3c0,2.9,2.7,1.4,3.3,3.9c0.5,2.5,4.5,4.6,5.3,7.7
				c0.7,3.1,1,6.2,3.4,7.6c1.4,0.8,2.3,0,3.2-0.7c0.7-0.6,1.4-1.2,2.2-1c1.7,0.5,13.6,1,11.5-4.9c-2.1-6,5.2-10.3,7.8-12.9
				c2.6-2.5-2.4-10.3-4.7-12.1c-2.3-1.7-0.2-2,0-3.7c0.3-3.8-16-6.8-17.4-6.8c-1.5,0-0.1,1.9-1.6,1.9s-3.9-2.7-3.9-2.7
				C19.4,10.1,14,12.7,14.5,15.1"/>
		</defs>
		<clipPath id="SVGID_14_">
			<use xlink:href="#SVGID_13_"  style="overflow:visible;"/>
		</clipPath>
		<path class="st7" d="M21.9,29.7c0,0-0.7-0.3-0.3,0.9c0.4,1.2,1.1,2.9,1.1,2.9s-1.9-0.6-0.7,0.9c1.1,1.6,2.5,1.9,2.5,1.9
			s-1.6,0-0.8,1.3c0.9,1.3,2.1,1.4,2.1,1.4s-0.9,0.8,0,1.1s2.7-1.1,2.7-1.1L21.9,29.7z"/>
	</g>
	<g>
		<defs>
			<path id="SVGID_15_" d="M14.5,15.1c0.4,2.4,3.4,7.7,2.1,9.2s-4.3,3.3-4.3,9.3c0,2.9,2.7,1.4,3.3,3.9c0.5,2.5,4.5,4.6,5.3,7.7
				c0.7,3.1,1,6.2,3.4,7.6c1.4,0.8,2.3,0,3.2-0.7c0.7-0.6,1.4-1.2,2.2-1c1.7,0.5,13.6,1,11.5-4.9c-2.1-6,5.2-10.3,7.8-12.9
				c2.6-2.5-2.4-10.3-4.7-12.1c-2.3-1.7-0.2-2,0-3.7c0.3-3.8-16-6.8-17.4-6.8c-1.5,0-0.1,1.9-1.6,1.9s-3.9-2.7-3.9-2.7
				C19.4,10.1,14,12.7,14.5,15.1"/>
		</defs>
		<clipPath id="SVGID_16_">
			<use xlink:href="#SVGID_15_"  style="overflow:visible;"/>
		</clipPath>
		<path class="st8" d="M32.8,43.3c0-0.3-0.1-1.4,0-1c-0.2,0-0.5,0.1-1.1,0.1c-0.7,0-1.1-0.1-1.4-0.2c-0.1,0.8-0.4,1.5-0.8,1.5
			c0,0,0.5,3.2,2,3.2c1,0,1.9-3,1.9-3S32.8,43.7,32.8,43.3 M37.9,31.8c-0.2-1.8-0.7-5.3-1.3-5.6c-0.9,0.4-1.8,1-4.1,1.3
			c-3.5,0.4-5.8-0.1-6.9-0.5c-0.2,0-0.4-0.1-0.4,0c-0.2,0.2,1.1,0.3,1,3s-0.5,3.7-0.5,3.7c-2.2-2.5-2.6-0.1-2.6-0.1l0,0
			c-0.1,0.8,0.3,1.8,2.1,1.9c0,0,2.5,5.6,6.6,5.9c2.4,0.2,6.2-3.4,6.3-7C38,32.9,37.9,32.9,37.9,31.8 M25,33.9
			c-0.1-0.1-0.2-0.3-0.4-0.4c-0.1-0.1-0.2-0.1-0.3-0.1c-0.1,0-0.1,0-0.2,0s-0.1,0-0.2,0c-0.1,0.1-0.2,0.2-0.2,0.3s0,0.1,0,0.2l0,0
			l0,0l0,0l0,0l0,0l0,0c0,0,0,0,0,0.1s0.1,0.2,0.3,0.2c0.1,0,0.3,0.1,0.4,0.1s0.3,0.1,0.4,0.1c0,0,0.1,0,0.1,0.1
			c0,0,0.1,0.1,0.1,0.2l0,0l0,0v0.1l-0.1,0.1C24.8,35,24.6,35,24.5,35s-0.2,0-0.3,0c-0.1,0-0.2-0.1-0.2-0.1s0.1,0,0.2,0s0.2,0,0.2,0
			c0.1,0,0.2,0,0.3-0.1l0,0l0,0l0,0l0,0l0,0c0,0,0,0-0.1,0s-0.3,0-0.4-0.1c-0.1,0-0.3,0-0.5-0.1c-0.1,0-0.2-0.1-0.3-0.1
			c-0.1-0.1-0.2-0.1-0.2-0.2c0-0.1,0-0.1-0.1-0.2V34l0,0l0,0l0,0c0-0.1,0-0.2,0.1-0.3c0.1-0.2,0.2-0.3,0.4-0.4c0.1,0,0.2-0.1,0.3,0
			c0.1,0,0.2,0,0.2,0c0.1,0,0.3,0.1,0.4,0.2c0.1,0.1,0.2,0.2,0.2,0.3C25,33.7,25.1,33.8,25,33.9c0.1,0.1,0.1,0.2,0.1,0.2
			S25.1,34,25,33.9 M34,30.2c0.1-0.1,0.2-0.1,0.4-0.2c0.2-0.1,0.4-0.1,0.6-0.2c0.1,0,0.2,0,0.4,0c0.1,0,0.3,0,0.4,0.1
			c0.1,0,0.3,0.1,0.4,0.1c0.1,0.1,0.2,0.1,0.3,0.2c0.1,0.1,0.2,0.2,0.2,0.3c0.1,0.1,0.1,0.2,0.1,0.3c0,0.1,0.1,0.2,0.1,0.2
			c0,0.1,0,0.1,0,0.2s0,0.2,0,0.2s0-0.1-0.1-0.1c0,0-0.1-0.1-0.1-0.2s-0.1-0.1-0.1-0.2c-0.1-0.1-0.1-0.1-0.2-0.2s-0.1-0.1-0.2-0.2
			l-0.1-0.1c0,0-0.1,0-0.1-0.1c-0.1,0-0.2-0.1-0.3-0.1c-0.4-0.1-0.8-0.1-1.2-0.1C34.3,30.2,34.1,30.3,34,30.2
			c-0.1,0.1-0.1,0.1-0.1,0.1S33.9,30.2,34,30.2 M32.6,35.1L32.6,35.1h0.2h0.1H33l0,0l0,0l0,0l0,0h0.1c0.1,0,0.2,0,0.2-0.1
			c0.1,0,0.1-0.1,0.2-0.1c0.1-0.1,0.1-0.1,0.2-0.2c0,0,0-0.1,0.1-0.1c-0.1-0.1-0.2-0.1-0.2-0.2c-0.1-0.1-0.1-0.1-0.2-0.2
			c-0.1-0.1-0.1-0.1-0.2-0.2c-0.1-0.1-0.1-0.1-0.1-0.2c0-0.1-0.1-0.1-0.1-0.2c-0.1-0.1-0.1-0.3-0.2-0.5s-0.1-0.3-0.1-0.5
			s0-0.3,0-0.5s0-0.3,0.1-0.5c0-0.2,0.1-0.3,0.2-0.4c0,0.2,0,0.3-0.1,0.5c0,0.2,0,0.3,0,0.5c0,0.2,0.1,0.3,0.1,0.4
			c0,0.1,0,0.1,0.1,0.2c0,0.1,0.1,0.1,0.1,0.2c0.1,0.1,0.1,0.3,0.2,0.4c0,0.1,0.1,0.1,0.1,0.2c0,0.1,0.1,0.1,0.1,0.2
			c0.1,0.1,0.2,0.2,0.3,0.3c0.1,0.1,0.2,0.2,0.3,0.3l0.1,0.1l-0.1,0.1c0,0.1-0.1,0.1-0.1,0.1L34,34.8c-0.1,0.1-0.2,0.2-0.3,0.2
			c-0.1,0.1-0.2,0.1-0.3,0.2c-0.1,0-0.2,0.1-0.3,0.1H33l0,0l0,0l0,0l0,0h-0.1h-0.1c-0.1,0-0.1,0-0.2,0s-0.1,0-0.1-0.1
			c-0.2-0.1-0.3-0.3-0.4-0.5C32.3,34.9,32.5,35,32.6,35.1 M27,31.3c-0.1,0.1-0.1,0.1-0.2,0.1c-0.1,0.1-0.1,0.1-0.1,0.1
			s0-0.1,0.1-0.2c0-0.1,0.1-0.1,0.1-0.2s0.1-0.2,0.2-0.3c0.1-0.1,0.1-0.2,0.2-0.3c0.1-0.1,0.2-0.2,0.3-0.3c0.1,0,0.1-0.1,0.2-0.1
			S27.9,30,28,30c0.1-0.1,0.3-0.1,0.4-0.2c0.1,0,0.3-0.1,0.4-0.1s0.3,0,0.4-0.1c0.1,0,0.3,0,0.4,0s0.2,0,0.3,0c0.1,0,0.2,0,0.3,0.1
			c0.1,0,0.2,0,0.2,0.1c0.1,0,0.2,0.1,0.2,0.1s-0.1,0-0.2,0s-0.1,0-0.2,0s-0.2,0-0.3,0c-0.1,0-0.2,0-0.3,0c-0.1,0-0.2,0-0.4,0.1
			c-0.1,0-0.2,0.1-0.4,0.1c-0.1,0-0.2,0.1-0.4,0.1l-0.2,0.1h-0.1H28c-0.1,0-0.1,0.1-0.2,0.1s-0.1,0.1-0.2,0.1
			c-0.1,0.1-0.2,0.1-0.3,0.2c-0.1,0.1-0.2,0.1-0.3,0.2C27.2,31.2,27.1,31.2,27,31.3 M29.4,33.8L29.4,33.8c-0.2,0-0.3,0-0.4,0
			c-0.1,0-0.2,0-0.3,0c-0.1,0-0.2,0-0.3,0c-0.1,0-0.2,0-0.3,0.1c-0.1,0-0.2,0-0.2,0.1c-0.3,0.1-0.5,0.1-0.5,0.1s0.2-0.1,0.4-0.3
			c0.1-0.1,0.3-0.1,0.5-0.2c0.1,0,0.2,0,0.3-0.1l0,0c-0.2-0.2-0.3-0.4-0.3-0.8c-0.1-0.5,0.1-1,0.4-1s0.6,0.4,0.7,0.9
			c0,0.4,0,0.7-0.2,0.9l0,0c0.1,0,0.2,0,0.3,0h0.1h0.1c0.1,0,0.2,0.1,0.2,0.1c0.1,0,0.1,0.1,0.2,0.1s0.1,0.1,0.1,0.1
			c0.1,0.1,0.1,0.1,0.1,0.1s0,0-0.1,0c0,0-0.1,0-0.1-0.1c-0.1,0-0.1,0-0.2,0s-0.1,0-0.2,0h-0.1L29.4,33.8
			C29.5,33.8,29.4,33.8,29.4,33.8 M32.8,39c-2.9,0-3.2-2.8-3.2-2.8s1.1,1,3.3,0.9c1.9,0,2.7-0.9,2.7-0.9S35.3,39,32.8,39 M36.9,33.8
			C36.9,33.8,36.8,33.8,36.9,33.8c-0.2-0.1-0.2-0.1-0.3-0.1s-0.1,0-0.2,0h-0.1h-0.1h-0.1H36c-0.1,0-0.2,0-0.3,0c-0.1,0-0.2,0-0.3,0
			c-0.1,0-0.2,0-0.3,0c-0.1,0-0.2,0-0.3,0.1c-0.1,0-0.2,0-0.2,0.1C34.3,34,34.1,34,34.1,34s0.2-0.1,0.4-0.3c0.1-0.1,0.3-0.1,0.5-0.2
			h0.1c-0.2-0.2-0.3-0.5-0.2-0.9c0.1-0.5,0.3-1,0.7-0.9c0.3,0,0.5,0.5,0.5,1c0,0.3-0.1,0.5-0.3,0.7c0.1,0,0.1,0,0.2,0s0.2,0,0.3,0
			h0.1h0.1c0.1,0,0.2,0.1,0.2,0.1c0.1,0,0.1,0.1,0.2,0.1C36.9,33.7,36.9,33.8,36.9,33.8C37,33.8,37,33.8,36.9,33.8
			C37,33.8,37,33.9,36.9,33.8"/>
	</g>
	<g>
		<defs>
			<path id="SVGID_17_" d="M14.5,15.1c0.4,2.4,3.4,7.7,2.1,9.2s-4.3,3.3-4.3,9.3c0,2.9,2.7,1.4,3.3,3.9c0.5,2.5,4.5,4.6,5.3,7.7
				c0.7,3.1,1,6.2,3.4,7.6c1.4,0.8,2.3,0,3.2-0.7c0.7-0.6,1.4-1.2,2.2-1c1.7,0.5,13.6,1,11.5-4.9c-2.1-6,5.2-10.3,7.8-12.9
				c2.6-2.5-2.4-10.3-4.7-12.1c-2.3-1.7-0.2-2,0-3.7c0.3-3.8-16-6.8-17.4-6.8c-1.5,0-0.1,1.9-1.6,1.9s-3.9-2.7-3.9-2.7
				C19.4,10.1,14,12.7,14.5,15.1"/>
		</defs>
		<clipPath id="SVGID_18_">
			<use xlink:href="#SVGID_17_"  style="overflow:visible;"/>
		</clipPath>
		<path class="st9" d="M25.2,35.5c-0.7,0-1.3-0.3-1.3-0.3c1.8,3.8,4.1,4.4,3.8,4C26.2,37.7,25.2,35.5,25.2,35.5 M38.7,25.6
			c1.7-0.7,3.4-3.8,3.2-5.2c0,0-0.9,1.9-3.8,2.2c0,0,4.9-2.1,2.9-6.5c0,0-0.5,4.1-2.8,4.3c0,0,1.3-2.6,0-5c0,0-0.3,3.7-2.3,3.9
			c0,0,0.7-0.7,0.6-1.7c0,0-0.2,1.3-3.3,1.7c-2,0.2-4.8-0.4-6-0.3s-4.5,0.9-3.9,6.6v0.1c-0.7,0-1.4,0.9-1.4,4c0,2.1,1.1,4,1.1,4
			s0.4-2.4,2.6,0.1c0,0,0.5-1,0.5-3.7c0.1-2.7-1.2-2.8-1-3c0.1-0.1,0.2-0.1,0.4,0c1.2,0.4,3.4,0.9,6.9,0.5c2.3-0.3,3.2-0.9,4.1-1.3
			c0.8,0.3,1.4,5.6,1.4,6.5c0,0,0.7-1.5,0.8-3.7c0-0.5,0-0.9,0-1.4c0.7-0.3,2-1.1,2-2.5C40.8,25.2,40.2,25.9,38.7,25.6 M27,19.8
			c0.7,0,1.8,0.5,3,0.4s1.5-0.3,1.5-0.3c-0.6,0.9-2.6,0.7-4.4,0.8c-1.8,0.1-2.6,2.9-2.6,2.9C24.3,20.7,26.3,19.9,27,19.8 M27.8,26.3
			c-0.7-0.1-1.3-0.3-2.1,0c0,0,0.1-0.6,0.3-1c0,0-0.6,0.1-0.8,0.4c0,0-0.1-0.5,0.2-0.9c0,0-0.5,0-0.7,0.3c0,0,0.8-2,2.3-2.7
			c0,0-0.5,0.6-0.8,1.6c0,0,1.4-1.4,2.9-1.6c0,0-1.5,1-2,2.3c0,0,1.8-1.3,3.3-1.1c0,0-1.6,0.7-2.6,1.9c0,0,2.9,0.2,4.2-0.3
			C31.9,25.2,30.1,26.6,27.8,26.3 M33.4,21.9c0.7-1.7,3.6-1.2,3.6-1.2C36.1,22.6,33.4,21.9,33.4,21.9"/>
	</g>
	<g>
		<defs>
			<path id="SVGID_19_" d="M14.5,15.1c0.4,2.4,3.4,7.7,2.1,9.2s-4.3,3.3-4.3,9.3c0,2.9,2.7,1.4,3.3,3.9c0.5,2.5,4.5,4.6,5.3,7.7
				c0.7,3.1,1,6.2,3.4,7.6c1.4,0.8,2.3,0,3.2-0.7c0.7-0.6,1.4-1.2,2.2-1c1.7,0.5,13.6,1,11.5-4.9c-2.1-6,5.2-10.3,7.8-12.9
				c2.6-2.5-2.4-10.3-4.7-12.1c-2.3-1.7-0.2-2,0-3.7c0.3-3.8-16-6.8-17.4-6.8c-1.5,0-0.1,1.9-1.6,1.9s-3.9-2.7-3.9-2.7
				C19.4,10.1,14,12.7,14.5,15.1"/>
		</defs>
		<clipPath id="SVGID_20_">
			<use xlink:href="#SVGID_19_"  style="overflow:visible;"/>
		</clipPath>
		<path class="st10" d="M27.1,20.7c1.8-0.1,3.8,0.1,4.4-0.8c0,0-0.3,0.2-1.5,0.3c-1.3,0.1-2.4-0.4-3-0.4c-0.7,0-2.7,0.8-2.5,3.8
			C24.4,23.7,25.3,20.8,27.1,20.7 M27.7,25.5c0.9-1.3,2.6-1.9,2.6-1.9c-1.5-0.2-3.3,1.1-3.3,1.1c0.6-1.3,2-2.3,2-2.3
			c-1.5,0.2-2.9,1.6-2.9,1.6c0.3-0.9,0.8-1.6,0.8-1.6c-1.5,0.7-2.3,2.7-2.3,2.7c0.3-0.3,0.7-0.3,0.7-0.3c-0.3,0.4-0.2,0.9-0.2,0.9
			c0.3-0.2,0.8-0.4,0.8-0.4c-0.2,0.4-0.3,1-0.3,1c0.7-0.3,1.3-0.1,2.1,0c2.3,0.3,4.1-1.1,4.1-1.1C30.6,25.7,27.7,25.5,27.7,25.5
			 M33.4,21.9c0,0,2.8,0.7,3.6-1.2C37,20.7,34.1,20.2,33.4,21.9"/>
	</g>
	<g>
		<defs>
			<path id="SVGID_21_" d="M14.5,15.1c0.4,2.4,3.4,7.7,2.1,9.2s-4.3,3.3-4.3,9.3c0,2.9,2.7,1.4,3.3,3.9c0.5,2.5,4.5,4.6,5.3,7.7
				c0.7,3.1,1,6.2,3.4,7.6c1.4,0.8,2.3,0,3.2-0.7c0.7-0.6,1.4-1.2,2.2-1c1.7,0.5,13.6,1,11.5-4.9c-2.1-6,5.2-10.3,7.8-12.9
				c2.6-2.5-2.4-10.3-4.7-12.1c-2.3-1.7-0.2-2,0-3.7c0.3-3.8-16-6.8-17.4-6.8c-1.5,0-0.1,1.9-1.6,1.9s-3.9-2.7-3.9-2.7
				C19.4,10.1,14,12.7,14.5,15.1"/>
		</defs>
		<clipPath id="SVGID_22_">
			<use xlink:href="#SVGID_21_"  style="overflow:visible;"/>
		</clipPath>
		<path class="st11" d="M30.2,29.8c-0.1,0-0.2,0-0.3-0.1c-0.1,0-0.2,0-0.3,0c-0.1,0-0.3,0-0.4,0s-0.3,0-0.4,0.1
			c-0.1,0-0.3,0.1-0.4,0.1C28.3,30,28.1,30,28,30.1c-0.1,0-0.1,0.1-0.2,0.1s-0.1,0.1-0.2,0.1c-0.1,0.1-0.2,0.2-0.3,0.3
			c-0.1,0.1-0.2,0.2-0.2,0.3C27,31,27,31.1,26.9,31.2c0,0.1-0.1,0.1-0.1,0.2s-0.1,0.2-0.1,0.2s0-0.1,0.1-0.1c0,0,0.1-0.1,0.2-0.1
			c0.1-0.1,0.1-0.1,0.2-0.2s0.2-0.1,0.3-0.2c0.1-0.1,0.2-0.1,0.3-0.2c0.1,0,0.1-0.1,0.2-0.1s0.1-0.1,0.2-0.1h0.1h0.1l0.2-0.1
			c0.1,0,0.2-0.1,0.4-0.1c0.1,0,0.2-0.1,0.4-0.1c0.1,0,0.2,0,0.4-0.1c0.1,0,0.2,0,0.3,0c0.1,0,0.2,0,0.3,0c0.1,0,0.2,0,0.2,0
			c0.1,0,0.2,0,0.2,0s-0.1,0-0.2-0.1C30.3,29.9,30.3,29.9,30.2,29.8 M36.9,31.2c0-0.1,0-0.1,0-0.2s0-0.2-0.1-0.2
			c0-0.1-0.1-0.2-0.1-0.3c-0.1-0.1-0.1-0.2-0.2-0.3c-0.1-0.1-0.2-0.2-0.3-0.2c-0.1-0.1-0.2-0.1-0.4-0.1c-0.1,0-0.3-0.1-0.4-0.1
			s-0.3,0-0.4,0c-0.2,0-0.4,0.1-0.6,0.2s-0.3,0.1-0.4,0.2s-0.1,0.1-0.1,0.1s0.1,0,0.2,0s0.3,0,0.4,0c0.3,0,0.8,0,1.2,0.1
			c0.1,0,0.2,0.1,0.3,0.1c0,0,0.1,0,0.1,0.1l0.1,0.1c0.1,0.1,0.2,0.1,0.2,0.2c0.1,0.1,0.1,0.1,0.2,0.2s0.1,0.1,0.1,0.2
			C36.8,31.2,36.8,31.2,36.9,31.2c0,0.1,0,0.2,0,0.2S36.9,31.3,36.9,31.2"/>
	</g>
	<g>
		<defs>
			<path id="SVGID_23_" d="M14.5,15.1c0.4,2.4,3.4,7.7,2.1,9.2s-4.3,3.3-4.3,9.3c0,2.9,2.7,1.4,3.3,3.9c0.5,2.5,4.5,4.6,5.3,7.7
				c0.7,3.1,1,6.2,3.4,7.6c1.4,0.8,2.3,0,3.2-0.7c0.7-0.6,1.4-1.2,2.2-1c1.7,0.5,13.6,1,11.5-4.9c-2.1-6,5.2-10.3,7.8-12.9
				c2.6-2.5-2.4-10.3-4.7-12.1c-2.3-1.7-0.2-2,0-3.7c0.3-3.8-16-6.8-17.4-6.8c-1.5,0-0.1,1.9-1.6,1.9s-3.9-2.7-3.9-2.7
				C19.4,10.1,14,12.7,14.5,15.1"/>
		</defs>
		<clipPath id="SVGID_24_">
			<use xlink:href="#SVGID_23_"  style="overflow:visible;"/>
		</clipPath>
		<path class="st12" d="M32.9,37.1c-2.3,0-3.3-0.9-3.3-0.9s0.2,2.8,3.2,2.8c2.5,0,2.8-2.7,2.8-2.7S34.9,37.1,32.9,37.1"/>
	</g>
	<g>
		<defs>
			<path id="SVGID_25_" d="M14.5,15.1c0.4,2.4,3.4,7.7,2.1,9.2s-4.3,3.3-4.3,9.3c0,2.9,2.7,1.4,3.3,3.9c0.5,2.5,4.5,4.6,5.3,7.7
				c0.7,3.1,1,6.2,3.4,7.6c1.4,0.8,2.3,0,3.2-0.7c0.7-0.6,1.4-1.2,2.2-1c1.7,0.5,13.6,1,11.5-4.9c-2.1-6,5.2-10.3,7.8-12.9
				c2.6-2.5-2.4-10.3-4.7-12.1c-2.3-1.7-0.2-2,0-3.7c0.3-3.8-16-6.8-17.4-6.8c-1.5,0-0.1,1.9-1.6,1.9s-3.9-2.7-3.9-2.7
				C19.4,10.1,14,12.7,14.5,15.1"/>
		</defs>
		<clipPath id="SVGID_26_">
			<use xlink:href="#SVGID_25_"  style="overflow:visible;"/>
		</clipPath>
		<path class="st13" d="M31.7,41.4c-0.4,0-0.9-0.1-1.3-0.3c0,0.3-0.1,0.6-0.1,0.9c0.3,0.1,0.7,0.2,1.4,0.2c0.5,0,0.8,0,1.1-0.1
			c0-0.3,0-0.7,0-0.9C32.4,41.4,32,41.5,31.7,41.4"/>
	</g>
	<g>
		<defs>
			<path id="SVGID_27_" d="M14.5,15.1c0.4,2.4,3.4,7.7,2.1,9.2s-4.3,3.3-4.3,9.3c0,2.9,2.7,1.4,3.3,3.9c0.5,2.5,4.5,4.6,5.3,7.7
				c0.7,3.1,1,6.2,3.4,7.6c1.4,0.8,2.3,0,3.2-0.7c0.7-0.6,1.4-1.2,2.2-1c1.7,0.5,13.6,1,11.5-4.9c-2.1-6,5.2-10.3,7.8-12.9
				c2.6-2.5-2.4-10.3-4.7-12.1c-2.3-1.7-0.2-2,0-3.7c0.3-3.8-16-6.8-17.4-6.8c-1.5,0-0.1,1.9-1.6,1.9s-3.9-2.7-3.9-2.7
				C19.4,10.1,14,12.7,14.5,15.1"/>
		</defs>
		<clipPath id="SVGID_28_">
			<use xlink:href="#SVGID_27_"  style="overflow:visible;"/>
		</clipPath>
		<path class="st14" d="M23.7,33.8L23.7,33.8L23.7,33.8c0-0.1,0-0.1,0.1-0.2c0.1-0.1,0.1-0.2,0.2-0.3c0.1,0,0.1,0,0.2,0s0.1,0,0.2,0
			s0.2,0.1,0.3,0.1c0.2,0.1,0.3,0.3,0.4,0.4c0.1,0.1,0.1,0.2,0.1,0.2s0-0.1-0.1-0.2c0-0.1-0.1-0.1-0.1-0.2c-0.1-0.1-0.1-0.2-0.2-0.3
			s-0.2-0.2-0.4-0.2c-0.1,0-0.2,0-0.2,0c-0.1,0-0.2,0-0.3,0c-0.2,0.1-0.3,0.2-0.4,0.4c0,0.1-0.1,0.2-0.1,0.3l0,0l0,0l0,0v0.1
			c0,0.1,0,0.1,0.1,0.2c0.1,0.1,0.1,0.2,0.2,0.2c0.1,0.1,0.2,0.1,0.3,0.1c0.2,0.1,0.3,0.1,0.5,0.1c0.1,0,0.3,0,0.4,0.1
			c0,0,0,0,0.1,0l0,0l0,0l0,0l0,0l0,0c-0.1,0.1-0.2,0.1-0.3,0.1c-0.1,0-0.2,0-0.2,0c-0.1,0-0.2,0-0.2,0s0.1,0,0.2,0.1
			c0.1,0,0.2,0,0.3,0c0.1,0,0.2,0,0.4-0.1l0.1-0.1v-0.1l0,0l0,0c0-0.1,0-0.1-0.1-0.2l-0.1-0.1c-0.2-0.1-0.3-0.1-0.4-0.1
			S24.4,34,24.3,34s-0.2-0.1-0.3-0.2C23.7,34,23.7,33.9,23.7,33.8C23.7,33.9,23.7,33.9,23.7,33.8L23.7,33.8L23.7,33.8z M30.2,33.8
			c-0.1,0-0.1-0.1-0.2-0.1s-0.1-0.1-0.2-0.1h-0.1h-0.1c-0.1,0-0.2,0-0.3,0c-0.1,0-0.2,0-0.3,0c-0.1,0-0.2,0-0.3,0
			c-0.1,0-0.2,0-0.3,0.1c-0.2,0.1-0.3,0.1-0.5,0.2c-0.3,0.1-0.4,0.3-0.4,0.3s0.2-0.1,0.5-0.1c0.1,0,0.1,0,0.2-0.1
			c0.1,0,0.2,0,0.3-0.1c0.1,0,0.2,0,0.3,0c0.1,0,0.2,0,0.3,0c0.1,0,0.2,0,0.3,0h0.1h0.1h0.1h0.1c0.1,0,0.2,0,0.2,0
			C30.1,33.9,30.2,33.9,30.2,33.8C30.2,33.9,30.3,33.9,30.2,33.8c0.2,0.1,0.2,0.1,0.2,0.1S30.4,33.9,30.2,33.8
			C30.3,33.9,30.3,33.9,30.2,33.8 M37,33.8L37,33.8c-0.2-0.1-0.2-0.2-0.3-0.2s-0.1-0.1-0.2-0.1h-0.1h-0.1c-0.1,0-0.2,0-0.3,0
			c-0.1,0-0.2,0-0.3,0c-0.1,0-0.2,0-0.3,0c-0.1,0-0.2,0-0.3,0.1c-0.2,0.1-0.3,0.1-0.5,0.2c-0.3,0.1-0.4,0.3-0.4,0.3s0.2-0.1,0.5-0.1
			c0.1,0,0.1,0,0.2-0.1c0.1,0,0.2,0,0.3-0.1c0.1,0,0.2,0,0.3,0c0.1,0,0.2,0,0.3,0c0.1,0,0.2,0,0.3,0h0.1h0.1h0.1h0.1
			c0.1,0,0.2,0,0.2,0c0.1,0,0.1,0,0.2,0C36.9,33.8,36.9,33.8,37,33.8C37.1,33.9,37.1,33.9,37,33.8L37,33.8 M33.9,34.1
			c-0.1-0.1-0.2-0.2-0.3-0.3c0-0.1-0.1-0.1-0.1-0.2c0-0.1-0.1-0.1-0.1-0.2c-0.1-0.1-0.1-0.3-0.2-0.4c0-0.1-0.1-0.1-0.1-0.2
			c0-0.1,0-0.1-0.1-0.2c0-0.1-0.1-0.3-0.1-0.4c0-0.2,0-0.3,0-0.5s0-0.3,0.1-0.5c-0.1,0.1-0.1,0.3-0.2,0.4c0,0.2-0.1,0.3-0.1,0.5
			c0,0.2,0,0.3,0,0.5s0.1,0.3,0.1,0.5c0.1,0.2,0.1,0.3,0.2,0.5c0,0.1,0.1,0.1,0.1,0.2c0,0.1,0.1,0.1,0.1,0.2c0,0.1,0.1,0.1,0.2,0.2
			c0.1,0.1,0.1,0.1,0.2,0.2c0.1,0.1,0.2,0.1,0.2,0.2c0,0,0,0.1-0.1,0.1c-0.1,0.1-0.1,0.1-0.2,0.2C33.4,35,33.4,35,33.3,35
			s-0.2,0.1-0.2,0.1H33l0,0l0,0l0,0l0,0h-0.1h-0.1h-0.1h-0.1c-0.2-0.1-0.3-0.2-0.4-0.3c0.1,0.2,0.2,0.4,0.4,0.5l0.1,0.1
			c0.1,0,0.1,0,0.2,0H33h0.1l0,0l0,0l0,0l0,0h0.1c0.1,0,0.2,0,0.3-0.1c0.1,0,0.2-0.1,0.3-0.2c0.1-0.1,0.2-0.1,0.3-0.2l0.1-0.1
			l0.1-0.1l0.1-0.1l-0.1-0.1C34.1,34.3,34,34.2,33.9,34.1"/>
	</g>
	<g>
		<defs>
			<path id="SVGID_29_" d="M14.5,15.1c0.4,2.4,3.4,7.7,2.1,9.2s-4.3,3.3-4.3,9.3c0,2.9,2.7,1.4,3.3,3.9c0.5,2.5,4.5,4.6,5.3,7.7
				c0.7,3.1,1,6.2,3.4,7.6c1.4,0.8,2.3,0,3.2-0.7c0.7-0.6,1.4-1.2,2.2-1c1.7,0.5,13.6,1,11.5-4.9c-2.1-6,5.2-10.3,7.8-12.9
				c2.6-2.5-2.4-10.3-4.7-12.1c-2.3-1.7-0.2-2,0-3.7c0.3-3.8-16-6.8-17.4-6.8c-1.5,0-0.1,1.9-1.6,1.9s-3.9-2.7-3.9-2.7
				C19.4,10.1,14,12.7,14.5,15.1"/>
		</defs>
		<clipPath id="SVGID_30_">
			<use xlink:href="#SVGID_29_"  style="overflow:visible;"/>
		</clipPath>
		<path class="st15" d="M28.8,31.8c-0.3,0-0.5,0.5-0.4,1c0,0.3,0.2,0.6,0.3,0.8c0.1,0,0.2,0,0.3,0c0.1,0,0.2,0,0.3,0
			c0.1-0.2,0.2-0.5,0.2-0.9C29.4,32.1,29.1,31.7,28.8,31.8 M28.8,32.8c-0.1,0-0.2-0.1-0.3-0.4c0-0.2,0.1-0.4,0.2-0.4
			s0.2,0.1,0.3,0.4C29,32.6,28.9,32.7,28.8,32.8 M35.5,31.7c-0.3,0-0.6,0.4-0.7,0.9c0,0.4,0.1,0.7,0.2,0.9c0.1,0,0.1,0,0.2,0
			s0.2,0,0.3,0c0.1,0,0.1,0,0.2,0c0.1-0.2,0.2-0.4,0.3-0.7C36,32.2,35.8,31.7,35.5,31.7 M35.5,32.3c0,0.2-0.1,0.4-0.3,0.4
			c-0.1,0-0.2-0.2-0.2-0.4s0.1-0.4,0.3-0.4C35.5,31.9,35.6,32.1,35.5,32.3"/>
	</g>
	<g>
		<defs>
			<path id="SVGID_31_" d="M14.5,15.1c0.4,2.4,3.4,7.7,2.1,9.2s-4.3,3.3-4.3,9.3c0,2.9,2.7,1.4,3.3,3.9c0.5,2.5,4.5,4.6,5.3,7.7
				c0.7,3.1,1,6.2,3.4,7.6c1.4,0.8,2.3,0,3.2-0.7c0.7-0.6,1.4-1.2,2.2-1c1.7,0.5,13.6,1,11.5-4.9c-2.1-6,5.2-10.3,7.8-12.9
				c2.6-2.5-2.4-10.3-4.7-12.1c-2.3-1.7-0.2-2,0-3.7c0.3-3.8-16-6.8-17.4-6.8c-1.5,0-0.1,1.9-1.6,1.9s-3.9-2.7-3.9-2.7
				C19.4,10.1,14,12.7,14.5,15.1"/>
		</defs>
		<clipPath id="SVGID_32_">
			<use xlink:href="#SVGID_31_"  style="overflow:visible;"/>
		</clipPath>
		<path class="st16" d="M35.4,31.9c-0.1,0-0.2,0.2-0.3,0.4c0,0.2,0.1,0.4,0.2,0.4s0.2-0.2,0.3-0.4C35.6,32.1,35.5,31.9,35.4,31.9
			 M28.7,32c-0.1,0-0.2,0.2-0.2,0.4s0.1,0.4,0.3,0.4c0.1,0,0.2-0.2,0.2-0.4C28.9,32.1,28.8,32,28.7,32"/>
	</g>
	<g>
		<defs>
			<path id="SVGID_33_" d="M14.5,15.1c0.4,2.4,3.4,7.7,2.1,9.2s-4.3,3.3-4.3,9.3c0,2.9,2.7,1.4,3.3,3.9c0.5,2.5,4.5,4.6,5.3,7.7
				c0.7,3.1,1,6.2,3.4,7.6c1.4,0.8,2.3,0,3.2-0.7c0.7-0.6,1.4-1.2,2.2-1c1.7,0.5,13.6,1,11.5-4.9c-2.1-6,5.2-10.3,7.8-12.9
				c2.6-2.5-2.4-10.3-4.7-12.1c-2.3-1.7-0.2-2,0-3.7c0.3-3.8-16-6.8-17.4-6.8c-1.5,0-0.1,1.9-1.6,1.9s-3.9-2.7-3.9-2.7
				C19.4,10.1,14,12.7,14.5,15.1"/>
		</defs>
		<clipPath id="SVGID_34_">
			<use xlink:href="#SVGID_33_"  style="overflow:visible;"/>
		</clipPath>
		<path class="st17" d="M32.9,43.5c0.4,0.5,1.6-0.2,3.1-0.2c1.7,0,5.5-0.8,5.5-0.8c-0.2,1.4-0.4,2.8-0.4,2.8l-6.3,1.8l0.1,11.7
			c-3.4,1-10,0.1-10,0.1l1.9-10.5c-1.5,2.2-5.4,4.3-5.4,4.3l-1.3-1.9c0,0,2.6-1.9,4-3.5c3.9-4.5,5.4-3.7,5.4-3.7l1.2,0.1L32.9,43.5z
			"/>
	</g>
	<g>
		<defs>
			<path id="SVGID_35_" d="M14.5,15.1c0.4,2.4,3.4,7.7,2.1,9.2s-4.3,3.3-4.3,9.3c0,2.9,2.7,1.4,3.3,3.9c0.5,2.5,4.5,4.6,5.3,7.7
				c0.7,3.1,1,6.2,3.4,7.6c1.4,0.8,2.3,0,3.2-0.7c0.7-0.6,1.4-1.2,2.2-1c1.7,0.5,13.6,1,11.5-4.9c-2.1-6,5.2-10.3,7.8-12.9
				c2.6-2.5-2.4-10.3-4.7-12.1c-2.3-1.7-0.2-2,0-3.7c0.3-3.8-16-6.8-17.4-6.8c-1.5,0-0.1,1.9-1.6,1.9s-3.9-2.7-3.9-2.7
				C19.4,10.1,14,12.7,14.5,15.1"/>
		</defs>
		<clipPath id="SVGID_36_">
			<use xlink:href="#SVGID_35_"  style="overflow:visible;"/>
		</clipPath>
		<path class="st18" d="M31.3,48C31.3,48,31.3,48,31.3,48c0.1,0.2,0.2,0.3,0.2,0.4s0.1,0.3,0.1,0.5s0,0.4,0,0.6
			c0,0.2-0.1,0.4-0.1,0.5c-0.1,0.2-0.1,0.3-0.2,0.5c0,0.1-0.1,0.1-0.1,0.2l-0.1,0.1C31,50.9,31,50.9,31,50.9v-0.1v-0.1
			c0-0.1,0-0.1,0-0.2c0-0.1,0-0.3,0-0.5c0-0.1,0-0.2,0-0.3s0-0.2,0-0.3c0-0.4,0.1-0.7,0.2-1C31.2,48.3,31.3,48.2,31.3,48
			C31.3,48,31.3,48,31.3,48"/>
	</g>
	<g>
		<defs>
			<path id="SVGID_37_" d="M14.5,15.1c0.4,2.4,3.4,7.7,2.1,9.2s-4.3,3.3-4.3,9.3c0,2.9,2.7,1.4,3.3,3.9c0.5,2.5,4.5,4.6,5.3,7.7
				c0.7,3.1,1,6.2,3.4,7.6c1.4,0.8,2.3,0,3.2-0.7c0.7-0.6,1.4-1.2,2.2-1c1.7,0.5,13.6,1,11.5-4.9c-2.1-6,5.2-10.3,7.8-12.9
				c2.6-2.5-2.4-10.3-4.7-12.1c-2.3-1.7-0.2-2,0-3.7c0.3-3.8-16-6.8-17.4-6.8c-1.5,0-0.1,1.9-1.6,1.9s-3.9-2.7-3.9-2.7
				C19.4,10.1,14,12.7,14.5,15.1"/>
		</defs>
		<clipPath id="SVGID_38_">
			<use xlink:href="#SVGID_37_"  style="overflow:visible;"/>
		</clipPath>
		<path class="st19" d="M32.1,45.3c0,0,0-0.1,0.1-0.3s0.3-0.4,0.5-0.5c0.1,0,0.1-0.1,0.2-0.1s0.1-0.1,0.2-0.1s0.1,0,0.2-0.1
			c0.1,0,0.1,0,0.2,0s0.2,0,0.2,0c0.1,0,0.1,0,0.1,0s0,0-0.1,0.1c0,0-0.1,0-0.1,0.1c0,0-0.1,0-0.1,0.1l-0.1,0.1l-0.1,0.1l-0.1,0.1
			l-0.1,0.1C33,45,32.9,45,32.8,45.1c-0.1,0.1-0.2,0.1-0.3,0.2C32.2,45.2,32.1,45.3,32.1,45.3"/>
	</g>
</g>
<g>
	<g>
		<defs>
			<rect id="SVGID_39_" x="-10.7" y="5.6" width="78.3" height="50.3"/>
		</defs>
		<clipPath id="SVGID_40_">
			<use xlink:href="#SVGID_39_"  style="overflow:visible;"/>
		</clipPath>
		<path class="st20" d="M23.4,27.1c0,0-0.6,1.7-0.3,3c0,0-0.6,0.1-0.5-0.6s-0.5-0.5-0.2-1.1c0.2-0.6,0.5-0.7,0.5-0.7
			S22,27.2,23.4,27.1"/>
	</g>
	<g>
		<defs>
			<rect id="SVGID_41_" x="-10.7" y="5.6" width="78.3" height="50.3"/>
		</defs>
		<clipPath id="SVGID_42_">
			<use xlink:href="#SVGID_41_"  style="overflow:visible;"/>
		</clipPath>
		<path class="st21" d="M25.3,27.7c0,0-0.6,2.5-0.2,3.8c0,0-0.8-0.8-0.8-1.3c0-0.6-0.5-0.2,0-1c0,0-0.6-0.4,0.4-1
			C24.7,28.2,24.2,27.7,25.3,27.7"/>
	</g>
	<g>
		<defs>
			<rect id="SVGID_43_" x="-10.7" y="5.6" width="78.3" height="50.3"/>
		</defs>
		<clipPath id="SVGID_44_">
			<use xlink:href="#SVGID_43_"  style="overflow:visible;"/>
		</clipPath>
		<path class="st22" d="M37.1,25.3c0,0,1.5,0.2,1.5-0.8c0,0,1.5-0.1,1.5-1.3c0,0,1,0.2,1-1.4C41.1,21.9,38.3,24.7,37.1,25.3"/>
	</g>
	<g>
		<defs>
			<rect id="SVGID_45_" x="-10.7" y="5.6" width="78.3" height="50.3"/>
		</defs>
		<clipPath id="SVGID_46_">
			<use xlink:href="#SVGID_45_"  style="overflow:visible;"/>
		</clipPath>
		<path class="st23" d="M36.3,23c0,0,0.9-2.5,1.9-2c0,0,0.5-2.4,1.2-1.4c0,0,0.6-2.7,1.2-2c0.4,0.4,0.2,1.6,0.2,1.6
			S40.2,21.6,36.3,23"/>
	</g>
	<g>
		<defs>
			<rect id="SVGID_47_" x="-10.7" y="5.6" width="78.3" height="50.3"/>
		</defs>
		<clipPath id="SVGID_48_">
			<use xlink:href="#SVGID_47_"  style="overflow:visible;"/>
		</clipPath>
		<path class="st24" d="M29.5,19.5c0,0,1.3-1.7,2.7-1.7c1.5,0,1.4,1.3,1.4,1.3s-0.3-2.4,0.8-2.5c1-0.1,1.1,1.5,1.1,1.5
			s0-2.6,0.6-2.6s0.5,2.5,0.5,2.5S35.1,20.7,29.5,19.5"/>
	</g>
	<g>
		<defs>
			<rect id="SVGID_49_" x="-10.7" y="5.6" width="78.3" height="50.3"/>
		</defs>
		<clipPath id="SVGID_50_">
			<use xlink:href="#SVGID_49_"  style="overflow:visible;"/>
		</clipPath>
		<path class="st25" d="M24.1,24.9c0,0-0.8-2.8,1.2-4.6c0,0-0.6-2.2-1.6-1.4c-1,0.7-0.6,2.3-0.6,2.3s-0.6-0.6-0.6,0.6
			c-0.1,1.3,0.7,1.5,0.7,1.5s-0.6,0-0.3,0.6C23.1,24.6,24.1,24.9,24.1,24.9"/>
	</g>
	<g>
		<defs>
			<rect id="SVGID_51_" x="-10.7" y="5.6" width="78.3" height="50.3"/>
		</defs>
		<clipPath id="SVGID_52_">
			<use xlink:href="#SVGID_51_"  style="overflow:visible;"/>
		</clipPath>
		<path class="st26" d="M29.1,26.8c0,0,4.1,0.6,6.3-0.9c0,0,0-1.7-1-1.4c-1,0.4-1,1.4-1,1.4s-0.5-1.6-1.1-1.3c-0.6,0.3-1,1.4-1,1.4
			s-0.1-0.8-0.5-0.8C30.3,25.3,29.1,26.8,29.1,26.8"/>
	</g>
	<g>
		<defs>
			<rect id="SVGID_53_" x="-10.7" y="5.6" width="78.3" height="50.3"/>
		</defs>
		<clipPath id="SVGID_54_">
			<use xlink:href="#SVGID_53_"  style="overflow:visible;"/>
		</clipPath>
		<path class="st27" d="M8.3,53.7H7V15.8c0-0.1,0-0.9,0.1-1.8c0.2-1.4,0.7-2.4,1.5-2.9c1.2-0.8,4.1-2.3,4.4-2.5
			c0.2-0.1,0.8-0.4,1.6-0.2c0.7,0.2,1.4,0.7,1.9,1.6l-1,0.8c-0.9-1.4-1.7-1.1-1.8-1h-0.1c0,0-3.1,1.6-4.2,2.4
			c-1,0.7-1.1,2.9-1.1,3.6l0,0V53.7z"/>
	</g>
	<g>
		<defs>
			<rect id="SVGID_55_" x="-10.7" y="5.6" width="78.3" height="50.3"/>
		</defs>
		<clipPath id="SVGID_56_">
			<use xlink:href="#SVGID_55_"  style="overflow:visible;"/>
		</clipPath>
		<path class="st28" d="M21.2,10.1c0.4,0.6-0.7,2.2-2.6,3.6s-3.8,2-4.2,1.4c-0.4-0.6,0.7-2.2,2.6-3.6C18.9,10.1,20.8,9.4,21.2,10.1"
			/>
	</g>
	<g>
		<defs>
			<rect id="SVGID_57_" x="-10.7" y="5.6" width="78.3" height="50.3"/>
		</defs>
		<clipPath id="SVGID_58_">
			<use xlink:href="#SVGID_57_"  style="overflow:visible;"/>
		</clipPath>
		<path class="st29" d="M20.9,9.8c0,0-3-1.5-5.1,0.7c-2.1,2.1-1.8,4-1.3,4.6C14.5,15.1,17.1,10.3,20.9,9.8"/>
	</g>
</g>
<g>
	<g>
		<defs>
			<polygon id="SVGID_59_" points="7.1,15.8 7.1,53.7 8.3,53.7 8.3,15.8 8.3,15.7 			"/>
		</defs>
		<clipPath id="SVGID_60_">
			<use xlink:href="#SVGID_59_"  style="overflow:visible;"/>
		</clipPath>
		<path class="st30" d="M6.8,17.3c0,0,0.1,0,0.3,0.1c0.1,0,0.2,0.1,0.3,0.1c0.1,0,0.1,0,0.2,0s0.1,0,0.2,0h0.1H8c0.1,0,0.1,0,0.2,0
			s0.1,0,0.1,0c0.1,0,0.1,0,0.1,0h0.1h0.1c0.1,0,0.1,0,0.1,0s0,0,0,0.1c0,0,0,0.1-0.1,0.1l-0.1,0.1l-0.1,0.1c-0.1,0-0.1,0.1-0.2,0.1
			S8.1,18.1,8,18.1H7.9H7.8c-0.1,0-0.1,0-0.2,0s-0.1,0-0.2-0.1s-0.2-0.1-0.3-0.2C6.9,17.4,6.8,17.3,6.8,17.3"/>
	</g>
	<g>
		<defs>
			<polygon id="SVGID_61_" points="7.1,15.8 7.1,53.7 8.3,53.7 8.3,15.8 8.3,15.7 			"/>
		</defs>
		<clipPath id="SVGID_62_">
			<use xlink:href="#SVGID_61_"  style="overflow:visible;"/>
		</clipPath>
		<path class="st31" d="M6.8,18.9c0,0,0.1,0,0.3,0.1c0.1,0,0.2,0.1,0.3,0.1c0.1,0,0.1,0,0.2,0s0.1,0,0.2,0h0.1H8c0.1,0,0.1,0,0.2,0
			s0.1,0,0.1,0c0.1,0,0.1,0,0.1,0h0.1h0.1c0.1,0,0.1,0,0.1,0s0,0,0,0.1c0,0,0,0.1-0.1,0.1l-0.1,0.1l-0.1,0.1c-0.1,0-0.1,0.1-0.2,0.1
			S8.1,19.7,8,19.7H7.9H7.8c-0.1,0-0.1,0-0.2,0s-0.1,0-0.2-0.1s-0.2-0.1-0.3-0.2C6.9,19,6.8,18.9,6.8,18.9"/>
	</g>
	<g>
		<defs>
			<polygon id="SVGID_63_" points="7.1,15.8 7.1,53.7 8.3,53.7 8.3,15.8 8.3,15.7 			"/>
		</defs>
		<clipPath id="SVGID_64_">
			<use xlink:href="#SVGID_63_"  style="overflow:visible;"/>
		</clipPath>
		<path class="st32" d="M6.8,20.5c0,0,0.1,0,0.3,0.1c0.1,0,0.2,0.1,0.3,0.1c0.1,0,0.1,0,0.2,0s0.1,0,0.2,0h0.1H8c0.1,0,0.1,0,0.2,0
			s0.1,0,0.1,0c0.1,0,0.1,0,0.1,0h0.1h0.1c0.1,0,0.1,0,0.1,0s0,0,0,0.1c0,0,0,0.1-0.1,0.1L8.5,21l-0.1,0.1c-0.1,0-0.1,0.1-0.2,0.1
			S8.1,21.3,8,21.3H7.9H7.8c-0.1,0-0.1,0-0.2,0s-0.1,0-0.2-0.1S7.2,21.1,7.1,21C6.9,20.6,6.8,20.5,6.8,20.5"/>
	</g>
	<g>
		<defs>
			<polygon id="SVGID_65_" points="7.1,15.8 7.1,53.7 8.3,53.7 8.3,15.8 8.3,15.7 			"/>
		</defs>
		<clipPath id="SVGID_66_">
			<use xlink:href="#SVGID_65_"  style="overflow:visible;"/>
		</clipPath>
		<path class="st33" d="M6.8,22.1c0,0,0.1,0,0.3,0.1c0.1,0,0.2,0.1,0.3,0.1c0.1,0,0.1,0,0.2,0s0.1,0,0.2,0h0.1H8c0.1,0,0.1,0,0.2,0
			s0.1,0,0.1,0c0.1,0,0.1,0,0.1,0h0.1h0.1c0.1,0,0.1,0,0.1,0s0,0,0,0.1c0,0,0,0.1-0.1,0.1l-0.1,0.1l-0.1,0.1c-0.1,0-0.1,0.1-0.2,0.1
			S8.1,22.9,8,22.9H7.9H7.8c-0.1,0-0.1,0-0.2,0s-0.1,0-0.2-0.1s-0.2-0.1-0.3-0.2C6.9,22.2,6.8,22.1,6.8,22.1"/>
	</g>
	<g>
		<defs>
			<polygon id="SVGID_67_" points="7.1,15.8 7.1,53.7 8.3,53.7 8.3,15.8 8.3,15.7 			"/>
		</defs>
		<clipPath id="SVGID_68_">
			<use xlink:href="#SVGID_67_"  style="overflow:visible;"/>
		</clipPath>
		<path class="st34" d="M6.8,23.7c0,0,0.1,0,0.3,0.1c0.1,0,0.2,0.1,0.3,0.1c0.1,0,0.1,0,0.2,0s0.1,0,0.2,0h0.1H8c0.1,0,0.1,0,0.2,0
			s0.1,0,0.1,0c0.1,0,0.1,0,0.1,0h0.1h0.1c0.1,0,0.1,0,0.1,0s0,0,0,0.1c0,0,0,0.1-0.1,0.1l-0.1,0.1l-0.1,0.1c-0.1,0-0.1,0.1-0.2,0.1
			S8.1,24.5,8,24.5H7.9H7.8c-0.1,0-0.1,0-0.2,0s-0.1,0-0.2-0.1s-0.2-0.1-0.3-0.2C6.9,23.8,6.8,23.7,6.8,23.7"/>
	</g>
	<g>
		<defs>
			<polygon id="SVGID_69_" points="7.1,15.8 7.1,53.7 8.3,53.7 8.3,15.8 8.3,15.7 			"/>
		</defs>
		<clipPath id="SVGID_70_">
			<use xlink:href="#SVGID_69_"  style="overflow:visible;"/>
		</clipPath>
		<path class="st35" d="M6.8,25.3c0,0,0.1,0,0.3,0.1c0.1,0,0.2,0.1,0.3,0.1c0.1,0,0.1,0,0.2,0s0.1,0,0.2,0h0.1H8c0.1,0,0.1,0,0.2,0
			s0.1,0,0.1,0c0.1,0,0.1,0,0.1,0h0.1h0.1c0.1,0,0.1,0,0.1,0s0,0,0,0.1c0,0,0,0.1-0.1,0.1l-0.1,0.1l-0.1,0.1c-0.1,0-0.1,0.1-0.2,0.1
			S8.1,26.1,8,26.1H7.9H7.8c-0.1,0-0.1,0-0.2,0s-0.1,0-0.2-0.1s-0.2-0.1-0.3-0.2C6.9,25.4,6.8,25.3,6.8,25.3"/>
	</g>
	<g>
		<defs>
			<polygon id="SVGID_71_" points="7.1,15.8 7.1,53.7 8.3,53.7 8.3,15.8 8.3,15.7 			"/>
		</defs>
		<clipPath id="SVGID_72_">
			<use xlink:href="#SVGID_71_"  style="overflow:visible;"/>
		</clipPath>
		<path class="st36" d="M6.8,26.8c0,0,0.1,0,0.3,0.1c0.1,0,0.2,0.1,0.3,0.1c0.1,0,0.1,0,0.2,0s0.1,0,0.2,0h0.1H8c0.1,0,0.1,0,0.2,0
			s0.1,0,0.1,0c0.1,0,0.1,0,0.1,0h0.1h0.1c0.1,0,0.1,0,0.1,0s0,0,0,0.1c0,0,0,0.1-0.1,0.1l-0.1,0.1l-0.1,0.1c-0.1,0-0.1,0.1-0.2,0.1
			S8.1,27.6,8,27.6H7.9H7.8c-0.1,0-0.1,0-0.2,0s-0.1,0-0.2-0.1s-0.2-0.1-0.3-0.2C6.9,27,6.8,26.8,6.8,26.8"/>
	</g>
	<g>
		<defs>
			<polygon id="SVGID_73_" points="7.1,15.8 7.1,53.7 8.3,53.7 8.3,15.8 8.3,15.7 			"/>
		</defs>
		<clipPath id="SVGID_74_">
			<use xlink:href="#SVGID_73_"  style="overflow:visible;"/>
		</clipPath>
		<path class="st37" d="M6.8,28.4c0,0,0.1,0,0.3,0.1c0.1,0,0.2,0.1,0.3,0.1c0.1,0,0.1,0,0.2,0s0.1,0,0.2,0h0.1H8c0.1,0,0.1,0,0.2,0
			s0.1,0,0.1,0c0.1,0,0.1,0,0.1,0h0.1h0.1c0.1,0,0.1,0,0.1,0s0,0,0,0.1c0,0,0,0.1-0.1,0.1l-0.1,0.1L8.4,29c-0.1,0-0.1,0.1-0.2,0.1
			S8.1,29.2,8,29.2H7.9H7.8c-0.1,0-0.1,0-0.2,0s-0.1,0-0.2-0.1S7.2,29,7.1,28.9C6.9,28.6,6.8,28.4,6.8,28.4"/>
	</g>
	<g>
		<defs>
			<polygon id="SVGID_75_" points="7.1,15.8 7.1,53.7 8.3,53.7 8.3,15.8 8.3,15.7 			"/>
		</defs>
		<clipPath id="SVGID_76_">
			<use xlink:href="#SVGID_75_"  style="overflow:visible;"/>
		</clipPath>
		<path class="st38" d="M6.8,30c0,0,0.1,0,0.3,0.1c0.1,0,0.2,0.1,0.3,0.1c0.1,0,0.1,0,0.2,0s0.1,0,0.2,0h0.1H8c0.1,0,0.1,0,0.2,0
			s0.1,0,0.1,0c0.1,0,0.1,0,0.1,0h0.1h0.1c0.1,0,0.1,0,0.1,0s0,0,0,0.1c0,0,0,0.1-0.1,0.1l-0.1,0.1l-0.1,0.1c-0.1,0-0.1,0.1-0.2,0.1
			S8.1,30.8,8,30.8H7.9H7.8c-0.1,0-0.1,0-0.2,0s-0.1,0-0.2-0.1s-0.2-0.1-0.3-0.2C6.9,30.2,6.8,30,6.8,30"/>
	</g>
	<g>
		<defs>
			<polygon id="SVGID_77_" points="7.1,15.8 7.1,53.7 8.3,53.7 8.3,15.8 8.3,15.7 			"/>
		</defs>
		<clipPath id="SVGID_78_">
			<use xlink:href="#SVGID_77_"  style="overflow:visible;"/>
		</clipPath>
		<path class="st39" d="M6.8,31.6c0,0,0.1,0,0.3,0.1c0.1,0,0.2,0.1,0.3,0.1c0.1,0,0.1,0,0.2,0s0.1,0,0.2,0h0.1H8c0.1,0,0.1,0,0.2,0
			s0.1,0,0.1,0c0.1,0,0.1,0,0.1,0h0.1h0.1c0.1,0,0.1,0,0.1,0s0,0,0,0.1c0,0,0,0.1-0.1,0.1l-0.1,0.1l-0.1,0.1c-0.1,0-0.1,0.1-0.2,0.1
			S8.1,32.4,8,32.4H7.9H7.8c-0.1,0-0.1,0-0.2,0s-0.1,0-0.2-0.1s-0.2-0.1-0.3-0.2C6.9,31.8,6.8,31.6,6.8,31.6"/>
	</g>
	<g>
		<defs>
			<polygon id="SVGID_79_" points="7.1,15.8 7.1,53.7 8.3,53.7 8.3,15.8 8.3,15.7 			"/>
		</defs>
		<clipPath id="SVGID_80_">
			<use xlink:href="#SVGID_79_"  style="overflow:visible;"/>
		</clipPath>
		<path class="st40" d="M6.8,33.2c0,0,0.1,0,0.3,0.1c0.1,0,0.2,0.1,0.3,0.1c0.1,0,0.1,0,0.2,0s0.1,0,0.2,0h0.1H8c0.1,0,0.1,0,0.2,0
			s0.1,0,0.1,0c0.1,0,0.1,0,0.1,0h0.1h0.1c0.1,0,0.1,0,0.1,0s0,0,0,0.1c0,0,0,0.1-0.1,0.1l-0.1,0.1l-0.1,0.1c-0.1,0-0.1,0.1-0.2,0.1
			S8.1,34,8,34H7.9H7.8c-0.1,0-0.1,0-0.2,0s-0.1,0-0.2-0.1s-0.2-0.1-0.3-0.2C6.9,33.4,6.8,33.2,6.8,33.2"/>
	</g>
	<g>
		<defs>
			<polygon id="SVGID_81_" points="7.1,15.8 7.1,53.7 8.3,53.7 8.3,15.8 8.3,15.7 			"/>
		</defs>
		<clipPath id="SVGID_82_">
			<use xlink:href="#SVGID_81_"  style="overflow:visible;"/>
		</clipPath>
		<path class="st41" d="M6.8,34.8c0,0,0.1,0,0.3,0.1c0.1,0,0.2,0.1,0.3,0.1c0.1,0,0.1,0,0.2,0s0.1,0,0.2,0h0.1H8c0.1,0,0.1,0,0.2,0
			s0.1,0,0.1,0c0.1,0,0.1,0,0.1,0h0.1h0.1c0.1,0,0.1,0,0.1,0s0,0,0,0.1c0,0,0,0.1-0.1,0.1l-0.1,0.1l-0.1,0.1c-0.1,0-0.1,0.1-0.2,0.1
			S8.1,35.6,8,35.6H7.9H7.8c-0.1,0-0.1,0-0.2,0s-0.1,0-0.2-0.1s-0.2-0.1-0.3-0.2C6.9,35,6.8,34.8,6.8,34.8"/>
	</g>
	<g>
		<defs>
			<polygon id="SVGID_83_" points="7.1,15.8 7.1,53.7 8.3,53.7 8.3,15.8 8.3,15.7 			"/>
		</defs>
		<clipPath id="SVGID_84_">
			<use xlink:href="#SVGID_83_"  style="overflow:visible;"/>
		</clipPath>
		<path class="st42" d="M6.8,36.4c0,0,0.1,0,0.3,0.1c0.1,0,0.2,0.1,0.3,0.1c0.1,0,0.1,0,0.2,0s0.1,0,0.2,0h0.1H8c0.1,0,0.1,0,0.2,0
			s0.1,0,0.1,0c0.1,0,0.1,0,0.1,0h0.1h0.1c0.1,0,0.1,0,0.1,0s0,0,0,0.1c0,0,0,0.1-0.1,0.1l-0.1,0.1L8.4,37c-0.1,0-0.1,0.1-0.2,0.1
			S8.1,37.2,8,37.2H7.9H7.8c-0.1,0-0.1,0-0.2,0s-0.1,0-0.2-0.1S7.2,37,7.1,36.9C6.9,36.6,6.8,36.4,6.8,36.4"/>
	</g>
	<g>
		<defs>
			<polygon id="SVGID_85_" points="7.1,15.8 7.1,53.7 8.3,53.7 8.3,15.8 8.3,15.7 			"/>
		</defs>
		<clipPath id="SVGID_86_">
			<use xlink:href="#SVGID_85_"  style="overflow:visible;"/>
		</clipPath>
		<path class="st43" d="M6.8,38c0,0,0.1,0,0.3,0.1c0.1,0,0.2,0.1,0.3,0.1c0.1,0,0.1,0,0.2,0s0.1,0,0.2,0h0.1H8c0.1,0,0.1,0,0.2,0
			s0.1,0,0.1,0c0.1,0,0.1,0,0.1,0h0.1h0.1c0.1,0,0.1,0,0.1,0s0,0,0,0.1c0,0,0,0.1-0.1,0.1l-0.1,0.1l-0.1,0.1c-0.1,0-0.1,0.1-0.2,0.1
			S8.1,38.8,8,38.8H7.9H7.8c-0.1,0-0.1,0-0.2,0s-0.1,0-0.2-0.1s-0.2-0.1-0.3-0.2C6.9,38.2,6.8,38,6.8,38"/>
	</g>
	<g>
		<defs>
			<polygon id="SVGID_87_" points="7.1,15.8 7.1,53.7 8.3,53.7 8.3,15.8 8.3,15.7 			"/>
		</defs>
		<clipPath id="SVGID_88_">
			<use xlink:href="#SVGID_87_"  style="overflow:visible;"/>
		</clipPath>
		<path class="st44" d="M6.8,39.6c0,0,0.1,0,0.3,0.1c0.1,0,0.2,0.1,0.3,0.1c0.1,0,0.1,0,0.2,0s0.1,0,0.2,0h0.1H8c0.1,0,0.1,0,0.2,0
			s0.1,0,0.1,0c0.1,0,0.1,0,0.1,0h0.1h0.1c0.1,0,0.1,0,0.1,0s0,0,0,0.1c0,0,0,0.1-0.1,0.1l-0.1,0.1l-0.1,0.1c-0.1,0-0.1,0.1-0.2,0.1
			S8.1,40.4,8,40.4H7.9H7.8c-0.1,0-0.1,0-0.2,0s-0.1,0-0.2-0.1s-0.2-0.1-0.3-0.2C6.9,39.8,6.8,39.6,6.8,39.6"/>
	</g>
	<g>
		<defs>
			<polygon id="SVGID_89_" points="7.1,15.8 7.1,53.7 8.3,53.7 8.3,15.8 8.3,15.7 			"/>
		</defs>
		<clipPath id="SVGID_90_">
			<use xlink:href="#SVGID_89_"  style="overflow:visible;"/>
		</clipPath>
		<path class="st45" d="M6.8,41.2c0,0,0.1,0,0.3,0.1c0.1,0,0.2,0.1,0.3,0.1c0.1,0,0.1,0,0.2,0s0.1,0,0.2,0h0.1H8c0.1,0,0.1,0,0.2,0
			s0.1,0,0.1,0c0.1,0,0.1,0,0.1,0h0.1h0.1c0.1,0,0.1,0,0.1,0s0,0,0,0.1c0,0,0,0.1-0.1,0.1l-0.1,0.1l-0.1,0.1c-0.1,0-0.1,0.1-0.2,0.1
			S8.1,42,8,42H7.9H7.8c-0.1,0-0.1,0-0.2,0s-0.1,0-0.2-0.1s-0.2-0.1-0.3-0.2C6.9,41.4,6.8,41.2,6.8,41.2"/>
	</g>
	<g>
		<defs>
			<polygon id="SVGID_91_" points="7.1,15.8 7.1,53.7 8.3,53.7 8.3,15.8 8.3,15.7 			"/>
		</defs>
		<clipPath id="SVGID_92_">
			<use xlink:href="#SVGID_91_"  style="overflow:visible;"/>
		</clipPath>
		<path class="st46" d="M6.8,42.8c0,0,0.1,0,0.3,0.1c0.1,0,0.2,0.1,0.3,0.1c0.1,0,0.1,0,0.2,0s0.1,0,0.2,0h0.1H8c0.1,0,0.1,0,0.2,0
			s0.1,0,0.1,0c0.1,0,0.1,0,0.1,0h0.1h0.1c0.1,0,0.1,0,0.1,0s0,0,0,0.1c0,0,0,0.1-0.1,0.1l-0.1,0.1l-0.1,0.1c-0.1,0-0.1,0.1-0.2,0.1
			S8.1,43.6,8,43.6H7.9H7.8c-0.1,0-0.1,0-0.2,0s-0.1,0-0.2-0.1s-0.2-0.1-0.3-0.2C6.9,43,6.8,42.8,6.8,42.8"/>
	</g>
	<g>
		<defs>
			<polygon id="SVGID_93_" points="7.1,15.8 7.1,53.7 8.3,53.7 8.3,15.8 8.3,15.7 			"/>
		</defs>
		<clipPath id="SVGID_94_">
			<use xlink:href="#SVGID_93_"  style="overflow:visible;"/>
		</clipPath>
		<path class="st47" d="M6.8,44.4c0,0,0.1,0,0.3,0.1c0.1,0,0.2,0.1,0.3,0.1c0.1,0,0.1,0,0.2,0s0.1,0,0.2,0h0.1H8c0.1,0,0.1,0,0.2,0
			s0.1,0,0.1,0c0.1,0,0.1,0,0.1,0h0.1h0.1c0.1,0,0.1,0,0.1,0s0,0,0,0.1c0,0,0,0.1-0.1,0.1l-0.1,0.1L8.4,45c-0.1,0-0.1,0.1-0.2,0.1
			S8.1,45.2,8,45.2H7.9H7.8c-0.1,0-0.1,0-0.2,0s-0.1,0-0.2-0.1S7.2,45,7.1,44.9C6.9,44.6,6.8,44.4,6.8,44.4"/>
	</g>
	<g>
		<defs>
			<polygon id="SVGID_95_" points="7.1,15.8 7.1,53.7 8.3,53.7 8.3,15.8 8.3,15.7 			"/>
		</defs>
		<clipPath id="SVGID_96_">
			<use xlink:href="#SVGID_95_"  style="overflow:visible;"/>
		</clipPath>
		<path class="st48" d="M6.8,46c0,0,0.1,0,0.3,0.1c0.1,0,0.2,0.1,0.3,0.1c0.1,0,0.1,0,0.2,0s0.1,0,0.2,0h0.1H8c0.1,0,0.1,0,0.2,0
			s0.1,0,0.1,0c0.1,0,0.1,0,0.1,0h0.1h0.1c0.1,0,0.1,0,0.1,0s0,0,0,0.1c0,0,0,0.1-0.1,0.1l-0.1,0.1l-0.1,0.1c-0.1,0-0.1,0.1-0.2,0.1
			S8.1,46.8,8,46.8H7.9H7.8c-0.1,0-0.1,0-0.2,0s-0.1,0-0.2-0.1s-0.2-0.1-0.3-0.2C6.9,46.2,6.8,46,6.8,46"/>
	</g>
	<g>
		<defs>
			<polygon id="SVGID_97_" points="7.1,15.8 7.1,53.7 8.3,53.7 8.3,15.8 8.3,15.7 			"/>
		</defs>
		<clipPath id="SVGID_98_">
			<use xlink:href="#SVGID_97_"  style="overflow:visible;"/>
		</clipPath>
		<path class="st49" d="M6.8,47.6c0,0,0.1,0,0.3,0.1c0.1,0,0.2,0.1,0.3,0.1c0.1,0,0.1,0,0.2,0s0.1,0,0.2,0h0.1H8c0.1,0,0.1,0,0.2,0
			s0.1,0,0.1,0c0.1,0,0.1,0,0.1,0h0.1h0.1c0.1,0,0.1,0,0.1,0s0,0,0,0.1c0,0,0,0.1-0.1,0.1l-0.1,0.1l-0.1,0.1c-0.1,0-0.1,0.1-0.2,0.1
			S8.1,48.4,8,48.4H7.9H7.8c-0.1,0-0.1,0-0.2,0s-0.1,0-0.2-0.1s-0.2-0.1-0.3-0.2C6.9,47.8,6.8,47.6,6.8,47.6"/>
	</g>
	<g>
		<defs>
			<polygon id="SVGID_99_" points="7.1,15.8 7.1,53.7 8.3,53.7 8.3,15.8 8.3,15.7 			"/>
		</defs>
		<clipPath id="SVGID_100_">
			<use xlink:href="#SVGID_99_"  style="overflow:visible;"/>
		</clipPath>
		<path class="st50" d="M6.8,49.2c0,0,0.1,0,0.3,0.1c0.1,0,0.2,0.1,0.3,0.1c0.1,0,0.1,0,0.2,0s0.1,0,0.2,0h0.1H8c0.1,0,0.1,0,0.2,0
			s0.1,0,0.1,0c0.1,0,0.1,0,0.1,0h0.1h0.1c0.1,0,0.1,0,0.1,0s0,0,0,0.1c0,0,0,0.1-0.1,0.1l-0.1,0.1l-0.1,0.1c-0.1,0-0.1,0.1-0.2,0.1
			S8.1,50,8,50H7.9H7.8c-0.1,0-0.1,0-0.2,0s-0.1,0-0.2-0.1s-0.2-0.1-0.3-0.2C6.9,49.3,6.8,49.2,6.8,49.2"/>
	</g>
	<g>
		<defs>
			<polygon id="SVGID_101_" points="7.1,15.8 7.1,53.7 8.3,53.7 8.3,15.8 8.3,15.7 			"/>
		</defs>
		<clipPath id="SVGID_102_">
			<use xlink:href="#SVGID_101_"  style="overflow:visible;"/>
		</clipPath>
		<path class="st51" d="M6.8,50.8c0,0,0.1,0,0.3,0.1c0.1,0,0.2,0.1,0.3,0.1c0.1,0,0.1,0,0.2,0s0.1,0,0.2,0h0.1H8c0.1,0,0.1,0,0.2,0
			s0.1,0,0.1,0c0.1,0,0.1,0,0.1,0h0.1h0.1c0.1,0,0.1,0,0.1,0s0,0,0,0.1c0,0,0,0.1-0.1,0.1l-0.1,0.1l-0.1,0.1c-0.1,0-0.1,0.1-0.2,0.1
			S8.1,51.6,8,51.6H7.9H7.8c-0.1,0-0.1,0-0.2,0s-0.1,0-0.2-0.1s-0.2-0.1-0.3-0.2C6.9,50.9,6.8,50.8,6.8,50.8"/>
	</g>
	<g>
		<defs>
			<polygon id="SVGID_103_" points="7.1,15.8 7.1,53.7 8.3,53.7 8.3,15.8 8.3,15.7 			"/>
		</defs>
		<clipPath id="SVGID_104_">
			<use xlink:href="#SVGID_103_"  style="overflow:visible;"/>
		</clipPath>
		<path class="st52" d="M6.8,52.4c0,0,0.1,0,0.3,0.1c0.1,0,0.2,0.1,0.3,0.1c0.1,0,0.1,0,0.2,0s0.1,0,0.2,0h0.1H8c0.1,0,0.1,0,0.2,0
			s0.1,0,0.1,0c0.1,0,0.1,0,0.1,0h0.1h0.1c0.1,0,0.1,0,0.1,0s0,0,0,0.1c0,0,0,0.1-0.1,0.1l-0.1,0.1L8.4,53c-0.1,0-0.1,0.1-0.2,0.1
			S8.1,53.2,8,53.2H7.9H7.8c-0.1,0-0.1,0-0.2,0s-0.1,0-0.2-0.1S7.2,53,7.1,52.9C6.9,52.5,6.8,52.4,6.8,52.4"/>
	</g>
	<g>
		<defs>
			<polygon id="SVGID_105_" points="7.1,15.8 7.1,53.7 8.3,53.7 8.3,15.8 8.3,15.7 			"/>
		</defs>
		<clipPath id="SVGID_106_">
			<use xlink:href="#SVGID_105_"  style="overflow:visible;"/>
		</clipPath>
		<path class="st53" d="M6.8,51.6c0,0,0.1,0,0.3,0.1c0.1,0,0.2,0.1,0.3,0.1c0.1,0,0.1,0,0.2,0s0.1,0,0.2,0h0.1H8c0.1,0,0.1,0,0.2,0
			s0.1,0,0.1,0c0.1,0,0.1,0,0.1,0h0.1h0.1c0.1,0,0.1,0,0.1,0s0,0,0,0.1c0,0,0,0.1-0.1,0.1l-0.1,0.1l-0.1,0.1c-0.1,0-0.1,0.1-0.2,0.1
			S8.1,52.4,8,52.4H7.9H7.8c-0.1,0-0.1,0-0.2,0s-0.1,0-0.2-0.1C7.2,52,7.1,52,7,51.9C6.9,51.7,6.8,51.6,6.8,51.6"/>
	</g>
	<g>
		<defs>
			<polygon id="SVGID_107_" points="7.1,15.8 7.1,53.7 8.3,53.7 8.3,15.8 8.3,15.7 			"/>
		</defs>
		<clipPath id="SVGID_108_">
			<use xlink:href="#SVGID_107_"  style="overflow:visible;"/>
		</clipPath>
		<path class="st54" d="M6.8,50c0,0,0.1,0,0.3,0.1c0.1,0,0.2,0.1,0.3,0.1c0.1,0,0.1,0,0.2,0s0.1,0,0.2,0h0.1H8c0.1,0,0.1,0,0.2,0
			s0.1,0,0.1,0c0.1,0,0.1,0,0.1,0h0.1h0.1c0.1,0,0.1,0,0.1,0s0,0,0,0.1c0,0,0,0.1-0.1,0.1l-0.1,0.1l-0.1,0.1c-0.1,0-0.1,0.1-0.2,0.1
			S8.1,50.8,8,50.8H7.9H7.8c-0.1,0-0.1,0-0.2,0s-0.1,0-0.2-0.1s-0.2-0.1-0.3-0.2C6.9,50.1,6.8,50,6.8,50"/>
	</g>
	<g>
		<defs>
			<polygon id="SVGID_109_" points="7.1,15.8 7.1,53.7 8.3,53.7 8.3,15.8 8.3,15.7 			"/>
		</defs>
		<clipPath id="SVGID_110_">
			<use xlink:href="#SVGID_109_"  style="overflow:visible;"/>
		</clipPath>
		<path class="st55" d="M6.8,48.4c0,0,0.1,0,0.3,0.1c0.1,0,0.2,0.1,0.3,0.1c0.1,0,0.1,0,0.2,0s0.1,0,0.2,0h0.1H8c0.1,0,0.1,0,0.2,0
			s0.1,0,0.1,0c0.1,0,0.1,0,0.1,0h0.1h0.1c0.1,0,0.1,0,0.1,0s0,0,0,0.1c0,0,0,0.1-0.1,0.1l-0.1,0.1L8.4,49c-0.1,0-0.1,0.1-0.2,0.1
			S8.1,49.2,8,49.2H7.9H7.8c-0.1,0-0.1,0-0.2,0s-0.1,0-0.2-0.1S7.2,49,7.1,48.9C6.9,48.6,6.8,48.4,6.8,48.4"/>
	</g>
	<g>
		<defs>
			<polygon id="SVGID_111_" points="7.1,15.8 7.1,53.7 8.3,53.7 8.3,15.8 8.3,15.7 			"/>
		</defs>
		<clipPath id="SVGID_112_">
			<use xlink:href="#SVGID_111_"  style="overflow:visible;"/>
		</clipPath>
		<path class="st56" d="M6.8,46.8c0,0,0.1,0,0.3,0.1c0.1,0,0.2,0.1,0.3,0.1c0.1,0,0.1,0,0.2,0s0.1,0,0.2,0h0.1H8c0.1,0,0.1,0,0.2,0
			s0.1,0,0.1,0c0.1,0,0.1,0,0.1,0h0.1h0.1c0.1,0,0.1,0,0.1,0s0,0,0,0.1c0,0,0,0.1-0.1,0.1l-0.1,0.1l-0.1,0.1c-0.1,0-0.1,0.1-0.2,0.1
			S8.1,47.6,8,47.6H7.9H7.8c-0.1,0-0.1,0-0.2,0s-0.1,0-0.2-0.1s-0.2-0.1-0.3-0.2C6.9,47,6.8,46.8,6.8,46.8"/>
	</g>
	<g>
		<defs>
			<polygon id="SVGID_113_" points="7.1,15.8 7.1,53.7 8.3,53.7 8.3,15.8 8.3,15.7 			"/>
		</defs>
		<clipPath id="SVGID_114_">
			<use xlink:href="#SVGID_113_"  style="overflow:visible;"/>
		</clipPath>
		<path class="st57" d="M6.8,45.2c0,0,0.1,0,0.3,0.1c0.1,0,0.2,0.1,0.3,0.1c0.1,0,0.1,0,0.2,0s0.1,0,0.2,0h0.1H8c0.1,0,0.1,0,0.2,0
			s0.1,0,0.1,0c0.1,0,0.1,0,0.1,0h0.1h0.1c0.1,0,0.1,0,0.1,0s0,0,0,0.1c0,0,0,0.1-0.1,0.1l-0.1,0.1l-0.1,0.1c-0.1,0-0.1,0.1-0.2,0.1
			S8.1,46,8,46H7.9H7.8c-0.1,0-0.1,0-0.2,0s-0.1,0-0.2-0.1s-0.2-0.1-0.3-0.2C6.9,45.4,6.8,45.2,6.8,45.2"/>
	</g>
	<g>
		<defs>
			<polygon id="SVGID_115_" points="7.1,15.8 7.1,53.7 8.3,53.7 8.3,15.8 8.3,15.7 			"/>
		</defs>
		<clipPath id="SVGID_116_">
			<use xlink:href="#SVGID_115_"  style="overflow:visible;"/>
		</clipPath>
		<path class="st58" d="M6.8,43.6c0,0,0.1,0,0.3,0.1c0.1,0,0.2,0.1,0.3,0.1c0.1,0,0.1,0,0.2,0s0.1,0,0.2,0h0.1H8c0.1,0,0.1,0,0.2,0
			s0.1,0,0.1,0c0.1,0,0.1,0,0.1,0h0.1h0.1c0.1,0,0.1,0,0.1,0s0,0,0,0.1c0,0,0,0.1-0.1,0.1l-0.1,0.1l-0.1,0.1c-0.1,0-0.1,0.1-0.2,0.1
			S8.1,44.4,8,44.4H7.9H7.8c-0.1,0-0.1,0-0.2,0s-0.1,0-0.2-0.1s-0.2-0.1-0.3-0.2C6.9,43.8,6.8,43.6,6.8,43.6"/>
	</g>
	<g>
		<defs>
			<polygon id="SVGID_117_" points="7.1,15.8 7.1,53.7 8.3,53.7 8.3,15.8 8.3,15.7 			"/>
		</defs>
		<clipPath id="SVGID_118_">
			<use xlink:href="#SVGID_117_"  style="overflow:visible;"/>
		</clipPath>
		<path class="st59" d="M6.8,42c0,0,0.1,0,0.3,0.1c0.1,0,0.2,0.1,0.3,0.1c0.1,0,0.1,0,0.2,0s0.1,0,0.2,0h0.1H8c0.1,0,0.1,0,0.2,0
			s0.1,0,0.1,0c0.1,0,0.1,0,0.1,0h0.1h0.1c0.1,0,0.1,0,0.1,0s0,0,0,0.1c0,0,0,0.1-0.1,0.1l-0.1,0.1l-0.1,0.1c-0.1,0-0.1,0.1-0.2,0.1
			S8.1,42.8,8,42.8H7.9H7.8c-0.1,0-0.1,0-0.2,0s-0.1,0-0.2-0.1s-0.2-0.1-0.3-0.2C6.9,42.2,6.8,42,6.8,42"/>
	</g>
	<g>
		<defs>
			<polygon id="SVGID_119_" points="7.1,15.8 7.1,53.7 8.3,53.7 8.3,15.8 8.3,15.7 			"/>
		</defs>
		<clipPath id="SVGID_120_">
			<use xlink:href="#SVGID_119_"  style="overflow:visible;"/>
		</clipPath>
		<path class="st60" d="M6.8,40.4c0,0,0.1,0,0.3,0.1c0.1,0,0.2,0.1,0.3,0.1c0.1,0,0.1,0,0.2,0s0.1,0,0.2,0h0.1H8c0.1,0,0.1,0,0.2,0
			s0.1,0,0.1,0c0.1,0,0.1,0,0.1,0h0.1h0.1c0.1,0,0.1,0,0.1,0s0,0,0,0.1c0,0,0,0.1-0.1,0.1l-0.1,0.1L8.4,41c-0.1,0-0.1,0.1-0.2,0.1
			S8.1,41.2,8,41.2H7.9H7.8c-0.1,0-0.1,0-0.2,0s-0.1,0-0.2-0.1S7.2,41,7.1,40.9C6.9,40.6,6.8,40.4,6.8,40.4"/>
	</g>
	<g>
		<defs>
			<polygon id="SVGID_121_" points="7.1,15.8 7.1,53.7 8.3,53.7 8.3,15.8 8.3,15.7 			"/>
		</defs>
		<clipPath id="SVGID_122_">
			<use xlink:href="#SVGID_121_"  style="overflow:visible;"/>
		</clipPath>
		<path class="st61" d="M6.8,38.8c0,0,0.1,0,0.3,0.1c0.1,0,0.2,0.1,0.3,0.1c0.1,0,0.1,0,0.2,0s0.1,0,0.2,0h0.1H8c0.1,0,0.1,0,0.2,0
			s0.1,0,0.1,0c0.1,0,0.1,0,0.1,0h0.1h0.1c0.1,0,0.1,0,0.1,0s0,0,0,0.1c0,0,0,0.1-0.1,0.1l-0.1,0.1l-0.1,0.1c-0.1,0-0.1,0.1-0.2,0.1
			S8.1,39.6,8,39.6H7.9H7.8c-0.1,0-0.1,0-0.2,0s-0.1,0-0.2-0.1s-0.2-0.1-0.3-0.2C6.9,39,6.8,38.8,6.8,38.8"/>
	</g>
	<g>
		<defs>
			<polygon id="SVGID_123_" points="7.1,15.8 7.1,53.7 8.3,53.7 8.3,15.8 8.3,15.7 			"/>
		</defs>
		<clipPath id="SVGID_124_">
			<use xlink:href="#SVGID_123_"  style="overflow:visible;"/>
		</clipPath>
		<path class="st62" d="M6.8,37.2c0,0,0.1,0,0.3,0.1c0.1,0,0.2,0.1,0.3,0.1c0.1,0,0.1,0,0.2,0s0.1,0,0.2,0h0.1H8c0.1,0,0.1,0,0.2,0
			s0.1,0,0.1,0c0.1,0,0.1,0,0.1,0h0.1h0.1c0.1,0,0.1,0,0.1,0s0,0,0,0.1c0,0,0,0.1-0.1,0.1l-0.1,0.1l-0.1,0.1c-0.1,0-0.1,0.1-0.2,0.1
			S8.1,38,8,38H7.9H7.8c-0.1,0-0.1,0-0.2,0s-0.1,0-0.2-0.1s-0.2-0.1-0.3-0.2C6.9,37.4,6.8,37.2,6.8,37.2"/>
	</g>
	<g>
		<defs>
			<polygon id="SVGID_125_" points="7.1,15.8 7.1,53.7 8.3,53.7 8.3,15.8 8.3,15.7 			"/>
		</defs>
		<clipPath id="SVGID_126_">
			<use xlink:href="#SVGID_125_"  style="overflow:visible;"/>
		</clipPath>
		<path class="st63" d="M6.8,35.6c0,0,0.1,0,0.3,0.1c0.1,0,0.2,0.1,0.3,0.1c0.1,0,0.1,0,0.2,0s0.1,0,0.2,0h0.1H8c0.1,0,0.1,0,0.2,0
			s0.1,0,0.1,0c0.1,0,0.1,0,0.1,0h0.1h0.1c0.1,0,0.1,0,0.1,0s0,0,0,0.1c0,0,0,0.1-0.1,0.1l-0.1,0.1l-0.1,0.1c-0.1,0-0.1,0.1-0.2,0.1
			S8.1,36.4,8,36.4H7.9H7.8c-0.1,0-0.1,0-0.2,0s-0.1,0-0.2-0.1s-0.2-0.1-0.3-0.2C6.9,35.8,6.8,35.6,6.8,35.6"/>
	</g>
	<g>
		<defs>
			<polygon id="SVGID_127_" points="7.1,15.8 7.1,53.7 8.3,53.7 8.3,15.8 8.3,15.7 			"/>
		</defs>
		<clipPath id="SVGID_128_">
			<use xlink:href="#SVGID_127_"  style="overflow:visible;"/>
		</clipPath>
		<path class="st64" d="M6.8,34c0,0,0.1,0,0.3,0.1c0.1,0,0.2,0.1,0.3,0.1c0.1,0,0.1,0,0.2,0s0.1,0,0.2,0h0.1H8c0.1,0,0.1,0,0.2,0
			s0.1,0,0.1,0c0.1,0,0.1,0,0.1,0h0.1h0.1c0.1,0,0.1,0,0.1,0s0,0,0,0.1c0,0,0,0.1-0.1,0.1l-0.1,0.1l-0.1,0.1c-0.1,0-0.1,0.1-0.2,0.1
			S8.1,34.8,8,34.8H7.9H7.8c-0.1,0-0.1,0-0.2,0s-0.1,0-0.2-0.1s-0.2-0.1-0.3-0.2C6.9,34.2,6.8,34,6.8,34"/>
	</g>
	<g>
		<defs>
			<polygon id="SVGID_129_" points="7.1,15.8 7.1,53.7 8.3,53.7 8.3,15.8 8.3,15.7 			"/>
		</defs>
		<clipPath id="SVGID_130_">
			<use xlink:href="#SVGID_129_"  style="overflow:visible;"/>
		</clipPath>
		<path class="st65" d="M6.8,32.4c0,0,0.1,0,0.3,0.1c0.1,0,0.2,0.1,0.3,0.1c0.1,0,0.1,0,0.2,0s0.1,0,0.2,0h0.1H8c0.1,0,0.1,0,0.2,0
			s0.1,0,0.1,0c0.1,0,0.1,0,0.1,0h0.1h0.1c0.1,0,0.1,0,0.1,0s0,0,0,0.1c0,0,0,0.1-0.1,0.1l-0.1,0.1L8.4,33c-0.1,0-0.1,0.1-0.2,0.1
			S8.1,33.2,8,33.2H7.9H7.8c-0.1,0-0.1,0-0.2,0s-0.1,0-0.2-0.1S7.2,33,7.1,32.9C6.9,32.6,6.8,32.4,6.8,32.4"/>
	</g>
	<g>
		<defs>
			<polygon id="SVGID_131_" points="7.1,15.8 7.1,53.7 8.3,53.7 8.3,15.8 8.3,15.7 			"/>
		</defs>
		<clipPath id="SVGID_132_">
			<use xlink:href="#SVGID_131_"  style="overflow:visible;"/>
		</clipPath>
		<path class="st66" d="M6.8,30.8c0,0,0.1,0,0.3,0.1c0.1,0,0.2,0.1,0.3,0.1c0.1,0,0.1,0,0.2,0s0.1,0,0.2,0h0.1H8c0.1,0,0.1,0,0.2,0
			s0.1,0,0.1,0c0.1,0,0.1,0,0.1,0h0.1h0.1c0.1,0,0.1,0,0.1,0s0,0,0,0.1c0,0,0,0.1-0.1,0.1l-0.1,0.1l-0.1,0.1c-0.1,0-0.1,0.1-0.2,0.1
			S8.1,31.6,8,31.6H7.9H7.8c-0.1,0-0.1,0-0.2,0s-0.1,0-0.2-0.1s-0.2-0.1-0.3-0.2C6.9,31,6.8,30.8,6.8,30.8"/>
	</g>
	<g>
		<defs>
			<polygon id="SVGID_133_" points="7.1,15.8 7.1,53.7 8.3,53.7 8.3,15.8 8.3,15.7 			"/>
		</defs>
		<clipPath id="SVGID_134_">
			<use xlink:href="#SVGID_133_"  style="overflow:visible;"/>
		</clipPath>
		<path class="st67" d="M6.8,29.2c0,0,0.1,0,0.3,0.1c0.1,0,0.2,0.1,0.3,0.1c0.1,0,0.1,0,0.2,0s0.1,0,0.2,0h0.1H8c0.1,0,0.1,0,0.2,0
			s0.1,0,0.1,0c0.1,0,0.1,0,0.1,0h0.1h0.1c0.1,0,0.1,0,0.1,0s0,0,0,0.1c0,0,0,0.1-0.1,0.1l-0.1,0.1l-0.1,0.1c-0.1,0-0.1,0.1-0.2,0.1
			S8.1,30,8,30H7.9H7.8c-0.1,0-0.1,0-0.2,0s-0.1,0-0.2-0.1s-0.2-0.1-0.3-0.2C6.9,29.4,6.8,29.2,6.8,29.2"/>
	</g>
	<g>
		<defs>
			<polygon id="SVGID_135_" points="7.1,15.8 7.1,53.7 8.3,53.7 8.3,15.8 8.3,15.7 			"/>
		</defs>
		<clipPath id="SVGID_136_">
			<use xlink:href="#SVGID_135_"  style="overflow:visible;"/>
		</clipPath>
		<path class="st68" d="M6.8,27.6c0,0,0.1,0,0.3,0.1c0.1,0,0.2,0.1,0.3,0.1c0.1,0,0.1,0,0.2,0s0.1,0,0.2,0h0.1H8c0.1,0,0.1,0,0.2,0
			s0.1,0,0.1,0c0.1,0,0.1,0,0.1,0h0.1h0.1c0.1,0,0.1,0,0.1,0s0,0,0,0.1c0,0,0,0.1-0.1,0.1l-0.1,0.1l-0.1,0.1c-0.1,0-0.1,0.1-0.2,0.1
			S8.1,28.4,8,28.4H7.9H7.8c-0.1,0-0.1,0-0.2,0s-0.1,0-0.2-0.1s-0.2-0.1-0.3-0.2C6.9,27.8,6.8,27.6,6.8,27.6"/>
	</g>
	<g>
		<defs>
			<polygon id="SVGID_137_" points="7.1,15.8 7.1,53.7 8.3,53.7 8.3,15.8 8.3,15.7 			"/>
		</defs>
		<clipPath id="SVGID_138_">
			<use xlink:href="#SVGID_137_"  style="overflow:visible;"/>
		</clipPath>
		<path class="st69" d="M6.8,26c0,0,0.1,0,0.3,0.1c0.1,0,0.2,0.1,0.3,0.1c0.1,0,0.1,0,0.2,0s0.1,0,0.2,0h0.1H8c0.1,0,0.1,0,0.2,0
			s0.1,0,0.1,0c0.1,0,0.1,0,0.1,0h0.1h0.1c0.1,0,0.1,0,0.1,0s0,0,0,0.1c0,0,0,0.1-0.1,0.1l-0.1,0.1l-0.1,0.1c-0.1,0-0.1,0.1-0.2,0.1
			S8.1,26.8,8,26.8H7.9H7.8c-0.1,0-0.1,0-0.2,0s-0.1,0-0.2-0.1s-0.2-0.1-0.3-0.2C6.9,26.2,6.8,26,6.8,26"/>
	</g>
	<g>
		<defs>
			<polygon id="SVGID_139_" points="7.1,15.8 7.1,53.7 8.3,53.7 8.3,15.8 8.3,15.7 			"/>
		</defs>
		<clipPath id="SVGID_140_">
			<use xlink:href="#SVGID_139_"  style="overflow:visible;"/>
		</clipPath>
		<path class="st70" d="M6.8,24.5c0,0,0.1,0,0.3,0.1c0.1,0,0.2,0.1,0.3,0.1c0.1,0,0.1,0,0.2,0s0.1,0,0.2,0h0.1H8c0.1,0,0.1,0,0.2,0
			s0.1,0,0.1,0c0.1,0,0.1,0,0.1,0h0.1h0.1c0.1,0,0.1,0,0.1,0s0,0,0,0.1c0,0,0,0.1-0.1,0.1L8.5,25l-0.1,0.1c-0.1,0-0.1,0.1-0.2,0.1
			S8.1,25.3,8,25.3H7.9H7.8c-0.1,0-0.1,0-0.2,0s-0.1,0-0.2-0.1S7.2,25.1,7.1,25C6.9,24.6,6.8,24.5,6.8,24.5"/>
	</g>
	<g>
		<defs>
			<polygon id="SVGID_141_" points="7.1,15.8 7.1,53.7 8.3,53.7 8.3,15.8 8.3,15.7 			"/>
		</defs>
		<clipPath id="SVGID_142_">
			<use xlink:href="#SVGID_141_"  style="overflow:visible;"/>
		</clipPath>
		<path class="st71" d="M6.8,22.9c0,0,0.1,0,0.3,0.1c0.1,0,0.2,0.1,0.3,0.1c0.1,0,0.1,0,0.2,0s0.1,0,0.2,0h0.1H8c0.1,0,0.1,0,0.2,0
			s0.1,0,0.1,0c0.1,0,0.1,0,0.1,0h0.1h0.1c0.1,0,0.1,0,0.1,0s0,0,0,0.1c0,0,0,0.1-0.1,0.1l-0.1,0.1l-0.1,0.1c-0.1,0-0.1,0.1-0.2,0.1
			S8.1,23.7,8,23.7H7.9H7.8c-0.1,0-0.1,0-0.2,0s-0.1,0-0.2-0.1s-0.2-0.1-0.3-0.2C6.9,23,6.8,22.9,6.8,22.9"/>
	</g>
	<g>
		<defs>
			<polygon id="SVGID_143_" points="7.1,15.8 7.1,53.7 8.3,53.7 8.3,15.8 8.3,15.7 			"/>
		</defs>
		<clipPath id="SVGID_144_">
			<use xlink:href="#SVGID_143_"  style="overflow:visible;"/>
		</clipPath>
		<path class="st72" d="M6.8,21.3c0,0,0.1,0,0.3,0.1c0.1,0,0.2,0.1,0.3,0.1c0.1,0,0.1,0,0.2,0s0.1,0,0.2,0h0.1H8c0.1,0,0.1,0,0.2,0
			s0.1,0,0.1,0c0.1,0,0.1,0,0.1,0h0.1h0.1c0.1,0,0.1,0,0.1,0s0,0,0,0.1c0,0,0,0.1-0.1,0.1l-0.1,0.1l-0.1,0.1c-0.1,0-0.1,0.1-0.2,0.1
			S8.1,22.1,8,22.1H7.9H7.8c-0.1,0-0.1,0-0.2,0s-0.1,0-0.2-0.1s-0.2-0.1-0.3-0.2C6.9,21.4,6.8,21.3,6.8,21.3"/>
	</g>
	<g>
		<defs>
			<polygon id="SVGID_145_" points="7.1,15.8 7.1,53.7 8.3,53.7 8.3,15.8 8.3,15.7 			"/>
		</defs>
		<clipPath id="SVGID_146_">
			<use xlink:href="#SVGID_145_"  style="overflow:visible;"/>
		</clipPath>
		<path class="st73" d="M6.8,19.7c0,0,0.1,0,0.3,0.1c0.1,0,0.2,0.1,0.3,0.1c0.1,0,0.1,0,0.2,0s0.1,0,0.2,0h0.1H8c0.1,0,0.1,0,0.2,0
			s0.1,0,0.1,0c0.1,0,0.1,0,0.1,0h0.1h0.1c0.1,0,0.1,0,0.1,0s0,0,0,0.1c0,0,0,0.1-0.1,0.1l-0.1,0.1l-0.1,0.1c-0.1,0-0.1,0.1-0.2,0.1
			S8.1,20.5,8,20.5H7.9H7.8c-0.1,0-0.1,0-0.2,0s-0.1,0-0.2-0.1s-0.2-0.1-0.3-0.2C6.9,19.8,6.8,19.7,6.8,19.7"/>
	</g>
	<g>
		<defs>
			<polygon id="SVGID_147_" points="7.1,15.8 7.1,53.7 8.3,53.7 8.3,15.8 8.3,15.7 			"/>
		</defs>
		<clipPath id="SVGID_148_">
			<use xlink:href="#SVGID_147_"  style="overflow:visible;"/>
		</clipPath>
		<path class="st74" d="M6.8,18.1c0,0,0.1,0,0.3,0.1c0.1,0,0.2,0.1,0.3,0.1c0.1,0,0.1,0,0.2,0s0.1,0,0.2,0h0.1H8c0.1,0,0.1,0,0.2,0
			s0.1,0,0.1,0c0.1,0,0.1,0,0.1,0h0.1h0.1c0.1,0,0.1,0,0.1,0s0,0,0,0.1c0,0,0,0.1-0.1,0.1l-0.1,0.1l-0.1,0.1c-0.1,0-0.1,0.1-0.2,0.1
			S8.1,18.9,8,18.9H7.9H7.8c-0.1,0-0.1,0-0.2,0s-0.1,0-0.2-0.1s-0.2-0.1-0.3-0.2C6.9,18.2,6.8,18.1,6.8,18.1"/>
	</g>
</g>
<g>
	<g>
		<defs>
			<rect id="SVGID_149_" x="-10.7" y="4.6" width="78.3" height="50.3"/>
		</defs>
		<clipPath id="SVGID_150_">
			<use xlink:href="#SVGID_149_"  style="overflow:visible;"/>
		</clipPath>
		<path class="st75" d="M17.5,18.2c0,0-2,5.3,0,5.3C19.4,23.5,17.5,18.2,17.5,18.2"/>
	</g>
	<g>
		<defs>
			<rect id="SVGID_151_" x="-10.7" y="4.6" width="78.3" height="50.3"/>
		</defs>
		<clipPath id="SVGID_152_">
			<use xlink:href="#SVGID_151_"  style="overflow:visible;"/>
		</clipPath>
		<path class="st76" d="M19.8,13.3c0,0-0.2,4.8,1.6,3.7C23.1,15.9,19.8,13.3,19.8,13.3"/>
	</g>
	<g>
		<defs>
			<rect id="SVGID_153_" x="-10.7" y="4.6" width="78.3" height="50.3"/>
		</defs>
		<clipPath id="SVGID_154_">
			<use xlink:href="#SVGID_153_"  style="overflow:visible;"/>
		</clipPath>
		<path class="st77" d="M17.1,27c0,0-2.5,4.5-0.8,4.8C18,32,17.1,27,17.1,27"/>
	</g>
	<g>
		<defs>
			<rect id="SVGID_155_" x="-10.7" y="4.6" width="78.3" height="50.3"/>
		</defs>
		<clipPath id="SVGID_156_">
			<use xlink:href="#SVGID_155_"  style="overflow:visible;"/>
		</clipPath>
		<path class="st78" d="M15,22.9c0,0-3.3,3.7-1.9,4.5C14.5,28.1,15,22.9,15,22.9"/>
	</g>
	<g>
		<defs>
			<rect id="SVGID_157_" x="-10.7" y="4.6" width="78.3" height="50.3"/>
		</defs>
		<clipPath id="SVGID_158_">
			<use xlink:href="#SVGID_157_"  style="overflow:visible;"/>
		</clipPath>
		<path class="st79" d="M27.7,13.3c0,0,2.1,3.5,3,2.3C31.6,14.5,27.7,13.3,27.7,13.3"/>
	</g>
	<g>
		<defs>
			<rect id="SVGID_159_" x="-10.7" y="4.6" width="78.3" height="50.3"/>
		</defs>
		<clipPath id="SVGID_160_">
			<use xlink:href="#SVGID_159_"  style="overflow:visible;"/>
		</clipPath>
		<path class="st80" d="M31.2,11.2c0,0,4.4-2.3,4.7-0.2C36,13,31.2,11.2,31.2,11.2"/>
	</g>
	<g>
		<defs>
			<rect id="SVGID_161_" x="-10.7" y="4.6" width="78.3" height="50.3"/>
		</defs>
		<clipPath id="SVGID_162_">
			<use xlink:href="#SVGID_161_"  style="overflow:visible;"/>
		</clipPath>
		<path class="st81" d="M44.4,22c0,0,0.8,6.4,3.2,4.9C50,25.5,44.4,22,44.4,22"/>
	</g>
	<g>
		<defs>
			<rect id="SVGID_163_" x="-10.7" y="4.6" width="78.3" height="50.3"/>
		</defs>
		<clipPath id="SVGID_164_">
			<use xlink:href="#SVGID_163_"  style="overflow:visible;"/>
		</clipPath>
		<path class="st82" d="M17.8,34.2c0,0-4.4,4.6-2.4,5.9C17.3,41.4,17.8,34.2,17.8,34.2"/>
	</g>
	<g>
		<defs>
			<rect id="SVGID_165_" x="-10.7" y="4.6" width="78.3" height="50.3"/>
		</defs>
		<clipPath id="SVGID_166_">
			<use xlink:href="#SVGID_165_"  style="overflow:visible;"/>
		</clipPath>
		<path class="st83" d="M13.9,30.9c0,0-3.5,3.3-1.6,4.3C14.1,36.2,13.9,30.9,13.9,30.9"/>
	</g>
	<g>
		<defs>
			<rect id="SVGID_167_" x="-10.7" y="4.6" width="78.3" height="50.3"/>
		</defs>
		<clipPath id="SVGID_168_">
			<use xlink:href="#SVGID_167_"  style="overflow:visible;"/>
		</clipPath>
		<path class="st84" d="M54.7,17.8c-1.2,0.6-4.4,2-2.8,3.1c1.6,1.1,1.9,2.2,1,3.1s-3.2,3.2,0,3.5c3.2,0.4,8.1-0.8,6.7-2.9
			c-1.4-2.1-3.7-2.5-2.7-3.8C57.9,19.6,56.8,16.8,54.7,17.8"/>
	</g>
	<g>
		<defs>
			<rect id="SVGID_169_" x="-10.7" y="4.6" width="78.3" height="50.3"/>
		</defs>
		<clipPath id="SVGID_170_">
			<use xlink:href="#SVGID_169_"  style="overflow:visible;"/>
		</clipPath>
		<path class="st85" d="M49.3,4.8C47,4.6,36.1,5.1,37.1,6.2c1,1,4.4,0.2,4.4,1.2c-0.1,1-5.5,0.4-4.4,1s3.7-0.1,4,0.7s-5.6,0-4,1.1
			s16,2.2,14.1,0.3s-6.3-1.9-6.3-2.3c0-0.4,4.1,0.5,3.8-0.3s-3.2-0.8-3.2-1.2S54.5,5.2,49.3,4.8"/>
	</g>
	<g>
		<defs>
			<rect id="SVGID_171_" x="-10.7" y="4.6" width="78.3" height="50.3"/>
		</defs>
		<clipPath id="SVGID_172_">
			<use xlink:href="#SVGID_171_"  style="overflow:visible;"/>
		</clipPath>
		<path class="st86" d="M52.4,50.4c0,2.4-2,4.4-4.4,4.4s-4.4-2-4.4-4.4s2-4.4,4.4-4.4C50.5,46,52.4,48,52.4,50.4"/>
	</g>
	<g>
		<defs>
			<rect id="SVGID_173_" x="-10.7" y="4.6" width="78.3" height="50.3"/>
		</defs>
		<clipPath id="SVGID_174_">
			<use xlink:href="#SVGID_173_"  style="overflow:visible;"/>
		</clipPath>
		<path class="st87" d="M49.4,53.5c-1.7,0.8-3.7,0-4.5-1.7s0-3.7,1.7-4.5s3.7,0,4.5,1.7S51.1,52.7,49.4,53.5"/>
	</g>
	<g>
		<defs>
			<rect id="SVGID_175_" x="-10.7" y="4.6" width="78.3" height="50.3"/>
		</defs>
		<clipPath id="SVGID_176_">
			<use xlink:href="#SVGID_175_"  style="overflow:visible;"/>
		</clipPath>
		<g class="st88">
			<g>
				<g>
					<defs>
						
							<rect id="SVGID_177_" x="47.8" y="50.2" transform="matrix(0.6506 -0.7595 0.7595 0.6506 -22.4557 55.2694)" width="2" height="3.7"/>
					</defs>
					<clipPath id="SVGID_178_">
						<use xlink:href="#SVGID_177_"  style="overflow:visible;"/>
					</clipPath>
					<g class="st89">
						<g>
							<defs>
								
									<rect id="SVGID_179_" x="47.8" y="50.2" transform="matrix(0.6506 -0.7595 0.7595 0.6506 -22.4557 55.2694)" width="2" height="3.7"/>
							</defs>
							<clipPath id="SVGID_180_">
								<use xlink:href="#SVGID_179_"  style="overflow:visible;"/>
							</clipPath>
							<path class="st90" d="M50.8,52.5L48,50.1l0.9,3.5C49,53.6,49.9,53.6,50.8,52.5"/>
						</g>
					</g>
				</g>
			</g>
		</g>
	</g>
	<g>
		<defs>
			<rect id="SVGID_181_" x="-10.7" y="4.6" width="78.3" height="50.3"/>
		</defs>
		<clipPath id="SVGID_182_">
			<use xlink:href="#SVGID_181_"  style="overflow:visible;"/>
		</clipPath>
		<polyline class="st91" points="49.3,53 49,53.5 48.4,53.2 		"/>
	</g>
	<g>
		<defs>
			<rect id="SVGID_183_" x="-10.7" y="4.6" width="78.3" height="50.3"/>
		</defs>
		<clipPath id="SVGID_184_">
			<use xlink:href="#SVGID_183_"  style="overflow:visible;"/>
		</clipPath>
		<polyline class="st92" points="49.9,51.3 50,51.9 49.4,51.9 		"/>
	</g>
	<g>
		<defs>
			<rect id="SVGID_185_" x="-10.7" y="4.6" width="78.3" height="50.3"/>
		</defs>
		<clipPath id="SVGID_186_">
			<use xlink:href="#SVGID_185_"  style="overflow:visible;"/>
		</clipPath>
		<polyline class="st93" points="48.7,53.2 48.1,50.4 49.7,51.7 		"/>
	</g>
	<g>
		<defs>
			<rect id="SVGID_187_" x="-10.7" y="4.6" width="78.3" height="50.3"/>
		</defs>
		<clipPath id="SVGID_188_">
			<use xlink:href="#SVGID_187_"  style="overflow:visible;"/>
		</clipPath>
		<path class="st94" d="M48.6,50.4c0,0.3-0.3,0.6-0.6,0.6s-0.6-0.3-0.6-0.6s0.3-0.6,0.6-0.6S48.6,50.1,48.6,50.4"/>
	</g>
	<g>
		<defs>
			<rect id="SVGID_189_" x="-10.7" y="4.6" width="78.3" height="50.3"/>
		</defs>
		<clipPath id="SVGID_190_">
			<use xlink:href="#SVGID_189_"  style="overflow:visible;"/>
		</clipPath>
		<ellipse class="st95" cx="48" cy="50.4" rx="0.6" ry="0.6"/>
	</g>
	<g>
		<defs>
			<rect id="SVGID_191_" x="-10.7" y="4.6" width="78.3" height="50.3"/>
		</defs>
		<clipPath id="SVGID_192_">
			<use xlink:href="#SVGID_191_"  style="overflow:visible;"/>
		</clipPath>
		<path class="st96" d="M45.6,49.3c0,0,0,0.1,0,0.2c0,0.1,0,0.3,0.1,0.6c0,0.2,0.1,0.5,0.2,0.8c0,0.1,0.1,0.3,0.1,0.4
			c0.1,0.1,0.1,0.3,0.2,0.4c0.1,0.1,0.1,0.3,0.2,0.4c0.1,0.1,0.2,0.2,0.3,0.3c0.1,0.1,0.2,0.2,0.3,0.3c0.1,0.1,0.2,0.1,0.3,0.2
			c0,0,0.1,0,0.1,0.1c0,0,0.1,0,0.1,0.1c0.1,0,0.2,0.1,0.2,0.1c0.1,0,0.2,0.1,0.2,0.1s-0.1,0-0.2,0s-0.2,0-0.3,0
			c-0.1,0-0.2,0-0.3-0.1c-0.1,0-0.3-0.1-0.4-0.1c-0.1-0.1-0.3-0.1-0.4-0.3c-0.1-0.1-0.1-0.1-0.2-0.2c-0.1-0.1-0.1-0.1-0.2-0.2
			c-0.1-0.1-0.2-0.3-0.3-0.4c-0.1-0.3-0.2-0.6-0.3-1c0-0.2,0-0.3,0-0.4c0-0.1,0-0.3,0-0.4c0-0.2,0.1-0.4,0.1-0.6
			C45.6,49.4,45.6,49.3,45.6,49.3"/>
	</g>
	<g>
		<defs>
			<rect id="SVGID_193_" x="-10.7" y="4.6" width="78.3" height="50.3"/>
		</defs>
		<clipPath id="SVGID_194_">
			<use xlink:href="#SVGID_193_"  style="overflow:visible;"/>
		</clipPath>
		<path class="st97" d="M52.1,49.8c0,0,0,0.1,0,0.3s0,0.5,0,0.8c0,0.2,0,0.3-0.1,0.5c0,0.2-0.1,0.4-0.2,0.6
			c-0.1,0.2-0.2,0.4-0.3,0.6c-0.1,0.2-0.2,0.4-0.4,0.5L51,53.2l-0.1,0.1c-0.1,0.1-0.2,0.1-0.3,0.2c-0.2,0.1-0.4,0.3-0.5,0.4
			c-0.2,0.1-0.4,0.2-0.5,0.2c-0.2,0.1-0.3,0.1-0.5,0.2c-0.2,0-0.3,0.1-0.4,0.1c-0.1,0-0.2,0-0.3,0c-0.2,0-0.3,0-0.3,0s0.1,0,0.3-0.1
			c0.1,0,0.2-0.1,0.3-0.1s0.3-0.1,0.4-0.2c0.1,0,0.1-0.1,0.2-0.1c0.1,0,0.2-0.1,0.2-0.1c0.2-0.1,0.3-0.2,0.5-0.3
			c0.1-0.1,0.2-0.1,0.2-0.2c0.1-0.1,0.2-0.1,0.2-0.2c0.1-0.1,0.1-0.1,0.2-0.2l0.1-0.1l0.1-0.1c0.1-0.1,0.3-0.3,0.4-0.5
			c0.1-0.2,0.2-0.3,0.3-0.5s0.2-0.3,0.2-0.5c0.1-0.2,0.1-0.3,0.2-0.5c0.1-0.3,0.1-0.6,0.2-0.7C52,49.9,52.1,49.8,52.1,49.8"/>
	</g>
	<g>
		<defs>
			<rect id="SVGID_195_" x="-10.7" y="4.6" width="78.3" height="50.3"/>
		</defs>
		<clipPath id="SVGID_196_">
			<use xlink:href="#SVGID_195_"  style="overflow:visible;"/>
		</clipPath>
		<polygon class="st98" points="12.8,54.1 2.6,54.1 3.5,52.7 11.9,52.7 		"/>
	</g>
	<g>
		<defs>
			<rect id="SVGID_197_" x="-10.7" y="4.6" width="78.3" height="50.3"/>
		</defs>
		<clipPath id="SVGID_198_">
			<use xlink:href="#SVGID_197_"  style="overflow:visible;"/>
		</clipPath>
		<path class="st99" d="M5.2,53c0,0.1-0.1,0.2-0.2,0.2S4.8,53.1,4.8,53v-0.9c0-0.1,0.1-0.2,0.2-0.2s0.2,0.1,0.2,0.2V53z"/>
	</g>
	<g>
		<defs>
			<rect id="SVGID_199_" x="-10.7" y="4.6" width="78.3" height="50.3"/>
		</defs>
		<clipPath id="SVGID_200_">
			<use xlink:href="#SVGID_199_"  style="overflow:visible;"/>
		</clipPath>
		<path class="st100" d="M5.9,51.9c0,0.2-0.4,0.4-0.9,0.4s-0.9-0.2-0.9-0.4s0.4-0.4,0.9-0.4S5.9,51.7,5.9,51.9"/>
	</g>
	<g>
		<defs>
			<rect id="SVGID_201_" x="-10.7" y="4.6" width="78.3" height="50.3"/>
		</defs>
		<clipPath id="SVGID_202_">
			<use xlink:href="#SVGID_201_"  style="overflow:visible;"/>
		</clipPath>
		<path class="st101" d="M7.9,53c0,0.1-0.1,0.2-0.2,0.2S7.5,53.1,7.5,53v-0.9c0-0.1,0.1-0.2,0.2-0.2s0.2,0.1,0.2,0.2V53z"/>
	</g>
	<g>
		<defs>
			<rect id="SVGID_203_" x="-10.7" y="4.6" width="78.3" height="50.3"/>
		</defs>
		<clipPath id="SVGID_204_">
			<use xlink:href="#SVGID_203_"  style="overflow:visible;"/>
		</clipPath>
		<path class="st102" d="M8.6,51.9c0,0.2-0.4,0.4-0.9,0.4s-0.9-0.2-0.9-0.4s0.4-0.4,0.9-0.4S8.6,51.7,8.6,51.9"/>
	</g>
	<g>
		<defs>
			<rect id="SVGID_205_" x="-10.7" y="4.6" width="78.3" height="50.3"/>
		</defs>
		<clipPath id="SVGID_206_">
			<use xlink:href="#SVGID_205_"  style="overflow:visible;"/>
		</clipPath>
		<path class="st103" d="M10.6,53c0,0.1-0.1,0.2-0.2,0.2s-0.2-0.1-0.2-0.2v-0.9c0-0.1,0.1-0.2,0.2-0.2s0.2,0.1,0.2,0.2
			C10.6,52.1,10.6,53,10.6,53z"/>
	</g>
	<g>
		<defs>
			<rect id="SVGID_207_" x="-10.7" y="4.6" width="78.3" height="50.3"/>
		</defs>
		<clipPath id="SVGID_208_">
			<use xlink:href="#SVGID_207_"  style="overflow:visible;"/>
		</clipPath>
		<path class="st104" d="M11.3,51.9c0,0.2-0.4,0.4-0.9,0.4s-0.9-0.2-0.9-0.4s0.4-0.4,0.9-0.4S11.3,51.7,11.3,51.9"/>
	</g>
	<g>
		<defs>
			<rect id="SVGID_209_" x="-10.7" y="4.6" width="78.3" height="50.3"/>
		</defs>
		<clipPath id="SVGID_210_">
			<use xlink:href="#SVGID_209_"  style="overflow:visible;"/>
		</clipPath>
		<path class="st105" d="M22.2,42.1c0,0-5.4,4.7-3,6.1C21.6,49.7,22.2,42.1,22.2,42.1"/>
	</g>
	<g>
		<defs>
			<rect id="SVGID_211_" x="-10.7" y="4.6" width="78.3" height="50.3"/>
		</defs>
		<clipPath id="SVGID_212_">
			<use xlink:href="#SVGID_211_"  style="overflow:visible;"/>
		</clipPath>
		<path class="st106" d="M45.1,30.9c0,0,0.4,10,3.6,8.4C51.8,37.8,45.1,30.9,45.1,30.9"/>
	</g>
	<g>
		<defs>
			<rect id="SVGID_213_" x="-10.7" y="4.6" width="78.3" height="50.3"/>
		</defs>
		<clipPath id="SVGID_214_">
			<use xlink:href="#SVGID_213_"  style="overflow:visible;"/>
		</clipPath>
		<path class="st107" d="M40.3,37.2c0,0,1.5,6.5,2.9,5S40.3,37.2,40.3,37.2"/>
	</g>
	<g>
		<defs>
			<rect id="SVGID_215_" x="-10.7" y="4.6" width="78.3" height="50.3"/>
		</defs>
		<clipPath id="SVGID_216_">
			<use xlink:href="#SVGID_215_"  style="overflow:visible;"/>
		</clipPath>
		<path class="st108" d="M20.6,9.4c-0.1,0.1-0.1,0.2-0.1,0.2s0.1,0,0.2,0c0.1-0.1,0.1-0.2,0.1-0.2C20.8,9.3,20.7,9.3,20.6,9.4"/>
	</g>
	<g>
		<defs>
			<rect id="SVGID_217_" x="-10.7" y="4.6" width="78.3" height="50.3"/>
		</defs>
		<clipPath id="SVGID_218_">
			<use xlink:href="#SVGID_217_"  style="overflow:visible;"/>
		</clipPath>
		<path class="st109" d="M20.4,10.1c-0.1,0.1-0.1,0.2-0.1,0.2s0.1,0,0.2,0c0.1-0.1,0.1-0.2,0.1-0.2C20.6,10.1,20.5,10.1,20.4,10.1"
			/>
	</g>
	<g>
		<defs>
			<rect id="SVGID_219_" x="-10.7" y="4.6" width="78.3" height="50.3"/>
		</defs>
		<clipPath id="SVGID_220_">
			<use xlink:href="#SVGID_219_"  style="overflow:visible;"/>
		</clipPath>
		<path class="st110" d="M18.2,10.3c-0.1,0.1-0.1,0.2-0.1,0.2s0.1,0,0.2,0c0.1-0.1,0.1-0.2,0.1-0.2C18.4,10.2,18.3,10.2,18.2,10.3"
			/>
	</g>
	<g>
		<defs>
			<rect id="SVGID_221_" x="-10.7" y="4.6" width="78.3" height="50.3"/>
		</defs>
		<clipPath id="SVGID_222_">
			<use xlink:href="#SVGID_221_"  style="overflow:visible;"/>
		</clipPath>
		<path class="st111" d="M16,12.5c-0.1,0.1-0.1,0.2-0.1,0.2s0.1,0,0.2,0c0.1-0.1,0.1-0.2,0.1-0.2C16.2,12.4,16.1,12.4,16,12.5"/>
	</g>
	<g>
		<defs>
			<rect id="SVGID_223_" x="-10.7" y="4.6" width="78.3" height="50.3"/>
		</defs>
		<clipPath id="SVGID_224_">
			<use xlink:href="#SVGID_223_"  style="overflow:visible;"/>
		</clipPath>
		<path class="st112" d="M16.8,11.6c-0.1,0.1-0.1,0.2-0.1,0.2s0.1,0,0.2,0c0.1-0.1,0.1-0.2,0.1-0.2C17,11.5,16.9,11.6,16.8,11.6"/>
	</g>
	<g>
		<defs>
			<rect id="SVGID_225_" x="-10.7" y="4.6" width="78.3" height="50.3"/>
		</defs>
		<clipPath id="SVGID_226_">
			<use xlink:href="#SVGID_225_"  style="overflow:visible;"/>
		</clipPath>
		<path class="st113" d="M17.5,11c-0.1,0.1-0.1,0.2-0.1,0.2s0.1,0,0.2,0c0.1-0.1,0.1-0.2,0.1-0.2C17.6,10.9,17.5,10.9,17.5,11"/>
	</g>
	<g>
		<defs>
			<rect id="SVGID_227_" x="-10.7" y="4.6" width="78.3" height="50.3"/>
		</defs>
		<clipPath id="SVGID_228_">
			<use xlink:href="#SVGID_227_"  style="overflow:visible;"/>
		</clipPath>
		<path class="st114" d="M19.6,10.3c-0.1,0.1-0.1,0.2-0.1,0.2s0.1,0,0.2,0c0.1-0.1,0.1-0.2,0.1-0.2C19.7,10.3,19.6,10.3,19.6,10.3"
			/>
	</g>
	<g>
		<defs>
			<rect id="SVGID_229_" x="-10.7" y="4.6" width="78.3" height="50.3"/>
		</defs>
		<clipPath id="SVGID_230_">
			<use xlink:href="#SVGID_229_"  style="overflow:visible;"/>
		</clipPath>
		<path class="st115" d="M18.8,10.9c-0.1,0.1-0.1,0.2-0.1,0.2s0.1,0,0.2,0C19,11,19,10.9,19,10.9C19,10.8,18.9,10.8,18.8,10.9"/>
	</g>
	<g>
		<defs>
			<rect id="SVGID_231_" x="-10.7" y="4.6" width="78.3" height="50.3"/>
		</defs>
		<clipPath id="SVGID_232_">
			<use xlink:href="#SVGID_231_"  style="overflow:visible;"/>
		</clipPath>
		<path class="st116" d="M18.1,11.5C18,11.6,18,11.7,18,11.7s0.1,0,0.2,0c0.1-0.1,0.1-0.2,0.1-0.2C18.2,11.4,18.1,11.4,18.1,11.5"/>
	</g>
	<g>
		<defs>
			<rect id="SVGID_233_" x="-10.7" y="4.6" width="78.3" height="50.3"/>
		</defs>
		<clipPath id="SVGID_234_">
			<use xlink:href="#SVGID_233_"  style="overflow:visible;"/>
		</clipPath>
		<path class="st117" d="M17.4,12c-0.1,0.1-0.1,0.2-0.1,0.2s0.1,0,0.2,0c0.1-0.1,0.1-0.2,0.1-0.2C17.6,11.9,17.5,11.9,17.4,12"/>
	</g>
	<g>
		<defs>
			<rect id="SVGID_235_" x="-10.7" y="4.6" width="78.3" height="50.3"/>
		</defs>
		<clipPath id="SVGID_236_">
			<use xlink:href="#SVGID_235_"  style="overflow:visible;"/>
		</clipPath>
		<path class="st118" d="M16.6,12.7c-0.1,0.1-0.1,0.2-0.1,0.2s0.1,0,0.2,0c0.1-0.1,0.1-0.2,0.1-0.2C16.8,12.6,16.7,12.6,16.6,12.7"
			/>
	</g>
	<g>
		<defs>
			<rect id="SVGID_237_" x="-10.7" y="4.6" width="78.3" height="50.3"/>
		</defs>
		<clipPath id="SVGID_238_">
			<use xlink:href="#SVGID_237_"  style="overflow:visible;"/>
		</clipPath>
		<path class="st119" d="M15.6,13.1c-0.1,0.1-0.1,0.2-0.1,0.2s0.1,0,0.2,0c0.1-0.1,0.1-0.2,0.1-0.2S15.7,13.1,15.6,13.1"/>
	</g>
	<g>
		<defs>
			<rect id="SVGID_239_" x="-10.7" y="4.6" width="78.3" height="50.3"/>
		</defs>
		<clipPath id="SVGID_240_">
			<use xlink:href="#SVGID_239_"  style="overflow:visible;"/>
		</clipPath>
		<path class="st120" d="M15.9,13.6c-0.1,0.1-0.1,0.2-0.1,0.2s0.1,0,0.2,0c0.1-0.1,0.1-0.2,0.1-0.2C16.1,13.5,16,13.5,15.9,13.6"/>
	</g>
	<g>
		<defs>
			<rect id="SVGID_241_" x="-10.7" y="4.6" width="78.3" height="50.3"/>
		</defs>
		<clipPath id="SVGID_242_">
			<use xlink:href="#SVGID_241_"  style="overflow:visible;"/>
		</clipPath>
		<path class="st121" d="M19.7,11c-0.1,0.1-0.1,0.2-0.1,0.2s0.1,0,0.2,0c0.1-0.1,0.1-0.2,0.1-0.2C19.9,10.9,19.8,10.9,19.7,11"/>
	</g>
	<g>
		<defs>
			<rect id="SVGID_243_" x="-10.7" y="4.6" width="78.3" height="50.3"/>
		</defs>
		<clipPath id="SVGID_244_">
			<use xlink:href="#SVGID_243_"  style="overflow:visible;"/>
		</clipPath>
		<path class="st122" d="M19.1,11.6C19,11.7,19,11.8,19,11.8s0.1,0,0.2,0c0.1-0.1,0.1-0.2,0.1-0.2C19.2,11.5,19.1,11.6,19.1,11.6"/>
	</g>
	<g>
		<defs>
			<rect id="SVGID_245_" x="-10.7" y="4.6" width="78.3" height="50.3"/>
		</defs>
		<clipPath id="SVGID_246_">
			<use xlink:href="#SVGID_245_"  style="overflow:visible;"/>
		</clipPath>
		<path class="st123" d="M18.2,12.3c-0.1,0.1-0.1,0.2-0.1,0.2s0.1,0,0.2,0c0.1-0.1,0.1-0.2,0.1-0.2C18.4,12.2,18.3,12.2,18.2,12.3"
			/>
	</g>
	<g>
		<defs>
			<rect id="SVGID_247_" x="-10.7" y="4.6" width="78.3" height="50.3"/>
		</defs>
		<clipPath id="SVGID_248_">
			<use xlink:href="#SVGID_247_"  style="overflow:visible;"/>
		</clipPath>
		<path class="st124" d="M17.4,12.8c-0.1,0.1-0.1,0.2-0.1,0.2s0.1,0,0.2,0c0.1-0.1,0.1-0.2,0.1-0.2C17.6,12.7,17.5,12.7,17.4,12.8"
			/>
	</g>
	<g>
		<defs>
			<rect id="SVGID_249_" x="-10.7" y="4.6" width="78.3" height="50.3"/>
		</defs>
		<clipPath id="SVGID_250_">
			<use xlink:href="#SVGID_249_"  style="overflow:visible;"/>
		</clipPath>
		<path class="st125" d="M16.6,13.3c-0.1,0.1-0.1,0.2-0.1,0.2s0.1,0,0.2,0c0.1-0.1,0.1-0.2,0.1-0.2C16.8,13.2,16.7,13.2,16.6,13.3"
			/>
	</g>
	<g>
		<defs>
			<rect id="SVGID_251_" x="-10.7" y="4.6" width="78.3" height="50.3"/>
		</defs>
		<clipPath id="SVGID_252_">
			<use xlink:href="#SVGID_251_"  style="overflow:visible;"/>
		</clipPath>
		<path class="st126" d="M19.7,9.5c-0.1,0.1-0.1,0.2-0.1,0.2s0.1,0,0.2,0c0.1-0.1,0.1-0.2,0.1-0.2C19.9,9.4,19.8,9.4,19.7,9.5"/>
	</g>
	<g>
		<defs>
			<rect id="SVGID_253_" x="-10.7" y="4.6" width="78.3" height="50.3"/>
		</defs>
		<clipPath id="SVGID_254_">
			<use xlink:href="#SVGID_253_"  style="overflow:visible;"/>
		</clipPath>
		<path class="st127" d="M19,9.9c-0.1,0.1-0.1,0.2-0.1,0.2s0.1,0,0.2,0c0.1-0.1,0.1-0.2,0.1-0.3C19.1,9.8,19,9.8,19,9.9"/>
	</g>
</g>
<g>
	<path class="st128" d="M10.7,55.8h1.5c0.8,0,1.4,0.4,1.4,1.2c0,0.9-0.5,1.3-1.3,1.3h-0.6v1.3h-1V55.8z M11.7,57.6h0.2
		c0.4,0,0.7,0,0.7-0.5s-0.3-0.5-0.7-0.5h-0.2V57.6z"/>
	<path class="st128" d="M18,57.6c0,1.2-0.9,2.1-2.1,2.1s-2.1-0.9-2.1-2.1c0-1.1,1-1.9,2.1-1.9S18,56.5,18,57.6z M14.8,57.6
		c0,0.7,0.5,1.1,1.1,1.1c0.6,0,1.1-0.5,1.1-1.1c0-0.5-0.5-1-1.1-1C15.3,56.6,14.8,57.1,14.8,57.6z"/>
	<path class="st128" d="M21.6,59.6h-1.2l-0.9-1.5l0,0v1.5h-1v-3.8H20c0.7,0,1.3,0.4,1.3,1.2c0,0.5-0.3,1-0.8,1.1L21.6,59.6z
		 M19.4,57.5L19.4,57.5c0.4,0,0.8-0.1,0.8-0.5s-0.4-0.5-0.7-0.5h-0.1C19.4,56.5,19.4,57.5,19.4,57.5z"/>
	<path class="st128" d="M24.5,58.8h1.2v0.8h-2.2v-3.8h1V58.8z"/>
	<path class="st128" d="M27,58.9l-0.3,0.7h-1l1.5-3.8h1.1l1.4,3.8h-1l-0.2-0.7H27z M27.7,57L27.7,57l-0.4,1.2h0.8L27.7,57z"/>
	<path class="st128" d="M33.2,59.6h-1v-2.9h-0.8v-0.8H34v0.8h-0.8V59.6z"/>
	<path class="st128" d="M35,58.9l-0.3,0.7h-1l1.5-3.8h1.1l1.4,3.8h-1l-0.2-0.7H35z M35.7,57L35.7,57l-0.4,1.2h0.8L35.7,57z"/>
	<path class="st128" d="M41.1,59.6h-1.2L39,58.1l0,0v1.5h-1v-3.8h1.5c0.7,0,1.3,0.4,1.3,1.2c0,0.5-0.3,1-0.8,1.1L41.1,59.6z
		 M38.9,57.5L38.9,57.5c0.4,0,0.8-0.1,0.8-0.5s-0.4-0.5-0.7-0.5h-0.1C38.9,56.5,38.9,57.5,38.9,57.5z"/>
	<path class="st128" d="M41.3,55.8h1.4c1.1,0,1.9,0.8,1.9,1.9c0,1.1-0.9,1.9-1.9,1.9h-1.4V55.8z M42.3,58.8h0.2
		c0.6,0,1.1-0.3,1.1-1.1c0-0.7-0.4-1.1-1.1-1.1h-0.2V58.8z"/>
	<path class="st128" d="M46.1,56.7v0.6h1.1v0.8h-1.1v0.7h1.2v0.8h-2.1v-3.8h2.1v0.8h-1.2V56.7z"/>
</g>
</svg>
