<?xml version="1.0" encoding="utf-8"?>
<!-- Generator: Adobe Illustrator 23.0.3, SVG Export Plug-In . SVG Version: 6.00 Build 0)  -->
<svg version="1.1" id="Layer_1" xmlns="http://www.w3.org/2000/svg" xmlns:xlink="http://www.w3.org/1999/xlink" x="0px" y="0px"
	 viewBox="0 0 59.8 66" style="enable-background:new 0 0 59.8 66;" xml:space="preserve">
<style type="text/css">
	.st0{fill:#CCCCCC;}
	.st1{clip-path:url(#SVGID_2_);fill:#E6E7E8;}
	.st2{clip-path:url(#SVGID_4_);fill:#D4EFFC;}
	.st3{clip-path:url(#SVGID_4_);fill:#E7B577;}
	.st4{clip-path:url(#SVGID_4_);fill:#FFFFFF;}
	.st5{clip-path:url(#SVGID_4_);fill:#E29B6F;}
	.st6{clip-path:url(#SVGID_4_);fill:#00559C;}
	.st7{clip-path:url(#SVGID_4_);fill:#007DC5;}
	.st8{clip-path:url(#SVGID_4_);fill:#043D5D;}
	.st9{clip-path:url(#SVGID_4_);fill:#CC6B40;}
	.st10{clip-path:url(#SVGID_4_);fill:#D89F62;}
	.st11{clip-path:url(#SVGID_4_);fill:#D88D43;}
	.st12{clip-path:url(#SVGID_4_);fill:#5A2F1C;}
	.st13{clip-path:url(#SVGID_6_);fill:#FFFFFF;}
	.st14{clip-path:url(#SVGID_6_);fill:#00559C;}
	.st15{clip-path:url(#SVGID_6_);fill:#043D5D;}
	.st16{clip-path:url(#SVGID_6_);fill:#B9C7D4;}
	.st17{clip-path:url(#SVGID_8_);fill:#007DC5;}
	.st18{clip-path:url(#SVGID_10_);fill:#B9E5FA;}
	.st19{clip-path:url(#SVGID_10_);fill:#E6E7E8;}
	.st20{clip-path:url(#SVGID_10_);fill:#00559C;}
	.st21{clip-path:url(#SVGID_10_);fill:#D4EFFC;}
	.st22{opacity:0.5;clip-path:url(#SVGID_10_);}
	.st23{clip-path:url(#SVGID_12_);}
	.st24{clip-path:url(#SVGID_14_);fill:#F37167;}
	.st25{clip-path:url(#SVGID_10_);fill:none;stroke:#00559C;stroke-width:0.8772;stroke-linecap:round;stroke-miterlimit:10;}
	.st26{clip-path:url(#SVGID_10_);fill:#007DC5;}
	.st27{clip-path:url(#SVGID_10_);fill:none;stroke:#00559C;stroke-width:0.8772;stroke-miterlimit:10;}
	.st28{clip-path:url(#SVGID_10_);fill:#FFFFFF;}
	.st29{clip-path:url(#SVGID_10_);fill:#B9C7D4;}
	.st30{clip-path:url(#SVGID_10_);fill:#4E555B;}
	.st31{clip-path:url(#SVGID_10_);fill:#859097;}
	.st32{clip-path:url(#SVGID_16_);fill:#E6E7E8;}
	.st33{clip-path:url(#SVGID_18_);fill:#D4EFFC;}
	.st34{clip-path:url(#SVGID_18_);fill:#E7B577;}
	.st35{clip-path:url(#SVGID_18_);fill:#FFFFFF;}
	.st36{clip-path:url(#SVGID_18_);fill:#E29B6F;}
	.st37{clip-path:url(#SVGID_18_);fill:#00559C;}
	.st38{clip-path:url(#SVGID_18_);fill:#007DC5;}
	.st39{clip-path:url(#SVGID_18_);fill:#043D5D;}
	.st40{clip-path:url(#SVGID_18_);fill:#CC6B40;}
	.st41{clip-path:url(#SVGID_18_);fill:#D89F62;}
	.st42{clip-path:url(#SVGID_18_);fill:#D88D43;}
	.st43{clip-path:url(#SVGID_18_);fill:#5A2F1C;}
	.st44{clip-path:url(#SVGID_20_);fill:#FFFFFF;}
	.st45{clip-path:url(#SVGID_20_);fill:#00559C;}
	.st46{clip-path:url(#SVGID_20_);fill:#043D5D;}
	.st47{clip-path:url(#SVGID_20_);fill:#B9C7D4;}
	.st48{clip-path:url(#SVGID_22_);fill:#007DC5;}
	.st49{clip-path:url(#SVGID_24_);fill:#B9E5FA;}
	.st50{clip-path:url(#SVGID_24_);fill:#E6E7E8;}
	.st51{clip-path:url(#SVGID_24_);fill:#00559C;}
	.st52{clip-path:url(#SVGID_24_);fill:#D4EFFC;}
	.st53{opacity:0.5;clip-path:url(#SVGID_24_);}
	.st54{clip-path:url(#SVGID_26_);}
	.st55{clip-path:url(#SVGID_28_);fill:#F37167;}
	.st56{clip-path:url(#SVGID_24_);fill:none;stroke:#00559C;stroke-width:0.8772;stroke-linecap:round;stroke-miterlimit:10;}
	.st57{clip-path:url(#SVGID_24_);fill:#007DC5;}
	.st58{clip-path:url(#SVGID_24_);fill:none;stroke:#00559C;stroke-width:0.8772;stroke-miterlimit:10;}
	.st59{clip-path:url(#SVGID_24_);fill:#FFFFFF;}
	.st60{clip-path:url(#SVGID_24_);fill:#B9C7D4;}
	.st61{clip-path:url(#SVGID_24_);fill:#4E555B;}
	.st62{clip-path:url(#SVGID_24_);fill:#859097;}
	.st63{fill:#3D3D3D;}
</style>
<path class="st0" d="M47.8,62.2H12c-6.6,0-12-5.4-12-12V16.5c0-6.6,5.4-12,12-12h35.8c6.6,0,12,5.4,12,12v33.7
	C59.8,56.8,54.4,62.2,47.8,62.2z"/>
<g>
	<defs>
		<rect id="SVGID_1_" x="-10.2" y="6.4" width="78.3" height="50.3"/>
	</defs>
	<clipPath id="SVGID_2_">
		<use xlink:href="#SVGID_1_"  style="overflow:visible;"/>
	</clipPath>
	<path class="st1" d="M12.2,26.6c0,0-4.7-0.3-4.5-1.8c0.1-1.5,1.6-4.1-0.7-4.1c-2.3,0-9,3.2-5.5,4.7c3.4,1.5,5.2,1.9,4.9,2.9
		c-0.2,1-2.5,4.2,0.3,3C9.5,30,18.1,29.9,12.2,26.6"/>
</g>
<g>
	<defs>
		<path id="SVGID_3_" d="M15,16c0.4,2.4,3.4,7.7,2.1,9.2c-1.3,1.5-4.3,3.3-4.3,9.3c0,2.9,2.7,1.4,3.3,3.9c0.5,2.5,4.5,4.6,5.3,7.7
			c0.7,3.1,1,6.2,3.4,7.6c1.4,0.8,2.3,0,3.2-0.7c0.7-0.6,1.4-1.2,2.2-1c1.7,0.5,13.6,1,11.5-4.9c-2.1-6,5.2-10.3,7.8-12.9
			c2.6-2.5-2.4-10.3-4.7-12.1c-2.3-1.7-0.2-2,0-3.7c0.3-3.8-16-6.8-17.4-6.8c-1.5,0-0.1,1.9-1.6,1.9c-1.5,0-3.9-2.7-3.9-2.7
			C20,10.9,14.6,13.5,15,16"/>
	</defs>
	<clipPath id="SVGID_4_">
		<use xlink:href="#SVGID_3_"  style="overflow:visible;"/>
	</clipPath>
	<rect x="-3.3" y="-6" class="st2" width="60" height="66.7"/>
	<path class="st3" d="M45.1,42.3c0.4-1-6.2-10.4-6.2-10.4s-1.8,0.4-1.9-0.1c-0.1-0.4,1.4-0.6,1.4-0.6s-1.3-1.9-1.1-2.1
		c0.2-0.2,1.2,1.1,1.2,1.1s-0.3-2.1,0.1-2.1c0.5,0,0.5,2.2,0.5,2.2s0.4-2.1,0.9-2c0.5,0.1-0.3,2-0.3,2s0.9-1.5,1.3-1.4
		c0.4,0.1-1,1.9-1,1.9c0.8,1.2,6.5,6.4,7.2,8.7"/>
	<path class="st4" d="M39.1,28c0,0,1.7,0,1.3,1c-0.4,0.9-0.8,1.6-0.8,1.6s0.4,0.1,0.2,1c-0.2,0.8-0.7,1.1-0.7,1.1s0.7,0.5-0.6,1.2
		C38.5,33.8,39.1,29.2,39.1,28"/>
	<path class="st3" d="M20.6,33.7c-0.1,0.4,1.6,1.5,1.6,1.5S19,41.1,17.8,44c-1.3,3.3-1.3,4.8-1.6,7.2c0.3-0.1,0.8-0.3,1.4-0.4
		c0.6-0.1,1.1,0.1,1.5,0.2c0.3-1.7,0.3-3.7,1-6.6c0.8-3.5,3.7-9,3.9-10c0.2-1,0.3-1.8-0.1-1.9c-0.4-0.1-0.3,1.5-0.3,1.5
		s-0.4-1.7-0.9-1.8c-0.4-0.1,0.3,1.8,0.3,1.8s-1.7-1.9-1.8-1.5c-0.1,0.4,1.1,1.8,1.1,1.8S20.8,33.1,20.6,33.7"/>
	<path class="st5" d="M17.9,44.8c0,0,0,0,0,0.1c0,0.1,0,0.2,0.1,0.3c0,0,0.1,0,0.1,0c0,0,0,0,0,0h0c0,0,0,0,0.1,0c0,0,0,0,0,0l0,0
		c0,0,0.1-0.1,0.1-0.1c0.1-0.1,0.1-0.2,0.1-0.2c0-0.1,0.1-0.2,0.1-0.3c0-0.1,0-0.2,0-0.3c0-0.1-0.1-0.1-0.2-0.1c-0.1,0-0.2,0-0.2,0
		c-0.1,0-0.1,0.1-0.1,0.1c0,0.1,0,0.1,0,0.2c0,0.1,0.1,0.1,0.1,0.1c0.1,0.1,0.1,0.1,0.1,0.1c0,0-0.1,0-0.1,0c0,0-0.1-0.1-0.1-0.1
		c0-0.1-0.1-0.1-0.1-0.2c0-0.1,0-0.2,0.1-0.2c0.1,0,0.2,0,0.3,0c0.1,0,0.2,0.1,0.3,0.2c0.1,0.1,0.1,0.2,0.1,0.3
		c0,0.2-0.1,0.4-0.2,0.6c-0.1,0.1-0.1,0.1-0.3,0.2c0,0,0,0-0.1,0l0,0c0,0,0,0,0,0c0,0-0.1,0-0.1-0.1c-0.1-0.1-0.1-0.1-0.1-0.2
		c0-0.1,0-0.1,0-0.2C17.9,44.8,17.9,44.8,17.9,44.8"/>
	<path class="st4" d="M22.5,30.5c0,0-0.7-0.3-0.3,0.9c0.4,1.2,1.1,2.9,1.1,2.9s-1.9-0.6-0.7,0.9c1.1,1.6,2.5,1.9,2.5,1.9
		s-1.6,0-0.8,1.3c0.9,1.3,2.1,1.4,2.1,1.4s-0.9,0.8,0,1.1c0.9,0.3,2.7-1.1,2.7-1.1L22.5,30.5z"/>
	<path class="st3" d="M33.4,44.1c0-0.3-0.1-1.4,0-1c-0.2,0-0.5,0.1-1.1,0.1c-0.7,0-1.1-0.1-1.4-0.2c-0.1,0.8-0.4,1.5-0.8,1.5
		c0,0,0.5,3.2,2,3.2c1,0,1.9-3,1.9-3S33.4,44.5,33.4,44.1 M38.5,32.7c-0.2-1.8-0.7-5.3-1.3-5.6c-0.9,0.4-1.8,1-4.1,1.3
		c-3.5,0.4-5.8-0.1-6.9-0.5c-0.2,0-0.4-0.1-0.4,0c-0.2,0.2,1.1,0.3,1,3c-0.1,2.7-0.5,3.7-0.5,3.7c-2.2-2.5-2.6-0.1-2.6-0.1s0,0,0,0
		c-0.1,0.8,0.3,1.8,2.1,1.9c0,0,2.5,5.6,6.6,5.9c2.4,0.2,6.2-3.4,6.3-7C38.6,33.8,38.5,33.8,38.5,32.7 M25.6,34.7
		c-0.1-0.1-0.2-0.3-0.4-0.4c-0.1-0.1-0.2-0.1-0.3-0.1c-0.1,0-0.1,0-0.2,0c-0.1,0-0.1,0-0.2,0c-0.1,0.1-0.2,0.2-0.2,0.3
		c0,0.1,0,0.1,0,0.2l0,0l0,0v0v0v0c0,0,0,0,0,0c0,0,0,0,0,0.1c0,0.1,0.1,0.2,0.3,0.2c0.1,0,0.3,0.1,0.4,0.1c0.1,0,0.3,0.1,0.4,0.1
		c0,0,0.1,0,0.1,0.1c0,0,0.1,0.1,0.1,0.2c0,0,0,0,0,0l0,0c0,0,0,0.1,0,0.1c0,0-0.1,0.1-0.1,0.1c-0.1,0.1-0.3,0.1-0.4,0.1
		c-0.1,0-0.2,0-0.3,0c-0.1,0-0.2-0.1-0.2-0.1s0.1,0,0.2,0c0.1,0,0.2,0,0.2,0c0.1,0,0.2,0,0.3-0.1c0,0,0,0,0,0c0,0,0,0,0,0l0,0
		c0,0,0,0,0,0c0,0,0,0,0,0c0,0,0,0-0.1,0c-0.1,0-0.3,0-0.4-0.1c-0.1,0-0.3,0-0.5-0.1c-0.1,0-0.2-0.1-0.3-0.1
		C24.1,35.2,24,35.1,24,35c0-0.1,0-0.1-0.1-0.2c0,0,0-0.1,0-0.1l0,0l0,0l0,0c0-0.1,0-0.2,0.1-0.3c0.1-0.2,0.2-0.3,0.4-0.4
		c0.1,0,0.2-0.1,0.3,0c0.1,0,0.2,0,0.2,0c0.1,0,0.3,0.1,0.4,0.2c0.1,0.1,0.2,0.2,0.2,0.3C25.6,34.6,25.6,34.6,25.6,34.7
		c0.1,0.1,0.1,0.2,0.1,0.2S25.7,34.8,25.6,34.7 M34.5,31c0.1-0.1,0.2-0.1,0.4-0.2c0.2-0.1,0.4-0.1,0.6-0.2c0.1,0,0.2,0,0.4,0
		c0.1,0,0.3,0,0.4,0.1c0.1,0,0.3,0.1,0.4,0.1c0.1,0.1,0.2,0.1,0.3,0.2c0.1,0.1,0.2,0.2,0.2,0.3c0.1,0.1,0.1,0.2,0.1,0.3
		c0,0.1,0.1,0.2,0.1,0.2c0,0.1,0,0.1,0,0.2c0,0.1,0,0.2,0,0.2s0-0.1-0.1-0.1c0,0-0.1-0.1-0.1-0.2c0-0.1-0.1-0.1-0.1-0.2
		c-0.1-0.1-0.1-0.1-0.2-0.2c-0.1-0.1-0.1-0.1-0.2-0.2c0,0-0.1-0.1-0.1-0.1c0,0-0.1,0-0.1-0.1c-0.1,0-0.2-0.1-0.3-0.1
		c-0.4-0.1-0.8-0.1-1.2-0.1C34.8,31.1,34.7,31.1,34.5,31c-0.1,0.1-0.1,0.1-0.1,0.1S34.4,31.1,34.5,31 M33.2,35.9c0,0,0.1,0,0.1,0
		c0,0,0.1,0,0.1,0l0.1,0l0.1,0l0,0l0,0c0,0,0,0,0,0l0,0l0.1,0c0.1,0,0.2,0,0.2-0.1c0.1,0,0.1-0.1,0.2-0.1c0.1-0.1,0.1-0.1,0.2-0.2
		c0,0,0-0.1,0.1-0.1c-0.1-0.1-0.2-0.1-0.2-0.2c-0.1-0.1-0.1-0.1-0.2-0.2c-0.1-0.1-0.1-0.1-0.2-0.2c-0.1-0.1-0.1-0.1-0.1-0.2
		c0-0.1-0.1-0.1-0.1-0.2c-0.1-0.1-0.1-0.3-0.2-0.5c-0.1-0.2-0.1-0.3-0.1-0.5c0-0.2,0-0.3,0-0.5c0-0.2,0-0.3,0.1-0.5
		c0-0.2,0.1-0.3,0.2-0.4c0,0.2,0,0.3-0.1,0.5c0,0.2,0,0.3,0,0.5c0,0.2,0.1,0.3,0.1,0.4c0,0.1,0,0.1,0.1,0.2c0,0.1,0.1,0.1,0.1,0.2
		c0.1,0.1,0.1,0.3,0.2,0.4c0,0.1,0.1,0.1,0.1,0.2c0,0.1,0.1,0.1,0.1,0.2c0.1,0.1,0.2,0.2,0.3,0.3c0.1,0.1,0.2,0.2,0.3,0.3l0.1,0.1
		l-0.1,0.1c0,0.1-0.1,0.1-0.1,0.1c0,0-0.1,0.1-0.1,0.1c-0.1,0.1-0.2,0.2-0.3,0.2c-0.1,0.1-0.2,0.1-0.3,0.2c-0.1,0-0.2,0.1-0.3,0.1
		h-0.1l0,0l0,0l0,0l0,0l-0.1,0l-0.1,0c-0.1,0-0.1,0-0.2,0c-0.1,0-0.1,0-0.1-0.1c-0.2-0.1-0.3-0.3-0.4-0.5
		C32.9,35.8,33,35.9,33.2,35.9 M27.6,32.1c-0.1,0.1-0.1,0.1-0.2,0.1c-0.1,0.1-0.1,0.1-0.1,0.1s0-0.1,0.1-0.2c0-0.1,0.1-0.1,0.1-0.2
		c0-0.1,0.1-0.2,0.2-0.3c0.1-0.1,0.1-0.2,0.2-0.3c0.1-0.1,0.2-0.2,0.3-0.3c0.1,0,0.1-0.1,0.2-0.1c0.1,0,0.1-0.1,0.2-0.1
		c0.1-0.1,0.3-0.1,0.4-0.2c0.1,0,0.3-0.1,0.4-0.1c0.1,0,0.3,0,0.4-0.1c0.1,0,0.3,0,0.4,0c0.1,0,0.2,0,0.3,0c0.1,0,0.2,0,0.3,0.1
		c0.1,0,0.2,0,0.2,0.1c0.1,0,0.2,0.1,0.2,0.1s-0.1,0-0.2,0c-0.1,0-0.1,0-0.2,0c-0.1,0-0.2,0-0.3,0c-0.1,0-0.2,0-0.3,0
		c-0.1,0-0.2,0-0.4,0.1c-0.1,0-0.2,0.1-0.4,0.1c-0.1,0-0.2,0.1-0.4,0.1l-0.2,0.1l-0.1,0l-0.1,0c-0.1,0-0.1,0.1-0.2,0.1
		c-0.1,0-0.1,0.1-0.2,0.1c-0.1,0.1-0.2,0.1-0.3,0.2c-0.1,0.1-0.2,0.1-0.3,0.2C27.7,32,27.7,32.1,27.6,32.1 M30,34.7c0,0-0.1,0-0.1,0
		c-0.1,0-0.2,0-0.3,0c-0.1,0-0.2,0-0.3,0c-0.1,0-0.2,0-0.3,0c-0.1,0-0.2,0-0.3,0.1c-0.1,0-0.2,0-0.2,0.1C28.2,34.9,28,35,28,35
		s0.2-0.1,0.4-0.3c0.1-0.1,0.3-0.1,0.5-0.2c0.1,0,0.2,0,0.3-0.1c0,0,0,0,0,0c-0.2-0.2-0.3-0.4-0.3-0.8c-0.1-0.5,0.1-1,0.4-1
		c0.3,0,0.6,0.4,0.7,0.9c0,0.4,0,0.7-0.2,0.9c0,0,0,0,0,0c0.1,0,0.2,0,0.3,0c0,0,0.1,0,0.1,0c0,0,0.1,0,0.1,0c0.1,0,0.2,0.1,0.2,0.1
		c0.1,0,0.1,0.1,0.2,0.1c0.1,0,0.1,0.1,0.1,0.1c0.1,0.1,0.1,0.1,0.1,0.1s0,0-0.1,0c0,0-0.1,0-0.1-0.1c-0.1,0-0.1,0-0.2,0
		c-0.1,0-0.1,0-0.2,0c0,0-0.1,0-0.1,0c0,0-0.1,0-0.1,0C30,34.7,30,34.7,30,34.7 M33.3,39.9c-2.9,0-3.2-2.8-3.2-2.8s1.1,1,3.3,0.9
		c1.9,0,2.7-0.9,2.7-0.9S35.8,39.8,33.3,39.9 M37.5,34.7c0,0-0.1,0-0.1-0.1c-0.1,0-0.1,0-0.2,0c-0.1,0-0.1,0-0.2,0c0,0-0.1,0-0.1,0
		c0,0-0.1,0-0.1,0c0,0-0.1,0-0.1,0c0,0-0.1,0-0.1,0c-0.1,0-0.2,0-0.3,0c-0.1,0-0.2,0-0.3,0c-0.1,0-0.2,0-0.3,0c-0.1,0-0.2,0-0.3,0.1
		c-0.1,0-0.2,0-0.2,0.1c-0.3,0.1-0.5,0.1-0.5,0.1s0.2-0.1,0.4-0.3c0.1-0.1,0.3-0.1,0.5-0.2c0,0,0.1,0,0.1,0
		c-0.2-0.2-0.3-0.5-0.2-0.9c0.1-0.5,0.3-1,0.7-0.9c0.3,0,0.5,0.5,0.5,1c0,0.3-0.1,0.5-0.3,0.7c0.1,0,0.1,0,0.2,0c0.1,0,0.2,0,0.3,0
		c0,0,0.1,0,0.1,0c0,0,0.1,0,0.1,0c0.1,0,0.2,0.1,0.2,0.1c0.1,0,0.1,0.1,0.2,0.1C37.4,34.6,37.5,34.6,37.5,34.7c0.1,0,0.1,0,0.1,0
		S37.6,34.7,37.5,34.7"/>
	<path class="st6" d="M25.7,36.4c-0.7,0-1.3-0.3-1.3-0.3c1.8,3.8,4.1,4.4,3.8,4C26.7,38.6,25.7,36.4,25.7,36.4 M39.3,26.5
		c1.7-0.7,3.4-3.8,3.2-5.2c0,0-0.9,1.9-3.8,2.2c0,0,4.9-2.1,2.9-6.5c0,0-0.5,4.1-2.8,4.3c0,0,1.3-2.6,0-5c0,0-0.3,3.7-2.3,3.9
		c0,0,0.7-0.7,0.6-1.7c0,0-0.2,1.3-3.3,1.7c-2,0.2-4.8-0.4-6-0.3c-1.2,0.1-4.5,0.9-3.9,6.6c0,0,0,0.1,0,0.1c-0.7,0-1.4,0.9-1.4,4
		c0,2.1,1.1,4,1.1,4s0.4-2.4,2.6,0.1c0,0,0.5-1,0.5-3.7c0.1-2.7-1.2-2.8-1-3c0.1-0.1,0.2-0.1,0.4,0c1.2,0.4,3.4,0.9,6.9,0.5
		c2.3-0.3,3.2-0.9,4.1-1.3c0.8,0.3,1.4,5.6,1.4,6.5c0,0,0.7-1.5,0.8-3.7c0-0.5,0-0.9,0-1.4c0.7-0.3,2-1.1,2-2.5
		C41.4,26,40.7,26.8,39.3,26.5 M27.5,20.7c0.7,0,1.8,0.5,3,0.4c1.2-0.1,1.5-0.3,1.5-0.3c-0.6,0.9-2.6,0.7-4.4,0.8
		c-1.8,0.1-2.6,2.9-2.6,2.9C24.8,21.5,26.8,20.7,27.5,20.7 M28.4,27.2c-0.7-0.1-1.3-0.3-2.1,0c0,0,0.1-0.6,0.3-1
		c0,0-0.6,0.1-0.8,0.4c0,0-0.1-0.5,0.2-0.9c0,0-0.5,0-0.7,0.3c0,0,0.8-2,2.3-2.7c0,0-0.5,0.6-0.8,1.6c0,0,1.4-1.4,2.9-1.6
		c0,0-1.5,1-2,2.3c0,0,1.8-1.3,3.3-1.1c0,0-1.6,0.7-2.6,1.9c0,0,2.9,0.2,4.2-0.3C32.5,26.1,30.6,27.4,28.4,27.2 M33.9,22.8
		c0.7-1.7,3.6-1.2,3.6-1.2C36.7,23.5,33.9,22.8,33.9,22.8"/>
	<path class="st7" d="M27.6,21.6c1.8-0.1,3.8,0.1,4.4-0.8c0,0-0.3,0.2-1.5,0.3c-1.3,0.1-2.4-0.4-3-0.4c-0.7,0-2.7,0.8-2.5,3.8
		C25,24.5,25.8,21.7,27.6,21.6 M28.3,26.4c0.9-1.3,2.6-1.9,2.6-1.9c-1.5-0.2-3.3,1.1-3.3,1.1c0.6-1.3,2-2.3,2-2.3
		c-1.5,0.2-2.9,1.6-2.9,1.6c0.3-0.9,0.8-1.6,0.8-1.6c-1.5,0.7-2.3,2.7-2.3,2.7c0.3-0.3,0.7-0.3,0.7-0.3c-0.3,0.4-0.2,0.9-0.2,0.9
		c0.3-0.2,0.8-0.4,0.8-0.4c-0.2,0.4-0.3,1-0.3,1c0.7-0.3,1.3-0.1,2.1,0c2.3,0.3,4.1-1.1,4.1-1.1C31.1,26.6,28.3,26.4,28.3,26.4
		 M33.9,22.8c0,0,2.8,0.7,3.6-1.2C37.5,21.6,34.7,21.1,33.9,22.8"/>
	<path class="st8" d="M30.7,30.7c-0.1,0-0.2,0-0.3-0.1c-0.1,0-0.2,0-0.3,0c-0.1,0-0.3,0-0.4,0c-0.1,0-0.3,0-0.4,0.1
		c-0.1,0-0.3,0.1-0.4,0.1c-0.1,0.1-0.3,0.1-0.4,0.2c-0.1,0-0.1,0.1-0.2,0.1c-0.1,0-0.1,0.1-0.2,0.1c-0.1,0.1-0.2,0.2-0.3,0.3
		c-0.1,0.1-0.2,0.2-0.2,0.3c-0.1,0.1-0.1,0.2-0.2,0.3c0,0.1-0.1,0.1-0.1,0.2c0,0.1-0.1,0.2-0.1,0.2s0-0.1,0.1-0.1
		c0,0,0.1-0.1,0.2-0.1c0.1-0.1,0.1-0.1,0.2-0.2c0.1-0.1,0.2-0.1,0.3-0.2c0.1-0.1,0.2-0.1,0.3-0.2c0.1,0,0.1-0.1,0.2-0.1
		c0.1,0,0.1-0.1,0.2-0.1l0.1,0l0.1,0l0.2-0.1c0.1,0,0.2-0.1,0.4-0.1c0.1,0,0.2-0.1,0.4-0.1c0.1,0,0.2,0,0.4-0.1c0.1,0,0.2,0,0.3,0
		c0.1,0,0.2,0,0.3,0c0.1,0,0.2,0,0.2,0c0.1,0,0.2,0,0.2,0s-0.1,0-0.2-0.1C30.9,30.8,30.8,30.7,30.7,30.7 M37.5,32.1
		c0-0.1,0-0.1,0-0.2c0-0.1,0-0.2-0.1-0.2c0-0.1-0.1-0.2-0.1-0.3c-0.1-0.1-0.1-0.2-0.2-0.3c-0.1-0.1-0.2-0.2-0.3-0.2
		c-0.1-0.1-0.2-0.1-0.4-0.1c-0.1,0-0.3-0.1-0.4-0.1c-0.1,0-0.3,0-0.4,0c-0.2,0-0.4,0.1-0.6,0.2c-0.2,0.1-0.3,0.1-0.4,0.2
		c-0.1,0.1-0.1,0.1-0.1,0.1s0.1,0,0.2,0c0.1,0,0.3,0,0.4,0c0.3,0,0.8,0,1.2,0.1c0.1,0,0.2,0.1,0.3,0.1c0,0,0.1,0,0.1,0.1
		c0,0,0.1,0.1,0.1,0.1c0.1,0.1,0.2,0.1,0.2,0.2c0.1,0.1,0.1,0.1,0.2,0.2c0.1,0.1,0.1,0.1,0.1,0.2C37.3,32,37.4,32.1,37.5,32.1
		c0,0.1,0,0.2,0,0.2S37.5,32.2,37.5,32.1"/>
	<path class="st9" d="M33.5,38c-2.3,0-3.3-0.9-3.3-0.9s0.2,2.8,3.2,2.8c2.5,0,2.8-2.7,2.8-2.7S35.4,38,33.5,38"/>
	<path class="st10" d="M32.3,42.3c-0.4,0-0.9-0.1-1.3-0.3c0,0.3-0.1,0.6-0.1,0.9c0.3,0.1,0.7,0.2,1.4,0.2c0.5,0,0.8,0,1.1-0.1
		c0-0.3,0-0.7,0-0.9C32.9,42.3,32.6,42.3,32.3,42.3"/>
	<path class="st11" d="M24.2,34.7L24.2,34.7L24.2,34.7c0-0.1,0-0.1,0.1-0.2c0.1-0.1,0.1-0.2,0.2-0.3c0.1,0,0.1,0,0.2,0
		c0.1,0,0.1,0,0.2,0c0.1,0,0.2,0.1,0.3,0.1c0.2,0.1,0.3,0.3,0.4,0.4c0.1,0.1,0.1,0.2,0.1,0.2s0-0.1-0.1-0.2c0-0.1-0.1-0.1-0.1-0.2
		c-0.1-0.1-0.1-0.2-0.2-0.3c-0.1-0.1-0.2-0.2-0.4-0.2c-0.1,0-0.2,0-0.2,0c-0.1,0-0.2,0-0.3,0c-0.2,0.1-0.3,0.2-0.4,0.4
		c0,0.1-0.1,0.2-0.1,0.3l0,0l0,0l0,0c0,0,0,0.1,0,0.1c0,0.1,0,0.1,0.1,0.2c0.1,0.1,0.1,0.2,0.2,0.2c0.1,0.1,0.2,0.1,0.3,0.1
		c0.2,0.1,0.3,0.1,0.5,0.1c0.1,0,0.3,0,0.4,0.1c0,0,0,0,0.1,0c0,0,0,0,0,0c0,0,0,0,0,0l0,0c0,0,0,0,0,0c0,0,0,0,0,0
		c-0.1,0.1-0.2,0.1-0.3,0.1c-0.1,0-0.2,0-0.2,0c-0.1,0-0.2,0-0.2,0s0.1,0,0.2,0.1c0.1,0,0.2,0,0.3,0c0.1,0,0.2,0,0.4-0.1
		c0,0,0.1-0.1,0.1-0.1c0,0,0-0.1,0-0.1l0,0c0,0,0,0,0,0c0-0.1,0-0.1-0.1-0.2c0,0-0.1-0.1-0.1-0.1c-0.2-0.1-0.3-0.1-0.4-0.1
		c-0.1,0-0.3-0.1-0.4-0.1c-0.1,0-0.2-0.1-0.3-0.2C24.2,34.8,24.2,34.8,24.2,34.7C24.2,34.8,24.2,34.8,24.2,34.7L24.2,34.7L24.2,34.7
		z M30.8,34.7c-0.1,0-0.1-0.1-0.2-0.1c-0.1,0-0.1-0.1-0.2-0.1c0,0-0.1,0-0.1,0c0,0-0.1,0-0.1,0c-0.1,0-0.2,0-0.3,0
		c-0.1,0-0.2,0-0.3,0c-0.1,0-0.2,0-0.3,0c-0.1,0-0.2,0-0.3,0.1c-0.2,0.1-0.3,0.1-0.5,0.2C28.2,34.9,28,35,28,35s0.2-0.1,0.5-0.1
		c0.1,0,0.1,0,0.2-0.1c0.1,0,0.2,0,0.3-0.1c0.1,0,0.2,0,0.3,0c0.1,0,0.2,0,0.3,0c0.1,0,0.2,0,0.3,0c0,0,0.1,0,0.1,0c0,0,0.1,0,0.1,0
		c0,0,0.1,0,0.1,0c0,0,0.1,0,0.1,0c0.1,0,0.2,0,0.2,0C30.6,34.8,30.7,34.8,30.8,34.7c0,0.1,0.1,0.1,0.1,0.1c0.1,0,0.1,0,0.1,0
		s0,0-0.1-0.1C30.9,34.8,30.9,34.7,30.8,34.7 M37.5,34.7c0,0-0.1-0.1-0.1-0.1c-0.1,0-0.1-0.1-0.2-0.1c-0.1,0-0.1-0.1-0.2-0.1
		c0,0-0.1,0-0.1,0c0,0-0.1,0-0.1,0c-0.1,0-0.2,0-0.3,0c-0.1,0-0.2,0-0.3,0c-0.1,0-0.2,0-0.3,0c-0.1,0-0.2,0-0.3,0.1
		c-0.2,0.1-0.3,0.1-0.5,0.2c-0.3,0.1-0.4,0.3-0.4,0.3s0.2-0.1,0.5-0.1c0.1,0,0.1,0,0.2-0.1c0.1,0,0.2,0,0.3-0.1c0.1,0,0.2,0,0.3,0
		c0.1,0,0.2,0,0.3,0c0.1,0,0.2,0,0.3,0c0,0,0.1,0,0.1,0c0,0,0.1,0,0.1,0c0,0,0.1,0,0.1,0c0,0,0.1,0,0.1,0c0.1,0,0.2,0,0.2,0
		c0.1,0,0.1,0,0.2,0C37.4,34.7,37.5,34.7,37.5,34.7c0.1,0.1,0.1,0.1,0.1,0.1S37.6,34.7,37.5,34.7 M34.5,35c-0.1-0.1-0.2-0.2-0.3-0.3
		c0-0.1-0.1-0.1-0.1-0.2c0-0.1-0.1-0.1-0.1-0.2c-0.1-0.1-0.1-0.3-0.2-0.4c0-0.1-0.1-0.1-0.1-0.2c0-0.1,0-0.1-0.1-0.2
		c0-0.1-0.1-0.3-0.1-0.4c0-0.2,0-0.3,0-0.5c0-0.2,0-0.3,0.1-0.5c-0.1,0.1-0.1,0.3-0.2,0.4c0,0.2-0.1,0.3-0.1,0.5c0,0.2,0,0.3,0,0.5
		c0,0.2,0.1,0.3,0.1,0.5c0.1,0.2,0.1,0.3,0.2,0.5c0,0.1,0.1,0.1,0.1,0.2c0,0.1,0.1,0.1,0.1,0.2c0,0.1,0.1,0.1,0.2,0.2
		c0.1,0.1,0.1,0.1,0.2,0.2c0.1,0.1,0.2,0.1,0.2,0.2c0,0,0,0.1-0.1,0.1c-0.1,0.1-0.1,0.1-0.2,0.2c-0.1,0.1-0.1,0.1-0.2,0.1
		c-0.1,0-0.2,0.1-0.2,0.1l-0.1,0l0,0c0,0,0,0,0,0l0,0l0,0l-0.1,0l-0.1,0c0,0-0.1,0-0.1,0c0,0-0.1,0-0.1,0c-0.2-0.1-0.3-0.2-0.4-0.3
		c0.1,0.2,0.2,0.4,0.4,0.5c0,0,0.1,0.1,0.1,0.1c0.1,0,0.1,0,0.2,0l0.1,0l0.1,0l0,0l0,0l0,0l0,0h0.1c0.1,0,0.2,0,0.3-0.1
		c0.1,0,0.2-0.1,0.3-0.2c0.1-0.1,0.2-0.1,0.3-0.2c0,0,0.1-0.1,0.1-0.1c0,0,0.1-0.1,0.1-0.1l0.1-0.1l-0.1-0.1
		C34.7,35.2,34.6,35.1,34.5,35"/>
	<path class="st12" d="M29.3,32.6c-0.3,0-0.5,0.5-0.4,1c0,0.3,0.2,0.6,0.3,0.8c0.1,0,0.2,0,0.3,0c0.1,0,0.2,0,0.3,0
		c0.1-0.2,0.2-0.5,0.2-0.9C29.9,33,29.6,32.6,29.3,32.6 M29.3,33.6c-0.1,0-0.2-0.1-0.3-0.4c0-0.2,0.1-0.4,0.2-0.4
		c0.1,0,0.2,0.1,0.3,0.4C29.5,33.4,29.4,33.6,29.3,33.6 M36,32.5c-0.3,0-0.6,0.4-0.7,0.9c0,0.4,0.1,0.7,0.2,0.9c0.1,0,0.1,0,0.2,0
		c0.1,0,0.2,0,0.3,0c0.1,0,0.1,0,0.2,0c0.1-0.2,0.2-0.4,0.3-0.7C36.6,33,36.4,32.6,36,32.5 M36.1,33.1c0,0.2-0.1,0.4-0.3,0.4
		c-0.1,0-0.2-0.2-0.2-0.4c0-0.2,0.1-0.4,0.3-0.4C36,32.7,36.1,32.9,36.1,33.1"/>
	<path class="st4" d="M35.9,32.7c-0.1,0-0.2,0.2-0.3,0.4c0,0.2,0.1,0.4,0.2,0.4c0.1,0,0.2-0.2,0.3-0.4C36.1,32.9,36,32.7,35.9,32.7
		 M29.2,32.9c-0.1,0-0.2,0.2-0.2,0.4c0,0.2,0.1,0.4,0.3,0.4c0.1,0,0.2-0.2,0.2-0.4C29.5,33,29.4,32.8,29.2,32.9"/>
	<path class="st3" d="M33.4,44.3c0.4,0.5,1.6-0.2,3.1-0.2c1.7,0,5.5-0.8,5.5-0.8c-0.2,1.4-0.4,2.8-0.4,2.8L35.3,48l0.1,11.7
		c-3.4,1-10,0.1-10,0.1l1.9-10.5c-1.5,2.2-5.4,4.3-5.4,4.3l-1.3-1.9c0,0,2.6-1.9,4-3.5c3.9-4.5,5.4-3.7,5.4-3.7l1.2,0.1L33.4,44.3z"
		/>
	<path class="st10" d="M31.9,48.8c0,0,0,0,0.1,0.1c0,0.1,0.1,0.2,0.1,0.3c0,0.1,0.1,0.3,0.1,0.5c0,0.2,0,0.4,0,0.6
		c0,0.2-0.1,0.4-0.1,0.5c-0.1,0.2-0.1,0.3-0.2,0.5c0,0.1-0.1,0.1-0.1,0.2c0,0-0.1,0.1-0.1,0.1c-0.1,0.1-0.1,0.1-0.1,0.1s0-0.1,0-0.1
		c0,0,0-0.1,0-0.1c0-0.1,0-0.1,0-0.2c0-0.1,0-0.3,0-0.5c0-0.1,0-0.2,0-0.3c0-0.1,0-0.2,0-0.3c0-0.4,0.1-0.7,0.2-1
		c0-0.1,0.1-0.2,0.1-0.3C31.9,48.9,31.9,48.8,31.9,48.8"/>
	<path class="st10" d="M32.7,46.2c0,0,0-0.1,0.1-0.3c0.1-0.2,0.3-0.4,0.5-0.5c0.1,0,0.1-0.1,0.2-0.1c0.1,0,0.1-0.1,0.2-0.1
		c0.1,0,0.1,0,0.2-0.1c0.1,0,0.1,0,0.2,0c0.1,0,0.2,0,0.2,0c0.1,0,0.1,0,0.1,0s0,0-0.1,0.1c0,0-0.1,0-0.1,0.1c0,0-0.1,0-0.1,0.1
		c0,0-0.1,0.1-0.1,0.1c0,0-0.1,0.1-0.1,0.1c0,0-0.1,0.1-0.1,0.1c0,0-0.1,0.1-0.1,0.1c-0.1,0.1-0.2,0.1-0.3,0.2
		c-0.1,0.1-0.2,0.1-0.3,0.2C32.8,46.1,32.7,46.2,32.7,46.2"/>
</g>
<g>
	<defs>
		<rect id="SVGID_5_" x="-10.2" y="6.4" width="78.3" height="50.3"/>
	</defs>
	<clipPath id="SVGID_6_">
		<use xlink:href="#SVGID_5_"  style="overflow:visible;"/>
	</clipPath>
	<path class="st13" d="M23.9,28c0,0-0.6,1.7-0.3,3c0,0-0.6,0.1-0.5-0.6s-0.5-0.5-0.2-1.1c0.2-0.6,0.5-0.7,0.5-0.7S22.6,28,23.9,28"
		/>
	<path class="st13" d="M25.8,28.6c0,0-0.6,2.5-0.2,3.8c0,0-0.8-0.8-0.8-1.3c0-0.6-0.5-0.2,0-1c0,0-0.6-0.4,0.4-1
		C25.2,29.1,24.8,28.6,25.8,28.6"/>
	<path class="st13" d="M37.7,26.2c0,0,1.5,0.2,1.5-0.8c0,0,1.5-0.1,1.5-1.3c0,0,1,0.2,1-1.4C41.7,22.7,38.8,25.5,37.7,26.2"/>
	<path class="st13" d="M36.9,23.9c0,0,0.9-2.5,1.9-2c0,0,0.5-2.4,1.2-1.4c0,0,0.6-2.7,1.2-2c0.4,0.4,0.2,1.6,0.2,1.6
		S40.7,22.4,36.9,23.9"/>
	<path class="st13" d="M30.1,20.3c0,0,1.3-1.7,2.7-1.7c1.5,0,1.4,1.3,1.4,1.3S34,17.5,35,17.4c1-0.1,1.1,1.5,1.1,1.5s0-2.6,0.6-2.6
		c0.6,0,0.5,2.5,0.5,2.5S35.7,21.6,30.1,20.3"/>
	<path class="st13" d="M24.6,25.8c0,0-0.8-2.8,1.2-4.6c0,0-0.6-2.2-1.6-1.4c-1,0.7-0.6,2.3-0.6,2.3S23,21.4,23,22.7
		c-0.1,1.3,0.7,1.5,0.7,1.5s-0.6,0-0.3,0.6C23.7,25.4,24.6,25.8,24.6,25.8"/>
	<path class="st13" d="M29.7,27.7c0,0,4.1,0.6,6.3-0.9c0,0,0-1.7-1-1.4c-1,0.4-1,1.4-1,1.4s-0.5-1.6-1.1-1.3s-1,1.4-1,1.4
		s-0.1-0.8-0.5-0.8C30.9,26.2,29.7,27.7,29.7,27.7"/>
	<path class="st14" d="M8.9,54.6H7.6V16.7c0-0.1,0-0.9,0.1-1.8c0.2-1.4,0.7-2.4,1.5-2.9c1.2-0.8,4.1-2.3,4.4-2.5
		c0.2-0.1,0.8-0.4,1.6-0.2c0.7,0.2,1.4,0.7,1.9,1.6l-1,0.8c-0.9-1.4-1.7-1.1-1.8-1l-0.1,0c0,0-3.1,1.6-4.2,2.4
		c-1,0.7-1.1,2.9-1.1,3.6l0,0V54.6z"/>
	<path class="st15" d="M21.8,10.9c0.4,0.6-0.7,2.2-2.6,3.6c-1.9,1.4-3.8,2-4.2,1.4c-0.4-0.6,0.7-2.2,2.6-3.6
		C19.5,10.9,21.3,10.3,21.8,10.9"/>
	<path class="st16" d="M21.4,10.7c0,0-3-1.5-5.1,0.7c-2.1,2.1-1.8,4-1.3,4.6C15,16,17.7,11.1,21.4,10.7"/>
</g>
<g>
	<defs>
		<polygon id="SVGID_7_" points="7.6,16.7 7.6,54.6 8.9,54.6 8.9,16.6 8.9,16.6 		"/>
	</defs>
	<clipPath id="SVGID_8_">
		<use xlink:href="#SVGID_7_"  style="overflow:visible;"/>
	</clipPath>
	<path class="st17" d="M7.4,18.1c0,0,0.1,0,0.3,0.1c0.1,0,0.2,0.1,0.3,0.1c0.1,0,0.1,0,0.2,0c0.1,0,0.1,0,0.2,0c0,0,0.1,0,0.1,0
		c0,0,0.1,0,0.1,0c0.1,0,0.1,0,0.2,0c0.1,0,0.1,0,0.1,0c0.1,0,0.1,0,0.1,0c0,0,0.1,0,0.1,0c0,0,0.1,0,0.1,0c0.1,0,0.1,0,0.1,0
		s0,0,0,0.1c0,0,0,0.1-0.1,0.1c0,0-0.1,0.1-0.1,0.1c0,0-0.1,0.1-0.1,0.1c-0.1,0-0.1,0.1-0.2,0.1c-0.1,0-0.1,0.1-0.2,0.1
		c0,0-0.1,0-0.1,0c0,0-0.1,0-0.1,0c-0.1,0-0.1,0-0.2,0c-0.1,0-0.1,0-0.2-0.1c-0.1-0.1-0.2-0.1-0.3-0.2C7.4,18.3,7.4,18.1,7.4,18.1"
		/>
	<path class="st17" d="M7.4,19.7c0,0,0.1,0,0.3,0.1c0.1,0,0.2,0.1,0.3,0.1c0.1,0,0.1,0,0.2,0c0.1,0,0.1,0,0.2,0c0,0,0.1,0,0.1,0
		c0,0,0.1,0,0.1,0c0.1,0,0.1,0,0.2,0c0.1,0,0.1,0,0.1,0c0.1,0,0.1,0,0.1,0c0,0,0.1,0,0.1,0c0,0,0.1,0,0.1,0c0.1,0,0.1,0,0.1,0
		s0,0,0,0.1c0,0,0,0.1-0.1,0.1c0,0-0.1,0.1-0.1,0.1c0,0-0.1,0.1-0.1,0.1c-0.1,0-0.1,0.1-0.2,0.1c-0.1,0-0.1,0.1-0.2,0.1
		c0,0-0.1,0-0.1,0c0,0-0.1,0-0.1,0c-0.1,0-0.1,0-0.2,0c-0.1,0-0.1,0-0.2-0.1c-0.1-0.1-0.2-0.1-0.3-0.2C7.4,19.9,7.4,19.7,7.4,19.7"
		/>
	<path class="st17" d="M7.4,21.3c0,0,0.1,0,0.3,0.1c0.1,0,0.2,0.1,0.3,0.1c0.1,0,0.1,0,0.2,0c0.1,0,0.1,0,0.2,0c0,0,0.1,0,0.1,0
		c0,0,0.1,0,0.1,0c0.1,0,0.1,0,0.2,0c0.1,0,0.1,0,0.1,0c0.1,0,0.1,0,0.1,0c0,0,0.1,0,0.1,0c0,0,0.1,0,0.1,0c0.1,0,0.1,0,0.1,0
		s0,0,0,0.1c0,0,0,0.1-0.1,0.1c0,0-0.1,0.1-0.1,0.1c0,0-0.1,0.1-0.1,0.1c-0.1,0-0.1,0.1-0.2,0.1c-0.1,0-0.1,0.1-0.2,0.1
		c0,0-0.1,0-0.1,0c0,0-0.1,0-0.1,0c-0.1,0-0.1,0-0.2,0c-0.1,0-0.1,0-0.2-0.1c-0.1-0.1-0.2-0.1-0.3-0.2C7.4,21.5,7.4,21.3,7.4,21.3"
		/>
	<path class="st17" d="M7.4,22.9c0,0,0.1,0,0.3,0.1c0.1,0,0.2,0.1,0.3,0.1c0.1,0,0.1,0,0.2,0c0.1,0,0.1,0,0.2,0c0,0,0.1,0,0.1,0
		c0,0,0.1,0,0.1,0c0.1,0,0.1,0,0.2,0c0.1,0,0.1,0,0.1,0c0.1,0,0.1,0,0.1,0c0,0,0.1,0,0.1,0c0,0,0.1,0,0.1,0c0.1,0,0.1,0,0.1,0
		s0,0,0,0.1c0,0,0,0.1-0.1,0.1c0,0-0.1,0.1-0.1,0.1c0,0-0.1,0.1-0.1,0.1c-0.1,0-0.1,0.1-0.2,0.1c-0.1,0-0.1,0.1-0.2,0.1
		c0,0-0.1,0-0.1,0c0,0-0.1,0-0.1,0c-0.1,0-0.1,0-0.2,0c-0.1,0-0.1,0-0.2-0.1c-0.1-0.1-0.2-0.1-0.3-0.2C7.4,23.1,7.4,22.9,7.4,22.9"
		/>
	<path class="st17" d="M7.4,24.5c0,0,0.1,0,0.3,0.1c0.1,0,0.2,0.1,0.3,0.1c0.1,0,0.1,0,0.2,0c0.1,0,0.1,0,0.2,0c0,0,0.1,0,0.1,0
		c0,0,0.1,0,0.1,0c0.1,0,0.1,0,0.2,0c0.1,0,0.1,0,0.1,0c0.1,0,0.1,0,0.1,0c0,0,0.1,0,0.1,0c0,0,0.1,0,0.1,0c0.1,0,0.1,0,0.1,0
		s0,0,0,0.1c0,0,0,0.1-0.1,0.1c0,0-0.1,0.1-0.1,0.1c0,0-0.1,0.1-0.1,0.1C8.8,25,8.8,25,8.7,25c-0.1,0-0.1,0.1-0.2,0.1
		c0,0-0.1,0-0.1,0c0,0-0.1,0-0.1,0c-0.1,0-0.1,0-0.2,0c-0.1,0-0.1,0-0.2-0.1c-0.1-0.1-0.2-0.1-0.3-0.2C7.4,24.7,7.4,24.5,7.4,24.5"
		/>
	<path class="st17" d="M7.4,26.1c0,0,0.1,0,0.3,0.1c0.1,0,0.2,0.1,0.3,0.1c0.1,0,0.1,0,0.2,0c0.1,0,0.1,0,0.2,0c0,0,0.1,0,0.1,0
		c0,0,0.1,0,0.1,0c0.1,0,0.1,0,0.2,0c0.1,0,0.1,0,0.1,0c0.1,0,0.1,0,0.1,0c0,0,0.1,0,0.1,0c0,0,0.1,0,0.1,0c0.1,0,0.1,0,0.1,0
		s0,0,0,0.1c0,0,0,0.1-0.1,0.1c0,0-0.1,0.1-0.1,0.1c0,0-0.1,0.1-0.1,0.1c-0.1,0-0.1,0.1-0.2,0.1c-0.1,0-0.1,0.1-0.2,0.1
		c0,0-0.1,0-0.1,0c0,0-0.1,0-0.1,0c-0.1,0-0.1,0-0.2,0c-0.1,0-0.1,0-0.2-0.1c-0.1-0.1-0.2-0.1-0.3-0.2C7.4,26.3,7.4,26.1,7.4,26.1"
		/>
	<path class="st17" d="M7.4,27.7c0,0,0.1,0,0.3,0.1c0.1,0,0.2,0.1,0.3,0.1c0.1,0,0.1,0,0.2,0c0.1,0,0.1,0,0.2,0c0,0,0.1,0,0.1,0
		c0,0,0.1,0,0.1,0c0.1,0,0.1,0,0.2,0c0.1,0,0.1,0,0.1,0c0.1,0,0.1,0,0.1,0c0,0,0.1,0,0.1,0c0,0,0.1,0,0.1,0c0.1,0,0.1,0,0.1,0
		s0,0,0,0.1c0,0,0,0.1-0.1,0.1c0,0-0.1,0.1-0.1,0.1c0,0-0.1,0.1-0.1,0.1c-0.1,0-0.1,0.1-0.2,0.1c-0.1,0-0.1,0.1-0.2,0.1
		c0,0-0.1,0-0.1,0c0,0-0.1,0-0.1,0c-0.1,0-0.1,0-0.2,0c-0.1,0-0.1,0-0.2-0.1c-0.1-0.1-0.2-0.1-0.3-0.2C7.4,27.8,7.4,27.7,7.4,27.7"
		/>
	<path class="st17" d="M7.4,29.3c0,0,0.1,0,0.3,0.1c0.1,0,0.2,0.1,0.3,0.1c0.1,0,0.1,0,0.2,0c0.1,0,0.1,0,0.2,0c0,0,0.1,0,0.1,0
		c0,0,0.1,0,0.1,0c0.1,0,0.1,0,0.2,0c0.1,0,0.1,0,0.1,0c0.1,0,0.1,0,0.1,0c0,0,0.1,0,0.1,0c0,0,0.1,0,0.1,0c0.1,0,0.1,0,0.1,0
		s0,0,0,0.1c0,0,0,0.1-0.1,0.1c0,0-0.1,0.1-0.1,0.1c0,0-0.1,0.1-0.1,0.1c-0.1,0-0.1,0.1-0.2,0.1c-0.1,0-0.1,0.1-0.2,0.1
		c0,0-0.1,0-0.1,0c0,0-0.1,0-0.1,0c-0.1,0-0.1,0-0.2,0c-0.1,0-0.1,0-0.2-0.1c-0.1-0.1-0.2-0.1-0.3-0.2C7.4,29.4,7.4,29.3,7.4,29.3"
		/>
	<path class="st17" d="M7.4,30.9c0,0,0.1,0,0.3,0.1c0.1,0,0.2,0.1,0.3,0.1c0.1,0,0.1,0,0.2,0c0.1,0,0.1,0,0.2,0c0,0,0.1,0,0.1,0
		c0,0,0.1,0,0.1,0c0.1,0,0.1,0,0.2,0c0.1,0,0.1,0,0.1,0c0.1,0,0.1,0,0.1,0c0,0,0.1,0,0.1,0c0,0,0.1,0,0.1,0c0.1,0,0.1,0,0.1,0
		s0,0,0,0.1c0,0,0,0.1-0.1,0.1c0,0-0.1,0.1-0.1,0.1c0,0-0.1,0.1-0.1,0.1c-0.1,0-0.1,0.1-0.2,0.1c-0.1,0-0.1,0.1-0.2,0.1
		c0,0-0.1,0-0.1,0c0,0-0.1,0-0.1,0c-0.1,0-0.1,0-0.2,0c-0.1,0-0.1,0-0.2-0.1c-0.1-0.1-0.2-0.1-0.3-0.2C7.4,31,7.4,30.9,7.4,30.9"/>
	<path class="st17" d="M7.4,32.5c0,0,0.1,0,0.3,0.1c0.1,0,0.2,0.1,0.3,0.1c0.1,0,0.1,0,0.2,0c0.1,0,0.1,0,0.2,0c0,0,0.1,0,0.1,0
		c0,0,0.1,0,0.1,0c0.1,0,0.1,0,0.2,0c0.1,0,0.1,0,0.1,0c0.1,0,0.1,0,0.1,0c0,0,0.1,0,0.1,0c0,0,0.1,0,0.1,0c0.1,0,0.1,0,0.1,0
		s0,0,0,0.1c0,0,0,0.1-0.1,0.1c0,0-0.1,0.1-0.1,0.1c0,0-0.1,0.1-0.1,0.1c-0.1,0-0.1,0.1-0.2,0.1c-0.1,0-0.1,0.1-0.2,0.1
		c0,0-0.1,0-0.1,0c0,0-0.1,0-0.1,0c-0.1,0-0.1,0-0.2,0c-0.1,0-0.1,0-0.2-0.1c-0.1-0.1-0.2-0.1-0.3-0.2C7.4,32.6,7.4,32.5,7.4,32.5"
		/>
	<path class="st17" d="M7.4,34.1c0,0,0.1,0,0.3,0.1c0.1,0,0.2,0.1,0.3,0.1c0.1,0,0.1,0,0.2,0c0.1,0,0.1,0,0.2,0c0,0,0.1,0,0.1,0
		c0,0,0.1,0,0.1,0c0.1,0,0.1,0,0.2,0c0.1,0,0.1,0,0.1,0c0.1,0,0.1,0,0.1,0c0,0,0.1,0,0.1,0c0,0,0.1,0,0.1,0c0.1,0,0.1,0,0.1,0
		s0,0,0,0.1c0,0,0,0.1-0.1,0.1c0,0-0.1,0.1-0.1,0.1c0,0-0.1,0.1-0.1,0.1c-0.1,0-0.1,0.1-0.2,0.1c-0.1,0-0.1,0.1-0.2,0.1
		c0,0-0.1,0-0.1,0c0,0-0.1,0-0.1,0c-0.1,0-0.1,0-0.2,0c-0.1,0-0.1,0-0.2-0.1c-0.1-0.1-0.2-0.1-0.3-0.2C7.4,34.2,7.4,34.1,7.4,34.1"
		/>
	<path class="st17" d="M7.4,35.7c0,0,0.1,0,0.3,0.1c0.1,0,0.2,0.1,0.3,0.1c0.1,0,0.1,0,0.2,0c0.1,0,0.1,0,0.2,0c0,0,0.1,0,0.1,0
		c0,0,0.1,0,0.1,0c0.1,0,0.1,0,0.2,0c0.1,0,0.1,0,0.1,0c0.1,0,0.1,0,0.1,0c0,0,0.1,0,0.1,0c0,0,0.1,0,0.1,0c0.1,0,0.1,0,0.1,0
		s0,0,0,0.1c0,0,0,0.1-0.1,0.1c0,0-0.1,0.1-0.1,0.1c0,0-0.1,0.1-0.1,0.1c-0.1,0-0.1,0.1-0.2,0.1c-0.1,0-0.1,0.1-0.2,0.1
		c0,0-0.1,0-0.1,0c0,0-0.1,0-0.1,0c-0.1,0-0.1,0-0.2,0c-0.1,0-0.1,0-0.2-0.1c-0.1-0.1-0.2-0.1-0.3-0.2C7.4,35.8,7.4,35.7,7.4,35.7"
		/>
	<path class="st17" d="M7.4,37.3c0,0,0.1,0,0.3,0.1c0.1,0,0.2,0.1,0.3,0.1c0.1,0,0.1,0,0.2,0c0.1,0,0.1,0,0.2,0c0,0,0.1,0,0.1,0
		c0,0,0.1,0,0.1,0c0.1,0,0.1,0,0.2,0c0.1,0,0.1,0,0.1,0c0.1,0,0.1,0,0.1,0c0,0,0.1,0,0.1,0c0,0,0.1,0,0.1,0c0.1,0,0.1,0,0.1,0
		s0,0,0,0.1c0,0,0,0.1-0.1,0.1c0,0-0.1,0.1-0.1,0.1c0,0-0.1,0.1-0.1,0.1c-0.1,0-0.1,0.1-0.2,0.1c-0.1,0-0.1,0.1-0.2,0.1
		c0,0-0.1,0-0.1,0c0,0-0.1,0-0.1,0c-0.1,0-0.1,0-0.2,0c-0.1,0-0.1,0-0.2-0.1c-0.1-0.1-0.2-0.1-0.3-0.2C7.4,37.4,7.4,37.3,7.4,37.3"
		/>
	<path class="st17" d="M7.4,38.9c0,0,0.1,0,0.3,0.1c0.1,0,0.2,0.1,0.3,0.1c0.1,0,0.1,0,0.2,0c0.1,0,0.1,0,0.2,0c0,0,0.1,0,0.1,0
		c0,0,0.1,0,0.1,0c0.1,0,0.1,0,0.2,0c0.1,0,0.1,0,0.1,0c0.1,0,0.1,0,0.1,0c0,0,0.1,0,0.1,0c0,0,0.1,0,0.1,0c0.1,0,0.1,0,0.1,0
		s0,0,0,0.1c0,0,0,0.1-0.1,0.1c0,0-0.1,0.1-0.1,0.1c0,0-0.1,0.1-0.1,0.1c-0.1,0-0.1,0.1-0.2,0.1c-0.1,0-0.1,0.1-0.2,0.1
		c0,0-0.1,0-0.1,0c0,0-0.1,0-0.1,0c-0.1,0-0.1,0-0.2,0c-0.1,0-0.1,0-0.2-0.1c-0.1-0.1-0.2-0.1-0.3-0.2C7.4,39,7.4,38.9,7.4,38.9"/>
	<path class="st17" d="M7.4,40.5c0,0,0.1,0,0.3,0.1c0.1,0,0.2,0.1,0.3,0.1c0.1,0,0.1,0,0.2,0c0.1,0,0.1,0,0.2,0c0,0,0.1,0,0.1,0
		c0,0,0.1,0,0.1,0c0.1,0,0.1,0,0.2,0c0.1,0,0.1,0,0.1,0c0.1,0,0.1,0,0.1,0c0,0,0.1,0,0.1,0c0,0,0.1,0,0.1,0c0.1,0,0.1,0,0.1,0
		s0,0,0,0.1c0,0,0,0.1-0.1,0.1c0,0-0.1,0.1-0.1,0.1c0,0-0.1,0.1-0.1,0.1c-0.1,0-0.1,0.1-0.2,0.1c-0.1,0-0.1,0.1-0.2,0.1
		c0,0-0.1,0-0.1,0c0,0-0.1,0-0.1,0c-0.1,0-0.1,0-0.2,0C8,41,7.9,41,7.9,41c-0.1-0.1-0.2-0.1-0.3-0.2C7.4,40.6,7.4,40.5,7.4,40.5"/>
	<path class="st17" d="M7.4,42.1c0,0,0.1,0,0.3,0.1c0.1,0,0.2,0.1,0.3,0.1c0.1,0,0.1,0,0.2,0c0.1,0,0.1,0,0.2,0c0,0,0.1,0,0.1,0
		c0,0,0.1,0,0.1,0c0.1,0,0.1,0,0.2,0c0.1,0,0.1,0,0.1,0c0.1,0,0.1,0,0.1,0c0,0,0.1,0,0.1,0c0,0,0.1,0,0.1,0c0.1,0,0.1,0,0.1,0
		s0,0,0,0.1c0,0,0,0.1-0.1,0.1c0,0-0.1,0.1-0.1,0.1c0,0-0.1,0.1-0.1,0.1c-0.1,0-0.1,0.1-0.2,0.1c-0.1,0-0.1,0.1-0.2,0.1
		c0,0-0.1,0-0.1,0c0,0-0.1,0-0.1,0c-0.1,0-0.1,0-0.2,0c-0.1,0-0.1,0-0.2-0.1c-0.1-0.1-0.2-0.1-0.3-0.2C7.4,42.2,7.4,42.1,7.4,42.1"
		/>
	<path class="st17" d="M7.4,43.7c0,0,0.1,0,0.3,0.1c0.1,0,0.2,0.1,0.3,0.1c0.1,0,0.1,0,0.2,0c0.1,0,0.1,0,0.2,0c0,0,0.1,0,0.1,0
		c0,0,0.1,0,0.1,0c0.1,0,0.1,0,0.2,0c0.1,0,0.1,0,0.1,0c0.1,0,0.1,0,0.1,0c0,0,0.1,0,0.1,0c0,0,0.1,0,0.1,0c0.1,0,0.1,0,0.1,0
		s0,0,0,0.1c0,0,0,0.1-0.1,0.1c0,0-0.1,0.1-0.1,0.1c0,0-0.1,0.1-0.1,0.1c-0.1,0-0.1,0.1-0.2,0.1c-0.1,0-0.1,0.1-0.2,0.1
		c0,0-0.1,0-0.1,0c0,0-0.1,0-0.1,0c-0.1,0-0.1,0-0.2,0c-0.1,0-0.1,0-0.2-0.1C7.8,44.1,7.7,44,7.6,44C7.4,43.8,7.4,43.7,7.4,43.7"/>
	<path class="st17" d="M7.4,45.3c0,0,0.1,0,0.3,0.1c0.1,0,0.2,0.1,0.3,0.1c0.1,0,0.1,0,0.2,0c0.1,0,0.1,0,0.2,0c0,0,0.1,0,0.1,0
		c0,0,0.1,0,0.1,0c0.1,0,0.1,0,0.2,0c0.1,0,0.1,0,0.1,0c0.1,0,0.1,0,0.1,0c0,0,0.1,0,0.1,0c0,0,0.1,0,0.1,0c0.1,0,0.1,0,0.1,0
		s0,0,0,0.1c0,0,0,0.1-0.1,0.1c0,0-0.1,0.1-0.1,0.1c0,0-0.1,0.1-0.1,0.1c-0.1,0-0.1,0.1-0.2,0.1c-0.1,0-0.1,0.1-0.2,0.1
		c0,0-0.1,0-0.1,0c0,0-0.1,0-0.1,0c-0.1,0-0.1,0-0.2,0c-0.1,0-0.1,0-0.2-0.1c-0.1-0.1-0.2-0.1-0.3-0.2C7.4,45.4,7.4,45.3,7.4,45.3"
		/>
	<path class="st17" d="M7.4,46.9c0,0,0.1,0,0.3,0.1c0.1,0,0.2,0.1,0.3,0.1c0.1,0,0.1,0,0.2,0c0.1,0,0.1,0,0.2,0c0,0,0.1,0,0.1,0
		c0,0,0.1,0,0.1,0c0.1,0,0.1,0,0.2,0c0.1,0,0.1,0,0.1,0c0.1,0,0.1,0,0.1,0c0,0,0.1,0,0.1,0c0,0,0.1,0,0.1,0c0.1,0,0.1,0,0.1,0
		s0,0,0,0.1c0,0,0,0.1-0.1,0.1c0,0-0.1,0.1-0.1,0.1c0,0-0.1,0.1-0.1,0.1c-0.1,0-0.1,0.1-0.2,0.1c-0.1,0-0.1,0.1-0.2,0.1
		c0,0-0.1,0-0.1,0c0,0-0.1,0-0.1,0c-0.1,0-0.1,0-0.2,0c-0.1,0-0.1,0-0.2-0.1c-0.1-0.1-0.2-0.1-0.3-0.2C7.4,47,7.4,46.9,7.4,46.9"/>
	<path class="st17" d="M7.4,48.5c0,0,0.1,0,0.3,0.1c0.1,0,0.2,0.1,0.3,0.1c0.1,0,0.1,0,0.2,0c0.1,0,0.1,0,0.2,0c0,0,0.1,0,0.1,0
		c0,0,0.1,0,0.1,0c0.1,0,0.1,0,0.2,0c0.1,0,0.1,0,0.1,0c0.1,0,0.1,0,0.1,0c0,0,0.1,0,0.1,0c0,0,0.1,0,0.1,0c0.1,0,0.1,0,0.1,0
		s0,0,0,0.1c0,0,0,0.1-0.1,0.1c0,0-0.1,0.1-0.1,0.1c0,0-0.1,0.1-0.1,0.1c-0.1,0-0.1,0.1-0.2,0.1c-0.1,0-0.1,0.1-0.2,0.1
		c0,0-0.1,0-0.1,0c0,0-0.1,0-0.1,0c-0.1,0-0.1,0-0.2,0C8,49,7.9,49,7.9,49c-0.1-0.1-0.2-0.1-0.3-0.2C7.4,48.6,7.4,48.5,7.4,48.5"/>
	<path class="st17" d="M7.4,50.1c0,0,0.1,0,0.3,0.1c0.1,0,0.2,0.1,0.3,0.1c0.1,0,0.1,0,0.2,0c0.1,0,0.1,0,0.2,0c0,0,0.1,0,0.1,0
		c0,0,0.1,0,0.1,0c0.1,0,0.1,0,0.2,0c0.1,0,0.1,0,0.1,0c0.1,0,0.1,0,0.1,0c0,0,0.1,0,0.1,0c0,0,0.1,0,0.1,0c0.1,0,0.1,0,0.1,0
		s0,0,0,0.1c0,0,0,0.1-0.1,0.1c0,0-0.1,0.1-0.1,0.1c0,0-0.1,0.1-0.1,0.1c-0.1,0-0.1,0.1-0.2,0.1c-0.1,0-0.1,0.1-0.2,0.1
		c0,0-0.1,0-0.1,0c0,0-0.1,0-0.1,0c-0.1,0-0.1,0-0.2,0c-0.1,0-0.1,0-0.2-0.1c-0.1-0.1-0.2-0.1-0.3-0.2C7.4,50.2,7.4,50.1,7.4,50.1"
		/>
	<path class="st17" d="M7.4,51.7c0,0,0.1,0,0.3,0.1c0.1,0,0.2,0.1,0.3,0.1c0.1,0,0.1,0,0.2,0c0.1,0,0.1,0,0.2,0c0,0,0.1,0,0.1,0
		c0,0,0.1,0,0.1,0c0.1,0,0.1,0,0.2,0c0.1,0,0.1,0,0.1,0c0.1,0,0.1,0,0.1,0c0,0,0.1,0,0.1,0c0,0,0.1,0,0.1,0c0.1,0,0.1,0,0.1,0
		s0,0,0,0.1c0,0,0,0.1-0.1,0.1c0,0-0.1,0.1-0.1,0.1c0,0-0.1,0.1-0.1,0.1c-0.1,0-0.1,0.1-0.2,0.1c-0.1,0-0.1,0.1-0.2,0.1
		c0,0-0.1,0-0.1,0c0,0-0.1,0-0.1,0c-0.1,0-0.1,0-0.2,0c-0.1,0-0.1,0-0.2-0.1C7.8,52.1,7.7,52,7.6,52C7.4,51.8,7.4,51.7,7.4,51.7"/>
	<path class="st17" d="M7.4,53.3c0,0,0.1,0,0.3,0.1c0.1,0,0.2,0.1,0.3,0.1c0.1,0,0.1,0,0.2,0c0.1,0,0.1,0,0.2,0c0,0,0.1,0,0.1,0
		c0,0,0.1,0,0.1,0c0.1,0,0.1,0,0.2,0c0.1,0,0.1,0,0.1,0c0.1,0,0.1,0,0.1,0c0,0,0.1,0,0.1,0c0,0,0.1,0,0.1,0c0.1,0,0.1,0,0.1,0
		s0,0,0,0.1c0,0,0,0.1-0.1,0.1c0,0-0.1,0.1-0.1,0.1c0,0-0.1,0.1-0.1,0.1c-0.1,0-0.1,0.1-0.2,0.1c-0.1,0-0.1,0.1-0.2,0.1
		c0,0-0.1,0-0.1,0c0,0-0.1,0-0.1,0c-0.1,0-0.1,0-0.2,0c-0.1,0-0.1,0-0.2-0.1c-0.1-0.1-0.2-0.1-0.3-0.2C7.4,53.4,7.4,53.3,7.4,53.3"
		/>
	<path class="st17" d="M7.4,52.5c0,0,0.1,0,0.3,0.1c0.1,0,0.2,0.1,0.3,0.1c0.1,0,0.1,0,0.2,0c0.1,0,0.1,0,0.2,0c0,0,0.1,0,0.1,0
		c0,0,0.1,0,0.1,0c0.1,0,0.1,0,0.2,0c0.1,0,0.1,0,0.1,0c0.1,0,0.1,0,0.1,0c0,0,0.1,0,0.1,0c0,0,0.1,0,0.1,0c0.1,0,0.1,0,0.1,0
		s0,0,0,0.1c0,0,0,0.1-0.1,0.1c0,0-0.1,0.1-0.1,0.1c0,0-0.1,0.1-0.1,0.1c-0.1,0-0.1,0.1-0.2,0.1c-0.1,0-0.1,0.1-0.2,0.1
		c0,0-0.1,0-0.1,0c0,0-0.1,0-0.1,0c-0.1,0-0.1,0-0.2,0C8,53,7.9,53,7.9,53c-0.1-0.1-0.2-0.1-0.3-0.2C7.4,52.6,7.4,52.5,7.4,52.5"/>
	<path class="st17" d="M7.4,50.9c0,0,0.1,0,0.3,0.1c0.1,0,0.2,0.1,0.3,0.1c0.1,0,0.1,0,0.2,0c0.1,0,0.1,0,0.2,0c0,0,0.1,0,0.1,0
		c0,0,0.1,0,0.1,0c0.1,0,0.1,0,0.2,0c0.1,0,0.1,0,0.1,0c0.1,0,0.1,0,0.1,0c0,0,0.1,0,0.1,0c0,0,0.1,0,0.1,0c0.1,0,0.1,0,0.1,0
		s0,0,0,0.1c0,0,0,0.1-0.1,0.1c0,0-0.1,0.1-0.1,0.1c0,0-0.1,0.1-0.1,0.1c-0.1,0-0.1,0.1-0.2,0.1c-0.1,0-0.1,0.1-0.2,0.1
		c0,0-0.1,0-0.1,0c0,0-0.1,0-0.1,0c-0.1,0-0.1,0-0.2,0c-0.1,0-0.1,0-0.2-0.1c-0.1-0.1-0.2-0.1-0.3-0.2C7.4,51,7.4,50.9,7.4,50.9"/>
	<path class="st17" d="M7.4,49.3c0,0,0.1,0,0.3,0.1c0.1,0,0.2,0.1,0.3,0.1c0.1,0,0.1,0,0.2,0c0.1,0,0.1,0,0.2,0c0,0,0.1,0,0.1,0
		c0,0,0.1,0,0.1,0c0.1,0,0.1,0,0.2,0c0.1,0,0.1,0,0.1,0c0.1,0,0.1,0,0.1,0c0,0,0.1,0,0.1,0c0,0,0.1,0,0.1,0c0.1,0,0.1,0,0.1,0
		s0,0,0,0.1c0,0,0,0.1-0.1,0.1c0,0-0.1,0.1-0.1,0.1c0,0-0.1,0.1-0.1,0.1c-0.1,0-0.1,0.1-0.2,0.1c-0.1,0-0.1,0.1-0.2,0.1
		c0,0-0.1,0-0.1,0c0,0-0.1,0-0.1,0c-0.1,0-0.1,0-0.2,0c-0.1,0-0.1,0-0.2-0.1c-0.1-0.1-0.2-0.1-0.3-0.2C7.4,49.4,7.4,49.3,7.4,49.3"
		/>
	<path class="st17" d="M7.4,47.7c0,0,0.1,0,0.3,0.1c0.1,0,0.2,0.1,0.3,0.1c0.1,0,0.1,0,0.2,0c0.1,0,0.1,0,0.2,0c0,0,0.1,0,0.1,0
		c0,0,0.1,0,0.1,0c0.1,0,0.1,0,0.2,0c0.1,0,0.1,0,0.1,0c0.1,0,0.1,0,0.1,0c0,0,0.1,0,0.1,0c0,0,0.1,0,0.1,0c0.1,0,0.1,0,0.1,0
		s0,0,0,0.1c0,0,0,0.1-0.1,0.1c0,0-0.1,0.1-0.1,0.1c0,0-0.1,0.1-0.1,0.1c-0.1,0-0.1,0.1-0.2,0.1c-0.1,0-0.1,0.1-0.2,0.1
		c0,0-0.1,0-0.1,0c0,0-0.1,0-0.1,0c-0.1,0-0.1,0-0.2,0c-0.1,0-0.1,0-0.2-0.1C7.8,48.1,7.7,48,7.6,48C7.4,47.8,7.4,47.7,7.4,47.7"/>
	<path class="st17" d="M7.4,46.1c0,0,0.1,0,0.3,0.1c0.1,0,0.2,0.1,0.3,0.1c0.1,0,0.1,0,0.2,0c0.1,0,0.1,0,0.2,0c0,0,0.1,0,0.1,0
		c0,0,0.1,0,0.1,0c0.1,0,0.1,0,0.2,0c0.1,0,0.1,0,0.1,0c0.1,0,0.1,0,0.1,0c0,0,0.1,0,0.1,0c0,0,0.1,0,0.1,0c0.1,0,0.1,0,0.1,0
		s0,0,0,0.1c0,0,0,0.1-0.1,0.1c0,0-0.1,0.1-0.1,0.1c0,0-0.1,0.1-0.1,0.1c-0.1,0-0.1,0.1-0.2,0.1c-0.1,0-0.1,0.1-0.2,0.1
		c0,0-0.1,0-0.1,0c0,0-0.1,0-0.1,0c-0.1,0-0.1,0-0.2,0c-0.1,0-0.1,0-0.2-0.1c-0.1-0.1-0.2-0.1-0.3-0.2C7.4,46.2,7.4,46.1,7.4,46.1"
		/>
	<path class="st17" d="M7.4,44.5c0,0,0.1,0,0.3,0.1c0.1,0,0.2,0.1,0.3,0.1c0.1,0,0.1,0,0.2,0c0.1,0,0.1,0,0.2,0c0,0,0.1,0,0.1,0
		c0,0,0.1,0,0.1,0c0.1,0,0.1,0,0.2,0c0.1,0,0.1,0,0.1,0c0.1,0,0.1,0,0.1,0c0,0,0.1,0,0.1,0c0,0,0.1,0,0.1,0c0.1,0,0.1,0,0.1,0
		s0,0,0,0.1c0,0,0,0.1-0.1,0.1c0,0-0.1,0.1-0.1,0.1c0,0-0.1,0.1-0.1,0.1c-0.1,0-0.1,0.1-0.2,0.1c-0.1,0-0.1,0.1-0.2,0.1
		c0,0-0.1,0-0.1,0c0,0-0.1,0-0.1,0c-0.1,0-0.1,0-0.2,0C8,45,7.9,45,7.9,45c-0.1-0.1-0.2-0.1-0.3-0.2C7.4,44.6,7.4,44.5,7.4,44.5"/>
	<path class="st17" d="M7.4,42.9c0,0,0.1,0,0.3,0.1c0.1,0,0.2,0.1,0.3,0.1c0.1,0,0.1,0,0.2,0c0.1,0,0.1,0,0.2,0c0,0,0.1,0,0.1,0
		c0,0,0.1,0,0.1,0c0.1,0,0.1,0,0.2,0c0.1,0,0.1,0,0.1,0c0.1,0,0.1,0,0.1,0c0,0,0.1,0,0.1,0c0,0,0.1,0,0.1,0c0.1,0,0.1,0,0.1,0
		s0,0,0,0.1c0,0,0,0.1-0.1,0.1c0,0-0.1,0.1-0.1,0.1c0,0-0.1,0.1-0.1,0.1c-0.1,0-0.1,0.1-0.2,0.1c-0.1,0-0.1,0.1-0.2,0.1
		c0,0-0.1,0-0.1,0c0,0-0.1,0-0.1,0c-0.1,0-0.1,0-0.2,0c-0.1,0-0.1,0-0.2-0.1c-0.1-0.1-0.2-0.1-0.3-0.2C7.4,43,7.4,42.9,7.4,42.9"/>
	<path class="st17" d="M7.4,41.3c0,0,0.1,0,0.3,0.1c0.1,0,0.2,0.1,0.3,0.1c0.1,0,0.1,0,0.2,0c0.1,0,0.1,0,0.2,0c0,0,0.1,0,0.1,0
		c0,0,0.1,0,0.1,0c0.1,0,0.1,0,0.2,0c0.1,0,0.1,0,0.1,0c0.1,0,0.1,0,0.1,0c0,0,0.1,0,0.1,0c0,0,0.1,0,0.1,0c0.1,0,0.1,0,0.1,0
		s0,0,0,0.1c0,0,0,0.1-0.1,0.1c0,0-0.1,0.1-0.1,0.1c0,0-0.1,0.1-0.1,0.1c-0.1,0-0.1,0.1-0.2,0.1c-0.1,0-0.1,0.1-0.2,0.1
		c0,0-0.1,0-0.1,0c0,0-0.1,0-0.1,0c-0.1,0-0.1,0-0.2,0c-0.1,0-0.1,0-0.2-0.1c-0.1-0.1-0.2-0.1-0.3-0.2C7.4,41.4,7.4,41.3,7.4,41.3"
		/>
	<path class="st17" d="M7.4,39.7c0,0,0.1,0,0.3,0.1c0.1,0,0.2,0.1,0.3,0.1c0.1,0,0.1,0,0.2,0c0.1,0,0.1,0,0.2,0c0,0,0.1,0,0.1,0
		c0,0,0.1,0,0.1,0c0.1,0,0.1,0,0.2,0c0.1,0,0.1,0,0.1,0c0.1,0,0.1,0,0.1,0c0,0,0.1,0,0.1,0c0,0,0.1,0,0.1,0c0.1,0,0.1,0,0.1,0
		s0,0,0,0.1c0,0,0,0.1-0.1,0.1c0,0-0.1,0.1-0.1,0.1c0,0-0.1,0.1-0.1,0.1c-0.1,0-0.1,0.1-0.2,0.1c-0.1,0-0.1,0.1-0.2,0.1
		c0,0-0.1,0-0.1,0c0,0-0.1,0-0.1,0c-0.1,0-0.1,0-0.2,0c-0.1,0-0.1,0-0.2-0.1c-0.1-0.1-0.2-0.1-0.3-0.2C7.4,39.8,7.4,39.7,7.4,39.7"
		/>
	<path class="st17" d="M7.4,38.1c0,0,0.1,0,0.3,0.1c0.1,0,0.2,0.1,0.3,0.1c0.1,0,0.1,0,0.2,0c0.1,0,0.1,0,0.2,0c0,0,0.1,0,0.1,0
		c0,0,0.1,0,0.1,0c0.1,0,0.1,0,0.2,0c0.1,0,0.1,0,0.1,0c0.1,0,0.1,0,0.1,0c0,0,0.1,0,0.1,0c0,0,0.1,0,0.1,0c0.1,0,0.1,0,0.1,0
		s0,0,0,0.1c0,0,0,0.1-0.1,0.1c0,0-0.1,0.1-0.1,0.1c0,0-0.1,0.1-0.1,0.1c-0.1,0-0.1,0.1-0.2,0.1c-0.1,0-0.1,0.1-0.2,0.1
		c0,0-0.1,0-0.1,0c0,0-0.1,0-0.1,0c-0.1,0-0.1,0-0.2,0c-0.1,0-0.1,0-0.2-0.1c-0.1-0.1-0.2-0.1-0.3-0.2C7.4,38.2,7.4,38.1,7.4,38.1"
		/>
	<path class="st17" d="M7.4,36.5c0,0,0.1,0,0.3,0.1c0.1,0,0.2,0.1,0.3,0.1c0.1,0,0.1,0,0.2,0c0.1,0,0.1,0,0.2,0c0,0,0.1,0,0.1,0
		c0,0,0.1,0,0.1,0c0.1,0,0.1,0,0.2,0c0.1,0,0.1,0,0.1,0c0.1,0,0.1,0,0.1,0c0,0,0.1,0,0.1,0c0,0,0.1,0,0.1,0c0.1,0,0.1,0,0.1,0
		s0,0,0,0.1c0,0,0,0.1-0.1,0.1c0,0-0.1,0.1-0.1,0.1c0,0-0.1,0.1-0.1,0.1c-0.1,0-0.1,0.1-0.2,0.1c-0.1,0-0.1,0.1-0.2,0.1
		c0,0-0.1,0-0.1,0c0,0-0.1,0-0.1,0c-0.1,0-0.1,0-0.2,0C8,37,7.9,37,7.9,37c-0.1-0.1-0.2-0.1-0.3-0.2C7.4,36.6,7.4,36.5,7.4,36.5"/>
	<path class="st17" d="M7.4,34.9c0,0,0.1,0,0.3,0.1c0.1,0,0.2,0.1,0.3,0.1c0.1,0,0.1,0,0.2,0c0.1,0,0.1,0,0.2,0c0,0,0.1,0,0.1,0
		c0,0,0.1,0,0.1,0c0.1,0,0.1,0,0.2,0c0.1,0,0.1,0,0.1,0c0.1,0,0.1,0,0.1,0c0,0,0.1,0,0.1,0c0,0,0.1,0,0.1,0c0.1,0,0.1,0,0.1,0
		s0,0,0,0.1c0,0,0,0.1-0.1,0.1c0,0-0.1,0.1-0.1,0.1c0,0-0.1,0.1-0.1,0.1c-0.1,0-0.1,0.1-0.2,0.1c-0.1,0-0.1,0.1-0.2,0.1
		c0,0-0.1,0-0.1,0c0,0-0.1,0-0.1,0c-0.1,0-0.1,0-0.2,0c-0.1,0-0.1,0-0.2-0.1c-0.1-0.1-0.2-0.1-0.3-0.2C7.4,35,7.4,34.9,7.4,34.9"/>
	<path class="st17" d="M7.4,33.3c0,0,0.1,0,0.3,0.1c0.1,0,0.2,0.1,0.3,0.1c0.1,0,0.1,0,0.2,0c0.1,0,0.1,0,0.2,0c0,0,0.1,0,0.1,0
		c0,0,0.1,0,0.1,0c0.1,0,0.1,0,0.2,0c0.1,0,0.1,0,0.1,0c0.1,0,0.1,0,0.1,0c0,0,0.1,0,0.1,0c0,0,0.1,0,0.1,0c0.1,0,0.1,0,0.1,0
		s0,0,0,0.1c0,0,0,0.1-0.1,0.1c0,0-0.1,0.1-0.1,0.1c0,0-0.1,0.1-0.1,0.1c-0.1,0-0.1,0.1-0.2,0.1c-0.1,0-0.1,0.1-0.2,0.1
		c0,0-0.1,0-0.1,0c0,0-0.1,0-0.1,0c-0.1,0-0.1,0-0.2,0c-0.1,0-0.1,0-0.2-0.1c-0.1-0.1-0.2-0.1-0.3-0.2C7.4,33.4,7.4,33.3,7.4,33.3"
		/>
	<path class="st17" d="M7.4,31.7c0,0,0.1,0,0.3,0.1c0.1,0,0.2,0.1,0.3,0.1c0.1,0,0.1,0,0.2,0c0.1,0,0.1,0,0.2,0c0,0,0.1,0,0.1,0
		c0,0,0.1,0,0.1,0c0.1,0,0.1,0,0.2,0c0.1,0,0.1,0,0.1,0c0.1,0,0.1,0,0.1,0c0,0,0.1,0,0.1,0c0,0,0.1,0,0.1,0c0.1,0,0.1,0,0.1,0
		s0,0,0,0.1c0,0,0,0.1-0.1,0.1c0,0-0.1,0.1-0.1,0.1c0,0-0.1,0.1-0.1,0.1c-0.1,0-0.1,0.1-0.2,0.1c-0.1,0-0.1,0.1-0.2,0.1
		c0,0-0.1,0-0.1,0c0,0-0.1,0-0.1,0c-0.1,0-0.1,0-0.2,0c-0.1,0-0.1,0-0.2-0.1c-0.1-0.1-0.2-0.1-0.3-0.2C7.4,31.8,7.4,31.7,7.4,31.7"
		/>
	<path class="st17" d="M7.4,30.1c0,0,0.1,0,0.3,0.1c0.1,0,0.2,0.1,0.3,0.1c0.1,0,0.1,0,0.2,0c0.1,0,0.1,0,0.2,0c0,0,0.1,0,0.1,0
		c0,0,0.1,0,0.1,0c0.1,0,0.1,0,0.2,0c0.1,0,0.1,0,0.1,0c0.1,0,0.1,0,0.1,0c0,0,0.1,0,0.1,0c0,0,0.1,0,0.1,0c0.1,0,0.1,0,0.1,0
		s0,0,0,0.1c0,0,0,0.1-0.1,0.1c0,0-0.1,0.1-0.1,0.1c0,0-0.1,0.1-0.1,0.1c-0.1,0-0.1,0.1-0.2,0.1c-0.1,0-0.1,0.1-0.2,0.1
		c0,0-0.1,0-0.1,0c0,0-0.1,0-0.1,0c-0.1,0-0.1,0-0.2,0c-0.1,0-0.1,0-0.2-0.1c-0.1-0.1-0.2-0.1-0.3-0.2C7.4,30.2,7.4,30.1,7.4,30.1"
		/>
	<path class="st17" d="M7.4,28.5c0,0,0.1,0,0.3,0.1c0.1,0,0.2,0.1,0.3,0.1c0.1,0,0.1,0,0.2,0c0.1,0,0.1,0,0.2,0c0,0,0.1,0,0.1,0
		c0,0,0.1,0,0.1,0c0.1,0,0.1,0,0.2,0c0.1,0,0.1,0,0.1,0c0.1,0,0.1,0,0.1,0c0,0,0.1,0,0.1,0c0,0,0.1,0,0.1,0c0.1,0,0.1,0,0.1,0
		s0,0,0,0.1c0,0,0,0.1-0.1,0.1c0,0-0.1,0.1-0.1,0.1c0,0-0.1,0.1-0.1,0.1C8.8,29,8.8,29,8.7,29c-0.1,0-0.1,0.1-0.2,0.1
		c0,0-0.1,0-0.1,0c0,0-0.1,0-0.1,0c-0.1,0-0.1,0-0.2,0c-0.1,0-0.1,0-0.2-0.1c-0.1-0.1-0.2-0.1-0.3-0.2C7.4,28.6,7.4,28.5,7.4,28.5"
		/>
	<path class="st17" d="M7.4,26.9c0,0,0.1,0,0.3,0.1c0.1,0,0.2,0.1,0.3,0.1c0.1,0,0.1,0,0.2,0c0.1,0,0.1,0,0.2,0c0,0,0.1,0,0.1,0
		c0,0,0.1,0,0.1,0c0.1,0,0.1,0,0.2,0c0.1,0,0.1,0,0.1,0c0.1,0,0.1,0,0.1,0c0,0,0.1,0,0.1,0c0,0,0.1,0,0.1,0c0.1,0,0.1,0,0.1,0
		s0,0,0,0.1c0,0,0,0.1-0.1,0.1c0,0-0.1,0.1-0.1,0.1c0,0-0.1,0.1-0.1,0.1c-0.1,0-0.1,0.1-0.2,0.1c-0.1,0-0.1,0.1-0.2,0.1
		c0,0-0.1,0-0.1,0c0,0-0.1,0-0.1,0c-0.1,0-0.1,0-0.2,0c-0.1,0-0.1,0-0.2-0.1c-0.1-0.1-0.2-0.1-0.3-0.2C7.4,27.1,7.4,26.9,7.4,26.9"
		/>
	<path class="st17" d="M7.4,25.3c0,0,0.1,0,0.3,0.1c0.1,0,0.2,0.1,0.3,0.1c0.1,0,0.1,0,0.2,0c0.1,0,0.1,0,0.2,0c0,0,0.1,0,0.1,0
		c0,0,0.1,0,0.1,0c0.1,0,0.1,0,0.2,0c0.1,0,0.1,0,0.1,0c0.1,0,0.1,0,0.1,0c0,0,0.1,0,0.1,0c0,0,0.1,0,0.1,0c0.1,0,0.1,0,0.1,0
		s0,0,0,0.1c0,0,0,0.1-0.1,0.1c0,0-0.1,0.1-0.1,0.1c0,0-0.1,0.1-0.1,0.1c-0.1,0-0.1,0.1-0.2,0.1c-0.1,0-0.1,0.1-0.2,0.1
		c0,0-0.1,0-0.1,0c0,0-0.1,0-0.1,0c-0.1,0-0.1,0-0.2,0c-0.1,0-0.1,0-0.2-0.1c-0.1-0.1-0.2-0.1-0.3-0.2C7.4,25.5,7.4,25.3,7.4,25.3"
		/>
	<path class="st17" d="M7.4,23.7c0,0,0.1,0,0.3,0.1c0.1,0,0.2,0.1,0.3,0.1c0.1,0,0.1,0,0.2,0c0.1,0,0.1,0,0.2,0c0,0,0.1,0,0.1,0
		c0,0,0.1,0,0.1,0c0.1,0,0.1,0,0.2,0c0.1,0,0.1,0,0.1,0c0.1,0,0.1,0,0.1,0c0,0,0.1,0,0.1,0c0,0,0.1,0,0.1,0c0.1,0,0.1,0,0.1,0
		s0,0,0,0.1c0,0,0,0.1-0.1,0.1c0,0-0.1,0.1-0.1,0.1c0,0-0.1,0.1-0.1,0.1c-0.1,0-0.1,0.1-0.2,0.1c-0.1,0-0.1,0.1-0.2,0.1
		c0,0-0.1,0-0.1,0c0,0-0.1,0-0.1,0c-0.1,0-0.1,0-0.2,0c-0.1,0-0.1,0-0.2-0.1c-0.1-0.1-0.2-0.1-0.3-0.2C7.4,23.9,7.4,23.7,7.4,23.7"
		/>
	<path class="st17" d="M7.4,22.1c0,0,0.1,0,0.3,0.1c0.1,0,0.2,0.1,0.3,0.1c0.1,0,0.1,0,0.2,0c0.1,0,0.1,0,0.2,0c0,0,0.1,0,0.1,0
		c0,0,0.1,0,0.1,0c0.1,0,0.1,0,0.2,0c0.1,0,0.1,0,0.1,0c0.1,0,0.1,0,0.1,0c0,0,0.1,0,0.1,0c0,0,0.1,0,0.1,0c0.1,0,0.1,0,0.1,0
		s0,0,0,0.1c0,0,0,0.1-0.1,0.1c0,0-0.1,0.1-0.1,0.1c0,0-0.1,0.1-0.1,0.1c-0.1,0-0.1,0.1-0.2,0.1c-0.1,0-0.1,0.1-0.2,0.1
		c0,0-0.1,0-0.1,0c0,0-0.1,0-0.1,0c-0.1,0-0.1,0-0.2,0c-0.1,0-0.1,0-0.2-0.1c-0.1-0.1-0.2-0.1-0.3-0.2C7.4,22.3,7.4,22.1,7.4,22.1"
		/>
	<path class="st17" d="M7.4,20.5c0,0,0.1,0,0.3,0.1c0.1,0,0.2,0.1,0.3,0.1c0.1,0,0.1,0,0.2,0c0.1,0,0.1,0,0.2,0c0,0,0.1,0,0.1,0
		c0,0,0.1,0,0.1,0c0.1,0,0.1,0,0.2,0c0.1,0,0.1,0,0.1,0c0.1,0,0.1,0,0.1,0c0,0,0.1,0,0.1,0c0,0,0.1,0,0.1,0c0.1,0,0.1,0,0.1,0
		s0,0,0,0.1c0,0,0,0.1-0.1,0.1c0,0-0.1,0.1-0.1,0.1c0,0-0.1,0.1-0.1,0.1C8.8,21,8.8,21,8.7,21c-0.1,0-0.1,0.1-0.2,0.1
		c0,0-0.1,0-0.1,0c0,0-0.1,0-0.1,0c-0.1,0-0.1,0-0.2,0c-0.1,0-0.1,0-0.2-0.1c-0.1-0.1-0.2-0.1-0.3-0.2C7.4,20.7,7.4,20.5,7.4,20.5"
		/>
	<path class="st17" d="M7.4,18.9c0,0,0.1,0,0.3,0.1c0.1,0,0.2,0.1,0.3,0.1c0.1,0,0.1,0,0.2,0c0.1,0,0.1,0,0.2,0c0,0,0.1,0,0.1,0
		c0,0,0.1,0,0.1,0c0.1,0,0.1,0,0.2,0c0.1,0,0.1,0,0.1,0c0.1,0,0.1,0,0.1,0c0,0,0.1,0,0.1,0c0,0,0.1,0,0.1,0c0.1,0,0.1,0,0.1,0
		s0,0,0,0.1c0,0,0,0.1-0.1,0.1c0,0-0.1,0.1-0.1,0.1c0,0-0.1,0.1-0.1,0.1c-0.1,0-0.1,0.1-0.2,0.1c-0.1,0-0.1,0.1-0.2,0.1
		c0,0-0.1,0-0.1,0c0,0-0.1,0-0.1,0c-0.1,0-0.1,0-0.2,0c-0.1,0-0.1,0-0.2-0.1c-0.1-0.1-0.2-0.1-0.3-0.2C7.4,19.1,7.4,18.9,7.4,18.9"
		/>
</g>
<g>
	<defs>
		<rect id="SVGID_9_" x="-10.2" y="5.4" width="78.3" height="50.3"/>
	</defs>
	<clipPath id="SVGID_10_">
		<use xlink:href="#SVGID_9_"  style="overflow:visible;"/>
	</clipPath>
	<path class="st18" d="M18,19.1c0,0-2,5.3,0,5.3C20,24.4,18,19.1,18,19.1"/>
	<path class="st18" d="M20.3,14.1c0,0-0.2,4.8,1.6,3.7C23.6,16.8,20.3,14.1,20.3,14.1"/>
	<path class="st18" d="M17.6,27.8c0,0-2.5,4.5-0.8,4.8C18.6,32.9,17.6,27.8,17.6,27.8"/>
	<path class="st18" d="M15.5,23.8c0,0-3.3,3.7-1.9,4.5C15,29,15.5,23.8,15.5,23.8"/>
	<path class="st18" d="M28.3,14.1c0,0,2.1,3.5,3,2.3C32.2,15.3,28.3,14.1,28.3,14.1"/>
	<path class="st18" d="M31.7,12.1c0,0,4.4-2.3,4.7-0.2C36.6,13.9,31.7,12.1,31.7,12.1"/>
	<path class="st18" d="M44.9,22.9c0,0,0.8,6.4,3.2,4.9C50.5,26.4,44.9,22.9,44.9,22.9"/>
	<path class="st18" d="M18.4,35c0,0-4.4,4.6-2.4,5.9C17.9,42.3,18.4,35,18.4,35"/>
	<path class="st18" d="M14.4,31.8c0,0-3.5,3.3-1.6,4.3C14.6,37,14.4,31.8,14.4,31.8"/>
	<path class="st19" d="M55,18.6c-1.1,0.6-4.1,2-2.6,3.1c1.5,1.1,1.7,2.2,0.9,3.1c-0.8,0.9-3,3.2,0,3.5s7.6-0.8,6.3-2.9
		c-1.3-2.1-3.5-2.5-2.5-3.8C58,20.5,57,17.7,55,18.6"/>
	<path class="st19" d="M49.9,5.6C47.6,5.4,36.7,5.9,37.7,7c1,1,4.4,0.2,4.4,1.2c-0.1,1-5.5,0.4-4.4,1c1.1,0.6,3.7-0.1,4,0.7
		c0.3,0.8-5.6,0-4,1.1c1.6,1.1,16,2.2,14.1,0.3c-1.9-1.9-6.3-1.9-6.3-2.3c0-0.4,4.1,0.5,3.8-0.3c-0.3-0.8-3.2-0.8-3.2-1.2
		C46.2,7.1,55,6,49.9,5.6"/>
	<path class="st20" d="M53,51.3c0,2.4-2,4.4-4.4,4.4c-2.4,0-4.4-2-4.4-4.4c0-2.4,2-4.4,4.4-4.4C51,46.8,53,48.8,53,51.3"/>
	<path class="st21" d="M51.9,51.3c0,1.9-1.5,3.4-3.4,3.4c-1.9,0-3.4-1.5-3.4-3.4c0-1.9,1.5-3.4,3.4-3.4
		C50.4,47.9,51.9,49.4,51.9,51.3"/>
	<g class="st22">
		<g>
			<defs>
				<rect id="SVGID_11_" x="48.6" y="47.9" width="2" height="3.7"/>
			</defs>
			<clipPath id="SVGID_12_">
				<use xlink:href="#SVGID_11_"  style="overflow:visible;"/>
			</clipPath>
			<g class="st23">
				<defs>
					<rect id="SVGID_13_" x="48.6" y="47.9" width="2" height="3.7"/>
				</defs>
				<clipPath id="SVGID_14_">
					<use xlink:href="#SVGID_13_"  style="overflow:visible;"/>
				</clipPath>
				<path class="st24" d="M48.6,47.9v3.7l2-3C50.6,48.6,50.1,47.9,48.6,47.9"/>
			</g>
		</g>
	</g>
	<polyline class="st25" points="48,49.7 48.4,49.3 48.9,49.7 	"/>
	<polyline class="st25" points="49.6,49.2 50.2,49.1 50.3,49.7 	"/>
	<polyline class="st25" points="50.2,49.1 48.4,51.3 48.4,49.3 	"/>
	<path class="st26" d="M49.2,51.3c0,0.3-0.3,0.6-0.6,0.6c-0.3,0-0.6-0.3-0.6-0.6c0-0.3,0.3-0.6,0.6-0.6
		C48.9,50.7,49.2,50.9,49.2,51.3"/>
	<ellipse class="st27" cx="48.6" cy="51.3" rx="0.6" ry="0.6"/>
	<path class="st28" d="M46.2,50.2c0,0,0,0.1,0,0.2c0,0.1,0,0.3,0.1,0.6c0,0.2,0.1,0.5,0.2,0.8c0,0.1,0.1,0.3,0.1,0.4
		c0.1,0.1,0.1,0.3,0.2,0.4c0.1,0.1,0.1,0.3,0.2,0.4c0.1,0.1,0.2,0.2,0.3,0.3c0.1,0.1,0.2,0.2,0.3,0.3c0.1,0.1,0.2,0.1,0.3,0.2
		c0,0,0.1,0,0.1,0.1c0,0,0.1,0,0.1,0.1c0.1,0,0.2,0.1,0.2,0.1c0.1,0,0.2,0.1,0.2,0.1s-0.1,0-0.2,0c-0.1,0-0.2,0-0.3,0
		c-0.1,0-0.2,0-0.3-0.1c-0.1,0-0.3-0.1-0.4-0.1c-0.1-0.1-0.3-0.1-0.4-0.3c-0.1-0.1-0.1-0.1-0.2-0.2c-0.1-0.1-0.1-0.1-0.2-0.2
		c-0.1-0.1-0.2-0.3-0.3-0.4c-0.1-0.3-0.2-0.6-0.3-1c0-0.2,0-0.3,0-0.4c0-0.1,0-0.3,0-0.4c0-0.2,0.1-0.4,0.1-0.6
		C46.2,50.3,46.2,50.2,46.2,50.2"/>
	<path class="st26" d="M52.6,50.7c0,0,0,0.1,0,0.3c0,0.2,0,0.5,0,0.8c0,0.2,0,0.3-0.1,0.5c0,0.2-0.1,0.4-0.2,0.6
		c-0.1,0.2-0.2,0.4-0.3,0.6c-0.1,0.2-0.2,0.4-0.4,0.5l-0.1,0.1l-0.1,0.1c-0.1,0.1-0.2,0.1-0.3,0.2c-0.2,0.1-0.4,0.3-0.5,0.4
		c-0.2,0.1-0.4,0.2-0.5,0.2c-0.2,0.1-0.3,0.1-0.5,0.2c-0.2,0-0.3,0.1-0.4,0.1c-0.1,0-0.2,0-0.3,0c-0.2,0-0.3,0-0.3,0s0.1,0,0.3-0.1
		c0.1,0,0.2-0.1,0.3-0.1c0.1,0,0.3-0.1,0.4-0.2c0.1,0,0.1-0.1,0.2-0.1c0.1,0,0.2-0.1,0.2-0.1c0.2-0.1,0.3-0.2,0.5-0.3
		c0.1-0.1,0.2-0.1,0.2-0.2c0.1-0.1,0.2-0.1,0.2-0.2c0.1-0.1,0.1-0.1,0.2-0.2l0.1-0.1l0.1-0.1c0.1-0.1,0.3-0.3,0.4-0.5
		c0.1-0.2,0.2-0.3,0.3-0.5c0.1-0.2,0.2-0.3,0.2-0.5c0.1-0.2,0.1-0.3,0.2-0.5c0.1-0.3,0.1-0.6,0.2-0.7C52.6,50.8,52.6,50.7,52.6,50.7
		"/>
	<polygon class="st29" points="13.4,55 3.1,55 4.1,53.6 12.4,53.6 	"/>
	<path class="st30" d="M5.7,53.8c0,0.1-0.1,0.2-0.2,0.2c-0.1,0-0.2-0.1-0.2-0.2v-0.9c0-0.1,0.1-0.2,0.2-0.2c0.1,0,0.2,0.1,0.2,0.2
		V53.8z"/>
	<path class="st31" d="M6.5,52.7c0,0.2-0.4,0.4-0.9,0.4c-0.5,0-0.9-0.2-0.9-0.4c0-0.2,0.4-0.4,0.9-0.4C6.1,52.4,6.5,52.5,6.5,52.7"
		/>
	<path class="st30" d="M8.4,53.8c0,0.1-0.1,0.2-0.2,0.2c-0.1,0-0.2-0.1-0.2-0.2v-0.9c0-0.1,0.1-0.2,0.2-0.2c0.1,0,0.2,0.1,0.2,0.2
		V53.8z"/>
	<path class="st31" d="M9.2,52.7c0,0.2-0.4,0.4-0.9,0.4c-0.5,0-0.9-0.2-0.9-0.4c0-0.2,0.4-0.4,0.9-0.4C8.8,52.4,9.2,52.5,9.2,52.7"
		/>
	<path class="st30" d="M11.1,53.8c0,0.1-0.1,0.2-0.2,0.2c-0.1,0-0.2-0.1-0.2-0.2v-0.9c0-0.1,0.1-0.2,0.2-0.2c0.1,0,0.2,0.1,0.2,0.2
		V53.8z"/>
	<path class="st31" d="M11.9,52.7c0,0.2-0.4,0.4-0.9,0.4c-0.5,0-0.9-0.2-0.9-0.4c0-0.2,0.4-0.4,0.9-0.4
		C11.5,52.4,11.9,52.5,11.9,52.7"/>
	<path class="st18" d="M22.8,43c0,0-5.4,4.7-3,6.1C22.1,50.5,22.8,43,22.8,43"/>
	<path class="st18" d="M45.6,31.8c0,0,0.4,10,3.6,8.4C52.3,38.7,45.6,31.8,45.6,31.8"/>
	<path class="st18" d="M40.8,38.1c0,0,1.5,6.5,2.9,5C45,41.4,40.8,38.1,40.8,38.1"/>
	<path class="st28" d="M21.2,10.2c-0.1,0.1-0.1,0.2-0.1,0.2c0,0,0.1,0,0.2,0c0.1-0.1,0.1-0.2,0.1-0.2C21.4,10.1,21.3,10.2,21.2,10.2
		"/>
	<path class="st28" d="M21,11c-0.1,0.1-0.1,0.2-0.1,0.2c0,0,0.1,0,0.2,0c0.1-0.1,0.1-0.2,0.1-0.2C21.1,10.9,21,10.9,21,11"/>
	<path class="st28" d="M18.8,11.2c-0.1,0.1-0.1,0.2-0.1,0.2c0,0,0.1,0,0.2,0c0.1-0.1,0.1-0.2,0.1-0.2C19,11.1,18.9,11.1,18.8,11.2"
		/>
	<path class="st28" d="M16.6,13.3c-0.1,0.1-0.1,0.2-0.1,0.2c0,0,0.1,0,0.2,0c0.1-0.1,0.1-0.2,0.1-0.2C16.8,13.2,16.7,13.3,16.6,13.3
		"/>
	<path class="st28" d="M17.3,12.5c-0.1,0.1-0.1,0.2-0.1,0.2c0,0,0.1,0,0.2,0c0.1-0.1,0.1-0.2,0.1-0.2C17.5,12.4,17.4,12.4,17.3,12.5
		"/>
	<path class="st28" d="M18,11.8c-0.1,0.1-0.1,0.2-0.1,0.2c0,0,0.1,0,0.2,0c0.1-0.1,0.1-0.2,0.1-0.2C18.2,11.8,18.1,11.8,18,11.8"/>
	<path class="st28" d="M20.1,11.2C20,11.3,20,11.4,20,11.4c0,0,0.1,0,0.2,0c0.1-0.1,0.1-0.2,0.1-0.2C20.3,11.1,20.2,11.1,20.1,11.2"
		/>
	<path class="st28" d="M19.3,11.8c-0.1,0.1-0.1,0.2-0.1,0.2c0,0,0.1,0,0.2,0c0.1-0.1,0.1-0.2,0.1-0.2C19.5,11.7,19.4,11.7,19.3,11.8
		"/>
	<path class="st28" d="M18.6,12.3c-0.1,0.1-0.1,0.2-0.1,0.2c0,0,0.1,0,0.2,0c0.1-0.1,0.1-0.2,0.1-0.2C18.8,12.2,18.7,12.3,18.6,12.3
		"/>
	<path class="st28" d="M17.9,12.9c-0.1,0.1-0.1,0.2-0.1,0.2c0,0,0.1,0,0.2,0c0.1-0.1,0.1-0.2,0.1-0.2C18.1,12.8,18,12.8,17.9,12.9"
		/>
	<path class="st28" d="M17.2,13.5c-0.1,0.1-0.1,0.2-0.1,0.2c0,0,0.1,0,0.2,0c0.1-0.1,0.1-0.2,0.1-0.2C17.4,13.4,17.3,13.4,17.2,13.5
		"/>
	<path class="st28" d="M16.1,14c-0.1,0.1-0.1,0.2-0.1,0.2c0,0,0.1,0,0.2,0c0.1-0.1,0.1-0.2,0.1-0.2C16.3,13.9,16.2,13.9,16.1,14"/>
	<path class="st28" d="M16.4,14.5c-0.1,0.1-0.1,0.2-0.1,0.2c0,0,0.1,0,0.2,0c0.1-0.1,0.1-0.2,0.1-0.2C16.6,14.4,16.5,14.4,16.4,14.5
		"/>
	<path class="st28" d="M20.3,11.8c-0.1,0.1-0.1,0.2-0.1,0.2c0,0,0.1,0,0.2,0c0.1-0.1,0.1-0.2,0.1-0.2C20.5,11.8,20.4,11.8,20.3,11.8
		"/>
	<path class="st28" d="M19.6,12.5c-0.1,0.1-0.1,0.2-0.1,0.2c0,0,0.1,0,0.2,0c0.1-0.1,0.1-0.2,0.1-0.2C19.8,12.4,19.7,12.4,19.6,12.5
		"/>
	<path class="st28" d="M18.8,13.2c-0.1,0.1-0.1,0.2-0.1,0.2c0,0,0.1,0,0.2,0c0.1-0.1,0.1-0.2,0.1-0.2C19,13.1,18.9,13.1,18.8,13.2"
		/>
	<path class="st28" d="M17.9,13.7c-0.1,0.1-0.1,0.2-0.1,0.2c0,0,0.1,0,0.2,0c0.1-0.1,0.1-0.2,0.1-0.2C18.1,13.6,18,13.6,17.9,13.7"
		/>
	<path class="st28" d="M17.1,14.2c-0.1,0.1-0.1,0.2-0.1,0.2c0,0,0.1,0,0.2,0c0.1-0.1,0.1-0.2,0.1-0.2C17.3,14.1,17.2,14.1,17.1,14.2
		"/>
	<path class="st28" d="M20.3,10.3c-0.1,0.1-0.1,0.2-0.1,0.2c0,0,0.1,0,0.2,0c0.1-0.1,0.1-0.2,0.1-0.2C20.5,10.2,20.4,10.3,20.3,10.3
		"/>
	<path class="st28" d="M19.5,10.7c-0.1,0.1-0.1,0.2-0.1,0.2c0,0,0.1,0,0.2,0c0.1-0.1,0.1-0.2,0.1-0.2C19.7,10.6,19.6,10.7,19.5,10.7
		"/>
</g>
<g>
	<path class="st63" d="M6.9,56.5h1.5c0.8,0,1.4,0.4,1.4,1.2c0,0.9-0.5,1.3-1.3,1.3H7.9v1.3h-1V56.5z M7.9,58.2h0.2
		c0.4,0,0.7,0,0.7-0.5c0-0.5-0.3-0.5-0.7-0.5H7.9V58.2z"/>
	<path class="st63" d="M14.2,58.3c0,1.2-0.9,2.1-2.1,2.1c-1.2,0-2.1-0.9-2.1-2.1c0-1.1,1-1.9,2.1-1.9C13.2,56.4,14.2,57.2,14.2,58.3
		z M11.1,58.3c0,0.7,0.5,1.1,1.1,1.1c0.6,0,1.1-0.5,1.1-1.1c0-0.5-0.5-1-1.1-1C11.6,57.3,11.1,57.8,11.1,58.3z"/>
	<path class="st63" d="M17.8,60.3h-1.2l-0.9-1.5h0v1.5h-1v-3.8h1.5c0.7,0,1.3,0.4,1.3,1.2c0,0.5-0.3,1-0.8,1.1L17.8,60.3z
		 M15.7,58.2L15.7,58.2c0.4,0,0.8-0.1,0.8-0.5s-0.4-0.5-0.7-0.5h-0.1V58.2z"/>
	<path class="st63" d="M20.8,59.4H22v0.8h-2.2v-3.8h1V59.4z"/>
	<path class="st63" d="M23.2,59.6L23,60.3h-1l1.5-3.8h1.1l1.4,3.8h-1l-0.2-0.7H23.2z M23.9,57.7L23.9,57.7l-0.4,1.2h0.8L23.9,57.7z"
		/>
	<path class="st63" d="M28.3,56.5h1l0.8,2l0.8-2h1l0.6,3.8h-1l-0.3-2.2h0l-0.9,2.2h-0.4L29,58.1h0l-0.3,2.2h-1L28.3,56.5z"/>
	<path class="st63" d="M33.8,59.6l-0.3,0.7h-1l1.5-3.8H35l1.4,3.8h-1l-0.2-0.7H33.8z M34.4,57.7L34.4,57.7L34,58.9h0.8L34.4,57.7z"
		/>
	<path class="st63" d="M36.7,56.5h1l1.8,2.3h0v-2.3h1v3.8h-1L37.7,58h0v2.3h-1V56.5z M37.6,56.1L37.6,56.1c0-0.2,0-0.4,0.1-0.5
		c0.1-0.2,0.3-0.3,0.4-0.3c0.3,0,0.6,0.2,0.8,0.2c0.1,0,0.2-0.1,0.2-0.2h0.4c0,0.4-0.2,0.8-0.7,0.8c-0.3,0-0.5-0.2-0.8-0.2
		C38.1,56,38,56,38,56.1H37.6z"/>
	<path class="st63" d="M42.1,59.6l-0.3,0.7h-1l1.5-3.8h1.1l1.4,3.8h-1l-0.2-0.7H42.1z M42.8,57.7L42.8,57.7l-0.4,1.2h0.8L42.8,57.7z
		"/>
	<path class="st63" d="M45,56.5h1l1.8,2.3h0v-2.3h1v3.8h-1L46,58h0v2.3h-1V56.5z"/>
	<path class="st63" d="M50.4,59.6l-0.3,0.7h-1l1.5-3.8h1.1l1.4,3.8h-1l-0.2-0.7H50.4z M51.1,57.7L51.1,57.7l-0.4,1.2h0.8L51.1,57.7z
		"/>
</g>
</svg>
