<?xml version="1.0" encoding="utf-8"?>
<!-- Generator: Adobe Illustrator 23.0.3, SVG Export Plug-In . SVG Version: 6.00 Build 0)  -->
<svg version="1.1" id="Layer_1" xmlns="http://www.w3.org/2000/svg" xmlns:xlink="http://www.w3.org/1999/xlink" x="0px" y="0px"
	 viewBox="0 0 59.8 66" style="enable-background:new 0 0 59.8 66;" xml:space="preserve">
<style type="text/css">
	.st0{fill:#F09E4A;}
	.st1{clip-path:url(#SVGID_2_);fill:#00ABC4;}
	.st2{clip-path:url(#SVGID_2_);fill:none;stroke:#D7F0FC;stroke-width:1.478;stroke-miterlimit:10;}
	.st3{clip-path:url(#SVGID_2_);fill:#FFFFFF;}
	.st4{clip-path:url(#SVGID_2_);fill:#DBE2E8;}
	.st5{clip-path:url(#SVGID_2_);fill:#EBEEF1;}
</style>
<path class="st0" d="M51.7,60.4H7.9c-4.4,0-8-3.5-8-7.9V16.4c0-4.3,3.6-7.9,8-7.9h43.9c4.4,0,8,3.5,8,7.9v36.1
	C59.7,56.9,56.1,60.4,51.7,60.4z"/>
<g>
	<defs>
		<rect id="SVGID_1_" x="13.1" y="8.8" width="34.1" height="51.1"/>
	</defs>
	<clipPath id="SVGID_2_">
		<use xlink:href="#SVGID_1_"  style="overflow:visible;"/>
	</clipPath>
	<path class="st1" d="M46.5,25.8c0,9-7.3,16.4-16.4,16.4c-9,0-16.4-7.3-16.4-16.4c0-9,7.3-16.4,16.4-16.4
		C39.2,9.4,46.5,16.8,46.5,25.8"/>
	<path class="st2" d="M46.5,25.8c0,9-7.3,16.4-16.4,16.4c-9,0-16.4-7.3-16.4-16.4c0-9,7.3-16.4,16.4-16.4
		C39.2,9.4,46.5,16.8,46.5,25.8z"/>
	<path class="st3" d="M36,35.6l-2,0l0-16.9c0-0.2-0.1-0.7-0.7-0.7c-0.5,0-0.5,0.6-0.6,0.8l0,16.8l-2,0l0-16.8c0-1.1,0.7-2.7,2.5-2.7
		c1.8,0,2.5,1.5,2.6,2.6l0,0.1V35.6z"/>
	<path class="st3" d="M29.3,35.6l-2,0V18.7c0-0.2-0.1-0.7-0.7-0.7c-0.5,0-0.5,0.6-0.6,0.8v16.8l-2,0l0-16.8c0-1.1,0.7-2.7,2.5-2.7
		c1.8,0,2.5,1.5,2.6,2.6l0,0.1L29.3,35.6z"/>
	<path class="st4" d="M31.6,58.9c0.9,0,0.7-0.6,0.7-0.6c0.3,0,0.2-0.6,0.2-0.6s0.4,0,0.4-0.3c0-0.4-0.4-0.6-0.4-0.6s0.4,0,0.4-0.3
		c0-0.3-0.4-0.5-0.4-0.5s0.4,0,0.4-0.3c0-0.3-0.4-0.3-0.4-0.3c0.4,0,0.4-0.2,0.4-0.2l0-1.6h-5.6l0,1.6c0,0,0,0.2,0.4,0.2
		c0,0-0.4,0-0.4,0.3c0,0.3,0.4,0.3,0.4,0.3s-0.4,0.1-0.4,0.5c0,0.3,0.4,0.3,0.4,0.3s-0.4,0.2-0.4,0.6c0,0.4,0.4,0.3,0.4,0.3
		s-0.1,0.6,0.2,0.6c0,0-0.2,0.6,0.7,0.6c0,0,0.2,1,0.6,1H31C31.4,59.9,31.6,58.9,31.6,58.9"/>
	<path class="st5" d="M33.5,52.5c2.1,0,4.7-4.7,4.7-7l0-7.8c0,0-0.3-1.1-1.4-1.3c0-0.3,0.1-1.1-0.6-1.1l-2,0c-0.5,0-0.7,0.5-0.7,0.8
		c0-0.4-0.1-0.8-0.6-0.8h-2c-0.7,0-0.8,0.8-0.8,1.1h0c0-0.3,0-1.1-0.6-1.1h-2c-0.5,0-0.7,0.5-0.7,0.8c0-0.4-0.1-0.8-0.6-0.8h-2
		c-0.7,0-0.8,0.9-0.8,1.1c-1,0.3-1.3,1.3-1.3,1.3v7.8c0,2.3,2.6,7,4.7,7c0,0-0.1,1.4,0.7,1.4h5.4C33.6,53.9,33.5,52.5,33.5,52.5"/>
</g>
</svg>
