<?xml version="1.0" encoding="utf-8"?>
<!-- Generator: Adobe Illustrator 23.0.3, SVG Export Plug-In . SVG Version: 6.00 Build 0)  -->
<svg version="1.1" id="Layer_1" xmlns="http://www.w3.org/2000/svg" xmlns:xlink="http://www.w3.org/1999/xlink" x="0px" y="0px"
	 viewBox="0 0 59.8 66" style="enable-background:new 0 0 59.8 66;" xml:space="preserve">
<style type="text/css">
	.st0{fill:#F09E4A;}
	.st1{fill:#00ABC4;}
	.st2{fill:none;stroke:#D7F0FC;stroke-width:2.091;stroke-miterlimit:10;}
	.st3{fill:#D7F0FC;}
	.st4{fill:#DBE2E8;}
	.st5{fill:#EBEEF1;}
	.st6{fill:#FFFFFF;}
</style>
<path class="st0" d="M51.8,66H8c-4.4,0-8-4.5-8-10V10C0,4.5,3.6,0,8,0h43.8c4.4,0,8,4.5,8,10v46C59.8,61.5,56.2,66,51.8,66z"/>
<path class="st1" d="M49,20.8c-0.2,10.1-8.6,18-18.7,17.8c-10.1-0.2-18-8.6-17.8-18.7c0.2-10.1,8.6-18,18.7-17.8
	C41.3,2.3,49.2,10.7,49,20.8"/>
<path class="st2" d="M49,20.8c-0.2,10.1-8.6,18-18.7,17.8c-10.1-0.2-18-8.6-17.8-18.7c0.2-10.1,8.6-18,18.7-17.8
	C41.3,2.3,49.2,10.7,49,20.8z"/>
<path class="st3" d="M42.1,26.7L42.1,26.7c0.8-1.7,1.3-3.4,1.4-5.4c0.1-7-5.4-12.9-12.5-13.1c-7-0.1-12.9,5.4-13.1,12.5
	c-0.1,2,0.3,3.9,1.1,5.4c0.1,0.3,0.3,0.6,0.4,0.9c1.2,2.4,4.2,9.1,4.1,13.1l13.2,0.3c0.1-4,3.6-10.7,4.8-13
	C41.8,27.2,42,27,42.1,26.7L42.1,26.7"/>
<path class="st4" d="M31.2,57.5c0.9,0,0.7-0.6,0.7-0.6c0.3,0,0.2-0.6,0.2-0.6s0.3,0,0.3-0.3c0-0.3-0.3-0.6-0.3-0.6s0.3,0.1,0.3-0.3
	c0-0.3-0.3-0.4-0.3-0.4s0.3,0,0.3-0.3c0-0.3-0.3-0.3-0.3-0.3c0.3,0,0.3-0.2,0.3-0.2l0.1-1.4l-5.3-0.1v1.4c0,0,0,0.2,0.3,0.2
	c0,0-0.3,0-0.3,0.3c0,0.3,0.3,0.3,0.3,0.3s-0.3,0.1-0.3,0.4c0,0.3,0.3,0.3,0.3,0.3s-0.3,0.2-0.4,0.6c0,0.3,0.3,0.3,0.3,0.3
	s-0.1,0.6,0.1,0.6c0,0-0.2,0.6,0.7,0.6c0,0,0.2,1,0.6,1l1.7,0.1C31,58.5,31.2,57.5,31.2,57.5"/>
<path class="st5" d="M36.7,40.5l-12.9-0.3c-0.8,0.3-1.1,1.2-1.1,1.2l-0.1,3.4c-0.1,2.1,2.3,6.7,4.2,6.8c0,0-0.1,1.3,0.6,1.3l5.1,0.1
	c0.7,0,0.7-1.3,0.7-1.3c1.9,0.1,4.6-4.3,4.6-6.6l0.1-3.4C37.7,41.7,37.5,40.8,36.7,40.5"/>
<path class="st4" d="M33,40.7c0,0,0.4-1.2,1-3.4c0.3-1.1,0.7-2.3,1-3.9c0.1-0.8,0.3-1.6,0.4-2.4c0.1-0.9,0.2-1.8,0.3-2.8
	c0-0.4,0-1,0-1.4c0-0.6-0.1-1-0.1-1.4c-0.1-0.6-0.1-1-0.3-1.4c-0.1-0.4-0.4-0.9-0.8-0.9c-0.1,0-0.1,0-0.1,0c0.1,0,0,0,0,0l0,0l0,0
	l0,0c-0.1,0-0.1,0.1-0.2,0.2c-0.1,0.1-0.3,0.3-0.3,0.7c-0.2,0.4-0.3,1-0.6,1.6c-0.3,1.1-0.4,2.2-0.6,3.4c0,0.3,0,0.6-0.1,0.9
	c0,0.3,0,0.6,0.1,0.8s0.2,0.4,0.3,0.4c0.1,0.1,0.2,0.1,0.3-0.1c0.1-0.1,0.2-0.3,0.3-0.6c0.1-0.2,0.1-0.6,0.1-0.8
	c0-0.6-0.1-1.2-0.1-1.9c-0.1-1.2-0.3-2.4-0.8-3.7c-0.2-0.6-0.4-1.1-0.8-1.6c-0.3-0.4-0.8-0.8-1.2-0.8c-0.4-0.1-1,0.2-1.3,0.6
	c-0.3,0.4-0.7,1-0.9,1.4c-0.4,1.1-0.8,2.3-1,3.6c-0.1,0.6-0.1,1.2-0.2,1.9c0,0.3-0.1,0.6,0,0.8c0,0.2,0.1,0.4,0.2,0.6
	s0.2,0.1,0.3,0.1c0.1-0.1,0.2-0.2,0.3-0.4c0.1-0.2,0.1-0.4,0.1-0.8s0-0.6,0-0.9c0-1.2-0.1-2.3-0.3-3.4c-0.1-0.6-0.3-1.1-0.4-1.6
	c-0.1-0.2-0.2-0.4-0.3-0.7c-0.1-0.1-0.1-0.1-0.2-0.2c0,0-0.1,0,0,0h-0.1H27c-0.3,0-0.7,0.4-0.8,0.9c-0.2,0.4-0.3,1-0.3,1.4
	c-0.1,1-0.2,2-0.2,3s0.1,1.9,0.1,2.8c0.1,0.9,0.2,1.7,0.3,2.4c0.2,1.6,0.6,2.9,0.8,4c0.6,2.2,0.8,3.4,0.8,3.4s-0.1-0.3-0.3-0.9
	c-0.1-0.6-0.4-1.4-0.8-2.6c-0.3-1.1-0.7-2.3-1-3.9s-0.7-3.2-0.7-5.2c0-1,0-2,0.1-3c0.1-0.6,0.2-1,0.3-1.7c0.1-0.3,0.2-0.6,0.4-0.8
	c0.2-0.2,0.6-0.6,0.9-0.6h0.1h0.1c0.2,0,0.3,0.1,0.3,0.1c0.1,0.1,0.3,0.2,0.3,0.3c0.2,0.2,0.3,0.6,0.4,0.8c0.2,0.6,0.4,1.1,0.6,1.7
	c0.2,1.2,0.3,2.3,0.3,3.7c0,0.3,0,0.6,0,0.9s0,0.7-0.1,1c-0.1,0.3-0.3,0.8-0.8,1c-0.2,0.1-0.6,0.1-0.8,0s-0.4-0.2-0.6-0.3
	c-0.6-0.7-0.6-1.6-0.4-2.1c0.1-0.7,0.1-1.2,0.2-1.9c0.2-1.2,0.6-2.6,1-3.8c0.3-0.6,0.6-1.2,1-1.8c0.2-0.3,0.6-0.6,0.9-0.7
	c0.1-0.1,0.3-0.1,0.6-0.2c0.1,0,0.2,0,0.3-0.1c0.1,0,0.1,0,0.1,0h0.1h0.1c0.3,0,0.8,0.1,1.1,0.3c0.3,0.2,0.6,0.6,0.8,0.8
	c0.4,0.6,0.7,1.2,0.9,1.9c0.4,1.2,0.7,2.6,0.8,3.9c0.1,0.7,0.1,1.2,0.1,1.9c0,0.3,0,0.7-0.1,1c-0.1,0.3-0.2,0.8-0.6,1
	c-0.1,0.1-0.3,0.3-0.7,0.3c-0.2,0.1-0.6,0-0.8-0.1c-0.4-0.2-0.6-0.7-0.8-1c-0.1-0.3-0.1-0.8-0.1-1c0-0.3,0-0.6,0.1-0.9
	c0.1-1.2,0.2-2.4,0.6-3.6c0.1-0.6,0.3-1.1,0.7-1.7c0.1-0.3,0.3-0.6,0.6-0.8c0.1-0.1,0.2-0.2,0.4-0.3c0.1,0,0.1-0.1,0.1-0.1
	c0.1,0,0.1,0,0.1,0h0.1c0.1,0,0.1,0,0.3,0c0.3,0.1,0.7,0.3,0.9,0.6c0.2,0.3,0.3,0.6,0.4,0.8c0.1,0.6,0.3,1.1,0.3,1.7
	c0.1,0.6,0.1,1,0.1,1.6s0,1-0.1,1.4c-0.1,1.9-0.6,3.7-1,5.2c-0.3,1.6-0.8,2.8-1.2,3.9c-0.3,1-0.7,1.9-0.9,2.4
	C33.1,40.3,33,40.7,33,40.7"/>
<path class="st6" d="M42.1,16.1c0,0,0.1,0.2,0.2,0.7c0.1,0.2,0.1,0.4,0.2,0.8c0.1,0.3,0.1,0.7,0.1,1c0.1,0.8,0.1,1.7,0,2.6
	c-0.1,0.4-0.1,1-0.2,1.4c-0.1,0.6-0.2,1-0.3,1.4c-0.1,0.4-0.3,1-0.6,1.4c-0.1,0.4-0.4,0.9-0.6,1.3c-0.2,0.4-0.4,0.8-0.7,1.2
	c-0.2,0.3-0.6,0.8-0.8,1c-0.2,0.3-0.4,0.6-0.7,0.8c-0.2,0.2-0.4,0.4-0.6,0.6c-0.3,0.3-0.6,0.4-0.6,0.4s0.1-0.2,0.2-0.7
	c0.1-0.2,0.2-0.4,0.3-0.8c0.1-0.3,0.2-0.6,0.3-1c0.1-0.3,0.3-0.7,0.4-1.1c0.1-0.3,0.3-0.8,0.4-1.2c0.1-0.4,0.3-0.9,0.4-1.3
	c0.1-0.4,0.3-0.9,0.4-1.3c0.3-0.9,0.6-1.9,0.7-2.8c0.1-0.4,0.1-0.9,0.2-1.2c0.1-0.4,0.1-0.8,0.2-1.2c0.1-0.8,0.2-1.3,0.3-1.8
	C42,16.3,42.1,16.1,42.1,16.1"/>
<g>
	<path class="st6" d="M18.4,61.8v-1.5h1v3.8h-1v-1.5H17v1.5h-1v-3.8h1v1.5H18.4z"/>
	<path class="st6" d="M21,63.5l-0.3,0.7h-1l1.5-3.8h1.1l1.4,3.8h-1l-0.2-0.7H21z M21.6,61.5L21.6,61.5l-0.4,1.2H22L21.6,61.5z"/>
	<path class="st6" d="M24.9,63.3h1.2v0.8h-2.2v-3.8h1V63.3z"/>
	<path class="st6" d="M30.4,62.2c0,1.2-0.9,2.1-2.1,2.1c-1.2,0-2.1-0.9-2.1-2.1c0-1.1,1-1.9,2.1-1.9C29.4,60.2,30.4,61,30.4,62.2z
		 M27.2,62.2c0,0.7,0.5,1.1,1.1,1.1s1.1-0.5,1.1-1.1c0-0.5-0.5-1-1.1-1S27.2,61.6,27.2,62.2z M28.2,60.1l-0.4-0.3l0.7-0.9l0.6,0.4
		L28.2,60.1z"/>
	<path class="st6" d="M34.6,62c0,0.6-0.1,1-0.4,1.5c-0.4,0.5-0.9,0.7-1.6,0.7c-1.2,0-2-0.8-2-2c0-1.2,0.8-2,2-2
		c0.8,0,1.4,0.4,1.7,1.1l-0.9,0.4c-0.1-0.4-0.4-0.6-0.8-0.6c-0.6,0-1,0.6-1,1.2c0,0.6,0.4,1.2,1,1.2c0.4,0,0.8-0.2,0.8-0.7h-0.8V62
		H34.6z"/>
	<path class="st6" d="M36,61.2v0.6h1.1v0.8H36v0.7h1.2v0.8H35v-3.8h2.1v0.8H36z"/>
	<path class="st6" d="M37.8,60.3h1l1.8,2.3h0v-2.3h1v3.8h-1l-1.8-2.3h0v2.3h-1V60.3z"/>
	<path class="st6" d="M43.1,63.5l-0.3,0.7h-1l1.5-3.8h1.1l1.4,3.8h-1l-0.2-0.7H43.1z M43.8,61.5L43.8,61.5l-0.4,1.2h0.8L43.8,61.5z"
		/>
</g>
</svg>
