<?xml version="1.0" encoding="utf-8"?>
<!-- Generator: Adobe Illustrator 23.0.3, SVG Export Plug-In . SVG Version: 6.00 Build 0)  -->
<svg version="1.1" id="Layer_1" xmlns="http://www.w3.org/2000/svg" xmlns:xlink="http://www.w3.org/1999/xlink" x="0px" y="0px"
	 viewBox="0 0 59.8 66" style="enable-background:new 0 0 59.8 66;" xml:space="preserve">
<style type="text/css">
	.st0{fill:#F09E4A;}
	.st1{clip-path:url(#SVGID_2_);fill:#00ABC4;}
	.st2{clip-path:url(#SVGID_4_);fill:none;stroke:#D7F0FC;stroke-width:1.478;stroke-miterlimit:10;}
	.st3{clip-path:url(#SVGID_6_);fill:#FFFFFF;}
	.st4{clip-path:url(#SVGID_8_);fill:#FFFFFF;}
	.st5{clip-path:url(#SVGID_10_);fill:#DBE2E8;}
	.st6{clip-path:url(#SVGID_12_);fill:#EBEEF1;}
	.st7{fill:#FFFFFF;}
</style>
<path class="st0" d="M52,66H8.2c-4.4,0-8-4.5-8-10V10c0-5.5,3.6-10,8-10h43.9c4.4,0,8,4.5,8,10V56C60,61.5,56.4,66,52,66z"/>
<g>
	<g>
		<defs>
			<rect id="SVGID_1_" x="11.1" y="0.9" width="38" height="57"/>
		</defs>
		<clipPath id="SVGID_2_">
			<use xlink:href="#SVGID_1_"  style="overflow:visible;"/>
		</clipPath>
		<path class="st1" d="M48.4,19.9c0,10-8.1,18.3-18.3,18.3c-10,0-18.3-8.1-18.3-18.3c0-10,8.1-18.3,18.3-18.3
			C40.2,1.6,48.4,9.8,48.4,19.9"/>
	</g>
	<g>
		<defs>
			<rect id="SVGID_3_" x="11.1" y="0.9" width="38" height="57"/>
		</defs>
		<clipPath id="SVGID_4_">
			<use xlink:href="#SVGID_3_"  style="overflow:visible;"/>
		</clipPath>
		<path class="st2" d="M48.4,19.9c0,10-8.1,18.3-18.3,18.3c-10,0-18.3-8.1-18.3-18.3c0-10,8.1-18.3,18.3-18.3
			C40.2,1.6,48.4,9.8,48.4,19.9z"/>
	</g>
	<g>
		<defs>
			<rect id="SVGID_5_" x="11.1" y="0.9" width="38" height="57"/>
		</defs>
		<clipPath id="SVGID_6_">
			<use xlink:href="#SVGID_5_"  style="overflow:visible;"/>
		</clipPath>
		<path class="st3" d="M36.7,30.8h-2.2V12c0-0.2-0.1-0.8-0.8-0.8c-0.6,0-0.6,0.7-0.7,0.9v18.7h-2.2V12.1c0-1.2,0.8-3,2.8-3
			s2.8,1.7,2.9,2.9v0.1v18.7H36.7z"/>
	</g>
	<g>
		<defs>
			<rect id="SVGID_7_" x="11.1" y="0.9" width="38" height="57"/>
		</defs>
		<clipPath id="SVGID_8_">
			<use xlink:href="#SVGID_7_"  style="overflow:visible;"/>
		</clipPath>
		<path class="st4" d="M29.2,30.8H27V12c0-0.2-0.1-0.8-0.8-0.8c-0.6,0-0.6,0.7-0.7,0.9v18.7h-2.2V12.1c0-1.2,0.8-3,2.8-3
			s2.8,1.7,2.9,2.9v0.1L29.2,30.8z"/>
	</g>
	<g>
		<defs>
			<rect id="SVGID_9_" x="11.1" y="0.9" width="38" height="57"/>
		</defs>
		<clipPath id="SVGID_10_">
			<use xlink:href="#SVGID_9_"  style="overflow:visible;"/>
		</clipPath>
		<path class="st5" d="M31.8,56.8c1,0,0.8-0.7,0.8-0.7c0.3,0,0.2-0.7,0.2-0.7s0.4,0,0.4-0.3c0-0.4-0.4-0.7-0.4-0.7s0.4,0,0.4-0.3
			s-0.4-0.6-0.4-0.6s0.4,0,0.4-0.3c0-0.3-0.4-0.3-0.4-0.3c0.4,0,0.4-0.2,0.4-0.2v-1.8H27v1.8c0,0,0,0.2,0.4,0.2c0,0-0.4,0-0.4,0.3
			c0,0.3,0.4,0.3,0.4,0.3S27,53.7,27,54.1c0,0.3,0.4,0.3,0.4,0.3S27,54.7,27,55.1c0,0.4,0.4,0.3,0.4,0.3s-0.1,0.7,0.2,0.7
			c0,0-0.2,0.7,0.8,0.7c0,0,0.2,1.1,0.7,1.1h2C31.5,57.9,31.8,56.8,31.8,56.8"/>
	</g>
	<g>
		<defs>
			<rect id="SVGID_11_" x="11.1" y="0.9" width="38" height="57"/>
		</defs>
		<clipPath id="SVGID_12_">
			<use xlink:href="#SVGID_11_"  style="overflow:visible;"/>
		</clipPath>
		<path class="st6" d="M33.9,49.6c2.3,0,5.2-5.2,5.2-7.8v-8.7c0,0-0.3-1.2-1.6-1.4c0-0.3,0.1-1.2-0.7-1.2h-2.2
			c-0.6,0-0.8,0.6-0.8,0.9c0-0.4-0.1-0.9-0.7-0.9H31c-0.8,0-0.9,0.9-0.9,1.2l0,0c0-0.3,0-1.2-0.7-1.2h-2.2c-0.6,0-0.8,0.6-0.8,0.9
			c0-0.4-0.1-0.9-0.7-0.9h-2.2c-0.8,0-0.9,1-0.9,1.2c-1.1,0.3-1.4,1.4-1.4,1.4v8.7c0,2.6,2.9,7.8,5.2,7.8c0,0-0.1,1.6,0.8,1.6h6
			C34,51.2,33.9,49.6,33.9,49.6"/>
	</g>
</g>
<g>
	<path class="st7" d="M8.9,64.5v-3.8h1.4c0.7,0,1.1,0.3,1.1,1c0,0.3-0.1,0.6-0.4,0.8v0c0.5,0.1,0.8,0.4,0.8,1c0,0.8-0.7,1.1-1.4,1.1
		H8.9z M9.9,62.2H10c0.3,0,0.5,0,0.5-0.4c0-0.3-0.3-0.4-0.6-0.4H9.9V62.2z M9.9,63.7H10c0.3,0,0.8,0,0.8-0.4c0-0.5-0.5-0.4-0.8-0.4
		H9.9V63.7z"/>
	<path class="st7" d="M13.2,63.8L13,64.5h-1l1.5-3.8h1.1l1.4,3.8h-1l-0.2-0.7H13.2z M13.9,61.9L13.9,61.9l-0.4,1.2h0.8L13.9,61.9z"
		/>
	<path class="st7" d="M18,60.7v2.5c0,0.8-0.4,1.3-1.3,1.3c-0.4,0-0.7-0.2-1-0.6l0.6-0.6c0.1,0.1,0.3,0.3,0.4,0.3
		c0.3,0,0.3-0.3,0.3-0.6v-2.5H18z"/>
	<path class="st7" d="M22.6,62.5c0,1.2-0.9,2.1-2.1,2.1c-1.2,0-2.1-0.9-2.1-2.1c0-1.1,1-1.9,2.1-1.9S22.6,61.4,22.6,62.5z
		 M19.4,62.5c0,0.7,0.5,1.1,1.1,1.1c0.6,0,1.1-0.5,1.1-1.1c0-0.5-0.5-1-1.1-1C19.9,61.5,19.4,62,19.4,62.5z"/>
	<path class="st7" d="M27.5,62c-0.2-0.3-0.5-0.4-0.9-0.4c-0.6,0-1,0.5-1,1c0,0.6,0.4,1,1,1c0.3,0,0.6-0.2,0.8-0.4v1.2
		c-0.3,0.1-0.6,0.2-0.9,0.2c-0.5,0-1-0.2-1.4-0.6c-0.4-0.4-0.6-0.9-0.6-1.4c0-0.5,0.2-1,0.6-1.4c0.4-0.4,0.9-0.6,1.4-0.6
		c0.3,0,0.6,0.1,0.9,0.2V62z"/>
	<path class="st7" d="M32,62.5c0,1.2-0.9,2.1-2.1,2.1c-1.2,0-2.1-0.9-2.1-2.1c0-1.1,1-1.9,2.1-1.9C31,60.6,32,61.4,32,62.5z
		 M28.9,62.5c0,0.7,0.5,1.1,1.1,1.1s1.1-0.5,1.1-1.1c0-0.5-0.5-1-1.1-1S28.9,62,28.9,62.5z"/>
	<path class="st7" d="M32.5,60.7h1l1.8,2.3h0v-2.3h1v3.8h-1l-1.8-2.3h0v2.3h-1V60.7z"/>
	<path class="st7" d="M39,61.7c-0.2-0.2-0.4-0.3-0.7-0.3c-0.2,0-0.4,0.1-0.4,0.3c0,0.2,0.3,0.3,0.4,0.4l0.3,0.1
		c0.5,0.2,0.9,0.4,0.9,1c0,0.4-0.1,0.8-0.4,1c-0.3,0.3-0.7,0.4-1.1,0.4c-0.5,0-0.9-0.2-1.3-0.4l0.4-0.8c0.2,0.2,0.5,0.4,0.9,0.4
		c0.2,0,0.5-0.1,0.5-0.4c0-0.3-0.4-0.4-0.6-0.4c-0.6-0.2-1-0.3-1-1.1c0-0.8,0.5-1.3,1.3-1.3c0.4,0,0.8,0.1,1.2,0.3L39,61.7z"/>
	<path class="st7" d="M43.3,60.7v2.1c0,0.5,0,1-0.4,1.3c-0.3,0.3-0.8,0.4-1.3,0.4s-0.9-0.1-1.3-0.4C40,63.8,40,63.3,40,62.8v-2.1h1
		v2c0,0.5,0,1,0.7,1c0.6,0,0.7-0.5,0.7-1v-2H43.3z"/>
	<path class="st7" d="M44.3,60.7h1l0.8,2l0.8-2h1l0.6,3.8h-1l-0.3-2.2h0l-0.9,2.2h-0.4l-0.9-2.2h0l-0.3,2.2h-1L44.3,60.7z"/>
	<path class="st7" d="M52.8,62.5c0,1.2-0.9,2.1-2.1,2.1c-1.2,0-2.1-0.9-2.1-2.1c0-1.1,1-1.9,2.1-1.9S52.8,61.4,52.8,62.5z
		 M49.6,62.5c0,0.7,0.5,1.1,1.1,1.1c0.6,0,1.1-0.5,1.1-1.1c0-0.5-0.5-1-1.1-1C50.1,61.5,49.6,62,49.6,62.5z"/>
</g>
</svg>
