<?xml version="1.0" encoding="utf-8"?>
<!-- Generator: Adobe Illustrator 23.0.3, SVG Export Plug-In . SVG Version: 6.00 Build 0)  -->
<svg version="1.1" id="Layer_1" xmlns="http://www.w3.org/2000/svg" xmlns:xlink="http://www.w3.org/1999/xlink" x="0px" y="0px"
	 viewBox="0 0 59.8 66" style="enable-background:new 0 0 59.8 66;" xml:space="preserve">
<style type="text/css">
	.st0{fill:#F09E4A;}
	.st1{fill:#00ABC4;}
	.st2{fill:none;stroke:#D7F0FC;stroke-width:2.091;stroke-miterlimit:10;}
	.st3{fill:#D7F0FC;}
	.st4{fill:#DBE2E8;}
	.st5{fill:#EBEEF1;}
	.st6{fill:#FFFFFF;}
</style>
<path class="st0" d="M51.8,59.3H8c-4.4,0-8-3.6-8-8V14.7c0-4.4,3.6-8,8-8h43.8c4.4,0,8,3.6,8,8v36.7C59.8,55.7,56.2,59.3,51.8,59.3z
	"/>
<path class="st1" d="M46.3,24.9c-0.2,9.1-7.7,16.2-16.8,16c-9.1-0.2-16.2-7.7-16-16.8c0.2-9.1,7.7-16.2,16.8-16
	C39.4,8.3,46.5,15.8,46.3,24.9"/>
<path class="st2" d="M46.3,24.9c-0.2,9.1-7.7,16.2-16.8,16c-9.1-0.2-16.2-7.7-16-16.8c0.2-9.1,7.7-16.2,16.8-16
	C39.4,8.3,46.5,15.8,46.3,24.9z"/>
<path class="st3" d="M40.1,30.2L40.1,30.2c0.7-1.5,1.2-3.1,1.3-4.9c0.1-6.3-4.9-11.6-11.2-11.8c-6.3-0.1-11.6,4.9-11.8,11.2
	c-0.1,1.8,0.3,3.5,1,4.9c0.1,0.3,0.3,0.5,0.4,0.8c1.1,2.2,3.8,8.2,3.7,11.8l11.9,0.3c0.1-3.6,3.2-9.6,4.3-11.7
	C39.9,30.7,40,30.5,40.1,30.2L40.1,30.2"/>
<path class="st4" d="M30.3,57.9c0.8,0,0.6-0.5,0.6-0.5c0.3,0,0.2-0.5,0.2-0.5s0.3,0,0.3-0.3s-0.3-0.5-0.3-0.5s0.3,0.1,0.3-0.3
	c0-0.3-0.3-0.4-0.3-0.4s0.3,0,0.3-0.3s-0.3-0.3-0.3-0.3c0.3,0,0.3-0.2,0.3-0.2l0.1-1.3l-4.8-0.1v1.3c0,0,0,0.2,0.3,0.2
	c0,0-0.3,0-0.3,0.3s0.3,0.3,0.3,0.3s-0.3,0.1-0.3,0.4C26.7,56,27,56,27,56s-0.3,0.2-0.4,0.5c0,0.3,0.3,0.3,0.3,0.3s-0.1,0.5,0.1,0.5
	c0,0-0.2,0.5,0.6,0.5c0,0,0.2,0.9,0.5,0.9l1.5,0.1C30.1,58.8,30.3,57.9,30.3,57.9"/>
<path class="st5" d="M35.3,42.6l-11.6-0.3c-0.7,0.3-1,1.1-1,1.1l-0.1,3.1c-0.1,1.9,2.1,6,3.8,6.1c0,0-0.1,1.2,0.5,1.2l4.6,0.1
	c0.6,0,0.6-1.2,0.6-1.2c1.7,0.1,4.1-3.9,4.1-5.9l0.1-3.1C36.2,43.7,36,42.9,35.3,42.6"/>
<path class="st4" d="M31.9,42.8c0,0,0.4-1.1,0.9-3.1c0.3-1,0.6-2.1,0.9-3.5c0.1-0.7,0.3-1.4,0.4-2.2c0.1-0.8,0.2-1.6,0.3-2.5
	c0-0.4,0-0.9,0-1.3c0-0.5-0.1-0.9-0.1-1.3c-0.1-0.5-0.1-0.9-0.3-1.3c-0.1-0.4-0.4-0.8-0.7-0.8c-0.1,0-0.1,0-0.1,0c0.1,0,0,0,0,0l0,0
	l0,0l0,0c-0.1,0-0.1,0.1-0.2,0.2c-0.1,0.1-0.3,0.3-0.3,0.6c-0.2,0.4-0.3,0.9-0.5,1.4c-0.3,1-0.4,2-0.5,3.1c0,0.3,0,0.5-0.1,0.8
	c0,0.3,0,0.5,0.1,0.7S31.9,34,32,34c0.1,0.1,0.2,0.1,0.3-0.1c0.1-0.1,0.2-0.3,0.3-0.5s0.1-0.5,0.1-0.7c0-0.5-0.1-1.1-0.1-1.7
	c-0.1-1.1-0.3-2.2-0.7-3.3c-0.2-0.5-0.4-1-0.7-1.4c-0.3-0.4-0.7-0.7-1.1-0.7c-0.4-0.1-0.9,0.2-1.2,0.5c-0.3,0.4-0.6,0.9-0.8,1.3
	c-0.4,1-0.7,2.1-0.9,3.2c-0.1,0.5-0.1,1.1-0.2,1.7c0,0.3-0.1,0.5,0,0.7c0,0.2,0.1,0.4,0.2,0.5s0.2,0.1,0.3,0.1
	c0.1-0.1,0.2-0.2,0.3-0.4c0.1-0.2,0.1-0.4,0.1-0.7s0-0.5,0-0.8c0-1.1-0.1-2.1-0.3-3.1c-0.1-0.5-0.3-1-0.4-1.4
	c-0.1-0.2-0.2-0.4-0.3-0.6c-0.1-0.1-0.1-0.1-0.2-0.2c0,0-0.1,0,0,0h-0.1h-0.1c-0.3,0-0.6,0.4-0.7,0.8c-0.2,0.4-0.3,0.9-0.3,1.3
	c-0.1,0.9-0.2,1.8-0.2,2.7s0.1,1.7,0.1,2.5c0.1,0.8,0.2,1.5,0.3,2.2c0.2,1.4,0.5,2.6,0.7,3.6c0.5,2,0.7,3.1,0.7,3.1
	s-0.1-0.3-0.3-0.8c-0.1-0.5-0.4-1.3-0.7-2.3c-0.3-1-0.6-2.1-0.9-3.5s-0.6-2.9-0.6-4.7c0-0.9,0-1.8,0.1-2.7c0.1-0.5,0.2-0.9,0.3-1.5
	c0.1-0.3,0.2-0.5,0.4-0.7c0.2-0.2,0.5-0.5,0.8-0.5h0.1h0.1c0.2,0,0.3,0.1,0.3,0.1c0.1,0.1,0.3,0.2,0.3,0.3c0.2,0.2,0.3,0.5,0.4,0.7
	c0.2,0.5,0.4,1,0.5,1.5c0.2,1.1,0.3,2.1,0.3,3.3c0,0.3,0,0.5,0,0.8s0,0.6-0.1,0.9c-0.1,0.3-0.3,0.7-0.7,0.9c-0.2,0.1-0.5,0.1-0.7,0
	s-0.4-0.2-0.5-0.3c-0.5-0.6-0.5-1.4-0.4-1.9c0.1-0.6,0.1-1.1,0.2-1.7c0.2-1.1,0.5-2.3,0.9-3.4c0.3-0.5,0.5-1.1,0.9-1.6
	c0.2-0.3,0.5-0.5,0.8-0.6c0.1-0.1,0.3-0.1,0.5-0.2c0.1,0,0.2,0,0.3-0.1c0.1,0,0.1,0,0.1,0h0.1h0.1c0.3,0,0.7,0.1,1,0.3
	c0.3,0.2,0.5,0.5,0.7,0.7c0.4,0.5,0.6,1.1,0.8,1.7c0.4,1.1,0.6,2.3,0.7,3.5c0.1,0.6,0.1,1.1,0.1,1.7c0,0.3,0,0.6-0.1,0.9
	c-0.1,0.3-0.2,0.7-0.5,0.9c-0.1,0.1-0.3,0.3-0.6,0.3c-0.2,0.1-0.5,0-0.7-0.1c-0.4-0.2-0.5-0.6-0.7-0.9c-0.1-0.3-0.1-0.7-0.1-0.9
	c0-0.3,0-0.5,0.1-0.8c0.1-1.1,0.2-2.2,0.5-3.2c0.1-0.5,0.3-1,0.6-1.5c0.1-0.3,0.3-0.5,0.5-0.7c0.1-0.1,0.2-0.2,0.4-0.3
	c0.1,0,0.1-0.1,0.1-0.1c0.1,0,0.1,0,0.1,0h0.1c0.1,0,0.1,0,0.3,0c0.3,0.1,0.6,0.3,0.8,0.5c0.2,0.3,0.3,0.5,0.4,0.7
	c0.1,0.5,0.3,1,0.3,1.5c0.1,0.5,0.1,0.9,0.1,1.4s0,0.9-0.1,1.3c-0.1,1.7-0.5,3.3-0.9,4.7c-0.3,1.4-0.7,2.5-1.1,3.5
	c-0.3,0.9-0.6,1.7-0.8,2.2C32,42.5,31.9,42.8,31.9,42.8"/>
<path class="st6" d="M40.1,20.7c0,0,0.1,0.2,0.2,0.6c0.1,0.2,0.1,0.4,0.2,0.7c0.1,0.3,0.1,0.6,0.1,0.9c0.1,0.7,0.1,1.5,0,2.3
	c-0.1,0.4-0.1,0.9-0.2,1.3c-0.1,0.5-0.2,0.9-0.3,1.3s-0.3,0.9-0.5,1.3c-0.1,0.4-0.4,0.8-0.5,1.2c-0.2,0.4-0.4,0.7-0.6,1.1
	c-0.2,0.3-0.5,0.7-0.7,0.9c-0.2,0.3-0.4,0.5-0.6,0.7c-0.2,0.2-0.4,0.4-0.5,0.5c-0.3,0.3-0.5,0.4-0.5,0.4s0.1-0.2,0.2-0.6
	c0.1-0.2,0.2-0.4,0.3-0.7s0.2-0.5,0.3-0.9c0.1-0.3,0.3-0.6,0.4-1c0.1-0.3,0.3-0.7,0.4-1.1c0.1-0.4,0.3-0.8,0.4-1.2
	c0.1-0.4,0.3-0.8,0.4-1.2c0.3-0.8,0.5-1.7,0.6-2.5c0.1-0.4,0.1-0.8,0.2-1.1c0.1-0.4,0.1-0.7,0.2-1.1c0.1-0.7,0.2-1.2,0.3-1.6
	C40,20.9,40.1,20.7,40.1,20.7"/>
</svg>
