<?xml version="1.0" encoding="utf-8"?>
<!-- Generator: Adobe Illustrator 23.0.3, SVG Export Plug-In . SVG Version: 6.00 Build 0)  -->
<svg version="1.1" id="Layer_1" xmlns="http://www.w3.org/2000/svg" xmlns:xlink="http://www.w3.org/1999/xlink" x="0px" y="0px"
	 viewBox="0 0 59.8 66" style="enable-background:new 0 0 59.8 66;" xml:space="preserve">
<style type="text/css">
	.st0{fill:#75BCDB;}
	.st1{fill:#B9C7D4;}
	.st2{fill:#043D5D;}
	.st3{fill:#00ABC5;}
	.st4{fill:#DDE5E9;}
	.st5{fill:#FFFFFF;}
	.st6{fill:#007DC5;}
</style>
<path class="st0" d="M47.8,66H11.9c-6.6,0-12-5.4-12-12V12c0-6.6,5.4-12,12-12h35.9c6.6,0,12,5.4,12,12v42
	C59.8,60.6,54.4,66,47.8,66z"/>
<path class="st1" d="M52.9,61.8c0,0.9-0.7,1.7-1.7,1.7H8.3c-0.9,0-1.7-0.7-1.7-1.7V5.1c0-0.9,0.7-1.7,1.7-1.7h42.8
	c0.9,0,1.7,0.7,1.7,1.7V61.8z"/>
<path class="st2" d="M33.3,10.8c0,1.3-1.1,2.4-2.4,2.4c-1.3,0-2.4-1.1-2.4-2.4s1.1-2.4,2.4-2.4S33.3,9.5,33.3,10.8"/>
<path class="st3" d="M32.7,10.8c0,1-0.8,1.9-1.9,1.9c-1,0-1.9-0.8-1.9-1.9s0.8-1.9,1.9-1.9C31.8,9,32.7,9.8,32.7,10.8"/>
<path class="st4" d="M27.4,6.8C27.4,6.8,27.3,6.8,27.4,6.8C27.2,6.9,27.1,6.9,27,7c-0.1,0.1-0.2,0.2-0.4,0.3
	c-0.1,0.1-0.3,0.3-0.4,0.4C26.2,7.8,26,8,25.9,8.1c-0.1,0.1-0.1,0.2-0.2,0.3c0,0.1-0.1,0.1-0.1,0.2s-0.1,0.1-0.1,0.2
	c-0.1,0.1-0.1,0.2-0.2,0.4c-0.1,0.1-0.1,0.2-0.2,0.3c-0.1,0.3-0.2,0.5-0.3,0.7c-0.1,0.3-0.2,0.6-0.2,0.7c-0.1,0.3-0.1,0.6-0.2,0.7
	c-0.1,0.3-0.1,0.5-0.2,0.7c0,0.3-0.1,0.5-0.1,0.7s-0.1,0.4-0.1,0.6S24,13.9,24,14.1c0,0.3-0.1,0.4-0.1,0.4s0-0.1-0.1-0.4
	c0-0.1,0-0.3,0-0.5c0-0.2,0-0.4,0-0.6c0-0.2,0-0.5,0-0.7c0-0.3,0-0.5,0.1-0.7c0-0.3,0.1-0.6,0.1-0.8c0.2-0.3,0.2-0.6,0.3-0.8
	c0.1-0.3,0.2-0.6,0.3-0.8c0.1-0.1,0.1-0.3,0.2-0.4C24.9,8.7,25,8.5,25,8.4c0.1-0.3,0.3-0.5,0.5-0.7c0.2-0.2,0.4-0.4,0.6-0.5
	c0.2-0.1,0.4-0.2,0.6-0.3s0.3-0.2,0.5-0.2C27.1,6.8,27.2,6.7,27.4,6.8C27.3,6.8,27.4,6.8,27.4,6.8"/>
<path class="st4" d="M9.9,9.4c0,0,3.6,0.9,6.9,0.9s5.7-0.7,5.7-0.7L22.2,11h-5.2c-1.7,0-6.5-0.4-6.5-0.4L9.9,9.4z"/>
<path class="st4" d="M43,36.4c0,6.8-5.5,12.4-12.4,12.4c-6.8,0-12.4-5.5-12.4-12.4S23.7,24,30.6,24C37.5,24,43,29.6,43,36.4
	 M30.7,19.3c-9.4,0-17,7.7-17,17c0,9.4,7.7,17,17,17c9.4,0,17-7.7,17-17S40.1,19.3,30.7,19.3"/>
<path class="st5" d="M40.4,12.7c0,0.4-0.3,0.7-0.7,0.7c-0.4,0-0.7-0.3-0.7-0.7c0-0.4,0.3-0.7,0.7-0.7C40.1,12.1,40.4,12.4,40.4,12.7
	"/>
<path class="st5" d="M42.7,12.5c0,0.4-0.3,0.7-0.7,0.7c-0.4,0-0.7-0.3-0.7-0.7c0-0.4,0.3-0.7,0.7-0.7C42.4,11.8,42.7,12.1,42.7,12.5
	"/>
<path class="st5" d="M44.8,12.2c0,0.4-0.3,0.7-0.7,0.7c-0.4,0-0.7-0.3-0.7-0.7c0-0.4,0.3-0.7,0.7-0.7S44.8,11.8,44.8,12.2"/>
<path class="st5" d="M47.1,11.9c0,0.4-0.3,0.7-0.7,0.7s-0.7-0.3-0.7-0.7s0.3-0.7,0.7-0.7S47.1,11.5,47.1,11.9"/>
<path class="st3" d="M51.5,11.1c0,0.5-0.4,0.8-0.8,0.8c-0.5,0-0.8-0.4-0.8-0.8s0.4-0.8,0.8-0.8C51.1,10.3,51.5,10.7,51.5,11.1"/>
<path class="st2" d="M48.7,9.5c0,0.5-0.4,0.8-0.8,0.8h-9.4c-0.5,0-0.8-0.4-0.8-0.8V8.5c0-0.5,0.4-0.8,0.8-0.8H48
	c0.5,0,0.8,0.4,0.8,0.8L48.7,9.5L48.7,9.5z"/>
<path class="st6" d="M41.9,23.6l-1.6,1.7c0,0,5.2,4.2,5.2,12.7h2.2c0.1-0.6,0.1-1,0.1-1.6C47.7,31.2,45.5,26.7,41.9,23.6"/>
<path class="st2" d="M7.4,6.6c0,0,2.8,0,7,0c2.1,0,4.6,0,7.2,0s5.4,0,8.2,0.1c1.4,0,2.8,0,4.2,0c1.4,0,2.7,0,4,0c2.6,0,5.1,0,7.2,0
	c4.2,0,7,0,7,0s-2.8,0.1-7,0.2c-2.1,0-4.6,0.1-7.2,0.1c-1.3,0-2.7,0-4,0.1c-1.4,0-2.8,0.1-4.2,0c-2.8,0-5.6-0.1-8.2-0.1
	s-5.1-0.1-7.2-0.1C10.2,6.7,7.4,6.6,7.4,6.6"/>
<path class="st4" d="M8.3,12.4c0,0,0.7,0.1,1.9,0.3c0.6,0.1,1.3,0.2,2.2,0.3c0.8,0.1,1.8,0.3,2.8,0.4c1,0.2,2.2,0.3,3.4,0.4
	c1.2,0.2,2.4,0.3,3.7,0.4c0.3,0,0.7,0.1,0.9,0.1c0.4,0,0.7,0.1,1,0.1c0.7,0.1,1.3,0.1,2.1,0.2c0.7,0.1,1.4,0.1,2.1,0.1
	c0.7,0,1.4,0,2.1,0.1c0.7,0,1.4,0,2.1,0c0.7,0,1.4,0,2.1-0.1c0.7,0,1.4-0.1,2.1-0.1c0.7,0,1.3-0.1,2-0.1c0.7-0.1,1.3-0.1,1.9-0.2
	c0.7,0,1.2-0.1,1.9-0.2c1.2-0.1,2.3-0.2,3.4-0.4c1-0.1,2-0.2,2.8-0.3s1.6-0.2,2.2-0.3c1.2-0.2,1.9-0.2,1.9-0.2s-0.7,0.1-1.9,0.4
	c-0.6,0.1-1.3,0.2-2.2,0.4c-0.8,0.1-1.8,0.3-2.8,0.4c-1,0.2-2.2,0.3-3.4,0.5c-1.2,0.2-2.4,0.3-3.7,0.4c-0.7,0.1-1.3,0.1-2,0.2
	c-0.7,0-1.3,0.1-2.1,0.1c-0.7,0.1-1.4,0.1-2.1,0.1c-0.7,0-1.4,0.1-2.1,0.1c-0.7,0-1.4-0.1-2.1-0.1c-0.7,0-1.4,0-2.1-0.1
	c-0.7-0.1-1.4-0.1-2.1-0.2c-0.4,0-0.7-0.1-1-0.1s-0.7-0.1-1-0.1c-1.3-0.2-2.5-0.3-3.7-0.5c-1.2-0.2-2.3-0.4-3.4-0.6s-2-0.4-2.8-0.5
	c-0.8-0.2-1.6-0.3-2.2-0.4C9,12.5,8.3,12.4,8.3,12.4"/>
<path class="st2" d="M8.3,15.5c0,0,2.8,0,6.9-0.1c2.1,0,4.5,0,7.1,0s5.3,0,8.1,0s5.5,0,8.1,0c2.6,0,5.1,0,7.1,0
	c4.1,0.1,6.9,0.1,6.9,0.1s-2.8,0-6.9,0.1c-2.1,0-4.5,0-7.1,0c-2.6,0-5.3,0-8.1,0s-5.5,0-8.1,0s-5.1,0-7.1,0
	C11.1,15.5,8.3,15.5,8.3,15.5"/>
<path class="st3" d="M43,36.4c0,6.8-5.5,12.4-12.4,12.4c-6.8,0-12.4-5.5-12.4-12.4c0-6.8,5.5-12.4,12.4-12.4
	C37.5,24,43,29.6,43,36.4"/>
<path class="st4" d="M33.3,31.3c0,0-0.7,0.5-1.7,1.2c-0.3,0.2-0.5,0.4-0.7,0.7c-0.3,0.2-0.6,0.5-0.8,0.7c-0.3,0.3-0.6,0.5-0.8,0.7
	c-0.2,0.1-0.3,0.3-0.5,0.4l-0.5,0.5c-0.3,0.3-0.6,0.6-0.8,0.8c-0.3,0.3-0.6,0.6-0.7,0.8c-0.3,0.3-0.5,0.6-0.7,0.8
	c-0.2,0.3-0.5,0.6-0.6,0.7c-0.2,0.3-0.4,0.5-0.5,0.7c-0.2,0.2-0.3,0.4-0.4,0.6c-0.2,0.3-0.4,0.5-0.4,0.5s0.1-0.2,0.2-0.6
	c0.1-0.2,0.2-0.4,0.3-0.6c0.1-0.2,0.3-0.5,0.4-0.7c0.1-0.1,0.2-0.3,0.3-0.5c0.1-0.2,0.2-0.3,0.3-0.5c0.2-0.3,0.4-0.7,0.7-0.9
	s0.5-0.7,0.7-0.9c0.3-0.3,0.6-0.7,0.8-0.9l0.5-0.5c0.2-0.1,0.3-0.3,0.5-0.4c0.3-0.3,0.7-0.6,0.9-0.7c0.3-0.3,0.7-0.5,0.9-0.7
	c0.3-0.2,0.6-0.4,0.8-0.6c0.3-0.2,0.6-0.3,0.7-0.4c0.2-0.1,0.5-0.2,0.6-0.3C33,31.3,33.3,31.3,33.3,31.3"/>
<path class="st4" d="M35.2,32.6c0,0-0.7,0.6-1.7,1.5c-0.5,0.5-1,0.9-1.7,1.5c-0.3,0.3-0.7,0.6-0.9,0.8c-0.3,0.3-0.7,0.6-0.9,0.9
	c-0.3,0.3-0.7,0.6-0.9,0.9c-0.3,0.3-0.7,0.6-0.9,0.9c-0.3,0.3-0.6,0.6-0.8,0.8c-0.3,0.3-0.5,0.6-0.7,0.7c-0.2,0.3-0.5,0.5-0.6,0.7
	c-0.2,0.2-0.4,0.4-0.5,0.6c-0.3,0.3-0.4,0.5-0.4,0.5s0.1-0.2,0.3-0.6c0.1-0.2,0.2-0.4,0.4-0.6c0.2-0.2,0.4-0.5,0.6-0.7
	c0.2-0.3,0.5-0.6,0.7-0.8c0.3-0.3,0.5-0.6,0.7-0.9c0.3-0.3,0.6-0.7,0.8-0.9c0.3-0.3,0.7-0.7,0.9-0.9c0.4-0.3,0.7-0.6,0.9-0.9
	c0.4-0.3,0.7-0.6,0.9-0.8c0.7-0.6,1.2-1,1.8-1.4C34.4,33,35.2,32.6,35.2,32.6"/>
<polygon class="st2" points="30.8,10.6 32,9.8 31.3,11 30.8,11 "/>
<path class="st2" d="M7.5,5.5c0,0,2.8,0,7,0c2.1,0,4.6,0,7.2,0s5.4,0,8.2,0.1c1.4,0,2.8,0,4.2,0c1.4,0,2.7,0,4,0c2.6,0,5.1,0,7.2,0
	c4.2,0,7,0,7,0s-2.8,0.1-7,0.2c-2.1,0-4.6,0.1-7.2,0.1c-1.3,0-2.7,0-4,0.1c-1.4,0-2.8,0.1-4.2,0c-2.8,0-5.6-0.1-8.2-0.1
	s-5.1-0.1-7.2-0.1C10.3,5.5,7.5,5.5,7.5,5.5"/>
</svg>
