<?xml version="1.0" encoding="utf-8"?>
<!-- Generator: Adobe Illustrator 23.0.3, SVG Export Plug-In . SVG Version: 6.00 Build 0)  -->
<svg version="1.1" id="Layer_1" xmlns="http://www.w3.org/2000/svg" xmlns:xlink="http://www.w3.org/1999/xlink" x="0px" y="0px"
	 viewBox="0 0 210 79" style="enable-background:new 0 0 210 79;" xml:space="preserve">
<style type="text/css">
	.st0{fill:#75BCDB;}
	.st1{fill:#F7CB41;}
	.st2{fill:#FFFFFF;}
</style>
<path class="st0" d="M198,79H12C5.4,79,0,73.6,0,67V12C0,5.4,5.4,0,12,0h186c6.6,0,12,5.4,12,12v55C210,73.6,204.6,79,198,79z"/>
<path class="st1" d="M177.6,26.9c0,12.7-10.3,23-23.1,23c-12.7,0-23-10.3-23-23c0-12.7,10.3-23,23-23
	C167.2,3.8,177.6,14.1,177.6,26.9"/>
<path class="st2" d="M110,21.1c-6.7,0-11.9,5.3-11.9,13.4c0,0-11.9-4.8-11.9,7.9l-15.6,2.1h94.3l-21.8-2.1c0,0-0.9-10.3-9.4-10.3
	c0,0-3.6-9.1-13.2-3.7C120.5,28.3,119.3,21.1,110,21.1"/>
<path class="st2" d="M14.9,61.3h68l-44.1-3.6c0,0-1-7.8-9.1-7.8c-9.1,0-10.1,10.2-10.1,10.2L14.9,61.3z"/>
<path class="st2" d="M136.9,70.5h58.3l-30.8-1.5c0,0-1.5-2.9-5.1-2.9c-3.6,0-5,2.9-5,2.9L136.9,70.5z"/>
</svg>
