<?xml version="1.0" encoding="utf-8"?>
<!-- Generator: Adobe Illustrator 16.0.0, SVG Export Plug-In . SVG Version: 6.00 Build 0)  -->
<!DOCTYPE svg PUBLIC "-//W3C//DTD SVG 1.1//EN" "http://www.w3.org/Graphics/SVG/1.1/DTD/svg11.dtd">
<svg version="1.1" id="Layer_1" xmlns="http://www.w3.org/2000/svg" xmlns:xlink="http://www.w3.org/1999/xlink" x="0px" y="0px"
	 width="59.802px" height="65.988px" viewBox="0 0 59.802 65.988" enable-background="new 0 0 59.802 65.988" xml:space="preserve">
<g id="XMLID_1_">
	<g id="XMLID_8_">
		<circle id="XMLID_13_" fill="#214473" cx="29.901" cy="36.086" r="29.901"/>
		<circle id="XMLID_11_" fill="#4566B0" cx="29.901" cy="29.901" r="29.901"/>
		<path id="XMLID_9_" fill="#395C9A" d="M51.044,51.043c11.677-11.677,11.677-30.609,0-42.285L8.757,51.043
			C20.435,62.721,39.367,62.721,51.044,51.043z"/>
	</g>
	<path fill="#FFFFFF" d="M36.915,31.67l0.623-4.837h-4.79v-3.088c0-1.399,0.392-2.354,2.398-2.354l2.56-0.001v-4.325
		c-0.442-0.06-1.961-0.192-3.729-0.192c-3.694,0-6.221,2.256-6.221,6.394v3.566H23.58v4.837h4.176v12.408h4.992V31.67H36.915z"/>
</g>
</svg>
