<?xml version="1.0" encoding="utf-8"?>
<!-- Generator: Adobe Illustrator 23.0.3, SVG Export Plug-In . SVG Version: 6.00 Build 0)  -->
<svg version="1.1" id="Layer_1" xmlns="http://www.w3.org/2000/svg" xmlns:xlink="http://www.w3.org/1999/xlink" x="0px" y="0px"
	 viewBox="0 0 210 79" style="enable-background:new 0 0 210 79;" xml:space="preserve">
<style type="text/css">
	.st0{fill:#964A03;}
	.st1{fill:#E57102;}
	.st2{clip-path:url(#SVGID_2_);fill:#C85E1C;}
	.st3{fill:#FFFFFF;}
</style>
<g>
	<g>
		<path class="st0" d="M210,69c0,5.5-4.5,10-10,10H10C4.5,79,0,74.5,0,69V19C0,13.5,4.5,9,10,9h190c5.5,0,10,4.5,10,10V69z"/>
		<path class="st1" d="M210,60c0,5.5-4.5,10-10,10H10C4.5,70,0,65.5,0,60V10C0,4.5,4.5,0,10,0h190c5.5,0,10,4.5,10,10V60z"/>
		<g>
			<g>
				<g>
					<defs>
						<path id="SVGID_1_" d="M210,60c0,5.5-4.5,10-10,10H10C4.5,70,0,65.5,0,60V10C0,4.5,4.5,0,10,0h190c5.5,0,10,4.5,10,10V60z"/>
					</defs>
					<clipPath id="SVGID_2_">
						<use xlink:href="#SVGID_1_"  style="overflow:visible;"/>
					</clipPath>
					<polygon class="st2" points="209,2.4 3,70 215.8,70 					"/>
				</g>
			</g>
		</g>
		<g>
			<path class="st3" d="M21,28.1h5.6v5.4h-4.7c-0.7,0-0.9-0.3-0.9-0.9V28.1z M22,36.6h3.6l0.7,7.5c0.2,1.8,0.2,2.8,0.2,4V59h-5.5
				V48.2c0-1.2,0-2.2,0.2-4L22,36.6z"/>
			<path class="st3" d="M53.8,44.1H39.6l-2.3,6.2c-0.2,0.5-0.3,0.6-0.8,0.6h-5.2l12-30.9h5.6c0.5,0,0.7,0.1,0.8,0.6l12.6,30.3h-5.4
				c-0.5,0-0.6-0.1-0.8-0.6L53.8,44.1z M41.3,39.6H52l-2.5-6.3c-1.2-2.8-2.4-5.7-3-7.7c-0.6,2-1.7,4.9-2.7,7.6L41.3,39.6z"/>
			<path class="st3" d="M82.1,53.6c0,2.7-0.5,4.8-1.8,6.2c-1.2,1.2-2.9,1.9-5.2,1.9c-1.3,0-2.8-0.3-3.7-0.6v-2.9l2.6-0.5
				c2.5-0.5,2.8-1.3,2.8-3.2V28.1h5.3V53.6z M76.8,18.8h4.3c0.7,0,1,0.3,1,0.9v4.4h-5.3V18.8z"/>
			<path class="st3" d="M104.2,50.9l-0.8-1.9l-1.4,0.7c-2,1-3.7,1.5-5.3,1.5h0c-2.9,0-5.4-1-6.9-2.6c-1.5-1.5-2.2-3.4-2.2-6V28.1
				h5.3v14.2c0,1.4,0.3,2.4,1,3c0.7,0.7,2.1,0.9,3.6,0.9h0.1c1.8,0,3.7-0.3,4.8-0.9c0.3-0.1,0.5-0.4,0.5-0.8V28.1h5.3v22.7H104.2z"
				/>
			<path class="st3" d="M133.8,27.5c0.9,0,1.9,0.4,2.7,1v2.9l-4.2,0.6c-0.3,0-0.4,0.2-0.2,0.7c0.7,1.2,1,2.5,1,4.1
				c0,5.4-4.6,8.9-9.9,8.9c-0.9,0-2-0.1-2.8-0.4c-0.5-0.1-0.6-0.1-0.8,0.3l-0.4,0.8c-0.3,0.7-0.1,1.1,0.7,1.1h6.3
				c3.1,0,5.1,0.5,6.5,1.8c1.2,1.2,1.9,2.8,1.9,4.7c0,5-4.9,8.3-11.5,8.3c-6.8,0-11.2-3.3-11.2-7.5c0-2.1,1.1-3.4,2.9-4.5
				c-0.5-0.7-0.9-1.4-0.9-2.1c0-1,0.5-1.9,1.5-3.1l1.4-1.5c-2.1-1.6-3.4-3.9-3.4-6.8c0-5.4,4.6-8.9,9.9-8.9c2.3,0,4.4,0.7,6.2,1.9
				C131.1,28.1,132.6,27.5,133.8,27.5z M118.4,52c-0.5,0-0.8,0.1-1.1,0.5c-0.3,0.4-0.5,1-0.5,1.6c0,2.3,2.1,3.7,6.3,3.7h0.1
				c3.8,0,6.5-1.1,6.5-3.7c0-0.6-0.2-1.1-0.5-1.4c-0.5-0.5-1.3-0.7-2.6-0.7H118.4z M123.2,32.1c-3.1,0-4.9,1.6-4.9,4.6
				s1.8,4.6,4.9,4.6c3.1,0,4.9-1.6,4.9-4.6S126.3,32.1,123.2,32.1z"/>
			<path class="st3" d="M152.8,36.1c0-1.2-0.3-2-0.8-2.6c-0.7-0.7-1.8-1-3.4-1c-1.7,0-3.6,0.4-5.5,1l-2.3,0.7l-1.6-2.9
				c2.8-2.1,6.4-3.6,9.8-3.6c3,0,5.5,0.9,7.1,2.7c1.2,1.4,2,3.1,2,5.8v10.3l3,0.6V50c-1,0.5-2.7,0.9-3.9,0.9c-1.7,0-2.8-0.8-3.8-2
				l-1.1,0.6c-2.2,1.2-4.2,1.7-6.1,1.7c-4.8,0-8.2-3.5-8.2-7.7c0-3.9,2.9-6.3,8-6.3h0.3c1.9,0,4.7,0.3,6.5,0.7V36.1z M152.8,41.7
				c0-0.4-0.1-0.5-0.6-0.5h-7.1c-0.7,0-1.3,0.2-1.6,0.6s-0.5,0.9-0.5,1.6c0,1.9,1.4,3.4,4.1,3.4c1.4,0,3.4-0.4,5.1-1.1
				c0.5-0.2,0.6-0.4,0.6-0.7V41.7z"/>
			<path class="st3" d="M169.5,30.7c3-2.1,5.2-3,6.7-3c0.9,0,1.9,0.3,2.8,0.7v3.5c-2.8,0.5-6.1,1.2-8.6,2.1
				c-0.4,0.1-0.5,0.3-0.5,0.7v16.1h-5.3V28.1h3.9L169.5,30.7z"/>
			<path class="st3" d="M188.4,50.9h-5.6v-5.4h4.7c0.7,0,0.9,0.3,0.9,0.9V50.9z M187.4,42.3h-3.6l-0.7-7.5c-0.2-1.8-0.2-2.8-0.2-4
				V20h5.5v10.8c0,1.2,0,2.2-0.2,4L187.4,42.3z"/>
		</g>
	</g>
</g>
</svg>
