<?xml version="1.0" encoding="utf-8"?>
<!-- Generator: Adobe Illustrator 23.0.3, SVG Export Plug-In . SVG Version: 6.00 Build 0)  -->
<svg version="1.1" id="Layer_1" xmlns="http://www.w3.org/2000/svg" xmlns:xlink="http://www.w3.org/1999/xlink" x="0px" y="0px"
	 viewBox="0 0 59.8 66" style="enable-background:new 0 0 59.8 66;" xml:space="preserve">
<style type="text/css">
	.st0{fill:#964A03;}
	.st1{fill:#E57102;}
	.st2{fill:#C85E1C;}
	.st3{fill-rule:evenodd;clip-rule:evenodd;fill:#FFFFFF;}
</style>
<g id="XMLID_10_">
	<g id="XMLID_12_">
		<circle id="XMLID_23_" class="st0" cx="29.9" cy="36.1" r="29.9"/>
		<circle id="XMLID_20_" class="st1" cx="29.9" cy="29.9" r="29.9"/>
		<path id="XMLID_14_" class="st2" d="M51,51c11.7-11.7,11.7-30.6,0-42.3L8.8,51C20.4,62.7,39.4,62.7,51,51z"/>
	</g>
	<path class="st3" d="M37.1,19.7l-8.5,9.1v-6.5h-0.9c-4.5,1.5-6.9,5-6.9,9c0,3.6,2.3,7.6,6.9,8.8c0.3,0.1,0.7,0.4,1,0.4h2.7
		c0.4-0.2,0.6-0.4,1.1-0.4c3.3-0.5,7.2-5.2,6.8-8.6h4.7V32c-0.2,1.2-0.3,2.4-0.7,3.6c-0.4,1.2-1.2,2.5-1.7,3.4
		c-0.9,1.4-2.7,3.3-4.4,4.2c-0.4,0.3-1,0.6-1.5,0.8c-0.3,0.2-0.8,0.2-1.1,0.4c-2.2,0.8-2.9,0.8-4.6,0.8c-4.4,0-8.6-1.7-11.6-6.1
		c-0.8-1.2-1.2-2.1-1.7-3.5c-0.4-1.1-0.6-3.2-0.6-3.4v-1.6c0.3-1.1,0.4-2.1,0.6-3.2c0.3-0.7,0.5-1.6,0.9-2.3c0.2-0.4,0.5-1,0.8-1.4
		c0.1-0.2,0.3-0.3,0.4-0.4c1.9-2.5,3.6-4,6.1-4.9c1.2-0.4,2.5-0.6,3.7-1v-6.6L37.1,19.7z"/>
</g>
</svg>
