<?xml version="1.0" encoding="utf-8"?>
<!-- Generator: Adobe Illustrator 23.0.3, SVG Export Plug-In . SVG Version: 6.00 Build 0)  -->
<svg version="1.1" id="Layer_1" xmlns="http://www.w3.org/2000/svg" xmlns:xlink="http://www.w3.org/1999/xlink" x="0px" y="0px"
	 viewBox="0 0 210 79" style="enable-background:new 0 0 210 79;" xml:space="preserve">
<style type="text/css">
	.st0{fill:#964A03;}
	.st1{fill:#E57102;}
	.st2{clip-path:url(#SVGID_2_);fill:#C85E1C;}
	.st3{fill:#FFFFFF;}
</style>
<g>
	<path class="st0" d="M210,69c0,5.5-4.5,10-10,10H10C4.5,79,0,74.5,0,69V19C0,13.5,4.5,9,10,9h190c5.5,0,10,4.5,10,10V69z"/>
	<path class="st1" d="M210,60c0,5.5-4.5,10-10,10H10C4.5,70,0,65.5,0,60V10C0,4.5,4.5,0,10,0h190c5.5,0,10,4.5,10,10V60z"/>
	<g>
		<g>
			<g>
				<defs>
					<path id="SVGID_1_" d="M210,60c0,5.5-4.5,10-10,10H10C4.5,70,0,65.5,0,60V10C0,4.5,4.5,0,10,0h190c5.5,0,10,4.5,10,10V60z"/>
				</defs>
				<clipPath id="SVGID_2_">
					<use xlink:href="#SVGID_1_"  style="overflow:visible;"/>
				</clipPath>
				<polygon class="st2" points="209,2.4 3,70 215.8,70 				"/>
			</g>
		</g>
	</g>
</g>
<g>
	<path class="st3" d="M111.1,35.1c0,6.8-4.9,11.6-11.7,11.6s-11.7-4.8-11.7-11.6c0-6.4,5.6-10.9,11.7-10.9
		C105.5,24.2,111.1,28.7,111.1,35.1z M93.4,35.1c0,3.6,2.7,6.3,6,6.3s6-2.7,6-6.3c0-2.9-2.7-5.6-6-5.6S93.4,32.2,93.4,35.1z"/>
	<path class="st3" d="M118.6,36.8l5.3-5.2h7l-7.2,6.6l7.6,7.7h-7.1l-5.6-5.9V46h-5.1V22.8h5.1V36.8z"/>
</g>
</svg>
