<?xml version="1.0" encoding="utf-8"?>
<!-- Generator: Adobe Illustrator 16.0.0, SVG Export Plug-In . SVG Version: 6.00 Build 0)  -->
<!DOCTYPE svg PUBLIC "-//W3C//DTD SVG 1.1//EN" "http://www.w3.org/Graphics/SVG/1.1/DTD/svg11.dtd">
<svg version="1.1" id="Layer_1" xmlns="http://www.w3.org/2000/svg" xmlns:xlink="http://www.w3.org/1999/xlink" x="0px" y="0px"
	 width="210px" height="79px" viewBox="0 0 210 79" enable-background="new 0 0 210 79" xml:space="preserve">
<g>
	<path fill="#964a03" d="M210,69c0,5.523-4.479,10-10,10H10C4.478,79,0,74.523,0,69V19C0,13.477,4.478,9,10,9h190
		c5.521,0,10,4.477,10,10V69z"/>
	<path fill="#E57102" d="M210,60c0,5.523-4.479,10-10,10H10C4.478,70,0,65.523,0,60V10C0,4.477,4.478,0,10,0h190
		c5.521,0,10,4.477,10,10V60z"/>
	<g>
		<g>
			<defs>
				<path id="SVGID_1_" d="M210,60c0,5.523-4.479,10-10,10H10C4.478,70,0,65.523,0,60V10C0,4.477,4.478,0,10,0h190
					c5.521,0,10,4.477,10,10V60z"/>
			</defs>
			<clipPath id="SVGID_2_">
				<use xlink:href="#SVGID_1_"  overflow="visible"/>
			</clipPath>
			<polygon clip-path="url(#SVGID_2_)" fill="#C85E1C" points="209,2.429 3,70 215.75,70 			"/>
		</g>
	</g>
</g>
<g>
	<path fill="#FFFFFF" d="M62.504,37.724c0.066,1.221,0.343,2.212,0.833,2.974c0.931,1.426,2.573,2.139,4.924,2.139
		c1.054,0,2.013-0.156,2.879-0.469c1.674-0.605,2.512-1.689,2.512-3.252c0-1.172-0.355-2.007-1.064-2.505
		c-0.719-0.488-1.845-0.913-3.377-1.274l-2.824-0.659c-1.845-0.43-3.15-0.903-3.917-1.421c-1.325-0.898-1.987-2.241-1.987-4.028
		c0-1.934,0.651-3.521,1.953-4.761c1.302-1.24,3.146-1.86,5.531-1.86c2.195,0,4.06,0.545,5.595,1.633
		c1.535,1.09,2.302,2.83,2.302,5.223h-2.739c-0.141-1.152-0.44-2.036-0.899-2.651c-0.852-1.123-2.298-1.685-4.339-1.685
		c-1.648,0-2.833,0.361-3.554,1.084c-0.721,0.723-1.081,1.562-1.081,2.52c0,1.055,0.426,1.826,1.277,2.314
		c0.558,0.312,1.821,0.703,3.79,1.172l2.924,0.688c1.41,0.332,2.498,0.786,3.264,1.362c1.325,1.006,1.987,2.466,1.987,4.38
		c0,2.383-0.845,4.087-2.536,5.112s-3.655,1.538-5.893,1.538c-2.609,0-4.652-0.684-6.128-2.051
		c-1.477-1.357-2.201-3.198-2.171-5.522H62.504z"/>
	<path fill="#FFFFFF" d="M82.895,28.979v10.415c0,0.801,0.124,1.455,0.371,1.963c0.457,0.938,1.308,1.406,2.554,1.406
		c1.788,0,3.005-0.82,3.652-2.461C89.824,39.423,90,38.217,90,36.684v-7.705h2.637v15.688h-2.49l0.029-2.314
		c-0.336,0.596-0.753,1.099-1.251,1.509c-0.987,0.82-2.185,1.23-3.593,1.23c-2.194,0-3.689-0.747-4.484-2.241
		c-0.431-0.801-0.647-1.87-0.647-3.208V28.979H82.895z"/>
	<path fill="#FFFFFF" d="M96.723,23.075h2.563v7.808c0.579-0.752,1.27-1.325,2.073-1.722c0.804-0.395,1.677-0.593,2.618-0.593
		c1.96,0,3.551,0.672,4.772,2.015s1.83,3.322,1.83,5.939c0,2.48-0.603,4.541-1.809,6.182c-1.205,1.641-2.877,2.461-5.014,2.461
		c-1.196,0-2.206-0.288-3.029-0.864c-0.49-0.342-1.015-0.889-1.573-1.641v2.007h-2.432V23.075z M106.805,41.137
		c0.711-1.133,1.066-2.627,1.066-4.482c0-1.65-0.355-3.018-1.066-4.102s-1.756-1.626-3.138-1.626c-1.206,0-2.261,0.444-3.167,1.333
		c-0.906,0.889-1.359,2.354-1.359,4.395c0,1.475,0.186,2.671,0.559,3.589c0.695,1.729,1.994,2.593,3.895,2.593
		C105.024,42.836,106.094,42.27,106.805,41.137z"/>
	<path fill="#FFFFFF" d="M113.627,28.979h2.607v2.227c0.625-0.771,1.191-1.333,1.699-1.685c0.869-0.596,1.855-0.894,2.959-0.894
		c1.25,0,2.256,0.308,3.018,0.923c0.43,0.352,0.82,0.869,1.172,1.553c0.586-0.84,1.275-1.462,2.066-1.867s1.68-0.608,2.666-0.608
		c2.109,0,3.545,0.762,4.307,2.285c0.41,0.82,0.615,1.924,0.615,3.311v10.444h-2.74V33.769c0-1.045-0.261-1.763-0.783-2.153
		s-1.16-0.586-1.912-0.586c-1.035,0-1.926,0.347-2.673,1.04s-1.12,1.851-1.12,3.472v9.126h-2.682V34.428
		c0-1.064-0.127-1.841-0.381-2.329c-0.4-0.732-1.146-1.099-2.24-1.099c-0.996,0-1.902,0.386-2.718,1.157s-1.224,2.168-1.224,4.189
		v8.32h-2.637V28.979z"/>
	<path fill="#FFFFFF" d="M138.617,23.148h2.682v2.988h-2.682V23.148z M138.617,29.052h2.682v15.615h-2.682V29.052z"/>
	<path fill="#FFFFFF" d="M145.811,24.599h2.666v4.38h2.504v2.153h-2.504v10.239c0,0.547,0.186,0.913,0.557,1.099
		c0.205,0.107,0.547,0.161,1.025,0.161c0.127,0,0.264-0.003,0.41-0.01c0.146-0.006,0.316-0.022,0.512-0.049v2.095
		c-0.303,0.088-0.617,0.151-0.944,0.19s-0.681,0.059-1.062,0.059c-1.23,0-2.066-0.315-2.506-0.944
		c-0.439-0.631-0.658-1.448-0.658-2.454V31.132h-2.125v-2.153h2.125V24.599z"/>
</g>
</svg>
