<?xml version="1.0" encoding="utf-8"?>
<!-- Generator: Adobe Illustrator 16.0.0, SVG Export Plug-In . SVG Version: 6.00 Build 0)  -->
<!DOCTYPE svg PUBLIC "-//W3C//DTD SVG 1.1//EN" "http://www.w3.org/Graphics/SVG/1.1/DTD/svg11.dtd">
<svg version="1.1" id="Layer_1" xmlns="http://www.w3.org/2000/svg" xmlns:xlink="http://www.w3.org/1999/xlink" x="0px" y="0px"
	 width="50px" height="55px" viewBox="0 0 50 55" enable-background="new 0 0 50 55" xml:space="preserve">
<path fill="#3F387B" d="M50,45c0,5.523-4.478,10-10,10H10C4.478,55,0,50.523,0,45V15C0,9.477,4.478,5,10,5h30
	c5.522,0,10,4.477,10,10V45z"/>
<path fill="#685FAA" d="M50,40c0,5.523-4.478,10-10,10H10C4.478,50,0,45.523,0,40V10C0,4.477,4.478,0,10,0h30
	c5.522,0,10,4.477,10,10V40z"/>
<g>
	<defs>
		<path id="SVGID_1_" d="M50,40c0,5.523-4.478,10-10,10H10C4.478,50,0,45.523,0,40V10C0,4.477,4.478,0,10,0h30
			c5.522,0,10,4.477,10,10V40z"/>
	</defs>
	<clipPath id="SVGID_2_">
		<use xlink:href="#SVGID_1_"  overflow="visible"/>
	</clipPath>
	<polygon clip-path="url(#SVGID_2_)" fill="#524E9B" points="49,2.429 3,50 55.75,50 	"/>
</g>
<path fill-rule="evenodd" clip-rule="evenodd" fill="#FFFFFF" d="M18.291,11.998c2.273,2.125,6.598,6.673,6.709,6.673
	c0.075,0,4.475-4.585,6.822-6.784c0.187-0.224,0.484-0.298,0.783-0.373c0.111-0.037,0.335,0,0.41,0c0.484,0,0.298,0,0.969,0.187
	c0.112,0.037,0.261,0.149,0.373,0.261c0.373,0.298,0.708,0.671,1.044,1.006c0.708,0.708,1.453,1.417,2.199,2.274
	c0.187,0.187,0.409,0.857,0.409,1.193c0,0.224-0.111,0.82-0.335,1.081c-2.088,2.274-4.622,4.698-6.858,6.971
	c2.273,2.311,4.696,4.548,6.858,6.971c0.224,0.224,0.335,0.821,0.335,1.082c0,0.448-0.037,0.783-0.409,1.23
	c-0.97,1.155-2.088,2.162-3.169,3.168c-0.074,0.112-0.187,0.224-0.298,0.261c-0.187,0.112-0.56,0.298-0.671,0.298h-0.82
	c-0.484-0.149-0.857-0.41-1.268-0.82c-2.125-2.162-6.3-6.337-6.375-6.337c-0.111,0-4.659,4.623-6.896,6.785
	c-0.187,0.149-0.41,0.224-0.634,0.298c-0.188,0.075-0.448,0.075-0.561,0.075c-0.447,0-0.559,0.074-1.043-0.298
	c-1.156-0.857-2.312-2.199-3.43-3.317c-0.074-0.075-0.447-0.783-0.447-0.969v-0.708c0.111-0.374,0.336-0.858,0.783-1.268
	c2.124-2.087,6.375-6.337,6.375-6.449c0-0.074-4.586-4.585-6.785-6.859c-0.075-0.037-0.373-0.708-0.373-0.857v-0.671
	c0.074-0.298,0.149-0.671,0.373-0.895c1.006-1.156,2.199-2.311,3.317-3.317c0.187-0.187,0.597-0.298,0.82-0.373h0.409
	C17.508,11.514,17.657,11.439,18.291,11.998z"/>
</svg>
