<?xml version="1.0" encoding="utf-8"?>
<!-- Generator: Adobe Illustrator 16.0.0, SVG Export Plug-In . SVG Version: 6.00 Build 0)  -->
<!DOCTYPE svg PUBLIC "-//W3C//DTD SVG 1.1//EN" "http://www.w3.org/Graphics/SVG/1.1/DTD/svg11.dtd">
<svg version="1.1" id="Layer_1" xmlns="http://www.w3.org/2000/svg" xmlns:xlink="http://www.w3.org/1999/xlink" x="0px" y="0px"
	 width="210px" height="79px" viewBox="0 0 210 79" enable-background="new 0 0 210 79" xml:space="preserve">
<g>
	<g>
		<path fill="#3F387B" d="M210,69c0,5.523-4.478,10-10,10H10C4.478,79,0,74.523,0,69V19C0,13.477,4.478,9,10,9h190
			c5.522,0,10,4.477,10,10V69z"/>
		<path fill="#685FAA" d="M210,60c0,5.523-4.478,10-10,10H10C4.478,70,0,65.523,0,60V10C0,4.477,4.478,0,10,0h190
			c5.522,0,10,4.477,10,10V60z"/>
		<g>
			<defs>
				<path id="SVGID_1_" d="M210,60c0,5.523-4.478,10-10,10H10C4.478,70,0,65.523,0,60V10C0,4.477,4.478,0,10,0h190
					c5.522,0,10,4.477,10,10V60z"/>
			</defs>
			<clipPath id="SVGID_2_">
				<use xlink:href="#SVGID_1_"  overflow="visible"/>
			</clipPath>
			<polygon clip-path="url(#SVGID_2_)" fill="#524E9B" points="209,2.429 3,70 215.75,70 			"/>
		</g>
	</g>
	<g>
		<path fill="#FFFFFF" d="M77.512,39.487c0.066,1.221,0.343,2.212,0.833,2.974c0.931,1.426,2.573,2.139,4.924,2.139
			c1.054,0,2.013-0.156,2.879-0.469c1.674-0.605,2.512-1.689,2.512-3.252c0-1.172-0.355-2.007-1.064-2.505
			c-0.719-0.488-1.845-0.913-3.377-1.274l-2.824-0.659c-1.845-0.43-3.15-0.903-3.917-1.421c-1.325-0.898-1.987-2.241-1.987-4.028
			c0-1.934,0.651-3.521,1.953-4.761c1.302-1.24,3.146-1.86,5.531-1.86c2.195,0,4.06,0.545,5.595,1.633
			c1.535,1.09,2.302,2.83,2.302,5.223h-2.739c-0.141-1.152-0.44-2.036-0.899-2.651c-0.852-1.123-2.298-1.685-4.339-1.685
			c-1.648,0-2.833,0.361-3.554,1.084c-0.721,0.723-1.081,1.562-1.081,2.52c0,1.055,0.426,1.826,1.277,2.314
			c0.558,0.312,1.821,0.703,3.79,1.172l2.924,0.688c1.41,0.332,2.498,0.786,3.264,1.362c1.325,1.006,1.987,2.466,1.987,4.38
			c0,2.383-0.845,4.087-2.536,5.112s-3.655,1.538-5.893,1.538c-2.609,0-4.652-0.684-6.128-2.051
			c-1.477-1.357-2.201-3.198-2.171-5.522H77.512z"/>
		<path fill="#FFFFFF" d="M95.793,26.362h2.666v4.38h2.505v2.153h-2.505v10.239c0,0.547,0.186,0.913,0.557,1.099
			c0.205,0.107,0.547,0.161,1.025,0.161c0.127,0,0.264-0.003,0.41-0.01c0.146-0.006,0.317-0.022,0.513-0.049v2.095
			c-0.303,0.088-0.618,0.151-0.945,0.19s-0.681,0.059-1.062,0.059c-1.23,0-2.065-0.315-2.505-0.944
			c-0.439-0.631-0.659-1.448-0.659-2.454V32.896h-2.124v-2.153h2.124V26.362z"/>
		<path fill="#FFFFFF" d="M112.009,36.937c0.605-0.078,1.011-0.332,1.216-0.761c0.117-0.235,0.176-0.573,0.176-1.015
			c0-0.901-0.319-1.556-0.958-1.963c-0.639-0.407-1.552-0.61-2.741-0.61c-1.374,0-2.349,0.373-2.924,1.119
			c-0.321,0.412-0.531,1.025-0.628,1.84h-2.461c0.049-1.939,0.675-3.288,1.88-4.047s2.602-1.139,4.192-1.139
			c1.843,0,3.341,0.352,4.492,1.055c1.141,0.703,1.712,1.797,1.712,3.281v9.039c0,0.273,0.056,0.493,0.168,0.658
			c0.112,0.166,0.349,0.249,0.71,0.249c0.117,0,0.249-0.008,0.396-0.021c0.146-0.016,0.303-0.037,0.469-0.066v1.948
			c-0.41,0.117-0.723,0.19-0.938,0.22s-0.508,0.044-0.879,0.044c-0.908,0-1.567-0.322-1.978-0.967
			c-0.215-0.342-0.366-0.825-0.454-1.45c-0.537,0.703-1.309,1.313-2.314,1.831s-2.114,0.776-3.325,0.776
			c-1.455,0-2.644-0.441-3.567-1.324s-1.384-1.987-1.384-3.313c0-1.453,0.454-2.58,1.362-3.38s2.1-1.292,3.574-1.478L112.009,36.937
			z M106.458,44.06c0.557,0.438,1.216,0.657,1.978,0.657c0.928,0,1.826-0.215,2.695-0.644c1.465-0.712,2.197-1.877,2.197-3.495
			v-2.121c-0.322,0.206-0.736,0.378-1.243,0.515c-0.507,0.138-1.004,0.235-1.491,0.293L109,39.47
			c-0.955,0.127-1.673,0.327-2.155,0.6c-0.815,0.458-1.223,1.188-1.223,2.192C105.623,43.021,105.901,43.621,106.458,44.06z"/>
		<path fill="#FFFFFF" d="M120.359,30.742h2.505v2.71c0.205-0.527,0.708-1.169,1.509-1.926s1.724-1.136,2.769-1.136
			c0.049,0,0.132,0.005,0.249,0.015s0.317,0.029,0.601,0.059v2.783c-0.156-0.029-0.3-0.049-0.432-0.059s-0.276-0.015-0.432-0.015
			c-1.328,0-2.349,0.428-3.062,1.282s-1.069,1.838-1.069,2.951v9.023h-2.637V30.742z"/>
		<path fill="#FFFFFF" d="M130.803,26.362h2.666v4.38h2.505v2.153h-2.505v10.239c0,0.547,0.186,0.913,0.557,1.099
			c0.205,0.107,0.547,0.161,1.025,0.161c0.127,0,0.264-0.003,0.41-0.01c0.146-0.006,0.317-0.022,0.513-0.049v2.095
			c-0.303,0.088-0.618,0.151-0.945,0.19s-0.681,0.059-1.062,0.059c-1.23,0-2.065-0.315-2.505-0.944
			c-0.439-0.631-0.659-1.448-0.659-2.454V32.896h-2.124v-2.153h2.124V26.362z"/>
	</g>
</g>
</svg>
