<?xml version="1.0" encoding="utf-8"?>
<!-- Generator: Adobe Illustrator 16.0.0, SVG Export Plug-In . SVG Version: 6.00 Build 0)  -->
<!DOCTYPE svg PUBLIC "-//W3C//DTD SVG 1.1//EN" "http://www.w3.org/Graphics/SVG/1.1/DTD/svg11.dtd">
<svg version="1.1" id="Layer_1" xmlns="http://www.w3.org/2000/svg" xmlns:xlink="http://www.w3.org/1999/xlink" x="0px" y="0px"
	 width="50px" height="55px" viewBox="0 0 50 55" enable-background="new 0 0 50 55" xml:space="preserve">
<path fill="#964a03" d="M50,45c0,5.523-4.478,10-10,10H10C4.478,55,0,50.523,0,45V15C0,9.477,4.478,5,10,5h30
	c5.522,0,10,4.477,10,10V45z"/>
<path fill="#E57102" d="M50,40c0,5.523-4.478,10-10,10H10C4.478,50,0,45.523,0,40V10C0,4.477,4.478,0,10,0h30
	c5.522,0,10,4.477,10,10V40z"/>
<g>
	<defs>
		<path id="SVGID_1_" d="M50,40c0,5.523-4.478,10-10,10H10C4.478,50,0,45.523,0,40V10C0,4.477,4.478,0,10,0h30
			c5.522,0,10,4.477,10,10V40z"/>
	</defs>
	<clipPath id="SVGID_2_">
		<use xlink:href="#SVGID_1_"  overflow="visible"/>
	</clipPath>
	<polygon clip-path="url(#SVGID_2_)" fill="#C85E1C" points="49,2.429 3,50 55.75,50 	"/>
</g>
<path fill-rule="evenodd" clip-rule="evenodd" fill="#FFFFFF" d="M28.766,17.261c2.904,2.431,5.869,5.099,8.774,7.589
	c-2.787,2.49-5.691,4.98-8.537,7.412c-0.237,0.178-0.356,0.237-0.475,0.237c-0.179,0-0.475-0.059-0.593-0.237
	c-0.18-0.119-0.298-0.355-0.298-0.474v-3.38h-7.055c-0.118-0.059-0.297-0.059-0.355-0.119c-0.178-0.059-0.771-0.533-0.771-0.771
	v-5.277c0.06-0.475,0.652-0.89,1.127-0.89h7.055v-3.438c0.238-0.593,0.356-0.652,0.831-0.652
	C28.587,17.261,28.646,17.202,28.766,17.261z M32.737,9.731c1.187-0.06,3.024,1.66,3.024,2.905v6.64l-2.312-2.016v-4.328
	c-0.06-0.178-0.534-0.89-1.008-0.89H15.721c-0.237,0.06-0.947,0.534-0.947,0.949v23.716c0,0.237,0.533,1.008,0.947,1.008h16.721
	c0.296-0.059,0.948-0.593,1.008-0.948v-4.269l2.312-2.016v6.581c0,1.068-1.721,2.965-2.905,2.965h-17.55
	c-1.187-0.119-2.847-1.779-2.847-2.905V12.636c0-1.246,1.72-2.965,2.965-2.905H32.737z"/>
</svg>
