<?xml version="1.0" encoding="utf-8"?>
<!-- Generator: Adobe Illustrator 16.0.0, SVG Export Plug-In . SVG Version: 6.00 Build 0)  -->
<!DOCTYPE svg PUBLIC "-//W3C//DTD SVG 1.1//EN" "http://www.w3.org/Graphics/SVG/1.1/DTD/svg11.dtd">
<svg version="1.1" id="Layer_1" xmlns="http://www.w3.org/2000/svg" xmlns:xlink="http://www.w3.org/1999/xlink" x="0px" y="0px"
	 width="210px" height="79px" viewBox="0 0 210 79" enable-background="new 0 0 210 79" xml:space="preserve">
<g>
	<path fill="#964a03" d="M210,69c0,5.523-4.479,10-10,10H10C4.478,79,0,74.523,0,69V19C0,13.477,4.478,9,10,9h190
		c5.521,0,10,4.477,10,10V69z"/>
	<path fill="#E57102" d="M210,60c0,5.523-4.479,10-10,10H10C4.478,70,0,65.523,0,60V10C0,4.477,4.478,0,10,0h190
		c5.521,0,10,4.477,10,10V60z"/>
	<g>
		<g>
			<defs>
				<path id="SVGID_1_" d="M210,60c0,5.523-4.479,10-10,10H10C4.478,70,0,65.523,0,60V10C0,4.477,4.478,0,10,0h190
					c5.521,0,10,4.477,10,10V60z"/>
			</defs>
			<clipPath id="SVGID_2_">
				<use xlink:href="#SVGID_1_"  overflow="visible"/>
			</clipPath>
			<polygon clip-path="url(#SVGID_2_)" fill="#C85E1C" points="209,2.429 3,70 215.75,70 			"/>
		</g>
	</g>
</g>
<g>
	<path fill="#FFFFFF" d="M73.864,23.148h9.304c2.536,0,4.34,0.752,5.411,2.256c0.629,0.889,0.944,1.914,0.944,3.076
		c0,1.357-0.386,2.471-1.157,3.34c-0.4,0.459-0.977,0.879-1.729,1.26c1.104,0.42,1.929,0.894,2.476,1.421
		c0.967,0.938,1.45,2.231,1.45,3.882c0,1.387-0.438,2.642-1.312,3.765c-1.307,1.68-3.385,2.52-6.235,2.52h-9.153V23.148z
		 M82.079,32.245c1.243,0,2.21-0.171,2.901-0.513c1.085-0.537,1.628-1.504,1.628-2.9c0-1.406-0.577-2.354-1.732-2.842
		c-0.651-0.273-1.619-0.41-2.901-0.41h-5.255v6.665H82.079z M83.064,42.177c1.804,0,3.09-0.518,3.859-1.553
		c0.483-0.654,0.725-1.445,0.725-2.373c0-1.562-0.705-2.627-2.115-3.193c-0.749-0.303-1.74-0.454-2.972-0.454h-5.841v7.573H83.064z"
		/>
	<path fill="#FFFFFF" d="M102.004,35.173c0.605-0.078,1.011-0.332,1.216-0.761c0.117-0.235,0.176-0.573,0.176-1.015
		c0-0.901-0.319-1.556-0.958-1.963c-0.639-0.407-1.552-0.61-2.741-0.61c-1.374,0-2.349,0.373-2.924,1.119
		c-0.321,0.412-0.531,1.025-0.628,1.84h-2.461c0.049-1.939,0.675-3.288,1.88-4.047s2.602-1.139,4.192-1.139
		c1.843,0,3.341,0.352,4.492,1.055c1.141,0.703,1.712,1.797,1.712,3.281v9.039c0,0.273,0.057,0.493,0.168,0.658
		c0.113,0.166,0.35,0.249,0.711,0.249c0.117,0,0.249-0.008,0.396-0.021c0.146-0.016,0.303-0.037,0.469-0.066v1.948
		c-0.41,0.117-0.723,0.19-0.938,0.22s-0.508,0.044-0.879,0.044c-0.908,0-1.567-0.322-1.978-0.967
		c-0.215-0.342-0.366-0.825-0.454-1.45c-0.537,0.703-1.309,1.313-2.314,1.831s-2.114,0.776-3.325,0.776
		c-1.455,0-2.644-0.441-3.567-1.324s-1.384-1.987-1.384-3.313c0-1.453,0.454-2.58,1.362-3.38s2.1-1.292,3.574-1.478L102.004,35.173z
		 M96.452,42.296c0.557,0.438,1.216,0.657,1.978,0.657c0.928,0,1.826-0.215,2.695-0.644c1.465-0.712,2.197-1.877,2.197-3.495v-2.121
		c-0.322,0.206-0.736,0.378-1.243,0.515c-0.507,0.138-1.004,0.235-1.491,0.293l-1.593,0.205c-0.955,0.127-1.673,0.327-2.155,0.6
		c-0.815,0.458-1.223,1.188-1.223,2.192C95.617,41.258,95.896,41.857,96.452,42.296z"/>
	<path fill="#FFFFFF" d="M120.645,29.813c1.107,0.859,1.774,2.339,1.999,4.438h-2.563c-0.156-0.967-0.513-1.77-1.069-2.409
		s-1.45-0.96-2.681-0.96c-1.68,0-2.881,0.819-3.604,2.458c-0.469,1.063-0.703,2.375-0.703,3.936c0,1.57,0.332,2.892,0.996,3.965
		s1.709,1.609,3.135,1.609c1.094,0,1.961-0.333,2.6-1c0.641-0.666,1.082-1.578,1.326-2.735h2.563
		c-0.293,2.08-1.025,3.602-2.197,4.563s-2.671,1.442-4.497,1.442c-2.051,0-3.687-0.749-4.907-2.249
		c-1.221-1.498-1.831-3.371-1.831-5.617c0-2.754,0.669-4.897,2.007-6.431s3.042-2.3,5.112-2.3
		C118.098,28.524,119.535,28.954,120.645,29.813z"/>
	<path fill="#FFFFFF" d="M125.222,23.148h2.534v12.494l6.762-6.664h3.367l-6.029,5.833l6.368,9.855h-3.368l-4.935-7.983
		l-2.165,2.095v5.889h-2.534V23.148z"/>
</g>
</svg>
