<?xml version="1.0" encoding="utf-8"?>
<!-- Generator: Adobe Illustrator 23.0.3, SVG Export Plug-In . SVG Version: 6.00 Build 0)  -->
<svg version="1.1" id="Layer_1" xmlns="http://www.w3.org/2000/svg" xmlns:xlink="http://www.w3.org/1999/xlink" x="0px" y="0px"
	 viewBox="0 0 210 79" style="enable-background:new 0 0 210 79;" xml:space="preserve">
<style type="text/css">
	.st0{fill:#964A03;}
	.st1{fill:#E57102;}
	.st2{clip-path:url(#SVGID_2_);fill:#C85E1C;}
	.st3{fill:#FFFFFF;}
</style>
<g>
	<path class="st0" d="M210,69c0,5.5-4.5,10-10,10H10C4.5,79,0,74.5,0,69V19C0,13.5,4.5,9,10,9h190c5.5,0,10,4.5,10,10V69z"/>
	<path class="st1" d="M210,60c0,5.5-4.5,10-10,10H10C4.5,70,0,65.5,0,60V10C0,4.5,4.5,0,10,0h190c5.5,0,10,4.5,10,10V60z"/>
	<g>
		<g>
			<g>
				<g>
					<defs>
						<path id="SVGID_1_" d="M210,60c0,5.5-4.5,10-10,10H10C4.5,70,0,65.5,0,60V10C0,4.5,4.5,0,10,0h190c5.5,0,10,4.5,10,10V60z"/>
					</defs>
					<clipPath id="SVGID_2_">
						<use xlink:href="#SVGID_1_"  style="overflow:visible;"/>
					</clipPath>
					<polygon class="st2" points="209,2.4 3,70 215.8,70 					"/>
				</g>
			</g>
		</g>
	</g>
</g>
<g>
	<path class="st3" d="M90.7,53.5c-8.2,0-15.8-6.3-15.8-16.4c0-10.1,7.6-16.4,15.8-16.4h0.1c8.2,0,15.8,6.3,15.8,16.4
		c0,10.1-7.6,16.4-15.8,16.4H90.7z M90.7,47.9h0.1c6,0,9.8-4.1,9.8-10.8c0-6.7-3.7-10.8-9.8-10.8h-0.1c-6,0-9.8,4.1-9.8,10.8
		C80.9,43.7,84.6,47.9,90.7,47.9z"/>
	<path class="st3" d="M128.6,53c-0.6,0-0.8-0.1-1.1-0.5l-6.7-10.7c-1.1,0.8-2.7,1.9-4,2.5V53h-5.4V19h5.4v20.4l12.7-10.4l3,3.5
		l-7.7,6.3l9.3,14.3H128.6z"/>
</g>
</svg>
