<?xml version="1.0" encoding="utf-8"?>
<!-- Generator: Adobe Illustrator 23.0.3, SVG Export Plug-In . SVG Version: 6.00 Build 0)  -->
<svg version="1.1" id="Layer_1" xmlns="http://www.w3.org/2000/svg" xmlns:xlink="http://www.w3.org/1999/xlink" x="0px" y="0px"
	 viewBox="0 0 210 79" style="enable-background:new 0 0 210 79;" xml:space="preserve">
<style type="text/css">
	.st0{fill:#964A03;}
	.st1{fill:#E57102;}
	.st2{clip-path:url(#SVGID_2_);fill:#C85E1C;}
	.st3{fill:#FFFFFF;}
</style>
<g>
	<path class="st0" d="M210,69c0,5.5-4.5,10-10,10H10C4.5,79,0,74.5,0,69V19C0,13.5,4.5,9,10,9h190c5.5,0,10,4.5,10,10V69z"/>
	<path class="st1" d="M210,60c0,5.5-4.5,10-10,10H10C4.5,70,0,65.5,0,60V10C0,4.5,4.5,0,10,0h190c5.5,0,10,4.5,10,10V60z"/>
	<g>
		<g>
			<g>
				<g>
					<defs>
						<path id="SVGID_1_" d="M210,60c0,5.5-4.5,10-10,10H10C4.5,70,0,65.5,0,60V10C0,4.5,4.5,0,10,0h190c5.5,0,10,4.5,10,10V60z"/>
					</defs>
					<clipPath id="SVGID_2_">
						<use xlink:href="#SVGID_1_"  style="overflow:visible;"/>
					</clipPath>
					<polygon class="st2" points="209,2.4 3,70 215.8,70 					"/>
				</g>
			</g>
		</g>
	</g>
</g>
<g>
	<path class="st3" d="M49.5,45.6c-2.9,3.5-7.8,5.9-12.5,5.9h-0.1c-7.9,0-13.3-6.1-13.3-14.4c0-8.9,6.2-14.4,13.4-14.4
		c5.8,0,9.9,3.1,11.8,8.3l-3.4,2.1l-3-2.9c-1.8-1.7-3.3-2.6-5.7-2.6c-4.2,0-7.8,2.9-7.8,9.5c0,5.7,2.8,9.5,8.6,9.5
		c1.9,0,3.9-0.5,6-1.6l4-2.1L49.5,45.6z"/>
	<path class="st3" d="M65.6,37.8c0-1.1-0.3-1.8-0.8-2.3c-0.6-0.6-1.6-0.9-3-0.9c-1.5,0-3.2,0.3-5,0.9l-2.1,0.7l-1.4-2.6
		c2.6-1.9,5.8-3.2,8.8-3.2c2.7,0,5,0.8,6.4,2.4c1.1,1.2,1.8,2.8,1.8,5.3v9.4l2.7,0.5v2.6c-0.9,0.5-2.5,0.8-3.5,0.8
		c-1.5,0-2.6-0.8-3.4-1.9l-1,0.5c-2,1.1-3.8,1.6-5.5,1.6c-4.4,0-7.5-3.2-7.5-7c0-3.5,2.6-5.7,7.2-5.7h0.3c1.7,0,4.3,0.3,5.9,0.6
		V37.8z M65.6,42.8c0-0.3-0.1-0.4-0.5-0.4h-6.4c-0.7,0-1.1,0.2-1.4,0.5c-0.3,0.3-0.4,0.8-0.4,1.4c0,1.7,1.2,3,3.7,3
		c1.3,0,3.1-0.3,4.6-1c0.5-0.2,0.5-0.4,0.5-0.7V42.8z"/>
	<path class="st3" d="M79.9,30.6l0.7,1.7l1.2-0.7c1.7-0.9,3.5-1.4,4.9-1.4h0c2.6,0,4.8,0.9,6.2,2.4c1.3,1.4,2,3.1,2,5.4v13.1h-4.8
		V38.3c0-1.3-0.3-2.2-0.9-2.7c-0.7-0.6-1.9-0.8-3.2-0.8H86c-1.6,0-3.4,0.3-4.5,0.8c-0.3,0.1-0.4,0.3-0.4,0.7v14.9h-4.8V30.6H79.9z"
		/>
	<path class="st3" d="M117.9,47.5c-2.4,2.2-6,3.9-9.1,3.9h-0.1c-6.2,0-10-4.3-10-10.7c0-6.3,4.4-10.5,9.9-10.5c4.4,0,8,2.9,9.1,6.7
		l-3,1.6l-1.9-1.6c-1.8-1.6-2.8-2.4-4.5-2.4c-2.6,0-4.6,2.1-4.6,6.3c0,4.5,1.8,6.5,5.7,6.5c1.3,0,2.9-0.5,4.8-1.2l2.3-1L117.9,47.5z
		"/>
	<path class="st3" d="M139.7,47.9c-2.5,2.1-5.9,3.5-9.1,3.5h-0.1c-6.3,0-10.2-4.7-10.2-10.6c0-6.4,4.5-10.6,10-10.6h0.1
		c5.8,0,9.9,4.4,9.9,9.9c0,0.5,0,1.2-0.2,1.7c-0.1,0.5-0.3,0.5-0.8,0.5h-14.2c0.3,2.9,2,4.9,5.9,4.9c1.7,0,3.6-0.6,4.8-1.1l2.4-0.9
		L139.7,47.9z M135.4,38.9c-0.2-2.5-1.8-4.5-5.1-4.5h0c-3.2,0-4.9,1.9-5.1,4.5H135.4z"/>
	<path class="st3" d="M152.6,50.4c-1,0.4-2.9,0.8-4,0.8c-1.3,0-2.3-0.4-3-1.1c-0.8-0.8-1.2-1.8-1.2-3.3V21.2h4.8v26l3.5,0.6V50.4z"
		/>
	<path class="st3" d="M168.1,37.8c0-1.1-0.3-1.8-0.8-2.3c-0.6-0.6-1.6-0.9-3-0.9c-1.5,0-3.2,0.3-5,0.9l-2.1,0.7l-1.4-2.6
		c2.6-1.9,5.8-3.2,8.8-3.2c2.7,0,5,0.8,6.4,2.4c1.1,1.2,1.8,2.8,1.8,5.3v9.4l2.7,0.5v2.6c-0.9,0.5-2.5,0.8-3.5,0.8
		c-1.5,0-2.6-0.8-3.4-1.9l-1,0.5c-2,1.1-3.8,1.6-5.5,1.6c-4.4,0-7.5-3.2-7.5-7c0-3.5,2.6-5.7,7.2-5.7h0.3c1.7,0,4.3,0.3,5.9,0.6
		V37.8z M168.1,42.8c0-0.3-0.1-0.4-0.5-0.4h-6.4c-0.7,0-1.1,0.2-1.4,0.5c-0.3,0.3-0.4,0.8-0.4,1.4c0,1.7,1.2,3,3.7,3
		c1.3,0,3.1-0.3,4.6-1c0.5-0.2,0.5-0.4,0.5-0.7V42.8z"/>
	<path class="st3" d="M183.1,32.9c2.7-1.9,4.7-2.7,6.1-2.7c0.8,0,1.7,0.3,2.5,0.6V34c-2.6,0.4-5.5,1.1-7.8,1.9
		c-0.4,0.1-0.5,0.3-0.5,0.7v14.6h-4.8V30.6h3.5L183.1,32.9z"/>
</g>
</svg>
