<?xml version="1.0" encoding="utf-8"?>
<!-- Generator: Adobe Illustrator 23.0.3, SVG Export Plug-In . SVG Version: 6.00 Build 0)  -->
<svg version="1.1" id="Layer_1" xmlns="http://www.w3.org/2000/svg" xmlns:xlink="http://www.w3.org/1999/xlink" x="0px" y="0px"
	 viewBox="0 0 59.8 66" style="enable-background:new 0 0 59.8 66;" xml:space="preserve">
<style type="text/css">
	.st0{fill:#964A03;}
	.st1{fill:#E57102;}
	.st2{fill:#C85E1C;}
	.st3{fill:none;stroke:#FFFFFF;stroke-width:2;stroke-linecap:round;stroke-linejoin:round;stroke-miterlimit:10;}
	.st4{fill:#FFFFFF;}
</style>
<g id="XMLID_12_">
	<circle id="XMLID_23_" class="st0" cx="29.9" cy="36.1" r="29.9"/>
	<circle id="XMLID_20_" class="st1" cx="29.9" cy="29.9" r="29.9"/>
	<path id="XMLID_14_" class="st2" d="M51,51c11.7-11.7,11.7-30.6,0-42.3L8.8,51C20.4,62.7,39.4,62.7,51,51z"/>
</g>
<g>
	<g>
		<g>
			<g>
				<path class="st3" d="M25.3,29.7c-3.1,0-8.5-4.3-8.8-7.9c-0.2-2.8,1.1-4.3,4.1-2.9"/>
				<ellipse class="st4" cx="23" cy="30.3" rx="1" ry="1"/>
			</g>
			<g>
				<path class="st3" d="M34.5,29.7c3.1,0,8.5-4.3,8.8-7.9c0.2-2.8-1.1-4.3-4.1-2.9"/>
				<ellipse class="st4" cx="36.8" cy="30.3" rx="1" ry="1"/>
			</g>
		</g>
		<path class="st4" d="M40.2,15.6c0,9-4.4,18.1-10.3,18.1s-10.3-9.1-10.3-18.1"/>
		<path class="st4" d="M40.9,15.4c0,0.4-0.3,0.7-0.7,0.7H19.6c-0.4,0-0.7-0.3-0.7-0.7l0,0c0-0.4,0.3-0.7,0.7-0.7h20.5
			C40.6,14.6,40.9,15,40.9,15.4L40.9,15.4z"/>
		<g>
			<rect x="28.6" y="33" class="st4" width="2.7" height="8"/>
			<path class="st4" d="M31.9,34.2c0,0.3-0.3,0.5-0.7,0.5h-2.7c-0.4,0-0.7-0.2-0.7-0.5v-0.1c0-0.3,0.3-0.5,0.7-0.5h2.7
				c0.4,0,0.7,0.2,0.7,0.5V34.2z"/>
			<path class="st4" d="M31.9,40.1c0,0.3-0.3,0.5-0.7,0.5h-2.7c-0.4,0-0.7-0.2-0.7-0.5v-0.1c0-0.3,0.3-0.5,0.7-0.5h2.7
				c0.4,0,0.7,0.2,0.7,0.5V40.1z"/>
		</g>
		<g>
			<path class="st4" d="M33.2,42.4c0,0.3-0.2,0.5-0.5,0.5h-5.7c-0.3,0-0.5-0.2-0.5-0.5V41c0-0.3,0.2-0.5,0.5-0.5h5.7
				c0.3,0,0.5,0.2,0.5,0.5V42.4z"/>
			<path class="st4" d="M35,44.4c0,0.3-0.2,0.5-0.5,0.5h-9.3c-0.3,0-0.5-0.2-0.5-0.5v-1.9c0-0.3,0.2-0.5,0.5-0.5h9.3
				c0.3,0,0.5,0.2,0.5,0.5V44.4z"/>
			<path class="st4" d="M37.3,46.9c0,0.3-0.2,0.5-0.5,0.5H23c-0.3,0-0.5-0.2-0.5-0.5v-2c0-0.3,0.2-0.5,0.5-0.5h13.8
				c0.3,0,0.5,0.2,0.5,0.5V46.9z"/>
		</g>
	</g>
</g>
</svg>
