<?xml version="1.0" encoding="utf-8"?>
<!-- Generator: Adobe Illustrator 22.0.1, SVG Export Plug-In . SVG Version: 6.00 Build 0)  -->
<svg version="1.1" id="Layer_1" xmlns="http://www.w3.org/2000/svg" xmlns:xlink="http://www.w3.org/1999/xlink" x="0px" y="0px"
	 viewBox="0 0 59.8 66" style="enable-background:new 0 0 59.8 66;" xml:space="preserve">
<style type="text/css">
	.st0{fill:#135C2F;}
	.st1{fill:#19A34A;}
	.st2{fill:#137B3E;}
	.st3{fill:#FFFFFF;}
</style>
<g id="XMLID_15_">
	<g id="XMLID_16_">
		<path id="XMLID_21_" class="st0" d="M59.9,36.6c0,16.5-13.4,29.9-29.9,29.9S0.1,53.1,0.1,36.6C0.1,20.1,13.5,6.7,30,6.7
			S59.9,20.1,59.9,36.6z"/>
		<path id="XMLID_19_" class="st1" d="M51.1,9.3c11.7,11.7,11.7,30.6,0,42.3s-30.6,11.7-42.3,0C-2.8,39.9-2.8,21,8.9,9.3
			C20.5-2.4,39.5-2.4,51.1,9.3z"/>
		<path id="XMLID_17_" class="st2" d="M51.1,51.6c11.7-11.7,11.7-30.6,0-42.3L8.9,51.6C20.5,63.2,39.5,63.2,51.1,51.6z"/>
	</g>
	<path class="st3" d="M27,25.3c0.5,0.9,1.1,2.5,1.1,2.7c0,0.4-1,1.4-1,1.6c0,1.4,3.5,4.1,4.2,4.1c0.9,0,1-1.4,1.9-1.4
		c0.2,0,2.7,1.1,2.7,1.6c0,1.5-1.5,2.4-2.7,2.4c-2.4,0-6.3-2.7-7.7-5.2c-0.2-0.6-0.9-1.5-0.9-2.1c0-0.4-0.2-0.7-0.2-1.1
		c0-0.7,0.2-2.7,2-2.7C26.6,25.2,26.9,25.2,27,25.3z M39.6,30.7c0,3.3-2,7.4-6.3,9.1c-1,0.4-3.1,0.7-3.3,0.7c-2.4,0-5.2-1.7-5.3-1.7
		c-0.2,0-2.2,0.7-3.6,1.1l1.1-3.3c-1.5-2.9-1.7-3.5-1.7-5.7c0-5.5,4.3-9.7,9.5-9.7C35.5,21.1,39.6,25.8,39.6,30.7z M41.5,30.7
		c0,0.4-0.1,1.2-0.1,1.6c0,0.9-1.5,4.3-2.1,5.1c-0.9,1-2.5,2.5-3.5,3.1s-2.2,1.1-3.1,1.2s-2.4,0.5-2.7,0.5c-0.2,0-1.9-0.2-2.7-0.5
		c-0.9-0.1-2.5-1-2.9-1c-0.2,0-4.1,1.4-6.1,2c0.6-2,1.9-5.6,1.9-6c0-0.2-0.6-1.1-0.9-1.7c-0.5-1.2-0.7-3-0.7-4.3
		c0-6.6,5.1-11.3,11.4-11.3C36.4,19.4,41.5,24.5,41.5,30.7z"/>
</g>
</svg>
