<?xml version="1.0" encoding="utf-8"?>
<!-- Generator: Adobe Illustrator 23.0.3, SVG Export Plug-In . SVG Version: 6.00 Build 0)  -->
<svg version="1.1" id="Layer_1" xmlns="http://www.w3.org/2000/svg" xmlns:xlink="http://www.w3.org/1999/xlink" x="0px" y="0px"
	 viewBox="0 0 210 79" style="enable-background:new 0 0 210 79;" xml:space="preserve">
<style type="text/css">
	.st0{fill:#964A03;}
	.st1{fill:#E57102;}
	.st2{clip-path:url(#SVGID_2_);fill:#C85E1C;}
	.st3{fill:#FFFFFF;}
</style>
<g>
	<path class="st0" d="M210,69c0,5.5-4.5,10-10,10H10C4.5,79,0,74.5,0,69V19C0,13.5,4.5,9,10,9h190c5.5,0,10,4.5,10,10V69z"/>
	<path class="st1" d="M210,60c0,5.5-4.5,10-10,10H10C4.5,70,0,65.5,0,60V10C0,4.5,4.5,0,10,0h190c5.5,0,10,4.5,10,10V60z"/>
	<g>
		<g>
			<g>
				<g>
					<defs>
						<path id="SVGID_1_" d="M210,60c0,5.5-4.5,10-10,10H10C4.5,70,0,65.5,0,60V10C0,4.5,4.5,0,10,0h190c5.5,0,10,4.5,10,10V60z"/>
					</defs>
					<clipPath id="SVGID_2_">
						<use xlink:href="#SVGID_1_"  style="overflow:visible;"/>
					</clipPath>
					<polygon class="st2" points="209,2.4 3,70 215.8,70 					"/>
				</g>
			</g>
		</g>
	</g>
</g>
<g>
	<path class="st3" d="M70.3,19.5L58.5,51.3h-6.1c-0.5,0-0.8-0.2-1-0.7l-12-31.2h5.6c0.3,0,0.5,0,0.6,0.4l5.7,14.7
		c1.4,3.6,3.1,9.2,3.7,11.6h0.1c0.7-2.3,2.3-7.8,3.6-11.3l5.5-15c0.1-0.4,0.3-0.4,0.6-0.4H70.3z"/>
	<path class="st3" d="M81.4,51.7h-0.2c-6,0-11.7-4.2-11.7-12.1c0-7.9,5.7-12.1,11.7-12.1h0.2c6,0,11.7,4.2,11.7,12.1
		C93.1,47.5,87.4,51.7,81.4,51.7z M81.4,32.6h-0.2c-4.3,0-6.1,2.7-6.1,7c0,4.3,1.8,7,6.1,7h0.2c4.3,0,6.1-2.7,6.1-7
		C87.5,35.3,85.7,32.6,81.4,32.6z"/>
	<path class="st3" d="M107.1,50.4c-1.1,0.5-3.3,1-4.6,1c-1.4,0-2.6-0.5-3.5-1.2c-0.9-0.9-1.4-2.1-1.4-3.7V17.3h5.4v29.6l4,0.7V50.4z
		"/>
	<path class="st3" d="M125.7,28.4c0.2-0.5,0.3-0.6,0.8-0.6h4.9l-9.4,23.4h-4.7c-0.5,0-0.7-0.2-0.9-0.5l-9.6-22.9h5.1
		c0.5,0,0.6,0,0.8,0.6l4.3,10.3c0.9,2.3,1.9,5,2.4,6.7h0c0.4-1.7,1.4-4.5,2.3-6.7L125.7,28.4z"/>
	<path class="st3" d="M154.5,47.6c-2.8,2.4-6.7,4-10.4,4H144c-7.2,0-11.7-5.3-11.7-12.1c0-7.3,5.2-12.1,11.4-12.1h0.1
		c6.6,0,11.2,5,11.2,11.2c0,0.5,0,1.4-0.2,2c-0.1,0.5-0.4,0.6-0.9,0.6h-16.1c0.3,3.3,2.3,5.6,6.7,5.6c1.9,0,4.1-0.7,5.5-1.2l2.7-1.1
		L154.5,47.6z M149.6,37.3c-0.2-2.8-2.1-5.1-5.8-5.1h0c-3.7,0-5.6,2.2-5.9,5.1H149.6z"/>
	<path class="st3" d="M164.7,30.5c3.1-2.1,5.3-3.1,6.9-3.1c0.9,0,2,0.3,2.9,0.7v3.6c-2.9,0.5-6.2,1.2-8.8,2.1
		c-0.4,0.1-0.5,0.3-0.5,0.8v16.6h-5.4V27.9h4L164.7,30.5z"/>
</g>
</svg>
