<?xml version="1.0" encoding="utf-8"?>
<!-- Generator: Adobe Illustrator 23.0.3, SVG Export Plug-In . SVG Version: 6.00 Build 0)  -->
<svg version="1.1" id="Layer_1" xmlns="http://www.w3.org/2000/svg" xmlns:xlink="http://www.w3.org/1999/xlink" x="0px" y="0px"
	 viewBox="0 0 210 79" style="enable-background:new 0 0 210 79;" xml:space="preserve">
<style type="text/css">
	.st0{fill:#964A03;}
	.st1{fill:#E57102;}
	.st2{clip-path:url(#SVGID_2_);fill:#C85E1C;}
	.st3{fill:#FFFFFF;}
</style>
<g>
	<path class="st0" d="M210,69c0,5.5-4.5,10-10,10H10C4.5,79,0,74.5,0,69V19C0,13.5,4.5,9,10,9h190c5.5,0,10,4.5,10,10V69z"/>
	<path class="st1" d="M210,60c0,5.5-4.5,10-10,10H10C4.5,70,0,65.5,0,60V10C0,4.5,4.5,0,10,0h190c5.5,0,10,4.5,10,10V60z"/>
	<g>
		<g>
			<g>
				<g>
					<defs>
						<path id="SVGID_1_" d="M210,60c0,5.5-4.5,10-10,10H10C4.5,70,0,65.5,0,60V10C0,4.5,4.5,0,10,0h190c5.5,0,10,4.5,10,10V60z"/>
					</defs>
					<clipPath id="SVGID_2_">
						<use xlink:href="#SVGID_1_"  style="overflow:visible;"/>
					</clipPath>
					<polygon class="st2" points="209,2.4 3,70 215.8,70 					"/>
				</g>
			</g>
		</g>
	</g>
</g>
<g>
	<path class="st3" d="M48.6,29.9c-2-1.6-3.5-2.3-5.9-2.3c-4.7,0-8,3.5-8,9.6c0,5.8,3.1,9.5,8.5,9.5c2.4,0,5-0.5,7.4-1.6
		c0.5-0.3,0.5-0.5,0.5-1v-3.5h-5v-4h9.1c0.4,0,0.7,0,0.7,0.5v14h-3.7l-0.7-2.6l-2.2,1.2C47,51,45,51.5,42.5,51.5
		c-7.8,0-13.2-6-13.2-14.4c0-8.9,6.4-14.4,13.6-14.4c5.4,0,9.7,2.5,11.9,7.3l-3.3,2.2L48.6,29.9z"/>
	<path class="st3" d="M76.4,51.1l-0.7-1.7l-1.2,0.6c-1.8,0.9-3.4,1.4-4.8,1.4h0c-2.6,0-4.8-0.9-6.2-2.4c-1.3-1.4-2-3.1-2-5.4V30.6
		h4.8v12.8c0,1.3,0.3,2.2,0.9,2.7c0.7,0.6,1.9,0.8,3.2,0.8h0.1c1.6,0,3.3-0.3,4.4-0.8c0.3-0.1,0.4-0.3,0.4-0.7V30.6h4.8v20.5H76.4z"
		/>
	<path class="st3" d="M97.4,37.8c0-1.1-0.3-1.8-0.8-2.3c-0.6-0.6-1.6-0.9-3-0.9c-1.5,0-3.2,0.3-5,0.9l-2.1,0.7l-1.4-2.6
		c2.6-1.9,5.8-3.2,8.8-3.2c2.7,0,5,0.8,6.4,2.4c1.1,1.2,1.8,2.8,1.8,5.3v9.3l2.7,0.5v2.6c-0.9,0.5-2.5,0.8-3.5,0.8
		c-1.5,0-2.6-0.8-3.4-1.9l-1,0.5c-2,1.1-3.8,1.6-5.5,1.6c-4.4,0-7.4-3.2-7.4-6.9c0-3.5,2.6-5.7,7.2-5.7h0.3c1.7,0,4.3,0.3,5.9,0.6
		V37.8z M97.4,42.8c0-0.3-0.1-0.4-0.5-0.4h-6.4c-0.7,0-1.1,0.2-1.4,0.5c-0.3,0.3-0.4,0.8-0.4,1.4c0,1.7,1.2,3,3.7,3
		c1.3,0,3.1-0.3,4.6-1c0.5-0.2,0.5-0.4,0.5-0.7V42.8z"/>
	<path class="st3" d="M112.5,32.9c2.7-1.9,4.7-2.7,6.1-2.7c0.8,0,1.7,0.3,2.5,0.6V34c-2.6,0.4-5.5,1.1-7.7,1.9
		c-0.4,0.1-0.5,0.3-0.5,0.7v14.6h-4.8V30.6h3.5L112.5,32.9z"/>
	<path class="st3" d="M137.2,21.3h4.8v29.8h-3.6l-0.7-1.9l-1.5,0.8c-1.6,0.8-3.2,1.4-4.9,1.4c-5.6,0-9.4-4.3-9.4-10.6
		c0-6,3.9-10.6,9.3-10.6c1.7,0,3.2,0.5,4.9,1.3l1.1,0.6V21.3z M137.2,36.4c0-0.3,0-0.5-0.5-0.7c-1.5-0.6-3.2-1-4.5-1h-0.1
		c-3.6,0-5.4,2.1-5.4,6.2c0,4,1.5,6.1,5.4,6.1h0.1c1.3,0,3.4-0.5,4.5-1.1c0.4-0.2,0.5-0.3,0.5-0.7V36.4z"/>
	<path class="st3" d="M159.4,37.8c0-1.1-0.3-1.8-0.8-2.3c-0.6-0.6-1.6-0.9-3-0.9c-1.5,0-3.2,0.3-5,0.9l-2.1,0.7l-1.4-2.6
		c2.6-1.9,5.8-3.2,8.8-3.2c2.7,0,5,0.8,6.4,2.4c1.1,1.2,1.8,2.8,1.8,5.3v9.3l2.7,0.5v2.6c-0.9,0.5-2.5,0.8-3.5,0.8
		c-1.5,0-2.6-0.8-3.4-1.9l-1,0.5c-2,1.1-3.8,1.6-5.5,1.6c-4.4,0-7.4-3.2-7.4-6.9c0-3.5,2.6-5.7,7.2-5.7h0.3c1.7,0,4.3,0.3,5.9,0.6
		V37.8z M159.4,42.8c0-0.3-0.1-0.4-0.5-0.4h-6.4c-0.7,0-1.1,0.2-1.4,0.5c-0.3,0.3-0.4,0.8-0.4,1.4c0,1.7,1.2,3,3.7,3
		c1.3,0,3.1-0.3,4.6-1c0.5-0.2,0.5-0.4,0.5-0.7V42.8z"/>
	<path class="st3" d="M174.5,32.9c2.7-1.9,4.7-2.7,6.1-2.7c0.8,0,1.7,0.3,2.5,0.6V34c-2.6,0.4-5.5,1.1-7.7,1.9
		c-0.4,0.1-0.5,0.3-0.5,0.7v14.6h-4.8V30.6h3.5L174.5,32.9z"/>
</g>
</svg>
