<?xml version="1.0" encoding="utf-8"?>
<!-- Generator: Adobe Illustrator 23.0.3, SVG Export Plug-In . SVG Version: 6.00 Build 0)  -->
<svg version="1.1" id="Layer_1" xmlns="http://www.w3.org/2000/svg" xmlns:xlink="http://www.w3.org/1999/xlink" x="0px" y="0px"
	 viewBox="0 0 210 79" style="enable-background:new 0 0 210 79;" xml:space="preserve">
<style type="text/css">
	.st0{fill:#964A03;}
	.st1{fill:#E57102;}
	.st2{clip-path:url(#SVGID_2_);fill:#C85E1C;}
	.st3{fill:#FFFFFF;}
</style>
<g>
	<path class="st0" d="M210,69c0,5.5-4.5,10-10,10H10C4.5,79,0,74.5,0,69V19C0,13.5,4.5,9,10,9h190c5.5,0,10,4.5,10,10V69z"/>
	<path class="st1" d="M210,60c0,5.5-4.5,10-10,10H10C4.5,70,0,65.5,0,60V10C0,4.5,4.5,0,10,0h190c5.5,0,10,4.5,10,10V60z"/>
	<g>
		<g>
			<g>
				<defs>
					<path id="SVGID_1_" d="M210,60c0,5.5-4.5,10-10,10H10C4.5,70,0,65.5,0,60V10C0,4.5,4.5,0,10,0h190c5.5,0,10,4.5,10,10V60z"/>
				</defs>
				<clipPath id="SVGID_2_">
					<use xlink:href="#SVGID_1_"  style="overflow:visible;"/>
				</clipPath>
				<polygon class="st2" points="209,2.4 3,70 215.8,70 				"/>
			</g>
		</g>
	</g>
</g>
<g>
	<path class="st3" d="M72.2,38.1l5.1-12.8h6l-9,21.1h-4.3l-8.9-21.1h6L72.2,38.1z"/>
	<path class="st3" d="M98.8,39.2c0,4.9-4,7.6-8.7,7.6c-4.6,0-8.7-2.7-8.7-7.6c0-4.9,4-7.7,8.7-7.7C94.7,31.6,98.8,34.3,98.8,39.2z
		 M86.8,39.2c0,1.8,1.2,3.2,3.3,3.2c2.1,0,3.3-1.4,3.3-3.2c0-1.8-1.2-3.2-3.3-3.2C88,36,86.8,37.5,86.8,39.2z"/>
	<path class="st3" d="M106.2,46.4h-5.1V23.2h5.1V46.4z"/>
	<path class="st3" d="M116.6,39.4L120,32h5.7l-7.5,14.4h-3.2L107.4,32h5.7L116.6,39.4z"/>
	<path class="st3" d="M141.7,40.1H131c0,2.1,1.1,3.2,3.2,3.2c1.1,0,1.9-0.4,2.4-1.3h4.9c-0.4,1.7-1.4,2.9-2.7,3.7
		c-1.3,0.8-2.9,1.2-4.6,1.2c-4.8,0-8.3-2.7-8.3-7.6c0-4.8,3.3-7.7,8-7.7c5,0,7.9,3.1,7.9,8V40.1z M137,37.1
		c-0.3-1.4-1.5-2.3-2.9-2.3c-1.5,0-2.7,0.8-3,2.3H137z"/>
	<path class="st3" d="M149.1,34.4L149.1,34.4c1-1.8,2.7-2.5,4.7-2.5h1v4.9c-0.7-0.4-1.4-0.5-2.2-0.5c-2.8,0-3.5,1.9-3.5,4.3v5.8H144
		V32h5.1V34.4z"/>
</g>
</svg>
