<?xml version="1.0" encoding="utf-8"?>
<!-- Generator: Adobe Illustrator 23.0.3, SVG Export Plug-In . SVG Version: 6.00 Build 0)  -->
<svg version="1.1" id="Layer_1" xmlns="http://www.w3.org/2000/svg" xmlns:xlink="http://www.w3.org/1999/xlink" x="0px" y="0px"
	 viewBox="0 0 210 79" style="enable-background:new 0 0 210 79;" xml:space="preserve">
<style type="text/css">
	.st0{fill:#964A03;}
	.st1{fill:#E57102;}
	.st2{clip-path:url(#SVGID_2_);fill:#C85E1C;}
	.st3{fill:#FCFCFC;}
</style>
<g>
	<path class="st0" d="M210,69c0,5.5-4.5,10-10,10H10C4.5,79,0,74.5,0,69V19C0,13.5,4.5,9,10,9h190c5.5,0,10,4.5,10,10V69z"/>
	<path class="st1" d="M210,60c0,5.5-4.5,10-10,10H10C4.5,70,0,65.5,0,60V10C0,4.5,4.5,0,10,0h190c5.5,0,10,4.5,10,10V60z"/>
	<g>
		<g>
			<g>
				<defs>
					<path id="SVGID_1_" d="M210,60c0,5.5-4.5,10-10,10H10C4.5,70,0,65.5,0,60V10C0,4.5,4.5,0,10,0h190c5.5,0,10,4.5,10,10V60z"/>
				</defs>
				<clipPath id="SVGID_2_">
					<use xlink:href="#SVGID_1_"  style="overflow:visible;"/>
				</clipPath>
				<polygon class="st2" points="209,2.4 3,70 215.8,70 				"/>
			</g>
		</g>
	</g>
</g>
<g>
	<path class="st3" d="M59,32.4c-1.1-1.5-2.9-2.3-4.8-2.3c-3.4,0-5.6,2.6-5.6,5.9c0,3.3,2.3,5.7,5.7,5.7c1.8,0,3.6-0.9,4.7-2.2V46
		c-1.8,0.6-3.1,1-4.8,1c-2.9,0-5.7-1.1-7.9-3.1c-2.3-2.1-3.4-4.8-3.4-8c0-2.9,1.1-5.7,3.1-7.7c2.1-2.1,5.1-3.4,8-3.4
		c1.8,0,3.4,0.4,5,1.1V32.4z"/>
	<path class="st3" d="M77.9,46.4h-5.1v-1.6h-0.1c-0.9,1.4-2.7,2.1-4.3,2.1c-4.3,0-7.3-3.6-7.3-7.7s2.9-7.6,7.2-7.6
		c1.7,0,3.4,0.6,4.5,1.9v-1.4h5.1V46.4z M66.5,39.3c0,1.8,1.2,3.2,3.3,3.2c2.1,0,3.3-1.4,3.3-3.2c0-1.8-1.2-3.2-3.3-3.2
		C67.7,36,66.5,37.5,66.5,39.3z"/>
	<path class="st3" d="M86.4,33.9L86.4,33.9c1.2-1.7,2.7-2.3,4.6-2.3c3.9,0,5.4,2.4,5.4,6v8.9h-5.1v-7c0-1.4,0.2-3.8-2.3-3.8
		c-2.1,0-2.7,1.5-2.7,3.3v7.4h-5.1V32.1h5.1V33.9z"/>
	<path class="st3" d="M110.2,36.7c-0.8-0.6-1.7-1-2.6-1c-2,0-3.5,1.5-3.5,3.5c0,2.1,1.5,3.5,3.6,3.5c0.9,0,1.9-0.4,2.5-1v4.3
		c-1.1,0.6-2.4,0.8-3.6,0.8c-4.3,0-7.8-3.2-7.8-7.5c0-4.6,3.5-7.8,8-7.8c1.2,0,2.4,0.3,3.4,0.8V36.7z"/>
	<path class="st3" d="M128.1,40.1h-10.7c0,2.1,1.1,3.2,3.2,3.2c1.1,0,1.9-0.4,2.4-1.3h4.9c-0.4,1.7-1.4,2.9-2.7,3.7
		c-1.3,0.8-2.9,1.2-4.6,1.2c-4.8,0-8.3-2.7-8.3-7.6c0-4.8,3.3-7.7,8-7.7c5,0,7.9,3.1,7.9,8V40.1z M123.4,37.2
		c-0.3-1.4-1.5-2.3-2.9-2.3c-1.5,0-2.7,0.8-3,2.3H123.4z"/>
	<path class="st3" d="M135.5,46.4h-5.1V23.2h5.1V46.4z"/>
	<path class="st3" d="M154.6,46.4h-5.1v-1.6h-0.1c-0.9,1.4-2.7,2.1-4.3,2.1c-4.3,0-7.3-3.6-7.3-7.7s2.9-7.6,7.2-7.6
		c1.7,0,3.4,0.6,4.5,1.9v-1.4h5.1V46.4z M143.1,39.3c0,1.8,1.2,3.2,3.3,3.2c2.1,0,3.3-1.4,3.3-3.2c0-1.8-1.2-3.2-3.3-3.2
		C144.3,36,143.1,37.5,143.1,39.3z"/>
	<path class="st3" d="M163.1,34.4L163.1,34.4c1-1.8,2.7-2.5,4.7-2.5h1v4.9c-0.7-0.4-1.4-0.5-2.2-0.5c-2.8,0-3.5,1.9-3.5,4.3v5.8H158
		V32.1h5.1V34.4z"/>
</g>
</svg>
