<?xml version="1.0" encoding="utf-8"?>
<!-- Generator: Adobe Illustrator 16.0.0, SVG Export Plug-In . SVG Version: 6.00 Build 0)  -->
<!DOCTYPE svg PUBLIC "-//W3C//DTD SVG 1.1//EN" "http://www.w3.org/Graphics/SVG/1.1/DTD/svg11.dtd">
<svg version="1.1" id="Layer_1" xmlns="http://www.w3.org/2000/svg" xmlns:xlink="http://www.w3.org/1999/xlink" x="0px" y="0px"
	 width="210px" height="79px" viewBox="0 0 210 79" enable-background="new 0 0 210 79" xml:space="preserve">
<g>
	<path fill="#3F387B" d="M210,69c0,5.523-4.479,10-10,10H10C4.478,79,0,74.523,0,69V19C0,13.477,4.478,9,10,9h190
		c5.521,0,10,4.477,10,10V69z"/>
	<path fill="#685FAA" d="M210,60c0,5.523-4.479,10-10,10H10C4.478,70,0,65.523,0,60V10C0,4.477,4.478,0,10,0h190
		c5.521,0,10,4.477,10,10V60z"/>
	<g>
		<g>
			<defs>
				<path id="SVGID_1_" d="M210,60c0,5.523-4.479,10-10,10H10C4.478,70,0,65.523,0,60V10C0,4.477,4.478,0,10,0h190
					c5.521,0,10,4.477,10,10V60z"/>
			</defs>
			<clipPath id="SVGID_2_">
				<use xlink:href="#SVGID_1_"  overflow="visible"/>
			</clipPath>
			<polygon clip-path="url(#SVGID_2_)" fill="#524E9B" points="209,2.429 3,70 215.75,70 			"/>
		</g>
	</g>
</g>
<g>
	<path fill="#FFFFFF" d="M75.812,24.716c1.486,1.436,2.312,3.066,2.476,4.893h-2.842c-0.316-1.387-0.947-2.485-1.892-3.296
		c-0.945-0.811-2.271-1.216-3.978-1.216c-2.081,0-3.762,0.745-5.042,2.235c-1.28,1.491-1.92,3.775-1.92,6.854
		c0,2.521,0.578,4.566,1.734,6.136c1.156,1.568,2.88,2.353,5.173,2.353c2.111,0,3.718-0.825,4.821-2.476
		c0.585-0.869,1.021-2.012,1.31-3.428h2.842c-0.251,2.266-1.081,4.165-2.49,5.698c-1.689,1.846-3.968,2.769-6.835,2.769
		c-2.471,0-4.547-0.757-6.226-2.271c-2.21-2.004-3.316-5.097-3.316-9.279c0-3.176,0.83-5.779,2.49-7.812
		c1.795-2.208,4.271-3.312,7.427-3.312C72.236,22.562,74.326,23.28,75.812,24.716z"/>
	<path fill="#FFFFFF" d="M90.314,35.173c0.605-0.078,1.011-0.332,1.216-0.761c0.117-0.235,0.176-0.573,0.176-1.015
		c0-0.901-0.319-1.556-0.958-1.963c-0.639-0.407-1.552-0.61-2.741-0.61c-1.374,0-2.349,0.373-2.924,1.119
		c-0.321,0.412-0.531,1.025-0.628,1.84h-2.461c0.049-1.939,0.675-3.288,1.88-4.047s2.602-1.139,4.192-1.139
		c1.843,0,3.341,0.352,4.492,1.055c1.141,0.703,1.712,1.797,1.712,3.281v9.039c0,0.273,0.056,0.493,0.168,0.658
		c0.112,0.166,0.349,0.249,0.71,0.249c0.117,0,0.249-0.008,0.396-0.021c0.146-0.016,0.303-0.037,0.469-0.066v1.948
		c-0.41,0.117-0.723,0.19-0.938,0.22s-0.508,0.044-0.879,0.044c-0.908,0-1.567-0.322-1.978-0.967
		c-0.215-0.342-0.366-0.825-0.454-1.45c-0.537,0.703-1.309,1.313-2.314,1.831s-2.114,0.776-3.325,0.776
		c-1.455,0-2.644-0.441-3.567-1.324s-1.384-1.987-1.384-3.313c0-1.453,0.454-2.58,1.362-3.38s2.1-1.292,3.574-1.478L90.314,35.173z
		 M84.763,42.296c0.557,0.438,1.216,0.657,1.978,0.657c0.928,0,1.826-0.215,2.695-0.644c1.465-0.712,2.197-1.877,2.197-3.495v-2.121
		c-0.322,0.206-0.736,0.378-1.243,0.515c-0.507,0.138-1.004,0.235-1.491,0.293l-1.593,0.205c-0.955,0.127-1.673,0.327-2.155,0.6
		c-0.815,0.458-1.223,1.188-1.223,2.192C83.928,41.258,84.206,41.857,84.763,42.296z"/>
	<path fill="#FFFFFF" d="M98.591,28.979h2.505v2.227c0.742-0.918,1.528-1.577,2.358-1.978s1.753-0.601,2.769-0.601
		c2.227,0,3.73,0.776,4.512,2.329c0.43,0.85,0.645,2.065,0.645,3.647v10.063h-2.681v-9.888c0-0.957-0.142-1.729-0.425-2.314
		c-0.469-0.977-1.318-1.465-2.549-1.465c-0.625,0-1.138,0.063-1.538,0.19c-0.723,0.215-1.357,0.645-1.904,1.289
		c-0.439,0.518-0.725,1.053-0.857,1.604c-0.132,0.553-0.198,1.341-0.198,2.366v8.218h-2.637V28.979z"/>
	<path fill="#FFFFFF" d="M125.639,29.813c1.109,0.859,1.775,2.339,2,4.438h-2.563c-0.156-0.967-0.513-1.77-1.069-2.409
		s-1.45-0.96-2.681-0.96c-1.68,0-2.881,0.819-3.604,2.458c-0.469,1.063-0.703,2.375-0.703,3.936c0,1.57,0.332,2.892,0.996,3.965
		s1.709,1.609,3.135,1.609c1.094,0,1.96-0.333,2.601-1c0.639-0.666,1.081-1.578,1.325-2.735h2.563
		c-0.293,2.08-1.025,3.602-2.197,4.563s-2.671,1.442-4.497,1.442c-2.051,0-3.687-0.749-4.907-2.249
		c-1.221-1.498-1.831-3.371-1.831-5.617c0-2.754,0.669-4.897,2.007-6.431s3.042-2.3,5.112-2.3
		C123.093,28.524,124.531,28.954,125.639,29.813z"/>
	<path fill="#FFFFFF" d="M139.966,29.411c1.038,0.522,1.829,1.198,2.373,2.028c0.524,0.791,0.874,1.714,1.048,2.769
		c0.156,0.723,0.233,1.875,0.233,3.457h-11.411c0.049,1.597,0.422,2.877,1.119,3.842c0.697,0.964,1.777,1.446,3.241,1.446
		c1.366,0,2.456-0.456,3.271-1.368c0.455-0.53,0.777-1.144,0.968-1.84h2.593c-0.068,0.576-0.295,1.219-0.682,1.926
		c-0.385,0.709-0.816,1.287-1.291,1.736c-0.795,0.781-1.777,1.309-2.951,1.582c-0.629,0.156-1.342,0.234-2.137,0.234
		c-1.941,0-3.586-0.711-4.935-2.131c-1.349-1.422-2.023-3.411-2.023-5.97c0-2.52,0.679-4.565,2.038-6.138s3.135-2.358,5.328-2.358
		C137.855,28.627,138.928,28.889,139.966,29.411z M140.91,35.57c-0.106-1.143-0.354-2.056-0.74-2.739
		c-0.717-1.27-1.913-1.904-3.588-1.904c-1.201,0-2.209,0.438-3.021,1.311c-0.813,0.875-1.244,1.985-1.293,3.333H140.91z"/>
	<path fill="#FFFFFF" d="M147.033,23.148h2.637v21.519h-2.637V23.148z"/>
</g>
</svg>
