<?xml version="1.0" encoding="utf-8"?>
<!-- Generator: Adobe Illustrator 23.0.3, SVG Export Plug-In . SVG Version: 6.00 Build 0)  -->
<svg version="1.1" id="Layer_1" xmlns="http://www.w3.org/2000/svg" xmlns:xlink="http://www.w3.org/1999/xlink" x="0px" y="0px"
	 viewBox="0 0 210 79" style="enable-background:new 0 0 210 79;" xml:space="preserve">
<style type="text/css">
	.st0{fill:#964A03;}
	.st1{fill:#E57102;}
	.st2{clip-path:url(#SVGID_2_);fill:#C85E1C;}
	.st3{fill:#FFFFFF;}
</style>
<g>
	<path class="st0" d="M210,69c0,5.5-4.5,10-10,10H10C4.5,79,0,74.5,0,69V19C0,13.5,4.5,9,10,9h190c5.5,0,10,4.5,10,10V69z"/>
	<path class="st1" d="M210,60c0,5.5-4.5,10-10,10H10C4.5,70,0,65.5,0,60V10C0,4.5,4.5,0,10,0h190c5.5,0,10,4.5,10,10V60z"/>
	<g>
		<g>
			<g>
				<defs>
					<path id="SVGID_1_" d="M210,60c0,5.5-4.5,10-10,10H10C4.5,70,0,65.5,0,60V10C0,4.5,4.5,0,10,0h190c5.5,0,10,4.5,10,10V60z"/>
				</defs>
				<clipPath id="SVGID_2_">
					<use xlink:href="#SVGID_1_"  style="overflow:visible;"/>
				</clipPath>
				<polygon class="st2" points="209,2.4 3,70 215.8,70 				"/>
			</g>
		</g>
	</g>
</g>
<g>
	<path class="st3" d="M65.8,34.2c-0.1,3.1-0.3,5.7-2.2,8.3c-2.1,2.9-5.2,4.1-8.7,4.1c-6.6,0-11.3-4.5-11.3-11.1
		c0-6.9,4.6-11.4,11.5-11.4c4.3,0,7.7,2,9.5,5.9l-5.2,2.2c-0.8-2-2.4-3.4-4.6-3.4c-3.6,0-5.5,3.4-5.5,6.7c0,3.3,2,6.6,5.6,6.6
		c2.4,0,4.2-1.2,4.4-3.7H55v-4.3H65.8z"/>
	<path class="st3" d="M73.3,31.6v7.7c0,1.8,0.4,3.1,2.5,3.1c2.1,0,2.5-1.3,2.5-3.1v-7.7h5.1v8.7c0,4.7-3.3,6.2-7.6,6.2
		c-4.3,0-7.6-1.5-7.6-6.2v-8.7H73.3z"/>
	<path class="st3" d="M102.4,46h-5.1v-1.6h-0.1c-0.9,1.4-2.7,2.1-4.3,2.1c-4.3,0-7.3-3.6-7.3-7.7c0-4.1,2.9-7.6,7.2-7.6
		c1.7,0,3.4,0.6,4.5,1.9v-1.4h5.1V46z M90.9,38.8c0,1.8,1.2,3.2,3.3,3.2c2.1,0,3.3-1.4,3.3-3.2c0-1.8-1.2-3.2-3.3-3.2
		C92.1,35.6,90.9,37.1,90.9,38.8z"/>
	<path class="st3" d="M110.9,34L110.9,34c1-1.8,2.7-2.5,4.7-2.5h1v4.9c-0.7-0.4-1.4-0.5-2.2-0.5c-2.8,0-3.5,1.9-3.5,4.3V46h-5.1
		V31.6h5.1V34z"/>
	<path class="st3" d="M129.3,44.4L129.3,44.4c-1,1.4-2.7,2.1-4.4,2.1c-4.3,0-7.3-3.6-7.3-7.7c0-4.1,2.9-7.6,7.2-7.6
		c1.7,0,3.4,0.6,4.5,1.9V22.8h5.1V46h-5.1V44.4z M122.9,38.8c0,1.8,1.2,3.2,3.3,3.2s3.3-1.4,3.3-3.2c0-1.8-1.2-3.2-3.3-3.2
		S122.9,37.1,122.9,38.8z"/>
	<path class="st3" d="M153.3,46h-5.1v-1.6h-0.1c-0.9,1.4-2.7,2.1-4.3,2.1c-4.3,0-7.3-3.6-7.3-7.7c0-4.1,2.9-7.6,7.2-7.6
		c1.7,0,3.4,0.6,4.5,1.9v-1.4h5.1V46z M141.8,38.8c0,1.8,1.2,3.2,3.3,3.2c2.1,0,3.3-1.4,3.3-3.2c0-1.8-1.2-3.2-3.3-3.2
		C143,35.6,141.8,37.1,141.8,38.8z"/>
	<path class="st3" d="M161.8,34L161.8,34c1-1.8,2.7-2.5,4.7-2.5h1v4.9c-0.7-0.4-1.4-0.5-2.2-0.5c-2.8,0-3.5,1.9-3.5,4.3V46h-5.1
		V31.6h5.1V34z"/>
</g>
</svg>
