<?xml version="1.0" encoding="utf-8"?>
<!-- Generator: Adobe Illustrator 16.0.0, SVG Export Plug-In . SVG Version: 6.00 Build 0)  -->
<!DOCTYPE svg PUBLIC "-//W3C//DTD SVG 1.1//EN" "http://www.w3.org/Graphics/SVG/1.1/DTD/svg11.dtd">
<svg version="1.1" id="Layer_1" xmlns="http://www.w3.org/2000/svg" xmlns:xlink="http://www.w3.org/1999/xlink" x="0px" y="0px"
	 width="50px" height="55px" viewBox="0 0 50 55" enable-background="new 0 0 50 55" xml:space="preserve">
<path fill="#3F387B" d="M50,45c0,5.523-4.478,10-10,10H10C4.478,55,0,50.523,0,45V15C0,9.477,4.478,5,10,5h30
	c5.522,0,10,4.477,10,10V45z"/>
<path fill="#685FAA" d="M50,40c0,5.523-4.478,10-10,10H10C4.478,50,0,45.523,0,40V10C0,4.477,4.478,0,10,0h30
	c5.522,0,10,4.477,10,10V40z"/>
<g>
	<defs>
		<path id="SVGID_1_" d="M50,40c0,5.523-4.478,10-10,10H10C4.478,50,0,45.523,0,40V10C0,4.477,4.478,0,10,0h30
			c5.522,0,10,4.477,10,10V40z"/>
	</defs>
	<clipPath id="SVGID_2_">
		<use xlink:href="#SVGID_1_"  overflow="visible"/>
	</clipPath>
	<polygon clip-path="url(#SVGID_2_)" fill="#524E9B" points="49,2.429 3,50 55.75,50 	"/>
</g>
<path fill-rule="evenodd" clip-rule="evenodd" fill="#FFFFFF" d="M29.666,20.234c0.789,1.393,1.067,2.739,1.067,4.039
	c0,1.068-0.65,4.829-1.996,4.829c-0.511,0-0.836-0.464-0.836-0.835c0-0.232,0.789-1.765,0.929-2.369
	c0.093-0.371,0.186-0.789,0.232-1.16v-0.975c-0.093-0.417-0.186-0.975-0.325-1.393c-0.093-0.372-0.278-0.79-0.465-1.114
	c-0.231-0.464-0.371-0.603-0.371-0.975c0-0.51,0.325-0.836,0.836-0.836C29.154,19.445,29.339,19.631,29.666,20.234z M32.544,17.959
	c1.16,1.903,1.856,4.317,1.856,6.313c0,0.14-0.139,1.439-0.232,2.136c-0.046,0.372-0.139,0.789-0.278,1.207
	c-0.047,0.233-1.346,4.085-2.507,4.085c-0.512,0-0.837-0.371-0.837-0.835c0-0.51,0.558-1.021,0.791-1.531
	c0.139-0.232,0.277-0.511,0.37-0.743c0.372-0.789,0.651-1.672,0.79-2.461c0.093-0.371,0.139-0.742,0.187-1.114V23.53
	c-0.048-0.371-0.14-0.881-0.233-1.3c-0.046-0.325-0.139-0.743-0.279-1.067c-0.185-0.603-0.464-1.3-0.834-1.903
	c-0.233-0.464-0.837-1.114-0.837-1.625c0-0.372,0.324-0.836,0.837-0.836C31.8,16.799,32.219,17.402,32.544,17.959z M34.865,15.313
	c1.394,1.903,2.275,4.085,2.6,6.035c0.093,0.464,0.279,1.485,0.279,1.625v2.6c-0.232,1.532-0.511,2.972-1.068,4.411
	c-0.463,1.207-1.206,2.785-2.274,3.9c-0.278,0.278-0.418,0.232-0.604,0.232c-0.509,0-0.834-0.372-0.834-0.835
	c0-0.372,1.206-1.996,1.438-2.461c0.696-1.346,1.207-2.692,1.439-4.039c0.093-0.511,0.185-1.068,0.232-1.625v-1.764
	c-0.048-0.557-0.14-1.253-0.278-1.811c-0.047-0.371-0.14-0.789-0.279-1.114c-0.094-0.371-0.233-0.835-0.418-1.207
	c-0.232-0.604-0.558-1.3-0.929-1.903c-0.186-0.371-0.464-0.789-0.742-1.114c-0.324-0.418-0.511-0.696-0.511-1.021
	c0-0.418,0.325-0.835,0.835-0.835C34.262,14.385,34.401,14.664,34.865,15.313z M26.369,15.082v18.337
	c0.047,0.465-0.603,0.79-0.882,0.79c-0.093,0-0.278-0.046-0.371-0.139c-0.232-0.14-6.267-5.478-6.592-5.478h-4.735
	c-0.325,0.139-1.532,0-1.532-0.742v-7.243c0-0.372,0.418-0.789,0.742-0.789h5.757c2.089-1.764,4.087-3.574,6.175-5.292
	c0.14-0.139,0.464-0.232,0.604-0.232C25.905,14.292,26.369,14.617,26.369,15.082z"/>
</svg>
