<?xml version="1.0" encoding="utf-8"?>
<!-- Generator: Adobe Illustrator 16.0.0, SVG Export Plug-In . SVG Version: 6.00 Build 0)  -->
<!DOCTYPE svg PUBLIC "-//W3C//DTD SVG 1.1//EN" "http://www.w3.org/Graphics/SVG/1.1/DTD/svg11.dtd">
<svg version="1.1" id="Layer_1" xmlns="http://www.w3.org/2000/svg" xmlns:xlink="http://www.w3.org/1999/xlink" x="0px" y="0px"
	 width="59.802px" height="65.988px" viewBox="0 0 59.802 65.988" enable-background="new 0 0 59.802 65.988" xml:space="preserve">
<g id="XMLID_12_">
	<circle id="XMLID_23_" fill=" #964a03" cx="29.901" cy="36.086" r="29.901"/>
	<circle id="XMLID_20_" fill="#E57102" cx="29.901" cy="29.901" r="29.9"/>
	<path id="XMLID_14_" fill="#C85E1C" d="M51.043,51.043c11.678-11.677,11.678-30.609,0-42.285L8.758,51.043
		C20.435,62.721,39.366,62.721,51.043,51.043z"/>
</g>
<g>
	<g>
		<g>
			<g>
				
					<path fill="none" stroke="#FFFFFF" stroke-width="2" stroke-linecap="round" stroke-linejoin="round" stroke-miterlimit="10" d="
					M25.279,29.681c-3.106,0-8.492-4.302-8.806-7.918c-0.245-2.846,1.094-4.306,4.118-2.895"/>
				<ellipse fill="#FFFFFF" cx="22.956" cy="30.25" rx="1.001" ry="0.971"/>
			</g>
			<g>
				
					<path fill="none" stroke="#FFFFFF" stroke-width="2" stroke-linecap="round" stroke-linejoin="round" stroke-miterlimit="10" d="
					M34.524,29.681c3.106,0,8.492-4.302,8.805-7.918c0.245-2.846-1.094-4.306-4.117-2.895"/>
				<ellipse fill="#FFFFFF" cx="36.849" cy="30.25" rx="1.001" ry="0.971"/>
			</g>
		</g>
		<path fill="#FFFFFF" d="M40.23,15.552c0,8.996-4.439,18.129-10.328,18.129s-10.328-9.133-10.328-18.129"/>
		<path fill="#FFFFFF" d="M40.894,15.356c0,0.403-0.327,0.731-0.73,0.731H19.641c-0.403,0-0.73-0.328-0.73-0.731l0,0
			c0-0.404,0.327-0.732,0.73-0.732h20.522C40.567,14.624,40.894,14.952,40.894,15.356L40.894,15.356z"/>
		<g>
			<rect x="28.575" y="32.968" fill="#FFFFFF" width="2.655" height="7.979"/>
			<path fill="#FFFFFF" d="M31.912,34.195c0,0.278-0.301,0.503-0.671,0.503h-2.677c-0.371,0-0.671-0.225-0.671-0.503v-0.11
				c0-0.277,0.3-0.503,0.671-0.503h2.677c0.37,0,0.671,0.226,0.671,0.503V34.195z"/>
			<path fill="#FFFFFF" d="M31.912,40.055c0,0.277-0.301,0.503-0.671,0.503h-2.677c-0.371,0-0.671-0.226-0.671-0.503v-0.111
				c0-0.277,0.3-0.503,0.671-0.503h2.677c0.37,0,0.671,0.226,0.671,0.503V40.055z"/>
		</g>
		<g>
			<path fill="#FFFFFF" d="M33.241,42.353c0,0.277-0.225,0.503-0.502,0.503h-5.675c-0.277,0-0.502-0.226-0.502-0.503v-1.34
				c0-0.277,0.225-0.501,0.502-0.501h5.675c0.277,0,0.502,0.224,0.502,0.501V42.353z"/>
			<path fill="#FFFFFF" d="M35.031,44.351c0,0.278-0.225,0.502-0.502,0.502h-9.255c-0.276,0-0.501-0.224-0.501-0.502v-1.872
				c0-0.277,0.225-0.502,0.501-0.502h9.255c0.277,0,0.502,0.225,0.502,0.502V44.351z"/>
			<path fill="#FFFFFF" d="M37.284,46.862c0,0.277-0.225,0.502-0.502,0.502H23.023c-0.277,0-0.503-0.225-0.503-0.502V44.88
				c0-0.277,0.226-0.502,0.503-0.502h13.759c0.277,0,0.502,0.225,0.502,0.502V46.862z"/>
		</g>
	</g>
</g>
</svg>
