<?xml version="1.0" encoding="utf-8"?>
<!-- Generator: Adobe Illustrator 23.0.3, SVG Export Plug-In . SVG Version: 6.00 Build 0)  -->
<svg version="1.1" id="Layer_1" xmlns="http://www.w3.org/2000/svg" xmlns:xlink="http://www.w3.org/1999/xlink" x="0px" y="0px"
	 viewBox="0 0 210 79" style="enable-background:new 0 0 210 79;" xml:space="preserve">
<style type="text/css">
	.st0{fill:#964A03;}
	.st1{fill:#E57102;}
	.st2{clip-path:url(#SVGID_2_);fill:#C85E1C;}
	.st3{fill:#FFFFFF;}
</style>
<g>
	<g>
		<path class="st0" d="M210,69c0,5.5-4.5,10-10,10H10C4.5,79,0,74.5,0,69V19C0,13.5,4.5,9,10,9h190c5.5,0,10,4.5,10,10V69z"/>
		<path class="st1" d="M210,60c0,5.5-4.5,10-10,10H10C4.5,70,0,65.5,0,60V10C0,4.5,4.5,0,10,0h190c5.5,0,10,4.5,10,10V60z"/>
		<g>
			<g>
				<defs>
					<path id="SVGID_1_" d="M210,60c0,5.5-4.5,10-10,10H10C4.5,70,0,65.5,0,60V10C0,4.5,4.5,0,10,0h190c5.5,0,10,4.5,10,10V60z"/>
				</defs>
				<clipPath id="SVGID_2_">
					<use xlink:href="#SVGID_1_"  style="overflow:visible;"/>
				</clipPath>
				<polygon class="st2" points="209,2.4 3,70 215.8,70 				"/>
			</g>
		</g>
		<g>
			<path class="st3" d="M7.3,35.9c0,1.4-1.1,2.6-2.6,2.6s-2.6-1.2-2.6-2.6c0-1.4,1.1-2.6,2.6-2.6S7.3,34.4,7.3,35.9z M6.8,39.4v11
				H2.7v-11H6.8z"/>
			<path class="st3" d="M14.7,32.1v2.8h4.9v3.7h-4.9v2.9h5.1V45h-9.4V28.4h9.4v3.7H14.7z"/>
			<path class="st3" d="M26.4,35.1L26.4,35.1c1-1.3,2.2-1.8,3.6-1.8c1.6,0,3,0.7,3.9,2.2c0.8-1.4,2.3-2.2,3.8-2.2
				c2.9,0,3.9,1.9,3.9,4.5V45h-4v-5.4c0-1.2,0-3.1-1.7-3.1c-1.8,0-1.9,1.7-1.9,3.1V45h-4v-5.4c0-1.3,0-3.2-1.8-3.2s-1.8,1.9-1.8,3.2
				V45h-4V33.7h4V35.1z"/>
			<path class="st3" d="M48,35L48,35c0.8-1.1,2.1-1.7,3.5-1.7c3.4,0,5.7,2.8,5.7,6.1c0,3.3-2.3,6-5.7,6c-1.3,0-2.6-0.5-3.5-1.5v6.7
				h-4V33.7h4V35z M47.9,39.4c0,1.4,0.9,2.5,2.6,2.5c1.6,0,2.6-1.1,2.6-2.5c0-1.4-0.9-2.6-2.6-2.6C48.8,36.8,47.9,38,47.9,39.4z"/>
			<path class="st3" d="M70.7,40h-8.4c0,1.6,0.9,2.5,2.5,2.5c0.9,0,1.5-0.3,1.9-1h3.9c-0.3,1.3-1.1,2.3-2.1,2.9
				c-1,0.6-2.3,0.9-3.6,0.9c-3.7,0-6.5-2.1-6.5-6c0-3.8,2.6-6,6.2-6c3.9,0,6.2,2.4,6.2,6.3V40z M67,37.7c-0.2-1.1-1.2-1.8-2.3-1.8
				c-1.2,0-2.1,0.6-2.4,1.8H67z"/>
			<path class="st3" d="M82.8,41.7V45H71.4l5.3-8h-4.6v-3.3h11.3l-5.3,8H82.8z"/>
			<path class="st3" d="M97.2,45h-4v-1.3h0c-0.7,1.1-2.1,1.6-3.4,1.6c-3.3,0-5.7-2.8-5.7-6c0-3.2,2.3-6,5.7-6c1.3,0,2.7,0.5,3.5,1.5
				v-1.1h4V45z M88.2,39.4c0,1.4,0.9,2.5,2.6,2.5c1.6,0,2.6-1.1,2.6-2.5c0-1.4-0.9-2.6-2.6-2.6C89.1,36.8,88.2,38,88.2,39.4z"/>
			<path class="st3" d="M103.9,35.6L103.9,35.6c0.8-1.4,2.1-2,3.7-2h0.8v3.9c-0.5-0.3-1.1-0.4-1.7-0.4c-2.2,0-2.8,1.5-2.8,3.4V45h-4
				V33.7h4V35.6z"/>
			<path class="st3" d="M129.7,45h-4v-1.3h0c-0.7,1.1-2.1,1.6-3.4,1.6c-3.3,0-5.7-2.8-5.7-6c0-3.2,2.3-6,5.7-6
				c1.3,0,2.7,0.5,3.5,1.5v-1.1h4V45z M120.7,39.4c0,1.4,0.9,2.5,2.6,2.5c1.6,0,2.6-1.1,2.6-2.5c0-1.4-0.9-2.6-2.6-2.6
				C121.6,36.8,120.7,38,120.7,39.4z"/>
			<path class="st3" d="M144.2,29.4c0,1.2-1,2.2-2.2,2.2s-2.2-1-2.2-2.2s1-2.2,2.2-2.2S144.2,28.1,144.2,29.4z M143.9,50.6h-4V33.7
				h4V50.6z"/>
			<path class="st3" d="M150.5,33.7v6c0,1.4,0.4,2.4,2,2.4s2-1,2-2.4v-6h4v6.8c0,3.7-2.6,4.9-6,4.9s-6-1.1-6-4.9v-6.8H150.5z"/>
			<path class="st3" d="M173.4,43.9c0,4.8-2.4,6.7-6.5,6.7c-2.6,0-6.1-1.3-6.4-4.3h4.5c0.1,0.4,0.4,0.7,0.7,0.9
				c0.4,0.2,0.8,0.3,1.1,0.3c2.2,0,2.6-1.4,2.6-3.2v-0.5c-1,1-2.1,1.5-3.6,1.5c-3.3,0-5.6-2.5-5.6-5.8c0-3.3,2.3-6.1,5.8-6.1
				c1.3,0,2.5,0.4,3.3,1.6h0v-1.2h4V43.9z M164.4,39.3c0,1.4,0.9,2.5,2.6,2.5c1.6,0,2.6-1.1,2.6-2.5c0-1.4-0.9-2.6-2.6-2.6
				C165.4,36.7,164.4,37.9,164.4,39.3z"/>
			<path class="st3" d="M188.3,45h-4v-1.3h0c-0.7,1.1-2.1,1.6-3.4,1.6c-3.3,0-5.7-2.8-5.7-6c0-3.2,2.3-6,5.7-6
				c1.3,0,2.7,0.5,3.5,1.5v-1.1h4V45z M179.3,39.4c0,1.4,0.9,2.5,2.6,2.5c1.6,0,2.6-1.1,2.6-2.5c0-1.4-0.9-2.6-2.6-2.6
				C180.2,36.8,179.3,38,179.3,39.4z"/>
			<path class="st3" d="M195,35.6L195,35.6c0.8-1.4,2.1-2,3.7-2h0.8v3.9c-0.5-0.3-1.1-0.4-1.7-0.4c-2.2,0-2.8,1.5-2.8,3.4V45h-4
				V33.7h4V35.6z"/>
			<path class="st3" d="M206.4,42.9c0,1.4-1.1,2.6-2.6,2.6s-2.6-1.2-2.6-2.6c0-1.4,1.1-2.6,2.6-2.6S206.4,41.4,206.4,42.9z
				 M201.8,28.4h4.2v11h-4.2V28.4z"/>
		</g>
	</g>
</g>
</svg>
