<?xml version="1.0" encoding="utf-8"?>
<!-- Generator: Adobe Illustrator 16.0.0, SVG Export Plug-In . SVG Version: 6.00 Build 0)  -->
<!DOCTYPE svg PUBLIC "-//W3C//DTD SVG 1.1//EN" "http://www.w3.org/Graphics/SVG/1.1/DTD/svg11.dtd">
<svg version="1.1" id="Layer_1" xmlns="http://www.w3.org/2000/svg" xmlns:xlink="http://www.w3.org/1999/xlink" x="0px" y="0px"
	 width="59.802px" height="65.988px" viewBox="0 0 59.802 65.988" enable-background="new 0 0 59.802 65.988" xml:space="preserve">
<g id="XMLID_60_">
	<g id="XMLID_54_">
		<circle id="XMLID_79_" fill="#116EB7" cx="29.901" cy="36.086" r="29.901"/>
		<circle id="XMLID_76_" fill="#51AFE2" cx="29.901" cy="29.901" r="29.901"/>
		<path id="XMLID_73_" fill="#0B9BD7" d="M51.044,51.043c11.677-11.677,11.677-30.609,0-42.285L8.757,51.043
			C20.435,62.721,39.367,62.721,51.044,51.043z"/>
	</g>
	<path fill="#FFFFFF" d="M43.822,22.656c-0.928,0.411-1.925,0.689-2.971,0.815c1.068-0.641,1.889-1.653,2.273-2.864
		c-0.997,0.595-2.104,1.025-3.283,1.258c-0.943-1.006-2.289-1.635-3.776-1.635c-2.857,0-5.174,2.316-5.174,5.174
		c0,0.406,0.045,0.801,0.133,1.18c-4.299-0.215-8.11-2.274-10.664-5.406c-0.442,0.765-0.698,1.653-0.698,2.601
		c0,1.797,0.912,3.379,2.301,4.305c-0.848-0.024-1.646-0.259-2.343-0.646v0.065c0,2.505,1.784,4.599,4.149,5.072
		c-0.434,0.119-0.893,0.183-1.364,0.183c-0.332,0-0.658-0.033-0.972-0.095c0.657,2.057,2.568,3.55,4.831,3.595
		c-1.769,1.386-4,2.214-6.425,2.214c-0.417,0-0.828-0.026-1.233-0.071c2.289,1.465,5.008,2.322,7.931,2.322
		c9.517,0,14.72-7.883,14.72-14.72c0-0.223-0.006-0.446-0.015-0.668C42.25,24.606,43.127,23.693,43.822,22.656z"/>
</g>
</svg>
