<?xml version="1.0" encoding="utf-8"?>
<!-- Generator: Adobe Illustrator 16.0.0, SVG Export Plug-In . SVG Version: 6.00 Build 0)  -->
<!DOCTYPE svg PUBLIC "-//W3C//DTD SVG 1.1//EN" "http://www.w3.org/Graphics/SVG/1.1/DTD/svg11.dtd">
<svg version="1.1" id="Layer_1" xmlns="http://www.w3.org/2000/svg" xmlns:xlink="http://www.w3.org/1999/xlink" x="0px" y="0px"
	 width="50px" height="55px" viewBox="0 0 50 55" enable-background="new 0 0 50 55" xml:space="preserve">
<path fill="#3F387B" d="M50,45c0,5.523-4.478,10-10,10H10C4.478,55,0,50.523,0,45V15C0,9.477,4.478,5,10,5h30
	c5.522,0,10,4.477,10,10V45z"/>
<path fill="#685FAA" d="M50,40c0,5.523-4.478,10-10,10H10C4.478,50,0,45.523,0,40V10C0,4.477,4.478,0,10,0h30
	c5.522,0,10,4.477,10,10V40z"/>
<g>
	<defs>
		<path id="SVGID_1_" d="M50,40c0,5.523-4.478,10-10,10H10C4.478,50,0,45.523,0,40V10C0,4.477,4.478,0,10,0h30
			c5.522,0,10,4.477,10,10V40z"/>
	</defs>
	<clipPath id="SVGID_2_">
		<use xlink:href="#SVGID_1_"  overflow="visible"/>
	</clipPath>
	<polygon clip-path="url(#SVGID_2_)" fill="#524E9B" points="49,2.429 3,50 55.75,50 	"/>
</g>
<g>
	<path fill-rule="evenodd" clip-rule="evenodd" fill="#FFFFFF" d="M36.7,28.718V17.206c0-0.003,0.001-0.005,0.001-0.008
		c0-0.418-0.127-0.806-0.345-1.128c-0.362-0.538-0.978-0.891-1.674-0.891c-0.003,0-0.006,0-0.009,0l-11.513,0
		c-1.114,0-2.019,0.903-2.019,2.018s0.904,2.018,2.019,2.018h9.503v9.503c0,1.115,0.903,2.019,2.019,2.018
		C35.796,30.736,36.7,29.833,36.7,28.718z"/>
	<path fill-rule="evenodd" clip-rule="evenodd" fill="#FFFFFF" d="M26.84,38.578l-11.514,0c-0.002,0-0.005,0-0.008,0
		c-0.418,0-0.807-0.126-1.129-0.345c-0.537-0.363-0.891-0.977-0.891-1.674c0.001-0.002,0.001-0.005,0.001-0.008V25.039
		c0-1.115,0.903-2.018,2.019-2.018c1.114,0,2.018,0.903,2.018,2.018v9.503l9.504,0c1.114,0,2.019,0.903,2.018,2.018
		C28.858,37.675,27.955,38.578,26.84,38.578z"/>
	<path fill-rule="evenodd" clip-rule="evenodd" fill="#FFFFFF" d="M18.939,36.428c-0.982,0.983-2.575,0.983-3.559,0l0,0
		c-0.982-0.983-0.982-2.576,0-3.559l15.541-15.541c0.982-0.983,2.575-0.983,3.559,0l0,0c0.983,0.983,0.983,2.576,0,3.559
		L18.939,36.428z"/>
</g>
</svg>
