<?xml version="1.0" encoding="utf-8"?>
<!-- Generator: Adobe Illustrator 16.0.0, SVG Export Plug-In . SVG Version: 6.00 Build 0)  -->
<!DOCTYPE svg PUBLIC "-//W3C//DTD SVG 1.1//EN" "http://www.w3.org/Graphics/SVG/1.1/DTD/svg11.dtd">
<svg version="1.1" id="Layer_1" xmlns="http://www.w3.org/2000/svg" xmlns:xlink="http://www.w3.org/1999/xlink" x="0px" y="0px"
	 width="59.802px" height="65.988px" viewBox="0 0 59.802 65.988" enable-background="new 0 0 59.802 65.988" xml:space="preserve">
<g id="XMLID_15_">
	<g id="XMLID_16_">
		<circle id="XMLID_21_" fill="#A51E29" cx="29.902" cy="36.086" r="29.901"/>
		<circle id="XMLID_19_" fill="#ED1C29" cx="29.901" cy="29.901" r="29.901"/>
		<path id="XMLID_17_" fill="#D1202F" d="M51.045,51.043c11.677-11.677,11.677-30.609,0-42.285L8.758,51.043
			C20.436,62.721,39.367,62.721,51.045,51.043z"/>
	</g>
	<g>
		<path fill="#FFFFFF" d="M32.887,21.322c0.191,0.117,0.404,0.291,0.642,0.517c0.229,0.236,0.451,0.528,0.67,0.873
			c0.211,0.324,0.396,0.707,0.558,1.151c0.134,0.441,0.199,0.96,0.199,1.55c-0.018,1.085-0.257,1.951-0.717,2.601
			c-0.226,0.314-0.465,0.606-0.718,0.873c-0.279,0.264-0.577,0.535-0.893,0.81c-0.18,0.188-0.347,0.399-0.499,0.637
			c-0.18,0.245-0.271,0.531-0.271,0.856c0,0.316,0.092,0.578,0.277,0.783c0.155,0.198,0.31,0.369,0.458,0.517l1.026,0.843
			c0.639,0.523,1.198,1.096,1.679,1.727c0.454,0.643,0.69,1.478,0.71,2.511c0,1.468-0.649,2.768-1.943,3.901
			c-1.343,1.172-3.283,1.777-5.816,1.816c-2.121-0.02-3.705-0.474-4.751-1.356c-1.054-0.825-1.583-1.813-1.583-2.963
			c0-0.561,0.171-1.187,0.517-1.874c0.333-0.686,0.935-1.292,1.809-1.812c0.979-0.561,2.01-0.935,3.09-1.122
			c1.07-0.155,1.956-0.245,2.663-0.265c-0.218-0.286-0.413-0.593-0.583-0.921c-0.199-0.316-0.298-0.697-0.298-1.142
			c0-0.268,0.036-0.491,0.112-0.669c0.065-0.188,0.128-0.361,0.186-0.52c-0.344,0.038-0.669,0.058-0.973,0.058
			c-1.612-0.02-2.842-0.526-3.688-1.521c-0.885-0.926-1.327-2.004-1.327-3.235c0-1.487,0.627-2.836,1.882-4.046
			c0.859-0.709,1.754-1.172,2.682-1.389c0.919-0.188,1.778-0.281,2.582-0.281h6.056l-1.87,1.092H32.887z M34.056,38.753
			c0-0.771-0.25-1.439-0.751-2.01c-0.53-0.541-1.359-1.205-2.487-1.995c-0.193-0.021-0.42-0.028-0.681-0.028
			c-0.153-0.019-0.549,0-1.186,0.058c-0.626,0.09-1.269,0.232-1.923,0.429c-0.155,0.06-0.371,0.149-0.65,0.268
			c-0.28,0.127-0.563,0.31-0.854,0.546c-0.279,0.247-0.516,0.55-0.709,0.916c-0.223,0.385-0.332,0.849-0.332,1.389
			c0,1.064,0.48,1.939,1.444,2.63c0.918,0.689,2.17,1.044,3.761,1.063c1.428-0.02,2.518-0.335,3.268-0.946
			C33.689,40.471,34.056,39.699,34.056,38.753z M29.835,29.878c0.798-0.031,1.461-0.318,1.992-0.861
			c0.257-0.385,0.423-0.778,0.494-1.183c0.044-0.406,0.066-0.745,0.066-1.022c0-1.194-0.305-2.396-0.915-3.61
			c-0.287-0.582-0.664-1.056-1.132-1.422c-0.478-0.344-1.027-0.526-1.646-0.546c-0.821,0.02-1.502,0.35-2.048,0.992
			c-0.458,0.671-0.678,1.421-0.656,2.249c0,1.095,0.318,2.234,0.96,3.419c0.312,0.552,0.71,1.021,1.201,1.404
			C28.645,29.686,29.204,29.878,29.835,29.878z"/>
		<polygon fill="#FFFFFF" points="44.827,23.538 41.649,23.538 41.649,20.361 40.111,20.361 40.111,23.538 36.934,23.538 
			36.934,25.078 40.111,25.078 40.111,28.253 41.649,28.253 41.649,25.078 44.827,25.078 		"/>
	</g>
</g>
</svg>
