<?xml version="1.0" encoding="utf-8"?>
<!-- Generator: Adobe Illustrator 16.0.0, SVG Export Plug-In . SVG Version: 6.00 Build 0)  -->
<!DOCTYPE svg PUBLIC "-//W3C//DTD SVG 1.1//EN" "http://www.w3.org/Graphics/SVG/1.1/DTD/svg11.dtd">
<svg version="1.1" id="Layer_1" xmlns="http://www.w3.org/2000/svg" xmlns:xlink="http://www.w3.org/1999/xlink" x="0px" y="0px"
	 width="50px" height="55px" viewBox="0 0 50 55" enable-background="new 0 0 50 55" xml:space="preserve">
<path fill="#3F387B" d="M50,45c0,5.523-4.478,10-10,10H10C4.478,55,0,50.523,0,45V15C0,9.477,4.478,5,10,5h30
	c5.522,0,10,4.477,10,10V45z"/>
<path fill="#685FAA" d="M50,40c0,5.523-4.478,10-10,10H10C4.478,50,0,45.523,0,40V10C0,4.477,4.478,0,10,0h30
	c5.522,0,10,4.477,10,10V40z"/>
<g>
	<defs>
		<path id="SVGID_1_" d="M50,40c0,5.523-4.478,10-10,10H10C4.478,50,0,45.523,0,40V10C0,4.477,4.478,0,10,0h30
			c5.522,0,10,4.477,10,10V40z"/>
	</defs>
	<clipPath id="SVGID_2_">
		<use xlink:href="#SVGID_1_"  overflow="visible"/>
	</clipPath>
	<polygon clip-path="url(#SVGID_2_)" fill="#524E9B" points="49,2.429 3,50 55.75,50 	"/>
</g>
<path fill-rule="evenodd" clip-rule="evenodd" fill="#FFFFFF" d="M26.369,15.082v18.337c0.047,0.465-0.603,0.79-0.882,0.79
	c-0.093,0-0.278-0.046-0.371-0.139c-0.232-0.14-6.267-5.478-6.592-5.478h-4.735c-0.325,0.139-1.532,0-1.532-0.742v-7.243
	c0-0.372,0.418-0.789,0.742-0.789h5.757c2.089-1.764,4.087-3.574,6.175-5.292c0.14-0.139,0.464-0.232,0.604-0.232
	C25.905,14.292,26.369,14.617,26.369,15.082z"/>
</svg>
