<?xml version="1.0" encoding="utf-8"?>
<!-- Generator: Adobe Illustrator 16.0.0, SVG Export Plug-In . SVG Version: 6.00 Build 0)  -->
<!DOCTYPE svg PUBLIC "-//W3C//DTD SVG 1.1//EN" "http://www.w3.org/Graphics/SVG/1.1/DTD/svg11.dtd">
<svg version="1.1" id="Layer_1" xmlns="http://www.w3.org/2000/svg" xmlns:xlink="http://www.w3.org/1999/xlink" x="0px" y="0px"
	 width="210px" height="79px" viewBox="0 0 210 79" enable-background="new 0 0 210 79" xml:space="preserve">
<g>
	<path fill="#964a03" d="M210,69c0,5.523-4.479,10-10,10H10C4.478,79,0,74.523,0,69V19C0,13.477,4.478,9,10,9h190
		c5.521,0,10,4.477,10,10V69z"/>
	<path fill="#E57102" d="M210,60c0,5.523-4.479,10-10,10H10C4.478,70,0,65.523,0,60V10C0,4.477,4.478,0,10,0h190
		c5.521,0,10,4.477,10,10V60z"/>
	<g>
		<g>
			<defs>
				<path id="SVGID_1_" d="M210,60c0,5.523-4.479,10-10,10H10C4.478,70,0,65.523,0,60V10C0,4.477,4.478,0,10,0h190
					c5.521,0,10,4.477,10,10V60z"/>
			</defs>
			<clipPath id="SVGID_2_">
				<use xlink:href="#SVGID_1_"  overflow="visible"/>
			</clipPath>
			<polygon clip-path="url(#SVGID_2_)" fill="#C85E1C" points="209,2.429 3,70 215.75,70 			"/>
		</g>
	</g>
</g>
<g>
	<path fill="#FFFFFF" d="M105.842,26.225c1.426,1.904,2.139,4.341,2.139,7.31c0,3.213-0.815,5.884-2.446,8.013
		c-1.914,2.5-4.644,3.75-8.188,3.75c-3.311,0-5.913-1.094-7.808-3.281c-1.689-2.109-2.534-4.775-2.534-7.998
		c0-2.91,0.723-5.4,2.168-7.471c1.855-2.656,4.6-3.984,8.232-3.984C101.203,22.562,104.016,23.783,105.842,26.225z M103.271,39.94
		c1.147-1.842,1.721-3.961,1.721-6.355c0-2.531-0.662-4.569-1.985-6.113s-3.132-2.316-5.427-2.316c-2.227,0-4.043,0.765-5.449,2.295
		c-1.406,1.529-2.109,3.784-2.109,6.766c0,2.385,0.603,4.396,1.809,6.032c1.206,1.638,3.162,2.456,5.867,2.456
		C100.266,42.704,102.124,41.783,103.271,39.94z"/>
	<path fill="#FFFFFF" d="M111.042,23.148h2.534v12.494l6.762-6.664h3.367l-6.029,5.833l6.368,9.855h-3.368l-4.935-7.983
		l-2.165,2.095v5.889h-2.534V23.148z"/>
</g>
</svg>
