<?xml version="1.0" encoding="utf-8"?>
<!-- Generator: Adobe Illustrator 16.0.0, SVG Export Plug-In . SVG Version: 6.00 Build 0)  -->
<!DOCTYPE svg PUBLIC "-//W3C//DTD SVG 1.1//EN" "http://www.w3.org/Graphics/SVG/1.1/DTD/svg11.dtd">
<svg version="1.1" id="Layer_1" xmlns="http://www.w3.org/2000/svg" xmlns:xlink="http://www.w3.org/1999/xlink" x="0px" y="0px"
	 width="59.802px" height="65.988px" viewBox="0 0 59.802 65.988" enable-background="new 0 0 59.802 65.988" xml:space="preserve">
<g id="XMLID_10_">
	<g id="XMLID_12_">
		<circle id="XMLID_23_" fill="#2C8743" cx="29.901" cy="36.086" r="29.901"/>
		<circle id="XMLID_20_" fill="#A2CE4B" cx="29.901" cy="29.901" r="29.9"/>
		<path id="XMLID_14_" fill="#70AE4F" d="M51.043,51.043c11.678-11.677,11.678-30.609,0-42.285L8.758,51.043
			C20.435,62.721,39.366,62.721,51.043,51.043z"/>
	</g>
	<path fill-rule="evenodd" clip-rule="evenodd" fill="#FFFFFF" d="M37.062,19.714l-8.541,9.07v-6.49h-0.89
		c-4.536,1.512-6.938,4.981-6.938,8.983c0,3.56,2.313,7.562,6.85,8.808c0.267,0.089,0.712,0.356,0.979,0.356h2.67
		c0.355-0.178,0.623-0.356,1.067-0.356c3.291-0.533,7.205-5.248,6.85-8.63h4.714v0.534c-0.178,1.247-0.267,2.403-0.712,3.56
		c-0.444,1.245-1.156,2.49-1.689,3.38c-0.89,1.424-2.669,3.291-4.358,4.181c-0.445,0.267-0.979,0.623-1.513,0.801
		c-0.267,0.178-0.801,0.178-1.067,0.355c-2.224,0.801-2.936,0.801-4.625,0.801c-4.36,0-8.63-1.69-11.565-6.138
		c-0.801-1.156-1.156-2.135-1.689-3.469c-0.356-1.067-0.623-3.202-0.623-3.382v-1.602c0.267-1.066,0.444-2.135,0.623-3.201
		c0.267-0.712,0.533-1.602,0.889-2.313c0.179-0.444,0.534-0.979,0.801-1.423c0.089-0.178,0.267-0.267,0.355-0.355
		c1.868-2.491,3.647-4.003,6.138-4.893c1.156-0.444,2.491-0.623,3.736-0.979v-6.579L37.062,19.714z"/>
</g>
</svg>
