<?xml version="1.0" encoding="utf-8"?>
<!-- Generator: Adobe Illustrator 24.1.0, SVG Export Plug-In . SVG Version: 6.00 Build 0)  -->
<svg version="1.1" id="Layer_1" xmlns="http://www.w3.org/2000/svg" xmlns:xlink="http://www.w3.org/1999/xlink" x="0px" y="0px"
	 viewBox="0 0 310.7 310.7" style="enable-background:new 0 0 310.7 310.7;" xml:space="preserve">
<style type="text/css">
	.st0{fill:#FFFFFF;}
</style>
<g>
	<path class="st0" d="M266.7,271.9h-121c-8.6,0-13.5-10.3-7.2-17.1l30.5-30.5l-86.9-87.9L51.6,167c-4.4,5.4-17.1,3-17.1-7.2V39.2
		c0-5.7,4.7-10.3,10.3-10.3h121c9,0,13.4,11.3,7.2,17.1l-30.5,30.5l87.4,87.4l30.5-30.5c6.5-6.5,17.1-1.3,17.1,7.2v121
		C277.1,267.3,272.4,271.9,266.7,271.9L266.7,271.9z M170.6,251.7h86.4v-86.4l-20.7,20.7c-4.1,4.1-10.3,4.1-14.5,0L120.4,84.2
		c-4.8-4.8-4-10.4,0-14.5L141.1,49H54.2v86.4l20.7-20.7c3.6-3.6,10.3-3.6,14.5,0l101.9,101.9c4.1,4.1,4.1,10.3,0,14.5L170.6,251.7z
		 M170.6,251.7"/>
</g>
</svg>
