<?xml version="1.0" encoding="utf-8"?>
<!-- Generator: Adobe Illustrator 16.0.0, SVG Export Plug-In . SVG Version: 6.00 Build 0)  -->
<!DOCTYPE svg PUBLIC "-//W3C//DTD SVG 1.1//EN" "http://www.w3.org/Graphics/SVG/1.1/DTD/svg11.dtd">
<svg version="1.1" id="Layer_1" xmlns="http://www.w3.org/2000/svg" xmlns:xlink="http://www.w3.org/1999/xlink" x="0px" y="0px"
	 width="282.273px" height="222.79px" viewBox="0 0 282.273 222.79" enable-background="new 0 0 282.273 222.79"
	 xml:space="preserve">
<g>
	<circle opacity="0.1" cx="141.137" cy="109.859" r="93.851"/>
	<g>
		<g>
			<g>
				<g>
					
						<path fill="none" stroke="#FCC016" stroke-width="8" stroke-linecap="round" stroke-linejoin="round" stroke-miterlimit="10" d="
						M109.68,102.457c-21.138,0-57.791-29.271-59.917-53.88c-1.672-19.363,7.44-29.308,28.022-19.706"/>
					<path fill="#FCC016" d="M100.681,106.326c0,3.649-3.053,6.606-6.816,6.606c-3.761,0-6.811-2.957-6.811-6.606
						c0-3.647,3.05-6.605,6.811-6.605C97.628,99.721,100.681,102.679,100.681,106.326z"/>
				</g>
				<g>
					
						<path fill="none" stroke="#FCC016" stroke-width="8" stroke-linecap="round" stroke-linejoin="round" stroke-miterlimit="10" d="
						M172.594,102.457c21.139,0,57.788-29.271,59.917-53.88c1.669-19.363-7.443-29.308-28.022-19.706"/>
					<ellipse fill="#FCC016" cx="188.412" cy="106.326" rx="6.813" ry="6.606"/>
				</g>
			</g>
			<path fill="#FFD636" d="M211.425,6.316c0,61.212-30.209,123.364-70.284,123.364c-40.074,0-70.281-62.152-70.281-123.364"/>
			<path fill="#F8B232" d="M215.944,4.978c0,2.749-2.231,4.978-4.977,4.978H71.317c-2.748,0-4.977-2.229-4.977-4.978l0,0
				C66.34,2.228,68.569,0,71.317,0h139.651C213.713,0,215.944,2.228,215.944,4.978L215.944,4.978z"/>
			<g>
				<rect x="132.107" y="124.827" fill="#FFCD05" width="18.07" height="54.297"/>
				<path fill="#FCC016" d="M154.812,133.18c0,1.886-2.039,3.418-4.562,3.418h-18.22c-2.52,0-4.56-1.532-4.56-3.418v-0.76
					c0-1.887,2.04-3.417,4.56-3.417h18.22c2.522,0,4.562,1.53,4.562,3.417V133.18z"/>
				<path fill="#FCC016" d="M154.812,173.047c0,1.891-2.039,3.42-4.562,3.42h-18.22c-2.52,0-4.56-1.529-4.56-3.42v-0.758
					c0-1.888,2.04-3.419,4.56-3.419h18.22c2.522,0,4.562,1.531,4.562,3.419V173.047z"/>
			</g>
			<g>
				<path fill="#F8B232" d="M163.864,188.686c0,1.887-1.529,3.418-3.417,3.418h-38.612c-1.89,0-3.42-1.531-3.42-3.418v-9.112
					c0-1.888,1.53-3.419,3.42-3.419h38.612c1.888,0,3.417,1.531,3.417,3.419V188.686z"/>
				<path fill="#FFD636" d="M176.045,202.287c0,1.888-1.527,3.416-3.417,3.416h-62.974c-1.887,0-3.419-1.528-3.419-3.416v-12.746
					c0-1.888,1.532-3.417,3.419-3.417h62.974c1.89,0,3.417,1.529,3.417,3.417V202.287z"/>
				<path fill="#FCC016" d="M191.375,219.372c0,1.889-1.529,3.418-3.417,3.418H94.326c-1.89,0-3.419-1.529-3.419-3.418v-13.484
					c0-1.888,1.53-3.418,3.419-3.418h93.632c1.888,0,3.417,1.53,3.417,3.418V219.372z"/>
			</g>
		</g>
	</g>
	<g>
		<polyline fill="#A31E22" points="13.567,163.225 0,142.528 61.815,142.528 61.815,184.204 0,184.204 13.567,163.225 		"/>
		<polyline fill="#A31E22" points="268.706,163.225 282.273,142.528 220.458,142.528 220.458,184.204 282.273,184.204 
			268.706,163.225 		"/>
		<rect x="38.812" y="127.557" fill="#EF423B" width="204.661" height="44.566"/>
	</g>
	<g>
		<path fill="#FFFFFF" d="M72.809,153.422c0.066,1.221,0.343,2.212,0.833,2.974c0.931,1.426,2.573,2.139,4.924,2.139
			c1.054,0,2.013-0.156,2.879-0.469c1.674-0.605,2.512-1.689,2.512-3.252c0-1.172-0.355-2.007-1.064-2.505
			c-0.719-0.488-1.845-0.913-3.377-1.274l-2.824-0.659c-1.845-0.43-3.15-0.903-3.917-1.421c-1.325-0.898-1.987-2.241-1.987-4.028
			c0-1.934,0.651-3.521,1.953-4.761c1.302-1.24,3.146-1.86,5.531-1.86c2.195,0,4.06,0.544,5.595,1.633s2.302,2.83,2.302,5.222
			h-2.739c-0.141-1.152-0.44-2.036-0.899-2.651c-0.852-1.123-2.298-1.685-4.339-1.685c-1.648,0-2.833,0.361-3.554,1.084
			c-0.721,0.723-1.081,1.562-1.081,2.52c0,1.055,0.426,1.826,1.277,2.314c0.558,0.312,1.821,0.703,3.79,1.172l2.924,0.688
			c1.41,0.332,2.498,0.786,3.264,1.362c1.325,1.006,1.987,2.466,1.987,4.38c0,2.383-0.845,4.087-2.536,5.112
			s-3.655,1.538-5.893,1.538c-2.609,0-4.652-0.684-6.128-2.051c-1.477-1.357-2.201-3.198-2.171-5.522H72.809z"/>
		<path fill="#FFFFFF" d="M94.064,138.847v13.301c0,1.562,0.295,2.861,0.886,3.896c0.875,1.562,2.352,2.344,4.429,2.344
			c2.49,0,4.184-0.845,5.079-2.534c0.482-0.918,0.724-2.153,0.724-3.706v-13.301h2.944v12.085c0,2.646-0.358,4.683-1.073,6.108
			c-1.313,2.598-3.792,3.896-7.438,3.896c-3.646,0-6.12-1.299-7.423-3.896c-0.716-1.426-1.073-3.462-1.073-6.108v-12.085H94.064z"/>
		<path fill="#FFFFFF" d="M127.799,140.415c1.486,1.436,2.312,3.066,2.476,4.893h-2.842c-0.316-1.387-0.947-2.485-1.892-3.296
			c-0.945-0.811-2.271-1.216-3.978-1.216c-2.081,0-3.762,0.745-5.042,2.236c-1.28,1.49-1.92,3.775-1.92,6.854
			c0,2.522,0.578,4.567,1.734,6.136s2.88,2.353,5.173,2.353c2.111,0,3.718-0.825,4.821-2.476c0.585-0.869,1.021-2.012,1.31-3.428
			h2.842c-0.251,2.266-1.081,4.165-2.49,5.698c-1.689,1.846-3.968,2.769-6.835,2.769c-2.471,0-4.547-0.757-6.226-2.272
			c-2.21-2.003-3.316-5.096-3.316-9.278c0-3.176,0.83-5.78,2.49-7.813c1.795-2.208,4.271-3.312,7.427-3.312
			C124.223,138.261,126.312,138.979,127.799,140.415z"/>
		<path fill="#FFFFFF" d="M149.464,140.415c1.486,1.436,2.312,3.066,2.476,4.893h-2.842c-0.316-1.387-0.947-2.485-1.892-3.296
			c-0.945-0.811-2.271-1.216-3.978-1.216c-2.081,0-3.762,0.745-5.042,2.236c-1.28,1.49-1.92,3.775-1.92,6.854
			c0,2.522,0.578,4.567,1.734,6.136s2.88,2.353,5.173,2.353c2.111,0,3.718-0.825,4.821-2.476c0.585-0.869,1.021-2.012,1.31-3.428
			h2.842c-0.251,2.266-1.081,4.165-2.49,5.698c-1.689,1.846-3.968,2.769-6.835,2.769c-2.471,0-4.547-0.757-6.226-2.272
			c-2.21-2.003-3.316-5.096-3.316-9.278c0-3.176,0.83-5.78,2.49-7.813c1.795-2.208,4.271-3.312,7.427-3.312
			C145.888,138.261,147.978,138.979,149.464,140.415z"/>
		<path fill="#FFFFFF" d="M156.188,138.847h15.615v2.637H159.03v6.533h11.807v2.49H159.03v7.295h12.993v2.563h-15.835V138.847z"/>
		<path fill="#FFFFFF" d="M177.824,153.422c0.066,1.221,0.344,2.212,0.832,2.974c0.932,1.426,2.573,2.139,4.925,2.139
			c1.054,0,2.014-0.156,2.879-0.469c1.675-0.605,2.512-1.689,2.512-3.252c0-1.172-0.354-2.007-1.064-2.505
			c-0.719-0.488-1.845-0.913-3.377-1.274l-2.824-0.659c-1.845-0.43-3.15-0.903-3.917-1.421c-1.324-0.898-1.986-2.241-1.986-4.028
			c0-1.934,0.651-3.521,1.953-4.761s3.146-1.86,5.53-1.86c2.195,0,4.061,0.544,5.596,1.633c1.534,1.089,2.302,2.83,2.302,5.222
			h-2.739c-0.141-1.152-0.44-2.036-0.898-2.651c-0.853-1.123-2.299-1.685-4.34-1.685c-1.648,0-2.833,0.361-3.554,1.084
			s-1.081,1.562-1.081,2.52c0,1.055,0.426,1.826,1.277,2.314c0.559,0.312,1.821,0.703,3.79,1.172l2.924,0.688
			c1.409,0.332,2.497,0.786,3.264,1.362c1.325,1.006,1.987,2.466,1.987,4.38c0,2.383-0.846,4.087-2.536,5.112
			s-3.654,1.538-5.893,1.538c-2.609,0-4.652-0.684-6.128-2.051c-1.478-1.357-2.201-3.198-2.172-5.522H177.824z"/>
		<path fill="#FFFFFF" d="M197.833,153.422c0.066,1.221,0.344,2.212,0.832,2.974c0.932,1.426,2.573,2.139,4.925,2.139
			c1.054,0,2.014-0.156,2.879-0.469c1.675-0.605,2.512-1.689,2.512-3.252c0-1.172-0.354-2.007-1.064-2.505
			c-0.719-0.488-1.845-0.913-3.377-1.274l-2.824-0.659c-1.845-0.43-3.15-0.903-3.917-1.421c-1.324-0.898-1.986-2.241-1.986-4.028
			c0-1.934,0.651-3.521,1.953-4.761s3.146-1.86,5.53-1.86c2.195,0,4.061,0.544,5.596,1.633c1.534,1.089,2.302,2.83,2.302,5.222
			h-2.739c-0.141-1.152-0.44-2.036-0.898-2.651c-0.853-1.123-2.299-1.685-4.34-1.685c-1.648,0-2.833,0.361-3.554,1.084
			s-1.081,1.562-1.081,2.52c0,1.055,0.426,1.826,1.277,2.314c0.559,0.312,1.821,0.703,3.79,1.172l2.924,0.688
			c1.409,0.332,2.497,0.786,3.264,1.362c1.325,1.006,1.987,2.466,1.987,4.38c0,2.383-0.846,4.087-2.536,5.112
			s-3.654,1.538-5.893,1.538c-2.609,0-4.652-0.684-6.128-2.051c-1.478-1.357-2.201-3.198-2.172-5.522H197.833z"/>
	</g>
</g>
</svg>
