<?xml version="1.0" encoding="utf-8"?>
<!-- Generator: Adobe Illustrator 16.0.0, SVG Export Plug-In . SVG Version: 6.00 Build 0)  -->
<!DOCTYPE svg PUBLIC "-//W3C//DTD SVG 1.1//EN" "http://www.w3.org/Graphics/SVG/1.1/DTD/svg11.dtd">
<svg version="1.1" id="Layer_1" xmlns="http://www.w3.org/2000/svg" xmlns:xlink="http://www.w3.org/1999/xlink" x="0px" y="0px"
	 width="220px" height="270px" viewBox="0 0 220 270" enable-background="new 0 0 220 270" xml:space="preserve">
<g>
	<g>
		<path fill="#2C8743" d="M220,260c0,5.521-4.479,10-10,10H10c-5.523,0-10-4.479-10-10V20c0-5.523,4.477-10,10-10h200
			c5.521,0,10,4.477,10,10V260z"/>
		<path fill="#A2CE4B" d="M220,250c0,5.521-4.479,10-10,10H10c-5.523,0-10-4.479-10-10V10C0,4.477,4.477,0,10,0h200
			c5.521,0,10,4.477,10,10V250z"/>
		<g>
			<defs>
				<path id="SVGID_1_" d="M220,250c0,5.521-4.479,10-10,10H10c-5.523,0-10-4.479-10-10V10C0,4.477,4.477,0,10,0h200
					c5.521,0,10,4.477,10,10V250z"/>
			</defs>
			<clipPath id="SVGID_2_">
				<use xlink:href="#SVGID_1_"  overflow="visible"/>
			</clipPath>
			<polygon clip-path="url(#SVGID_2_)" fill="#70AE4F" points="219,2.428 3,260 225.75,260 			"/>
		</g>
	</g>
	<path fill-rule="evenodd" clip-rule="evenodd" fill="#2C8743" d="M203.581,228.267c0,8.284-6.716,15-15,15H29.975
		c-8.284,0-15-6.716-15-15V32.661c0-8.284,6.716-15,15-15h158.606c8.284,0,15,6.716,15,15V228.267z"/>
</g>
<path fill-rule="evenodd" clip-rule="evenodd" fill="#FFFFFF" d="M71.332,197.362c0,4.535-3.778,7.054-7.053,7.054
	c-4.534,0-6.802-3.778-6.802-7.054c0-3.777,3.023-6.801,6.802-6.801C68.309,190.562,71.332,193.585,71.332,197.362z M95.263,165.37
	c3.779,0.253,6.046,3.779,6.046,6.802c0,3.275-3.275,6.55-6.802,6.55H34.05c-4.031-0.756-6.55-3.022-6.55-6.802
	c0-2.52,1.512-6.297,5.542-6.55H95.263z M71.332,144.965c0,4.284-3.527,7.055-7.053,7.055c-4.283,0-6.802-3.275-6.802-6.802
	s2.268-7.054,6.802-7.054C68.058,138.164,71.332,141.438,71.332,144.965z M164.034,142.95v22.673h22.924
	c3.778,1.259,5.542,3.021,5.542,6.297c0,2.268-2.268,6.298-5.291,6.298h-23.175v22.42c0,3.527-4.029,6.298-6.297,6.298
	c-1.765,0-6.298-2.268-6.298-5.038v-23.68h-23.428c-3.778-1.008-5.29-4.03-5.29-6.298c0-2.52,2.015-6.297,5.542-6.297h23.176v-23.68
	c1.511-4.282,3.274-4.787,6.298-4.787S164.034,139.928,164.034,142.95z M186.203,80.981c3.778,0,6.297,3.022,6.297,6.297
	c0,2.268-2.268,6.298-5.291,6.298H127.76c-3.526-1.007-5.038-4.03-5.038-6.298c0-3.274,3.022-6.297,6.046-6.297H186.203z
	 M47.4,60.828c5.29,5.038,10.833,10.832,17.13,16.879c5.542-5.543,11.084-11.589,17.13-17.13c1.008-1.008,3.023-1.261,3.779-1.261
	c3.527,0,6.802,3.023,6.802,6.55c0,0.756-0.252,2.52-1.008,3.526c-5.29,5.795-17.129,17.13-17.129,17.886
	c0,0.505,12.091,11.841,17.633,18.138c1.008,1.009,1.512,3.274,1.512,3.779c0,4.282-3.778,6.801-6.801,6.801
	c-5.039,0-8.313-5.794-11.84-9.068c-1.008-0.756-2.268-2.268-3.275-3.275c-2.015-1.763-6.549-6.55-7.053-6.55
	c-0.756,0-11.84,11.841-17.886,17.382c-1.763,1.512-2.268,1.26-3.778,1.26c-4.535,0-6.802-3.274-6.802-6.801
	c0-0.504,0-2.519,1.008-3.527c5.29-6.046,17.885-17.633,17.885-18.138c0-0.756-10.581-10.58-16.626-16.877
	c-1.763-1.512-1.763-3.023-1.763-4.786c0-3.526,3.023-6.55,6.549-6.55C44.63,59.065,46.141,59.569,47.4,60.828z"/>
</svg>
