<?xml version="1.0" encoding="utf-8"?>
<!-- Generator: Adobe Illustrator 16.0.0, SVG Export Plug-In . SVG Version: 6.00 Build 0)  -->
<!DOCTYPE svg PUBLIC "-//W3C//DTD SVG 1.1//EN" "http://www.w3.org/Graphics/SVG/1.1/DTD/svg11.dtd">
<svg version="1.1" id="Layer_1" xmlns="http://www.w3.org/2000/svg" xmlns:xlink="http://www.w3.org/1999/xlink" x="0px" y="0px"
	 width="220px" height="270px" viewBox="0 0 220 270" enable-background="new 0 0 220 270" xml:space="preserve">
<g>
	<g>
		<path fill="#2C8743" d="M220,260c0,5.521-4.479,10-10,10H10c-5.523,0-10-4.479-10-10V20c0-5.523,4.477-10,10-10h200
			c5.521,0,10,4.477,10,10V260z"/>
		<path fill="#A2CE4B" d="M220,250c0,5.521-4.479,10-10,10H10c-5.523,0-10-4.479-10-10V10C0,4.477,4.477,0,10,0h200
			c5.521,0,10,4.477,10,10V250z"/>
		<g>
			<defs>
				<path id="SVGID_1_" d="M220,250c0,5.521-4.479,10-10,10H10c-5.523,0-10-4.479-10-10V10C0,4.477,4.477,0,10,0h200
					c5.521,0,10,4.477,10,10V250z"/>
			</defs>
			<clipPath id="SVGID_2_">
				<use xlink:href="#SVGID_1_"  overflow="visible"/>
			</clipPath>
			<polygon clip-path="url(#SVGID_2_)" fill="#70AE4F" points="219,2.428 3,260 225.75,260 			"/>
		</g>
	</g>
	<path fill-rule="evenodd" clip-rule="evenodd" fill="#2C8743" d="M203.581,228.267c0,8.284-6.716,15-15,15H29.975
		c-8.284,0-15-6.716-15-15V32.661c0-8.284,6.716-15,15-15h158.606c8.284,0,15,6.716,15,15V228.267z"/>
	<path fill-rule="evenodd" clip-rule="evenodd" fill="#FFFFFF" d="M113.766,44.96c6.841,0.441,13.462,2.207,19.861,4.634
		c11.918,4.635,28.91,18.538,34.869,31.559c0.883,1.986,1.986,4.192,3.09,6.399c0.883,1.987,1.765,3.973,2.428,6.4
		c2.207,6.842,11.916,41.489,11.916,43.477c0,1.765-1.104,3.309-2.869,3.309h-8.385c-2.869-1.102-5.738,2.209-5.738,4.636v32.661
		c-0.883,1.545,0,3.531-1.986,4.635c-1.545,0.662-4.414,1.104-5.076,1.104h-24.938c-3.311-0.441-5.738,3.752-5.297,6.4l0.222,20.523
		c-0.222,1.986,0.661,6.4-2.87,6.621l-29.351-5.297v-79.668c0.442-0.442,0.442-1.103,0.442-1.544c0-1.325,0.662-3.752,1.766-4.856
		c2.648-2.427,6.62-1.765,9.489-2.207l41.27,0.221c0.882-0.221,1.984-0.441,3.088-0.441c5.738-0.663,7.945-6.179,7.945-9.93
		c0-2.648-2.869-6.621-5.959-8.387c2.869-4.854,4.635-5.738,4.635-9.488c0-2.429-0.662-3.752-3.752-5.958
		c-1.324-0.883-2.869-1.767-4.193-2.208c-0.661-0.221-2.206-0.44-2.427-1.544c-0.662-1.985,0-4.193-0.441-5.958
		c0-0.441-0.221-1.325-0.44-1.766c-2.649-6.62-8.607-5.076-12.801-5.958c-0.883,0-1.986-2.208-2.207-2.428
		c-0.662-1.544-1.104-3.31-2.428-4.634c-0.883-1.104-4.414-2.869-5.296-2.869c-2.428,0-7.725,2.427-9.048,2.427
		c-3.311,0-3.973-5.738-11.035-5.738c-5.518,0-7.283,5.738-10.372,5.738c-1.104,0-4.635-2.648-7.283-2.648
		c-6.179,0-9.269,8.827-15.006,10.813c-2.207,0.883-4.635-0.221-6.621,0.442c-1.324,0.221-3.751,5.296-3.751,6.179v4.635
		c-1.104,2.207-4.193,2.648-5.738,3.309c-3.31,1.325-5.518,5.517-5.518,8.387c0,2.207,2.869,7.724,2.869,7.944
		c0,2.207-5.296,3.531-5.296,9.931c0,1.986,0.221,3.751,1.986,6.399c0.883,1.545,4.193,3.531,5.958,3.531h11.917
		c-0.663,1.545-2.208,5.517-2.208,7.504c0,0.661,0,1.986,0.442,2.869c0.22,0.662,0.882,1.323,1.766,1.765
		c0.22,0.221,4.854,1.985,5.517,1.985h8.386c0.883,0.222,1.545,0.222,1.986,0.884c0.662,0.884,1.324,2.647,1.324,3.311
		l-0.221,68.192h-1.104c-5.518-0.662-11.476-0.221-16.993-3.09c-1.545-0.662-2.648-3.311-3.09-4.634
		c-0.441-2.208-0.441-4.636-0.662-6.842l0.221-11.696c-0.221-1.104-0.662-2.428-0.662-3.531c-0.221-9.27-10.373-17.654-13.683-22.73
		c-4.193-6.18-8.165-12.579-10.151-18.979c-1.324-3.752-4.193-15.89-4.193-20.524v-7.723c0.441-3.752,0.882-7.946,1.545-11.697
		c0.662-2.869,1.545-5.739,2.427-8.608c3.311-9.709,10.814-21.626,21.849-30.233c6.841-5.517,17.434-10.594,23.613-12.138
		c3.31-0.662,7.283-1.987,11.034-2.207c2.648-0.221,7.503-0.883,7.945-0.883C107.145,44.739,108.249,44.518,113.766,44.96z"/>
</g>
</svg>
