<?xml version="1.0" encoding="utf-8"?>
<!-- Generator: Adobe Illustrator 16.0.0, SVG Export Plug-In . SVG Version: 6.00 Build 0)  -->
<!DOCTYPE svg PUBLIC "-//W3C//DTD SVG 1.1//EN" "http://www.w3.org/Graphics/SVG/1.1/DTD/svg11.dtd">
<svg version="1.1" id="Layer_1" xmlns="http://www.w3.org/2000/svg" xmlns:xlink="http://www.w3.org/1999/xlink" x="0px" y="0px"
	 width="282.273px" height="222.79px" viewBox="0 0 282.273 222.79" enable-background="new 0 0 282.273 222.79"
	 xml:space="preserve">
<g>
	<circle opacity="0.1" cx="141.137" cy="109.859" r="93.851"/>
	<g>
		<g>
			<g>
				<g>
					
						<path fill="none" stroke="#FCC016" stroke-width="8" stroke-linecap="round" stroke-linejoin="round" stroke-miterlimit="10" d="
						M109.68,102.457c-21.138,0-57.791-29.271-59.917-53.88c-1.672-19.363,7.44-29.308,28.022-19.706"/>
					<ellipse fill="#FCC016" cx="93.867" cy="106.326" rx="6.813" ry="6.606"/>
				</g>
				<g>
					
						<path fill="none" stroke="#FCC016" stroke-width="8" stroke-linecap="round" stroke-linejoin="round" stroke-miterlimit="10" d="
						M172.594,102.457c21.139,0,57.788-29.271,59.917-53.88c1.669-19.363-7.443-29.308-28.022-19.706"/>
					<ellipse fill="#FCC016" cx="188.412" cy="106.326" rx="6.813" ry="6.606"/>
				</g>
			</g>
			<path fill="#FFD636" d="M211.425,6.316c0,61.212-30.209,123.365-70.284,123.365c-40.074,0-70.281-62.153-70.281-123.365"/>
			<path fill="#F8B232" d="M215.944,4.978c0,2.749-2.231,4.978-4.977,4.978H71.317c-2.748,0-4.977-2.229-4.977-4.978l0,0
				C66.34,2.228,68.569,0,71.317,0h139.651C213.713,0,215.944,2.228,215.944,4.978L215.944,4.978z"/>
			<g>
				<rect x="132.107" y="124.826" fill="#FFCD05" width="18.07" height="54.297"/>
				<path fill="#FCC016" d="M154.812,133.18c0,1.886-2.039,3.417-4.562,3.417h-18.22c-2.52,0-4.56-1.532-4.56-3.417v-0.76
					c0-1.887,2.04-3.417,4.56-3.417h18.22c2.522,0,4.562,1.53,4.562,3.417V133.18z"/>
				<path fill="#FCC016" d="M154.812,173.048c0,1.89-2.039,3.419-4.562,3.419h-18.22c-2.52,0-4.56-1.53-4.56-3.419v-0.759
					c0-1.887,2.04-3.418,4.56-3.418h18.22c2.522,0,4.562,1.531,4.562,3.418V173.048z"/>
			</g>
			<g>
				<path fill="#F8B232" d="M163.864,188.686c0,1.887-1.529,3.417-3.417,3.417h-38.612c-1.89,0-3.42-1.53-3.42-3.417v-9.112
					c0-1.888,1.53-3.418,3.42-3.418h38.612c1.888,0,3.417,1.53,3.417,3.418V188.686z"/>
				<path fill="#FFD636" d="M176.045,202.287c0,1.887-1.527,3.416-3.417,3.416h-62.974c-1.887,0-3.419-1.529-3.419-3.416v-12.746
					c0-1.887,1.532-3.417,3.419-3.417h62.974c1.89,0,3.417,1.53,3.417,3.417V202.287z"/>
				<path fill="#FCC016" d="M191.375,219.372c0,1.889-1.529,3.418-3.417,3.418H94.326c-1.89,0-3.419-1.529-3.419-3.418v-13.484
					c0-1.888,1.53-3.418,3.419-3.418h93.632c1.888,0,3.417,1.53,3.417,3.418V219.372z"/>
			</g>
		</g>
	</g>
	<g>
		<polyline fill="#A31E22" points="13.567,163.225 0,142.528 61.815,142.528 61.815,184.204 0,184.204 13.567,163.225 		"/>
		<polyline fill="#A31E22" points="268.706,163.225 282.273,142.528 220.458,142.528 220.458,184.204 282.273,184.204 
			268.706,163.225 		"/>
		<rect x="38.812" y="127.558" fill="#EF423B" width="204.661" height="44.566"/>
	</g>
	<g>
		<path fill="#FFFFFF" d="M66.896,139.462c2.107,1.123,3.397,3.091,3.869,5.903H67.88c-0.344-1.572-1.057-2.717-2.138-3.435
			c-1.081-0.718-2.443-1.077-4.088-1.077c-1.951,0-3.594,0.747-4.928,2.241s-2.001,3.721-2.001,6.68c0,2.559,0.55,4.641,1.651,6.248
			s2.895,2.41,5.383,2.41c1.904,0,3.481-0.564,4.73-1.692s1.888-2.952,1.917-5.471h-6.738v-2.417h9.448v11.514h-1.875l-0.703-2.769
			c-0.971,1.084-1.83,1.836-2.579,2.256c-1.259,0.723-2.858,1.084-4.799,1.084c-2.507,0-4.664-0.825-6.47-2.476
			c-1.969-2.07-2.954-4.912-2.954-8.525c0-3.604,0.962-6.47,2.887-8.599c1.829-2.031,4.197-3.047,7.104-3.047
			C63.72,138.291,65.443,138.681,66.896,139.462z"/>
		<path fill="#FFFFFF" d="M82.187,138.847h3.291l7.81,21.519h-3.193l-2.247-6.445h-8.442l-2.333,6.445h-2.988L82.187,138.847z
			 M87.021,151.547l-3.313-9.507l-3.442,9.507H87.021z"/>
		<path fill="#FFFFFF" d="M95.844,138.847h4.176l6.188,18.193l6.144-18.193h4.147v21.519h-2.783v-12.7
			c0-0.439,0.01-1.167,0.029-2.183s0.029-2.104,0.029-3.267l-6.144,18.149h-2.889l-6.202-18.149v0.659
			c0,0.527,0.015,1.331,0.044,2.41s0.044,1.873,0.044,2.38v12.7h-2.783V138.847z"/>
		<path fill="#FFFFFF" d="M121.186,138.847h15.615v2.637h-12.773v6.533h11.807v2.49h-11.807v7.295h12.993v2.563h-15.835V138.847z"/>
		<path fill="#FFFFFF" d="M166.977,141.923c1.426,1.904,2.139,4.341,2.139,7.31c0,3.213-0.815,5.884-2.446,8.013
			c-1.914,2.5-4.644,3.75-8.188,3.75c-3.311,0-5.913-1.094-7.808-3.281c-1.689-2.109-2.534-4.775-2.534-7.998
			c0-2.91,0.723-5.4,2.168-7.471c1.855-2.656,4.6-3.984,8.232-3.984C162.338,138.261,165.15,139.482,166.977,141.923z
			 M164.406,155.639c1.146-1.842,1.721-3.96,1.721-6.355c0-2.532-0.662-4.569-1.984-6.114c-1.324-1.544-3.133-2.316-5.428-2.316
			c-2.227,0-4.043,0.765-5.449,2.294c-1.406,1.53-2.109,3.785-2.109,6.766c0,2.385,0.604,4.396,1.809,6.033
			c1.207,1.637,3.162,2.456,5.867,2.456C161.4,158.403,163.258,157.482,164.406,155.639z"/>
		<path fill="#FFFFFF" d="M174.293,138.847l6.182,18.325l6.107-18.325h3.268l-7.852,21.519h-3.092l-7.836-21.519H174.293z"/>
		<path fill="#FFFFFF" d="M192.875,138.847h15.615v2.637h-12.773v6.533h11.807v2.49h-11.807v7.295h12.992v2.563h-15.834V138.847z"/>
		<path fill="#FFFFFF" d="M212.957,138.847h9.781c1.611,0,2.939,0.239,3.984,0.718c1.986,0.918,2.979,2.612,2.979,5.083
			c0,1.289-0.268,2.344-0.799,3.164c-0.533,0.82-1.277,1.479-2.234,1.978c0.84,0.342,1.473,0.791,1.896,1.348
			c0.426,0.557,0.662,1.46,0.711,2.71l0.104,2.886c0.029,0.82,0.098,1.431,0.205,1.831c0.176,0.684,0.488,1.123,0.938,1.318v0.483
			h-3.574c-0.098-0.186-0.176-0.425-0.234-0.718s-0.107-0.859-0.146-1.699l-0.176-3.589c-0.066-1.406-0.574-2.349-1.523-2.827
			c-0.541-0.264-1.391-0.396-2.547-0.396h-6.447v9.229h-2.916V138.847z M222.426,148.706c1.328,0,2.381-0.273,3.154-0.82
			c0.775-0.547,1.162-1.533,1.162-2.959c0-1.533-0.541-2.578-1.625-3.135c-0.578-0.293-1.354-0.439-2.322-0.439h-6.922v7.354
			H222.426z"/>
	</g>
</g>
</svg>
