<?xml version="1.0" encoding="utf-8"?>
<!-- Generator: Adobe Illustrator 16.0.0, SVG Export Plug-In . SVG Version: 6.00 Build 0)  -->
<!DOCTYPE svg PUBLIC "-//W3C//DTD SVG 1.1//EN" "http://www.w3.org/Graphics/SVG/1.1/DTD/svg11.dtd">
<svg version="1.1" id="Layer_1" xmlns="http://www.w3.org/2000/svg" xmlns:xlink="http://www.w3.org/1999/xlink" x="0px" y="0px"
	 width="220px" height="270px" viewBox="0 0 220 270" enable-background="new 0 0 220 270" xml:space="preserve">
<g>
	<g>
		<path fill="#2C8743" d="M220,260c0,5.521-4.479,10-10,10H10c-5.523,0-10-4.479-10-10V20c0-5.523,4.477-10,10-10h200
			c5.521,0,10,4.477,10,10V260z"/>
		<path fill="#A2CE4B" d="M220,250c0,5.521-4.479,10-10,10H10c-5.523,0-10-4.479-10-10V10C0,4.477,4.477,0,10,0h200
			c5.521,0,10,4.477,10,10V250z"/>
		<g>
			<defs>
				<path id="SVGID_1_" d="M220,250c0,5.521-4.479,10-10,10H10c-5.523,0-10-4.479-10-10V10C0,4.477,4.477,0,10,0h200
					c5.521,0,10,4.477,10,10V250z"/>
			</defs>
			<clipPath id="SVGID_2_">
				<use xlink:href="#SVGID_1_"  overflow="visible"/>
			</clipPath>
			<polygon clip-path="url(#SVGID_2_)" fill="#70AE4F" points="219,2.428 3,260 225.75,260 			"/>
		</g>
	</g>
	<path fill-rule="evenodd" clip-rule="evenodd" fill="#2C8743" d="M203.581,228.267c0,8.284-6.716,15-15,15H29.975
		c-8.284,0-15-6.716-15-15V32.661c0-8.284,6.716-15,15-15h158.606c8.284,0,15,6.716,15,15V228.267z"/>
</g>
<path fill="#FFFFFF" d="M70.034,144.95v22.673h22.924c3.778,1.259,5.542,3.021,5.542,6.297c0,2.268-2.268,6.298-5.291,6.298H70.034
	v22.421c0,3.526-4.029,6.297-6.298,6.297c-1.764,0-6.297-2.268-6.297-5.037v-23.681H34.011c-3.778-1.008-5.29-4.03-5.29-6.298
	c0-2.52,2.016-6.297,5.543-6.297h23.176v-23.68c1.511-4.282,3.273-4.787,6.297-4.787C66.761,139.156,70.034,141.927,70.034,144.95z
	 M186.203,82.98c3.777,0,6.297,3.022,6.297,6.297c0,2.268-2.268,6.298-5.291,6.298H127.76c-3.525-1.007-5.037-4.03-5.037-6.298
	c0-3.274,3.021-6.297,6.045-6.297H186.203z M72.342,49.857c0,3.281-2.666,5.536-2.666,6.972c0,0.41,0.41,2.46,1.845,2.46h18.66
	l0.615,0.615v18.66c0.615,1.64,1.64,1.845,2.256,1.845c1.845,0,3.076-2.666,6.972-2.666c4.101,0,7.586,2.871,7.586,7.382
	c0,4.101-3.486,7.587-7.586,7.587c-4.512,0-4.921-2.871-6.767-2.871c-0.615,0-2.46,0.615-2.46,1.64v19.484H71.932
	c-2.05,0.41-2.255,1.23-2.255,2.46c0,1.641,2.666,3.691,2.666,6.972c0,4.306-3.691,7.382-7.587,7.382
	c-4.511,0-7.382-3.691-7.382-7.382c0-3.281,2.666-5.331,2.666-6.972c0-1.23-1.025-2.46-2.461-2.46H38.915V91.277
	c-0.205-0.82-2.05-1.435-2.46-1.435c-0.615,0-2.255,1.23-3.281,1.845s-3.076,1.025-3.486,1.025c-4.511,0-7.382-3.691-7.382-7.587
	c0-4.511,2.871-7.382,7.382-7.382c3.486,0,5.536,2.666,6.767,2.666s1.23-0.41,2.46-1.64V59.905l0.615-0.615h18.458
	c1.641-0.615,2.051-1.435,2.051-2.46c0-1.436-2.666-3.691-2.666-6.972c0-4.716,3.486-7.177,7.382-7.177
	C69.266,42.681,72.342,45.551,72.342,49.857z M181.646,146.354v54.193h-19.862c2.159-2.159,3.022-5.397,3.022-7.34
	c0-6.261-5.181-10.147-10.363-10.147c-6.261,0-10.147,5.182-10.147,10.147c0,2.375,1.08,5.397,3.022,7.34h-19.866v-19.65
	c2.591,2.163,4.75,2.811,7.34,2.811c5.397,0,10.151-4.754,10.151-10.151c0-6.045-4.754-10.147-10.151-10.147
	c-2.591,0-4.75,0.432-7.34,2.807v-19.862H181.646z"/>
</svg>
