<?xml version="1.0" encoding="utf-8"?>
<!-- Generator: Adobe Illustrator 16.0.0, SVG Export Plug-In . SVG Version: 6.00 Build 0)  -->
<!DOCTYPE svg PUBLIC "-//W3C//DTD SVG 1.1//EN" "http://www.w3.org/Graphics/SVG/1.1/DTD/svg11.dtd">
<svg version="1.1" id="Layer_1" xmlns="http://www.w3.org/2000/svg" xmlns:xlink="http://www.w3.org/1999/xlink" x="0px" y="0px"
	 width="220px" height="270px" viewBox="0 0 220 270" enable-background="new 0 0 220 270" xml:space="preserve">
<g>
	<g>
		<path fill="#2C8743" d="M220,260c0,5.521-4.479,10-10,10H10c-5.523,0-10-4.479-10-10V20c0-5.523,4.477-10,10-10h200
			c5.521,0,10,4.477,10,10V260z"/>
		<path fill="#A2CE4B" d="M220,250c0,5.521-4.479,10-10,10H10c-5.523,0-10-4.479-10-10V10C0,4.477,4.477,0,10,0h200
			c5.521,0,10,4.477,10,10V250z"/>
		<g>
			<defs>
				<path id="SVGID_1_" d="M220,250c0,5.521-4.479,10-10,10H10c-5.523,0-10-4.479-10-10V10C0,4.477,4.477,0,10,0h200
					c5.521,0,10,4.477,10,10V250z"/>
			</defs>
			<clipPath id="SVGID_2_">
				<use xlink:href="#SVGID_1_"  overflow="visible"/>
			</clipPath>
			<polygon clip-path="url(#SVGID_2_)" fill="#70AE4F" points="219,2.428 3,260 225.75,260 			"/>
		</g>
	</g>
	<path fill-rule="evenodd" clip-rule="evenodd" fill="#2C8743" d="M203.581,228.267c0,8.284-6.716,15-15,15H29.975
		c-8.284,0-15-6.716-15-15V32.661c0-8.284,6.716-15,15-15h158.606c8.284,0,15,6.716,15,15V228.267z"/>
</g>
<path fill-rule="evenodd" clip-rule="evenodd" fill="#FFFFFF" d="M192.172,181.741l-74.702,42.998v-86.362l74.702-42.999V181.741z
	 M102.53,138.013v86.727l-74.702-42.998V94.649L102.53,138.013z M141.885,107.403l-31.339,18.22L35.48,82.26l31.339-18.22
	L141.885,107.403z M184.884,82.26l-28.423,16.397L81.395,55.659l28.423-16.398L184.884,82.26z"/>
</svg>
