<?xml version="1.0" encoding="utf-8"?>
<!-- Generator: Adobe Illustrator 23.0.3, SVG Export Plug-In . SVG Version: 6.00 Build 0)  -->
<svg version="1.1" id="Layer_1" xmlns="http://www.w3.org/2000/svg" xmlns:xlink="http://www.w3.org/1999/xlink" x="0px" y="0px"
	 viewBox="0 0 168 55" style="enable-background:new 0 0 168 55;" xml:space="preserve">
<style type="text/css">
	.st0{fill:#044E77;}
	.st1{fill:#005C97;}
	.st2{clip-path:url(#SVGID_2_);fill:#1E5F84;}
	.st3{fill:#FFFFFF;}
	.st4{fill:#D2D1C3;}
	.st5{fill-rule:evenodd;clip-rule:evenodd;fill:#FFFFFF;}
</style>
<g>
	<path class="st0" d="M168,45c0,5.5-4.5,10-10,10H10C4.5,55,0,50.5,0,45V15C0,9.5,4.5,5,10,5h148c5.5,0,10,4.5,10,10V45z"/>
	<path class="st1" d="M168,40c0,5.5-4.5,10-10,10H10C4.5,50,0,45.5,0,40V10C0,4.5,4.5,0,10,0h148c5.5,0,10,4.5,10,10V40z"/>
	<g>
		<g>
			<defs>
				<path id="SVGID_1_" d="M168,40c0,5.5-4.5,10-10,10H10C4.5,50,0,45.5,0,40V10C0,4.5,4.5,0,10,0h148c5.5,0,10,4.5,10,10V40z"/>
			</defs>
			<clipPath id="SVGID_2_">
				<use xlink:href="#SVGID_1_"  style="overflow:visible;"/>
			</clipPath>
			<polygon class="st2" points="167,2.4 3,50 173.8,50 			"/>
		</g>
	</g>
	<g>
		<path class="st3" d="M158.3,34.1c0,5.5-4.5,10-10,10h-81c-5.5,0-10-4.5-10-10V17.4c0-5.5,4.5-10,10-10h81c5.5,0,10,4.5,10,10V34.1
			z"/>
		<path class="st4" d="M61.6,37.3V20.7c0-5.5,4.5-10,10-10h81c1.3,0,2.6,0.3,3.7,0.7c-1.8-2.4-4.7-4-8-4h-81c-5.5,0-10,4.5-10,10
			v16.7c0,4.2,2.6,7.8,6.3,9.3C62.3,41.7,61.6,39.6,61.6,37.3z"/>
	</g>
	<path class="st5" d="M29.9,18.3v8.5l-8.5,3.3h-0.1c-0.1-0.6-0.3-1.7-0.3-1.8v-1.5l0.1-0.8c0.3-2.8,2.9-6.4,5.9-7.3
		c0.3-0.1,0.8-0.3,1-0.3c0.4,0,0.8-0.1,1.2-0.2H29.9z M41.1,27.4c0,6.4-5.2,11.3-11.3,11.3c-1.1,0-2.6-0.3-3.5-0.5
		c-2.4-0.7-5.5-3.1-6.6-5.7c-0.2-0.5-0.4-1-0.6-1.4c-0.2-0.5-0.3-1-0.4-1.5c0-0.4-0.2-1.2-0.2-1.3v-1.5c0.7-6.8,6-10.5,11.2-10.5
		C36.1,16.1,41.1,21.1,41.1,27.4z M33.1,14.5c0.5,0.1,1.2,0.3,1.8,0.6c0.4,0.2,0.8,0.4,1.3,0.6c5,2.8,7,7.6,7,11.8
		c0,6.3-4.4,11.2-9.6,12.7c-0.3,0-1.9,0.5-2.5,0.5h-2.4c-0.8-0.2-1.7-0.3-2.4-0.5c-0.5-0.2-1-0.3-1.4-0.5c-0.5-0.2-0.9-0.4-1.3-0.6
		c-1.3-0.7-2.8-1.8-3.9-3.2c-0.8-1-1.6-2.2-2-3.3c-0.4-0.9-1-3.2-1-4.3v-1.7c0.1-0.7,0.2-1.5,0.3-2.2c0.5-2.2,1.7-4.7,4-6.8
		c2.2-2.1,5.3-3.2,7.7-3.4c0.4,0,1-0.1,1.2-0.1C30.8,14.1,32.5,14.3,33.1,14.5z M20.5,11c0.5,0,1.3,0.3,1.8,0.8
		c-1.7,0.8-4.1,2.5-5.4,4.1c-0.1-0.5-0.3-1.3-0.3-1.4c0-0.1,0.1-0.7,0.2-1.1c0.4-1.6,2.1-2.4,3.2-2.4C20.2,10.9,20.4,11,20.5,11z
		 M34,6.4c0.1,0.2,0.3,0.2,0.4,0.4c0.3,0.4,0.3,0.5,0.3,0.7c0,0.3-0.2,1-0.7,1h-1.4c0,0,0,0.1-0.1,3.1c0.3,0.1,0.6,0.2,0.9,0.3
		c1.1,0.2,2.2,0.6,3.3,1.1c2.3,1.1,4.8,3,6.4,5.5c0.7,1,1.3,2.2,1.7,3.4c0.2,0.5,1,3.1,1,4.3v2.5c-0.1,1-0.3,2-0.6,3
		c-0.5,2.1-1.8,4.4-3.6,6.4c-1.9,2.2-4.7,3.7-6.8,4.4c-0.8,0.3-1.8,0.5-2.6,0.6c-0.8,0.1-2.2,0.3-2.4,0.3c-0.1,0-1.6-0.2-2.3-0.3
		c-2.6-0.4-5.5-1.4-8.1-3.7c-2.2-1.9-3.9-4.6-4.6-6.8c-0.2-0.6-0.4-1.1-0.5-1.6c-0.2-0.8-0.3-2.2-0.3-2.3v-2.6
		c0.2-2.5,1.1-5.2,2.6-7.6c2.4-3.8,6.6-6.2,10-6.7c0.1,0,0.4,0,0.6-0.2c-0.2-3-0.1-3-0.1-3.1h-1.5c-0.5-0.3-0.6-0.8-0.6-1
		c0-0.1,0-0.3,0-0.4c0.1-0.1,0.1-0.3,0.2-0.3c0.1-0.2,0.3-0.3,0.5-0.4"/>
</g>
</svg>
