<?xml version="1.0" encoding="utf-8"?>
<!-- Generator: Adobe Illustrator 16.0.0, SVG Export Plug-In . SVG Version: 6.00 Build 0)  -->
<!DOCTYPE svg PUBLIC "-//W3C//DTD SVG 1.1//EN" "http://www.w3.org/Graphics/SVG/1.1/DTD/svg11.dtd">
<svg version="1.1" id="Layer_1" xmlns="http://www.w3.org/2000/svg" xmlns:xlink="http://www.w3.org/1999/xlink" x="0px" y="0px"
	 width="220px" height="270px" viewBox="0 0 220 270" enable-background="new 0 0 220 270" xml:space="preserve">
<g>
	<g>
		<path fill="#2C8743" d="M220,260c0,5.521-4.479,10-10,10H10c-5.523,0-10-4.479-10-10V20c0-5.523,4.477-10,10-10h200
			c5.521,0,10,4.477,10,10V260z"/>
		<path fill="#A2CE4B" d="M220,250c0,5.521-4.479,10-10,10H10c-5.523,0-10-4.479-10-10V10C0,4.477,4.477,0,10,0h200
			c5.521,0,10,4.477,10,10V250z"/>
		<g>
			<defs>
				<path id="SVGID_1_" d="M220,250c0,5.521-4.479,10-10,10H10c-5.523,0-10-4.479-10-10V10C0,4.477,4.477,0,10,0h200
					c5.521,0,10,4.477,10,10V250z"/>
			</defs>
			<clipPath id="SVGID_2_">
				<use xlink:href="#SVGID_1_"  overflow="visible"/>
			</clipPath>
			<polygon clip-path="url(#SVGID_2_)" fill="#70AE4F" points="219,2.428 3,260 225.75,260 			"/>
		</g>
	</g>
	<path fill-rule="evenodd" clip-rule="evenodd" fill="#2C8743" d="M203.581,228.267c0,8.284-6.716,15-15,15H29.975
		c-8.284,0-15-6.716-15-15V32.661c0-8.284,6.716-15,15-15h158.606c8.284,0,15,6.716,15,15V228.267z"/>
</g>
<path fill-rule="evenodd" clip-rule="evenodd" fill="#FFFFFF" d="M69.548,175.093c0,5.669-4.455,9.313-9.718,9.313
	c-5.669,0-9.313-4.859-9.313-9.313c0-6.074,4.049-9.313,9.718-9.313C65.093,165.779,69.548,170.233,69.548,175.093z
	 M128.676,118.394c2.025,0,7.289,3.645,7.289,6.074v2.43H69.548v10.123h66.417v59.533c-0.405,2.834-5.669,7.289-8.503,7.289H39.988
	c-4.049-0.405-8.503-5.264-8.503-8.504v-68.846c-0.405-2.429,4.049-8.908,7.693-8.099H128.676z M184.152,116.774v87.878
	c0,1.215-0.405,1.62-0.81,2.43c-0.405,0.81-2.024,2.024-2.834,2.024c-2.43,0-24.296-16.197-28.345-20.247
	c-2.43-2.43-5.264-8.099-5.264-8.909v-38.477c1.62-2.834,2.834-7.289,7.289-10.528c0.81-0.81,21.462-17.817,26.321-17.817
	C182.937,113.13,184.152,114.345,184.152,116.774z M69.548,88.834c0,10.933-10.124,19.032-19.437,19.032
	c-10.934,0-18.627-8.909-18.627-18.627c0-10.934,7.693-18.627,19.032-18.627C61.854,70.612,69.548,78.711,69.548,88.834z
	 M131.51,84.38c0,13.768-11.743,23.486-23.891,23.486c-8.099,0-15.792-3.24-21.469-13.768c-0.81-1.62-1.62-4.455-1.62-5.264v-9.313
	c4.049-14.173,13.371-18.627,23.089-18.627C120.982,60.894,131.51,71.422,131.51,84.38z"/>
</svg>
