<?xml version="1.0" encoding="utf-8"?>
<!-- Generator: Adobe Illustrator 16.0.0, SVG Export Plug-In . SVG Version: 6.00 Build 0)  -->
<!DOCTYPE svg PUBLIC "-//W3C//DTD SVG 1.1//EN" "http://www.w3.org/Graphics/SVG/1.1/DTD/svg11.dtd">
<svg version="1.1" id="Layer_1" xmlns="http://www.w3.org/2000/svg" xmlns:xlink="http://www.w3.org/1999/xlink" x="0px" y="0px"
	 width="168px" height="55px" viewBox="0 0 168 55" enable-background="new 0 0 168 55" xml:space="preserve">
<g>
	<path fill="#3F377A" d="M168,45c0,5.523-4.478,10-10,10H10C4.478,55,0,50.523,0,45V15C0,9.477,4.478,5,10,5h148
		c5.522,0,10,4.477,10,10V45z"/>
	<path fill="#675FA9" d="M168,40c0,5.523-4.478,10-10,10H10C4.478,50,0,45.523,0,40V10C0,4.477,4.478,0,10,0h148
		c5.522,0,10,4.477,10,10V40z"/>
	<g>
		<defs>
			<path id="SVGID_1_" d="M168,40c0,5.523-4.478,10-10,10H10C4.478,50,0,45.523,0,40V10C0,4.477,4.478,0,10,0h148
				c5.522,0,10,4.477,10,10V40z"/>
		</defs>
		<clipPath id="SVGID_2_">
			<use xlink:href="#SVGID_1_"  overflow="visible"/>
		</clipPath>
		<polygon clip-path="url(#SVGID_2_)" fill="#524E9A" points="167,2.429 3,50 173.75,50 		"/>
	</g>
	<g>
		<path fill="#FFFFFF" d="M158.334,34.084c0,5.523-4.478,10-10,10h-81c-5.523,0-10-4.477-10-10V17.417c0-5.523,4.477-10,10-10h81
			c5.522,0,10,4.477,10,10V34.084z"/>
		<path fill="#D2D1C3" d="M61.584,37.334V20.667c0-5.523,4.477-10,10-10h81c1.313,0,2.564,0.26,3.714,0.721
			c-1.825-2.408-4.709-3.971-7.964-3.971h-81c-5.523,0-10,4.477-10,10v16.667c0,4.209,2.604,7.803,6.285,9.279
			C62.348,41.686,61.584,39.602,61.584,37.334z"/>
	</g>
	<path fill-rule="evenodd" clip-rule="evenodd" fill="#FFFFFF" d="M29.893,18.336v8.478l-8.477,3.315h-0.127
		c-0.125-0.588-0.293-1.721-0.293-1.805v-1.469l0.125-0.756c0.253-2.77,2.854-6.421,5.918-7.303
		c0.252-0.083,0.756-0.251,1.049-0.293c0.377-0.042,0.797-0.084,1.217-0.167H29.893z M41.14,27.359c0,6.42-5.204,11.29-11.288,11.29
		c-1.092,0-2.645-0.293-3.484-0.547c-2.392-0.713-5.497-3.146-6.63-5.749c-0.21-0.503-0.42-1.007-0.587-1.427
		c-0.169-0.504-0.295-1.049-0.379-1.51c-0.042-0.42-0.168-1.218-0.168-1.302v-1.469c0.672-6.841,6.002-10.534,11.248-10.534
		C36.146,16.111,41.14,21.105,41.14,27.359z M33.082,14.475c0.504,0.126,1.217,0.335,1.847,0.587c0.42,0.168,0.84,0.377,1.259,0.587
		c5.035,2.77,6.967,7.638,6.967,11.751c0,6.294-4.406,11.248-9.609,12.716c-0.253,0.043-1.932,0.545-2.477,0.545h-2.435
		c-0.756-0.209-1.679-0.293-2.435-0.545c-0.461-0.168-1.007-0.293-1.426-0.461c-0.463-0.168-0.924-0.379-1.302-0.631
		c-1.259-0.713-2.77-1.805-3.86-3.189c-0.798-1.008-1.553-2.182-2.015-3.273c-0.378-0.881-1.007-3.23-1.007-4.322v-1.679
		c0.083-0.713,0.167-1.47,0.335-2.225c0.546-2.224,1.722-4.7,3.987-6.798c2.225-2.099,5.33-3.231,7.722-3.399
		c0.377,0,1.05-0.084,1.175-0.084C30.774,14.055,32.453,14.349,33.082,14.475z M20.534,10.991c0.504,0.042,1.259,0.251,1.805,0.755
		c-1.679,0.839-4.07,2.477-5.414,4.113c-0.126-0.462-0.294-1.301-0.294-1.385c0-0.126,0.126-0.713,0.209-1.091
		c0.421-1.596,2.142-2.435,3.232-2.435C20.199,10.949,20.408,10.991,20.534,10.991z M34.047,6.417
		c0.084,0.168,0.295,0.168,0.42,0.377c0.252,0.378,0.252,0.504,0.252,0.713c0,0.252-0.209,1.049-0.672,1.049h-1.426
		c-0.042,0.042,0,0.084-0.127,3.063c0.295,0.126,0.631,0.21,0.924,0.252c1.092,0.209,2.225,0.629,3.273,1.091
		c2.35,1.092,4.826,3.022,6.379,5.54c0.672,1.049,1.301,2.182,1.722,3.357c0.21,0.545,0.964,3.147,0.964,4.281v2.518
		c-0.125,0.965-0.335,2.014-0.586,3.021c-0.547,2.056-1.764,4.363-3.568,6.42c-1.889,2.184-4.658,3.652-6.841,4.408
		c-0.839,0.25-1.804,0.461-2.56,0.588c-0.756,0.084-2.225,0.25-2.35,0.25c-0.084,0-1.596-0.166-2.309-0.25
		c-2.645-0.42-5.498-1.428-8.1-3.693c-2.225-1.932-3.904-4.576-4.617-6.8c-0.168-0.587-0.377-1.091-0.503-1.637
		c-0.168-0.755-0.337-2.183-0.337-2.267V26.1c0.211-2.477,1.05-5.162,2.645-7.596c2.436-3.777,6.59-6.169,10.029-6.715
		c0.127,0,0.379-0.042,0.588-0.168c-0.209-2.979-0.083-3.021-0.125-3.063h-1.469c-0.546-0.252-0.63-0.755-0.63-1.049
		c0-0.084,0.042-0.293,0.042-0.419c0.084-0.084,0.084-0.252,0.168-0.294c0.126-0.209,0.336-0.251,0.504-0.377"/>
</g>
</svg>
