<?xml version="1.0" encoding="utf-8"?>
<!-- Generator: Adobe Illustrator 23.0.3, SVG Export Plug-In . SVG Version: 6.00 Build 0)  -->
<svg version="1.1" id="Layer_1" xmlns="http://www.w3.org/2000/svg" xmlns:xlink="http://www.w3.org/1999/xlink" x="0px" y="0px"
	 viewBox="0 0 100 55" style="enable-background:new 0 0 100 55;" xml:space="preserve">
<style type="text/css">
	.st0{fill:#044E77;}
	.st1{fill:#005C97;}
	.st2{clip-path:url(#SVGID_2_);fill:#1E5F84;}
	.st3{fill:#FFFFFF;}
	.st4{fill:#D4D2C5;}
</style>
<g>
	<path class="st0" d="M100,45c0,5.5-4.5,10-10,10H10C4.5,55,0,50.5,0,45V15C0,9.5,4.5,5,10,5h80c5.5,0,10,4.5,10,10V45z"/>
	<path class="st1" d="M100,40c0,5.5-4.5,10-10,10H10C4.5,50,0,45.5,0,40V10C0,4.5,4.5,0,10,0h80c5.5,0,10,4.5,10,10V40z"/>
	<g>
		<g>
			<defs>
				<path id="SVGID_1_" d="M100,40c0,5.5-4.5,10-10,10H10C4.5,50,0,45.5,0,40V10C0,4.5,4.5,0,10,0h80c5.5,0,10,4.5,10,10V40z"/>
			</defs>
			<clipPath id="SVGID_2_">
				<use xlink:href="#SVGID_1_"  style="overflow:visible;"/>
			</clipPath>
			<polygon class="st2" points="99,2.4 3,50 105.8,50 			"/>
		</g>
	</g>
	<g>
		<path class="st3" d="M90.3,34.1c0,5.5-4.5,10-10,10h-61c-5.5,0-10-4.5-10-10V17.4c0-5.5,4.5-10,10-10h61c5.5,0,10,4.5,10,10V34.1z
			"/>
		<path class="st4" d="M13.6,37.3V20.7c0-5.5,4.5-10,10-10h61c1.3,0,2.6,0.3,3.7,0.7c-1.8-2.4-4.7-4-8-4h-61c-5.5,0-10,4.5-10,10
			v16.7c0,4.2,2.6,7.8,6.3,9.3C14.3,41.7,13.6,39.6,13.6,37.3z"/>
	</g>
</g>
</svg>
