<?xml version="1.0" encoding="utf-8"?>
<!-- Generator: Adobe Illustrator 16.0.0, SVG Export Plug-In . SVG Version: 6.00 Build 0)  -->
<!DOCTYPE svg PUBLIC "-//W3C//DTD SVG 1.1//EN" "http://www.w3.org/Graphics/SVG/1.1/DTD/svg11.dtd">
<svg version="1.1" id="Layer_1" xmlns="http://www.w3.org/2000/svg" xmlns:xlink="http://www.w3.org/1999/xlink" x="0px" y="0px"
	 width="100px" height="55px" viewBox="0 0 100 55" enable-background="new 0 0 100 55" xml:space="preserve">
<g>
	<path fill="#964a03" d="M100,45c0,5.523-4.478,10-10,10H10C4.478,55,0,50.523,0,45V15C0,9.477,4.478,5,10,5h80
		c5.522,0,10,4.477,10,10V45z"/>
	<path fill="#E57102" d="M100,40c0,5.523-4.478,10-10,10H10C4.478,50,0,45.523,0,40V10C0,4.477,4.478,0,10,0h80
		c5.522,0,10,4.477,10,10V40z"/>
	<g>
		<defs>
			<path id="SVGID_1_" d="M100,40c0,5.523-4.478,10-10,10H10C4.478,50,0,45.523,0,40V10C0,4.477,4.478,0,10,0h80
				c5.522,0,10,4.477,10,10V40z"/>
		</defs>
		<clipPath id="SVGID_2_">
			<use xlink:href="#SVGID_1_"  overflow="visible"/>
		</clipPath>
		<polygon clip-path="url(#SVGID_2_)" fill="#C85E1C" points="99,2.429 3,50 105.75,50 		"/>
	</g>
	<g>
		<path fill="#FFFFFF" d="M90.334,34.083c0,5.523-4.478,10-10,10h-61c-5.523,0-10-4.477-10-10V17.417c0-5.523,4.477-10,10-10h61
			c5.522,0,10,4.477,10,10V34.083z"/>
		<path fill="#D4D2C5" d="M13.583,37.333V20.667c0-5.523,4.477-10,10-10h61c1.313,0,2.564,0.26,3.714,0.721
			c-1.825-2.408-4.709-3.971-7.964-3.971h-61c-5.523,0-10,4.477-10,10v16.667c0,4.209,2.604,7.804,6.286,9.279
			C14.347,41.685,13.583,39.601,13.583,37.333z"/>
	</g>
</g>
</svg>
