<?xml version="1.0" encoding="utf-8"?>
<!-- Generator: Adobe Illustrator 24.1.0, SVG Export Plug-In . SVG Version: 6.00 Build 0)  -->
<svg version="1.1" id="Layer_1" xmlns="http://www.w3.org/2000/svg" xmlns:xlink="http://www.w3.org/1999/xlink" x="0px" y="0px"
	 viewBox="0 0 185 185" style="enable-background:new 0 0 185 185;" xml:space="preserve">
<style type="text/css">
	.st0{opacity:0.2;}
	.st1{fill:#FFFFFF;}
	.st2{clip-path:url(#SVGID_2_);fill:#FFFFFF;}
</style>
<g>
	<g class="st0">
		<rect x="2.5" y="2.5" class="st1" width="180" height="180"/>
		<path class="st1" d="M180,5v175H5V5H180 M185,0H0v185h185V0L185,0z"/>
	</g>
	<g>
		<defs>
			<rect id="SVGID_1_" width="185" height="185"/>
		</defs>
		<clipPath id="SVGID_2_">
			<use xlink:href="#SVGID_1_"  style="overflow:visible;"/>
		</clipPath>
		<path class="st2" d="M753.9-82l-38.6-71.3l11.4-30.5c0.1-0.3,0.1-0.7,0-1.1l-17.5-46.7c0-0.1-0.1-0.3-0.2-0.4l-44.6-60.1
			l-7.7-17.3c-0.1-0.1-0.1-0.3-0.2-0.4l-11.7-13.6c-0.2-0.3-0.6-0.5-0.9-0.5l-27.2-3.9c-0.4-0.1-0.8,0.1-1.1,0.3L599-314.6l-1.4-0.6
			l-0.3,0.6L574-320l-73.8-17.5L445.8-355c0,0-0.1,0-0.1,0c-0.1,0-0.1,0-0.2,0c0,0-0.1,0-0.1,0l-79.7-5.8c-0.2,0-0.5,0-0.7,0.1
			l-52.3,21.3l-56,7.7l-120.4-9.7l-64.2-5.8c-0.3,0-0.6,0-0.8,0.2l-54.4,29.2c-0.1,0.1-0.2,0.1-0.3,0.2l-60.3,52.5
			c-0.1,0.1-0.1,0.1-0.2,0.2L-75-224.2c-0.1,0.1-0.2,0.3-0.2,0.4l-31.1,85.6c-0.1,0.2-0.1,0.4-0.1,0.6l3.9,52.3l-11.6,73.3
			l-40.6,52.2l-19.4,27.2c-0.2,0.3-0.3,0.7-0.3,1.1l5.8,38.9c0,0.2,0.1,0.5,0.3,0.7l1.1,1.5l-0.2,1l1.1,0.2l23.3,32.2
			c0.1,0.1,0.1,0.1,0.2,0.2l36.9,35c0.1,0.1,0.2,0.2,0.3,0.2l21.4,11.7c0.2,0.1,0.5,0.2,0.7,0.2h27.2c0.4,0,0.7-0.1,1-0.4l15.6-13.6
			c0.3-0.3,0.5-0.7,0.5-1.1V152c0-0.5-0.3-1-0.8-1.3l-17.4-9.7L-82,125.9v-17.9l20.9-19l73-65.5l-7.5,93.5c0,0.2,0,0.3,0,0.5
			l7.8,31.1c0.1,0.4,0.3,0.7,0.7,0.9l25.3,15.6c0.2,0.1,0.5,0.2,0.7,0.2l100.9,3.8l0.9,1.4l2.5-1.7l22.7-9.5
			c0.4-0.2,0.7-0.5,0.8-0.9l5.8-15.6c0.1-0.4,0.1-0.7,0-1.1l-7.8-19.4c-0.2-0.6-0.8-0.9-1.4-0.9l-15.5,0l-38.1-1.9L99,103.1
			l7.6-30.5c0,0,0-0.1,0-0.1l7.7-51.9l16.5-12.8l28.5,5.7c0.1,0,0.2,0,0.3,0l56.3-1.9l35.8,1.9l7.4,25.9l-7.8,114.5
			c0,0.3,0.1,0.7,0.3,1l12.7,18.2l0.8,1.8l0.4-0.2c0.1,0.1,0.2,0.1,0.3,0.2l35,15.6c0.2,0.1,0.4,0.1,0.6,0.1h64.2c0.1,0,0.2,0,0.3,0
			l38.9-7.8c0.6-0.1,1.1-0.7,1.2-1.3l1.9-19.4c0-0.4-0.1-0.8-0.3-1.1l-15.6-19.4c-0.3-0.4-0.7-0.6-1.2-0.6h-19.2l-20.5-5.6
			l-7.3-16.3l13.4-46.1l39.4-97.6L420.7,34c0.1,0.2,0.2,0.3,0.3,0.5l44.6,48.5l31.1,50.5l19.4,29.2c0.3,0.4,0.7,0.7,1.2,0.7h118.6
			c0.5,0,0.9-0.2,1.2-0.6l13.6-19.4c0.3-0.5,0.4-1.2,0-1.7l-13.6-21.4c-0.2-0.4-0.7-0.6-1.1-0.7l-47.4-5.1l-0.4-0.3
			c-0.5-0.5-1.3-0.6-1.9-0.1l-0.3,0.2l-3.8-0.4l-34.6-57.6L511-33.1L507.2-79l14.8-24.1l37.6,3.8l26.5,18.2l-0.2,1.5l3,0.5l0-0.1
			l1.5,1.1c0.1,0.1,0.2,0.1,0.4,0.2l71.9,23.3c0.1,0,0.3,0.1,0.4,0.1l38.9,1.9c0.3,0,0.5,0,0.8-0.2L753.3-80
			c0.4-0.2,0.6-0.5,0.7-0.9C754.1-81.3,754.1-81.7,753.9-82z M712.4-152.5l22.3,41.2l-10.7,43.3l0.6,0.2l-22.5,12.1l-107.1-63
			l3.4-21.6L722.8-182l-10.6,28.2C712.1-153.4,712.2-152.9,712.4-152.5z M449.7-226.7l145.7,85.9l-3.4,21.5l-70.1,13L449.7-226.7z
			 M545.2-305.4l49.2,160.5l-147.6-87v-119.3L545.2-305.4z M706.5-230.3l16.9,45L598-143.5l-49.1-160.1l37.1,17.3l5.7,30.4
			c0.1,0.5,0.4,0.9,0.9,1.1l21.4,9.7c0.2,0.1,0.4,0.1,0.6,0.1c0.4,0,0.7-0.1,1-0.4l47.4-43.6L706.5-230.3z M616.9-324.7l26,3.7
			l11.2,13l7.3,16.3l-47.1,43.3l-19.8-9l-5.6-29.9l10.3-24c0.3,0,0.5-0.1,0.8-0.3L616.9-324.7z M499.5-334.6l73.9,17.5l22.8,5.3
			l-9.6,22.4l-118.8-55.3l31.6,10.2C499.4-334.6,499.4-334.6,499.5-334.6z M-41.6-263.1l60-52.3l53.9-28.9l63.7,5.8l120.5,9.7
			c0.1,0,0.2,0,0.3,0l54.2-7.5l-47.5,180.6L96.9-253.3l-23.4-89l-2.9,0.8l23.2,88.2l-125.9,72.3l-39.7-42.4L-41.6-263.1z
			 M119.1-157.1L96.4-43.6L-30-178.7l124.6-71.6L119.1-157.1z M122.1-156.9c0-0.2,0-0.5,0-0.7L98-249.1l163.7,96L99.5-43.8
			L122.1-156.9z M-171.3,68.8l19.1-26.7l40.8-52.5c0.2-0.2,0.3-0.4,0.3-0.7l9.8-61.9L-85,109.3v15.6l-79.6-16.7l-1.1-1.5
			L-171.3,68.8z M-140.7,141.3l-21.3-29.5l77,16.1v58.5l-19-10.4L-140.7,141.3z M-58.9,143.6l16.7,9.3v21.8l-14.6,12.8H-82v-58
			L-58.9,143.6z M-63.1,86.7l-19.3,17.6L-99.5-85.3l-3.9-52.2l30.2-83l38.4,41l-67,38.5l1.5,2.6l67.6-38.8L95.1-40.7L12.9,18.6
			c0,0,0,0-0.1,0.1c0,0-0.1,0-0.1,0L-63.1,86.7z M39.5,162.2l-24.2-14.9l93.1-24.7l29.4,43.3L39.5,162.2z M162.4,124.3l7.2,18
			l-5.4,14.4l-22.4,9.3l-0.3,0l-29.6-43.5l36,1.8H162.4z M106.6,120l-92.2,24.5l-6.9-27.6L15,23.1l81.2,81.2L106.6,120z M112,18.6
			c-0.3,0.2-0.5,0.6-0.6,1L103.6,72l-7.1,28.5L17,20.9L125.2,8.3L112,18.6z M215.9,8.6l-56.2,1.9l-29-5.8c-0.2,0-0.3,0-0.5,0l0,0
			L19.3,17.6l78.9-56.9l164.6-111L251.5,10.4L216,8.6C216,8.6,215.9,8.6,215.9,8.6z M269.3,173l79.9-34.5l14.5,48.9h-61.8L269.3,173
			z M371.5,143.8h18.7l14.7,18.4l-1.8,17.7l-36.5,7.3l-14.4-48.6l18.8,5.1C371.2,143.8,371.4,143.8,371.5,143.8z M348.1,135.7
			l-81.5,35.2l-12.2-17.4l7.5-110.9l79.1,77.2L348.1,135.7z M395.4-29.4L354.5,71.7c0,0,0,0.1,0,0.1l-12.9,44.3L262,38.4l-7.6-26.6
			l11.5-163.1l235.6,72.2L396.1-30.2l0,0C395.8-30,395.5-29.7,395.4-29.4z M587.4,117.2l44.8,43H525.9l61-43.1L587.4,117.2z
			 M635,122.3l12.7,19.9l-12,17.2l-43.4-41.7L635,122.3z M580.2,115.8c0.2,0.4,0.7,0.7,1.1,0.7l1.1,0.1l-61.7,43.6h-2.6l-19-28.5
			L468,81.2c-0.1-0.1-0.1-0.2-0.2-0.2l-41.7-45.3l119.3,22.4L580.2,115.8z M508-32.6c0,0.2,0,0.3,0.1,0.4L544,54.7L423.1,32.1
			l-24.4-60.1l105.6-49L508-32.6z M505-81.1l-238.6-73.1l48.1-182.6l51.5-21l78,5.7V-231c0,0.3,0.1,0.5,0.2,0.8l75.4,125.6L505-81.1
			z M560.9-102c-0.2-0.1-0.4-0.2-0.7-0.3l-28.4-2.8l59.7-11.1l-5,31.8L560.9-102z M591.9-80.7l-2.6-1.8l5.2-33.2L696-55.9l-32.6-1.6
			L591.9-80.7z M727.3-69.4l9.4-38l13.8,25.5L727.3-69.4z"/>
	</g>
	<g>
		<path class="st1" d="M180,5v175H5V5H180 M185,0H0v185h185V0L185,0z"/>
	</g>
</g>
</svg>
