<?xml version="1.0" encoding="utf-8"?>
<!-- Generator: Adobe Illustrator 24.1.0, SVG Export Plug-In . SVG Version: 6.00 Build 0)  -->
<svg version="1.1" id="Layer_1" xmlns="http://www.w3.org/2000/svg" xmlns:xlink="http://www.w3.org/1999/xlink" x="0px" y="0px"
	 viewBox="0 0 928.5 551.3" style="enable-background:new 0 0 928.5 551.3;" xml:space="preserve">
<style type="text/css">
	.st0{fill:#FFFFFF;}
</style>
<path class="st0" d="M928.3,278.8l-38.6-71.3l11.4-30.5c0.1-0.3,0.1-0.7,0-1.1l-17.5-46.7c0-0.1-0.1-0.3-0.2-0.4l-44.6-60.1
	l-7.7-17.3c-0.1-0.1-0.1-0.3-0.2-0.4l-11.7-13.6c-0.2-0.3-0.6-0.5-0.9-0.5l-27.2-3.9c-0.4-0.1-0.8,0.1-1.1,0.3l-16.5,12.9l-1.4-0.6
	l-0.3,0.6l-23.3-5.4l-73.8-17.5L620.3,5.9c0,0-0.1,0-0.1,0c-0.1,0-0.1,0-0.2,0c0,0-0.1,0-0.1,0L540.2,0c-0.2,0-0.5,0-0.7,0.1
	l-52.3,21.3l-56,7.7l-120.4-9.7l-64.2-5.8c-0.3,0-0.6,0-0.8,0.2L191.3,43c-0.1,0.1-0.2,0.1-0.3,0.2l-60.3,52.5
	c-0.1,0.1-0.1,0.1-0.2,0.2l-31.1,40.8c-0.1,0.1-0.2,0.3-0.2,0.4l-31.1,85.6c-0.1,0.2-0.1,0.4-0.1,0.6l3.9,52.3l-11.6,73.3
	l-40.6,52.2L0.3,428.4c-0.2,0.3-0.3,0.7-0.3,1.1l5.8,38.9c0,0.2,0.1,0.5,0.3,0.7l1.1,1.5l-0.2,1l1.1,0.2L31.4,504
	c0.1,0.1,0.1,0.1,0.2,0.2l36.9,35c0.1,0.1,0.2,0.2,0.3,0.2l21.4,11.7c0.2,0.1,0.5,0.2,0.7,0.2h27.2c0.4,0,0.7-0.1,1-0.4l15.6-13.6
	c0.3-0.3,0.5-0.7,0.5-1.1v-23.3c0-0.5-0.3-1-0.8-1.3l-17.4-9.7l-24.6-15.1v-17.9l20.9-19l73-65.5l-7.5,93.5c0,0.2,0,0.3,0,0.5
	l7.8,31.1c0.1,0.4,0.3,0.7,0.7,0.9l25.3,15.6c0.2,0.1,0.5,0.2,0.7,0.2l100.9,3.8l0.9,1.4l2.5-1.7l22.7-9.5c0.4-0.2,0.7-0.5,0.8-0.9
	l5.8-15.6c0.1-0.4,0.1-0.7,0-1.1l-7.8-19.4c-0.2-0.6-0.8-0.9-1.4-0.9l-15.5,0l-38.1-1.9L273.4,464l7.6-30.5c0,0,0-0.1,0-0.1
	l7.7-51.9l16.5-12.8l28.5,5.7c0.1,0,0.2,0,0.3,0l56.3-1.9l35.8,1.9l7.4,25.9l-7.8,114.5c0,0.3,0.1,0.7,0.3,1l12.7,18.2l0.8,1.8
	l0.4-0.2c0.1,0.1,0.2,0.1,0.3,0.2l35,15.6c0.2,0.1,0.4,0.1,0.6,0.1h64.2c0.1,0,0.2,0,0.3,0l38.9-7.8c0.6-0.1,1.1-0.7,1.2-1.3
	l1.9-19.4c0-0.4-0.1-0.8-0.3-1.1l-15.6-19.4c-0.3-0.4-0.7-0.6-1.2-0.6h-19.2l-20.5-5.6l-7.3-16.3l13.4-46.1l39.4-97.6l23.9,58.8
	c0.1,0.2,0.2,0.3,0.3,0.5l44.6,48.5l31.1,50.5l19.4,29.2c0.3,0.4,0.7,0.7,1.2,0.7h118.6c0.5,0,0.9-0.2,1.2-0.6l13.6-19.4
	c0.3-0.5,0.4-1.2,0-1.7l-13.6-21.4c-0.2-0.4-0.7-0.6-1.1-0.7l-47.4-5.1l-0.4-0.3c-0.5-0.5-1.3-0.6-1.9-0.1l-0.3,0.2l-3.8-0.4
	l-34.6-57.6l-36.8-89.1l-3.8-45.9l14.8-24.1l37.6,3.8l26.5,18.2l-0.2,1.5l3,0.5l0-0.1l1.5,1.1c0.1,0.1,0.2,0.1,0.4,0.2l71.9,23.3
	c0.1,0,0.3,0.1,0.4,0.1l38.9,1.9c0.3,0,0.5,0,0.8-0.2l50.6-27.2c0.4-0.2,0.6-0.5,0.7-0.9C928.6,279.6,928.5,279.2,928.3,278.8z
	 M886.8,208.3l22.3,41.2l-10.7,43.3l0.6,0.2L876.5,305l-107.1-63l3.4-21.6l124.5-41.5l-10.6,28.2
	C886.6,207.5,886.6,207.9,886.8,208.3z M624.1,134.1L769.8,220l-3.4,21.5l-70.1,13L624.1,134.1z M719.7,55.5L768.9,216l-147.6-87
	V9.7L719.7,55.5z M880.9,130.5l16.9,45l-125.4,41.8L723.3,57.2l37.1,17.3l5.7,30.4c0.1,0.5,0.4,0.9,0.9,1.1l21.4,9.7
	c0.2,0.1,0.4,0.1,0.6,0.1c0.4,0,0.7-0.1,1-0.4l47.4-43.6L880.9,130.5z M791.3,36.1l26,3.7l11.2,13l7.3,16.3l-47.1,43.3l-19.8-9
	l-5.6-29.9l10.3-24c0.3,0,0.5-0.1,0.8-0.3L791.3,36.1z M673.9,26.3l73.9,17.5l22.8,5.3L761,71.4L642.2,16.1l31.6,10.2
	C673.8,26.3,673.9,26.3,673.9,26.3z M132.9,97.8l60-52.3l53.9-28.9l63.7,5.8l120.5,9.7c0.1,0,0.2,0,0.3,0l54.2-7.5L438,205.3
	l-166.7-97.7l-23.4-89l-2.9,0.8l23.2,88.2l-125.9,72.3l-39.7-42.4L132.9,97.8z M293.6,203.8l-22.7,113.5l-126.4-135L269,110.6
	L293.6,203.8z M296.6,204c0-0.2,0-0.5,0-0.7l-24.1-91.6l163.7,96L273.9,317.1L296.6,204z M3.1,429.6L22.1,403L63,350.5
	c0.2-0.2,0.3-0.4,0.3-0.7l9.8-61.9l16.4,182.3v15.6L9.9,469.1l-1.1-1.5L3.1,429.6z M33.7,502.1l-21.3-29.5l77,16.1v58.5l-19-10.4
	L33.7,502.1z M115.5,504.4l16.7,9.3v21.8l-14.6,12.8H92.4v-58L115.5,504.4z M111.3,447.6L92,465.1L74.9,275.5l-3.9-52.2l30.2-83
	l38.4,41l-67,38.5l1.5,2.6l67.6-38.8l127.7,136.4l-82.2,59.3c0,0,0,0-0.1,0.1c0,0-0.1,0-0.1,0L111.3,447.6z M213.9,523l-24.2-14.9
	l93.1-24.7l29.4,43.3L213.9,523z M336.9,485.2l7.2,18l-5.4,14.4l-22.4,9.3l-0.3,0l-29.6-43.5l36,1.8H336.9z M281,480.8l-92.2,24.5
	l-6.9-27.6l7.5-93.7l81.2,81.2L281,480.8z M286.4,379.5c-0.3,0.2-0.5,0.6-0.6,1l-7.8,52.4l-7.1,28.5l-79.5-79.5l108.2-12.6
	L286.4,379.5z M390.3,369.4l-56.2,1.9l-29-5.8c-0.2,0-0.3,0-0.5,0l0,0l-110.9,12.9l78.9-56.9l164.6-111l-11.3,160.7l-35.5-1.9
	C390.4,369.4,390.4,369.4,390.3,369.4z M443.7,533.8l79.9-34.5l14.5,48.9h-61.8L443.7,533.8z M545.9,504.6h18.7l14.7,18.4l-1.8,17.7
	l-36.5,7.3l-14.4-48.6l18.8,5.1C545.6,504.6,545.8,504.6,545.9,504.6z M522.5,496.5L441,531.7l-12.2-17.4l7.5-110.9l79.1,77.2
	L522.5,496.5z M569.8,331.5L529,432.6c0,0,0,0.1,0,0.1L516,477l-79.6-77.7l-7.6-26.6l11.5-163.1l235.6,72.2l-105.3,48.9l0,0
	C570.2,330.8,569.9,331.1,569.8,331.5z M761.8,478.1l44.8,43H700.4l61-43.1L761.8,478.1z M809.5,483.2l12.7,19.9l-12,17.2
	l-43.4-41.7L809.5,483.2z M754.6,476.7c0.2,0.4,0.7,0.7,1.1,0.7l1.1,0.1l-61.7,43.6h-2.6l-19-28.5l-31.1-50.6
	c-0.1-0.1-0.1-0.2-0.2-0.2l-41.7-45.3L720,418.9L754.6,476.7z M682.5,328.3c0,0.2,0,0.3,0.1,0.4l35.9,86.9l-120.9-22.7l-24.4-60.1
	l105.6-49L682.5,328.3z M679.4,279.7l-238.6-73.1L488.8,24l51.5-21l78,5.7v121.1c0,0.3,0.1,0.5,0.2,0.8l75.4,125.6L679.4,279.7z
	 M735.4,258.9c-0.2-0.1-0.4-0.2-0.7-0.3l-28.4-2.8l59.7-11.1l-5,31.8L735.4,258.9z M766.3,280.1l-2.6-1.8l5.2-33.2L870.4,305
	l-32.6-1.6L766.3,280.1z M901.8,291.4l9.4-38l13.8,25.5L901.8,291.4z"/>
</svg>
