<?xml version="1.0" encoding="utf-8"?>
<!-- Generator: Adobe Illustrator 24.1.0, SVG Export Plug-In . SVG Version: 6.00 Build 0)  -->
<svg version="1.1" id="Layer_1" xmlns="http://www.w3.org/2000/svg" xmlns:xlink="http://www.w3.org/1999/xlink" x="0px" y="0px"
	 viewBox="0 0 185 185" style="enable-background:new 0 0 185 185;" xml:space="preserve">
<style type="text/css">
	.st0{fill:#107FC9;}
	.st1{clip-path:url(#SVGID_2_);fill:#FFFFFF;}
	.st2{fill:#FFFFFF;}
</style>
<rect class="st0" width="182.8" height="182.8"/>
<g>
	<g>
		<g>
			<defs>
				<rect id="SVGID_1_" width="185" height="185"/>
			</defs>
			<clipPath id="SVGID_2_">
				<use xlink:href="#SVGID_1_"  style="overflow:visible;"/>
			</clipPath>
			<path class="st1" d="M282.5-82L244-153.4l11.4-30.5c0.1-0.3,0.1-0.7,0-1.1l-17.5-46.7c0-0.1-0.1-0.3-0.2-0.4l-44.6-60.1
				l-7.7-17.3c-0.1-0.1-0.1-0.3-0.2-0.4l-11.7-13.6c-0.2-0.3-0.6-0.5-0.9-0.5l-27.2-3.9c-0.4-0.1-0.8,0.1-1.1,0.3l-16.5,12.9
				l-1.4-0.6l-0.3,0.6l-23.3-5.4L29-337.6L-25.5-355h-0.1c-0.1,0-0.1,0-0.2,0h-0.1l-79.7-5.8c-0.2,0-0.5,0-0.7,0.1l-52.3,21.3
				l-56,7.7l-120.4-9.7l-64.2-5.8c-0.3,0-0.6,0-0.8,0.2l-54.4,29.2c-0.1,0.1-0.2,0.1-0.3,0.2l-60.3,52.5c-0.1,0.1-0.1,0.1-0.2,0.2
				l-31.1,40.8c-0.1,0.1-0.2,0.3-0.2,0.4l-31.1,85.6c-0.1,0.2-0.1,0.4-0.1,0.6l3.9,52.3l-11.6,73.3L-626,40.3l-19.4,27.2
				c-0.2,0.3-0.3,0.7-0.3,1.1l5.8,38.9c0,0.2,0.1,0.5,0.3,0.7l1.1,1.5l-0.2,1l1.1,0.2l23.3,32.2c0.1,0.1,0.1,0.1,0.2,0.2l36.9,35
				c0.1,0.1,0.2,0.2,0.3,0.2l21.4,11.7c0.2,0.1,0.5,0.2,0.7,0.2h27.2c0.4,0,0.7-0.1,1-0.4l15.6-13.6c0.3-0.3,0.5-0.7,0.5-1.1V152
				c0-0.5-0.3-1-0.8-1.3l-17.4-9.7l-24.6-15.1V108l20.9-19l73-65.5l-7.5,93.5c0,0.2,0,0.3,0,0.5l7.8,31.1c0.1,0.4,0.3,0.7,0.7,0.9
				l25.3,15.6c0.2,0.1,0.5,0.2,0.7,0.2l100.9,3.8l0.9,1.4l2.5-1.7l22.7-9.5c0.4-0.2,0.7-0.5,0.8-0.9l5.8-15.6c0.1-0.4,0.1-0.7,0-1.1
				l-7.8-19.4c-0.2-0.6-0.8-0.9-1.4-0.9h-15.5l-38.1-1.9l-10.9-16.3l7.6-30.5v-0.1l7.7-51.9l16.5-12.8l28.5,5.7c0.1,0,0.2,0,0.3,0
				l56.3-1.9l35.8,1.9l7.4,25.9l-7.8,114.5c0,0.3,0.1,0.7,0.3,1l12.9,18l0.8,1.8l0.4-0.2c0.1,0.1,0.2,0.1,0.3,0.2l35,15.6
				c0.2,0.1,0.4,0.1,0.6,0.1h64.2c0.1,0,0.2,0,0.3,0l38.9-7.8c0.6-0.1,1.1-0.7,1.2-1.3l1.9-19.4c0-0.4-0.1-0.8-0.3-1.1l-15.6-19.4
				c-0.3-0.4-0.7-0.6-1.2-0.6h-19.2l-20.5-5.6l-7.3-16.3l13.4-46.1l39.4-97.6l24,58.7c0.1,0.2,0.2,0.3,0.3,0.5L-5.8,83l31.1,50.5
				l19.4,29.2c0.3,0.4,0.7,0.7,1.2,0.7h118.6c0.5,0,0.9-0.2,1.2-0.6l13.6-19.4c0.3-0.5,0.4-1.2,0-1.7l-13.6-21.4
				c-0.2-0.4-0.7-0.6-1.1-0.7l-47.4-5.1L117,114c-0.5-0.5-1.3-0.6-1.9-0.1l-0.3,0.2l-3.8-0.4L76.5,56.1L39.6-33.1L35.8-79l14.8-24.1
				l37.6,3.8l26.5,18.2l-0.2,1.5l3,0.5v-0.1l1.5,1.1c0.1,0.1,0.2,0.1,0.4,0.2l71.9,23.3c0.1,0,0.3,0.1,0.4,0.1l38.9,1.9
				c0.3,0,0.5,0,0.8-0.2L281.9-80c0.4-0.2,0.6-0.5,0.7-0.9C282.8-81.3,282.7-81.7,282.5-82z M241-152.5l22.3,41.2L252.6-68l0.6,0.2
				l-22.5,12.1l-107.1-63l3.4-21.6L251.5-182l-10.6,28.2C240.8-153.4,240.8-152.9,241-152.5z M-21.7-226.7L124-140.8l-3.4,21.5
				l-70.1,13L-21.7-226.7z M73.9-305.4l49.2,160.5l-147.6-87v-119.3L73.9-305.4z M235.2-230.3l16.9,45l-125.4,41.8L77.5-303.7
				l37.1,17.3l5.7,30.4c0.1,0.5,0.4,0.9,0.9,1.1l21.4,9.7c0.2,0.1,0.4,0.1,0.6,0.1c0.4,0,0.7-0.1,1-0.4l47.4-43.6L235.2-230.3z
				 M145.5-324.7l26,3.7l11.2,13l7.3,16.3l-47.1,43.3l-19.8-9l-5.6-29.9l10.3-24c0.3,0,0.5-0.1,0.8-0.3L145.5-324.7z M28.1-334.6
				l73.9,17.5l22.8,5.3l-9.6,22.4L-3.6-344.8L28-334.6H28.1z M-512.9-263.1l60-52.3l53.9-28.9l63.7,5.8l120.5,9.7c0.1,0,0.2,0,0.3,0
				l54.2-7.5l-47.5,180.6l-166.7-97.7l-23.4-89l-2.9,0.8l23.2,88.2l-125.9,72.3l-39.7-42.4L-512.9-263.1z M-352.2-157.1l-22.7,113.5
				l-126.4-135l124.6-71.6L-352.2-157.1z M-349.2-156.9c0-0.2,0-0.5,0-0.7l-24.1-91.6l163.7,96L-371.8-43.8L-349.2-156.9z
				 M-642.7,68.8l19.1-26.7l40.8-52.5c0.2-0.2,0.3-0.4,0.3-0.7l9.8-61.9l16.4,182.3v15.6l-79.6-16.7l-1.1-1.5L-642.7,68.8z
				 M-612,141.3l-21.3-29.5l77,16.1v58.5l-19-10.4L-612,141.3z M-530.3,143.6l16.7,9.3v21.8l-14.6,12.8h-25.2v-58L-530.3,143.6z
				 M-534.5,86.7l-19.3,17.6l-17.1-189.6l-3.9-52.2l30.2-83l38.4,41l-67,38.5l1.5,2.6l67.6-38.8l127.7,136.4l-82.2,59.3
				c0,0,0,0-0.1,0.1h-0.1L-534.5,86.7z M-431.9,162.2l-24.2-14.9l93.1-24.7l29.4,43.3L-431.9,162.2z M-308.9,124.3l7.2,18l-5.4,14.4
				l-22.4,9.3h-0.3l-29.6-43.5l36,1.8H-308.9z M-364.8,120l-92.2,24.5l-6.9-27.6l7.5-93.7l81.2,81.2L-364.8,120z M-359.4,18.6
				c-0.3,0.2-0.5,0.6-0.6,1l-7.8,52.4l-7.1,28.5L-454.4,21l108.2-12.6L-359.4,18.6z M-255.5,8.6l-56.2,1.9l-29-5.8
				c-0.2,0-0.3,0-0.5,0l0,0l-110.9,12.9l78.9-56.9l164.6-111l-11.3,160.7l-35.5-1.9C-255.4,8.6-255.4,8.6-255.5,8.6z M-202.1,173
				l79.9-34.5l14.5,48.9h-61.8L-202.1,173z M-99.9,143.8h18.7l14.7,18.4l-1.8,17.7l-36.5,7.3l-14.4-48.6l18.8,5.1
				C-100.1,143.8-100,143.8-99.9,143.8z M-123.2,135.7l-81.5,35.2l-12.2-17.4l7.5-110.9l79.1,77.2L-123.2,135.7z M-76-29.4
				l-40.8,101.1v0.1l-12.9,44.3l-79.6-77.7l-7.6-26.6l11.5-163.1L30.1-79.1L-75.2-30.2l0,0C-75.6-30-75.8-29.7-76-29.4z M116,117.2
				l44.8,43H54.6l61-43.1L116,117.2z M163.7,122.3l12.7,19.9l-12,17.2L121,117.7L163.7,122.3z M108.8,115.8c0.2,0.4,0.7,0.7,1.1,0.7
				l1.1,0.1l-61.7,43.6h-2.6l-19-28.5l-31-50.5C-3.4,81.1-3.4,81-3.5,81l-41.7-45.3L74.2,58.1L108.8,115.8z M36.7-32.6
				c0,0.2,0,0.3,0.1,0.4l35.9,86.9L-48.2,32.1L-72.6-28L33-77.1L36.7-32.6z M33.6-81.1L-205-154.3l48.1-182.6l51.5-21l78,5.7V-231
				c0,0.3,0.1,0.5,0.2,0.8l75.4,125.6L33.6-81.1z M89.6-102c-0.2-0.1-0.4-0.2-0.7-0.3l-28.4-2.8l59.7-11.1l-5,31.8L89.6-102z
				 M120.5-80.7l-2.6-1.8l5.2-33.2L224.6-56L192-57.5L120.5-80.7z M256-69.4l9.4-38l13.8,25.5L256-69.4z"/>
		</g>
	</g>
	<g>
		<path class="st2" d="M180,5v175H5V5H180 M185,0H0v185h185V0L185,0z"/>
	</g>
</g>
</svg>
