<?xml version="1.0" encoding="utf-8"?>
<!-- Generator: Adobe Illustrator 16.0.0, SVG Export Plug-In . SVG Version: 6.00 Build 0)  -->
<!DOCTYPE svg PUBLIC "-//W3C//DTD SVG 1.1//EN" "http://www.w3.org/Graphics/SVG/1.1/DTD/svg11.dtd">
<svg version="1.1" id="Layer_1" xmlns="http://www.w3.org/2000/svg" xmlns:xlink="http://www.w3.org/1999/xlink" x="0px" y="0px"
	 width="500px" height="450px" viewBox="0 0 500 450" enable-background="new 0 0 500 450" xml:space="preserve">
<g enable-background="new    ">
	<path fill="#FFFFFF" d="M56.978,6.654h12.615c4.283,0,7.604,1.54,9.965,4.619c2.105,2.779,3.159,6.338,3.159,10.678
		c0,3.352-0.622,6.381-1.866,9.088c-2.191,4.784-5.958,7.176-11.3,7.176H56.978V6.654z M68.754,34.562
		c1.414,0,2.577-0.15,3.487-0.451c1.625-0.559,2.955-1.633,3.992-3.223c0.826-1.274,1.421-2.907,1.785-4.898
		c0.21-1.188,0.315-2.291,0.315-3.309c0-3.91-0.76-6.946-2.279-9.109c-1.52-2.163-3.967-3.244-7.342-3.244h-7.416v24.234H68.754z"/>
	<path fill="#FFFFFF" d="M88.151,15.205h3.674v3.975c0.301-0.773,1.038-1.715,2.213-2.825c1.174-1.11,2.528-1.665,4.061-1.665
		c0.071,0,0.193,0.007,0.365,0.021c0.172,0.015,0.465,0.043,0.881,0.086v4.082c-0.229-0.043-0.44-0.071-0.634-0.086
		c-0.193-0.014-0.405-0.021-0.634-0.021c-1.948,0-3.445,0.627-4.49,1.88c-1.046,1.254-1.568,2.696-1.568,4.329v13.234h-3.867
		L88.151,15.205L88.151,15.205z"/>
	<path fill="#FFFFFF" d="M115.029,24.29c0.888-0.114,1.482-0.486,1.783-1.115c0.171-0.346,0.257-0.841,0.257-1.488
		c0-1.323-0.468-2.283-1.404-2.879c-0.937-0.597-2.276-0.895-4.02-0.895c-2.016,0-3.445,0.547-4.289,1.641
		c-0.472,0.605-0.779,1.505-0.922,2.699h-3.609c0.071-2.844,0.991-4.823,2.757-5.936c1.767-1.113,3.816-1.67,6.148-1.67
		c2.704,0,4.9,0.516,6.588,1.547c1.674,1.031,2.511,2.636,2.511,4.812v13.257c0,0.401,0.082,0.724,0.247,0.967
		s0.512,0.364,1.042,0.364c0.172,0,0.365-0.011,0.58-0.032c0.215-0.021,0.444-0.054,0.688-0.097v2.857
		c-0.602,0.172-1.06,0.279-1.375,0.322c-0.315,0.043-0.745,0.064-1.289,0.064c-1.332,0-2.299-0.473-2.9-1.418
		c-0.315-0.501-0.537-1.21-0.666-2.126c-0.788,1.031-1.919,1.926-3.395,2.685c-1.476,0.759-3.101,1.139-4.877,1.139
		c-2.134,0-3.878-0.647-5.231-1.942c-1.354-1.294-2.03-2.914-2.03-4.859c0-2.132,0.666-3.784,1.998-4.957s3.079-1.896,5.242-2.167
		L115.029,24.29z M106.886,34.736c0.816,0.644,1.783,0.965,2.9,0.965c1.36,0,2.678-0.314,3.953-0.943
		c2.148-1.044,3.223-2.753,3.223-5.127v-3.11c-0.472,0.302-1.079,0.554-1.822,0.755c-0.744,0.201-1.473,0.345-2.188,0.43
		l-2.337,0.301c-1.401,0.186-2.454,0.479-3.16,0.879c-1.196,0.672-1.794,1.744-1.794,3.216
		C105.661,33.215,106.069,34.094,106.886,34.736z"/>
	<path fill="#FFFFFF" d="M139.959,16.129c0.728,0.501,1.469,1.232,2.226,2.191v-2.9h3.566v20.926c0,2.922-0.428,5.228-1.285,6.918
		c-1.599,3.122-4.618,4.684-9.057,4.684c-2.47,0-4.547-0.556-6.231-1.665c-1.685-1.11-2.627-2.847-2.827-5.21h3.932
		c0.185,1.031,0.555,1.826,1.111,2.385c0.869,0.859,2.236,1.289,4.103,1.289c2.949,0,4.878-1.046,5.79-3.137
		c0.542-1.232,0.791-3.43,0.748-6.596c-0.771,1.175-1.698,2.049-2.782,2.621c-1.084,0.573-2.519,0.859-4.302,0.859
		c-2.482,0-4.655-0.884-6.517-2.653c-1.862-1.769-2.792-4.694-2.792-8.776c0-3.853,0.938-6.86,2.814-9.023s4.141-3.244,6.795-3.244
		C137.048,14.797,138.618,15.241,139.959,16.129z M140.432,20.275c-1.169-1.375-2.658-2.062-4.468-2.062
		c-2.708,0-4.56,1.275-5.557,3.824c-0.527,1.361-0.791,3.145-0.791,5.35c0,2.593,0.523,4.565,1.571,5.919
		c1.047,1.354,2.454,2.03,4.222,2.03c2.764,0,4.709-1.253,5.835-3.76c0.627-1.418,0.94-3.072,0.94-4.963
		C142.185,23.764,141.6,21.65,140.432,20.275z"/>
	<path fill="#FFFFFF" d="M164.43,16.129c0.728,0.501,1.469,1.232,2.226,2.191v-2.9h3.566v20.926c0,2.922-0.428,5.228-1.285,6.918
		c-1.599,3.122-4.618,4.684-9.057,4.684c-2.47,0-4.547-0.556-6.231-1.665c-1.685-1.11-2.627-2.847-2.827-5.21h3.932
		c0.185,1.031,0.555,1.826,1.111,2.385c0.869,0.859,2.236,1.289,4.103,1.289c2.949,0,4.878-1.046,5.79-3.137
		c0.542-1.232,0.791-3.43,0.748-6.596c-0.771,1.175-1.698,2.049-2.782,2.621c-1.084,0.573-2.519,0.859-4.302,0.859
		c-2.482,0-4.655-0.884-6.517-2.653c-1.862-1.769-2.792-4.694-2.792-8.776c0-3.853,0.938-6.86,2.814-9.023s4.141-3.244,6.795-3.244
		C161.519,14.797,163.088,15.241,164.43,16.129z M164.903,20.275c-1.169-1.375-2.658-2.062-4.468-2.062
		c-2.708,0-4.56,1.275-5.557,3.824c-0.527,1.361-0.791,3.145-0.791,5.35c0,2.593,0.523,4.565,1.571,5.919
		c1.047,1.354,2.454,2.03,4.222,2.03c2.764,0,4.709-1.253,5.835-3.76c0.627-1.418,0.94-3.072,0.94-4.963
		C166.655,23.764,166.071,21.65,164.903,20.275z"/>
	<path fill="#FFFFFF" d="M176.108,6.654h3.932v4.383h-3.932V6.654z M176.108,15.312h3.932v22.902h-3.932V15.312z"/>
	<path fill="#FFFFFF" d="M185.884,15.205h3.674v3.266c1.088-1.346,2.241-2.313,3.459-2.9c1.217-0.587,2.571-0.881,4.061-0.881
		c3.266,0,5.471,1.139,6.617,3.416c0.63,1.246,0.945,3.029,0.945,5.35v14.76h-3.932V23.713c0-1.403-0.208-2.535-0.623-3.395
		c-0.688-1.432-1.934-2.148-3.738-2.148c-0.917,0-1.669,0.093-2.256,0.279c-1.06,0.315-1.991,0.945-2.793,1.891
		c-0.645,0.76-1.063,1.544-1.257,2.353c-0.193,0.81-0.29,1.966-0.29,3.47v12.053h-3.867V15.205z"/>
	<path fill="#FFFFFF" d="M223.146,16.129c0.728,0.501,1.469,1.232,2.226,2.191v-2.9h3.566v20.926c0,2.922-0.428,5.228-1.285,6.918
		c-1.599,3.122-4.618,4.684-9.057,4.684c-2.47,0-4.547-0.556-6.231-1.665c-1.685-1.11-2.627-2.847-2.827-5.21h3.932
		c0.185,1.031,0.555,1.826,1.111,2.385c0.869,0.859,2.236,1.289,4.103,1.289c2.949,0,4.878-1.046,5.79-3.137
		c0.542-1.232,0.791-3.43,0.748-6.596c-0.771,1.175-1.698,2.049-2.782,2.621c-1.084,0.573-2.519,0.859-4.302,0.859
		c-2.482,0-4.655-0.884-6.517-2.653c-1.862-1.769-2.792-4.694-2.792-8.776c0-3.853,0.938-6.86,2.814-9.023s4.141-3.244,6.795-3.244
		C220.236,14.797,221.805,15.241,223.146,16.129z M223.62,20.275c-1.169-1.375-2.658-2.062-4.468-2.062
		c-2.708,0-4.56,1.275-5.557,3.824c-0.527,1.361-0.791,3.145-0.791,5.35c0,2.593,0.523,4.565,1.571,5.919
		c1.047,1.354,2.454,2.03,4.222,2.03c2.764,0,4.709-1.253,5.835-3.76c0.627-1.418,0.94-3.072,0.94-4.963
		C225.372,23.764,224.788,21.65,223.62,20.275z"/>
	<path fill="#FFFFFF" d="M247.823,8.781h3.909v6.424h3.675v3.158h-3.675v15.018c0,0.803,0.272,1.34,0.816,1.611
		c0.301,0.158,0.803,0.236,1.504,0.236c0.188,0,0.387-0.005,0.602-0.014c0.216-0.01,0.467-0.034,0.753-0.072v3.072
		c-0.444,0.129-0.906,0.222-1.386,0.279c-0.48,0.057-1,0.086-1.559,0.086c-1.805,0-3.029-0.462-3.674-1.386
		c-0.645-0.924-0.967-2.123-0.967-3.599V18.363h-3.115v-3.158h3.115V8.781H247.823z"/>
	<path fill="#FFFFFF" d="M259.273,6.547h3.867V18.32c0.918-1.16,1.74-1.977,2.471-2.449c1.246-0.816,2.801-1.225,4.662-1.225
		c3.338,0,5.602,1.167,6.789,3.502c0.646,1.275,0.967,3.044,0.967,5.307v14.76h-3.975V23.713c0-1.689-0.215-2.929-0.645-3.717
		c-0.702-1.26-2.02-1.891-3.953-1.891c-1.604,0-3.059,0.552-4.361,1.654c-1.304,1.104-1.955,3.188-1.955,6.252v12.203h-3.867V6.547
		L259.273,6.547z"/>
	<path fill="#FFFFFF" d="M297.957,15.839c1.523,0.767,2.684,1.758,3.48,2.976c0.77,1.16,1.28,2.514,1.537,4.061
		c0.229,1.061,0.342,2.75,0.342,5.07h-16.735c0.071,2.341,0.618,4.22,1.642,5.634c1.023,1.415,2.607,2.122,4.754,2.122
		c2.004,0,3.603-0.669,4.797-2.007c0.668-0.777,1.142-1.677,1.42-2.698h3.803c-0.102,0.846-0.434,1.787-0.999,2.825
		c-0.565,1.039-1.197,1.888-1.894,2.546c-1.166,1.146-2.608,1.919-4.328,2.32c-0.926,0.229-1.969,0.344-3.135,0.344
		c-2.848,0-5.26-1.042-7.238-3.126c-1.978-2.084-2.967-5.002-2.967-8.755c0-3.695,0.996-6.695,2.988-9.002
		c1.992-2.306,4.598-3.459,7.814-3.459C294.861,14.689,296.436,15.073,297.957,15.839z M299.343,24.873
		c-0.155-1.676-0.519-3.015-1.087-4.018c-1.051-1.862-2.805-2.793-5.262-2.793c-1.762,0-3.238,0.641-4.432,1.923
		c-1.192,1.282-1.824,2.911-1.896,4.888H299.343z"/>
	<path fill="#FFFFFF" d="M320.548,6.654h3.867v31.561h-3.867V6.654z"/>
	<path fill="#FFFFFF" d="M342.548,24.29c0.89-0.114,1.481-0.486,1.783-1.115c0.172-0.346,0.258-0.841,0.258-1.488
		c0-1.323-0.469-2.283-1.403-2.879c-0.938-0.597-2.276-0.895-4.021-0.895c-2.016,0-3.445,0.547-4.288,1.641
		c-0.472,0.605-0.778,1.505-0.922,2.699h-3.608c0.07-2.844,0.989-4.823,2.758-5.936c1.767-1.113,3.814-1.67,6.146-1.67
		c2.704,0,4.898,0.516,6.588,1.547c1.674,1.031,2.512,2.636,2.512,4.812v13.257c0,0.401,0.082,0.724,0.246,0.967
		s0.512,0.364,1.043,0.364c0.172,0,0.364-0.011,0.579-0.032c0.216-0.021,0.443-0.054,0.688-0.097v2.857
		c-0.602,0.172-1.062,0.279-1.375,0.322c-0.315,0.043-0.745,0.064-1.289,0.064c-1.332,0-2.299-0.473-2.9-1.418
		c-0.314-0.501-0.537-1.21-0.666-2.126c-0.787,1.031-1.92,1.926-3.395,2.685c-1.477,0.759-3.102,1.139-4.877,1.139
		c-2.135,0-3.879-0.647-5.231-1.942c-1.354-1.294-2.03-2.914-2.03-4.859c0-2.132,0.666-3.784,1.998-4.957s3.08-1.896,5.242-2.167
		L342.548,24.29z M334.404,34.736c0.816,0.644,1.783,0.965,2.9,0.965c1.36,0,2.678-0.314,3.953-0.943
		c2.148-1.044,3.223-2.753,3.223-5.127v-3.11c-0.472,0.302-1.078,0.554-1.821,0.755c-0.743,0.201-1.474,0.345-2.188,0.43
		l-2.337,0.301c-1.399,0.186-2.454,0.479-3.159,0.879c-1.197,0.672-1.795,1.744-1.795,3.216
		C333.182,33.215,333.589,34.094,334.404,34.736z"/>
	<path fill="#FFFFFF" d="M354.364,6.547h3.76v11.451c0.849-1.103,1.862-1.944,3.041-2.524s2.459-0.87,3.84-0.87
		c2.875,0,5.208,0.985,6.998,2.954c1.79,1.97,2.687,4.874,2.687,8.712c0,3.639-0.885,6.66-2.653,9.066
		c-1.769,2.406-4.22,3.609-7.354,3.609c-1.754,0-3.234-0.423-4.441-1.268c-0.719-0.501-1.488-1.303-2.309-2.406v2.943h-3.565V6.547
		H354.364z M369.15,33.037c1.041-1.661,1.562-3.853,1.562-6.574c0-2.42-0.521-4.426-1.562-6.016
		c-1.043-1.59-2.575-2.385-4.603-2.385c-1.769,0-3.315,0.652-4.646,1.955c-1.329,1.304-1.994,3.452-1.994,6.445
		c0,2.163,0.271,3.918,0.818,5.264c1.021,2.535,2.924,3.803,5.713,3.803C366.539,35.529,368.107,34.699,369.15,33.037z"/>
	<path fill="#FFFFFF" d="M393.37,15.839c1.522,0.767,2.683,1.758,3.479,2.976c0.77,1.16,1.28,2.514,1.537,4.061
		c0.229,1.061,0.342,2.75,0.342,5.07h-16.735c0.071,2.341,0.618,4.22,1.642,5.634c1.023,1.415,2.607,2.122,4.754,2.122
		c2.004,0,3.604-0.669,4.797-2.007c0.668-0.777,1.142-1.677,1.42-2.698h3.803c-0.102,0.846-0.434,1.787-0.999,2.825
		c-0.566,1.039-1.197,1.888-1.894,2.546c-1.166,1.146-2.608,1.919-4.328,2.32c-0.924,0.229-1.97,0.344-3.136,0.344
		c-2.847,0-5.259-1.042-7.237-3.126c-1.978-2.084-2.967-5.002-2.967-8.755c0-3.695,0.995-6.695,2.988-9.002
		c1.993-2.306,4.598-3.459,7.814-3.459C390.273,14.689,391.848,15.073,393.37,15.839z M394.755,24.873
		c-0.155-1.676-0.519-3.015-1.087-4.018c-1.051-1.862-2.805-2.793-5.262-2.793c-1.762,0-3.238,0.641-4.432,1.923
		c-1.192,1.282-1.824,2.911-1.896,4.888H394.755z"/>
	<path fill="#FFFFFF" d="M403.734,6.654h3.867v31.561h-3.867V6.654z"/>
	<path fill="#FFFFFF" d="M415.702,30.996c0.116,1.289,0.444,2.277,0.985,2.965c0.994,1.246,2.721,1.869,5.177,1.869
		c1.461,0,2.747-0.312,3.857-0.935c1.111-0.623,1.667-1.586,1.667-2.89c0-0.988-0.443-1.74-1.332-2.256
		c-0.567-0.314-1.688-0.68-3.361-1.096l-3.123-0.773c-1.993-0.486-3.465-1.031-4.409-1.633c-1.688-1.045-2.533-2.492-2.533-4.34
		c0-2.177,0.795-3.938,2.384-5.285c1.59-1.346,3.728-2.02,6.412-2.02c3.514,0,6.046,1.017,7.6,3.051
		c0.973,1.289,1.443,2.679,1.416,4.168h-3.652c-0.073-0.869-0.389-1.659-0.945-2.372c-0.909-1.011-2.484-1.517-4.729-1.517
		c-1.496,0-2.629,0.278-3.398,0.835s-1.154,1.292-1.154,2.205c0,0.999,0.506,1.798,1.519,2.397c0.583,0.356,1.444,0.672,2.583,0.943
		l2.604,0.623c2.831,0.674,4.729,1.325,5.691,1.955c1.504,0.988,2.256,2.543,2.256,4.662c0,2.049-0.787,3.817-2.359,5.307
		c-1.573,1.49-3.971,2.234-7.188,2.234c-3.466,0-5.92-0.777-7.362-2.331c-1.443-1.554-2.216-3.477-2.316-5.769h3.714V30.996z"/>
</g>
<g enable-background="new    ">
	<path fill="#FFFFFF" d="M145.546,51.654h3.932v4.383h-3.932V51.654z M145.546,60.312h3.932v22.902h-3.932V60.312z"/>
	<path fill="#FFFFFF" d="M155.322,60.205h3.674v3.266c1.088-1.346,2.241-2.313,3.459-2.9c1.217-0.587,2.571-0.881,4.061-0.881
		c3.266,0,5.471,1.139,6.617,3.416c0.63,1.246,0.945,3.029,0.945,5.35v14.76h-3.932V68.713c0-1.403-0.208-2.535-0.623-3.395
		c-0.688-1.432-1.934-2.148-3.738-2.148c-0.917,0-1.669,0.093-2.256,0.279c-1.06,0.315-1.991,0.945-2.793,1.891
		c-0.645,0.76-1.063,1.544-1.257,2.353c-0.193,0.81-0.29,1.966-0.29,3.47v12.053h-3.867V60.205z"/>
	<path fill="#FFFFFF" d="M180.566,53.781h3.91v6.424h3.674v3.158h-3.674v15.018c0,0.803,0.272,1.34,0.816,1.611
		c0.301,0.158,0.802,0.236,1.504,0.236c0.186,0,0.387-0.005,0.602-0.014c0.215-0.01,0.465-0.034,0.752-0.072v3.072
		c-0.444,0.129-0.906,0.222-1.386,0.279c-0.48,0.057-0.999,0.086-1.558,0.086c-1.805,0-3.029-0.462-3.674-1.386
		c-0.645-0.924-0.967-2.123-0.967-3.599V63.363h-3.115v-3.158h3.115L180.566,53.781L180.566,53.781z"/>
	<path fill="#FFFFFF" d="M208.689,62.501c2.034,1.975,3.051,4.879,3.051,8.714c0,3.707-0.896,6.77-2.688,9.188
		c-1.792,2.419-4.572,3.628-8.341,3.628c-3.144,0-5.64-1.069-7.489-3.209c-1.849-2.14-2.773-5.012-2.773-8.618
		c0-3.864,0.974-6.94,2.922-9.23c1.949-2.29,4.565-3.435,7.851-3.435C204.166,59.539,206.655,60.527,208.689,62.501z
		 M206.288,77.794c0.942-1.938,1.413-4.096,1.413-6.47c0-2.146-0.34-3.892-1.02-5.236c-1.076-2.117-2.932-3.176-5.565-3.176
		c-2.337,0-4.037,0.901-5.099,2.704c-1.062,1.803-1.593,3.977-1.593,6.523c0,2.446,0.531,4.484,1.593,6.115s2.747,2.446,5.056,2.446
		C203.607,80.701,205.346,79.732,206.288,77.794z"/>
	<path fill="#FFFFFF" d="M228.39,51.547h3.76v11.451c0.848-1.103,1.862-1.944,3.041-2.524c1.179-0.58,2.459-0.87,3.839-0.87
		c2.875,0,5.208,0.985,6.999,2.954c1.79,1.97,2.685,4.874,2.685,8.712c0,3.639-0.885,6.66-2.653,9.066
		c-1.769,2.406-4.22,3.609-7.354,3.609c-1.754,0-3.235-0.423-4.443-1.268c-0.719-0.501-1.488-1.303-2.308-2.406v2.943h-3.566V51.547
		z M243.177,78.037c1.042-1.661,1.563-3.853,1.563-6.574c0-2.42-0.521-4.426-1.563-6.016c-1.042-1.59-2.576-2.385-4.603-2.385
		c-1.768,0-3.316,0.652-4.645,1.955c-1.33,1.304-1.994,3.452-1.994,6.445c0,2.163,0.273,3.918,0.819,5.264
		c1.02,2.535,2.924,3.803,5.712,3.803C240.565,80.529,242.135,79.699,243.177,78.037z"/>
	<path fill="#FFFFFF" d="M269.855,62.501c2.033,1.975,3.051,4.879,3.051,8.714c0,3.707-0.896,6.77-2.689,9.188
		c-1.791,2.419-4.572,3.628-8.34,3.628c-3.145,0-5.641-1.069-7.488-3.209c-1.849-2.14-2.772-5.012-2.772-8.618
		c0-3.864,0.974-6.94,2.922-9.23s4.565-3.435,7.853-3.435C265.332,59.539,267.82,60.527,269.855,62.501z M267.453,77.794
		c0.941-1.938,1.414-4.096,1.414-6.47c0-2.146-0.34-3.892-1.021-5.236c-1.076-2.117-2.932-3.176-5.564-3.176
		c-2.338,0-4.037,0.901-5.1,2.704c-1.062,1.803-1.593,3.977-1.593,6.523c0,2.446,0.531,4.484,1.593,6.115
		c1.062,1.631,2.748,2.446,5.057,2.446C264.773,80.701,266.512,79.732,267.453,77.794z"/>
	<path fill="#FFFFFF" d="M275.463,60.205h5.006l5.285,8.1l5.35-8.1l4.705,0.107l-7.756,11.107l8.1,11.795h-4.94l-5.715-8.637
		l-5.543,8.637h-4.897l8.1-11.795L275.463,60.205z"/>
	<path fill="#FFFFFF" d="M313.866,60.839c1.522,0.767,2.684,1.758,3.479,2.976c0.77,1.16,1.281,2.514,1.538,4.061
		c0.228,1.061,0.343,2.75,0.343,5.07H302.49c0.07,2.341,0.617,4.22,1.641,5.634c1.023,1.415,2.607,2.122,4.754,2.122
		c2.004,0,3.604-0.669,4.797-2.007c0.668-0.777,1.141-1.677,1.42-2.698h3.803c-0.102,0.846-0.434,1.787-1,2.825
		c-0.564,1.039-1.196,1.888-1.893,2.546c-1.166,1.146-2.609,1.919-4.328,2.32c-0.925,0.229-1.969,0.344-3.135,0.344
		c-2.847,0-5.26-1.042-7.238-3.126c-1.978-2.084-2.967-5.002-2.967-8.755c0-3.695,0.996-6.695,2.988-9.002
		c1.993-2.306,4.598-3.459,7.814-3.459C310.771,59.689,312.344,60.073,313.866,60.839z M315.252,69.873
		c-0.156-1.676-0.52-3.015-1.087-4.018c-1.052-1.862-2.806-2.793-5.263-2.793c-1.762,0-3.238,0.641-4.432,1.923
		c-1.191,1.282-1.824,2.911-1.896,4.888H315.252z"/>
	<path fill="#FFFFFF" d="M326.424,75.996c0.116,1.289,0.445,2.277,0.986,2.965c0.994,1.246,2.719,1.869,5.175,1.869
		c1.462,0,2.748-0.312,3.858-0.935c1.111-0.623,1.668-1.586,1.668-2.89c0-0.988-0.445-1.74-1.332-2.256
		c-0.568-0.314-1.689-0.68-3.363-1.096l-3.121-0.773c-1.994-0.486-3.465-1.031-4.411-1.633c-1.688-1.045-2.532-2.492-2.532-4.34
		c0-2.177,0.795-3.938,2.385-5.285c1.589-1.346,3.727-2.02,6.412-2.02c3.513,0,6.045,1.017,7.599,3.051
		c0.973,1.289,1.442,2.679,1.416,4.168h-3.652c-0.073-0.869-0.389-1.659-0.946-2.372c-0.908-1.011-2.484-1.517-4.729-1.517
		c-1.495,0-2.628,0.278-3.396,0.835c-0.77,0.557-1.154,1.292-1.154,2.205c0,0.999,0.505,1.798,1.518,2.397
		c0.582,0.356,1.443,0.672,2.582,0.943l2.605,0.623c2.83,0.674,4.728,1.325,5.691,1.955c1.504,0.988,2.256,2.543,2.256,4.662
		c0,2.049-0.787,3.817-2.361,5.307c-1.572,1.489-3.969,2.234-7.188,2.234c-3.467,0-5.921-0.777-7.363-2.331
		c-1.442-1.554-2.215-3.477-2.315-5.769h3.714V75.996z"/>
</g>
<g>
	<path fill="#E2E2E2" d="M102.968,138.943h3.435v25.105h-3.435V138.943z"/>
	<path fill="#E2E2E2" d="M111.513,145.745h2.922v2.598c0.866-1.071,1.783-1.84,2.751-2.307c0.968-0.467,2.045-0.701,3.23-0.701
		c2.598,0,4.352,0.906,5.264,2.717c0.501,0.991,0.752,2.41,0.752,4.255v11.741h-3.127v-11.536c0-1.116-0.166-2.017-0.496-2.7
		c-0.547-1.139-1.538-1.709-2.974-1.709c-0.729,0-1.328,0.074-1.794,0.222c-0.843,0.251-1.584,0.752-2.222,1.504
		c-0.513,0.604-0.846,1.228-1,1.871c-0.153,0.644-0.23,1.564-0.23,2.76v9.587h-3.076V145.745z"/>
	<path fill="#E2E2E2" d="M141.035,146.309c0.544,0.342,1.163,0.94,1.855,1.794v-9.246h2.957v25.19h-2.769v-2.546
		c-0.715,1.128-1.561,1.943-2.537,2.444c-0.977,0.501-2.094,0.752-3.354,0.752c-2.032,0-3.791-0.857-5.277-2.572
		c-1.487-1.714-2.23-3.996-2.23-6.844c0-2.666,0.678-4.976,2.034-6.93c1.356-1.954,3.294-2.931,5.814-2.931
		C138.924,145.42,140.092,145.717,141.035,146.309z M134.168,160.032c0.828,1.322,2.154,1.982,3.979,1.982
		c1.417,0,2.582-0.612,3.494-1.837c0.912-1.224,1.369-2.982,1.369-5.272c0-2.312-0.471-4.025-1.411-5.135
		c-0.941-1.111-2.103-1.667-3.486-1.667c-1.542,0-2.792,0.593-3.75,1.777c-0.958,1.185-1.437,2.928-1.437,5.229
		C132.927,157.07,133.34,158.711,134.168,160.032z"/>
	<path fill="#E2E2E2" d="M150.444,138.943h3.127v3.486h-3.127V138.943z M150.444,145.831h3.127v18.218h-3.127V145.831z"/>
	<path fill="#E2E2E2" d="M168.03,152.972c0.706-0.091,1.179-0.387,1.418-0.887c0.136-0.274,0.205-0.669,0.205-1.184
		c0-1.052-0.373-1.816-1.117-2.291s-1.811-0.712-3.198-0.712c-1.603,0-2.741,0.435-3.411,1.305c-0.375,0.481-0.62,1.197-0.733,2.147
		h-2.871c0.057-2.262,0.788-3.836,2.193-4.722c1.405-0.885,3.036-1.328,4.891-1.328c2.15,0,3.897,0.41,5.24,1.23
		c1.332,0.82,1.997,2.097,1.997,3.829v10.545c0,0.319,0.065,0.575,0.196,0.769s0.407,0.29,0.829,0.29
		c0.137,0,0.291-0.009,0.461-0.025c0.171-0.018,0.353-0.042,0.547-0.077v2.272c-0.479,0.137-0.843,0.222-1.094,0.256
		c-0.251,0.034-0.593,0.051-1.025,0.051c-1.06,0-1.829-0.376-2.307-1.127c-0.251-0.399-0.427-0.963-0.53-1.692
		c-0.627,0.82-1.527,1.532-2.7,2.136c-1.174,0.603-2.467,0.905-3.879,0.905c-1.698,0-3.085-0.515-4.161-1.545
		c-1.077-1.029-1.615-2.318-1.615-3.866c0-1.695,0.53-3.01,1.589-3.943s2.449-1.508,4.17-1.724L168.03,152.972z M161.552,161.282
		c0.649,0.512,1.418,0.767,2.307,0.767c1.082,0,2.13-0.25,3.145-0.75c1.709-0.831,2.563-2.19,2.563-4.078v-2.474
		c-0.375,0.24-0.858,0.44-1.45,0.6s-1.171,0.274-1.74,0.342l-1.859,0.239c-1.114,0.148-1.952,0.381-2.514,0.7
		c-0.951,0.534-1.427,1.387-1.427,2.558C160.578,160.071,160.903,160.77,161.552,161.282z"/>
</g>
<g>
	<path fill="#E2E2E2" d="M44.385,227.936H55.62c2.22,0,4.014,0.63,5.379,1.889s2.048,3.027,2.048,5.307
		c0,1.959-0.609,3.666-1.828,5.117c-1.219,1.453-3.083,2.18-5.595,2.18h-7.839v10.613h-3.401V227.936z M57.576,231.388
		c-0.747-0.353-1.771-0.53-3.071-0.53h-6.719v8.699h6.719c1.516,0,2.746-0.324,3.69-0.975c0.945-0.648,1.417-1.794,1.417-3.435
		C59.612,233.302,58.934,232.049,57.576,231.388z"/>
	<path fill="#E2E2E2" d="M76.805,241.964c0.706-0.091,1.179-0.387,1.418-0.888c0.136-0.273,0.205-0.668,0.205-1.184
		c0-1.052-0.373-1.815-1.117-2.29s-1.811-0.712-3.198-0.712c-1.603,0-2.741,0.436-3.411,1.305c-0.375,0.482-0.62,1.197-0.733,2.147
		h-2.871c0.057-2.263,0.788-3.836,2.193-4.722c1.405-0.885,3.036-1.328,4.891-1.328c2.15,0,3.897,0.41,5.24,1.23
		c1.332,0.82,1.997,2.097,1.997,3.828v10.545c0,0.319,0.065,0.576,0.196,0.77s0.407,0.289,0.829,0.289
		c0.137,0,0.291-0.008,0.461-0.025s0.353-0.042,0.547-0.076v2.272c-0.479,0.137-0.843,0.222-1.094,0.257
		c-0.251,0.033-0.593,0.051-1.025,0.051c-1.06,0-1.829-0.376-2.307-1.127c-0.251-0.399-0.427-0.963-0.53-1.692
		c-0.627,0.82-1.527,1.532-2.7,2.136c-1.174,0.604-2.467,0.906-3.879,0.906c-1.698,0-3.085-0.516-4.161-1.545
		c-1.077-1.029-1.615-2.318-1.615-3.866c0-1.695,0.53-3.01,1.589-3.942c1.06-0.934,2.449-1.508,4.17-1.725L76.805,241.964z
		 M70.328,250.273c0.649,0.512,1.418,0.768,2.307,0.768c1.082,0,2.13-0.25,3.145-0.75c1.709-0.831,2.563-2.19,2.563-4.078v-2.475
		c-0.375,0.24-0.858,0.439-1.45,0.6s-1.171,0.275-1.74,0.343l-1.859,0.239c-1.114,0.147-1.952,0.381-2.514,0.699
		c-0.951,0.534-1.427,1.387-1.427,2.558C69.354,249.062,69.678,249.762,70.328,250.273z"/>
	<path fill="#E2E2E2" d="M86.392,227.936h2.957v14.576l7.888-7.774h3.93l-7.035,6.806l7.429,11.498h-3.93l-5.757-9.314l-2.526,2.443
		v6.871h-2.957V227.936z"/>
	<path fill="#E2E2E2" d="M103.96,227.936h3.127v3.486h-3.127V227.936z M103.96,234.822h3.127v18.219h-3.127V234.822z"/>
	<path fill="#E2E2E2" d="M113.565,247.299c0.093,1.025,0.354,1.811,0.785,2.357c0.791,0.992,2.163,1.487,4.117,1.487
		c1.163,0,2.186-0.247,3.07-0.743s1.326-1.262,1.326-2.299c0-0.786-0.354-1.385-1.06-1.795c-0.452-0.25-1.343-0.541-2.674-0.871
		l-2.484-0.615c-1.586-0.387-2.756-0.82-3.508-1.299c-1.343-0.832-2.015-1.982-2.015-3.452c0-1.731,0.632-3.133,1.896-4.204
		c1.264-1.07,2.964-1.606,5.101-1.606c2.794,0,4.809,0.81,6.044,2.427c0.774,1.025,1.149,2.131,1.126,3.315h-2.905
		c-0.059-0.69-0.309-1.319-0.752-1.887c-0.723-0.804-1.977-1.206-3.761-1.206c-1.189,0-2.09,0.221-2.703,0.664
		c-0.612,0.442-0.918,1.027-0.918,1.754c0,0.794,0.402,1.43,1.207,1.906c0.464,0.285,1.149,0.535,2.055,0.751l2.072,0.495
		c2.252,0.536,3.761,1.055,4.527,1.556c1.196,0.786,1.794,2.022,1.794,3.708c0,1.63-0.626,3.037-1.877,4.222
		s-3.158,1.777-5.718,1.777c-2.757,0-4.709-0.618-5.857-1.854s-1.762-2.766-1.843-4.588H113.565z"/>
	<path fill="#E2E2E2" d="M129.852,229.627h3.11v5.11h2.922v2.513h-2.922v11.945c0,0.639,0.216,1.065,0.649,1.281
		c0.239,0.126,0.638,0.188,1.196,0.188c0.148,0,0.308-0.004,0.479-0.011c0.171-0.008,0.37-0.027,0.598-0.058v2.444
		c-0.354,0.102-0.721,0.176-1.102,0.222c-0.382,0.046-0.795,0.068-1.239,0.068c-1.436,0-2.41-0.368-2.922-1.103
		s-0.769-1.688-0.769-2.862V237.25h-2.478v-2.513h2.478V229.627z"/>
	<path fill="#E2E2E2" d="M148.771,241.964c0.706-0.091,1.179-0.387,1.418-0.888c0.136-0.273,0.205-0.668,0.205-1.184
		c0-1.052-0.373-1.815-1.117-2.29s-1.811-0.712-3.198-0.712c-1.603,0-2.741,0.436-3.411,1.305c-0.375,0.482-0.62,1.197-0.733,2.147
		h-2.871c0.057-2.263,0.788-3.836,2.193-4.722c1.405-0.885,3.036-1.328,4.891-1.328c2.15,0,3.897,0.41,5.24,1.23
		c1.332,0.82,1.997,2.097,1.997,3.828v10.545c0,0.319,0.065,0.576,0.196,0.77s0.407,0.289,0.829,0.289
		c0.137,0,0.291-0.008,0.461-0.025s0.353-0.042,0.547-0.076v2.272c-0.479,0.137-0.843,0.222-1.094,0.257
		c-0.251,0.033-0.593,0.051-1.025,0.051c-1.06,0-1.829-0.376-2.307-1.127c-0.251-0.399-0.427-0.963-0.53-1.692
		c-0.627,0.82-1.527,1.532-2.7,2.136c-1.174,0.604-2.467,0.906-3.879,0.906c-1.698,0-3.085-0.516-4.161-1.545
		c-1.077-1.029-1.615-2.318-1.615-3.866c0-1.695,0.53-3.01,1.589-3.942c1.06-0.934,2.449-1.508,4.17-1.725L148.771,241.964z
		 M142.293,250.273c0.649,0.512,1.418,0.768,2.307,0.768c1.082,0,2.13-0.25,3.145-0.75c1.709-0.831,2.563-2.19,2.563-4.078v-2.475
		c-0.375,0.24-0.858,0.439-1.45,0.6s-1.171,0.275-1.74,0.343l-1.859,0.239c-1.114,0.147-1.952,0.381-2.514,0.699
		c-0.951,0.534-1.427,1.387-1.427,2.558C141.319,249.062,141.644,249.762,142.293,250.273z"/>
	<path fill="#E2E2E2" d="M158.426,234.737h2.922v2.598c0.866-1.071,1.783-1.84,2.751-2.308c0.968-0.467,2.045-0.7,3.23-0.7
		c2.598,0,4.352,0.905,5.264,2.718c0.501,0.99,0.752,2.409,0.752,4.255v11.741h-3.127v-11.536c0-1.116-0.166-2.017-0.496-2.7
		c-0.547-1.139-1.538-1.709-2.974-1.709c-0.729,0-1.328,0.074-1.794,0.223c-0.843,0.25-1.584,0.752-2.222,1.504
		c-0.513,0.604-0.846,1.228-1,1.871c-0.153,0.644-0.23,1.563-0.23,2.76v9.588h-3.076V234.737z"/>
</g>
<g>
	<path fill="#E2E2E2" d="M108.948,312.092v15.518c0,1.823,0.344,3.338,1.034,4.546c1.022,1.823,2.745,2.734,5.168,2.734
		c2.905,0,4.88-0.985,5.925-2.956c0.563-1.071,0.844-2.513,0.844-4.324v-15.518h3.435v14.1c0,3.088-0.417,5.463-1.252,7.126
		c-1.532,3.03-4.424,4.546-8.677,4.546s-7.14-1.516-8.66-4.546c-0.835-1.663-1.252-4.038-1.252-7.126v-14.1H108.948z"/>
	<path fill="#E2E2E2" d="M132.771,329.096c0.077,1.425,0.4,2.581,0.971,3.47c1.086,1.663,3.001,2.495,5.746,2.495
		c1.229,0,2.348-0.182,3.358-0.547c1.954-0.706,2.93-1.971,2.93-3.794c0-1.367-0.414-2.341-1.242-2.923
		c-0.839-0.568-2.152-1.064-3.94-1.486l-3.294-0.77c-2.152-0.5-3.675-1.053-4.569-1.657c-1.545-1.048-2.318-2.614-2.318-4.7
		c0-2.256,0.759-4.106,2.278-5.554c1.519-1.446,3.67-2.171,6.453-2.171c2.561,0,4.737,0.636,6.528,1.906
		c1.79,1.271,2.686,3.301,2.686,6.092h-3.196c-0.164-1.344-0.514-2.375-1.049-3.093c-0.994-1.31-2.682-1.966-5.062-1.966
		c-1.923,0-3.305,0.422-4.146,1.266c-0.841,0.843-1.261,1.822-1.261,2.939c0,1.23,0.497,2.131,1.49,2.699
		c0.651,0.365,2.125,0.82,4.421,1.367l3.411,0.804c1.645,0.388,2.914,0.917,3.808,1.589c1.545,1.174,2.318,2.877,2.318,5.11
		c0,2.78-0.986,4.769-2.958,5.964c-1.972,1.197-4.264,1.795-6.875,1.795c-3.044,0-5.428-0.797-7.15-2.393
		c-1.723-1.584-2.567-3.73-2.533-6.443H132.771z"/>
	<path fill="#E2E2E2" d="M161.221,312.092h3.839l9.112,25.105h-3.726l-2.621-7.52h-9.85l-2.723,7.52h-3.486L161.221,312.092z
		 M166.86,326.908l-3.865-11.091l-4.017,11.091H166.86z"/>
</g>
<g>
	<path fill="#E2E2E2" d="M71.729,394.341h11.412c1.879,0,3.429,0.279,4.648,0.837c2.315,1.072,3.474,3.049,3.474,5.931
		c0,1.504-0.311,2.734-0.931,3.691c-0.622,0.957-1.49,1.726-2.606,2.308c0.979,0.398,1.718,0.922,2.213,1.572
		c0.496,0.648,0.772,1.703,0.829,3.161l0.12,3.366c0.034,0.957,0.114,1.67,0.239,2.137c0.205,0.798,0.569,1.311,1.094,1.538v0.563
		h-4.17c-0.114-0.216-0.205-0.495-0.273-0.837s-0.125-1.003-0.171-1.982l-0.205-4.187c-0.078-1.641-0.67-2.74-1.776-3.299
		c-0.631-0.308-1.622-0.461-2.973-0.461H75.13v10.766h-3.401V394.341z M82.775,405.842c1.551,0,2.778-0.318,3.681-0.957
		c0.903-0.637,1.354-1.788,1.354-3.451c0-1.789-0.631-3.008-1.895-3.658c-0.676-0.342-1.579-0.512-2.709-0.512H75.13v8.578H82.775z"
		/>
	<path fill="#E2E2E2" d="M99.261,401.143v12.15c0,0.936,0.144,1.698,0.433,2.291c0.533,1.094,1.526,1.641,2.979,1.641
		c2.086,0,3.506-0.957,4.261-2.871c0.41-1.025,0.616-2.433,0.616-4.222v-8.989h3.076v18.303h-2.905l0.034-2.699
		c-0.392,0.695-0.878,1.281-1.459,1.76c-1.151,0.957-2.549,1.436-4.192,1.436c-2.56,0-4.304-0.871-5.232-2.615
		c-0.503-0.934-0.754-2.182-0.754-3.742v-12.441H99.261z"/>
	<path fill="#E2E2E2" d="M117.479,413.703c0.093,1.025,0.354,1.812,0.785,2.359c0.791,0.99,2.163,1.486,4.117,1.486
		c1.163,0,2.186-0.248,3.07-0.744c0.884-0.494,1.326-1.261,1.326-2.298c0-0.786-0.354-1.384-1.06-1.794
		c-0.452-0.251-1.343-0.541-2.674-0.872l-2.484-0.615c-1.586-0.388-2.756-0.82-3.508-1.299c-1.343-0.831-2.015-1.982-2.015-3.452
		c0-1.731,0.632-3.133,1.896-4.204c1.264-1.071,2.964-1.606,5.101-1.606c2.794,0,4.809,0.809,6.044,2.427
		c0.774,1.025,1.149,2.131,1.126,3.315h-2.905c-0.059-0.691-0.309-1.32-0.752-1.887c-0.723-0.805-1.977-1.207-3.761-1.207
		c-1.189,0-2.09,0.222-2.703,0.664c-0.612,0.443-0.918,1.027-0.918,1.754c0,0.795,0.402,1.432,1.207,1.908
		c0.464,0.283,1.149,0.533,2.055,0.75l2.072,0.496c2.252,0.535,3.761,1.054,4.527,1.555c1.196,0.786,1.794,2.022,1.794,3.709
		c0,1.629-0.626,3.036-1.877,4.221s-3.158,1.777-5.718,1.777c-2.757,0-4.709-0.618-5.857-1.854c-1.147-1.236-1.762-2.766-1.843-4.59
		H117.479z"/>
	<path fill="#E2E2E2" d="M134.979,413.703c0.093,1.025,0.354,1.812,0.785,2.359c0.791,0.99,2.163,1.486,4.117,1.486
		c1.163,0,2.186-0.248,3.07-0.744c0.884-0.494,1.326-1.261,1.326-2.298c0-0.786-0.354-1.384-1.06-1.794
		c-0.452-0.251-1.343-0.541-2.674-0.872l-2.484-0.615c-1.586-0.388-2.756-0.82-3.508-1.299c-1.343-0.831-2.015-1.982-2.015-3.452
		c0-1.731,0.632-3.133,1.896-4.204c1.264-1.071,2.964-1.606,5.101-1.606c2.794,0,4.809,0.809,6.044,2.427
		c0.774,1.025,1.149,2.131,1.126,3.315h-2.905c-0.059-0.691-0.309-1.32-0.752-1.887c-0.723-0.805-1.977-1.207-3.761-1.207
		c-1.189,0-2.09,0.222-2.703,0.664c-0.612,0.443-0.918,1.027-0.918,1.754c0,0.795,0.402,1.432,1.207,1.908
		c0.464,0.283,1.149,0.533,2.055,0.75l2.072,0.496c2.252,0.535,3.761,1.054,4.527,1.555c1.196,0.786,1.794,2.022,1.794,3.709
		c0,1.629-0.626,3.036-1.877,4.221s-3.158,1.777-5.718,1.777c-2.757,0-4.709-0.618-5.857-1.854c-1.147-1.236-1.762-2.766-1.843-4.59
		H134.979z"/>
	<path fill="#E2E2E2" d="M150.65,394.341h3.127v3.486h-3.127V394.341z M150.65,401.229h3.127v18.217h-3.127V401.229z"/>
	<path fill="#E2E2E2" d="M168.236,408.369c0.706-0.091,1.179-0.387,1.418-0.887c0.136-0.275,0.205-0.67,0.205-1.184
		c0-1.053-0.373-1.816-1.117-2.291s-1.811-0.712-3.198-0.712c-1.603,0-2.741,0.435-3.411,1.306c-0.375,0.48-0.62,1.196-0.733,2.146
		h-2.871c0.057-2.262,0.788-3.836,2.193-4.722s3.036-1.328,4.891-1.328c2.15,0,3.897,0.41,5.24,1.23
		c1.332,0.82,1.997,2.097,1.997,3.829v10.545c0,0.318,0.065,0.574,0.196,0.768s0.407,0.291,0.829,0.291
		c0.137,0,0.291-0.01,0.461-0.025c0.171-0.018,0.353-0.043,0.547-0.077v2.272c-0.479,0.137-0.843,0.223-1.094,0.256
		c-0.251,0.035-0.593,0.052-1.025,0.052c-1.06,0-1.829-0.376-2.307-1.128c-0.251-0.398-0.427-0.963-0.53-1.691
		c-0.627,0.82-1.527,1.532-2.7,2.137c-1.174,0.603-2.467,0.904-3.879,0.904c-1.698,0-3.085-0.515-4.161-1.545
		c-1.077-1.029-1.615-2.318-1.615-3.865c0-1.695,0.53-3.01,1.589-3.943c1.06-0.933,2.449-1.508,4.17-1.724L168.236,408.369z
		 M161.758,416.68c0.649,0.512,1.418,0.767,2.307,0.767c1.082,0,2.13-0.25,3.145-0.751c1.709-0.83,2.563-2.189,2.563-4.078v-2.474
		c-0.375,0.24-0.858,0.44-1.45,0.601s-1.171,0.273-1.74,0.342l-1.859,0.238c-1.114,0.148-1.952,0.382-2.514,0.7
		c-0.951,0.534-1.427,1.387-1.427,2.558C160.784,415.469,161.109,416.168,161.758,416.68z"/>
</g>
</svg>
