<?xml version="1.0" encoding="utf-8"?>
<!-- Generator: Adobe Illustrator 24.1.0, SVG Export Plug-In . SVG Version: 6.00 Build 0)  -->
<svg version="1.1" id="Layer_1" xmlns="http://www.w3.org/2000/svg" xmlns:xlink="http://www.w3.org/1999/xlink" x="0px" y="0px"
	 viewBox="0 0 760 380" style="enable-background:new 0 0 760 380;" xml:space="preserve">
<style type="text/css">
	.st0{enable-background:new    ;}
	.st1{fill:#FFFFFF;}
	.st2{fill:#E2E2E2;}
</style>
<g class="st0">
	<path class="st1" d="M106.2,2.6H118c4,0,7.1,1.4,9.3,4.3c2,2.6,2.9,5.9,2.9,10c0,3.1-0.6,6-1.7,8.5c-2,4.5-5.6,6.7-10.5,6.7h-11.7
		V2.6z M117.2,28.6c1.3,0,2.4-0.1,3.3-0.4c1.5-0.5,2.8-1.5,3.7-3c0.8-1.2,1.3-2.7,1.7-4.6c0.2-1.1,0.3-2.1,0.3-3.1
		c0-3.6-0.7-6.5-2.1-8.5c-1.4-2-3.7-3-6.8-3h-6.9v22.6H117.2z"/>
	<path class="st1" d="M135.3,10.6h3.4v3.7c0.3-0.7,1-1.6,2.1-2.6c1.1-1,2.4-1.6,3.8-1.6c0.1,0,0.2,0,0.3,0c0.2,0,0.4,0,0.8,0.1V14
		c-0.2,0-0.4-0.1-0.6-0.1c-0.2,0-0.4,0-0.6,0c-1.8,0-3.2,0.6-4.2,1.8s-1.5,2.5-1.5,4V32h-3.6V10.6z"/>
	<path class="st1" d="M160.4,19c0.8-0.1,1.4-0.5,1.7-1c0.2-0.3,0.2-0.8,0.2-1.4c0-1.2-0.4-2.1-1.3-2.7c-0.9-0.6-2.1-0.8-3.7-0.8
		c-1.9,0-3.2,0.5-4,1.5c-0.4,0.6-0.7,1.4-0.9,2.5H149c0.1-2.7,0.9-4.5,2.6-5.5c1.6-1,3.6-1.6,5.7-1.6c2.5,0,4.6,0.5,6.1,1.4
		c1.6,1,2.3,2.5,2.3,4.5v12.4c0,0.4,0.1,0.7,0.2,0.9c0.2,0.2,0.5,0.3,1,0.3c0.2,0,0.3,0,0.5,0c0.2,0,0.4-0.1,0.6-0.1v2.7
		c-0.6,0.2-1,0.3-1.3,0.3c-0.3,0-0.7,0.1-1.2,0.1c-1.2,0-2.1-0.4-2.7-1.3c-0.3-0.5-0.5-1.1-0.6-2c-0.7,1-1.8,1.8-3.2,2.5
		c-1.4,0.7-2.9,1.1-4.5,1.1c-2,0-3.6-0.6-4.9-1.8c-1.3-1.2-1.9-2.7-1.9-4.5c0-2,0.6-3.5,1.9-4.6c1.2-1.1,2.9-1.8,4.9-2L160.4,19z
		 M152.8,28.8c0.8,0.6,1.7,0.9,2.7,0.9c1.3,0,2.5-0.3,3.7-0.9c2-1,3-2.6,3-4.8v-2.9c-0.4,0.3-1,0.5-1.7,0.7c-0.7,0.2-1.4,0.3-2,0.4
		l-2.2,0.3c-1.3,0.2-2.3,0.4-2.9,0.8c-1.1,0.6-1.7,1.6-1.7,3C151.6,27.4,152,28.2,152.8,28.8z"/>
	<path class="st1" d="M183.6,11.4c0.7,0.5,1.4,1.1,2.1,2v-2.7h3.3v19.5c0,2.7-0.4,4.9-1.2,6.5c-1.5,2.9-4.3,4.4-8.4,4.4
		c-2.3,0-4.2-0.5-5.8-1.6c-1.6-1-2.4-2.7-2.6-4.9h3.7c0.2,1,0.5,1.7,1,2.2c0.8,0.8,2.1,1.2,3.8,1.2c2.8,0,4.6-1,5.4-2.9
		c0.5-1.1,0.7-3.2,0.7-6.2c-0.7,1.1-1.6,1.9-2.6,2.4c-1,0.5-2.3,0.8-4,0.8c-2.3,0-4.3-0.8-6.1-2.5c-1.7-1.7-2.6-4.4-2.6-8.2
		c0-3.6,0.9-6.4,2.6-8.4c1.8-2,3.9-3,6.3-3C180.9,10.2,182.4,10.6,183.6,11.4z M184.1,15.3c-1.1-1.3-2.5-1.9-4.2-1.9
		c-2.5,0-4.3,1.2-5.2,3.6c-0.5,1.3-0.7,2.9-0.7,5c0,2.4,0.5,4.3,1.5,5.5c1,1.3,2.3,1.9,3.9,1.9c2.6,0,4.4-1.2,5.4-3.5
		c0.6-1.3,0.9-2.9,0.9-4.6C185.7,18.5,185.2,16.6,184.1,15.3z"/>
	<path class="st1" d="M206.4,11.4c0.7,0.5,1.4,1.1,2.1,2v-2.7h3.3v19.5c0,2.7-0.4,4.9-1.2,6.5c-1.5,2.9-4.3,4.4-8.4,4.4
		c-2.3,0-4.2-0.5-5.8-1.6c-1.6-1-2.4-2.7-2.6-4.9h3.7c0.2,1,0.5,1.7,1,2.2c0.8,0.8,2.1,1.2,3.8,1.2c2.8,0,4.6-1,5.4-2.9
		c0.5-1.1,0.7-3.2,0.7-6.2c-0.7,1.1-1.6,1.9-2.6,2.4c-1,0.5-2.3,0.8-4,0.8c-2.3,0-4.3-0.8-6.1-2.5c-1.7-1.7-2.6-4.4-2.6-8.2
		c0-3.6,0.9-6.4,2.6-8.4c1.8-2,3.9-3,6.3-3C203.7,10.2,205.2,10.6,206.4,11.4z M206.9,15.3c-1.1-1.3-2.5-1.9-4.2-1.9
		c-2.5,0-4.3,1.2-5.2,3.6c-0.5,1.3-0.7,2.9-0.7,5c0,2.4,0.5,4.3,1.5,5.5s2.3,1.9,3.9,1.9c2.6,0,4.4-1.2,5.4-3.5
		c0.6-1.3,0.9-2.9,0.9-4.6C208.5,18.5,208,16.6,206.9,15.3z"/>
	<path class="st1" d="M217.3,2.6h3.7v4.1h-3.7V2.6z M217.3,10.7h3.7V32h-3.7V10.7z"/>
	<path class="st1" d="M226.5,10.6h3.4v3c1-1.3,2.1-2.2,3.2-2.7c1.1-0.5,2.4-0.8,3.8-0.8c3,0,5.1,1.1,6.2,3.2c0.6,1.2,0.9,2.8,0.9,5
		V32h-3.7V18.5c0-1.3-0.2-2.4-0.6-3.2c-0.6-1.3-1.8-2-3.5-2c-0.9,0-1.6,0.1-2.1,0.3c-1,0.3-1.9,0.9-2.6,1.8c-0.6,0.7-1,1.4-1.2,2.2
		s-0.3,1.8-0.3,3.2V32h-3.6V10.6z"/>
	<path class="st1" d="M261.2,11.4c0.7,0.5,1.4,1.1,2.1,2v-2.7h3.3v19.5c0,2.7-0.4,4.9-1.2,6.5c-1.5,2.9-4.3,4.4-8.4,4.4
		c-2.3,0-4.2-0.5-5.8-1.6c-1.6-1-2.4-2.7-2.6-4.9h3.7c0.2,1,0.5,1.7,1,2.2c0.8,0.8,2.1,1.2,3.8,1.2c2.8,0,4.6-1,5.4-2.9
		c0.5-1.1,0.7-3.2,0.7-6.2c-0.7,1.1-1.6,1.9-2.6,2.4c-1,0.5-2.3,0.8-4,0.8c-2.3,0-4.3-0.8-6.1-2.5c-1.7-1.7-2.6-4.4-2.6-8.2
		c0-3.6,0.9-6.4,2.6-8.4c1.8-2,3.9-3,6.3-3C258.5,10.2,260,10.6,261.2,11.4z M261.7,15.3c-1.1-1.3-2.5-1.9-4.2-1.9
		c-2.5,0-4.3,1.2-5.2,3.6c-0.5,1.3-0.7,2.9-0.7,5c0,2.4,0.5,4.3,1.5,5.5c1,1.3,2.3,1.9,3.9,1.9c2.6,0,4.4-1.2,5.4-3.5
		c0.6-1.3,0.9-2.9,0.9-4.6C263.3,18.5,262.7,16.6,261.7,15.3z"/>
	<path class="st1" d="M284.2,4.6h3.6v6h3.4v2.9h-3.4v14c0,0.7,0.3,1.2,0.8,1.5c0.3,0.1,0.7,0.2,1.4,0.2c0.2,0,0.4,0,0.6,0
		c0.2,0,0.4,0,0.7-0.1V32c-0.4,0.1-0.8,0.2-1.3,0.3c-0.4,0.1-0.9,0.1-1.5,0.1c-1.7,0-2.8-0.4-3.4-1.3s-0.9-2-0.9-3.4V13.5h-2.9v-2.9
		h2.9V4.6z"/>
	<path class="st1" d="M294.9,2.5h3.6v11c0.9-1.1,1.6-1.8,2.3-2.3c1.2-0.8,2.6-1.1,4.3-1.1c3.1,0,5.2,1.1,6.3,3.3
		c0.6,1.2,0.9,2.8,0.9,4.9V32h-3.7V18.5c0-1.6-0.2-2.7-0.6-3.5c-0.7-1.2-1.9-1.8-3.7-1.8c-1.5,0-2.9,0.5-4.1,1.5
		c-1.2,1-1.8,3-1.8,5.8V32h-3.6V2.5z"/>
	<path class="st1" d="M331,11.2c1.4,0.7,2.5,1.6,3.2,2.8c0.7,1.1,1.2,2.3,1.4,3.8c0.2,1,0.3,2.6,0.3,4.7h-15.6
		c0.1,2.2,0.6,3.9,1.5,5.3c1,1.3,2.4,2,4.4,2c1.9,0,3.4-0.6,4.5-1.9c0.6-0.7,1.1-1.6,1.3-2.5h3.5c-0.1,0.8-0.4,1.7-0.9,2.6
		c-0.5,1-1.1,1.8-1.8,2.4c-1.1,1.1-2.4,1.8-4,2.2c-0.9,0.2-1.8,0.3-2.9,0.3c-2.7,0-4.9-1-6.8-2.9s-2.8-4.7-2.8-8.2
		c0-3.4,0.9-6.2,2.8-8.4c1.9-2.2,4.3-3.2,7.3-3.2C328.1,10.1,329.6,10.4,331,11.2z M332.3,19.6c-0.1-1.6-0.5-2.8-1-3.7
		c-1-1.7-2.6-2.6-4.9-2.6c-1.6,0-3,0.6-4.1,1.8c-1.1,1.2-1.7,2.7-1.8,4.6H332.3z"/>
	<path class="st1" d="M352.1,2.6h3.6V32h-3.6V2.6z"/>
	<path class="st1" d="M372.6,19c0.8-0.1,1.4-0.5,1.7-1c0.2-0.3,0.2-0.8,0.2-1.4c0-1.2-0.4-2.1-1.3-2.7c-0.9-0.6-2.1-0.8-3.8-0.8
		c-1.9,0-3.2,0.5-4,1.5c-0.4,0.6-0.7,1.4-0.9,2.5h-3.4c0.1-2.7,0.9-4.5,2.6-5.5c1.6-1,3.6-1.6,5.7-1.6c2.5,0,4.6,0.5,6.1,1.4
		c1.6,1,2.3,2.5,2.3,4.5v12.4c0,0.4,0.1,0.7,0.2,0.9c0.2,0.2,0.5,0.3,1,0.3c0.2,0,0.3,0,0.5,0c0.2,0,0.4-0.1,0.6-0.1v2.7
		c-0.6,0.2-1,0.3-1.3,0.3c-0.3,0-0.7,0.1-1.2,0.1c-1.2,0-2.1-0.4-2.7-1.3c-0.3-0.5-0.5-1.1-0.6-2c-0.7,1-1.8,1.8-3.2,2.5
		c-1.4,0.7-2.9,1.1-4.5,1.1c-2,0-3.6-0.6-4.9-1.8c-1.3-1.2-1.9-2.7-1.9-4.5c0-2,0.6-3.5,1.9-4.6c1.2-1.1,2.9-1.8,4.9-2L372.6,19z
		 M365,28.8c0.8,0.6,1.7,0.9,2.7,0.9c1.3,0,2.5-0.3,3.7-0.9c2-1,3-2.6,3-4.8v-2.9c-0.4,0.3-1,0.5-1.7,0.7c-0.7,0.2-1.4,0.3-2,0.4
		l-2.2,0.3c-1.3,0.2-2.3,0.4-2.9,0.8c-1.1,0.6-1.7,1.6-1.7,3C363.8,27.4,364.2,28.2,365,28.8z"/>
	<path class="st1" d="M383.6,2.5h3.5v10.7c0.8-1,1.7-1.8,2.8-2.4c1.1-0.5,2.3-0.8,3.6-0.8c2.7,0,4.9,0.9,6.5,2.8
		c1.7,1.8,2.5,4.5,2.5,8.1c0,3.4-0.8,6.2-2.5,8.5c-1.6,2.2-3.9,3.4-6.9,3.4c-1.6,0-3-0.4-4.1-1.2c-0.7-0.5-1.4-1.2-2.2-2.2V32h-3.3
		L383.6,2.5L383.6,2.5z M397.4,27.2c1-1.5,1.5-3.6,1.5-6.1c0-2.3-0.5-4.1-1.5-5.6s-2.4-2.2-4.3-2.2c-1.6,0-3.1,0.6-4.3,1.8
		c-1.2,1.2-1.9,3.2-1.9,6c0,2,0.3,3.7,0.8,4.9c1,2.4,2.7,3.5,5.3,3.5C395,29.5,396.4,28.7,397.4,27.2z"/>
	<path class="st1" d="M420,11.2c1.4,0.7,2.5,1.6,3.2,2.8c0.7,1.1,1.2,2.3,1.4,3.8c0.2,1,0.3,2.6,0.3,4.7h-15.6
		c0.1,2.2,0.6,3.9,1.5,5.3c1,1.3,2.4,2,4.4,2c1.9,0,3.4-0.6,4.5-1.9c0.6-0.7,1.1-1.6,1.3-2.5h3.5c-0.1,0.8-0.4,1.7-0.9,2.6
		c-0.5,1-1.1,1.8-1.8,2.4c-1.1,1.1-2.4,1.8-4,2.2c-0.9,0.2-1.8,0.3-2.9,0.3c-2.7,0-4.9-1-6.8-2.9c-1.8-1.9-2.8-4.7-2.8-8.2
		c0-3.4,0.9-6.2,2.8-8.4c1.9-2.2,4.3-3.2,7.3-3.2C417.1,10.1,418.6,10.4,420,11.2z M421.3,19.6c-0.1-1.6-0.5-2.8-1-3.7
		c-1-1.7-2.6-2.6-4.9-2.6c-1.6,0-3,0.6-4.1,1.8s-1.7,2.7-1.8,4.6H421.3z"/>
	<path class="st1" d="M429.7,2.6h3.6V32h-3.6V2.6z"/>
	<path class="st1" d="M440.8,25.3c0.1,1.2,0.4,2.1,0.9,2.8c0.9,1.2,2.5,1.7,4.8,1.7c1.4,0,2.6-0.3,3.6-0.9s1.6-1.5,1.6-2.7
		c0-0.9-0.4-1.6-1.2-2.1c-0.5-0.3-1.6-0.6-3.1-1l-2.9-0.7c-1.9-0.5-3.2-1-4.1-1.5c-1.6-1-2.4-2.3-2.4-4c0-2,0.7-3.7,2.2-4.9
		s3.5-1.9,6-1.9c3.3,0,5.6,0.9,7.1,2.8c0.9,1.2,1.3,2.5,1.3,3.9h-3.4c-0.1-0.8-0.4-1.5-0.9-2.2c-0.8-0.9-2.3-1.4-4.4-1.4
		c-1.4,0-2.5,0.3-3.2,0.8c-0.7,0.5-1.1,1.2-1.1,2.1c0,0.9,0.5,1.7,1.4,2.2c0.5,0.3,1.3,0.6,2.4,0.9l2.4,0.6c2.6,0.6,4.4,1.2,5.3,1.8
		c1.4,0.9,2.1,2.4,2.1,4.3c0,1.9-0.7,3.6-2.2,4.9c-1.5,1.4-3.7,2.1-6.7,2.1c-3.2,0-5.5-0.7-6.9-2.2c-1.3-1.4-2.1-3.2-2.2-5.4
		L440.8,25.3L440.8,25.3z"/>
	<path class="st1" d="M470.6,2.6h3.7v4.1h-3.7V2.6z M470.6,10.7h3.7V32h-3.7V10.7z"/>
	<path class="st1" d="M479.7,10.6h3.4v3c1-1.3,2.1-2.2,3.2-2.7c1.1-0.5,2.4-0.8,3.8-0.8c3,0,5.1,1.1,6.2,3.2c0.6,1.2,0.9,2.8,0.9,5
		V32h-3.7V18.5c0-1.3-0.2-2.4-0.6-3.2c-0.6-1.3-1.8-2-3.5-2c-0.9,0-1.6,0.1-2.1,0.3c-1,0.3-1.9,0.9-2.6,1.8c-0.6,0.7-1,1.4-1.2,2.2
		c-0.2,0.8-0.3,1.8-0.3,3.2V32h-3.6V10.6z"/>
	<path class="st1" d="M503.3,4.6h3.6v6h3.4v2.9h-3.4v14c0,0.7,0.3,1.2,0.8,1.5c0.3,0.1,0.7,0.2,1.4,0.2c0.2,0,0.4,0,0.6,0
		c0.2,0,0.4,0,0.7-0.1V32c-0.4,0.1-0.8,0.2-1.3,0.3s-0.9,0.1-1.5,0.1c-1.7,0-2.8-0.4-3.4-1.3c-0.6-0.9-0.9-2-0.9-3.4V13.5h-2.9v-2.9
		h2.9V4.6z"/>
	<path class="st1" d="M529.5,12.7c1.9,1.8,2.8,4.6,2.8,8.1c0,3.5-0.8,6.3-2.5,8.6c-1.7,2.3-4.3,3.4-7.8,3.4c-2.9,0-5.3-1-7-3
		c-1.7-2-2.6-4.7-2.6-8c0-3.6,0.9-6.5,2.7-8.6c1.8-2.1,4.3-3.2,7.3-3.2C525.3,9.9,527.6,10.9,529.5,12.7z M527.3,27
		c0.9-1.8,1.3-3.8,1.3-6c0-2-0.3-3.6-1-4.9c-1-2-2.7-3-5.2-3c-2.2,0-3.8,0.8-4.8,2.5c-1,1.7-1.5,3.7-1.5,6.1c0,2.3,0.5,4.2,1.5,5.7
		c1,1.5,2.6,2.3,4.7,2.3C524.8,29.7,526.4,28.8,527.3,27z"/>
	<path class="st1" d="M547.9,2.5h3.5v10.7c0.8-1,1.7-1.8,2.8-2.4c1.1-0.5,2.3-0.8,3.6-0.8c2.7,0,4.9,0.9,6.5,2.8
		c1.7,1.8,2.5,4.5,2.5,8.1c0,3.4-0.8,6.2-2.5,8.5c-1.6,2.2-3.9,3.4-6.9,3.4c-1.6,0-3-0.4-4.1-1.2c-0.7-0.5-1.4-1.2-2.2-2.2V32h-3.3
		L547.9,2.5L547.9,2.5z M561.7,27.2c1-1.5,1.5-3.6,1.5-6.1c0-2.3-0.5-4.1-1.5-5.6s-2.4-2.2-4.3-2.2c-1.6,0-3.1,0.6-4.3,1.8
		c-1.2,1.2-1.9,3.2-1.9,6c0,2,0.3,3.7,0.8,4.9c1,2.4,2.7,3.5,5.3,3.5C559.2,29.5,560.7,28.7,561.7,27.2z"/>
	<path class="st1" d="M586.5,12.7c1.9,1.8,2.8,4.6,2.8,8.1c0,3.5-0.8,6.3-2.5,8.6c-1.7,2.3-4.3,3.4-7.8,3.4c-2.9,0-5.3-1-7-3
		c-1.7-2-2.6-4.7-2.6-8c0-3.6,0.9-6.5,2.7-8.6c1.8-2.1,4.3-3.2,7.3-3.2C582.3,9.9,584.6,10.9,586.5,12.7z M584.3,27
		c0.9-1.8,1.3-3.8,1.3-6c0-2-0.3-3.6-1-4.9c-1-2-2.7-3-5.2-3c-2.2,0-3.8,0.8-4.8,2.5c-1,1.7-1.5,3.7-1.5,6.1c0,2.3,0.5,4.2,1.5,5.7
		c1,1.5,2.6,2.3,4.7,2.3C581.8,29.7,583.4,28.8,584.3,27z"/>
	<path class="st1" d="M591.8,10.6h4.7l4.9,7.6l5-7.6l4.4,0.1L603.5,21l7.6,11h-4.6l-5.3-8.1L596,32h-4.6l7.6-11L591.8,10.6z"/>
	<path class="st1" d="M627.6,11.2c1.4,0.7,2.5,1.6,3.2,2.8c0.7,1.1,1.2,2.3,1.4,3.8c0.2,1,0.3,2.6,0.3,4.7H617
		c0.1,2.2,0.6,3.9,1.5,5.3c1,1.3,2.4,2,4.4,2c1.9,0,3.4-0.6,4.5-1.9c0.6-0.7,1.1-1.6,1.3-2.5h3.5c-0.1,0.8-0.4,1.7-0.9,2.6
		c-0.5,1-1.1,1.8-1.8,2.4c-1.1,1.1-2.4,1.8-4,2.2c-0.9,0.2-1.8,0.3-2.9,0.3c-2.7,0-4.9-1-6.8-2.9s-2.8-4.7-2.8-8.2
		c0-3.4,0.9-6.2,2.8-8.4s4.3-3.2,7.3-3.2C624.7,10.1,626.2,10.4,627.6,11.2z M628.9,19.6c-0.1-1.6-0.5-2.8-1-3.7
		c-1-1.7-2.6-2.6-4.9-2.6c-1.6,0-3,0.6-4.1,1.8s-1.7,2.7-1.8,4.6H628.9z"/>
	<path class="st1" d="M639.3,25.3c0.1,1.2,0.4,2.1,0.9,2.8c0.9,1.2,2.5,1.7,4.8,1.7c1.4,0,2.6-0.3,3.6-0.9c1-0.6,1.6-1.5,1.6-2.7
		c0-0.9-0.4-1.6-1.2-2.1c-0.5-0.3-1.6-0.6-3.1-1l-2.9-0.7c-1.9-0.5-3.2-1-4.1-1.5c-1.6-1-2.4-2.3-2.4-4c0-2,0.7-3.7,2.2-4.9
		c1.5-1.3,3.5-1.9,6-1.9c3.3,0,5.6,0.9,7.1,2.8c0.9,1.2,1.3,2.5,1.3,3.9h-3.4c-0.1-0.8-0.4-1.5-0.9-2.2c-0.8-0.9-2.3-1.4-4.4-1.4
		c-1.4,0-2.5,0.3-3.2,0.8c-0.7,0.5-1.1,1.2-1.1,2.1c0,0.9,0.5,1.7,1.4,2.2c0.5,0.3,1.3,0.6,2.4,0.9l2.4,0.6c2.6,0.6,4.4,1.2,5.3,1.8
		c1.4,0.9,2.1,2.4,2.1,4.3c0,1.9-0.7,3.6-2.2,4.9c-1.5,1.4-3.7,2.1-6.7,2.1c-3.2,0-5.5-0.7-6.9-2.2c-1.3-1.4-2.1-3.2-2.2-5.4
		L639.3,25.3L639.3,25.3z"/>
</g>
<g class="st0">
	<path class="st2" d="M154.3,71.1h13.4c2.2,0,4,0.3,5.5,1c2.7,1.3,4.1,3.6,4.1,7c0,1.8-0.4,3.2-1.1,4.3c-0.7,1.1-1.7,2-3.1,2.7
		c1.1,0.5,2,1.1,2.6,1.8s0.9,2,1,3.7l0.1,3.9c0,1.1,0.1,2,0.3,2.5c0.2,0.9,0.7,1.5,1.3,1.8v0.7h-4.9c-0.1-0.3-0.2-0.6-0.3-1
		s-0.1-1.2-0.2-2.3l-0.2-4.9c-0.1-1.9-0.8-3.2-2.1-3.9c-0.7-0.4-1.9-0.5-3.5-0.5h-8.8v12.6h-4L154.3,71.1L154.3,71.1z M167.3,84.6
		c1.8,0,3.3-0.4,4.3-1.1c1.1-0.7,1.6-2.1,1.6-4c0-2.1-0.7-3.5-2.2-4.3c-0.8-0.4-1.9-0.6-3.2-0.6h-9.5v10.1L167.3,84.6L167.3,84.6z"
		/>
	<path class="st2" d="M196.2,79.7c1.4,0.7,2.5,1.6,3.2,2.8c0.7,1.1,1.2,2.3,1.4,3.8c0.2,1,0.3,2.6,0.3,4.7h-15.6
		c0.1,2.2,0.6,3.9,1.5,5.3s2.4,2,4.4,2c1.9,0,3.4-0.6,4.5-1.9c0.6-0.7,1.1-1.6,1.3-2.5h3.5c-0.1,0.8-0.4,1.7-0.9,2.6
		s-1.1,1.8-1.8,2.4c-1.1,1.1-2.4,1.8-4,2.2c-0.9,0.2-1.8,0.3-2.9,0.3c-2.7,0-4.9-1-6.8-2.9c-1.8-1.9-2.8-4.7-2.8-8.2
		c0-3.4,0.9-6.2,2.8-8.4c1.9-2.2,4.3-3.2,7.3-3.2C193.4,78.6,194.8,78.9,196.2,79.7z M197.5,88.1c-0.1-1.6-0.5-2.8-1-3.7
		c-1-1.7-2.6-2.6-4.9-2.6c-1.6,0-3,0.6-4.1,1.8c-1.1,1.2-1.7,2.7-1.8,4.6H197.5z"/>
	<path class="st2" d="M217.6,79.7c0.6,0.4,1.4,1.1,2.2,2.1V71h3.5v29.5H220v-3c-0.8,1.3-1.8,2.3-3,2.9c-1.1,0.6-2.5,0.9-3.9,0.9
		c-2.4,0-4.4-1-6.2-3c-1.7-2-2.6-4.7-2.6-8c0-3.1,0.8-5.8,2.4-8.1s3.9-3.4,6.8-3.4C215.1,78.7,216.5,79,217.6,79.7z M209.5,95.8
		c1,1.5,2.5,2.3,4.7,2.3c1.7,0,3-0.7,4.1-2.2c1.1-1.4,1.6-3.5,1.6-6.2c0-2.7-0.6-4.7-1.7-6c-1.1-1.3-2.5-2-4.1-2
		c-1.8,0-3.3,0.7-4.4,2.1c-1.1,1.4-1.7,3.4-1.7,6.1C208.1,92.4,208.6,94.3,209.5,95.8z"/>
</g>
<g class="st0">
	<path class="st2" d="M146.9,130.3h12.7c3.5,0,5.9,1,7.4,3.1c0.9,1.2,1.3,2.6,1.3,4.2c0,1.9-0.5,3.4-1.6,4.6
		c-0.5,0.6-1.3,1.2-2.4,1.7c1.5,0.6,2.6,1.2,3.4,1.9c1.3,1.3,2,3.1,2,5.3c0,1.9-0.6,3.6-1.8,5.1c-1.8,2.3-4.6,3.4-8.5,3.4h-12.5
		L146.9,130.3L146.9,130.3z M158.1,142.8c1.7,0,3-0.2,4-0.7c1.5-0.7,2.2-2.1,2.2-4c0-1.9-0.8-3.2-2.4-3.9c-0.9-0.4-2.2-0.6-4-0.6
		h-7.2v9.1L158.1,142.8L158.1,142.8z M159.5,156.4c2.5,0,4.2-0.7,5.3-2.1c0.7-0.9,1-2,1-3.2c0-2.1-1-3.6-2.9-4.4
		c-1-0.4-2.4-0.6-4.1-0.6h-8v10.4L159.5,156.4L159.5,156.4z"/>
	<path class="st2" d="M174,130.3h3.6v29.4H174V130.3z"/>
	<path class="st2" d="M186.6,138.3v14.2c0,1.1,0.2,2,0.5,2.7c0.6,1.3,1.8,1.9,3.5,1.9c2.4,0,4.1-1.1,5-3.4c0.5-1.2,0.7-2.9,0.7-4.9
		v-10.5h3.6v21.5h-3.4l0-3.2c-0.5,0.8-1,1.5-1.7,2.1c-1.4,1.1-3,1.7-4.9,1.7c-3,0-5-1-6.1-3.1c-0.6-1.1-0.9-2.6-0.9-4.4v-14.6
		L186.6,138.3L186.6,138.3z"/>
	<path class="st2" d="M219.1,138.9c1.4,0.7,2.5,1.6,3.2,2.8c0.7,1.1,1.2,2.3,1.4,3.8c0.2,1,0.3,2.6,0.3,4.7h-15.6
		c0.1,2.2,0.6,3.9,1.5,5.3c1,1.3,2.4,2,4.4,2c1.9,0,3.4-0.6,4.5-1.9c0.6-0.7,1.1-1.6,1.3-2.5h3.5c-0.1,0.8-0.4,1.7-0.9,2.6
		s-1.1,1.8-1.8,2.4c-1.1,1.1-2.4,1.8-4,2.2c-0.9,0.2-1.8,0.3-2.9,0.3c-2.7,0-4.9-1-6.8-2.9c-1.8-1.9-2.8-4.7-2.8-8.2
		c0-3.4,0.9-6.2,2.8-8.4c1.9-2.2,4.3-3.2,7.3-3.2C216.2,137.8,217.6,138.2,219.1,138.9z M220.4,147.3c-0.1-1.6-0.5-2.8-1-3.7
		c-1-1.7-2.6-2.6-4.9-2.6c-1.6,0-3,0.6-4.1,1.8c-1.1,1.2-1.7,2.7-1.8,4.6L220.4,147.3L220.4,147.3z"/>
</g>
<g class="st0">
	<path class="st2" d="M110.9,195.8H124c2.6,0,4.7,0.7,6.3,2.2c1.6,1.5,2.4,3.5,2.4,6.2c0,2.3-0.7,4.3-2.1,6
		c-1.4,1.7-3.6,2.6-6.6,2.6h-9.2v12.4h-4L110.9,195.8L110.9,195.8z M126.3,199.9c-0.9-0.4-2.1-0.6-3.6-0.6h-7.9v10.2h7.9
		c1.8,0,3.2-0.4,4.3-1.1c1.1-0.8,1.7-2.1,1.7-4C128.7,202.1,127.9,200.7,126.3,199.9z"/>
	<path class="st2" d="M141,203.8v14.2c0,1.1,0.2,2,0.5,2.7c0.6,1.3,1.8,1.9,3.5,1.9c2.4,0,4.1-1.1,5-3.4c0.5-1.2,0.7-2.9,0.7-4.9
		v-10.5h3.6v21.5h-3.4l0-3.2c-0.5,0.8-1,1.5-1.7,2.1c-1.4,1.1-3,1.7-4.9,1.7c-3,0-5-1-6.1-3.1c-0.6-1.1-0.9-2.6-0.9-4.4v-14.6
		L141,203.8L141,203.8z"/>
	<path class="st2" d="M160.3,203.8h3.4v3.7c0.3-0.7,1-1.6,2.1-2.6c1.1-1,2.4-1.6,3.8-1.6c0.1,0,0.2,0,0.3,0c0.2,0,0.4,0,0.8,0.1v3.8
		c-0.2,0-0.4-0.1-0.6-0.1c-0.2,0-0.4,0-0.6,0c-1.8,0-3.2,0.6-4.2,1.8s-1.5,2.5-1.5,4v12.3h-3.6L160.3,203.8L160.3,203.8z"/>
	<path class="st2" d="M173.6,203.9h3.5v2.8c0.7-1,1.5-1.7,2.4-2.3c1.2-0.8,2.7-1.2,4.3-1.2c2.4,0,4.5,0.9,6.2,2.8s2.6,4.5,2.6,8
		c0,4.7-1.2,8-3.7,10c-1.6,1.3-3.4,1.9-5.4,1.9c-1.6,0-3-0.4-4.1-1.1c-0.6-0.4-1.4-1.1-2.2-2.1v11h-3.6L173.6,203.9L173.6,203.9z
		 M187.1,220.7c1.1-1.4,1.7-3.5,1.7-6.3c0-1.7-0.2-3.2-0.7-4.4c-0.9-2.4-2.7-3.5-5.1-3.5c-2.5,0-4.2,1.2-5.1,3.7
		c-0.5,1.3-0.7,3-0.7,5.1c0,1.7,0.2,3.1,0.7,4.2c0.9,2.2,2.7,3.3,5.1,3.3C184.6,222.9,186,222.2,187.1,220.7z"/>
	<path class="st2" d="M196.8,195.8h3.6v29.4h-3.6V195.8z"/>
	<path class="st2" d="M219.1,204.4c1.4,0.7,2.5,1.6,3.2,2.8c0.7,1.1,1.2,2.3,1.4,3.8c0.2,1,0.3,2.6,0.3,4.7h-15.6
		c0.1,2.2,0.6,3.9,1.5,5.3s2.4,2,4.4,2c1.9,0,3.4-0.6,4.5-1.9c0.6-0.7,1.1-1.6,1.3-2.5h3.5c-0.1,0.8-0.4,1.7-0.9,2.6
		c-0.5,1-1.1,1.8-1.8,2.4c-1.1,1.1-2.4,1.8-4,2.2c-0.9,0.2-1.8,0.3-2.9,0.3c-2.7,0-4.9-1-6.8-2.9c-1.8-1.9-2.8-4.7-2.8-8.2
		c0-3.4,0.9-6.2,2.8-8.4c1.9-2.2,4.3-3.2,7.3-3.2C216.2,203.3,217.6,203.7,219.1,204.4z M220.4,212.8c-0.1-1.6-0.5-2.8-1-3.7
		c-1-1.7-2.6-2.6-4.9-2.6c-1.6,0-3,0.6-4.1,1.8c-1.1,1.2-1.7,2.7-1.8,4.6L220.4,212.8L220.4,212.8z"/>
</g>
<g>
	<g class="st0">
		<path class="st2" d="M116.5,262.7c2,2.6,2.9,5.9,2.9,10c0,4.4-1.1,8-3.3,11c-2.6,3.4-6.4,5.1-11.2,5.1c-4.5,0-8.1-1.5-10.7-4.5
			c-2.3-2.9-3.5-6.5-3.5-10.9c0-4,1-7.4,3-10.2c2.5-3.6,6.3-5.5,11.3-5.5C110.1,257.7,114,259.4,116.5,262.7z M113,281.5
			c1.6-2.5,2.4-5.4,2.4-8.7c0-3.5-0.9-6.3-2.7-8.4c-1.8-2.1-4.3-3.2-7.4-3.2c-3,0-5.5,1-7.5,3.1c-1.9,2.1-2.9,5.2-2.9,9.3
			c0,3.3,0.8,6,2.5,8.3c1.7,2.2,4.3,3.4,8,3.4C108.8,285.2,111.4,284,113,281.5z"/>
		<path class="st2" d="M123.8,266.5h3.4v3.7c0.3-0.7,1-1.6,2.1-2.6c1.1-1,2.4-1.6,3.8-1.6c0.1,0,0.2,0,0.3,0c0.2,0,0.4,0,0.8,0.1
			v3.8c-0.2,0-0.4-0.1-0.6-0.1s-0.4,0-0.6,0c-1.8,0-3.2,0.6-4.2,1.8c-1,1.2-1.5,2.5-1.5,4v12.3h-3.6L123.8,266.5L123.8,266.5z"/>
		<path class="st2" d="M148.8,274.9c0.8-0.1,1.4-0.5,1.7-1c0.2-0.3,0.2-0.8,0.2-1.4c0-1.2-0.4-2.1-1.3-2.7s-2.1-0.8-3.7-0.8
			c-1.9,0-3.2,0.5-4,1.5c-0.4,0.6-0.7,1.4-0.9,2.5h-3.4c0.1-2.7,0.9-4.5,2.6-5.5c1.6-1,3.6-1.6,5.7-1.6c2.5,0,4.6,0.5,6.1,1.4
			c1.6,1,2.3,2.5,2.3,4.5v12.4c0,0.4,0.1,0.7,0.2,0.9c0.2,0.2,0.5,0.3,1,0.3c0.2,0,0.3,0,0.5,0c0.2,0,0.4-0.1,0.6-0.1v2.7
			c-0.6,0.2-1,0.3-1.3,0.3c-0.3,0-0.7,0.1-1.2,0.1c-1.2,0-2.1-0.4-2.7-1.3c-0.3-0.5-0.5-1.1-0.6-2c-0.7,1-1.8,1.8-3.2,2.5
			s-2.9,1.1-4.5,1.1c-2,0-3.6-0.6-4.9-1.8s-1.9-2.7-1.9-4.5c0-2,0.6-3.5,1.9-4.6c1.2-1.1,2.9-1.8,4.9-2L148.8,274.9z M141.2,284.7
			c0.8,0.6,1.7,0.9,2.7,0.9c1.3,0,2.5-0.3,3.7-0.9c2-1,3-2.6,3-4.8V277c-0.4,0.3-1,0.5-1.7,0.7c-0.7,0.2-1.4,0.3-2,0.4l-2.2,0.3
			c-1.3,0.2-2.3,0.4-2.9,0.8c-1.1,0.6-1.7,1.6-1.7,3C140.1,283.3,140.5,284.1,141.2,284.7z"/>
		<path class="st2" d="M160.2,266.5h3.4v3c1-1.3,2.1-2.2,3.2-2.7c1.1-0.5,2.4-0.8,3.8-0.8c3,0,5.1,1.1,6.2,3.2
			c0.6,1.2,0.9,2.8,0.9,5v13.8H174v-13.5c0-1.3-0.2-2.4-0.6-3.2c-0.6-1.3-1.8-2-3.5-2c-0.9,0-1.6,0.1-2.1,0.3
			c-1,0.3-1.9,0.9-2.6,1.8c-0.6,0.7-1,1.4-1.2,2.2c-0.2,0.8-0.3,1.8-0.3,3.2v11.2h-3.6V266.5z"/>
		<path class="st2" d="M194.9,267.3c0.7,0.5,1.4,1.1,2.1,2v-2.7h3.3v19.5c0,2.7-0.4,4.9-1.2,6.5c-1.5,2.9-4.3,4.4-8.4,4.4
			c-2.3,0-4.2-0.5-5.8-1.6c-1.6-1-2.4-2.7-2.6-4.9h3.7c0.2,1,0.5,1.7,1,2.2c0.8,0.8,2.1,1.2,3.8,1.2c2.8,0,4.6-1,5.4-2.9
			c0.5-1.1,0.7-3.2,0.7-6.2c-0.7,1.1-1.6,1.9-2.6,2.4c-1,0.5-2.3,0.8-4,0.8c-2.3,0-4.3-0.8-6.1-2.5c-1.7-1.7-2.6-4.4-2.6-8.2
			c0-3.6,0.9-6.4,2.6-8.4c1.8-2,3.9-3,6.3-3C192.2,266.1,193.7,266.5,194.9,267.3z M195.4,271.2c-1.1-1.3-2.5-1.9-4.2-1.9
			c-2.5,0-4.3,1.2-5.2,3.6c-0.5,1.3-0.7,2.9-0.7,5c0,2.4,0.5,4.3,1.5,5.5s2.3,1.9,3.9,1.9c2.6,0,4.4-1.2,5.4-3.5
			c0.6-1.3,0.9-2.9,0.9-4.6C197,274.5,196.4,272.5,195.4,271.2z"/>
		<path class="st2" d="M219.1,267.1c1.4,0.7,2.5,1.6,3.2,2.8c0.7,1.1,1.2,2.3,1.4,3.8c0.2,1,0.3,2.6,0.3,4.7h-15.6
			c0.1,2.2,0.6,3.9,1.5,5.3s2.4,2,4.4,2c1.9,0,3.4-0.6,4.5-1.9c0.6-0.7,1.1-1.6,1.3-2.5h3.5c-0.1,0.8-0.4,1.7-0.9,2.6
			c-0.5,1-1.1,1.8-1.8,2.4c-1.1,1.1-2.4,1.8-4,2.2c-0.9,0.2-1.8,0.3-2.9,0.3c-2.7,0-4.9-1-6.8-2.9s-2.8-4.7-2.8-8.2
			c0-3.4,0.9-6.2,2.8-8.4c1.9-2.2,4.3-3.2,7.3-3.2C216.2,266,217.6,266.3,219.1,267.1z M220.4,275.5c-0.1-1.6-0.5-2.8-1-3.7
			c-1-1.7-2.6-2.6-4.9-2.6c-1.6,0-3,0.6-4.1,1.8c-1.1,1.2-1.7,2.7-1.8,4.6H220.4z"/>
	</g>
</g>
</svg>
