<?xml version="1.0" encoding="utf-8"?>
<!-- Generator: Adobe Illustrator 16.0.0, SVG Export Plug-In . SVG Version: 6.00 Build 0)  -->
<!DOCTYPE svg PUBLIC "-//W3C//DTD SVG 1.1//EN" "http://www.w3.org/Graphics/SVG/1.1/DTD/svg11.dtd">
<svg version="1.1" id="Layer_1" xmlns="http://www.w3.org/2000/svg" xmlns:xlink="http://www.w3.org/1999/xlink" x="0px" y="0px"
	 width="760px" height="380px" viewBox="0 0 760 380" enable-background="new 0 0 760 380" xml:space="preserve">
<g enable-background="new    ">
	<path fill="#FFFFFF" d="M60.992,6.785h13.762c4.672,0,8.295,1.68,10.87,5.039c2.297,3.031,3.446,6.914,3.446,11.648
		c0,3.656-0.679,6.961-2.035,9.914c-2.39,5.219-6.5,7.828-12.328,7.828H60.992V6.785z M73.839,37.23
		c1.543,0,2.811-0.164,3.804-0.492c1.772-0.609,3.223-1.781,4.354-3.516c0.901-1.391,1.551-3.172,1.948-5.344
		c0.229-1.297,0.344-2.5,0.344-3.609c0-4.266-0.829-7.578-2.486-9.938c-1.658-2.359-4.328-3.539-8.01-3.539h-8.09V37.23H73.839z"/>
	<path fill="#FFFFFF" d="M95,16.113h4.008v4.336c0.328-0.844,1.133-1.871,2.414-3.082c1.281-1.211,2.758-1.816,4.43-1.816
		c0.078,0,0.211,0.008,0.398,0.023c0.187,0.015,0.508,0.047,0.961,0.094v4.453c-0.25-0.047-0.48-0.078-0.691-0.094
		s-0.441-0.023-0.691-0.023c-2.125,0-3.758,0.684-4.898,2.051c-1.14,1.367-1.711,2.941-1.711,4.723v14.438H95V16.113z"/>
	<path fill="#FFFFFF" d="M124.321,26.023c0.968-0.124,1.617-0.53,1.945-1.217c0.187-0.376,0.281-0.917,0.281-1.623
		c0-1.443-0.511-2.49-1.532-3.141s-2.483-0.977-4.385-0.977c-2.199,0-3.758,0.597-4.678,1.79c-0.515,0.66-0.85,1.642-1.006,2.944
		h-3.938c0.078-3.103,1.081-5.261,3.008-6.476c1.928-1.214,4.163-1.821,6.707-1.821c2.949,0,5.345,0.562,7.187,1.688
		c1.826,1.125,2.739,2.875,2.739,5.25v14.461c0,0.438,0.09,0.789,0.27,1.055c0.18,0.265,0.559,0.397,1.137,0.397
		c0.188,0,0.398-0.012,0.633-0.035s0.484-0.059,0.75-0.105v3.117c-0.656,0.188-1.156,0.305-1.5,0.352
		c-0.344,0.047-0.812,0.07-1.406,0.07c-1.453,0-2.508-0.516-3.164-1.547c-0.344-0.547-0.586-1.32-0.727-2.319
		c-0.859,1.125-2.094,2.101-3.703,2.929s-3.383,1.242-5.32,1.242c-2.328,0-4.23-0.706-5.707-2.118s-2.215-3.18-2.215-5.303
		c0-2.325,0.727-4.127,2.18-5.407c1.453-1.279,3.359-2.067,5.719-2.364L124.321,26.023z M115.438,37.421
		c0.891,0.701,1.945,1.052,3.164,1.052c1.484,0,2.922-0.343,4.312-1.029c2.344-1.139,3.516-3.003,3.516-5.593v-3.394
		c-0.515,0.33-1.177,0.604-1.988,0.823c-0.811,0.22-1.606,0.376-2.386,0.47l-2.55,0.328c-1.528,0.202-2.677,0.522-3.447,0.959
		c-1.305,0.732-1.957,1.901-1.957,3.507C114.102,35.76,114.547,36.719,115.438,37.421z"/>
	<path fill="#FFFFFF" d="M151.518,17.121c0.793,0.547,1.603,1.344,2.428,2.391v-3.164h3.891v22.828c0,3.188-0.467,5.703-1.401,7.547
		c-1.744,3.406-5.038,5.109-9.881,5.109c-2.694,0-4.96-0.605-6.798-1.816c-1.837-1.211-2.865-3.105-3.084-5.684h4.289
		c0.202,1.125,0.605,1.992,1.212,2.602c0.948,0.938,2.44,1.406,4.476,1.406c3.217,0,5.322-1.141,6.317-3.422
		c0.591-1.344,0.863-3.742,0.816-7.195c-0.84,1.281-1.852,2.234-3.035,2.859S148,41.52,146.055,41.52
		c-2.708,0-5.078-0.965-7.109-2.895c-2.031-1.93-3.046-5.121-3.046-9.574c0-4.203,1.023-7.484,3.07-9.844
		c2.047-2.359,4.518-3.539,7.413-3.539C148.342,15.668,150.054,16.152,151.518,17.121z M152.033,21.645
		c-1.274-1.5-2.899-2.25-4.874-2.25c-2.954,0-4.975,1.391-6.062,4.172c-0.575,1.484-0.863,3.43-0.863,5.836
		c0,2.828,0.571,4.98,1.714,6.457c1.143,1.477,2.678,2.215,4.605,2.215c3.016,0,5.137-1.367,6.365-4.102
		c0.685-1.547,1.026-3.352,1.026-5.414C153.945,25.449,153.308,23.145,152.033,21.645z"/>
	<path fill="#FFFFFF" d="M178.213,17.121c0.793,0.547,1.603,1.344,2.428,2.391v-3.164h3.891v22.828c0,3.188-0.467,5.703-1.401,7.547
		c-1.744,3.406-5.038,5.109-9.881,5.109c-2.694,0-4.96-0.605-6.798-1.816c-1.837-1.211-2.865-3.105-3.084-5.684h4.289
		c0.202,1.125,0.605,1.992,1.212,2.602c0.948,0.938,2.44,1.406,4.476,1.406c3.217,0,5.322-1.141,6.317-3.422
		c0.591-1.344,0.863-3.742,0.816-7.195c-0.84,1.281-1.852,2.234-3.035,2.859s-2.748,0.938-4.693,0.938
		c-2.708,0-5.078-0.965-7.109-2.895c-2.031-1.93-3.046-5.121-3.046-9.574c0-4.203,1.023-7.484,3.07-9.844
		c2.047-2.359,4.518-3.539,7.413-3.539C175.037,15.668,176.749,16.152,178.213,17.121z M178.729,21.645
		c-1.274-1.5-2.899-2.25-4.874-2.25c-2.954,0-4.975,1.391-6.062,4.172c-0.575,1.484-0.863,3.43-0.863,5.836
		c0,2.828,0.571,4.98,1.714,6.457s2.678,2.215,4.605,2.215c3.016,0,5.137-1.367,6.365-4.102c0.685-1.547,1.026-3.352,1.026-5.414
		C180.641,25.449,180.003,23.145,178.729,21.645z"/>
	<path fill="#FFFFFF" d="M190.953,6.785h4.289v4.781h-4.289V6.785z M190.953,16.23h4.289v24.984h-4.289V16.23z"/>
	<path fill="#FFFFFF" d="M201.617,16.113h4.008v3.562c1.188-1.469,2.445-2.523,3.773-3.164c1.328-0.641,2.805-0.961,4.43-0.961
		c3.562,0,5.969,1.242,7.219,3.727c0.688,1.359,1.031,3.305,1.031,5.836v16.102h-4.289v-15.82c0-1.531-0.227-2.766-0.68-3.703
		c-0.75-1.562-2.109-2.344-4.078-2.344c-1,0-1.82,0.102-2.461,0.305c-1.156,0.344-2.172,1.031-3.047,2.062
		c-0.703,0.828-1.16,1.684-1.371,2.566c-0.211,0.882-0.316,2.145-0.316,3.785v13.148h-4.219V16.113z"/>
	<path fill="#FFFFFF" d="M242.268,17.121c0.793,0.547,1.603,1.344,2.428,2.391v-3.164h3.891v22.828c0,3.188-0.467,5.703-1.401,7.547
		c-1.744,3.406-5.038,5.109-9.881,5.109c-2.694,0-4.96-0.605-6.798-1.816c-1.837-1.211-2.865-3.105-3.084-5.684h4.289
		c0.202,1.125,0.605,1.992,1.212,2.602c0.948,0.938,2.44,1.406,4.476,1.406c3.217,0,5.322-1.141,6.317-3.422
		c0.591-1.344,0.863-3.742,0.816-7.195c-0.84,1.281-1.852,2.234-3.035,2.859s-2.748,0.938-4.693,0.938
		c-2.708,0-5.078-0.965-7.109-2.895c-2.031-1.93-3.046-5.121-3.046-9.574c0-4.203,1.023-7.484,3.07-9.844
		c2.047-2.359,4.518-3.539,7.413-3.539C239.092,15.668,240.804,16.152,242.268,17.121z M242.783,21.645
		c-1.274-1.5-2.899-2.25-4.874-2.25c-2.954,0-4.975,1.391-6.062,4.172c-0.575,1.484-0.863,3.43-0.863,5.836
		c0,2.828,0.571,4.98,1.714,6.457c1.143,1.477,2.678,2.215,4.605,2.215c3.016,0,5.137-1.367,6.365-4.102
		c0.685-1.547,1.026-3.352,1.026-5.414C244.695,25.449,244.058,23.145,242.783,21.645z"/>
	<path fill="#FFFFFF" d="M269.188,9.105h4.266v7.008h4.008v3.445h-4.008v16.383c0,0.875,0.297,1.461,0.891,1.758
		c0.328,0.172,0.875,0.258,1.641,0.258c0.203,0,0.422-0.005,0.656-0.016c0.234-0.01,0.508-0.036,0.82-0.078v3.352
		c-0.484,0.141-0.988,0.242-1.512,0.305c-0.524,0.063-1.09,0.094-1.699,0.094c-1.969,0-3.305-0.504-4.008-1.512
		c-0.703-1.008-1.055-2.316-1.055-3.926V19.559h-3.398v-3.445h3.398V9.105z"/>
	<path fill="#FFFFFF" d="M281.68,6.668h4.219v12.844c1-1.266,1.898-2.156,2.695-2.672c1.359-0.891,3.055-1.336,5.086-1.336
		c3.641,0,6.109,1.273,7.406,3.82c0.703,1.391,1.055,3.32,1.055,5.789v16.102h-4.336v-15.82c0-1.844-0.234-3.195-0.703-4.055
		c-0.766-1.375-2.203-2.062-4.312-2.062c-1.75,0-3.336,0.602-4.758,1.805c-1.422,1.203-2.133,3.477-2.133,6.82v13.312h-4.219V6.668z
		"/>
	<path fill="#FFFFFF" d="M323.88,16.805c1.661,0.836,2.927,1.918,3.797,3.246c0.839,1.266,1.397,2.742,1.677,4.43
		c0.248,1.156,0.373,3,0.373,5.531h-18.258c0.078,2.554,0.675,4.603,1.791,6.146c1.116,1.543,2.845,2.314,5.186,2.314
		c2.186,0,3.93-0.729,5.232-2.189c0.729-0.848,1.245-1.828,1.549-2.943h4.148c-0.109,0.922-0.473,1.949-1.09,3.082
		c-0.617,1.133-1.306,2.059-2.065,2.777c-1.271,1.25-2.846,2.094-4.722,2.531c-1.009,0.25-2.148,0.375-3.42,0.375
		c-3.105,0-5.737-1.137-7.896-3.41c-2.159-2.273-3.237-5.457-3.237-9.551c0-4.031,1.087-7.305,3.261-9.82
		c2.174-2.516,5.016-3.773,8.525-3.773C320.502,15.551,322.218,15.969,323.88,16.805z M325.391,26.66
		c-0.171-1.828-0.565-3.289-1.186-4.383c-1.146-2.031-3.06-3.047-5.74-3.047c-1.921,0-3.532,0.699-4.834,2.098
		c-1.302,1.399-1.991,3.176-2.068,5.332H325.391z"/>
	<path fill="#FFFFFF" d="M348.523,6.785h4.219v34.43h-4.219V6.785z"/>
	<path fill="#FFFFFF" d="M372.523,26.023c0.969-0.124,1.617-0.53,1.945-1.217c0.188-0.376,0.281-0.917,0.281-1.623
		c0-1.443-0.511-2.49-1.532-3.141c-1.021-0.651-2.483-0.977-4.386-0.977c-2.198,0-3.758,0.597-4.678,1.79
		c-0.515,0.66-0.85,1.642-1.006,2.944h-3.938c0.078-3.103,1.081-5.261,3.008-6.476c1.928-1.214,4.163-1.821,6.707-1.821
		c2.949,0,5.346,0.562,7.187,1.688c1.826,1.125,2.739,2.875,2.739,5.25v14.461c0,0.438,0.09,0.789,0.27,1.055
		c0.18,0.265,0.559,0.397,1.137,0.397c0.188,0,0.398-0.012,0.634-0.035c0.234-0.023,0.483-0.059,0.75-0.105v3.117
		c-0.656,0.188-1.157,0.305-1.5,0.352c-0.344,0.047-0.812,0.07-1.406,0.07c-1.453,0-2.508-0.516-3.164-1.547
		c-0.344-0.547-0.586-1.32-0.727-2.319c-0.859,1.125-2.094,2.101-3.703,2.929s-3.383,1.242-5.32,1.242
		c-2.328,0-4.23-0.706-5.707-2.118c-1.477-1.412-2.215-3.18-2.215-5.303c0-2.325,0.727-4.127,2.18-5.407
		c1.453-1.279,3.359-2.067,5.719-2.364L372.523,26.023z M363.641,37.421c0.891,0.701,1.945,1.052,3.164,1.052
		c1.484,0,2.922-0.343,4.312-1.029c2.344-1.139,3.516-3.003,3.516-5.593v-3.394c-0.515,0.33-1.178,0.604-1.988,0.823
		c-0.81,0.219-1.606,0.376-2.386,0.47l-2.55,0.328c-1.528,0.202-2.677,0.522-3.447,0.959c-1.305,0.732-1.957,1.901-1.957,3.507
		C362.305,35.76,362.75,36.719,363.641,37.421z"/>
	<path fill="#FFFFFF" d="M385.414,6.668h4.102V19.16c0.926-1.203,2.031-2.121,3.317-2.754c1.286-0.633,2.683-0.949,4.188-0.949
		c3.137,0,5.682,1.074,7.635,3.223s2.93,5.316,2.93,9.504c0,3.969-0.965,7.266-2.895,9.891s-4.604,3.938-8.022,3.938
		c-1.914,0-3.528-0.461-4.847-1.383c-0.785-0.547-1.625-1.422-2.519-2.625v3.211h-3.891L385.414,6.668L385.414,6.668z
		 M401.545,35.566c1.137-1.812,1.705-4.203,1.705-7.172c0-2.641-0.568-4.828-1.705-6.562s-2.811-2.602-5.021-2.602
		c-1.928,0-3.617,0.711-5.066,2.133c-1.451,1.422-2.176,3.766-2.176,7.031c0,2.359,0.298,4.273,0.894,5.742
		c1.113,2.766,3.19,4.148,6.231,4.148C398.695,38.285,400.408,37.379,401.545,35.566z"/>
	<path fill="#FFFFFF" d="M427.966,16.805c1.661,0.836,2.927,1.918,3.797,3.246c0.839,1.266,1.397,2.742,1.678,4.43
		c0.247,1.156,0.372,3,0.372,5.531h-18.258c0.078,2.554,0.676,4.603,1.791,6.146c1.116,1.543,2.846,2.314,5.187,2.314
		c2.186,0,3.93-0.729,5.231-2.189c0.729-0.848,1.245-1.828,1.549-2.943h4.148c-0.109,0.922-0.473,1.949-1.09,3.082
		c-0.617,1.133-1.306,2.059-2.065,2.777c-1.271,1.25-2.846,2.094-4.722,2.531c-1.009,0.25-2.148,0.375-3.42,0.375
		c-3.105,0-5.737-1.137-7.896-3.41c-2.158-2.273-3.236-5.457-3.236-9.551c0-4.031,1.087-7.305,3.261-9.82
		c2.174-2.515,5.017-3.773,8.525-3.773C424.588,15.551,426.304,15.969,427.966,16.805z M429.477,26.66
		c-0.171-1.828-0.564-3.289-1.186-4.383c-1.146-2.031-3.06-3.047-5.74-3.047c-1.921,0-3.531,0.699-4.834,2.098
		c-1.302,1.399-1.99,3.176-2.068,5.332H429.477z"/>
	<path fill="#FFFFFF" d="M439.273,6.785h4.219v34.43h-4.219V6.785z"/>
	<path fill="#FFFFFF" d="M452.328,33.34c0.127,1.406,0.486,2.484,1.076,3.234c1.084,1.359,2.967,2.039,5.646,2.039
		c1.595,0,2.998-0.34,4.21-1.02c1.212-0.68,1.818-1.73,1.818-3.152c0-1.078-0.484-1.898-1.453-2.461
		c-0.619-0.344-1.842-0.742-3.668-1.195l-3.406-0.844c-2.175-0.531-3.779-1.125-4.812-1.781c-1.843-1.141-2.764-2.719-2.764-4.734
		c0-2.375,0.867-4.297,2.602-5.766c1.733-1.469,4.064-2.203,6.995-2.203c3.832,0,6.596,1.109,8.289,3.328
		c1.062,1.406,1.575,2.922,1.545,4.547h-3.984c-0.08-0.948-0.424-1.81-1.031-2.587c-0.991-1.103-2.712-1.655-5.158-1.655
		c-1.632,0-2.866,0.304-3.706,0.911c-0.841,0.607-1.261,1.409-1.261,2.405c0,1.09,0.553,1.961,1.655,2.616
		c0.637,0.39,1.576,0.732,2.817,1.029l2.842,0.68c3.089,0.734,5.158,1.445,6.209,2.133c1.641,1.078,2.461,2.773,2.461,5.086
		c0,2.234-0.858,4.164-2.575,5.789c-1.716,1.625-4.33,2.438-7.842,2.438c-3.781,0-6.458-0.848-8.032-2.543
		c-1.574-1.695-2.417-3.793-2.527-6.293L452.328,33.34L452.328,33.34z"/>
	<path fill="#FFFFFF" d="M487.156,6.785h4.289v4.781h-4.289V6.785z M487.156,16.23h4.289v24.984h-4.289V16.23z"/>
	<path fill="#FFFFFF" d="M497.82,16.113h4.008v3.562c1.188-1.469,2.445-2.523,3.772-3.164c1.328-0.641,2.806-0.961,4.431-0.961
		c3.562,0,5.969,1.242,7.219,3.727c0.688,1.359,1.031,3.305,1.031,5.836v16.102h-4.289v-15.82c0-1.531-0.228-2.766-0.68-3.703
		c-0.75-1.562-2.109-2.344-4.078-2.344c-1,0-1.82,0.102-2.461,0.305c-1.156,0.344-2.173,1.031-3.048,2.062
		c-0.702,0.828-1.159,1.684-1.37,2.566c-0.212,0.882-0.316,2.145-0.316,3.785v13.148h-4.219V16.113z"/>
	<path fill="#FFFFFF" d="M525.359,9.105h4.266v7.008h4.008v3.445h-4.008v16.383c0,0.875,0.297,1.461,0.891,1.758
		c0.328,0.172,0.875,0.258,1.642,0.258c0.203,0,0.422-0.005,0.655-0.016c0.234-0.01,0.509-0.036,0.82-0.078v3.352
		c-0.483,0.141-0.988,0.242-1.512,0.305c-0.524,0.063-1.09,0.094-1.699,0.094c-1.969,0-3.305-0.504-4.008-1.512
		c-0.703-1.008-1.055-2.316-1.055-3.926V19.559h-3.398v-3.445h3.398V9.105z"/>
	<path fill="#FFFFFF" d="M556.039,18.619c2.219,2.154,3.328,5.323,3.328,9.506c0,4.044-0.979,7.385-2.934,10.023
		s-4.987,3.957-9.1,3.957c-3.429,0-6.152-1.167-8.169-3.501c-2.018-2.333-3.025-5.468-3.025-9.401c0-4.216,1.062-7.572,3.188-10.07
		c2.125-2.498,4.979-3.747,8.563-3.747C551.105,15.387,553.82,16.464,556.039,18.619z M553.42,35.301
		c1.027-2.114,1.541-4.467,1.541-7.058c0-2.341-0.371-4.245-1.112-5.712c-1.175-2.31-3.197-3.465-6.071-3.465
		c-2.551,0-4.403,0.983-5.562,2.95c-1.159,1.966-1.738,4.338-1.738,7.117c0,2.669,0.579,4.893,1.738,6.671
		c1.158,1.779,2.997,2.669,5.516,2.669C550.496,38.473,552.392,37.415,553.42,35.301z"/>
	<path fill="#FFFFFF" d="M577.531,6.668h4.102V19.16c0.926-1.203,2.031-2.121,3.317-2.754c1.286-0.633,2.683-0.949,4.188-0.949
		c3.138,0,5.683,1.074,7.636,3.223c1.952,2.149,2.93,5.316,2.93,9.504c0,3.969-0.965,7.266-2.896,9.891
		c-1.929,2.625-4.604,3.938-8.021,3.938c-1.914,0-3.529-0.461-4.847-1.383c-0.785-0.547-1.624-1.422-2.519-2.625v3.211h-3.891
		L577.531,6.668L577.531,6.668z M593.662,35.566c1.137-1.812,1.705-4.203,1.705-7.172c0-2.641-0.568-4.828-1.705-6.562
		s-2.812-2.602-5.021-2.602c-1.929,0-3.617,0.711-5.066,2.133c-1.451,1.422-2.176,3.766-2.176,7.031
		c0,2.359,0.298,4.273,0.894,5.742c1.113,2.766,3.19,4.148,6.231,4.148C590.812,38.285,592.525,37.379,593.662,35.566z"/>
	<path fill="#FFFFFF" d="M622.766,18.619c2.22,2.154,3.328,5.323,3.328,9.506c0,4.044-0.978,7.385-2.933,10.023
		s-4.988,3.957-9.101,3.957c-3.429,0-6.151-1.167-8.169-3.501c-2.018-2.333-3.024-5.468-3.024-9.401
		c0-4.216,1.062-7.572,3.188-10.07c2.125-2.498,4.98-3.747,8.564-3.747C617.832,15.387,620.547,16.464,622.766,18.619z
		 M620.146,35.301c1.026-2.114,1.541-4.467,1.541-7.058c0-2.341-0.371-4.245-1.112-5.712c-1.175-2.31-3.198-3.465-6.072-3.465
		c-2.55,0-4.403,0.983-5.562,2.95c-1.159,1.966-1.738,4.338-1.738,7.117c0,2.669,0.579,4.893,1.738,6.671
		c1.157,1.779,2.996,2.669,5.516,2.669C617.223,38.473,619.118,37.415,620.146,35.301z"/>
	<path fill="#FFFFFF" d="M628.883,16.113h5.461l5.767,8.836l5.836-8.836l5.133,0.117l-8.461,12.117l8.836,12.867h-5.392
		l-6.233-9.422l-6.047,9.422h-5.345l8.837-12.867L628.883,16.113z"/>
	<path fill="#FFFFFF" d="M670.778,16.805c1.661,0.836,2.927,1.918,3.797,3.246c0.839,1.266,1.396,2.742,1.677,4.43
		c0.248,1.156,0.373,3,0.373,5.531h-18.258c0.078,2.554,0.675,4.603,1.791,6.146s2.845,2.314,5.186,2.314
		c2.187,0,3.931-0.729,5.232-2.189c0.729-0.848,1.245-1.828,1.549-2.943h4.148c-0.109,0.922-0.474,1.949-1.091,3.082
		c-0.616,1.133-1.306,2.059-2.064,2.777c-1.271,1.25-2.847,2.094-4.722,2.531c-1.01,0.25-2.148,0.375-3.421,0.375
		c-3.104,0-5.736-1.137-7.896-3.41s-3.237-5.457-3.237-9.551c0-4.031,1.087-7.305,3.261-9.82c2.175-2.515,5.017-3.773,8.525-3.773
		C667.4,15.551,669.116,15.969,670.778,16.805z M672.289,26.66c-0.171-1.828-0.565-3.289-1.186-4.383
		c-1.146-2.031-3.061-3.047-5.74-3.047c-1.921,0-3.532,0.699-4.834,2.098c-1.303,1.399-1.991,3.176-2.068,5.332H672.289z"/>
	<path fill="#FFFFFF" d="M684.477,33.34c0.127,1.406,0.486,2.484,1.076,3.234c1.084,1.359,2.967,2.039,5.646,2.039
		c1.595,0,2.998-0.34,4.21-1.02c1.212-0.68,1.817-1.73,1.817-3.152c0-1.078-0.483-1.898-1.452-2.461
		c-0.619-0.344-1.843-0.742-3.669-1.195l-3.405-0.844c-2.175-0.531-3.779-1.125-4.812-1.781c-1.842-1.141-2.763-2.719-2.763-4.734
		c0-2.375,0.867-4.297,2.601-5.766c1.734-1.469,4.065-2.203,6.995-2.203c3.832,0,6.597,1.109,8.289,3.328
		c1.062,1.406,1.576,2.922,1.545,4.547h-3.983c-0.08-0.948-0.425-1.81-1.031-2.587c-0.992-1.103-2.712-1.655-5.159-1.655
		c-1.631,0-2.866,0.304-3.706,0.911s-1.26,1.409-1.26,2.405c0,1.09,0.552,1.961,1.655,2.616c0.637,0.39,1.575,0.732,2.816,1.029
		l2.842,0.68c3.09,0.734,5.158,1.445,6.209,2.133c1.642,1.078,2.461,2.773,2.461,5.086c0,2.234-0.857,4.164-2.574,5.789
		s-4.33,2.438-7.842,2.438c-3.781,0-6.459-0.848-8.032-2.543c-1.574-1.695-2.417-3.793-2.527-6.293L684.477,33.34L684.477,33.34z"/>
</g>
<g>
	<path fill="#E2E2E2" d="M113.505,68.57h4.711V103h-4.711V68.57z"/>
	<path fill="#E2E2E2" d="M125.224,77.898h4.008v3.562c1.188-1.469,2.445-2.523,3.773-3.164s2.805-0.961,4.43-0.961
		c3.562,0,5.969,1.242,7.219,3.727c0.688,1.359,1.031,3.305,1.031,5.836V103h-4.289V87.18c0-1.531-0.227-2.766-0.68-3.703
		c-0.75-1.562-2.109-2.344-4.078-2.344c-1,0-1.82,0.102-2.461,0.305c-1.156,0.344-2.172,1.031-3.047,2.062
		c-0.703,0.828-1.16,1.684-1.371,2.566s-0.316,2.145-0.316,3.785V103h-4.219V77.898z"/>
	<path fill="#E2E2E2" d="M165.71,78.672c0.747,0.469,1.595,1.289,2.545,2.461v-12.68h4.055V103h-3.797v-3.492
		c-0.98,1.547-2.141,2.664-3.479,3.352c-1.339,0.688-2.872,1.031-4.6,1.031c-2.786,0-5.199-1.176-7.238-3.527
		s-3.059-5.48-3.059-9.387c0-3.656,0.93-6.824,2.79-9.504c1.86-2.68,4.518-4.02,7.973-4.02
		C162.815,77.453,164.418,77.859,165.71,78.672z M156.293,97.492c1.135,1.812,2.954,2.719,5.457,2.719c1.943,0,3.54-0.84,4.792-2.52
		c1.251-1.68,1.877-4.09,1.877-7.23c0-3.172-0.646-5.52-1.936-7.043c-1.291-1.523-2.884-2.285-4.78-2.285
		c-2.115,0-3.829,0.812-5.142,2.438s-1.97,4.016-1.97,7.172C154.591,93.43,155.158,95.68,156.293,97.492z"/>
	<path fill="#E2E2E2" d="M178.614,68.57h4.289v4.781h-4.289V68.57z M178.614,78.016h4.289V103h-4.289V78.016z"/>
	<path fill="#E2E2E2" d="M202.732,87.809c0.968-0.124,1.617-0.53,1.945-1.216c0.187-0.376,0.281-0.917,0.281-1.624
		c0-1.443-0.511-2.49-1.532-3.141s-2.483-0.977-4.385-0.977c-2.199,0-3.758,0.597-4.678,1.79c-0.515,0.66-0.85,1.642-1.006,2.944
		h-3.938c0.078-3.103,1.081-5.261,3.008-6.476c1.928-1.214,4.163-1.821,6.707-1.821c2.949,0,5.345,0.562,7.187,1.688
		c1.826,1.125,2.739,2.875,2.739,5.25v14.461c0,0.438,0.09,0.789,0.27,1.055c0.18,0.265,0.559,0.397,1.137,0.397
		c0.188,0,0.398-0.012,0.633-0.035s0.484-0.058,0.75-0.105v3.117c-0.656,0.188-1.156,0.305-1.5,0.352s-0.812,0.07-1.406,0.07
		c-1.453,0-2.508-0.516-3.164-1.546c-0.344-0.547-0.586-1.32-0.727-2.32c-0.859,1.125-2.094,2.101-3.703,2.929
		c-1.609,0.828-3.383,1.242-5.32,1.242c-2.328,0-4.23-0.707-5.707-2.119s-2.215-3.179-2.215-5.302c0-2.325,0.727-4.127,2.18-5.407
		s3.359-2.068,5.719-2.365L202.732,87.809z M193.849,99.206c0.891,0.702,1.945,1.052,3.164,1.052c1.484,0,2.922-0.343,4.312-1.029
		c2.344-1.139,3.516-3.003,3.516-5.593v-3.393c-0.515,0.329-1.177,0.604-1.988,0.823c-0.811,0.22-1.606,0.376-2.386,0.47
		l-2.55,0.328c-1.528,0.203-2.677,0.522-3.447,0.959c-1.305,0.733-1.957,1.902-1.957,3.508
		C192.513,97.545,192.958,98.504,193.849,99.206z"/>
</g>
<g>
	<path fill="#E2E2E2" d="M34.837,125.784h15.407c3.045,0,5.505,0.863,7.378,2.59c1.873,1.727,2.809,4.152,2.809,7.277
		c0,2.688-0.836,5.027-2.507,7.02c-1.671,1.992-4.229,2.988-7.672,2.988h-10.75v14.555h-4.664V125.784z M52.927,130.519
		c-1.024-0.484-2.428-0.727-4.211-0.727h-9.215v11.93h9.215c2.078,0,3.766-0.445,5.061-1.336c1.295-0.891,1.943-2.461,1.943-4.711
		C55.72,133.144,54.789,131.425,52.927,130.519z"/>
	<path fill="#E2E2E2" d="M79.298,145.022c0.968-0.124,1.617-0.53,1.945-1.216c0.187-0.376,0.281-0.917,0.281-1.624
		c0-1.443-0.511-2.49-1.532-3.141s-2.483-0.977-4.385-0.977c-2.199,0-3.758,0.597-4.678,1.79c-0.515,0.66-0.85,1.642-1.006,2.944
		h-3.938c0.078-3.103,1.081-5.261,3.008-6.476c1.928-1.214,4.163-1.821,6.707-1.821c2.949,0,5.345,0.562,7.187,1.688
		c1.826,1.125,2.739,2.875,2.739,5.25v14.461c0,0.438,0.09,0.789,0.27,1.055c0.18,0.265,0.559,0.397,1.137,0.397
		c0.188,0,0.398-0.012,0.633-0.035s0.484-0.058,0.75-0.105v3.117c-0.656,0.188-1.156,0.305-1.5,0.352s-0.812,0.07-1.406,0.07
		c-1.453,0-2.508-0.516-3.164-1.546c-0.344-0.547-0.586-1.32-0.727-2.32c-0.859,1.125-2.094,2.101-3.703,2.929
		c-1.609,0.828-3.383,1.242-5.32,1.242c-2.328,0-4.23-0.707-5.707-2.119s-2.215-3.179-2.215-5.302c0-2.325,0.727-4.127,2.18-5.407
		s3.359-2.068,5.719-2.365L79.298,145.022z M70.415,156.419c0.891,0.702,1.945,1.052,3.164,1.052c1.484,0,2.922-0.343,4.312-1.029
		c2.344-1.139,3.516-3.003,3.516-5.593v-3.393c-0.515,0.329-1.177,0.604-1.988,0.823c-0.811,0.22-1.606,0.376-2.386,0.47
		l-2.55,0.328c-1.528,0.203-2.677,0.522-3.447,0.959c-1.305,0.733-1.957,1.902-1.957,3.508
		C69.079,154.759,69.524,155.718,70.415,156.419z"/>
	<path fill="#E2E2E2" d="M92.446,125.784h4.055v19.99l10.818-10.662h5.389l-9.647,9.333l10.188,15.769h-5.389l-7.896-12.773
		l-3.464,3.352v9.422h-4.055V125.784z"/>
	<path fill="#E2E2E2" d="M116.54,125.784h4.289v4.781h-4.289V125.784z M116.54,135.229h4.289v24.984h-4.289V135.229z"/>
	<path fill="#E2E2E2" d="M129.712,152.339c0.127,1.406,0.486,2.484,1.076,3.234c1.084,1.359,2.966,2.039,5.646,2.039
		c1.595,0,2.998-0.34,4.21-1.02c1.212-0.68,1.818-1.73,1.818-3.152c0-1.078-0.484-1.898-1.453-2.461
		c-0.62-0.344-1.842-0.742-3.668-1.195l-3.406-0.844c-2.175-0.531-3.779-1.125-4.811-1.781c-1.842-1.141-2.763-2.719-2.763-4.734
		c0-2.375,0.867-4.297,2.601-5.766s4.065-2.203,6.995-2.203c3.832,0,6.595,1.109,8.289,3.328c1.061,1.406,1.576,2.922,1.545,4.547
		h-3.984c-0.08-0.948-0.424-1.81-1.032-2.587c-0.992-1.103-2.711-1.655-5.158-1.655c-1.631,0-2.867,0.304-3.707,0.911
		c-0.839,0.607-1.259,1.409-1.259,2.405c0,1.09,0.552,1.962,1.655,2.616c0.637,0.39,1.576,0.732,2.817,1.029l2.842,0.68
		c3.088,0.734,5.158,1.445,6.209,2.133c1.641,1.078,2.461,2.773,2.461,5.086c0,2.234-0.858,4.164-2.575,5.789
		s-4.331,2.438-7.842,2.438c-3.781,0-6.458-0.848-8.032-2.543c-1.574-1.695-2.417-3.793-2.527-6.293H129.712z"/>
	<path fill="#E2E2E2" d="M152.048,128.104h4.266v7.008h4.008v3.445h-4.008v16.383c0,0.875,0.297,1.461,0.891,1.758
		c0.328,0.172,0.875,0.258,1.641,0.258c0.203,0,0.422-0.005,0.656-0.016c0.234-0.01,0.508-0.036,0.82-0.078v3.352
		c-0.484,0.141-0.988,0.242-1.512,0.305s-1.09,0.094-1.699,0.094c-1.969,0-3.305-0.504-4.008-1.512s-1.055-2.316-1.055-3.926
		v-16.617h-3.398v-3.445h3.398V128.104z"/>
	<path fill="#E2E2E2" d="M177.994,145.022c0.968-0.124,1.617-0.53,1.945-1.216c0.187-0.376,0.281-0.917,0.281-1.624
		c0-1.443-0.511-2.49-1.532-3.141s-2.483-0.977-4.385-0.977c-2.199,0-3.758,0.597-4.678,1.79c-0.515,0.66-0.85,1.642-1.006,2.944
		h-3.938c0.078-3.103,1.081-5.261,3.008-6.476c1.928-1.214,4.163-1.821,6.707-1.821c2.949,0,5.345,0.562,7.187,1.688
		c1.826,1.125,2.739,2.875,2.739,5.25v14.461c0,0.438,0.09,0.789,0.27,1.055c0.18,0.265,0.559,0.397,1.137,0.397
		c0.188,0,0.398-0.012,0.633-0.035s0.484-0.058,0.75-0.105v3.117c-0.656,0.188-1.156,0.305-1.5,0.352s-0.812,0.07-1.406,0.07
		c-1.453,0-2.508-0.516-3.164-1.546c-0.344-0.547-0.586-1.32-0.727-2.32c-0.859,1.125-2.094,2.101-3.703,2.929
		c-1.609,0.828-3.383,1.242-5.32,1.242c-2.328,0-4.23-0.707-5.707-2.119s-2.215-3.179-2.215-5.302c0-2.325,0.727-4.127,2.18-5.407
		s3.359-2.068,5.719-2.365L177.994,145.022z M169.11,156.419c0.891,0.702,1.945,1.052,3.164,1.052c1.484,0,2.922-0.343,4.312-1.029
		c2.344-1.139,3.516-3.003,3.516-5.593v-3.393c-0.515,0.329-1.177,0.604-1.988,0.823c-0.811,0.22-1.606,0.376-2.386,0.47
		l-2.55,0.328c-1.528,0.203-2.677,0.522-3.447,0.959c-1.305,0.733-1.957,1.902-1.957,3.508
		C167.774,154.759,168.22,155.718,169.11,156.419z"/>
	<path fill="#E2E2E2" d="M191.235,135.112h4.008v3.562c1.188-1.469,2.445-2.523,3.773-3.164s2.805-0.961,4.43-0.961
		c3.562,0,5.969,1.242,7.219,3.727c0.688,1.359,1.031,3.305,1.031,5.836v16.102h-4.289v-15.82c0-1.531-0.227-2.766-0.68-3.703
		c-0.75-1.562-2.109-2.344-4.078-2.344c-1,0-1.82,0.102-2.461,0.305c-1.156,0.344-2.172,1.031-3.047,2.062
		c-0.703,0.828-1.16,1.684-1.371,2.566s-0.316,2.145-0.316,3.785v13.148h-4.219V135.112z"/>
</g>
<g>
	<path fill="#E2E2E2" d="M127.462,187.785v21.281c0,2.5,0.473,4.578,1.417,6.234c1.402,2.5,3.764,3.75,7.087,3.75
		c3.984,0,6.693-1.352,8.126-4.055c0.772-1.469,1.158-3.445,1.158-5.93v-21.281h4.711v19.336c0,4.234-0.572,7.492-1.717,9.773
		c-2.102,4.156-6.068,6.234-11.9,6.234c-5.833,0-9.792-2.078-11.877-6.234c-1.145-2.281-1.717-5.539-1.717-9.773v-19.336H127.462z"
		/>
	<path fill="#E2E2E2" d="M160.134,211.105c0.105,1.953,0.549,3.539,1.332,4.758c1.49,2.281,4.116,3.422,7.879,3.422
		c1.686,0,3.221-0.25,4.606-0.75c2.679-0.969,4.019-2.703,4.019-5.203c0-1.875-0.567-3.211-1.703-4.008
		c-1.15-0.781-2.951-1.461-5.403-2.039l-4.519-1.055c-2.952-0.688-5.041-1.445-6.267-2.273c-2.119-1.438-3.179-3.586-3.179-6.445
		c0-3.094,1.042-5.633,3.125-7.617s5.033-2.977,8.85-2.977c3.512,0,6.496,0.871,8.952,2.613s3.684,4.527,3.684,8.355h-4.383
		c-0.225-1.844-0.704-3.258-1.438-4.242c-1.364-1.797-3.678-2.695-6.943-2.695c-2.637,0-4.532,0.578-5.686,1.734
		s-1.73,2.5-1.73,4.031c0,1.688,0.681,2.922,2.044,3.703c0.893,0.5,2.914,1.125,6.063,1.875l4.678,1.102
		c2.256,0.531,3.997,1.258,5.223,2.18c2.12,1.609,3.18,3.945,3.18,7.008c0,3.812-1.353,6.539-4.057,8.18
		c-2.705,1.641-5.848,2.461-9.429,2.461c-4.175,0-7.444-1.094-9.806-3.281c-2.363-2.172-3.521-5.117-3.474-8.836H160.134z"/>
	<path fill="#E2E2E2" d="M199.15,187.785h5.265l12.496,34.43h-5.109l-3.594-10.312H194.7l-3.734,10.312h-4.781L199.15,187.785z
		 M206.884,208.105l-5.301-15.211l-5.508,15.211H206.884z"/>
</g>
<g>
	<path fill="#E2E2E2" d="M72.337,248.785h15.65c2.578,0,4.703,0.383,6.375,1.148c3.176,1.469,4.764,4.18,4.764,8.133
		c0,2.062-0.426,3.75-1.277,5.062s-2.043,2.367-3.574,3.164c1.344,0.547,2.355,1.266,3.035,2.156s1.059,2.336,1.137,4.336
		l0.164,4.617c0.047,1.312,0.156,2.289,0.328,2.93c0.281,1.094,0.781,1.797,1.5,2.109v0.773H94.72
		c-0.156-0.297-0.281-0.68-0.375-1.148s-0.172-1.375-0.234-2.719l-0.281-5.742c-0.106-2.25-0.918-3.758-2.437-4.523
		c-0.866-0.422-2.224-0.633-4.076-0.633H77.001v14.766h-4.664V248.785z M87.485,264.559c2.127,0,3.81-0.438,5.048-1.312
		c1.239-0.875,1.858-2.453,1.858-4.734c0-2.453-0.866-4.125-2.598-5.016c-0.927-0.469-2.166-0.703-3.715-0.703H77.001v11.766H87.485
		z"/>
	<path fill="#E2E2E2" d="M110.095,258.113v16.664c0,1.281,0.198,2.328,0.594,3.141c0.73,1.5,2.092,2.25,4.086,2.25
		c2.86,0,4.808-1.312,5.843-3.938c0.563-1.406,0.845-3.336,0.845-5.789v-12.328h4.219v25.102h-3.984l0.047-3.703
		c-0.537,0.953-1.205,1.758-2.002,2.414c-1.579,1.312-3.495,1.969-5.749,1.969c-3.511,0-5.903-1.195-7.175-3.586
		c-0.69-1.281-1.035-2.992-1.035-5.133v-17.062H110.095z"/>
	<path fill="#E2E2E2" d="M135.079,275.34c0.127,1.406,0.486,2.484,1.076,3.234c1.084,1.359,2.966,2.039,5.646,2.039
		c1.595,0,2.998-0.34,4.21-1.02c1.212-0.68,1.818-1.73,1.818-3.152c0-1.078-0.484-1.898-1.453-2.461
		c-0.62-0.344-1.842-0.742-3.668-1.195l-3.406-0.844c-2.175-0.531-3.779-1.125-4.811-1.781c-1.842-1.141-2.763-2.719-2.763-4.734
		c0-2.375,0.867-4.297,2.601-5.766s4.065-2.203,6.995-2.203c3.832,0,6.595,1.109,8.289,3.328c1.061,1.406,1.576,2.922,1.545,4.547
		h-3.984c-0.08-0.947-0.424-1.811-1.032-2.588c-0.992-1.103-2.711-1.654-5.158-1.654c-1.631,0-2.867,0.304-3.707,0.91
		c-0.839,0.607-1.259,1.41-1.259,2.406c0,1.09,0.552,1.961,1.655,2.615c0.637,0.39,1.576,0.732,2.817,1.029l2.842,0.68
		c3.088,0.734,5.158,1.445,6.209,2.133c1.641,1.078,2.461,2.773,2.461,5.086c0,2.234-0.858,4.164-2.575,5.789
		s-4.331,2.438-7.842,2.438c-3.781,0-6.458-0.848-8.032-2.543c-1.574-1.695-2.417-3.793-2.527-6.293H135.079z"/>
	<path fill="#E2E2E2" d="M159.079,275.34c0.127,1.406,0.486,2.484,1.076,3.234c1.084,1.359,2.966,2.039,5.646,2.039
		c1.595,0,2.998-0.34,4.21-1.02c1.212-0.68,1.818-1.73,1.818-3.152c0-1.078-0.484-1.898-1.453-2.461
		c-0.62-0.344-1.842-0.742-3.668-1.195l-3.406-0.844c-2.175-0.531-3.779-1.125-4.811-1.781c-1.842-1.141-2.763-2.719-2.763-4.734
		c0-2.375,0.867-4.297,2.601-5.766s4.065-2.203,6.995-2.203c3.832,0,6.595,1.109,8.289,3.328c1.061,1.406,1.576,2.922,1.545,4.547
		h-3.984c-0.08-0.947-0.424-1.811-1.032-2.588c-0.992-1.103-2.711-1.654-5.158-1.654c-1.631,0-2.867,0.304-3.707,0.91
		c-0.839,0.607-1.259,1.41-1.259,2.406c0,1.09,0.552,1.961,1.655,2.615c0.637,0.39,1.576,0.732,2.817,1.029l2.842,0.68
		c3.088,0.734,5.158,1.445,6.209,2.133c1.641,1.078,2.461,2.773,2.461,5.086c0,2.234-0.858,4.164-2.575,5.789
		s-4.331,2.438-7.842,2.438c-3.781,0-6.458-0.848-8.032-2.543c-1.574-1.695-2.417-3.793-2.527-6.293H159.079z"/>
	<path fill="#E2E2E2" d="M180.571,248.785h4.289v4.781h-4.289V248.785z M180.571,258.23h4.289v24.984h-4.289V258.23z"/>
	<path fill="#E2E2E2" d="M204.689,268.023c0.968-0.124,1.617-0.53,1.945-1.217c0.187-0.376,0.281-0.917,0.281-1.623
		c0-1.443-0.511-2.49-1.532-3.141s-2.483-0.977-4.385-0.977c-2.199,0-3.758,0.597-4.678,1.79c-0.515,0.66-0.85,1.642-1.006,2.944
		h-3.938c0.078-3.103,1.081-5.261,3.008-6.476c1.928-1.214,4.163-1.821,6.707-1.821c2.949,0,5.345,0.562,7.187,1.688
		c1.826,1.125,2.739,2.875,2.739,5.25v14.462c0,0.438,0.09,0.789,0.27,1.055c0.18,0.265,0.559,0.397,1.137,0.397
		c0.188,0,0.398-0.012,0.633-0.035s0.484-0.059,0.75-0.105v3.117c-0.656,0.188-1.156,0.305-1.5,0.352s-0.812,0.07-1.406,0.07
		c-1.453,0-2.508-0.516-3.164-1.547c-0.344-0.547-0.586-1.32-0.727-2.319c-0.859,1.125-2.094,2.101-3.703,2.929
		s-3.383,1.242-5.32,1.242c-2.328,0-4.23-0.707-5.707-2.119s-2.215-3.179-2.215-5.301c0-2.326,0.727-4.128,2.18-5.408
		c1.453-1.279,3.359-2.067,5.719-2.364L204.689,268.023z M195.806,279.42c0.891,0.702,1.945,1.053,3.164,1.053
		c1.484,0,2.922-0.344,4.312-1.029c2.344-1.139,3.516-3.003,3.516-5.593v-3.394c-0.515,0.33-1.177,0.604-1.988,0.823
		c-0.811,0.22-1.606,0.376-2.386,0.47l-2.55,0.328c-1.528,0.202-2.677,0.521-3.447,0.959c-1.305,0.732-1.957,1.902-1.957,3.508
		C194.47,277.76,194.915,278.719,195.806,279.42z"/>
</g>
</svg>
