<?xml version="1.0" encoding="utf-8"?>
<!-- Generator: Adobe Illustrator 16.0.0, SVG Export Plug-In . SVG Version: 6.00 Build 0)  -->
<!DOCTYPE svg PUBLIC "-//W3C//DTD SVG 1.1//EN" "http://www.w3.org/Graphics/SVG/1.1/DTD/svg11.dtd">
<svg version="1.1" id="Layer_1" xmlns="http://www.w3.org/2000/svg" xmlns:xlink="http://www.w3.org/1999/xlink" x="0px" y="0px"
	 width="500px" height="450px" viewBox="0 0 500 450" enable-background="new 0 0 500 450" xml:space="preserve">
<g enable-background="new    ">
	<path fill="#FFFFFF" d="M56.978,6.654h12.615c4.283,0,7.604,1.54,9.965,4.619c2.105,2.779,3.159,6.338,3.159,10.678
		c0,3.352-0.622,6.381-1.866,9.088c-2.191,4.784-5.958,7.176-11.3,7.176H56.978V6.654z M68.754,34.562
		c1.414,0,2.577-0.15,3.487-0.451c1.625-0.559,2.955-1.633,3.992-3.223c0.826-1.274,1.421-2.907,1.785-4.898
		c0.21-1.188,0.315-2.291,0.315-3.309c0-3.91-0.76-6.946-2.279-9.109c-1.52-2.163-3.967-3.244-7.342-3.244h-7.416v24.234H68.754z"/>
	<path fill="#FFFFFF" d="M88.151,15.205h3.674v3.975c0.301-0.773,1.038-1.715,2.213-2.825c1.174-1.11,2.528-1.665,4.061-1.665
		c0.071,0,0.193,0.007,0.365,0.021c0.172,0.015,0.465,0.043,0.881,0.086v4.082c-0.229-0.043-0.44-0.071-0.634-0.086
		c-0.193-0.014-0.405-0.021-0.634-0.021c-1.948,0-3.445,0.627-4.49,1.88c-1.046,1.254-1.568,2.696-1.568,4.329v13.234h-3.867V15.205
		z"/>
	<path fill="#FFFFFF" d="M115.029,24.29c0.888-0.114,1.482-0.486,1.783-1.115c0.171-0.346,0.257-0.841,0.257-1.488
		c0-1.323-0.468-2.283-1.404-2.879c-0.937-0.597-2.276-0.895-4.02-0.895c-2.016,0-3.445,0.547-4.289,1.641
		c-0.472,0.605-0.779,1.505-0.922,2.699h-3.609c0.071-2.844,0.991-4.823,2.757-5.936c1.767-1.113,3.816-1.67,6.148-1.67
		c2.704,0,4.9,0.516,6.588,1.547c1.674,1.031,2.511,2.636,2.511,4.812v13.257c0,0.401,0.082,0.724,0.247,0.967
		c0.165,0.243,0.512,0.364,1.042,0.364c0.172,0,0.365-0.011,0.58-0.032s0.444-0.054,0.688-0.097v2.857
		c-0.602,0.172-1.06,0.279-1.375,0.322c-0.315,0.043-0.745,0.064-1.289,0.064c-1.332,0-2.299-0.473-2.9-1.418
		c-0.315-0.501-0.537-1.21-0.666-2.126c-0.788,1.031-1.919,1.926-3.395,2.685c-1.476,0.759-3.101,1.139-4.877,1.139
		c-2.134,0-3.878-0.647-5.231-1.942c-1.354-1.294-2.03-2.914-2.03-4.859c0-2.132,0.666-3.784,1.998-4.957s3.079-1.896,5.242-2.167
		L115.029,24.29z M106.886,34.736c0.816,0.644,1.783,0.965,2.9,0.965c1.36,0,2.678-0.314,3.953-0.943
		c2.148-1.044,3.223-2.753,3.223-5.127v-3.11c-0.472,0.302-1.079,0.554-1.822,0.755c-0.744,0.201-1.473,0.345-2.188,0.43
		l-2.337,0.301c-1.401,0.186-2.454,0.479-3.16,0.879c-1.196,0.672-1.794,1.744-1.794,3.216
		C105.661,33.215,106.069,34.094,106.886,34.736z"/>
	<path fill="#FFFFFF" d="M139.959,16.129c0.728,0.501,1.469,1.232,2.226,2.191v-2.9h3.566v20.926c0,2.922-0.428,5.228-1.285,6.918
		c-1.599,3.122-4.618,4.684-9.057,4.684c-2.47,0-4.547-0.556-6.231-1.665c-1.685-1.11-2.627-2.847-2.827-5.21h3.932
		c0.185,1.031,0.555,1.826,1.111,2.385c0.869,0.859,2.236,1.289,4.103,1.289c2.949,0,4.878-1.046,5.79-3.137
		c0.542-1.232,0.791-3.43,0.748-6.596c-0.771,1.175-1.698,2.049-2.782,2.621c-1.084,0.573-2.519,0.859-4.302,0.859
		c-2.482,0-4.655-0.884-6.517-2.653c-1.862-1.769-2.792-4.694-2.792-8.776c0-3.853,0.938-6.86,2.814-9.023
		c1.876-2.163,4.141-3.244,6.795-3.244C137.048,14.797,138.618,15.241,139.959,16.129z M140.432,20.275
		c-1.169-1.375-2.658-2.062-4.468-2.062c-2.708,0-4.56,1.275-5.557,3.824c-0.527,1.361-0.791,3.145-0.791,5.35
		c0,2.593,0.523,4.565,1.571,5.919c1.047,1.354,2.454,2.03,4.222,2.03c2.764,0,4.709-1.253,5.835-3.76
		c0.627-1.418,0.94-3.072,0.94-4.963C142.185,23.764,141.6,21.65,140.432,20.275z"/>
	<path fill="#FFFFFF" d="M164.43,16.129c0.728,0.501,1.469,1.232,2.226,2.191v-2.9h3.566v20.926c0,2.922-0.428,5.228-1.285,6.918
		c-1.599,3.122-4.618,4.684-9.057,4.684c-2.47,0-4.547-0.556-6.231-1.665c-1.685-1.11-2.627-2.847-2.827-5.21h3.932
		c0.185,1.031,0.555,1.826,1.111,2.385c0.869,0.859,2.236,1.289,4.103,1.289c2.949,0,4.878-1.046,5.79-3.137
		c0.542-1.232,0.791-3.43,0.748-6.596c-0.771,1.175-1.698,2.049-2.782,2.621c-1.084,0.573-2.519,0.859-4.302,0.859
		c-2.482,0-4.655-0.884-6.517-2.653c-1.862-1.769-2.792-4.694-2.792-8.776c0-3.853,0.938-6.86,2.814-9.023
		c1.876-2.163,4.141-3.244,6.795-3.244C161.519,14.797,163.088,15.241,164.43,16.129z M164.903,20.275
		c-1.169-1.375-2.658-2.062-4.468-2.062c-2.708,0-4.56,1.275-5.557,3.824c-0.527,1.361-0.791,3.145-0.791,5.35
		c0,2.593,0.523,4.565,1.571,5.919c1.047,1.354,2.454,2.03,4.222,2.03c2.764,0,4.709-1.253,5.835-3.76
		c0.627-1.418,0.94-3.072,0.94-4.963C166.655,23.764,166.071,21.65,164.903,20.275z"/>
	<path fill="#FFFFFF" d="M176.108,6.654h3.932v4.383h-3.932V6.654z M176.108,15.312h3.932v22.902h-3.932V15.312z"/>
	<path fill="#FFFFFF" d="M185.884,15.205h3.674v3.266c1.088-1.346,2.241-2.313,3.459-2.9c1.217-0.587,2.571-0.881,4.061-0.881
		c3.266,0,5.471,1.139,6.617,3.416c0.63,1.246,0.945,3.029,0.945,5.35v14.76h-3.932V23.713c0-1.403-0.208-2.535-0.623-3.395
		c-0.688-1.432-1.934-2.148-3.738-2.148c-0.917,0-1.669,0.093-2.256,0.279c-1.06,0.315-1.991,0.945-2.793,1.891
		c-0.645,0.76-1.063,1.544-1.257,2.353c-0.193,0.81-0.29,1.966-0.29,3.47v12.053h-3.867V15.205z"/>
	<path fill="#FFFFFF" d="M223.146,16.129c0.728,0.501,1.469,1.232,2.226,2.191v-2.9h3.566v20.926c0,2.922-0.428,5.228-1.285,6.918
		c-1.599,3.122-4.618,4.684-9.057,4.684c-2.47,0-4.547-0.556-6.231-1.665c-1.685-1.11-2.627-2.847-2.827-5.21h3.932
		c0.185,1.031,0.555,1.826,1.111,2.385c0.869,0.859,2.236,1.289,4.103,1.289c2.949,0,4.878-1.046,5.79-3.137
		c0.542-1.232,0.791-3.43,0.748-6.596c-0.771,1.175-1.698,2.049-2.782,2.621c-1.084,0.573-2.519,0.859-4.302,0.859
		c-2.482,0-4.655-0.884-6.517-2.653c-1.862-1.769-2.792-4.694-2.792-8.776c0-3.853,0.938-6.86,2.814-9.023
		c1.876-2.163,4.141-3.244,6.795-3.244C220.236,14.797,221.805,15.241,223.146,16.129z M223.62,20.275
		c-1.169-1.375-2.658-2.062-4.468-2.062c-2.708,0-4.56,1.275-5.557,3.824c-0.527,1.361-0.791,3.145-0.791,5.35
		c0,2.593,0.523,4.565,1.571,5.919c1.047,1.354,2.454,2.03,4.222,2.03c2.764,0,4.709-1.253,5.835-3.76
		c0.627-1.418,0.94-3.072,0.94-4.963C225.372,23.764,224.788,21.65,223.62,20.275z"/>
	<path fill="#FFFFFF" d="M247.823,8.781h3.91v6.424h3.674v3.158h-3.674v15.018c0,0.803,0.272,1.34,0.816,1.611
		c0.301,0.158,0.802,0.236,1.504,0.236c0.187,0,0.387-0.005,0.602-0.014c0.215-0.01,0.466-0.034,0.752-0.072v3.072
		c-0.444,0.129-0.906,0.222-1.386,0.279c-0.48,0.057-0.999,0.086-1.558,0.086c-1.805,0-3.029-0.462-3.674-1.386
		s-0.967-2.123-0.967-3.599V18.363h-3.115v-3.158h3.115V8.781z"/>
	<path fill="#FFFFFF" d="M259.274,6.547h3.867V18.32c0.917-1.16,1.74-1.977,2.471-2.449c1.246-0.816,2.8-1.225,4.662-1.225
		c3.337,0,5.601,1.167,6.789,3.502c0.645,1.275,0.967,3.044,0.967,5.307v14.76h-3.975V23.713c0-1.689-0.215-2.929-0.645-3.717
		c-0.702-1.26-2.02-1.891-3.953-1.891c-1.604,0-3.058,0.552-4.361,1.654c-1.304,1.104-1.955,3.188-1.955,6.252v12.203h-3.867V6.547z
		"/>
	<path fill="#FFFFFF" d="M297.957,15.839c1.523,0.767,2.684,1.758,3.48,2.976c0.77,1.16,1.281,2.514,1.538,4.061
		c0.228,1.061,0.342,2.75,0.342,5.07h-16.736c0.071,2.341,0.618,4.22,1.642,5.634c1.023,1.415,2.607,2.122,4.754,2.122
		c2.004,0,3.602-0.669,4.796-2.007c0.668-0.777,1.142-1.677,1.42-2.698h3.803c-0.101,0.846-0.434,1.787-0.999,2.825
		c-0.566,1.039-1.197,1.888-1.894,2.546c-1.165,1.146-2.608,1.919-4.328,2.32c-0.925,0.229-1.969,0.344-3.134,0.344
		c-2.848,0-5.26-1.042-7.238-3.126s-2.968-5.002-2.968-8.755c0-3.695,0.996-6.695,2.989-9.002c1.992-2.306,4.598-3.459,7.814-3.459
		C294.861,14.689,296.435,15.073,297.957,15.839z M299.343,24.873c-0.156-1.676-0.519-3.015-1.087-4.018
		c-1.051-1.862-2.805-2.793-5.262-2.793c-1.762,0-3.238,0.641-4.432,1.923c-1.192,1.282-1.824,2.911-1.896,4.888H299.343z"/>
	<path fill="#FFFFFF" d="M320.548,6.654h3.867v31.561h-3.867V6.654z"/>
	<path fill="#FFFFFF" d="M342.548,24.29c0.889-0.114,1.482-0.486,1.783-1.115c0.172-0.346,0.258-0.841,0.258-1.488
		c0-1.323-0.469-2.283-1.404-2.879c-0.937-0.597-2.276-0.895-4.021-0.895c-2.016,0-3.445,0.547-4.288,1.641
		c-0.472,0.605-0.779,1.505-0.922,2.699h-3.609c0.071-2.844,0.99-4.823,2.758-5.936c1.767-1.113,3.815-1.67,6.147-1.67
		c2.704,0,4.899,0.516,6.588,1.547c1.674,1.031,2.511,2.636,2.511,4.812v13.257c0,0.401,0.082,0.724,0.247,0.967
		c0.164,0.243,0.512,0.364,1.042,0.364c0.172,0,0.365-0.011,0.58-0.032s0.443-0.054,0.688-0.097v2.857
		c-0.602,0.172-1.061,0.279-1.375,0.322c-0.315,0.043-0.745,0.064-1.289,0.064c-1.332,0-2.299-0.473-2.9-1.418
		c-0.315-0.501-0.537-1.21-0.666-2.126c-0.788,1.031-1.92,1.926-3.395,2.685c-1.476,0.759-3.102,1.139-4.877,1.139
		c-2.135,0-3.878-0.647-5.231-1.942c-1.354-1.294-2.03-2.914-2.03-4.859c0-2.132,0.666-3.784,1.998-4.957s3.079-1.896,5.242-2.167
		L342.548,24.29z M334.405,34.736c0.816,0.644,1.783,0.965,2.9,0.965c1.36,0,2.678-0.314,3.953-0.943
		c2.148-1.044,3.223-2.753,3.223-5.127v-3.11c-0.472,0.302-1.079,0.554-1.822,0.755s-1.473,0.345-2.188,0.43l-2.337,0.301
		c-1.4,0.186-2.454,0.479-3.16,0.879c-1.196,0.672-1.794,1.744-1.794,3.216C333.181,33.215,333.589,34.094,334.405,34.736z"/>
	<path fill="#FFFFFF" d="M354.364,6.547h3.76v11.451c0.849-1.103,1.862-1.944,3.041-2.524s2.459-0.87,3.84-0.87
		c2.875,0,5.208,0.985,6.998,2.954c1.79,1.97,2.686,4.874,2.686,8.712c0,3.639-0.885,6.66-2.653,9.066s-4.22,3.609-7.354,3.609
		c-1.754,0-3.234-0.423-4.442-1.268c-0.719-0.501-1.488-1.303-2.308-2.406v2.943h-3.566V6.547z M369.151,33.037
		c1.041-1.661,1.562-3.853,1.562-6.574c0-2.42-0.521-4.426-1.562-6.016c-1.043-1.59-2.576-2.385-4.603-2.385
		c-1.769,0-3.316,0.652-4.646,1.955c-1.329,1.304-1.994,3.452-1.994,6.445c0,2.163,0.272,3.918,0.819,5.264
		c1.02,2.535,2.924,3.803,5.712,3.803C366.539,35.529,368.108,34.699,369.151,33.037z"/>
	<path fill="#FFFFFF" d="M393.37,15.839c1.522,0.767,2.683,1.758,3.48,2.976c0.769,1.16,1.28,2.514,1.537,4.061
		c0.228,1.061,0.342,2.75,0.342,5.07h-16.736c0.071,2.341,0.618,4.22,1.642,5.634c1.023,1.415,2.607,2.122,4.753,2.122
		c2.004,0,3.604-0.669,4.797-2.007c0.668-0.777,1.142-1.677,1.42-2.698h3.803c-0.101,0.846-0.434,1.787-0.999,2.825
		c-0.566,1.039-1.197,1.888-1.894,2.546c-1.166,1.146-2.608,1.919-4.328,2.32c-0.924,0.229-1.969,0.344-3.135,0.344
		c-2.847,0-5.259-1.042-7.237-3.126s-2.968-5.002-2.968-8.755c0-3.695,0.996-6.695,2.989-9.002c1.993-2.306,4.598-3.459,7.815-3.459
		C390.273,14.689,391.847,15.073,393.37,15.839z M394.755,24.873c-0.156-1.676-0.519-3.015-1.087-4.018
		c-1.051-1.862-2.805-2.793-5.262-2.793c-1.761,0-3.238,0.641-4.431,1.923c-1.193,1.282-1.825,2.911-1.896,4.888H394.755z"/>
	<path fill="#FFFFFF" d="M403.735,6.654h3.867v31.561h-3.867V6.654z"/>
	<path fill="#FFFFFF" d="M415.702,30.996c0.117,1.289,0.445,2.277,0.986,2.965c0.994,1.246,2.72,1.869,5.176,1.869
		c1.461,0,2.747-0.312,3.858-0.935s1.667-1.586,1.667-2.89c0-0.988-0.444-1.74-1.332-2.256c-0.568-0.314-1.688-0.68-3.362-1.096
		l-3.122-0.773c-1.994-0.486-3.465-1.031-4.41-1.633c-1.688-1.045-2.533-2.492-2.533-4.34c0-2.177,0.795-3.938,2.384-5.285
		c1.59-1.346,3.727-2.02,6.412-2.02c3.513,0,6.046,1.017,7.599,3.051c0.973,1.289,1.444,2.679,1.416,4.168h-3.652
		c-0.073-0.869-0.389-1.659-0.945-2.372c-0.909-1.011-2.485-1.517-4.729-1.517c-1.496,0-2.629,0.278-3.398,0.835
		s-1.154,1.292-1.154,2.205c0,0.999,0.506,1.798,1.518,2.397c0.583,0.356,1.444,0.672,2.583,0.943l2.604,0.623
		c2.831,0.674,4.728,1.325,5.691,1.955c1.504,0.988,2.256,2.543,2.256,4.662c0,2.049-0.787,3.817-2.36,5.307
		s-3.97,2.234-7.188,2.234c-3.466,0-5.92-0.777-7.363-2.331c-1.442-1.554-2.215-3.477-2.316-5.769H415.702z"/>
</g>
<g enable-background="new    ">
	<path fill="#FFFFFF" d="M145.546,51.654h3.932v4.383h-3.932V51.654z M145.546,60.312h3.932v22.902h-3.932V60.312z"/>
	<path fill="#FFFFFF" d="M155.322,60.205h3.674v3.266c1.088-1.346,2.241-2.313,3.459-2.9c1.217-0.587,2.571-0.881,4.061-0.881
		c3.266,0,5.471,1.139,6.617,3.416c0.63,1.246,0.945,3.029,0.945,5.35v14.76h-3.932V68.713c0-1.403-0.208-2.535-0.623-3.395
		c-0.688-1.432-1.934-2.148-3.738-2.148c-0.917,0-1.669,0.093-2.256,0.279c-1.06,0.315-1.991,0.945-2.793,1.891
		c-0.645,0.76-1.063,1.544-1.257,2.353c-0.193,0.81-0.29,1.966-0.29,3.47v12.053h-3.867V60.205z"/>
	<path fill="#FFFFFF" d="M180.566,53.781h3.91v6.424h3.674v3.158h-3.674v15.018c0,0.803,0.272,1.34,0.816,1.611
		c0.301,0.158,0.802,0.236,1.504,0.236c0.186,0,0.387-0.005,0.602-0.014c0.215-0.01,0.465-0.034,0.752-0.072v3.072
		c-0.444,0.129-0.906,0.222-1.386,0.279c-0.48,0.057-0.999,0.086-1.558,0.086c-1.805,0-3.029-0.462-3.674-1.386
		s-0.967-2.123-0.967-3.599V63.363h-3.115v-3.158h3.115V53.781z"/>
	<path fill="#FFFFFF" d="M208.689,62.501c2.034,1.975,3.051,4.879,3.051,8.714c0,3.707-0.896,6.77-2.688,9.188
		c-1.792,2.419-4.572,3.628-8.341,3.628c-3.144,0-5.64-1.069-7.489-3.209c-1.849-2.14-2.773-5.012-2.773-8.618
		c0-3.864,0.974-6.94,2.922-9.23c1.949-2.29,4.565-3.435,7.851-3.435C204.166,59.539,206.655,60.527,208.689,62.501z
		 M206.288,77.794c0.942-1.938,1.413-4.096,1.413-6.47c0-2.146-0.34-3.892-1.02-5.236c-1.076-2.117-2.932-3.176-5.565-3.176
		c-2.337,0-4.037,0.901-5.099,2.704s-1.593,3.977-1.593,6.523c0,2.446,0.531,4.484,1.593,6.115s2.747,2.446,5.056,2.446
		C203.607,80.701,205.346,79.732,206.288,77.794z"/>
	<path fill="#FFFFFF" d="M228.39,51.547h3.76v11.451c0.848-1.103,1.862-1.944,3.041-2.524c1.179-0.58,2.459-0.87,3.839-0.87
		c2.875,0,5.208,0.985,6.999,2.954c1.79,1.97,2.685,4.874,2.685,8.712c0,3.639-0.885,6.66-2.653,9.066
		c-1.769,2.406-4.22,3.609-7.354,3.609c-1.754,0-3.235-0.423-4.443-1.268c-0.719-0.501-1.488-1.303-2.308-2.406v2.943h-3.566V51.547
		z M243.177,78.037c1.042-1.661,1.563-3.853,1.563-6.574c0-2.42-0.521-4.426-1.563-6.016s-2.576-2.385-4.603-2.385
		c-1.768,0-3.316,0.652-4.645,1.955c-1.33,1.304-1.994,3.452-1.994,6.445c0,2.163,0.273,3.918,0.819,5.264
		c1.02,2.535,2.924,3.803,5.712,3.803C240.565,80.529,242.135,79.699,243.177,78.037z"/>
	<path fill="#FFFFFF" d="M269.855,62.501c2.033,1.975,3.051,4.879,3.051,8.714c0,3.707-0.896,6.77-2.689,9.188
		c-1.791,2.419-4.572,3.628-8.34,3.628c-3.145,0-5.641-1.069-7.489-3.209s-2.772-5.012-2.772-8.618c0-3.864,0.974-6.94,2.922-9.23
		c1.949-2.29,4.565-3.435,7.852-3.435C265.332,59.539,267.82,60.527,269.855,62.501z M267.453,77.794
		c0.942-1.938,1.414-4.096,1.414-6.47c0-2.146-0.34-3.892-1.021-5.236c-1.076-2.117-2.932-3.176-5.565-3.176
		c-2.338,0-4.037,0.901-5.099,2.704s-1.593,3.977-1.593,6.523c0,2.446,0.531,4.484,1.593,6.115s2.747,2.446,5.056,2.446
		C264.773,80.701,266.512,79.732,267.453,77.794z"/>
	<path fill="#FFFFFF" d="M275.463,60.205h5.006l5.285,8.1l5.35-8.1l4.705,0.107l-7.756,11.107l8.1,11.795h-4.941l-5.715-8.637
		l-5.543,8.637h-4.898l8.1-11.795L275.463,60.205z"/>
	<path fill="#FFFFFF" d="M313.866,60.839c1.523,0.767,2.684,1.758,3.48,2.976c0.769,1.16,1.281,2.514,1.538,4.061
		c0.227,1.061,0.342,2.75,0.342,5.07H302.49c0.07,2.341,0.617,4.22,1.641,5.634c1.023,1.415,2.607,2.122,4.754,2.122
		c2.004,0,3.603-0.669,4.797-2.007c0.668-0.777,1.141-1.677,1.42-2.698h3.803c-0.102,0.846-0.434,1.787-1,2.825
		c-0.565,1.039-1.197,1.888-1.893,2.546c-1.166,1.146-2.609,1.919-4.328,2.32c-0.925,0.229-1.969,0.344-3.135,0.344
		c-2.847,0-5.26-1.042-7.238-3.126s-2.967-5.002-2.967-8.755c0-3.695,0.996-6.695,2.988-9.002c1.993-2.306,4.598-3.459,7.815-3.459
		C310.771,59.689,312.344,60.073,313.866,60.839z M315.252,69.873c-0.156-1.676-0.52-3.015-1.087-4.018
		c-1.052-1.862-2.806-2.793-5.263-2.793c-1.761,0-3.238,0.641-4.431,1.923c-1.192,1.282-1.825,2.911-1.896,4.888H315.252z"/>
	<path fill="#FFFFFF" d="M326.424,75.996c0.116,1.289,0.445,2.277,0.986,2.965c0.994,1.246,2.719,1.869,5.175,1.869
		c1.462,0,2.748-0.312,3.859-0.935c1.11-0.623,1.667-1.586,1.667-2.89c0-0.988-0.445-1.74-1.332-2.256
		c-0.568-0.314-1.689-0.68-3.363-1.096l-3.121-0.773c-1.994-0.486-3.465-1.031-4.411-1.633c-1.688-1.045-2.532-2.492-2.532-4.34
		c0-2.177,0.794-3.938,2.384-5.285c1.589-1.346,3.727-2.02,6.412-2.02c3.513,0,6.046,1.017,7.599,3.051
		c0.973,1.289,1.443,2.679,1.416,4.168h-3.652c-0.074-0.869-0.389-1.659-0.946-2.372c-0.909-1.011-2.485-1.517-4.729-1.517
		c-1.495,0-2.628,0.278-3.397,0.835s-1.154,1.292-1.154,2.205c0,0.999,0.505,1.798,1.518,2.397c0.582,0.356,1.443,0.672,2.582,0.943
		l2.605,0.623c2.83,0.674,4.728,1.325,5.691,1.955c1.504,0.988,2.256,2.543,2.256,4.662c0,2.049-0.787,3.817-2.361,5.307
		c-1.572,1.489-3.969,2.234-7.188,2.234c-3.466,0-5.92-0.777-7.362-2.331c-1.443-1.554-2.215-3.477-2.316-5.769H326.424z"/>
</g>
<g enable-background="new    ">
	<path fill="#E2E2E2" d="M113.87,138.443h11.412c1.879,0,3.429,0.279,4.648,0.837c2.315,1.071,3.474,3.048,3.474,5.93
		c0,1.503-0.311,2.734-0.931,3.691c-0.622,0.957-1.49,1.727-2.606,2.308c0.979,0.399,1.718,0.923,2.213,1.572
		c0.496,0.649,0.772,1.703,0.829,3.161l0.12,3.367c0.034,0.957,0.114,1.669,0.239,2.137c0.205,0.797,0.569,1.31,1.094,1.537v0.564
		h-4.17c-0.114-0.216-0.205-0.496-0.273-0.838s-0.125-1.002-0.171-1.982l-0.205-4.187c-0.078-1.641-0.67-2.74-1.776-3.298
		c-0.631-0.309-1.622-0.462-2.973-0.462h-7.521v10.767h-3.401V138.443z M124.916,149.944c1.551,0,2.778-0.318,3.681-0.957
		c0.903-0.638,1.354-1.788,1.354-3.452c0-1.789-0.631-3.008-1.895-3.657c-0.676-0.342-1.579-0.513-2.709-0.513h-8.077v8.579H124.916
		z"/>
	<path fill="#E2E2E2" d="M149.631,145.749c1.211,0.609,2.134,1.398,2.769,2.367c0.611,0.922,1.019,1.999,1.223,3.229
		c0.181,0.844,0.272,2.188,0.272,4.033h-13.313c0.057,1.862,0.492,3.356,1.306,4.481s2.074,1.688,3.781,1.688
		c1.594,0,2.866-0.531,3.815-1.596c0.531-0.618,0.908-1.334,1.129-2.146h3.025c-0.08,0.673-0.345,1.422-0.795,2.247
		c-0.45,0.826-0.952,1.502-1.506,2.025c-0.927,0.912-2.075,1.526-3.443,1.846c-0.735,0.182-1.566,0.273-2.493,0.273
		c-2.265,0-4.184-0.829-5.758-2.486c-1.574-1.658-2.36-3.979-2.36-6.964c0-2.939,0.792-5.326,2.378-7.161
		c1.585-1.834,3.657-2.751,6.216-2.751C147.168,144.834,148.419,145.14,149.631,145.749z M150.732,152.935
		c-0.125-1.332-0.413-2.397-0.864-3.195c-0.836-1.48-2.231-2.222-4.186-2.222c-1.401,0-2.576,0.51-3.525,1.529
		c-0.949,1.021-1.452,2.315-1.508,3.888H150.732z"/>
	<path fill="#E2E2E2" d="M167.847,145.809c0.544,0.342,1.163,0.94,1.855,1.794v-9.245h2.957v25.19h-2.769v-2.547
		c-0.715,1.129-1.561,1.943-2.537,2.444c-0.977,0.501-2.094,0.752-3.354,0.752c-2.032,0-3.791-0.857-5.277-2.572
		c-1.487-1.714-2.23-3.996-2.23-6.845c0-2.666,0.678-4.976,2.034-6.93c1.356-1.953,3.294-2.931,5.814-2.931
		C165.736,144.92,166.904,145.216,167.847,145.809z M160.98,159.532c0.828,1.321,2.154,1.982,3.979,1.982
		c1.417,0,2.582-0.612,3.494-1.838c0.912-1.225,1.369-2.982,1.369-5.271c0-2.313-0.471-4.025-1.411-5.136
		c-0.941-1.111-2.103-1.667-3.486-1.667c-1.542,0-2.792,0.593-3.75,1.777c-0.958,1.186-1.437,2.929-1.437,5.23
		C159.739,156.569,160.152,158.21,160.98,159.532z"/>
</g>
<g enable-background="new    ">
	<path fill="#E2E2E2" d="M107.529,227.109h10.854c2.959,0,5.063,0.878,6.313,2.633c0.734,1.037,1.101,2.232,1.101,3.588
		c0,1.584-0.45,2.883-1.35,3.896c-0.467,0.536-1.14,1.025-2.017,1.471c1.287,0.489,2.25,1.042,2.888,1.657
		c1.128,1.094,1.692,2.604,1.692,4.528c0,1.618-0.51,3.083-1.53,4.393c-1.525,1.96-3.949,2.939-7.273,2.939h-10.679V227.109z
		 M117.113,237.723c1.451,0,2.579-0.199,3.385-0.598c1.266-0.627,1.899-1.755,1.899-3.385c0-1.641-0.673-2.745-2.021-3.314
		c-0.76-0.319-1.888-0.479-3.385-0.479h-6.13v7.775H117.113z M118.263,249.31c2.105,0,3.605-0.604,4.503-1.812
		c0.563-0.763,0.845-1.686,0.845-2.769c0-1.822-0.822-3.064-2.467-3.726c-0.874-0.353-2.03-0.529-3.467-0.529h-6.814v8.835H118.263z
		"/>
	<path fill="#E2E2E2" d="M130.635,227.109h3.076v25.105h-3.076V227.109z"/>
	<path fill="#E2E2E2" d="M141.401,233.912v12.15c0,0.935,0.144,1.698,0.433,2.29c0.533,1.094,1.526,1.641,2.979,1.641
		c2.086,0,3.506-0.957,4.261-2.871c0.41-1.025,0.616-2.433,0.616-4.222v-8.988h3.076v18.303h-2.905l0.034-2.7
		c-0.392,0.695-0.878,1.282-1.459,1.761c-1.151,0.957-2.549,1.436-4.192,1.436c-2.56,0-4.304-0.872-5.232-2.615
		c-0.503-0.934-0.754-2.182-0.754-3.742v-12.441H141.401z"/>
	<path fill="#E2E2E2" d="M169.096,234.416c1.211,0.609,2.134,1.398,2.769,2.367c0.611,0.922,1.019,1.999,1.223,3.229
		c0.181,0.844,0.272,2.188,0.272,4.033h-13.313c0.057,1.862,0.492,3.356,1.306,4.481s2.074,1.688,3.781,1.688
		c1.594,0,2.866-0.531,3.815-1.596c0.531-0.618,0.908-1.334,1.129-2.146h3.025c-0.08,0.673-0.345,1.422-0.795,2.247
		c-0.45,0.826-0.952,1.502-1.506,2.025c-0.927,0.912-2.075,1.526-3.443,1.846c-0.735,0.182-1.566,0.273-2.493,0.273
		c-2.265,0-4.184-0.829-5.758-2.486c-1.574-1.658-2.36-3.979-2.36-6.964c0-2.939,0.792-5.326,2.378-7.161
		c1.585-1.834,3.657-2.751,6.216-2.751C166.633,233.502,167.884,233.807,169.096,234.416z M170.198,241.602
		c-0.125-1.332-0.413-2.397-0.864-3.195c-0.836-1.48-2.231-2.222-4.186-2.222c-1.401,0-2.576,0.51-3.525,1.529
		c-0.949,1.021-1.452,2.315-1.508,3.888H170.198z"/>
</g>
<g enable-background="new    ">
	<path fill="#E2E2E2" d="M76.819,311.443h11.234c2.22,0,4.014,0.629,5.379,1.888s2.048,3.028,2.048,5.307
		c0,1.96-0.609,3.666-1.828,5.118c-1.219,1.453-3.083,2.179-5.595,2.179H80.22v10.613h-3.401V311.443z M90.01,314.895
		c-0.747-0.353-1.771-0.529-3.071-0.529H80.22v8.698h6.719c1.516,0,2.746-0.324,3.69-0.974c0.945-0.649,1.417-1.794,1.417-3.435
		C92.046,316.809,91.367,315.557,90.01,314.895z"/>
	<path fill="#E2E2E2" d="M102.505,318.244v12.151c0,0.935,0.144,1.698,0.433,2.29c0.533,1.094,1.526,1.641,2.979,1.641
		c2.086,0,3.506-0.957,4.261-2.871c0.41-1.025,0.616-2.433,0.616-4.222v-8.989h3.076v18.304h-2.905l0.034-2.7
		c-0.392,0.695-0.878,1.282-1.459,1.761c-1.151,0.957-2.549,1.436-4.192,1.436c-2.56,0-4.304-0.872-5.232-2.615
		c-0.503-0.934-0.754-2.182-0.754-3.742v-12.442H102.505z"/>
	<path fill="#E2E2E2" d="M118.979,318.244h2.922v3.162c0.239-0.615,0.826-1.364,1.76-2.247c0.934-0.883,2.011-1.325,3.23-1.325
		c0.057,0,0.154,0.006,0.291,0.018s0.37,0.034,0.701,0.068v3.247c-0.183-0.034-0.351-0.057-0.504-0.068
		c-0.154-0.011-0.322-0.018-0.504-0.018c-1.55,0-2.74,0.499-3.572,1.496c-0.832,0.997-1.248,2.145-1.248,3.443v10.527h-3.076
		V318.244z"/>
	<path fill="#E2E2E2" d="M130.293,318.33h3.008v2.427c0.617-0.831,1.291-1.476,2.022-1.932c1.039-0.683,2.261-1.024,3.667-1.024
		c2.079,0,3.844,0.794,5.295,2.384c1.45,1.589,2.176,3.859,2.176,6.811c0,3.987-1.047,6.836-3.14,8.545
		c-1.327,1.082-2.871,1.623-4.632,1.623c-1.384,0-2.545-0.302-3.483-0.906c-0.549-0.342-1.161-0.928-1.836-1.76v9.348h-3.076V318.33
		z M141.867,332.677c0.954-1.201,1.432-2.999,1.432-5.392c0-1.458-0.211-2.711-0.634-3.76c-0.8-2.017-2.264-3.024-4.39-3.024
		c-2.138,0-3.601,1.065-4.39,3.195c-0.423,1.14-0.634,2.587-0.634,4.341c0,1.413,0.211,2.614,0.634,3.606
		c0.8,1.891,2.264,2.836,4.39,2.836C139.714,334.479,140.912,333.879,141.867,332.677z"/>
	<path fill="#E2E2E2" d="M150.1,311.443h3.076v25.104H150.1V311.443z"/>
	<path fill="#E2E2E2" d="M169.096,318.749c1.211,0.609,2.134,1.398,2.769,2.367c0.611,0.922,1.019,1.999,1.223,3.229
		c0.181,0.844,0.272,2.188,0.272,4.033h-13.313c0.057,1.862,0.492,3.356,1.306,4.481s2.074,1.688,3.781,1.688
		c1.594,0,2.866-0.531,3.815-1.596c0.531-0.618,0.908-1.334,1.129-2.146h3.025c-0.08,0.673-0.345,1.422-0.795,2.247
		c-0.45,0.826-0.952,1.502-1.506,2.025c-0.927,0.912-2.075,1.526-3.443,1.846c-0.735,0.182-1.566,0.273-2.493,0.273
		c-2.265,0-4.184-0.829-5.758-2.486c-1.574-1.658-2.36-3.979-2.36-6.964c0-2.939,0.792-5.326,2.378-7.161
		c1.585-1.834,3.657-2.752,6.216-2.752C166.633,317.834,167.884,318.14,169.096,318.749z M170.198,325.935
		c-0.125-1.332-0.413-2.397-0.864-3.195c-0.836-1.48-2.231-2.222-4.186-2.222c-1.401,0-2.576,0.51-3.525,1.529
		c-0.949,1.021-1.452,2.315-1.508,3.888H170.198z"/>
</g>
<g enable-background="new    ">
	<path fill="#E2E2E2" d="M81.604,397.195c1.663,2.221,2.495,5.064,2.495,8.527c0,3.749-0.952,6.864-2.854,9.348
		c-2.233,2.917-5.417,4.375-9.553,4.375c-3.862,0-6.899-1.275-9.109-3.828c-1.971-2.461-2.957-5.57-2.957-9.33
		c0-3.396,0.843-6.301,2.529-8.717c2.165-3.098,5.366-4.648,9.604-4.648C76.192,392.922,79.473,394.347,81.604,397.195z
		 M78.605,413.197c1.338-2.149,2.008-4.621,2.008-7.415c0-2.953-0.772-5.331-2.315-7.132c-1.544-1.803-3.655-2.703-6.332-2.703
		c-2.598,0-4.717,0.893-6.357,2.677s-2.461,4.416-2.461,7.894c0,2.782,0.703,5.129,2.11,7.038c1.407,1.91,3.688,2.865,6.845,2.865
		C75.098,416.421,77.266,415.347,78.605,413.197z"/>
	<path fill="#E2E2E2" d="M87.825,400.408h2.922v3.161c0.239-0.615,0.826-1.364,1.76-2.247c0.934-0.883,2.011-1.324,3.23-1.324
		c0.057,0,0.154,0.006,0.291,0.017c0.137,0.012,0.37,0.034,0.701,0.068v3.247c-0.183-0.034-0.351-0.057-0.504-0.068
		c-0.154-0.011-0.322-0.018-0.504-0.018c-1.55,0-2.74,0.499-3.572,1.496c-0.832,0.997-1.248,2.145-1.248,3.443v10.527h-3.076
		V400.408z"/>
	<path fill="#E2E2E2" d="M109.205,407.634c0.706-0.091,1.179-0.387,1.418-0.887c0.136-0.274,0.205-0.669,0.205-1.184
		c0-1.053-0.373-1.815-1.117-2.291c-0.745-0.474-1.811-0.712-3.198-0.712c-1.603,0-2.741,0.436-3.411,1.306
		c-0.375,0.481-0.62,1.197-0.733,2.147h-2.871c0.057-2.263,0.788-3.837,2.193-4.722c1.405-0.886,3.036-1.329,4.891-1.329
		c2.15,0,3.897,0.41,5.24,1.23c1.332,0.82,1.997,2.097,1.997,3.829v10.545c0,0.319,0.065,0.575,0.196,0.769s0.407,0.29,0.829,0.29
		c0.137,0,0.291-0.009,0.461-0.025c0.171-0.018,0.353-0.043,0.547-0.077v2.273c-0.479,0.137-0.843,0.222-1.094,0.256
		c-0.251,0.034-0.593,0.051-1.025,0.051c-1.06,0-1.829-0.375-2.307-1.127c-0.251-0.398-0.427-0.963-0.53-1.691
		c-0.627,0.82-1.527,1.532-2.7,2.136c-1.174,0.604-2.467,0.905-3.879,0.905c-1.698,0-3.085-0.515-4.161-1.545
		c-1.077-1.029-1.615-2.318-1.615-3.866c0-1.695,0.53-3.01,1.589-3.942s2.449-1.508,4.17-1.725L109.205,407.634z M102.727,415.944
		c0.649,0.512,1.418,0.767,2.307,0.767c1.082,0,2.13-0.25,3.145-0.75c1.709-0.831,2.563-2.189,2.563-4.078v-2.474
		c-0.375,0.239-0.858,0.439-1.45,0.6s-1.171,0.274-1.74,0.342l-1.859,0.239c-1.114,0.148-1.952,0.381-2.514,0.699
		c-0.951,0.535-1.427,1.388-1.427,2.558C101.753,414.733,102.078,415.433,102.727,415.944z"/>
	<path fill="#E2E2E2" d="M118.86,400.408h2.922v2.598c0.866-1.071,1.783-1.84,2.751-2.308c0.968-0.467,2.045-0.7,3.23-0.7
		c2.598,0,4.352,0.905,5.264,2.717c0.501,0.991,0.752,2.41,0.752,4.256v11.74h-3.127v-11.535c0-1.117-0.166-2.018-0.496-2.701
		c-0.547-1.139-1.538-1.709-2.974-1.709c-0.729,0-1.328,0.075-1.794,0.223c-0.843,0.251-1.584,0.752-2.222,1.504
		c-0.513,0.604-0.846,1.228-1,1.871c-0.153,0.645-0.23,1.564-0.23,2.76v9.588h-3.076V400.408z"/>
	<path fill="#E2E2E2" d="M148.5,401.143c0.579,0.399,1.169,0.98,1.771,1.743v-2.308h2.837v16.646c0,2.324-0.341,4.158-1.022,5.502
		c-1.272,2.484-3.673,3.727-7.205,3.727c-1.964,0-3.617-0.442-4.957-1.325s-2.09-2.265-2.249-4.144h3.127
		c0.147,0.82,0.442,1.452,0.884,1.896c0.691,0.684,1.779,1.025,3.264,1.025c2.345,0,3.88-0.832,4.606-2.495
		c0.431-0.98,0.629-2.729,0.595-5.247c-0.613,0.935-1.351,1.63-2.213,2.086c-0.862,0.455-2.003,0.684-3.422,0.684
		c-1.975,0-3.703-0.704-5.184-2.111c-1.481-1.406-2.221-3.734-2.221-6.98c0-3.065,0.746-5.458,2.238-7.178
		c1.493-1.721,3.294-2.581,5.405-2.581C146.185,400.083,147.434,400.437,148.5,401.143z M148.877,404.441
		c-0.93-1.094-2.114-1.641-3.554-1.641c-2.154,0-3.627,1.014-4.421,3.041c-0.419,1.083-0.629,2.502-0.629,4.256
		c0,2.062,0.417,3.632,1.25,4.708c0.833,1.077,1.953,1.615,3.358,1.615c2.199,0,3.746-0.997,4.642-2.991
		c0.499-1.127,0.748-2.443,0.748-3.947C150.271,407.216,149.806,405.535,148.877,404.441z"/>
	<path fill="#E2E2E2" d="M169.096,400.912c1.211,0.609,2.134,1.398,2.769,2.367c0.611,0.922,1.019,1.999,1.223,3.229
		c0.181,0.844,0.272,2.188,0.272,4.033h-13.313c0.057,1.862,0.492,3.356,1.306,4.481s2.074,1.688,3.781,1.688
		c1.594,0,2.866-0.531,3.815-1.596c0.531-0.618,0.908-1.334,1.129-2.146h3.025c-0.08,0.673-0.345,1.422-0.795,2.247
		c-0.45,0.826-0.952,1.502-1.506,2.025c-0.927,0.912-2.075,1.526-3.443,1.846c-0.735,0.182-1.566,0.273-2.493,0.273
		c-2.265,0-4.184-0.829-5.758-2.486c-1.574-1.658-2.36-3.979-2.36-6.964c0-2.939,0.792-5.326,2.378-7.161
		c1.585-1.834,3.657-2.751,6.216-2.751C166.633,399.998,167.884,400.303,169.096,400.912z M170.198,408.098
		c-0.125-1.332-0.413-2.397-0.864-3.195c-0.836-1.48-2.231-2.222-4.186-2.222c-1.401,0-2.576,0.51-3.525,1.529
		c-0.949,1.021-1.452,2.315-1.508,3.888H170.198z"/>
</g>
</svg>
