<?xml version="1.0" encoding="utf-8"?>
<!-- Generator: Adobe Illustrator 16.0.0, SVG Export Plug-In . SVG Version: 6.00 Build 0)  -->
<!DOCTYPE svg PUBLIC "-//W3C//DTD SVG 1.1//EN" "http://www.w3.org/Graphics/SVG/1.1/DTD/svg11.dtd">
<svg version="1.1" id="Layer_1" xmlns="http://www.w3.org/2000/svg" xmlns:xlink="http://www.w3.org/1999/xlink" x="0px" y="0px"
	 width="210px" height="215px" viewBox="0 0 210 215" enable-background="new 0 0 210 215" xml:space="preserve">
<g>
	<path fill="#FFFFFF" d="M3.031,10.285V6.906c3.184-0.31,5.404-0.828,6.661-1.555c1.257-0.726,2.196-2.445,2.816-5.155h3.478v34.921
		h-4.702V10.285H3.031z"/>
	<path fill="#FFFFFF" d="M32.32,26.179c0.294,2.514,1.461,4.252,3.502,5.215c1.044,0.49,2.253,0.735,3.624,0.735
		c2.612,0,4.547-0.833,5.804-2.498c1.257-1.665,1.886-3.51,1.886-5.535c0-2.449-0.747-4.342-2.241-5.681
		c-1.493-1.339-3.286-2.008-5.375-2.008c-1.519,0-2.821,0.294-3.906,0.882c-1.086,0.588-2.013,1.404-2.78,2.449l-3.82-0.22
		l2.67-18.881h18.219v4.261H34.989l-1.494,9.746c0.816-0.62,1.592-1.085,2.327-1.396c1.306-0.539,2.816-0.808,4.53-0.808
		c3.216,0,5.942,1.037,8.179,3.11s3.355,4.701,3.355,7.886c0,3.313-1.025,6.237-3.074,8.766c-2.049,2.532-5.318,3.796-9.808,3.796
		c-2.857,0-5.383-0.804-7.579-2.412c-2.196-1.608-3.424-4.077-3.686-7.407H32.32z"/>
	<path fill="#FFFFFF" d="M70.204,24.391v-4.114h10.677V9.526h4.188v10.751h10.677v4.114H85.068v10.726h-4.188V24.391H70.204z"/>
	<path fill="#FFFFFF" d="M115.178,32.656c-1.87-2.278-2.805-5.049-2.805-8.314h4.604c0.195,2.27,0.62,3.918,1.273,4.947
		c1.144,1.845,3.208,2.768,6.195,2.768c2.318,0,4.18-0.62,5.583-1.861c1.404-1.241,2.106-2.841,2.106-4.8
		c0-2.417-0.739-4.106-2.216-5.07c-1.479-0.963-3.531-1.445-6.159-1.445c-0.294,0-0.592,0.004-0.894,0.013
		c-0.303,0.008-0.608,0.02-0.919,0.037v-3.894c0.457,0.049,0.842,0.082,1.15,0.098c0.312,0.016,0.646,0.024,1.005,0.024
		c1.648,0,3.004-0.261,4.065-0.784c1.86-0.915,2.791-2.547,2.791-4.898c0-1.747-0.62-3.094-1.86-4.041
		c-1.241-0.947-2.686-1.42-4.336-1.42c-2.938,0-4.97,0.979-6.097,2.938c-0.62,1.078-0.972,2.612-1.053,4.604h-4.359
		c0-2.612,0.522-4.833,1.567-6.661C116.618,1.633,119.777,0,124.3,0c3.575,0,6.342,0.795,8.301,2.388
		c1.959,1.591,2.938,3.898,2.938,6.918c0,2.155-0.579,3.902-1.738,5.241c-0.718,0.833-1.648,1.485-2.791,1.959
		c1.845,0.506,3.284,1.481,4.321,2.927c1.037,1.444,1.556,3.212,1.556,5.301c0,3.347-1.102,6.073-3.307,8.18
		c-2.203,2.106-5.33,3.159-9.379,3.159C120.055,36.072,117.047,34.933,115.178,32.656z"/>
	<path fill="#FFFFFF" d="M165.294,0.637v3.845c-1.127,1.094-2.626,2.996-4.493,5.706c-1.87,2.71-3.523,5.632-4.96,8.767
		c-1.42,3.053-2.498,5.836-3.232,8.35c-0.474,1.618-1.085,4.221-1.836,7.812h-4.874c1.11-6.693,3.559-13.354,7.347-19.982
		c2.236-3.886,4.588-7.241,7.053-10.065h-19.396V0.637H165.294z"/>
	<path fill="#FFFFFF" d="M208.688,14.987v4.114h-25.542v-4.114H208.688z M208.688,25.493v4.187h-25.542v-4.187H208.688z"/>
</g>
<g>
	<path fill="#FFFFFF" d="M2.805,211.584C0.935,209.306,0,206.535,0,203.27h4.604c0.196,2.27,0.62,3.918,1.273,4.947
		c1.143,1.844,3.208,2.768,6.196,2.768c2.318,0,4.179-0.621,5.583-1.861c1.404-1.24,2.105-2.841,2.105-4.8
		c0-2.416-0.738-4.106-2.216-5.069s-3.531-1.445-6.158-1.445c-0.294,0-0.592,0.004-0.895,0.013s-0.607,0.02-0.918,0.037v-3.895
		c0.457,0.05,0.841,0.081,1.151,0.099c0.31,0.016,0.645,0.023,1.003,0.023c1.65,0,3.004-0.261,4.066-0.783
		c1.861-0.914,2.791-2.547,2.791-4.897c0-1.747-0.621-3.094-1.861-4.041c-1.241-0.946-2.685-1.421-4.334-1.421
		c-2.938,0-4.972,0.98-6.097,2.939c-0.62,1.077-0.972,2.611-1.053,4.604H0.882c0-2.611,0.522-4.832,1.567-6.66
		c1.796-3.266,4.956-4.898,9.477-4.898c3.577,0,6.343,0.796,8.302,2.389c1.959,1.591,2.939,3.896,2.939,6.917
		c0,2.155-0.579,3.901-1.739,5.241c-0.718,0.832-1.648,1.485-2.791,1.959c1.843,0.506,3.285,1.48,4.321,2.926
		c1.037,1.445,1.556,3.213,1.556,5.303c0,3.346-1.103,6.072-3.307,8.179c-2.204,2.106-5.331,3.159-9.379,3.159
		C7.681,215,4.672,213.861,2.805,211.584z"/>
	<path fill="#FFFFFF" d="M30.697,211.584c-1.87-2.278-2.805-5.049-2.805-8.314h4.604c0.196,2.27,0.62,3.918,1.273,4.947
		c1.143,1.844,3.208,2.768,6.196,2.768c2.318,0,4.179-0.621,5.583-1.861c1.404-1.24,2.106-2.841,2.106-4.8
		c0-2.416-0.739-4.106-2.216-5.069c-1.478-0.963-3.531-1.445-6.159-1.445c-0.294,0-0.592,0.004-0.894,0.013
		c-0.302,0.009-0.608,0.02-0.918,0.037v-3.895c0.457,0.05,0.84,0.081,1.151,0.099c0.309,0.016,0.645,0.023,1.003,0.023
		c1.649,0,3.004-0.261,4.065-0.783c1.861-0.914,2.792-2.547,2.792-4.897c0-1.747-0.62-3.094-1.861-4.041
		c-1.241-0.946-2.687-1.421-4.334-1.421c-2.939,0-4.972,0.98-6.098,2.939c-0.621,1.077-0.972,2.611-1.053,4.604h-4.36
		c0-2.611,0.522-4.832,1.567-6.66c1.796-3.266,4.956-4.898,9.478-4.898c3.575,0,6.343,0.796,8.302,2.389
		c1.959,1.591,2.938,3.896,2.938,6.917c0,2.155-0.58,3.901-1.739,5.241c-0.718,0.832-1.649,1.485-2.792,1.959
		c1.845,0.506,3.286,1.48,4.322,2.926s1.555,3.213,1.555,5.303c0,3.346-1.103,6.072-3.305,8.179
		c-2.205,2.106-5.331,3.159-9.38,3.159C35.574,215,32.565,213.861,30.697,211.584z"/>
	<path fill="#FFFFFF" d="M70.772,203.318v-4.113H81.45v-10.751h4.188v10.751h10.677v4.113H85.638v10.727H81.45v-10.727H70.772z"/>
	<path fill="#FFFFFF" d="M116.541,189.213v-3.379c3.185-0.311,5.405-0.828,6.661-1.556c1.259-0.726,2.196-2.444,2.817-5.154h3.477
		v34.921h-4.701v-24.832H116.541z"/>
	<path fill="#FFFFFF" d="M143.075,206.159c1.085-2.236,3.204-4.27,6.355-6.099l4.701-2.717c2.106-1.225,3.583-2.271,4.433-3.138
		c1.338-1.358,2.009-2.911,2.009-4.661c0-2.045-0.612-3.669-1.837-4.871s-2.857-1.803-4.898-1.803c-3.02,0-5.109,1.146-6.269,3.438
		c-0.62,1.229-0.964,2.932-1.028,5.108h-4.481c0.048-3.053,0.612-5.542,1.689-7.469c1.91-3.396,5.28-5.094,10.113-5.094
		c4.016,0,6.95,1.085,8.804,3.257s2.78,4.588,2.78,7.248c0,2.809-0.987,5.209-2.964,7.2c-1.143,1.159-3.191,2.563-6.146,4.212
		l-3.355,1.861c-1.6,0.882-2.855,1.723-3.77,2.521c-1.633,1.422-2.663,2.997-3.087,4.728h19.151v4.163h-24.073
		C141.365,211.024,141.99,208.396,143.075,206.159z"/>
	<path fill="#FFFFFF" d="M209.257,193.915v4.114h-25.542v-4.114H209.257z M209.257,204.422v4.187h-25.542v-4.187H209.257z"/>
</g>
</svg>
