<?xml version="1.0" encoding="utf-8"?>
<!-- Generator: Adobe Illustrator 24.1.0, SVG Export Plug-In . SVG Version: 6.00 Build 0)  -->
<svg version="1.1" id="Layer_1" xmlns="http://www.w3.org/2000/svg" xmlns:xlink="http://www.w3.org/1999/xlink" x="0px" y="0px"
	 viewBox="0 0 506 317.8" style="enable-background:new 0 0 506 317.8;" xml:space="preserve">
<style type="text/css">
	.st0{fill:#FFFFFF;}
	.st1{fill:none;stroke:#FFFFFF;stroke-width:5;stroke-linecap:square;stroke-miterlimit:10;}
</style>
<g>
	<path class="st0" d="M36.2,6c2.5,2.4,3.9,5.1,4.1,8.2h-4.7c-0.5-2.3-1.6-4.1-3.2-5.5c-1.6-1.4-3.8-2-6.6-2c-3.5,0-6.3,1.2-8.4,3.7
		s-3.2,6.3-3.2,11.4c0,4.2,1,7.6,2.9,10.2c1.9,2.6,4.8,3.9,8.6,3.9c3.5,0,6.2-1.4,8-4.1c1-1.4,1.7-3.4,2.2-5.7h4.7
		c-0.4,3.8-1.8,6.9-4.2,9.5c-2.8,3.1-6.6,4.6-11.4,4.6c-4.1,0-7.6-1.3-10.4-3.8c-3.7-3.3-5.5-8.5-5.5-15.5c0-5.3,1.4-9.6,4.1-13
		c3-3.7,7.1-5.5,12.4-5.5C30.2,2.4,33.7,3.6,36.2,6z"/>
	<path class="st0" d="M60.4,23.4c1-0.1,1.7-0.6,2-1.3c0.2-0.4,0.3-1,0.3-1.7c0-1.5-0.5-2.6-1.6-3.3s-2.6-1-4.6-1
		c-2.3,0-3.9,0.6-4.9,1.9c-0.5,0.7-0.9,1.7-1,3.1h-4.1c0.1-3.2,1.1-5.5,3.1-6.7s4.3-1.9,7-1.9c3.1,0,5.6,0.6,7.5,1.8
		c1.9,1.2,2.9,3,2.9,5.5v15.1c0,0.5,0.1,0.8,0.3,1.1c0.2,0.3,0.6,0.4,1.2,0.4c0.2,0,0.4,0,0.7,0s0.5-0.1,0.8-0.1v3.2
		c-0.7,0.2-1.2,0.3-1.6,0.4c-0.4,0-0.8,0.1-1.5,0.1c-1.5,0-2.6-0.5-3.3-1.6c-0.4-0.6-0.6-1.4-0.8-2.4c-0.9,1.2-2.2,2.2-3.9,3.1
		c-1.7,0.9-3.5,1.3-5.5,1.3c-2.4,0-4.4-0.7-5.9-2.2s-2.3-3.3-2.3-5.5c0-2.4,0.8-4.3,2.3-5.6s3.5-2.2,6-2.5L60.4,23.4z M51.1,35.3
		c0.9,0.7,2,1.1,3.3,1.1c1.5,0,3-0.4,4.5-1.1c2.4-1.2,3.7-3.1,3.7-5.8v-3.5c-0.5,0.3-1.2,0.6-2.1,0.9c-0.8,0.2-1.7,0.4-2.5,0.5
		l-2.7,0.3c-1.6,0.2-2.8,0.5-3.6,1c-1.4,0.8-2,2-2,3.7C49.7,33.5,50.2,34.5,51.1,35.3z"/>
	<path class="st0" d="M74.2,13.1h4.2v3.7c1.2-1.5,2.5-2.6,3.9-3.3c1.4-0.7,2.9-1,4.6-1c3.7,0,6.2,1.3,7.5,3.9
		c0.7,1.4,1.1,3.4,1.1,6.1v16.8H91V22.7c0-1.6-0.2-2.9-0.7-3.9c-0.8-1.6-2.2-2.4-4.2-2.4c-1,0-1.9,0.1-2.6,0.3
		c-1.2,0.4-2.3,1.1-3.2,2.1c-0.7,0.9-1.2,1.8-1.4,2.7c-0.2,0.9-0.3,2.2-0.3,3.9v13.7h-4.4L74.2,13.1L74.2,13.1z"/>
	<path class="st0" d="M132.2,13.1h4.9c-0.6,1.7-2,5.5-4.1,11.5c-1.6,4.5-2.9,8.2-4,11c-2.5,6.7-4.3,10.7-5.4,12.2s-2.8,2.2-5.4,2.2
		c-0.6,0-1.1,0-1.4-0.1c-0.3,0-0.7-0.1-1.2-0.3v-4c0.8,0.2,1.3,0.3,1.7,0.4c0.3,0,0.6,0.1,0.9,0.1c0.8,0,1.4-0.1,1.8-0.4
		c0.4-0.3,0.7-0.6,1-1c0.1-0.1,0.4-0.8,0.9-2s0.9-2.1,1.1-2.7l-9.7-26.9h5l7,21.3L132.2,13.1z"/>
	<path class="st0" d="M159.8,15.7c2.3,2.2,3.5,5.5,3.5,9.9c0,4.2-1,7.7-3.1,10.4c-2,2.7-5.2,4.1-9.5,4.1c-3.6,0-6.4-1.2-8.5-3.6
		s-3.2-5.7-3.2-9.8c0-4.4,1.1-7.9,3.3-10.5s5.2-3.9,8.9-3.9C154.7,12.3,157.5,13.4,159.8,15.7z M157.1,33.1c1.1-2.2,1.6-4.7,1.6-7.4
		c0-2.4-0.4-4.4-1.2-6c-1.2-2.4-3.3-3.6-6.3-3.6c-2.7,0-4.6,1-5.8,3.1s-1.8,4.5-1.8,7.4c0,2.8,0.6,5.1,1.8,6.9s3.1,2.8,5.7,2.8
		C154,36.4,156,35.3,157.1,33.1z"/>
	<path class="st0" d="M173.1,13.1v17.4c0,1.3,0.2,2.4,0.6,3.3c0.8,1.6,2.2,2.3,4.3,2.3c3,0,5-1.4,6.1-4.1c0.6-1.5,0.9-3.5,0.9-6
		V13.1h4.4v26.1h-4.1l0-3.9c-0.6,1-1.3,1.8-2.1,2.5c-1.6,1.4-3.6,2.1-6,2.1c-3.7,0-6.1-1.2-7.5-3.7c-0.7-1.3-1.1-3.1-1.1-5.3V13.1
		H173.1z"/>
	<path class="st0" d="M212.4,5.1c1-1.5,3-2.2,5.9-2.2c0.3,0,0.6,0,0.9,0c0.3,0,0.6,0,1,0.1v4c-0.5,0-0.8-0.1-1-0.1
		c-0.2,0-0.4,0-0.6,0c-1.4,0-2.2,0.3-2.4,1s-0.4,2.5-0.4,5.3h4.4v3.5h-4.4v22.6h-4.3V16.7h-3.6v-3.5h3.6V9.1
		C211.5,7.3,211.8,5.9,212.4,5.1z"/>
	<path class="st0" d="M224.3,3.4h4.5v5h-4.5V3.4z M224.3,13.2h4.5v26h-4.5V13.2z"/>
	<path class="st0" d="M235.4,13.1h4.2v3.7c1.2-1.5,2.5-2.6,3.9-3.3c1.4-0.7,2.9-1,4.6-1c3.7,0,6.2,1.3,7.5,3.9
		c0.7,1.4,1.1,3.4,1.1,6.1v16.8h-4.5V22.7c0-1.6-0.2-2.9-0.7-3.9c-0.8-1.6-2.2-2.4-4.2-2.4c-1,0-1.9,0.1-2.6,0.3
		c-1.2,0.4-2.3,1.1-3.2,2.1c-0.7,0.9-1.2,1.8-1.4,2.7c-0.2,0.9-0.3,2.2-0.3,3.9v13.7h-4.4V13.1z"/>
	<path class="st0" d="M277.5,13.9c0.8,0.5,1.7,1.3,2.7,2.6V3.2h4.2v36h-4v-3.6c-1,1.6-2.2,2.8-3.6,3.5s-3,1.1-4.8,1.1
		c-2.9,0-5.4-1.2-7.5-3.7c-2.1-2.4-3.2-5.7-3.2-9.8c0-3.8,1-7.1,2.9-9.9c1.9-2.8,4.7-4.2,8.3-4.2C274.5,12.6,276.2,13,277.5,13.9z
		 M267.7,33.5c1.2,1.9,3.1,2.8,5.7,2.8c2,0,3.7-0.9,5-2.6c1.3-1.8,2-4.3,2-7.5c0-3.3-0.7-5.8-2-7.3s-3-2.4-5-2.4
		c-2.2,0-4,0.8-5.4,2.5c-1.4,1.7-2.1,4.2-2.1,7.5C266,29.2,266.5,31.6,267.7,33.5z"/>
	<path class="st0" d="M304.9,13.1h4.2v3.7c1.2-1.5,2.5-2.6,3.9-3.3c1.4-0.7,2.9-1,4.6-1c3.7,0,6.2,1.3,7.5,3.9
		c0.7,1.4,1.1,3.4,1.1,6.1v16.8h-4.5V22.7c0-1.6-0.2-2.9-0.7-3.9c-0.8-1.6-2.2-2.4-4.2-2.4c-1,0-1.9,0.1-2.6,0.3
		c-1.2,0.4-2.3,1.1-3.2,2.1c-0.7,0.9-1.2,1.8-1.4,2.7c-0.2,0.9-0.3,2.2-0.3,3.9v13.7h-4.4V13.1z"/>
	<path class="st0" d="M337.1,13.1v17.4c0,1.3,0.2,2.4,0.6,3.3c0.8,1.6,2.2,2.3,4.3,2.3c3,0,5-1.4,6.1-4.1c0.6-1.5,0.9-3.5,0.9-6
		V13.1h4.4v26.1h-4.1l0-3.9c-0.6,1-1.3,1.8-2.1,2.5c-1.6,1.4-3.6,2.1-6,2.1c-3.7,0-6.1-1.2-7.5-3.7c-0.7-1.3-1.1-3.1-1.1-5.3V13.1
		H337.1z"/>
	<path class="st0" d="M360.5,13.1h4.3v3.7c1-1.3,2-2.2,2.8-2.8c1.4-1,3.1-1.5,4.9-1.5c2.1,0,3.8,0.5,5,1.5c0.7,0.6,1.4,1.4,2,2.6
		c1-1.4,2.1-2.4,3.4-3.1c1.3-0.7,2.8-1,4.4-1c3.5,0,5.9,1.3,7.2,3.8c0.7,1.4,1,3.2,1,5.5v17.4h-4.6V21.1c0-1.7-0.4-2.9-1.3-3.6
		c-0.9-0.7-1.9-1-3.2-1c-1.7,0-3.2,0.6-4.5,1.7c-1.2,1.2-1.9,3.1-1.9,5.8v15.2h-4.5V22.1c0-1.8-0.2-3.1-0.6-3.9
		c-0.7-1.2-1.9-1.8-3.7-1.8c-1.7,0-3.2,0.6-4.5,1.9c-1.4,1.3-2,3.6-2,7v13.9h-4.4L360.5,13.1L360.5,13.1z"/>
	<path class="st0" d="M401.8,3.2h4.3v13c1-1.3,2.1-2.2,3.5-2.9c1.3-0.7,2.8-1,4.4-1c3.3,0,5.9,1.1,8,3.4s3.1,5.5,3.1,9.9
		c0,4.1-1,7.6-3,10.3s-4.8,4.1-8.4,4.1c-2,0-3.7-0.5-5-1.4c-0.8-0.6-1.7-1.5-2.6-2.7v3.3h-4.1L401.8,3.2L401.8,3.2z M418.6,33.3
		c1.2-1.9,1.8-4.4,1.8-7.5c0-2.8-0.6-5-1.8-6.8s-2.9-2.7-5.2-2.7c-2,0-3.8,0.7-5.3,2.2c-1.5,1.5-2.3,3.9-2.3,7.3
		c0,2.5,0.3,4.5,0.9,6c1.2,2.9,3.3,4.3,6.5,4.3C415.6,36.2,417.4,35.2,418.6,33.3z"/>
	<path class="st0" d="M446.1,13.8c1.7,0.9,3,2,4,3.4c0.9,1.3,1.5,2.9,1.7,4.6c0.3,1.2,0.4,3.1,0.4,5.8h-19c0.1,2.7,0.7,4.8,1.9,6.4
		c1.2,1.6,3,2.4,5.4,2.4c2.3,0,4.1-0.8,5.5-2.3c0.8-0.9,1.3-1.9,1.6-3.1h4.3c-0.1,1-0.5,2-1.1,3.2c-0.6,1.2-1.4,2.1-2.2,2.9
		c-1.3,1.3-3,2.2-4.9,2.6c-1,0.3-2.2,0.4-3.6,0.4c-3.2,0-6-1.2-8.2-3.6s-3.4-5.7-3.4-9.9c0-4.2,1.1-7.6,3.4-10.2
		c2.3-2.6,5.2-3.9,8.9-3.9C442.6,12.5,444.4,12.9,446.1,13.8z M447.7,24.1c-0.2-1.9-0.6-3.4-1.2-4.6c-1.2-2.1-3.2-3.2-6-3.2
		c-2,0-3.7,0.7-5,2.2c-1.4,1.5-2.1,3.3-2.2,5.6H447.7z"/>
	<path class="st0" d="M457.9,13.1h4.2v4.5c0.3-0.9,1.2-1.9,2.5-3.2c1.3-1.3,2.9-1.9,4.6-1.9c0.1,0,0.2,0,0.4,0c0.2,0,0.5,0,1,0.1
		v4.6c-0.3,0-0.5-0.1-0.7-0.1c-0.2,0-0.5,0-0.7,0c-2.2,0-3.9,0.7-5.1,2.1c-1.2,1.4-1.8,3.1-1.8,4.9v15h-4.4L457.9,13.1L457.9,13.1z"
		/>
	<path class="st0" d="M478,6.1c2-2.1,4.8-3.2,8.3-3.2c3.2,0,5.8,0.9,7.8,2.7c2,1.8,2.9,4.2,2.9,7c0,1.7-0.4,3.1-1.1,4.2
		s-2.2,2.7-4.4,4.7c-1.6,1.5-2.6,2.8-3.1,3.8c-0.5,1-0.7,2.6-0.7,4.7h-4.3c0-2.3,0.3-4.2,0.8-5.6c0.6-1.4,1.8-3.1,3.7-4.9l2-1.9
		c0.6-0.6,1.1-1.1,1.5-1.7c0.7-1.1,1-2.2,1-3.3c0-1.6-0.5-3-1.5-4.1c-1-1.2-2.6-1.8-4.8-1.8c-2.8,0-4.7,1-5.8,3
		c-0.6,1.1-0.9,2.7-1,4.9H475C475,11.1,476,8.2,478,6.1z M483.3,34.1h4.9v5.1h-4.9V34.1z"/>
</g>
<g>
	<g>
		<g>
			<path class="st1" d="M181.7,96.2c0-10.2,8.3-18.5,18.5-18.5c10.2,0,18.5,8.3,18.5,18.5c0,10.2-8.3,18.5-18.5,18.5
				S181.7,106.4,181.7,96.2z"/>
		</g>
		<g>
			<path class="st1" d="M234.2,96.2c0-10.2,8.3-18.5,18.5-18.5c10.2,0,18.5,8.3,18.5,18.5c0,10.2-8.3,18.5-18.5,18.5
				C242.5,114.7,234.2,106.4,234.2,96.2z"/>
		</g>
		<g>
			<path class="st1" d="M286.8,96.2c0-10.2,8.3-18.5,18.5-18.5c10.2,0,18.5,8.3,18.5,18.5c0,10.2-8.3,18.5-18.5,18.5
				C295.1,114.7,286.8,106.4,286.8,96.2z"/>
		</g>
	</g>
	<g>
		<g>
			<path class="st1" d="M181.7,292.3c0-10.2,8.3-18.5,18.5-18.5c10.2,0,18.5,8.3,18.5,18.5s-8.3,18.5-18.5,18.5
				S181.7,302.5,181.7,292.3z"/>
		</g>
		<g>
			<path class="st1" d="M234.2,292.3c0-10.2,8.3-18.5,18.5-18.5c10.2,0,18.5,8.3,18.5,18.5s-8.3,18.5-18.5,18.5
				C242.5,310.8,234.2,302.5,234.2,292.3z"/>
		</g>
		<g>
			<path class="st1" d="M286.8,292.3c0-10.2,8.3-18.5,18.5-18.5c10.2,0,18.5,8.3,18.5,18.5s-8.3,18.5-18.5,18.5
				C295.1,310.8,286.8,302.5,286.8,292.3z"/>
		</g>
	</g>
	<g>
		<g>
			<path class="st1" d="M181.7,144.8c0-10.2,8.3-18.5,18.5-18.5c10.2,0,18.5,8.3,18.5,18.5c0,10.2-8.3,18.5-18.5,18.5
				S181.7,155,181.7,144.8z"/>
		</g>
		<g>
			<path class="st1" d="M128.2,144.8c0-10.2,8.3-18.5,18.5-18.5c10.2,0,18.5,8.3,18.5,18.5c0,10.2-8.3,18.5-18.5,18.5
				S128.2,155,128.2,144.8z"/>
		</g>
		<g>
			<path class="st1" d="M234.2,144.8c0-10.2,8.3-18.5,18.5-18.5c10.2,0,18.5,8.3,18.5,18.5c0,10.2-8.3,18.5-18.5,18.5
				C242.5,163.3,234.2,155,234.2,144.8z"/>
		</g>
		<g>
			<path class="st1" d="M286.8,144.8c0-10.2,8.3-18.5,18.5-18.5c10.2,0,18.5,8.3,18.5,18.5c0,10.2-8.3,18.5-18.5,18.5
				C295.1,163.3,286.8,155,286.8,144.8z"/>
		</g>
		<g>
			<path class="st1" d="M340.6,144.8c0-10.2,8.3-18.5,18.5-18.5c10.2,0,18.5,8.3,18.5,18.5c0,10.2-8.3,18.5-18.5,18.5
				C348.9,163.3,340.6,155,340.6,144.8z"/>
		</g>
	</g>
	<g>
		<g>
			<path class="st1" d="M181.7,243c0-10.2,8.3-18.5,18.5-18.5c10.2,0,18.5,8.3,18.5,18.5s-8.3,18.5-18.5,18.5S181.7,253.2,181.7,243
				z"/>
		</g>
		<g>
			<path class="st1" d="M128.2,243c0-10.2,8.3-18.5,18.5-18.5c10.2,0,18.5,8.3,18.5,18.5s-8.3,18.5-18.5,18.5S128.2,253.2,128.2,243
				z"/>
		</g>
		<g>
			<path class="st1" d="M234.2,243c0-10.2,8.3-18.5,18.5-18.5c10.2,0,18.5,8.3,18.5,18.5s-8.3,18.5-18.5,18.5
				C242.5,261.4,234.2,253.2,234.2,243z"/>
		</g>
		<g>
			<path class="st1" d="M286.8,243c0-10.2,8.3-18.5,18.5-18.5c10.2,0,18.5,8.3,18.5,18.5s-8.3,18.5-18.5,18.5
				C295.1,261.4,286.8,253.2,286.8,243z"/>
		</g>
		<g>
			<path class="st1" d="M340.6,243c0-10.2,8.3-18.5,18.5-18.5c10.2,0,18.5,8.3,18.5,18.5s-8.3,18.5-18.5,18.5
				C348.9,261.4,340.6,253.2,340.6,243z"/>
		</g>
	</g>
	<g>
		<g>
			<path class="st1" d="M181.7,194.1c0-10.2,8.3-18.5,18.5-18.5c10.2,0,18.5,8.3,18.5,18.5s-8.3,18.5-18.5,18.5
				C189.9,212.5,181.7,204.3,181.7,194.1z"/>
		</g>
		<g>
			<path class="st1" d="M128.2,194.1c0-10.2,8.3-18.5,18.5-18.5c10.2,0,18.5,8.3,18.5,18.5s-8.3,18.5-18.5,18.5
				C136.5,212.5,128.2,204.3,128.2,194.1z"/>
		</g>
		<g>
			<path class="st1" d="M75.5,194.1c0-10.2,8.3-18.5,18.5-18.5s18.5,8.3,18.5,18.5s-8.3,18.5-18.5,18.5S75.5,204.3,75.5,194.1z"/>
		</g>
		<g>
			<path class="st1" d="M234.2,194.1c0-10.2,8.3-18.5,18.5-18.5c10.2,0,18.5,8.3,18.5,18.5s-8.3,18.5-18.5,18.5
				C242.5,212.5,234.2,204.3,234.2,194.1z"/>
		</g>
		<g>
			<path class="st1" d="M286.8,194.1c0-10.2,8.3-18.5,18.5-18.5c10.2,0,18.5,8.3,18.5,18.5s-8.3,18.5-18.5,18.5
				C295.1,212.5,286.8,204.3,286.8,194.1z"/>
		</g>
		<g>
			<path class="st1" d="M340.6,194.1c0-10.2,8.3-18.5,18.5-18.5c10.2,0,18.5,8.3,18.5,18.5s-8.3,18.5-18.5,18.5
				C348.9,212.5,340.6,204.3,340.6,194.1z"/>
		</g>
		<g>
			<path class="st1" d="M393.5,194.1c0-10.2,8.3-18.5,18.5-18.5c10.2,0,18.5,8.3,18.5,18.5s-8.3,18.5-18.5,18.5
				C401.8,212.5,393.5,204.3,393.5,194.1z"/>
		</g>
	</g>
	<g>
		<g>
			<path class="st0" d="M201.7,106.7v-5.1h-9.2V99l9.6-13.3h2.2v13.6h3.1v2.3h-3.1v5.1L201.7,106.7L201.7,106.7z M201.7,99.2v-9.5
				l-6.7,9.5H201.7z"/>
		</g>
		<g>
			<path class="st0" d="M246.7,105.2c-1.1-1.4-1.7-3-1.7-5h2.8c0.1,1.4,0.4,2.3,0.8,3c0.7,1.1,1.9,1.7,3.7,1.7
				c1.4,0,2.5-0.4,3.3-1.1c0.8-0.7,1.3-1.7,1.3-2.9c0-1.4-0.4-2.5-1.3-3c-0.9-0.6-2.1-0.9-3.7-0.9c-0.2,0-0.4,0-0.5,0
				c-0.2,0-0.4,0-0.6,0v-2.3c0.3,0,0.5,0,0.7,0.1c0.2,0,0.4,0,0.6,0c1,0,1.8-0.2,2.4-0.5c1.1-0.5,1.7-1.5,1.7-2.9
				c0-1-0.4-1.9-1.1-2.4s-1.6-0.9-2.6-0.9c-1.8,0-3,0.6-3.7,1.8c-0.4,0.6-0.6,1.6-0.6,2.8h-2.6c0-1.6,0.3-2.9,0.9-4
				c1.1-2,3-2.9,5.7-2.9c2.1,0,3.8,0.5,5,1.4c1.2,1,1.8,2.3,1.8,4.1c0,1.3-0.3,2.3-1,3.1c-0.4,0.5-1,0.9-1.7,1.2
				c1.1,0.3,2,0.9,2.6,1.8c0.6,0.9,0.9,1.9,0.9,3.2c0,2-0.7,3.6-2,4.9c-1.3,1.3-3.2,1.9-5.6,1.9
				C249.6,107.3,247.8,106.6,246.7,105.2z"/>
		</g>
		<g>
			<path class="st0" d="M299,102c0.7-1.3,1.9-2.6,3.8-3.7l2.8-1.6c1.3-0.7,2.1-1.4,2.7-1.9c0.8-0.8,1.2-1.7,1.2-2.8
				c0-1.2-0.4-2.2-1.1-2.9c-0.7-0.7-1.7-1.1-2.9-1.1c-1.8,0-3.1,0.7-3.8,2.1c-0.4,0.7-0.6,1.8-0.6,3.1h-2.7c0-1.8,0.4-3.3,1-4.5
				c1.1-2,3.2-3.1,6.1-3.1c2.4,0,4.2,0.7,5.3,2c1.1,1.3,1.7,2.7,1.7,4.3c0,1.7-0.6,3.1-1.8,4.3c-0.7,0.7-1.9,1.5-3.7,2.5l-2,1.1
				c-1,0.5-1.7,1-2.3,1.5c-1,0.9-1.6,1.8-1.9,2.8h11.5v2.5h-14.4C298,104.9,298.3,103.3,299,102z"/>
		</g>
		<g>
			<path class="st0" d="M195.8,297.7c0.1,1.5,0.6,2.5,1.7,3c0.5,0.3,1.1,0.4,1.8,0.4c1.3,0,2.3-0.5,3.2-1.6c0.9-1.1,1.5-3.2,1.9-6.4
				c-0.6,0.9-1.3,1.6-2.2,2c-0.9,0.4-1.8,0.6-2.8,0.6c-2,0-3.6-0.6-4.8-1.9c-1.2-1.3-1.8-2.9-1.8-4.9c0-1.9,0.6-3.6,1.7-5
				c1.2-1.4,2.9-2.2,5.1-2.2c3.1,0,5.2,1.4,6.3,4.1c0.6,1.5,1,3.4,1,5.7c0,2.6-0.4,4.8-1.2,6.8c-1.3,3.3-3.5,5-6.5,5
				c-2.1,0-3.6-0.5-4.7-1.6c-1.1-1.1-1.6-2.4-1.6-4L195.8,297.7L195.8,297.7z M202.6,292.4c0.9-0.7,1.3-1.9,1.3-3.6
				c0-1.5-0.4-2.7-1.2-3.5c-0.8-0.8-1.8-1.1-3-1.1c-1.3,0-2.3,0.4-3.1,1.3c-0.8,0.9-1.1,2-1.1,3.5c0,1.4,0.3,2.5,1,3.3
				c0.7,0.8,1.7,1.2,3.2,1.2C200.8,293.4,201.8,293.1,202.6,292.4z"/>
		</g>
		<g>
			<path class="st0" d="M248.4,282.9c1.2-1.3,2.9-1.9,5-1.9c1.9,0,3.5,0.6,4.7,1.7c1.2,1.1,1.8,2.5,1.8,4.2c0,1-0.2,1.9-0.6,2.5
				c-0.4,0.6-1.3,1.6-2.6,2.8c-1,0.9-1.6,1.7-1.9,2.3c-0.3,0.6-0.4,1.6-0.4,2.8h-2.6c0-1.4,0.2-2.5,0.5-3.4c0.3-0.9,1.1-1.8,2.2-2.9
				l1.2-1.2c0.4-0.3,0.6-0.7,0.9-1c0.4-0.6,0.6-1.3,0.6-2c0-1-0.3-1.8-0.9-2.5c-0.6-0.7-1.6-1.1-2.9-1.1c-1.7,0-2.8,0.6-3.5,1.8
				c-0.4,0.7-0.6,1.6-0.6,2.9h-2.6C246.6,285.9,247.2,284.2,248.4,282.9z M251.6,299.8h2.9v3.1h-2.9V299.8z"/>
		</g>
		<g>
			<path class="st0" d="M299.3,301.4c-1.1-1.4-1.7-3-1.7-5h2.8c0.1,1.4,0.4,2.3,0.8,3c0.7,1.1,1.9,1.7,3.7,1.7
				c1.4,0,2.5-0.4,3.3-1.1c0.8-0.7,1.3-1.7,1.3-2.9c0-1.4-0.4-2.5-1.3-3c-0.9-0.6-2.1-0.9-3.7-0.9c-0.2,0-0.4,0-0.5,0
				c-0.2,0-0.4,0-0.6,0v-2.3c0.3,0,0.5,0,0.7,0.1c0.2,0,0.4,0,0.6,0c1,0,1.8-0.2,2.4-0.5c1.1-0.5,1.7-1.5,1.7-2.9
				c0-1-0.4-1.9-1.1-2.4c-0.7-0.6-1.6-0.9-2.6-0.9c-1.8,0-3,0.6-3.7,1.8c-0.4,0.6-0.6,1.6-0.6,2.8h-2.6c0-1.6,0.3-2.9,0.9-4
				c1.1-2,3-2.9,5.7-2.9c2.1,0,3.8,0.5,5,1.4c1.2,1,1.8,2.3,1.8,4.1c0,1.3-0.3,2.3-1,3.1c-0.4,0.5-1,0.9-1.7,1.2
				c1.1,0.3,2,0.9,2.6,1.8c0.6,0.9,0.9,1.9,0.9,3.2c0,2-0.7,3.6-2,4.9c-1.3,1.3-3.2,1.9-5.6,1.9
				C302.2,303.4,300.4,302.7,299.3,301.4z"/>
		</g>
		<g>
			<path class="st0" d="M194.2,153.9c-1.1-1.4-1.7-3-1.7-5h2.8c0.1,1.4,0.4,2.3,0.8,3c0.7,1.1,1.9,1.7,3.7,1.7
				c1.4,0,2.5-0.4,3.3-1.1c0.8-0.7,1.3-1.7,1.3-2.9c0-1.4-0.4-2.5-1.3-3c-0.9-0.6-2.1-0.9-3.7-0.9c-0.2,0-0.4,0-0.5,0
				c-0.2,0-0.4,0-0.6,0v-2.3c0.3,0,0.5,0,0.7,0.1c0.2,0,0.4,0,0.6,0c1,0,1.8-0.2,2.4-0.5c1.1-0.5,1.7-1.5,1.7-2.9
				c0-1-0.4-1.9-1.1-2.4c-0.7-0.6-1.6-0.9-2.6-0.9c-1.8,0-3,0.6-3.7,1.8c-0.4,0.6-0.6,1.6-0.6,2.8H193c0-1.6,0.3-2.9,0.9-4
				c1.1-2,3-2.9,5.7-2.9c2.1,0,3.8,0.5,5,1.4c1.2,1,1.8,2.3,1.8,4.1c0,1.3-0.3,2.3-1,3.1c-0.4,0.5-1,0.9-1.7,1.2
				c1.1,0.3,2,0.9,2.6,1.8c0.6,0.9,0.9,1.9,0.9,3.2c0,2-0.7,3.6-2,4.9c-1.3,1.3-3.2,1.9-5.6,1.9
				C197.1,155.9,195.3,155.2,194.2,153.9z"/>
		</g>
		<g>
			<path class="st0" d="M142,150c0.2,1.5,0.9,2.5,2.1,3.1c0.6,0.3,1.4,0.4,2.2,0.4c1.6,0,2.7-0.5,3.5-1.5c0.8-1,1.1-2.1,1.1-3.3
				c0-1.5-0.4-2.6-1.3-3.4c-0.9-0.8-2-1.2-3.2-1.2c-0.9,0-1.7,0.2-2.3,0.5c-0.7,0.4-1.2,0.8-1.7,1.5L140,146l1.6-11.3h10.9v2.6h-8.9
				l-0.9,5.8c0.5-0.4,1-0.6,1.4-0.8c0.8-0.3,1.7-0.5,2.7-0.5c1.9,0,3.6,0.6,4.9,1.9c1.3,1.2,2,2.8,2,4.7c0,2-0.6,3.7-1.8,5.3
				c-1.2,1.5-3.2,2.3-5.9,2.3c-1.7,0-3.2-0.5-4.5-1.4c-1.3-1-2.1-2.4-2.2-4.4L142,150L142,150z"/>
		</g>
		<g>
			<path class="st0" d="M248,150c0.2,1.5,0.9,2.5,2.1,3.1c0.6,0.3,1.4,0.4,2.2,0.4c1.6,0,2.7-0.5,3.5-1.5c0.8-1,1.1-2.1,1.1-3.3
				c0-1.5-0.4-2.6-1.3-3.4c-0.9-0.8-2-1.2-3.2-1.2c-0.9,0-1.7,0.2-2.3,0.5c-0.6,0.4-1.2,0.8-1.7,1.5L246,146l1.6-11.3h10.9v2.6h-8.9
				l-0.9,5.8c0.5-0.4,1-0.6,1.4-0.8c0.8-0.3,1.7-0.5,2.7-0.5c1.9,0,3.6,0.6,4.9,1.9c1.3,1.2,2,2.8,2,4.7c0,2-0.6,3.7-1.8,5.3
				c-1.2,1.5-3.2,2.3-5.9,2.3c-1.7,0-3.2-0.5-4.5-1.4s-2.1-2.4-2.2-4.4L248,150L248,150z"/>
		</g>
		<g>
			<path class="st0" d="M299.8,140.5v-2c1.9-0.2,3.2-0.5,4-0.9c0.8-0.4,1.3-1.5,1.7-3.1h2.1v20.9h-2.8v-14.9H299.8z"/>
		</g>
		<g>
			<path class="st0" d="M353.6,140.5v-2c1.9-0.2,3.2-0.5,4-0.9c0.8-0.4,1.3-1.5,1.7-3.1h2.1v20.9h-2.8v-14.9H353.6z"/>
		</g>
		<g>
			<path class="st0" d="M193.8,248.8c0.6-1.3,1.9-2.6,3.8-3.7l2.8-1.6c1.3-0.7,2.1-1.4,2.7-1.9c0.8-0.8,1.2-1.7,1.2-2.8
				c0-1.2-0.4-2.2-1.1-2.9c-0.7-0.7-1.7-1.1-2.9-1.1c-1.8,0-3.1,0.7-3.8,2.1c-0.4,0.7-0.6,1.8-0.6,3.1h-2.7c0-1.8,0.4-3.3,1-4.5
				c1.1-2,3.2-3.1,6.1-3.1c2.4,0,4.2,0.7,5.3,2c1.1,1.3,1.7,2.7,1.7,4.3c0,1.7-0.6,3.1-1.8,4.3c-0.7,0.7-1.9,1.5-3.7,2.5l-2,1.1
				c-1,0.5-1.7,1-2.3,1.5c-1,0.9-1.6,1.8-1.9,2.8h11.5v2.5h-14.4C192.8,251.7,193.2,250.1,193.8,248.8z"/>
		</g>
		<g>
			<path class="st0" d="M154,232.8v2.3c-0.7,0.7-1.6,1.8-2.7,3.4c-1.1,1.6-2.1,3.4-3,5.3c-0.9,1.8-1.5,3.5-1.9,5
				c-0.3,1-0.7,2.5-1.1,4.7h-2.9c0.7-4,2.1-8,4.4-12c1.3-2.3,2.7-4.3,4.2-6h-11.6v-2.7L154,232.8L154,232.8z"/>
		</g>
		<g>
			<path class="st0" d="M247.2,241.2c-0.8-0.8-1.2-1.8-1.2-3.1c0-1.6,0.6-2.9,1.7-4c1.1-1.1,2.7-1.7,4.8-1.7c2,0,3.6,0.5,4.7,1.6
				c1.1,1.1,1.7,2.3,1.7,3.7c0,1.3-0.3,2.4-1,3.2c-0.4,0.5-0.9,0.9-1.7,1.3c0.9,0.4,1.6,0.9,2.1,1.4c0.9,1,1.4,2.2,1.4,3.8
				c0,1.8-0.6,3.4-1.9,4.7c-1.2,1.3-3,1.9-5.3,1.9c-2,0-3.8-0.6-5.2-1.7s-2.1-2.7-2.1-4.8c0-1.2,0.3-2.3,0.9-3.2
				c0.6-0.9,1.5-1.6,2.7-2.1C248.2,242,247.6,241.6,247.2,241.2z M255.7,250.7c0.8-0.7,1.2-1.6,1.2-3c0-1.4-0.4-2.4-1.2-3.1
				c-0.8-0.7-1.9-1.1-3.2-1.1c-1.3,0-2.3,0.4-3.1,1.1c-0.8,0.7-1.2,1.7-1.2,3c0,1.1,0.4,2,1.1,2.8c0.7,0.8,1.9,1.2,3.4,1.2
				C253.9,251.7,254.9,251.3,255.7,250.7z M255.2,240.3c0.7-0.7,1-1.4,1-2.3c0-0.8-0.3-1.5-0.9-2.2c-0.6-0.7-1.6-1-2.9-1
				c-1.3,0-2.2,0.3-2.8,1c-0.6,0.7-0.9,1.4-0.9,2.3c0,1,0.4,1.8,1.1,2.3c0.7,0.6,1.6,0.8,2.6,0.8
				C253.6,241.3,254.5,240.9,255.2,240.3z"/>
		</g>
		<g>
			<path class="st0" d="M306.9,253.5v-5.1h-9.2v-2.6l9.6-13.4h2.2V246h3.1v2.3h-3.1v5.1L306.9,253.5L306.9,253.5z M306.8,246v-9.5
				l-6.7,9.5L306.8,246L306.8,246z"/>
		</g>
		<g>
			<path class="st0" d="M353.1,252c-1.1-1.4-1.7-3-1.7-5h2.8c0.1,1.4,0.4,2.3,0.8,3c0.7,1.1,1.9,1.7,3.7,1.7c1.4,0,2.5-0.4,3.3-1.1
				c0.8-0.7,1.3-1.7,1.3-2.9c0-1.4-0.4-2.5-1.3-3s-2.1-0.9-3.7-0.9c-0.2,0-0.4,0-0.5,0c-0.2,0-0.4,0-0.5,0v-2.3
				c0.3,0,0.5,0.1,0.7,0.1c0.2,0,0.4,0,0.6,0c1,0,1.8-0.2,2.4-0.5c1.1-0.5,1.7-1.5,1.7-2.9c0-1-0.4-1.9-1.1-2.4
				c-0.7-0.6-1.6-0.9-2.6-0.9c-1.8,0-3,0.6-3.7,1.8c-0.4,0.6-0.6,1.6-0.6,2.8H352c0-1.6,0.3-2.9,0.9-4c1.1-2,3-2.9,5.7-2.9
				c2.1,0,3.8,0.5,5,1.4c1.2,1,1.8,2.3,1.8,4.1c0,1.3-0.3,2.3-1,3.1c-0.4,0.5-1,0.9-1.7,1.2c1.1,0.3,2,0.9,2.6,1.8
				c0.6,0.9,0.9,1.9,0.9,3.2c0,2-0.7,3.6-2,4.9c-1.3,1.3-3.2,1.9-5.6,1.9C356,254,354.2,253.4,353.1,252z"/>
		</g>
		<g>
			<path class="st0" d="M193.8,199.8c0.6-1.3,1.9-2.6,3.8-3.7l2.8-1.6c1.3-0.7,2.1-1.4,2.7-1.9c0.8-0.8,1.2-1.7,1.2-2.8
				c0-1.2-0.4-2.2-1.1-2.9c-0.7-0.7-1.7-1.1-2.9-1.1c-1.8,0-3.1,0.7-3.8,2.1c-0.4,0.7-0.6,1.8-0.6,3.1h-2.7c0-1.8,0.4-3.3,1-4.5
				c1.1-2,3.2-3.1,6.1-3.1c2.4,0,4.2,0.6,5.3,2c1.1,1.3,1.7,2.7,1.7,4.3c0,1.7-0.6,3.1-1.8,4.3c-0.7,0.7-1.9,1.5-3.7,2.5l-2,1.1
				c-1,0.5-1.7,1-2.3,1.5c-1,0.9-1.6,1.8-1.9,2.8h11.5v2.5h-14.4C192.8,202.7,193.2,201.2,193.8,199.8z"/>
		</g>
		<g>
			<path class="st0" d="M141.2,189.7v-2c1.9-0.2,3.2-0.5,4-0.9c0.8-0.4,1.3-1.5,1.7-3.1h2.1v20.9h-2.8v-14.9L141.2,189.7
				L141.2,189.7z"/>
		</g>
		<g>
			<path class="st0" d="M99.3,185.3c0.9,1.2,1.4,2.5,1.4,3.8h-2.6c-0.2-0.8-0.4-1.5-0.7-2c-0.6-0.9-1.6-1.3-2.9-1.3
				c-1.5,0-2.7,0.7-3.5,2c-0.9,1.4-1.4,3.3-1.5,5.9c0.6-0.9,1.4-1.6,2.3-2c0.8-0.4,1.8-0.6,2.8-0.6c1.8,0,3.3,0.6,4.6,1.7
				c1.3,1.1,2,2.8,2,5c0,1.9-0.6,3.6-1.9,5.1s-3,2.2-5.3,2.2c-2,0-3.7-0.7-5.1-2.2c-1.4-1.5-2.1-4-2.1-7.5c0-2.6,0.3-4.8,1-6.6
				c1.2-3.5,3.5-5.2,6.7-5.2C96.8,183.5,98.4,184.1,99.3,185.3z M97.4,201.3c0.7-0.9,1-2,1-3.3c0-1.1-0.3-2.1-0.9-3.1
				c-0.6-1-1.7-1.5-3.4-1.5c-1.1,0-2.1,0.4-3,1.1c-0.9,0.8-1.3,1.9-1.3,3.4c0,1.3,0.4,2.4,1.2,3.4c0.8,0.9,1.9,1.4,3.2,1.4
				C95.6,202.7,96.7,202.3,97.4,201.3z"/>
		</g>
		<g>
			<path class="st0" d="M247.2,192.3c-0.8-0.8-1.2-1.8-1.2-3.1c0-1.6,0.6-2.9,1.7-4c1.1-1.1,2.7-1.7,4.8-1.7c2,0,3.6,0.5,4.7,1.6
				c1.1,1.1,1.7,2.3,1.7,3.7c0,1.3-0.3,2.4-1,3.2c-0.4,0.5-0.9,0.9-1.7,1.4c0.9,0.4,1.6,0.9,2.1,1.4c0.9,1,1.4,2.2,1.4,3.8
				c0,1.8-0.6,3.4-1.9,4.7c-1.2,1.3-3,1.9-5.3,1.9c-2,0-3.8-0.6-5.2-1.7c-1.4-1.1-2.1-2.7-2.1-4.8c0-1.2,0.3-2.3,0.9-3.2
				c0.6-0.9,1.5-1.6,2.7-2.1C248.2,193,247.6,192.7,247.2,192.3z M255.7,201.8c0.8-0.7,1.2-1.6,1.2-3c0-1.4-0.4-2.4-1.2-3.1
				c-0.8-0.7-1.9-1.1-3.2-1.1c-1.3,0-2.3,0.4-3.1,1.1c-0.8,0.7-1.2,1.7-1.2,3c0,1.1,0.4,2,1.1,2.8c0.7,0.8,1.9,1.2,3.4,1.2
				C253.9,202.7,254.9,202.4,255.7,201.8z M255.2,191.4c0.7-0.7,1-1.4,1-2.3c0-0.8-0.3-1.5-0.9-2.2c-0.6-0.7-1.6-1-2.9-1
				c-1.3,0-2.2,0.3-2.8,1c-0.6,0.7-0.9,1.4-0.9,2.3c0,1,0.4,1.8,1.1,2.3c0.7,0.6,1.6,0.8,2.6,0.8C253.6,192.3,254.5,192,255.2,191.4
				z"/>
		</g>
		<g>
			<path class="st0" d="M299.3,203.1c-1.1-1.4-1.7-3-1.7-5h2.8c0.1,1.4,0.4,2.3,0.8,3c0.7,1.1,1.9,1.7,3.7,1.7
				c1.4,0,2.5-0.4,3.3-1.1c0.8-0.7,1.3-1.7,1.3-2.9c0-1.4-0.4-2.5-1.3-3c-0.9-0.6-2.1-0.9-3.7-0.9c-0.2,0-0.4,0-0.5,0
				c-0.2,0-0.4,0-0.6,0v-2.3c0.3,0,0.5,0,0.7,0.1c0.2,0,0.4,0,0.6,0c1,0,1.8-0.2,2.4-0.5c1.1-0.5,1.7-1.5,1.7-2.9
				c0-1-0.4-1.9-1.1-2.4c-0.7-0.6-1.6-0.9-2.6-0.9c-1.8,0-3,0.6-3.7,1.8c-0.4,0.6-0.6,1.6-0.6,2.8h-2.6c0-1.6,0.3-2.9,0.9-4
				c1.1-2,3-2.9,5.7-2.9c2.1,0,3.8,0.5,5,1.4c1.2,1,1.8,2.3,1.8,4.1c0,1.3-0.3,2.3-1,3.1c-0.4,0.5-1,0.9-1.7,1.2
				c1.1,0.3,2,0.9,2.6,1.8c0.6,0.9,0.9,1.9,0.9,3.2c0,2-0.7,3.6-2,4.9c-1.3,1.3-3.2,1.9-5.6,1.9
				C302.2,205.1,300.4,204.4,299.3,203.1z"/>
		</g>
		<g>
			<path class="st0" d="M353.1,203.1c-1.1-1.4-1.7-3-1.7-5h2.8c0.1,1.4,0.4,2.3,0.8,3c0.7,1.1,1.9,1.7,3.7,1.7
				c1.4,0,2.5-0.4,3.3-1.1c0.8-0.7,1.3-1.7,1.3-2.9c0-1.4-0.4-2.5-1.3-3c-0.9-0.6-2.1-0.9-3.7-0.9c-0.2,0-0.4,0-0.5,0
				c-0.2,0-0.4,0-0.5,0v-2.3c0.3,0,0.5,0,0.7,0.1c0.2,0,0.4,0,0.6,0c1,0,1.8-0.2,2.4-0.5c1.1-0.5,1.7-1.5,1.7-2.9
				c0-1-0.4-1.9-1.1-2.4c-0.7-0.6-1.6-0.9-2.6-0.9c-1.8,0-3,0.6-3.7,1.8c-0.4,0.6-0.6,1.6-0.6,2.8H352c0-1.6,0.3-2.9,0.9-4
				c1.1-2,3-2.9,5.7-2.9c2.1,0,3.8,0.5,5,1.4c1.2,1,1.8,2.3,1.8,4.1c0,1.3-0.3,2.3-1,3.1c-0.4,0.5-1,0.9-1.7,1.2
				c1.1,0.3,2,0.9,2.6,1.8c0.6,0.9,0.9,1.9,0.9,3.2c0,2-0.7,3.6-2,4.9c-1.3,1.3-3.2,1.9-5.6,1.9C356,205.1,354.2,204.4,353.1,203.1z
				"/>
		</g>
		<g>
			<path class="st0" d="M406.5,189.7v-2c1.9-0.2,3.2-0.5,4-0.9c0.8-0.4,1.3-1.5,1.7-3.1h2.1v20.9h-2.8v-14.9L406.5,189.7
				L406.5,189.7z"/>
		</g>
	</g>
</g>
</svg>
