<?xml version="1.0" encoding="utf-8"?>
<!-- Generator: Adobe Illustrator 24.1.0, SVG Export Plug-In . SVG Version: 6.00 Build 0)  -->
<svg version="1.1" id="Layer_1" xmlns="http://www.w3.org/2000/svg" xmlns:xlink="http://www.w3.org/1999/xlink" x="0px" y="0px"
	 viewBox="0 0 506 370" style="enable-background:new 0 0 506 370;" xml:space="preserve">
<style type="text/css">
	.st0{fill:#FFFFFF;}
</style>
<g>
	<path class="st0" d="M36.1,8.6c2.5,2.4,3.9,5.1,4.1,8.2h-4.7c-0.5-2.3-1.6-4.1-3.2-5.5c-1.6-1.4-3.8-2-6.6-2
		c-3.5,0-6.3,1.2-8.4,3.7s-3.2,6.3-3.2,11.4c0,4.2,1,7.6,2.9,10.2c1.9,2.6,4.8,3.9,8.6,3.9c3.5,0,6.2-1.4,8-4.1
		c1-1.4,1.7-3.4,2.2-5.7h4.7c-0.4,3.8-1.8,6.9-4.2,9.5c-2.8,3.1-6.6,4.6-11.4,4.6c-4.1,0-7.6-1.3-10.4-3.8
		c-3.7-3.3-5.5-8.5-5.5-15.5c0-5.3,1.4-9.6,4.1-13c3-3.7,7.1-5.5,12.4-5.5C30.1,5,33.6,6.2,36.1,8.6z"/>
	<path class="st0" d="M60.3,26c1-0.1,1.7-0.6,2-1.3c0.2-0.4,0.3-1,0.3-1.7c0-1.5-0.5-2.6-1.6-3.3s-2.6-1-4.6-1
		c-2.3,0-3.9,0.6-4.9,1.9c-0.5,0.7-0.9,1.7-1,3.1h-4.1c0.1-3.2,1.1-5.5,3.1-6.7s4.3-1.9,7-1.9c3.1,0,5.6,0.6,7.5,1.8
		c1.9,1.2,2.9,3,2.9,5.5v15.1c0,0.5,0.1,0.8,0.3,1.1c0.2,0.3,0.6,0.4,1.2,0.4c0.2,0,0.4,0,0.7,0c0.2,0,0.5-0.1,0.8-0.1V42
		c-0.7,0.2-1.2,0.3-1.6,0.4c-0.4,0-0.8,0.1-1.5,0.1c-1.5,0-2.6-0.5-3.3-1.6c-0.4-0.6-0.6-1.4-0.8-2.4c-0.9,1.2-2.2,2.2-3.9,3.1
		c-1.7,0.9-3.5,1.3-5.5,1.3c-2.4,0-4.4-0.7-5.9-2.2S45,37.2,45,35c0-2.4,0.8-4.3,2.3-5.6c1.5-1.3,3.5-2.2,6-2.5L60.3,26z M51,37.9
		c0.9,0.7,2,1.1,3.3,1.1c1.5,0,3-0.4,4.5-1.1c2.4-1.2,3.7-3.1,3.7-5.8v-3.5c-0.5,0.3-1.2,0.6-2.1,0.9c-0.8,0.2-1.7,0.4-2.5,0.5
		l-2.7,0.3c-1.6,0.2-2.8,0.5-3.6,1c-1.4,0.8-2,2-2,3.7C49.6,36.2,50.1,37.2,51,37.9z"/>
	<path class="st0" d="M74,15.7h4.2v3.7c1.2-1.5,2.5-2.6,3.9-3.3c1.4-0.7,2.9-1,4.6-1c3.7,0,6.2,1.3,7.5,3.9c0.7,1.4,1.1,3.4,1.1,6.1
		v16.8h-4.5V25.4c0-1.6-0.2-2.9-0.7-3.9c-0.8-1.6-2.2-2.4-4.2-2.4c-1,0-1.9,0.1-2.6,0.3c-1.2,0.4-2.3,1.1-3.2,2.1
		c-0.7,0.9-1.2,1.8-1.4,2.7c-0.2,0.9-0.3,2.2-0.3,3.9v13.7H74L74,15.7L74,15.7z"/>
	<path class="st0" d="M132.1,15.7h4.9c-0.6,1.7-2,5.5-4.1,11.5c-1.6,4.5-2.9,8.2-4,11c-2.5,6.7-4.3,10.7-5.4,12.2
		c-1,1.5-2.8,2.2-5.4,2.2c-0.6,0-1.1,0-1.4-0.1s-0.7-0.1-1.2-0.3v-4c0.8,0.2,1.3,0.3,1.7,0.4c0.3,0,0.6,0.1,0.9,0.1
		c0.8,0,1.4-0.1,1.8-0.4c0.4-0.3,0.7-0.6,1-1c0.1-0.1,0.4-0.8,0.9-2s0.9-2.1,1.1-2.7L113,15.7h5l7,21.3L132.1,15.7z"/>
	<path class="st0" d="M159.7,18.3c2.3,2.2,3.5,5.5,3.5,9.9c0,4.2-1,7.7-3.1,10.4c-2,2.7-5.2,4.1-9.5,4.1c-3.6,0-6.4-1.2-8.5-3.6
		c-2.1-2.4-3.2-5.7-3.2-9.8c0-4.4,1.1-7.9,3.3-10.5s5.2-3.9,8.9-3.9C154.6,14.9,157.4,16.1,159.7,18.3z M157,35.7
		c1.1-2.2,1.6-4.7,1.6-7.4c0-2.4-0.4-4.4-1.2-6c-1.2-2.4-3.3-3.6-6.3-3.6c-2.7,0-4.6,1-5.8,3.1s-1.8,4.5-1.8,7.4
		c0,2.8,0.6,5.1,1.8,6.9s3.1,2.8,5.7,2.8C153.9,39,155.9,37.9,157,35.7z"/>
	<path class="st0" d="M172.9,15.7v17.4c0,1.3,0.2,2.4,0.6,3.3c0.8,1.6,2.2,2.3,4.3,2.3c3,0,5-1.4,6.1-4.1c0.6-1.5,0.9-3.5,0.9-6
		V15.7h4.4v26.1H185l0-3.9c-0.6,1-1.3,1.8-2.1,2.5c-1.6,1.4-3.6,2.1-6,2.1c-3.7,0-6.1-1.2-7.5-3.7c-0.7-1.3-1.1-3.1-1.1-5.3V15.7
		H172.9z"/>
	<path class="st0" d="M212.3,7.7c1-1.5,3-2.2,5.9-2.2c0.3,0,0.6,0,0.9,0c0.3,0,0.6,0,1,0.1v4c-0.5,0-0.8-0.1-1-0.1s-0.4,0-0.6,0
		c-1.4,0-2.2,0.3-2.4,1s-0.4,2.5-0.4,5.3h4.4v3.5h-4.4v22.6h-4.3V19.3h-3.6v-3.5h3.6v-4.1C211.4,9.9,211.7,8.6,212.3,7.7z"/>
	<path class="st0" d="M224.1,6h4.5v5h-4.5V6z M224.1,15.8h4.5v26h-4.5V15.8z"/>
	<path class="st0" d="M235.3,15.7h4.2v3.7c1.2-1.5,2.5-2.6,3.9-3.3c1.4-0.7,2.9-1,4.6-1c3.7,0,6.2,1.3,7.5,3.9
		c0.7,1.4,1.1,3.4,1.1,6.1v16.8h-4.5V25.4c0-1.6-0.2-2.9-0.7-3.9c-0.8-1.6-2.2-2.4-4.2-2.4c-1,0-1.9,0.1-2.6,0.3
		c-1.2,0.4-2.3,1.1-3.2,2.1c-0.7,0.9-1.2,1.8-1.4,2.7c-0.2,0.9-0.3,2.2-0.3,3.9v13.7h-4.4V15.7z"/>
	<path class="st0" d="M277.4,16.5c0.8,0.5,1.7,1.3,2.7,2.6V5.9h4.2v36h-4v-3.6c-1,1.6-2.2,2.8-3.6,3.5c-1.4,0.7-3,1.1-4.8,1.1
		c-2.9,0-5.4-1.2-7.5-3.7c-2.1-2.4-3.2-5.7-3.2-9.8c0-3.8,1-7.1,2.9-9.9c1.9-2.8,4.7-4.2,8.3-4.2C274.4,15.2,276.1,15.7,277.4,16.5z
		 M267.6,36.1c1.2,1.9,3.1,2.8,5.7,2.8c2,0,3.7-0.9,5-2.6c1.3-1.8,2-4.3,2-7.5c0-3.3-0.7-5.8-2-7.3s-3-2.4-5-2.4
		c-2.2,0-4,0.8-5.4,2.5c-1.4,1.7-2.1,4.2-2.1,7.5C265.8,31.9,266.4,34.2,267.6,36.1z"/>
	<path class="st0" d="M304.8,15.7h4.2v3.7c1.2-1.5,2.5-2.6,3.9-3.3c1.4-0.7,2.9-1,4.6-1c3.7,0,6.2,1.3,7.5,3.9
		c0.7,1.4,1.1,3.4,1.1,6.1v16.8h-4.5V25.4c0-1.6-0.2-2.9-0.7-3.9c-0.8-1.6-2.2-2.4-4.2-2.4c-1,0-1.9,0.1-2.6,0.3
		c-1.2,0.4-2.3,1.1-3.2,2.1c-0.7,0.9-1.2,1.8-1.4,2.7c-0.2,0.9-0.3,2.2-0.3,3.9v13.7h-4.4V15.7z"/>
	<path class="st0" d="M337,15.7v17.4c0,1.3,0.2,2.4,0.6,3.3c0.8,1.6,2.2,2.3,4.3,2.3c3,0,5-1.4,6.1-4.1c0.6-1.5,0.9-3.5,0.9-6V15.7
		h4.4v26.1H349l0-3.9c-0.6,1-1.3,1.8-2.1,2.5c-1.6,1.4-3.6,2.1-6,2.1c-3.7,0-6.1-1.2-7.5-3.7c-0.7-1.3-1.1-3.1-1.1-5.3V15.7H337z"/>
	<path class="st0" d="M360.4,15.7h4.3v3.7c1-1.3,2-2.2,2.8-2.8c1.4-1,3.1-1.5,4.9-1.5c2.1,0,3.8,0.5,5,1.5c0.7,0.6,1.4,1.4,2,2.6
		c1-1.4,2.1-2.4,3.4-3.1c1.3-0.7,2.8-1,4.4-1c3.5,0,5.9,1.3,7.2,3.8c0.7,1.4,1,3.2,1,5.5v17.4H391V23.7c0-1.7-0.4-2.9-1.3-3.6
		c-0.9-0.7-1.9-1-3.2-1c-1.7,0-3.2,0.6-4.5,1.7c-1.2,1.2-1.9,3.1-1.9,5.8v15.2h-4.5V24.8c0-1.8-0.2-3.1-0.6-3.9
		c-0.7-1.2-1.9-1.8-3.7-1.8c-1.7,0-3.2,0.6-4.5,1.9c-1.4,1.3-2,3.6-2,7v13.9h-4.4L360.4,15.7L360.4,15.7z"/>
	<path class="st0" d="M401.7,5.9h4.3v13c1-1.3,2.1-2.2,3.5-2.9c1.3-0.7,2.8-1,4.4-1c3.3,0,5.9,1.1,8,3.4c2,2.2,3.1,5.5,3.1,9.9
		c0,4.1-1,7.6-3,10.3c-2,2.7-4.8,4.1-8.4,4.1c-2,0-3.7-0.5-5-1.4c-0.8-0.6-1.7-1.5-2.6-2.7v3.3h-4.1L401.7,5.9L401.7,5.9z M418.5,36
		c1.2-1.9,1.8-4.4,1.8-7.5c0-2.8-0.6-5-1.8-6.8c-1.2-1.8-2.9-2.7-5.2-2.7c-2,0-3.8,0.7-5.3,2.2c-1.5,1.5-2.3,3.9-2.3,7.3
		c0,2.5,0.3,4.5,0.9,6c1.2,2.9,3.3,4.3,6.5,4.3C415.5,38.8,417.3,37.8,418.5,36z"/>
	<path class="st0" d="M446,16.4c1.7,0.9,3,2,4,3.4c0.9,1.3,1.5,2.9,1.7,4.6c0.3,1.2,0.4,3.1,0.4,5.8h-19c0.1,2.7,0.7,4.8,1.9,6.4
		c1.2,1.6,3,2.4,5.4,2.4c2.3,0,4.1-0.8,5.5-2.3c0.8-0.9,1.3-1.9,1.6-3.1h4.3c-0.1,1-0.5,2-1.1,3.2c-0.6,1.2-1.4,2.1-2.1,2.9
		c-1.3,1.3-3,2.2-4.9,2.6c-1.1,0.3-2.2,0.4-3.6,0.4c-3.2,0-6-1.2-8.2-3.6c-2.2-2.4-3.4-5.7-3.4-9.9c0-4.2,1.1-7.6,3.4-10.2
		c2.3-2.6,5.2-3.9,8.9-3.9C442.5,15.1,444.3,15.5,446,16.4z M447.6,26.7c-0.2-1.9-0.6-3.4-1.2-4.6c-1.2-2.1-3.2-3.2-6-3.2
		c-2,0-3.7,0.7-5,2.2c-1.4,1.5-2.1,3.3-2.2,5.6H447.6z"/>
	<path class="st0" d="M457.8,15.7h4.2v4.5c0.3-0.9,1.2-1.9,2.5-3.2c1.3-1.3,2.9-1.9,4.6-1.9c0.1,0,0.2,0,0.4,0c0.2,0,0.5,0,1,0.1
		v4.6c-0.3,0-0.5-0.1-0.7-0.1c-0.2,0-0.5,0-0.7,0c-2.2,0-3.9,0.7-5.1,2.1c-1.2,1.4-1.8,3.1-1.8,4.9v15h-4.4L457.8,15.7L457.8,15.7z"
		/>
	<path class="st0" d="M477.9,8.7c2-2.1,4.8-3.2,8.3-3.2c3.2,0,5.8,0.9,7.8,2.7c2,1.8,2.9,4.2,2.9,7c0,1.7-0.4,3.1-1.1,4.2
		c-0.7,1.1-2.2,2.7-4.4,4.7c-1.6,1.5-2.6,2.8-3.1,3.8c-0.5,1-0.7,2.6-0.7,4.7h-4.3c0-2.3,0.3-4.2,0.8-5.6c0.6-1.4,1.8-3.1,3.7-4.9
		l2-1.9c0.6-0.6,1.1-1.1,1.5-1.7c0.7-1.1,1-2.2,1-3.3c0-1.6-0.5-3-1.5-4.1c-1-1.2-2.6-1.8-4.8-1.8c-2.8,0-4.7,1-5.8,3
		c-0.6,1.1-0.9,2.7-1,4.9h-4.3C474.9,13.7,475.9,10.9,477.9,8.7z M483.2,36.8h4.9v5.1h-4.9V36.8z"/>
</g>
<g>
	<g>
		<path class="st0" d="M292.7,85v43h-79.3V85H292.7 M297.7,80h-5h-79.3h-5v5v43v5h5h79.3h5v-5V85V80L297.7,80z"/>
	</g>
	<g>
		<path class="st0" d="M245.4,118.1c-1.4-1.7-2.1-3.8-2.1-6.3h3.5c0.1,1.7,0.5,3,1,3.8c0.9,1.4,2.4,2.1,4.7,2.1
			c1.8,0,3.2-0.5,4.3-1.4c1.1-0.9,1.6-2.2,1.6-3.7c0-1.8-0.6-3.1-1.7-3.9s-2.7-1.1-4.7-1.1c-0.2,0-0.5,0-0.7,0s-0.5,0-0.7,0v-3
			c0.3,0,0.6,0.1,0.9,0.1c0.2,0,0.5,0,0.8,0c1.3,0,2.3-0.2,3.1-0.6c1.4-0.7,2.1-1.9,2.1-3.7c0-1.3-0.5-2.4-1.4-3.1
			c-0.9-0.7-2-1.1-3.3-1.1c-2.2,0-3.8,0.7-4.6,2.2c-0.5,0.8-0.7,2-0.8,3.5H244c0-2,0.4-3.7,1.2-5.1c1.4-2.5,3.8-3.7,7.2-3.7
			c2.7,0,4.8,0.6,6.3,1.8c1.5,1.2,2.2,3,2.2,5.3c0,1.6-0.4,3-1.3,4c-0.5,0.6-1.3,1.1-2.1,1.5c1.4,0.4,2.5,1.1,3.3,2.2
			c0.8,1.1,1.2,2.4,1.2,4c0,2.6-0.8,4.6-2.5,6.2s-4.1,2.4-7.1,2.4C249.1,120.7,246.8,119.8,245.4,118.1z"/>
	</g>
	<g>
		<path class="st0" d="M292.7,131.8v43h-79.3v-43L292.7,131.8 M297.7,126.8h-5h-79.3h-5v5v43v5h5h79.3h5v-5v-43V126.8L297.7,126.8z"
			/>
	</g>
	<g>
		<path class="st0" d="M247.1,159.9c0.2,1.9,1.1,3.2,2.7,4c0.8,0.4,1.7,0.6,2.8,0.6c2,0,3.5-0.6,4.4-1.9c1-1.3,1.4-2.7,1.4-4.2
			c0-1.9-0.6-3.3-1.7-4.3c-1.1-1-2.5-1.5-4.1-1.5c-1.2,0-2.1,0.2-3,0.7s-1.5,1.1-2.1,1.9l-2.9-0.2l2-14.4h13.9v3.2h-11.4l-1.1,7.4
			c0.6-0.5,1.2-0.8,1.8-1.1c1-0.4,2.1-0.6,3.5-0.6c2.4,0,4.5,0.8,6.2,2.4c1.7,1.6,2.6,3.6,2.6,6c0,2.5-0.8,4.8-2.3,6.7
			c-1.6,1.9-4.1,2.9-7.5,2.9c-2.2,0-4.1-0.6-5.8-1.8c-1.7-1.2-2.6-3.1-2.8-5.6L247.1,159.9L247.1,159.9z"/>
	</g>
	<g>
		<path class="st0" d="M292.7,179.6v43h-79.3v-43H292.7 M297.7,174.6h-5h-79.3h-5v5v43v5h5h79.3h5v-5v-43V174.6L297.7,174.6z"/>
	</g>
	<g>
		<path class="st0" d="M246,198.9c-1-1-1.5-2.3-1.5-3.9c0-2,0.7-3.7,2.2-5.1s3.5-2.1,6.1-2.1c2.6,0,4.6,0.7,6,2
			c1.5,1.4,2.2,2.9,2.2,4.7c0,1.7-0.4,3-1.3,4.1c-0.5,0.6-1.2,1.2-2.2,1.7c1.1,0.5,2,1.1,2.6,1.8c1.2,1.2,1.8,2.9,1.8,4.9
			c0,2.4-0.8,4.3-2.4,6c-1.6,1.6-3.8,2.5-6.7,2.5c-2.6,0-4.8-0.7-6.6-2.1c-1.8-1.4-2.7-3.5-2.7-6.2c0-1.6,0.4-2.9,1.2-4.1
			s1.9-2,3.4-2.6C247.3,199.9,246.5,199.4,246,198.9z M256.8,210.9c1-0.8,1.5-2.1,1.5-3.8c0-1.7-0.5-3-1.6-3.9
			c-1.1-0.9-2.4-1.3-4.1-1.3c-1.6,0-2.9,0.5-3.9,1.4s-1.5,2.2-1.5,3.8c0,1.4,0.5,2.6,1.4,3.6s2.4,1.5,4.3,1.5
			C254.5,212.2,255.8,211.8,256.8,210.9z M256.2,197.7c0.8-0.8,1.2-1.8,1.2-3c0-1-0.4-1.9-1.2-2.8c-0.8-0.8-2-1.3-3.6-1.3
			c-1.6,0-2.8,0.4-3.5,1.3c-0.7,0.8-1.1,1.8-1.1,2.9c0,1.3,0.5,2.2,1.4,3s2,1.1,3.3,1.1C254.2,199,255.4,198.5,256.2,197.7z"/>
	</g>
	<g>
		<path class="st0" d="M292.7,226.3v43h-79.3v-43H292.7 M297.7,221.3h-5h-79.3h-5v5v43v5h5h79.3h5v-5v-43V221.3L297.7,221.3z"/>
	</g>
	<g>
		<path class="st0" d="M235.4,242.3v-2.6c2.4-0.2,4.1-0.6,5.1-1.2c1-0.6,1.7-1.9,2.1-3.9h2.7v26.6h-3.6v-18.9L235.4,242.3
			L235.4,242.3z"/>
		<path class="st0" d="M256.1,259.4c-1.4-1.7-2.1-3.8-2.1-6.3h3.5c0.1,1.7,0.5,3,1,3.8c0.9,1.4,2.4,2.1,4.7,2.1
			c1.8,0,3.2-0.5,4.3-1.4c1.1-0.9,1.6-2.2,1.6-3.7c0-1.8-0.6-3.1-1.7-3.9s-2.7-1.1-4.7-1.1c-0.2,0-0.5,0-0.7,0s-0.5,0-0.7,0v-3
			c0.3,0,0.6,0.1,0.9,0.1c0.2,0,0.5,0,0.8,0c1.3,0,2.3-0.2,3.1-0.6c1.4-0.7,2.1-1.9,2.1-3.7c0-1.3-0.5-2.4-1.4-3.1
			c-0.9-0.7-2-1.1-3.3-1.1c-2.2,0-3.8,0.7-4.6,2.2c-0.5,0.8-0.7,2-0.8,3.5h-3.3c0-2,0.4-3.7,1.2-5.1c1.4-2.5,3.8-3.7,7.2-3.7
			c2.7,0,4.8,0.6,6.3,1.8c1.5,1.2,2.2,3,2.2,5.3c0,1.6-0.4,3-1.3,4c-0.5,0.6-1.3,1.1-2.1,1.5c1.4,0.4,2.5,1.1,3.3,2.2
			c0.8,1.1,1.2,2.4,1.2,4c0,2.6-0.8,4.6-2.5,6.2c-1.7,1.6-4.1,2.4-7.1,2.4C259.8,262,257.5,261.1,256.1,259.4z"/>
	</g>
	<g>
		<path class="st0" d="M292.7,274.1v43h-79.3v-43H292.7 M297.7,269.1h-5h-79.3h-5v5v43v5h5h79.3h5v-5v-43V269.1L297.7,269.1z"/>
	</g>
	<g>
		<path class="st0" d="M234.4,303c0.8-1.7,2.4-3.3,4.8-4.6l3.6-2.1c1.6-0.9,2.7-1.7,3.4-2.4c1-1,1.5-2.2,1.5-3.6
			c0-1.6-0.5-2.8-1.4-3.7c-0.9-0.9-2.2-1.4-3.7-1.4c-2.3,0-3.9,0.9-4.8,2.6c-0.5,0.9-0.7,2.2-0.8,3.9h-3.4c0-2.3,0.5-4.2,1.3-5.7
			c1.5-2.6,4-3.9,7.7-3.9c3.1,0,5.3,0.8,6.7,2.5c1.4,1.7,2.1,3.5,2.1,5.5c0,2.1-0.8,4-2.3,5.5c-0.9,0.9-2.4,2-4.7,3.2l-2.6,1.4
			c-1.2,0.7-2.2,1.3-2.9,1.9c-1.2,1.1-2,2.3-2.4,3.6h14.6v3.2h-18.3C233.1,306.7,233.5,304.7,234.4,303z"/>
		<path class="st0" d="M255.6,303c0.8-1.7,2.4-3.3,4.8-4.6l3.6-2.1c1.6-0.9,2.7-1.7,3.4-2.4c1-1,1.5-2.2,1.5-3.6
			c0-1.6-0.5-2.8-1.4-3.7c-0.9-0.9-2.2-1.4-3.7-1.4c-2.3,0-3.9,0.9-4.8,2.6c-0.5,0.9-0.7,2.2-0.8,3.9h-3.4c0-2.3,0.5-4.2,1.3-5.7
			c1.5-2.6,4-3.9,7.7-3.9c3.1,0,5.3,0.8,6.7,2.5c1.4,1.7,2.1,3.5,2.1,5.5c0,2.1-0.8,4-2.3,5.5c-0.9,0.9-2.4,2-4.7,3.2l-2.6,1.4
			c-1.2,0.7-2.2,1.3-2.9,1.9c-1.2,1.1-2,2.3-2.4,3.6h14.6v3.2h-18.4C254.3,306.7,254.8,304.7,255.6,303z"/>
	</g>
	<g>
		<path class="st0" d="M292.7,320.9v43h-79.3v-43H292.7 M297.7,315.9h-5h-79.3h-5v5v43v5h5h79.3h5v-5v-43V315.9L297.7,315.9z"/>
	</g>
	<g>
		<path class="st0" d="M247.6,330.5c1.5-1.6,3.6-2.5,6.3-2.5c2.5,0,4.5,0.7,6,2.1c1.5,1.4,2.2,3.2,2.2,5.4c0,1.3-0.3,2.4-0.8,3.2
			s-1.7,2-3.3,3.6c-1.2,1.2-2,2.1-2.4,2.9c-0.4,0.8-0.6,2-0.6,3.6h-3.3c0-1.8,0.2-3.2,0.6-4.3c0.4-1.1,1.4-2.3,2.8-3.7l1.5-1.5
			c0.5-0.4,0.8-0.9,1.1-1.3c0.5-0.8,0.8-1.6,0.8-2.5c0-1.2-0.4-2.3-1.1-3.2c-0.7-0.9-2-1.3-3.7-1.3c-2.1,0-3.6,0.8-4.4,2.3
			c-0.5,0.9-0.7,2.1-0.8,3.7h-3.3C245.3,334.3,246.1,332.1,247.6,330.5z M251.6,351.9h3.7v3.9h-3.7V351.9z"/>
	</g>
</g>
</svg>
