<?xml version="1.0" encoding="utf-8"?>
<!-- Generator: Adobe Illustrator 24.1.0, SVG Export Plug-In . SVG Version: 6.00 Build 0)  -->
<svg version="1.1" id="Layer_1" xmlns="http://www.w3.org/2000/svg" xmlns:xlink="http://www.w3.org/1999/xlink" x="0px" y="0px"
	 viewBox="0 0 815 300.1" style="enable-background:new 0 0 815 300.1;" xml:space="preserve">
<style type="text/css">
	.st0{fill:#FFFFFF;}
	.st1{fill:none;stroke:#FFFFFF;stroke-width:5;stroke-linecap:square;stroke-miterlimit:10;}
</style>
<g>
	<path class="st0" d="M191.2,6.6c2.5,2.4,3.9,5.1,4.1,8.2h-4.7c-0.5-2.3-1.6-4.1-3.2-5.5c-1.6-1.4-3.8-2-6.6-2
		c-3.5,0-6.3,1.2-8.4,3.7s-3.2,6.3-3.2,11.4c0,4.2,1,7.6,2.9,10.2c1.9,2.6,4.8,3.9,8.6,3.9c3.5,0,6.2-1.4,8-4.1
		c1-1.4,1.7-3.4,2.2-5.7h4.7c-0.4,3.8-1.8,6.9-4.2,9.5c-2.8,3.1-6.6,4.6-11.4,4.6c-4.1,0-7.6-1.3-10.4-3.8
		c-3.7-3.3-5.5-8.5-5.5-15.5c0-5.3,1.4-9.6,4.1-13c3-3.7,7.1-5.5,12.4-5.5C185.2,3,188.7,4.2,191.2,6.6z"/>
	<path class="st0" d="M215.4,24c1-0.1,1.7-0.6,2-1.3c0.2-0.4,0.3-1,0.3-1.7c0-1.5-0.5-2.6-1.6-3.3s-2.6-1-4.6-1
		c-2.3,0-3.9,0.6-4.9,1.9c-0.5,0.7-0.9,1.7-1,3.1h-4.1c0.1-3.2,1.1-5.5,3.1-6.7s4.3-1.9,7-1.9c3.1,0,5.6,0.6,7.5,1.8
		c1.9,1.2,2.9,3,2.9,5.5v15.1c0,0.5,0.1,0.8,0.3,1.1c0.2,0.3,0.6,0.4,1.2,0.4c0.2,0,0.4,0,0.7,0c0.2,0,0.5-0.1,0.8-0.1V40
		c-0.7,0.2-1.2,0.3-1.6,0.4c-0.4,0-0.8,0.1-1.5,0.1c-1.5,0-2.6-0.5-3.3-1.6c-0.4-0.6-0.6-1.4-0.8-2.4c-0.9,1.2-2.2,2.2-3.9,3.1
		c-1.7,0.9-3.5,1.3-5.5,1.3c-2.4,0-4.4-0.7-5.9-2.2c-1.5-1.5-2.3-3.3-2.3-5.5c0-2.4,0.8-4.3,2.3-5.6c1.5-1.3,3.5-2.2,6-2.5L215.4,24
		z M206.1,35.9c0.9,0.7,2,1.1,3.3,1.1c1.5,0,3-0.4,4.5-1.1c2.4-1.2,3.7-3.1,3.7-5.8v-3.5c-0.5,0.3-1.2,0.6-2.1,0.9
		c-0.8,0.2-1.7,0.4-2.5,0.5l-2.7,0.3c-1.6,0.2-2.8,0.5-3.6,1c-1.4,0.8-2,2-2,3.7C204.7,34.2,205.2,35.2,206.1,35.9z"/>
	<path class="st0" d="M229.2,13.7h4.2v3.7c1.2-1.5,2.5-2.6,3.9-3.3c1.4-0.7,2.9-1,4.6-1c3.7,0,6.2,1.3,7.5,3.9
		c0.7,1.4,1.1,3.4,1.1,6.1v16.8H246V23.4c0-1.6-0.2-2.9-0.7-3.9c-0.8-1.6-2.2-2.4-4.2-2.4c-1,0-1.9,0.1-2.6,0.3
		c-1.2,0.4-2.3,1.1-3.2,2.1c-0.7,0.9-1.2,1.8-1.4,2.7c-0.2,0.9-0.3,2.2-0.3,3.9v13.7h-4.4L229.2,13.7L229.2,13.7z"/>
	<path class="st0" d="M287.2,13.7h4.9c-0.6,1.7-2,5.5-4.1,11.5c-1.6,4.5-2.9,8.2-4,11c-2.5,6.7-4.3,10.7-5.4,12.2
		c-1,1.5-2.8,2.2-5.4,2.2c-0.6,0-1.1,0-1.4-0.1s-0.7-0.1-1.2-0.3v-4c0.8,0.2,1.3,0.3,1.7,0.4s0.6,0.1,0.9,0.1c0.8,0,1.4-0.1,1.8-0.4
		c0.4-0.3,0.7-0.6,1-1c0.1-0.1,0.4-0.8,0.9-2s0.9-2.1,1.1-2.7l-9.7-26.9h5l7,21.3L287.2,13.7z"/>
	<path class="st0" d="M314.8,16.3c2.3,2.2,3.5,5.5,3.5,9.9c0,4.2-1,7.7-3.1,10.4c-2,2.7-5.2,4.1-9.5,4.1c-3.6,0-6.4-1.2-8.5-3.6
		c-2.1-2.4-3.2-5.7-3.2-9.8c0-4.4,1.1-7.9,3.3-10.5s5.2-3.9,8.9-3.9C309.7,12.9,312.5,14.1,314.8,16.3z M312.1,33.7
		c1.1-2.2,1.6-4.7,1.6-7.4c0-2.4-0.4-4.4-1.2-6c-1.2-2.4-3.3-3.6-6.3-3.6c-2.7,0-4.6,1-5.8,3.1s-1.8,4.5-1.8,7.4
		c0,2.8,0.6,5.1,1.8,6.9s3.1,2.8,5.7,2.8C309,37,311,35.9,312.1,33.7z"/>
	<path class="st0" d="M328.1,13.7v17.4c0,1.3,0.2,2.4,0.6,3.3c0.8,1.6,2.2,2.3,4.3,2.3c3,0,5-1.4,6.1-4.1c0.6-1.5,0.9-3.5,0.9-6
		V13.7h4.4v26.1h-4.1l0-3.9c-0.6,1-1.3,1.8-2.1,2.5c-1.6,1.4-3.6,2.1-6,2.1c-3.7,0-6.1-1.2-7.5-3.7c-0.7-1.3-1.1-3.1-1.1-5.3V13.7
		H328.1z"/>
	<path class="st0" d="M367.4,5.7c1-1.5,3-2.2,5.9-2.2c0.3,0,0.6,0,0.9,0c0.3,0,0.6,0,1,0.1v4c-0.5,0-0.8-0.1-1-0.1s-0.4,0-0.6,0
		c-1.4,0-2.2,0.3-2.4,1s-0.4,2.5-0.4,5.3h4.4v3.5h-4.4v22.6h-4.3V17.3h-3.6v-3.5h3.6V9.7C366.5,7.9,366.8,6.6,367.4,5.7z"/>
	<path class="st0" d="M379.3,4h4.5v5h-4.5V4z M379.3,13.8h4.5v26h-4.5V13.8z"/>
	<path class="st0" d="M390.4,13.7h4.2v3.7c1.2-1.5,2.5-2.6,3.9-3.3c1.4-0.7,2.9-1,4.6-1c3.7,0,6.2,1.3,7.5,3.9
		c0.7,1.4,1.1,3.4,1.1,6.1v16.8h-4.5V23.4c0-1.6-0.2-2.9-0.7-3.9c-0.8-1.6-2.2-2.4-4.2-2.4c-1,0-1.9,0.1-2.6,0.3
		c-1.2,0.4-2.3,1.1-3.2,2.1c-0.7,0.9-1.2,1.8-1.4,2.7c-0.2,0.9-0.3,2.2-0.3,3.9v13.7h-4.4L390.4,13.7L390.4,13.7z"/>
	<path class="st0" d="M432.5,14.5c0.8,0.5,1.7,1.3,2.7,2.6V3.9h4.2v36h-4v-3.6c-1,1.6-2.2,2.8-3.6,3.5c-1.4,0.7-3,1.1-4.8,1.1
		c-2.9,0-5.4-1.2-7.5-3.7c-2.1-2.4-3.2-5.7-3.2-9.8c0-3.8,1-7.1,2.9-9.9c1.9-2.8,4.7-4.2,8.3-4.2C429.5,13.2,431.2,13.7,432.5,14.5z
		 M422.7,34.1c1.2,1.9,3.1,2.8,5.7,2.8c2,0,3.7-0.9,5-2.6c1.3-1.8,2-4.3,2-7.5c0-3.3-0.7-5.8-2-7.3s-3-2.4-5-2.4
		c-2.2,0-4,0.8-5.4,2.5c-1.4,1.7-2.1,4.2-2.1,7.5C421,29.9,421.5,32.2,422.7,34.1z"/>
	<path class="st0" d="M459.9,13.7h4.2v3.7c1.2-1.5,2.5-2.6,3.9-3.3c1.4-0.7,2.9-1,4.6-1c3.7,0,6.2,1.3,7.5,3.9
		c0.7,1.4,1.1,3.4,1.1,6.1v16.8h-4.5V23.4c0-1.6-0.2-2.9-0.7-3.9c-0.8-1.6-2.2-2.4-4.2-2.4c-1,0-1.9,0.1-2.6,0.3
		c-1.2,0.4-2.3,1.1-3.2,2.1c-0.7,0.9-1.2,1.8-1.4,2.7c-0.2,0.9-0.3,2.2-0.3,3.9v13.7h-4.4V13.7z"/>
	<path class="st0" d="M492.1,13.7v17.4c0,1.3,0.2,2.4,0.6,3.3c0.8,1.6,2.2,2.3,4.3,2.3c3,0,5-1.4,6.1-4.1c0.6-1.5,0.9-3.5,0.9-6
		V13.7h4.4v26.1h-4.1l0-3.9c-0.6,1-1.3,1.8-2.1,2.5c-1.6,1.4-3.6,2.1-6,2.1c-3.7,0-6.1-1.2-7.5-3.7c-0.7-1.3-1.1-3.1-1.1-5.3V13.7
		H492.1z"/>
	<path class="st0" d="M515.5,13.7h4.3v3.7c1-1.3,2-2.2,2.8-2.8c1.4-1,3.1-1.5,4.9-1.5c2.1,0,3.8,0.5,5,1.5c0.7,0.6,1.4,1.4,2,2.6
		c1-1.4,2.1-2.4,3.4-3.1c1.3-0.7,2.8-1,4.4-1c3.5,0,5.9,1.3,7.2,3.8c0.7,1.4,1,3.2,1,5.5v17.4h-4.6V21.7c0-1.7-0.4-2.9-1.3-3.6
		c-0.9-0.7-1.9-1-3.2-1c-1.7,0-3.2,0.6-4.5,1.7c-1.2,1.2-1.9,3.1-1.9,5.8v15.2h-4.5V22.8c0-1.8-0.2-3.1-0.6-3.9
		c-0.7-1.2-1.9-1.8-3.7-1.8c-1.7,0-3.2,0.6-4.5,1.9c-1.4,1.3-2,3.6-2,7v13.9h-4.4L515.5,13.7L515.5,13.7z"/>
	<path class="st0" d="M556.8,3.9h4.3v13c1-1.3,2.1-2.2,3.5-2.9c1.3-0.7,2.8-1,4.4-1c3.3,0,5.9,1.1,8,3.4c2,2.2,3.1,5.5,3.1,9.9
		c0,4.1-1,7.6-3,10.3c-2,2.7-4.8,4.1-8.4,4.1c-2,0-3.7-0.5-5-1.4c-0.8-0.6-1.7-1.5-2.6-2.7v3.3h-4.1L556.8,3.9L556.8,3.9z M573.6,34
		c1.2-1.9,1.8-4.4,1.8-7.5c0-2.8-0.6-5-1.8-6.8c-1.2-1.8-2.9-2.7-5.2-2.7c-2,0-3.8,0.7-5.3,2.2c-1.5,1.5-2.3,3.9-2.3,7.3
		c0,2.5,0.3,4.5,0.9,6c1.2,2.9,3.3,4.3,6.5,4.3C570.6,36.8,572.4,35.8,573.6,34z"/>
	<path class="st0" d="M601.1,14.4c1.7,0.9,3,2,4,3.4c0.9,1.3,1.5,2.9,1.7,4.6c0.3,1.2,0.4,3.1,0.4,5.8h-19c0.1,2.7,0.7,4.8,1.9,6.4
		c1.2,1.6,3,2.4,5.4,2.4c2.3,0,4.1-0.8,5.5-2.3c0.8-0.9,1.3-1.9,1.6-3.1h4.3c-0.1,1-0.5,2-1.1,3.2c-0.6,1.2-1.4,2.1-2.2,2.9
		c-1.3,1.3-3,2.2-4.9,2.6c-1.1,0.3-2.2,0.4-3.6,0.4c-3.2,0-6-1.2-8.2-3.6c-2.2-2.4-3.4-5.7-3.4-9.9c0-4.2,1.1-7.6,3.4-10.2
		c2.3-2.6,5.2-3.9,8.9-3.9C597.6,13.1,599.4,13.5,601.1,14.4z M602.7,24.7c-0.2-1.9-0.6-3.4-1.2-4.6c-1.2-2.1-3.2-3.2-6-3.2
		c-2,0-3.7,0.7-5,2.2c-1.4,1.5-2.1,3.3-2.2,5.6H602.7z"/>
	<path class="st0" d="M612.9,13.7h4.2v4.5c0.3-0.9,1.2-1.9,2.5-3.2c1.3-1.3,2.9-1.9,4.6-1.9c0.1,0,0.2,0,0.4,0c0.2,0,0.5,0,1,0.1
		v4.6c-0.3,0-0.5-0.1-0.7-0.1c-0.2,0-0.5,0-0.7,0c-2.2,0-3.9,0.7-5.1,2.1c-1.2,1.4-1.8,3.1-1.8,4.9v15h-4.4L612.9,13.7L612.9,13.7z"
		/>
	<path class="st0" d="M633,6.7c2-2.1,4.8-3.2,8.3-3.2c3.2,0,5.8,0.9,7.8,2.7c2,1.8,2.9,4.2,2.9,7c0,1.7-0.4,3.1-1.1,4.2
		c-0.7,1.1-2.2,2.7-4.4,4.7c-1.6,1.5-2.6,2.8-3.1,3.8c-0.5,1-0.7,2.6-0.7,4.7h-4.3c0-2.3,0.3-4.2,0.8-5.6c0.6-1.4,1.8-3.1,3.7-4.9
		l2-1.9c0.6-0.6,1.1-1.1,1.5-1.7c0.7-1.1,1-2.2,1-3.3c0-1.6-0.5-3-1.5-4.1c-1-1.2-2.6-1.8-4.8-1.8c-2.8,0-4.7,1-5.8,3
		c-0.6,1.1-0.9,2.7-1,4.9H630C630,11.7,631,8.9,633,6.7z M638.3,34.8h4.9v5.1h-4.9V34.8z"/>
</g>
<g>
	<polygon class="st1" points="408,128.6 494.6,278.6 321.4,278.6 	"/>
</g>
<g>
	<polygon class="st1" points="132.9,128.6 219.5,278.6 46.3,278.6 	"/>
</g>
<g>
	<polygon class="st1" points="682.1,128.6 768.7,278.6 595.5,278.6 	"/>
</g>
<g>
	<path class="st0" d="M135.5,116v-8.2h-14.7v-4.1l15.4-21.3h3.6v21.8h4.9v3.7h-4.9v8.2H135.5z M135.4,104.1V88.9l-10.8,15.2
		C124.7,104.1,135.4,104.1,135.4,104.1z"/>
</g>
<g>
	<path class="st0" d="M110.8,214.6v-3.2c3-0.3,5.2-0.8,6.4-1.5s2.1-2.3,2.7-4.9h3.3v33.4h-4.5v-23.8L110.8,214.6L110.8,214.6z"/>
	<path class="st0" d="M136.2,230.8c1-2.1,3.1-4.1,6.1-5.8l4.5-2.6c2-1.2,3.4-2.2,4.2-3c1.3-1.3,1.9-2.8,1.9-4.5c0-2-0.6-3.5-1.8-4.7
		s-2.7-1.7-4.7-1.7c-2.9,0-4.9,1.1-6,3.3c-0.6,1.2-0.9,2.8-1,4.9h-4.3c0-2.9,0.6-5.3,1.6-7.1c1.8-3.2,5.1-4.9,9.7-4.9
		c3.8,0,6.7,1,8.4,3.1s2.7,4.4,2.7,6.9c0,2.7-0.9,5-2.8,6.9c-1.1,1.1-3.1,2.5-5.9,4l-3.2,1.8c-1.5,0.8-2.7,1.6-3.6,2.4
		c-1.6,1.4-2.5,2.9-3,4.5h18.3v4h-23C134.6,235.4,135.2,232.9,136.2,230.8z"/>
</g>
<g>
	<path class="st0" d="M235.8,288.5c0.1,2.3,1,3.9,2.7,4.8c0.9,0.5,1.8,0.7,2.9,0.7c2,0,3.7-0.8,5.2-2.5s2.4-5.1,3-10.2
		c-0.9,1.5-2.1,2.5-3.5,3.1s-2.9,0.9-4.5,0.9c-3.2,0-5.8-1-7.7-3c-1.9-2-2.8-4.6-2.8-7.8c0-3,0.9-5.7,2.8-8c1.9-2.3,4.6-3.5,8.2-3.5
		c4.9,0,8.3,2.2,10.1,6.6c1,2.4,1.5,5.4,1.5,9.1c0,4.1-0.6,7.7-1.9,10.9c-2,5.3-5.5,7.9-10.4,7.9c-3.3,0-5.8-0.9-7.5-2.6
		s-2.6-3.9-2.6-6.5L235.8,288.5L235.8,288.5z M246.8,280c1.4-1.1,2.1-3,2.1-5.8c0-2.5-0.6-4.3-1.9-5.5c-1.2-1.2-2.8-1.8-4.7-1.8
		c-2.1,0-3.7,0.7-4.9,2.1c-1.2,1.4-1.8,3.2-1.8,5.5c0,2.2,0.5,3.9,1.6,5.2c1.1,1.3,2.8,1.9,5.1,1.9
		C243.9,281.6,245.4,281.1,246.8,280z"/>
</g>
<g>
	<path class="st0" d="M39.2,263.7v3.7c-1.1,1-2.5,2.9-4.3,5.5s-3.4,5.4-4.7,8.4c-1.4,2.9-2.4,5.6-3.1,8c-0.5,1.5-1,4-1.8,7.5h-4.7
		c1.1-6.4,3.4-12.8,7-19.1c2.1-3.7,4.4-6.9,6.8-9.6H15.9v-4.2L39.2,263.7L39.2,263.7z"/>
</g>
<g>
	<path class="st0" d="M396.5,92.2V89c3-0.3,5.2-0.8,6.4-1.5s2.1-2.3,2.7-4.9h3.3V116h-4.5V92.2H396.5z"/>
</g>
<g>
	<path class="st0" d="M407.8,238.3v-8.2h-14.7V226l15.4-21.3h3.6v21.8h4.9v3.7h-4.9v8.2L407.8,238.3L407.8,238.3z M407.8,226.4
		v-15.2L397,226.4H407.8z"/>
</g>
<g>
	<path class="st0" d="M517.8,296.7v-8.2H503v-4.1l15.4-21.3h3.6v21.8h4.9v3.7H522v8.2H517.8z M517.7,284.8v-15.2l-10.8,15.2H517.7z"
		/>
</g>
<g>
	<path class="st0" d="M291.1,272.9v-3.2c3-0.3,5.2-0.8,6.4-1.5s2.1-2.3,2.7-4.9h3.3v33.4H299v-23.8H291.1z"/>
</g>
<g>
	<path class="st0" d="M669.8,108.5c1-2.1,3.1-4.1,6.1-5.8l4.5-2.6c2-1.2,3.4-2.2,4.2-3c1.3-1.3,1.9-2.8,1.9-4.5c0-2-0.6-3.5-1.8-4.7
		s-2.7-1.7-4.7-1.7c-2.9,0-4.9,1.1-6,3.3c-0.6,1.2-0.9,2.8-1,4.9h-4.3c0-2.9,0.6-5.3,1.6-7.1c1.8-3.2,5.1-4.9,9.7-4.9
		c3.8,0,6.7,1,8.4,3.1s2.7,4.4,2.7,6.9c0,2.7-0.9,5-2.8,6.9c-1.1,1.1-3.1,2.5-5.9,4l-3.2,1.8c-1.5,0.8-2.7,1.6-3.6,2.4
		c-1.6,1.4-2.5,2.9-3,4.5H691v4h-23C668.2,113.1,668.8,110.6,669.8,108.5z"/>
</g>
<g>
	<path class="st0" d="M673.1,206.5c1.9-2.1,4.6-3.1,7.9-3.1c3.1,0,5.6,0.9,7.5,2.6c1.9,1.8,2.8,4,2.8,6.7c0,1.7-0.3,3-1,4
		s-2.1,2.5-4.2,4.5c-1.5,1.5-2.5,2.7-3,3.7c-0.5,1-0.7,2.5-0.7,4.5h-4.2c0-2.2,0.3-4,0.8-5.4s1.7-2.9,3.5-4.7l1.9-1.9
		c0.6-0.5,1-1.1,1.4-1.7c0.6-1,1-2.1,1-3.2c0-1.5-0.5-2.9-1.4-4s-2.5-1.7-4.6-1.7c-2.7,0-4.5,1-5.5,2.9c-0.6,1.1-0.9,2.6-1,4.7h-4.2
		C670.2,211.3,671.1,208.6,673.1,206.5z M678.2,233.5h4.7v4.9h-4.7V233.5z"/>
</g>
<g>
	<path class="st0" d="M782.3,288.1c0.3,2.4,1.4,4.1,3.4,5c1,0.5,2.2,0.7,3.5,0.7c2.5,0,4.4-0.8,5.6-2.4s1.8-3.4,1.8-5.3
		c0-2.3-0.7-4.2-2.1-5.4s-3.1-1.9-5.1-1.9c-1.5,0-2.7,0.3-3.7,0.8s-1.9,1.3-2.7,2.3l-3.7-0.2l2.6-18.1h17.4v4.1h-14.3l-1.4,9.3
		c0.8-0.6,1.5-1,2.2-1.3c1.2-0.5,2.7-0.8,4.3-0.8c3.1,0,5.7,1,7.8,3s3.2,4.5,3.2,7.5c0,3.2-1,6-2.9,8.4s-5.1,3.6-9.4,3.6
		c-2.7,0-5.2-0.8-7.3-2.3s-3.3-3.9-3.5-7.1H782.3z"/>
</g>
<g>
	<path class="st0" d="M583,265.9c1.5,1.9,2.2,3.9,2.2,6H581c-0.2-1.3-0.6-2.4-1.2-3.1c-1-1.4-2.6-2.1-4.6-2.1
		c-2.4,0-4.2,1.1-5.6,3.3s-2.2,5.3-2.3,9.4c1-1.4,2.2-2.5,3.7-3.2c1.3-0.6,2.8-0.9,4.5-0.9c2.8,0,5.3,0.9,7.4,2.7s3.1,4.5,3.1,8
		c0,3-1,5.7-3,8.1s-4.8,3.5-8.5,3.5c-3.1,0-5.9-1.2-8.1-3.6s-3.4-6.4-3.4-12c0-4.2,0.5-7.7,1.5-10.6c2-5.6,5.5-8.3,10.7-8.3
		C578.9,263,581.5,263.9,583,265.9z M579.8,291.5c1.1-1.5,1.7-3.3,1.7-5.3c0-1.7-0.5-3.4-1.5-4.9s-2.8-2.3-5.4-2.3
		c-1.8,0-3.4,0.6-4.8,1.8s-2.1,3-2.1,5.4c0,2.1,0.6,3.9,1.9,5.4s3,2.2,5.2,2.2C577,293.8,578.7,293,579.8,291.5z"/>
</g>
</svg>
