<?xml version="1.0" encoding="utf-8"?>
<!-- Generator: Adobe Illustrator 24.1.0, SVG Export Plug-In . SVG Version: 6.00 Build 0)  -->
<svg version="1.1" id="Layer_1" xmlns="http://www.w3.org/2000/svg" xmlns:xlink="http://www.w3.org/1999/xlink" x="0px" y="0px"
	 viewBox="0 0 506 180" style="enable-background:new 0 0 506 180;" xml:space="preserve">
<style type="text/css">
	.st0{fill:#FFFFFF;}
	.st1{fill-rule:evenodd;clip-rule:evenodd;fill:#FFFFFF;}
</style>
<g>
	<path class="st0" d="M26,2.5h4.7v14.2h17.7V2.5h4.7v34.4h-4.7V20.8H30.7v16.1H26V2.5z"/>
	<path class="st0" d="M78.2,14.3c2.2,2.2,3.3,5.3,3.3,9.5c0,4-1,7.4-2.9,10c-2,2.6-5,4-9.1,4c-3.4,0-6.2-1.2-8.2-3.5
		c-2-2.3-3-5.5-3-9.4c0-4.2,1.1-7.6,3.2-10.1c2.1-2.5,5-3.7,8.6-3.7C73.2,11.1,75.9,12.2,78.2,14.3z M75.5,31c1-2.1,1.5-4.5,1.5-7.1
		c0-2.3-0.4-4.2-1.1-5.7c-1.2-2.3-3.2-3.5-6.1-3.5c-2.5,0-4.4,1-5.6,3c-1.2,2-1.7,4.3-1.7,7.1c0,2.7,0.6,4.9,1.7,6.7
		c1.2,1.8,3,2.7,5.5,2.7C72.6,34.2,74.5,33.1,75.5,31z"/>
	<path class="st0" d="M88.6,11.8l4.8,19.8l4.9-19.8h4.7l4.9,19.7l5.1-19.7h4.2l-7.3,25.1h-4.4l-5.1-19.4l-4.9,19.4h-4.4L84,11.8
		H88.6z"/>
	<path class="st0" d="M134.7,11.8h4.2v3.6c1-1.2,1.9-2.1,2.7-2.7c1.4-1,3-1.4,4.7-1.4c2,0,3.6,0.5,4.8,1.5c0.7,0.6,1.3,1.4,1.9,2.5
		c0.9-1.3,2-2.3,3.3-3s2.7-1,4.3-1c3.4,0,5.7,1.2,6.9,3.7c0.7,1.3,1,3.1,1,5.3v16.7h-4.4V19.5c0-1.7-0.4-2.8-1.3-3.4
		s-1.9-0.9-3.1-0.9c-1.7,0-3.1,0.6-4.3,1.7s-1.8,3-1.8,5.6v14.6h-4.3V20.5c0-1.7-0.2-2.9-0.6-3.7c-0.6-1.2-1.8-1.8-3.6-1.8
		c-1.6,0-3,0.6-4.3,1.9s-2,3.5-2,6.7v13.3h-4.2V11.8z"/>
	<path class="st0" d="M188.1,21.7c1-0.1,1.6-0.5,1.9-1.2c0.2-0.4,0.3-0.9,0.3-1.6c0-1.4-0.5-2.5-1.5-3.1s-2.5-1-4.4-1
		c-2.2,0-3.8,0.6-4.7,1.8c-0.5,0.7-0.9,1.6-1,2.9h-3.9c0.1-3.1,1.1-5.3,3-6.5c1.9-1.2,4.2-1.8,6.7-1.8c2.9,0,5.3,0.6,7.2,1.7
		c1.8,1.1,2.7,2.9,2.7,5.2v14.5c0,0.4,0.1,0.8,0.3,1.1c0.2,0.3,0.6,0.4,1.1,0.4c0.2,0,0.4,0,0.6,0s0.5-0.1,0.8-0.1V37
		c-0.7,0.2-1.2,0.3-1.5,0.4s-0.8,0.1-1.4,0.1c-1.5,0-2.5-0.5-3.2-1.5c-0.3-0.5-0.6-1.3-0.7-2.3c-0.9,1.1-2.1,2.1-3.7,2.9
		s-3.4,1.2-5.3,1.2c-2.3,0-4.2-0.7-5.7-2.1s-2.2-3.2-2.2-5.3c0-2.3,0.7-4.1,2.2-5.4s3.4-2.1,5.7-2.4L188.1,21.7z M179.2,33.1
		c0.9,0.7,1.9,1.1,3.2,1.1c1.5,0,2.9-0.3,4.3-1c2.3-1.1,3.5-3,3.5-5.6v-3.4c-0.5,0.3-1.2,0.6-2,0.8c-0.8,0.2-1.6,0.4-2.4,0.5
		l-2.6,0.3c-1.5,0.2-2.7,0.5-3.4,1c-1.3,0.7-2,1.9-2,3.5C177.9,31.5,178.3,32.4,179.2,33.1z"/>
	<path class="st0" d="M201.3,11.8h4v3.6c1.2-1.5,2.4-2.5,3.8-3.2s2.8-1,4.4-1c3.6,0,6,1.2,7.2,3.7c0.7,1.4,1,3.3,1,5.8v16.1h-4.3
		V21.1c0-1.5-0.2-2.8-0.7-3.7c-0.8-1.6-2.1-2.3-4.1-2.3c-1,0-1.8,0.1-2.5,0.3c-1.2,0.3-2.2,1-3,2.1c-0.7,0.8-1.2,1.7-1.4,2.6
		s-0.3,2.1-0.3,3.8v13.1h-4.2V11.8z"/>
	<path class="st0" d="M243.7,11.8h4.7c-0.6,1.6-1.9,5.3-4,11c-1.5,4.3-2.8,7.8-3.8,10.6c-2.4,6.4-4.2,10.3-5.2,11.7
		c-1,1.4-2.7,2.1-5.2,2.1c-0.6,0-1.1,0-1.4-0.1c-0.3,0-0.7-0.1-1.2-0.3V43c0.7,0.2,1.3,0.3,1.6,0.4s0.6,0.1,0.9,0.1
		c0.8,0,1.4-0.1,1.7-0.4c0.4-0.3,0.7-0.6,0.9-0.9c0.1-0.1,0.4-0.8,0.8-1.9c0.5-1.2,0.8-2,1.1-2.6l-9.3-25.8h4.8l6.7,20.4L243.7,11.8
		z"/>
	<path class="st0" d="M278.8,21.7c1-0.1,1.6-0.5,1.9-1.2c0.2-0.4,0.3-0.9,0.3-1.6c0-1.4-0.5-2.5-1.5-3.1s-2.5-1-4.4-1
		c-2.2,0-3.8,0.6-4.7,1.8c-0.5,0.7-0.9,1.6-1,2.9h-3.9c0.1-3.1,1.1-5.3,3-6.5c1.9-1.2,4.2-1.8,6.7-1.8c2.9,0,5.3,0.6,7.2,1.7
		c1.8,1.1,2.7,2.9,2.7,5.2v14.5c0,0.4,0.1,0.8,0.3,1.1c0.2,0.3,0.6,0.4,1.1,0.4c0.2,0,0.4,0,0.6,0s0.5-0.1,0.8-0.1V37
		c-0.7,0.2-1.2,0.3-1.5,0.4s-0.8,0.1-1.4,0.1c-1.5,0-2.5-0.5-3.2-1.5c-0.3-0.5-0.6-1.3-0.7-2.3c-0.9,1.1-2.1,2.1-3.7,2.9
		s-3.4,1.2-5.3,1.2c-2.3,0-4.2-0.7-5.7-2.1s-2.2-3.2-2.2-5.3c0-2.3,0.7-4.1,2.2-5.4s3.4-2.1,5.7-2.4L278.8,21.7z M269.9,33.1
		c0.9,0.7,1.9,1.1,3.2,1.1c1.5,0,2.9-0.3,4.3-1c2.3-1.1,3.5-3,3.5-5.6v-3.4c-0.5,0.3-1.2,0.6-2,0.8c-0.8,0.2-1.6,0.4-2.4,0.5
		l-2.5,0.3c-1.5,0.2-2.7,0.5-3.4,1c-1.3,0.7-2,1.9-2,3.5C268.6,31.5,269.1,32.4,269.9,33.1z"/>
	<path class="st0" d="M291.7,11.9h4.1v3.3c0.8-1.1,1.8-2,2.8-2.6c1.4-0.9,3.1-1.4,5-1.4c2.9,0,5.3,1.1,7.3,3.3s3,5.3,3,9.3
		c0,5.5-1.4,9.4-4.3,11.7c-1.8,1.5-3.9,2.2-6.4,2.2c-1.9,0-3.5-0.4-4.8-1.2c-0.8-0.5-1.6-1.3-2.5-2.4v12.8h-4.2L291.7,11.9
		L291.7,11.9z M307.6,31.6c1.3-1.6,2-4.1,2-7.4c0-2-0.3-3.7-0.9-5.2c-1.1-2.8-3.1-4.1-6-4.1c-2.9,0-4.9,1.5-6,4.4
		c-0.6,1.6-0.9,3.5-0.9,6c0,1.9,0.3,3.6,0.9,4.9c1.1,2.6,3.1,3.9,6,3.9C304.6,34.1,306.3,33.3,307.6,31.6z"/>
	<path class="st0" d="M318.4,11.9h4.1v3.3c0.8-1.1,1.8-2,2.8-2.6c1.4-0.9,3.1-1.4,5-1.4c2.9,0,5.3,1.1,7.3,3.3s3,5.3,3,9.3
		c0,5.5-1.4,9.4-4.3,11.7c-1.8,1.5-3.9,2.2-6.4,2.2c-1.9,0-3.5-0.4-4.8-1.2c-0.8-0.5-1.6-1.3-2.5-2.4v12.8h-4.2L318.4,11.9
		L318.4,11.9z M334.3,31.6c1.3-1.6,2-4.1,2-7.4c0-2-0.3-3.7-0.9-5.2c-1.1-2.8-3.1-4.1-6-4.1c-2.9,0-4.9,1.5-6,4.4
		c-0.6,1.6-0.9,3.5-0.9,6c0,1.9,0.3,3.6,0.9,4.9c1.1,2.6,3.1,3.9,6,3.9C331.3,34.1,333,33.3,334.3,31.6z"/>
	<path class="st0" d="M345.6,2.5h4.2v34.4h-4.2V2.5z"/>
	<path class="st0" d="M371.6,12.5c1.7,0.8,2.9,1.9,3.8,3.2c0.8,1.3,1.4,2.7,1.7,4.4c0.2,1.2,0.4,3,0.4,5.5h-18.3
		c0.1,2.6,0.7,4.6,1.8,6.1s2.8,2.3,5.2,2.3c2.2,0,3.9-0.7,5.2-2.2c0.7-0.8,1.2-1.8,1.5-2.9h4.1c-0.1,0.9-0.5,1.9-1.1,3.1
		s-1.3,2.1-2.1,2.8c-1.3,1.2-2.8,2.1-4.7,2.5c-1,0.2-2.1,0.4-3.4,0.4c-3.1,0-5.7-1.1-7.9-3.4s-3.2-5.5-3.2-9.6c0-4,1.1-7.3,3.3-9.8
		c2.2-2.5,5-3.8,8.5-3.8C368.3,11.3,370,11.7,371.6,12.5z M373.1,22.4c-0.2-1.8-0.6-3.3-1.2-4.4c-1.1-2-3.1-3-5.7-3
		c-1.9,0-3.5,0.7-4.8,2.1s-2,3.2-2.1,5.3H373.1z"/>
	<path class="st0" d="M396.3,2.5h4.2v34.4h-4.2V2.5z"/>
	<path class="st0" d="M422.3,12.5c1.7,0.8,2.9,1.9,3.8,3.2c0.8,1.3,1.4,2.7,1.7,4.4c0.2,1.2,0.4,3,0.4,5.5h-18.3
		c0.1,2.6,0.7,4.6,1.8,6.1s2.8,2.3,5.2,2.3c2.2,0,3.9-0.7,5.2-2.2c0.7-0.8,1.2-1.8,1.5-2.9h4.1c-0.1,0.9-0.5,1.9-1.1,3.1
		s-1.3,2.1-2.1,2.8c-1.3,1.2-2.8,2.1-4.7,2.5c-1,0.2-2.1,0.4-3.4,0.4c-3.1,0-5.7-1.1-7.9-3.4s-3.2-5.5-3.2-9.6c0-4,1.1-7.3,3.3-9.8
		c2.2-2.5,5-3.8,8.5-3.8C418.9,11.3,420.7,11.7,422.3,12.5z M423.8,22.4c-0.2-1.8-0.6-3.3-1.2-4.4c-1.1-2-3.1-3-5.7-3
		c-1.9,0-3.5,0.7-4.8,2.1s-2,3.2-2.1,5.3H423.8z"/>
	<path class="st0" d="M435.5,4.2c1-1.4,2.9-2.2,5.7-2.2c0.3,0,0.5,0,0.8,0s0.6,0,1,0.1v3.8c-0.4,0-0.8-0.1-1-0.1c-0.2,0-0.4,0-0.6,0
		c-1.3,0-2.1,0.3-2.3,1c-0.3,0.7-0.4,2.4-0.4,5.1h4.2v3.3h-4.2v21.7h-4.2V15.3h-3.5v-3.3h3.5V8C434.6,6.2,434.9,5,435.5,4.2z"/>
	<path class="st0" d="M447.7,4.8h4.3v7h4v3.4h-4v16.4c0,0.9,0.3,1.5,0.9,1.8c0.3,0.2,0.9,0.3,1.6,0.3c0.2,0,0.4,0,0.7,0
		c0.2,0,0.5,0,0.8-0.1v3.4c-0.5,0.1-1,0.2-1.5,0.3s-1.1,0.1-1.7,0.1c-2,0-3.3-0.5-4-1.5s-1.1-2.3-1.1-3.9V15.3h-3.4v-3.4h3.4V4.8z"
		/>
	<path class="st0" d="M463.6,5.1c1.9-2.1,4.6-3.1,7.9-3.1c3.1,0,5.6,0.9,7.5,2.6s2.8,4,2.8,6.7c0,1.7-0.3,3-1,4s-2.1,2.5-4.2,4.5
		c-1.5,1.5-2.5,2.7-3,3.7s-0.7,2.5-0.7,4.5h-4.2c0-2.2,0.3-4,0.8-5.4s1.7-2.9,3.5-4.7l1.9-1.9c0.6-0.5,1-1.1,1.4-1.7
		c0.6-1,1-2.1,1-3.2c0-1.5-0.5-2.9-1.4-4c-0.9-1.1-2.5-1.7-4.6-1.7c-2.7,0-4.5,1-5.5,2.9c-0.6,1.1-0.9,2.6-1,4.7h-4.2
		C460.8,9.9,461.7,7.2,463.6,5.1z M468.7,32h4.7v4.9h-4.7V32z"/>
</g>
<g>
	<path class="st1" d="M114.1,78.7c-5,3.4-8.4,8.7-11.2,13.3c-0.3,0.3-4.3,11.5-4.3,13.9v3.4c0.3,0.3,0,0.3,0.9,0.3
		c4.3,0,6.8-5.3,15.5-5.3c8.7,0,19.5,4.6,22.3,15.2c0.9,3.1,1.2,7.1,1.2,10.8c0,9.3,0.3,3.7-2.2,16.7c-0.3,1.2-0.9,2.2-1.2,3.7
		c-2.2,8.7-12.1,26.3-23.9,25.7c-0.3,0-0.6,0.6-1.6,0.6h-7.4c-2.5-2.2-4-1.9-5.9-1.9c-0.6,0-1.9-0.3-2.8,0c-0.9,0-1.9,1.9-2.8,1.9
		h-7.4c-0.3-0.3-0.6-0.3-0.9-0.6c-12.1,1.2-23.2-17.4-25.1-27.3c-0.3-1.9-2.5-9.9-2.5-12.4v-13c1.5-14.3,13.6-19.5,22.9-19.5
		c0.9,0,5,0.3,7.1,0.9c2.2,0.6,4.6,2.8,7.1,4c0.3-0.3,0.3-0.6,0.3-1.2c0-0.9-0.3-1.6-0.9-1.9c-12.4-4-18.3-13.6-18.3-22.3
		c0-0.6,0.3-4,0.9-5.9h3.4c8.7,0,14.9,11.2,15.2,16.7c0.3,0.3,0.3,0.6,0.6,0.9c0.9-2.5,1.2-5.3,1.9-8.1c1.6-5.3,3.1-11.2,5.9-16.4
		C105.4,72.8,109.8,75.9,114.1,78.7z"/>
	<path class="st1" d="M218.3,78.7c-5,3.4-8.4,8.7-11.2,13.3c-0.3,0.3-4.3,11.5-4.3,13.9v3.4c0.3,0.3,0,0.3,0.9,0.3
		c4.3,0,6.8-5.3,15.5-5.3c8.7,0,19.5,4.6,22.3,15.2c0.9,3.1,1.2,7.1,1.2,10.8c0,9.3,0.3,3.7-2.2,16.7c-0.3,1.2-0.9,2.2-1.2,3.7
		c-2.2,8.7-12.1,26.3-23.9,25.7c-0.3,0-0.6,0.6-1.5,0.6h-7.4c-2.5-2.2-4-1.9-5.9-1.9c-0.6,0-1.9-0.3-2.8,0c-0.9,0-1.9,1.9-2.8,1.9
		h-7.4c-0.3-0.3-0.6-0.3-0.9-0.6c-12.1,1.2-23.2-17.4-25.1-27.3c-0.3-1.9-2.5-9.9-2.5-12.4v-13c1.6-14.3,13.6-19.5,22.9-19.5
		c0.9,0,5,0.3,7.1,0.9c2.2,0.6,4.6,2.8,7.1,4c0.3-0.3,0.3-0.6,0.3-1.2c0-0.9-0.3-1.6-0.9-1.9c-12.4-4-18.3-13.6-18.3-22.3
		c0-0.6,0.3-4,0.9-5.9h3.4c8.7,0,14.9,11.2,15.2,16.7c0.3,0.3,0.3,0.6,0.6,0.9c0.9-2.5,1.2-5.3,1.9-8.1c1.6-5.3,3.1-11.2,5.9-16.4
		C209.6,72.8,214,75.9,218.3,78.7z"/>
	<path class="st1" d="M312.7,159c0-7,3.3-13.2,8.4-17.2c-3.8-3.9-6.1-9.3-6.1-15.2c0-10.1,6.8-18.5,16-21.1
		c-2.6-0.8-5.2-1.1-7.6-1.1c-8.7,0-11.2,5.3-15.5,5.3c-0.9,0-0.6,0-0.9-0.3V106c0-2.5,4-13.6,4.3-13.9c2.8-4.6,6.2-9.9,11.2-13.3
		c-4.3-2.8-8.7-5.9-13-7.4c-2.8,5.3-4.3,11.2-5.9,16.4c-0.6,2.8-0.9,5.6-1.9,8.1c-0.3-0.3-0.3-0.6-0.6-0.9
		c-0.3-5.6-6.5-16.7-15.2-16.7h-3.4c-0.6,1.9-0.9,5.3-0.9,5.9c0,8.7,5.9,18.3,18.3,22.3c0.6,0.3,0.9,0.9,0.9,1.9
		c0,0.6,0,0.9-0.3,1.2c-2.5-1.2-5-3.4-7.1-4c-2.2-0.6-6.2-0.9-7.1-0.9c-1.7,0-3.6,0.2-5.4,0.6c9.8,3.2,16.9,12.5,16.9,23.4
		c0,6.5-2.5,12.4-6.6,16.8c1.7,3.5,2.7,7.4,2.7,11.6c0,7.6-3.2,14.4-8.3,19.2c1.8,0.6,3.6,0.9,5.4,0.7c0.3,0.3,0.6,0.3,0.9,0.6h7.4
		c0.9,0,1.9-1.9,2.8-1.9c0.9-0.3,2.2,0,2.8,0c1.9,0,3.4-0.3,5.9,1.9h7.4c0.9,0,1.2-0.6,1.5-0.6c0.6,0,1.3,0,1.9-0.1
		C316.1,172.6,312.7,166.2,312.7,159z"/>
	<path class="st1" d="M417.2,159c0-7,3.3-13.2,8.4-17.2c-3.8-3.9-6.1-9.3-6.1-15.2c0-10.1,6.8-18.5,16-21.1
		c-2.6-0.8-5.2-1.1-7.6-1.1c-8.7,0-11.2,5.3-15.5,5.3c-0.9,0-0.6,0-0.9-0.3V106c0-2.5,4-13.6,4.3-13.9c2.8-4.6,6.2-9.9,11.2-13.3
		c-4.3-2.8-8.7-5.9-13-7.4c-2.8,5.3-4.3,11.2-5.9,16.4c-0.6,2.8-0.9,5.6-1.9,8.1c-0.3-0.3-0.3-0.6-0.6-0.9
		c-0.3-5.6-6.5-16.7-15.2-16.7h-3.4c-0.6,1.9-0.9,5.3-0.9,5.9c0,8.7,5.9,18.3,18.3,22.3c0.6,0.3,0.9,0.9,0.9,1.9
		c0,0.6,0,0.9-0.3,1.2c-2.5-1.2-5-3.4-7.1-4c-2.2-0.6-6.2-0.9-7.1-0.9c-1.7,0-3.6,0.2-5.4,0.6c9.8,3.2,16.9,12.5,16.9,23.4
		c0,6.5-2.5,12.4-6.6,16.8c1.7,3.5,2.7,7.4,2.7,11.6c0,7.6-3.2,14.4-8.3,19.2c1.8,0.6,3.6,0.9,5.4,0.7c0.3,0.3,0.6,0.3,0.9,0.6h7.4
		c0.9,0,1.9-1.9,2.8-1.9c0.9-0.3,2.2,0,2.8,0c1.9,0,3.4-0.3,5.9,1.9h7.4c0.9,0,1.2-0.6,1.5-0.6c0.6,0,1.3,0,1.9-0.1
		C420.6,172.6,417.2,166.2,417.2,159z"/>
</g>
</svg>
