<?xml version="1.0" encoding="utf-8"?>
<!-- Generator: Adobe Illustrator 24.1.0, SVG Export Plug-In . SVG Version: 6.00 Build 0)  -->
<svg version="1.1" id="Layer_1" xmlns="http://www.w3.org/2000/svg" xmlns:xlink="http://www.w3.org/1999/xlink" x="0px" y="0px"
	 viewBox="0 0 506 333" style="enable-background:new 0 0 506 333;" xml:space="preserve">
<style type="text/css">
	.st0{fill:#FFFFFF;}
	.st1{fill:none;stroke:#FFFFFF;stroke-width:5;stroke-linecap:round;stroke-linejoin:round;stroke-miterlimit:10;}
</style>
<g>
	<path class="st0" d="M36.1,4.6c2.5,2.4,3.9,5.1,4.1,8.2h-4.7c-0.5-2.3-1.6-4.1-3.2-5.5c-1.6-1.4-3.8-2-6.6-2
		c-3.5,0-6.3,1.2-8.4,3.7s-3.2,6.3-3.2,11.4c0,4.2,1,7.6,2.9,10.2c1.9,2.6,4.8,3.9,8.6,3.9c3.5,0,6.2-1.4,8-4.1
		c1-1.4,1.7-3.4,2.2-5.7h4.7c-0.4,3.8-1.8,6.9-4.2,9.5c-2.8,3.1-6.6,4.6-11.4,4.6c-4.1,0-7.6-1.3-10.4-3.8
		c-3.7-3.3-5.5-8.5-5.5-15.5c0-5.3,1.4-9.6,4.1-13c3-3.7,7.1-5.5,12.4-5.5C30.1,1,33.6,2.2,36.1,4.6z"/>
	<path class="st0" d="M60.3,22c1-0.1,1.7-0.6,2-1.3c0.2-0.4,0.3-1,0.3-1.7c0-1.5-0.5-2.6-1.6-3.3s-2.6-1-4.6-1
		c-2.3,0-3.9,0.6-4.9,1.9c-0.5,0.7-0.9,1.7-1,3.1h-4.1c0.1-3.2,1.1-5.5,3.1-6.7s4.3-1.9,7-1.9c3.1,0,5.6,0.6,7.5,1.8
		c1.9,1.2,2.9,3,2.9,5.5v15.1c0,0.5,0.1,0.8,0.3,1.1c0.2,0.3,0.6,0.4,1.2,0.4c0.2,0,0.4,0,0.7,0c0.2,0,0.5-0.1,0.8-0.1V38
		c-0.7,0.2-1.2,0.3-1.6,0.4c-0.4,0-0.8,0.1-1.5,0.1c-1.5,0-2.6-0.5-3.3-1.6c-0.4-0.6-0.6-1.4-0.8-2.4c-0.9,1.2-2.2,2.2-3.9,3.1
		c-1.7,0.9-3.5,1.3-5.5,1.3c-2.4,0-4.4-0.7-5.9-2.2S45,33.2,45,31c0-2.4,0.8-4.3,2.3-5.6c1.5-1.3,3.5-2.2,6-2.5L60.3,22z M51,33.9
		c0.9,0.7,2,1.1,3.3,1.1c1.5,0,3-0.4,4.5-1.1c2.4-1.2,3.7-3.1,3.7-5.8v-3.5c-0.5,0.3-1.2,0.6-2.1,0.9c-0.8,0.2-1.7,0.4-2.5,0.5
		l-2.7,0.3c-1.6,0.2-2.8,0.5-3.6,1c-1.4,0.8-2,2-2,3.7C49.6,32.2,50.1,33.2,51,33.9z"/>
	<path class="st0" d="M74,11.7h4.2v3.7c1.2-1.5,2.5-2.6,3.9-3.3c1.4-0.7,2.9-1,4.6-1c3.7,0,6.2,1.3,7.5,3.9c0.7,1.4,1.1,3.4,1.1,6.1
		v16.8h-4.5V21.4c0-1.6-0.2-2.9-0.7-3.9c-0.8-1.6-2.2-2.4-4.2-2.4c-1,0-1.9,0.1-2.6,0.3c-1.2,0.4-2.3,1.1-3.2,2.1
		c-0.7,0.9-1.2,1.8-1.4,2.7c-0.2,0.9-0.3,2.2-0.3,3.9v13.7H74L74,11.7L74,11.7z"/>
	<path class="st0" d="M132.1,11.7h4.9c-0.6,1.7-2,5.5-4.1,11.5c-1.6,4.5-2.9,8.2-4,11c-2.5,6.7-4.3,10.7-5.4,12.2
		c-1,1.5-2.8,2.2-5.4,2.2c-0.6,0-1.1,0-1.4-0.1s-0.7-0.1-1.2-0.3v-4c0.8,0.2,1.3,0.3,1.7,0.4c0.3,0,0.6,0.1,0.9,0.1
		c0.8,0,1.4-0.1,1.8-0.4c0.4-0.3,0.7-0.6,1-1c0.1-0.1,0.4-0.8,0.9-2s0.9-2.1,1.1-2.7L113,11.7h5l7,21.3L132.1,11.7z"/>
	<path class="st0" d="M159.7,14.3c2.3,2.2,3.5,5.5,3.5,9.9c0,4.2-1,7.7-3.1,10.4c-2,2.7-5.2,4.1-9.5,4.1c-3.6,0-6.4-1.2-8.5-3.6
		c-2.1-2.4-3.2-5.7-3.2-9.8c0-4.4,1.1-7.9,3.3-10.5s5.2-3.9,8.9-3.9C154.6,10.9,157.4,12.1,159.7,14.3z M157,31.7
		c1.1-2.2,1.6-4.7,1.6-7.4c0-2.4-0.4-4.4-1.2-6c-1.2-2.4-3.3-3.6-6.3-3.6c-2.7,0-4.6,1-5.8,3.1s-1.8,4.5-1.8,7.4
		c0,2.8,0.6,5.1,1.8,6.9s3.1,2.8,5.7,2.8C153.9,35,155.9,33.9,157,31.7z"/>
	<path class="st0" d="M172.9,11.7v17.4c0,1.3,0.2,2.4,0.6,3.3c0.8,1.6,2.2,2.3,4.3,2.3c3,0,5-1.4,6.1-4.1c0.6-1.5,0.9-3.5,0.9-6
		V11.7h4.4v26.1H185l0-3.9c-0.6,1-1.3,1.8-2.1,2.5c-1.6,1.4-3.6,2.1-6,2.1c-3.7,0-6.1-1.2-7.5-3.7c-0.7-1.3-1.1-3.1-1.1-5.3V11.7
		H172.9z"/>
	<path class="st0" d="M212.3,3.7c1-1.5,3-2.2,5.9-2.2c0.3,0,0.6,0,0.9,0c0.3,0,0.6,0,1,0.1v4c-0.5,0-0.8-0.1-1-0.1s-0.4,0-0.6,0
		c-1.4,0-2.2,0.3-2.4,1s-0.4,2.5-0.4,5.3h4.4v3.5h-4.4v22.6h-4.3V15.3h-3.6v-3.5h3.6V7.7C211.4,5.9,211.7,4.6,212.3,3.7z"/>
	<path class="st0" d="M224.1,2h4.5v5h-4.5V2z M224.1,11.8h4.5v26h-4.5V11.8z"/>
	<path class="st0" d="M235.3,11.7h4.2v3.7c1.2-1.5,2.5-2.6,3.9-3.3c1.4-0.7,2.9-1,4.6-1c3.7,0,6.2,1.3,7.5,3.9
		c0.7,1.4,1.1,3.4,1.1,6.1v16.8h-4.5V21.4c0-1.6-0.2-2.9-0.7-3.9c-0.8-1.6-2.2-2.4-4.2-2.4c-1,0-1.9,0.1-2.6,0.3
		c-1.2,0.4-2.3,1.1-3.2,2.1c-0.7,0.9-1.2,1.8-1.4,2.7c-0.2,0.9-0.3,2.2-0.3,3.9v13.7h-4.4V11.7z"/>
	<path class="st0" d="M277.4,12.5c0.8,0.5,1.7,1.3,2.7,2.6V1.9h4.2v36h-4v-3.6c-1,1.6-2.2,2.8-3.6,3.5c-1.4,0.7-3,1.1-4.8,1.1
		c-2.9,0-5.4-1.2-7.5-3.7c-2.1-2.4-3.2-5.7-3.2-9.8c0-3.8,1-7.1,2.9-9.9c1.9-2.8,4.7-4.2,8.3-4.2C274.4,11.2,276.1,11.7,277.4,12.5z
		 M267.6,32.1c1.2,1.9,3.1,2.8,5.7,2.8c2,0,3.7-0.9,5-2.6c1.3-1.8,2-4.3,2-7.5c0-3.3-0.7-5.8-2-7.3s-3-2.4-5-2.4
		c-2.2,0-4,0.8-5.4,2.5c-1.4,1.7-2.1,4.2-2.1,7.5C265.8,27.9,266.4,30.2,267.6,32.1z"/>
	<path class="st0" d="M304.8,11.7h4.2v3.7c1.2-1.5,2.5-2.6,3.9-3.3c1.4-0.7,2.9-1,4.6-1c3.7,0,6.2,1.3,7.5,3.9
		c0.7,1.4,1.1,3.4,1.1,6.1v16.8h-4.5V21.4c0-1.6-0.2-2.9-0.7-3.9c-0.8-1.6-2.2-2.4-4.2-2.4c-1,0-1.9,0.1-2.6,0.3
		c-1.2,0.4-2.3,1.1-3.2,2.1c-0.7,0.9-1.2,1.8-1.4,2.7c-0.2,0.9-0.3,2.2-0.3,3.9v13.7h-4.4V11.7z"/>
	<path class="st0" d="M337,11.7v17.4c0,1.3,0.2,2.4,0.6,3.3c0.8,1.6,2.2,2.3,4.3,2.3c3,0,5-1.4,6.1-4.1c0.6-1.5,0.9-3.5,0.9-6V11.7
		h4.4v26.1H349l0-3.9c-0.6,1-1.3,1.8-2.1,2.5c-1.6,1.4-3.6,2.1-6,2.1c-3.7,0-6.1-1.2-7.5-3.7c-0.7-1.3-1.1-3.1-1.1-5.3V11.7H337z"/>
	<path class="st0" d="M360.4,11.7h4.3v3.7c1-1.3,2-2.2,2.8-2.8c1.4-1,3.1-1.5,4.9-1.5c2.1,0,3.8,0.5,5,1.5c0.7,0.6,1.4,1.4,2,2.6
		c1-1.4,2.1-2.4,3.4-3.1c1.3-0.7,2.8-1,4.4-1c3.5,0,5.9,1.3,7.2,3.8c0.7,1.4,1,3.2,1,5.5v17.4H391V19.7c0-1.7-0.4-2.9-1.3-3.6
		c-0.9-0.7-1.9-1-3.2-1c-1.7,0-3.2,0.6-4.5,1.7c-1.2,1.2-1.9,3.1-1.9,5.8v15.2h-4.5V20.8c0-1.8-0.2-3.1-0.6-3.9
		c-0.7-1.2-1.9-1.8-3.7-1.8c-1.7,0-3.2,0.6-4.5,1.9c-1.4,1.3-2,3.6-2,7v13.9h-4.4L360.4,11.7L360.4,11.7z"/>
	<path class="st0" d="M401.7,1.9h4.3v13c1-1.3,2.1-2.2,3.5-2.9c1.3-0.7,2.8-1,4.4-1c3.3,0,5.9,1.1,8,3.4c2,2.2,3.1,5.5,3.1,9.9
		c0,4.1-1,7.6-3,10.3c-2,2.7-4.8,4.1-8.4,4.1c-2,0-3.7-0.5-5-1.4c-0.8-0.6-1.7-1.5-2.6-2.7v3.3h-4.1L401.7,1.9L401.7,1.9z M418.5,32
		c1.2-1.9,1.8-4.4,1.8-7.5c0-2.8-0.6-5-1.8-6.8c-1.2-1.8-2.9-2.7-5.2-2.7c-2,0-3.8,0.7-5.3,2.2c-1.5,1.5-2.3,3.9-2.3,7.3
		c0,2.5,0.3,4.5,0.9,6c1.2,2.9,3.3,4.3,6.5,4.3C415.5,34.8,417.3,33.8,418.5,32z"/>
	<path class="st0" d="M446,12.4c1.7,0.9,3,2,4,3.4c0.9,1.3,1.5,2.9,1.7,4.6c0.3,1.2,0.4,3.1,0.4,5.8h-19c0.1,2.7,0.7,4.8,1.9,6.4
		c1.2,1.6,3,2.4,5.4,2.4c2.3,0,4.1-0.8,5.5-2.3c0.8-0.9,1.3-1.9,1.6-3.1h4.3c-0.1,1-0.5,2-1.1,3.2c-0.6,1.2-1.4,2.1-2.1,2.9
		c-1.3,1.3-3,2.2-4.9,2.6c-1.1,0.3-2.2,0.4-3.6,0.4c-3.2,0-6-1.2-8.2-3.6c-2.2-2.4-3.4-5.7-3.4-9.9c0-4.2,1.1-7.6,3.4-10.2
		c2.3-2.6,5.2-3.9,8.9-3.9C442.5,11.1,444.3,11.5,446,12.4z M447.6,22.7c-0.2-1.9-0.6-3.4-1.2-4.6c-1.2-2.1-3.2-3.2-6-3.2
		c-2,0-3.7,0.7-5,2.2c-1.4,1.5-2.1,3.3-2.2,5.6H447.6z"/>
	<path class="st0" d="M457.8,11.7h4.2v4.5c0.3-0.9,1.2-1.9,2.5-3.2c1.3-1.3,2.9-1.9,4.6-1.9c0.1,0,0.2,0,0.4,0c0.2,0,0.5,0,1,0.1
		v4.6c-0.3,0-0.5-0.1-0.7-0.1c-0.2,0-0.5,0-0.7,0c-2.2,0-3.9,0.7-5.1,2.1c-1.2,1.4-1.8,3.1-1.8,4.9v15h-4.4L457.8,11.7L457.8,11.7z"
		/>
	<path class="st0" d="M477.9,4.7c2-2.1,4.8-3.2,8.3-3.2c3.2,0,5.8,0.9,7.8,2.7c2,1.8,2.9,4.2,2.9,7c0,1.7-0.4,3.1-1.1,4.2
		c-0.7,1.1-2.2,2.7-4.4,4.7c-1.6,1.5-2.6,2.8-3.1,3.8c-0.5,1-0.7,2.6-0.7,4.7h-4.3c0-2.3,0.3-4.2,0.8-5.6c0.6-1.4,1.8-3.1,3.7-4.9
		l2-1.9c0.6-0.6,1.1-1.1,1.5-1.7c0.7-1.1,1-2.2,1-3.3c0-1.6-0.5-3-1.5-4.1c-1-1.2-2.6-1.8-4.8-1.8c-2.8,0-4.7,1-5.8,3
		c-0.6,1.1-0.9,2.7-1,4.9h-4.3C474.9,9.7,475.9,6.9,477.9,4.7z M483.2,32.8h4.9v5.1h-4.9V32.8z"/>
</g>
<g>
	<g>
		<line class="st1" x1="123.3" y1="197.9" x2="382.7" y2="197.9"/>
		<line class="st1" x1="254" y1="69.1" x2="254" y2="328.5"/>
		<line class="st1" x1="162.1" y1="106.6" x2="345.2" y2="289.7"/>
		<line class="st1" x1="345.2" y1="108" x2="162.1" y2="291"/>
	</g>
	<circle class="st1" cx="253" cy="197.2" r="131.3"/>
</g>
<g>
	<path class="st0" d="M218.7,123v-8.2H204v-4.1l15.4-21.3h3.6v21.8h4.9v3.7h-4.9v8.2H218.7z M218.6,111.1V95.9l-10.8,15.2
		C207.9,111.1,218.6,111.1,218.6,111.1z"/>
</g>
<g>
	<path class="st0" d="M270,101.2V98c3-0.3,5.2-0.8,6.4-1.5s2.1-2.3,2.7-4.9h3.3V125h-4.5v-23.8H270z"/>
	<path class="st0" d="M314.5,96.8c1.5,2.8,2.2,6.6,2.2,11.4c0,4.6-0.7,8.3-2,11.3c-2,4.3-5.2,6.4-9.7,6.4c-4,0-7-1.8-9-5.2
		c-1.6-2.9-2.5-6.8-2.5-11.8c0-3.8,0.5-7.1,1.5-9.8c1.8-5.1,5.2-7.6,10-7.6C309.4,91.4,312.6,93.2,314.5,96.8z M310.3,119.2
		c1.3-1.9,1.9-5.5,1.9-10.8c0-3.8-0.5-6.9-1.4-9.4c-0.9-2.5-2.8-3.7-5.5-3.7c-2.5,0-4.3,1.2-5.5,3.5s-1.7,5.8-1.7,10.3
		c0,3.4,0.4,6.2,1.1,8.2c1.1,3.2,3.1,4.8,5.8,4.8C307.2,122.1,309,121.1,310.3,119.2z"/>
</g>
<g>
	<path class="st0" d="M209.3,273.2c1.9-2.1,4.6-3.1,7.9-3.1c3.1,0,5.6,0.9,7.5,2.6c1.9,1.8,2.8,4,2.8,6.7c0,1.7-0.3,3-1,4
		s-2.1,2.5-4.2,4.5c-1.5,1.5-2.5,2.7-3,3.7s-0.7,2.5-0.7,4.5h-4.2c0-2.2,0.3-4,0.8-5.4s1.7-2.9,3.5-4.7l1.9-1.9
		c0.6-0.5,1-1.1,1.4-1.7c0.6-1,1-2.1,1-3.2c0-1.5-0.5-2.9-1.4-4s-2.5-1.7-4.6-1.7c-2.7,0-4.5,1-5.5,2.9c-0.6,1.1-0.9,2.6-1,4.7h-4.2
		C206.4,278,207.4,275.3,209.3,273.2z M214.4,300.1h4.7v4.9h-4.7V300.1z"/>
</g>
<g>
	<path class="st0" d="M284.7,298.4c0.3,2.4,1.4,4.1,3.4,5c1,0.5,2.2,0.7,3.5,0.7c2.5,0,4.4-0.8,5.6-2.4s1.8-3.4,1.8-5.3
		c0-2.3-0.7-4.2-2.1-5.4s-3.1-1.9-5.1-1.9c-1.5,0-2.7,0.3-3.7,0.8s-1.9,1.3-2.7,2.3l-3.7-0.2l2.6-18.1h17.4v4.1h-14.3l-1.4,9.3
		c0.8-0.6,1.5-1,2.2-1.3c1.2-0.5,2.7-0.8,4.3-0.8c3.1,0,5.7,1,7.8,3s3.2,4.5,3.2,7.5c0,3.2-1,6-2.9,8.4s-5.1,3.6-9.4,3.6
		c-2.7,0-5.2-0.8-7.3-2.3s-3.3-3.9-3.5-7.1H284.7z"/>
</g>
<g>
	<path class="st0" d="M174.9,147v3.7c-1.1,1-2.5,2.9-4.3,5.5s-3.4,5.4-4.7,8.4c-1.4,2.9-2.4,5.6-3.1,8c-0.5,1.5-1,4-1.8,7.5h-4.7
		c1.1-6.4,3.4-12.8,7-19.1c2.1-3.7,4.4-6.9,6.8-9.6h-18.6V147H174.9z"/>
</g>
<g>
	<path class="st0" d="M329.9,156.2V153c3-0.3,5.2-0.8,6.4-1.5s2.1-2.3,2.7-4.9h3.3V180h-4.5v-23.8H329.9z"/>
</g>
<g>
	<path class="st0" d="M153.6,249.6c-1.8-2.2-2.7-4.8-2.7-8h4.4c0.2,2.2,0.6,3.8,1.2,4.7c1.1,1.8,3.1,2.6,5.9,2.6
		c2.2,0,4-0.6,5.3-1.8s2-2.7,2-4.6c0-2.3-0.7-3.9-2.1-4.9s-3.4-1.4-5.9-1.4c-0.3,0-0.6,0-0.9,0s-0.6,0-0.9,0v-3.7
		c0.4,0,0.8,0.1,1.1,0.1s0.6,0,1,0c1.6,0,2.9-0.2,3.9-0.8c1.8-0.9,2.7-2.4,2.7-4.7c0-1.7-0.6-3-1.8-3.9s-2.6-1.4-4.1-1.4
		c-2.8,0-4.8,0.9-5.8,2.8c-0.6,1-0.9,2.5-1,4.4h-4.2c0-2.5,0.5-4.6,1.5-6.4c1.7-3.1,4.7-4.7,9.1-4.7c3.4,0,6.1,0.8,7.9,2.3
		s2.8,3.7,2.8,6.6c0,2.1-0.6,3.7-1.7,5c-0.7,0.8-1.6,1.4-2.7,1.9c1.8,0.5,3.1,1.4,4.1,2.8s1.5,3.1,1.5,5.1c0,3.2-1.1,5.8-3.2,7.8
		s-5.1,3-9,3C158.3,252.9,155.4,251.8,153.6,249.6z"/>
</g>
<g>
	<path class="st0" d="M347.2,221.2c1.5,1.9,2.2,3.9,2.2,6h-4.2c-0.2-1.3-0.6-2.4-1.2-3.1c-1-1.4-2.6-2.1-4.6-2.1
		c-2.4,0-4.2,1.1-5.6,3.3s-2.2,5.3-2.3,9.4c1-1.4,2.2-2.5,3.7-3.2c1.3-0.6,2.8-0.9,4.5-0.9c2.8,0,5.3,0.9,7.4,2.7s3.1,4.5,3.1,8
		c0,3-1,5.7-3,8.1s-4.8,3.5-8.5,3.5c-3.1,0-5.9-1.2-8.1-3.6s-3.4-6.4-3.4-12c0-4.2,0.5-7.7,1.5-10.6c2-5.6,5.5-8.3,10.7-8.3
		C343.1,218.3,345.7,219.3,347.2,221.2z M344,246.9c1.1-1.5,1.7-3.3,1.7-5.3c0-1.7-0.5-3.4-1.5-4.9s-2.8-2.3-5.4-2.3
		c-1.8,0-3.4,0.6-4.8,1.8s-2.1,3-2.1,5.4c0,2.1,0.6,3.9,1.9,5.4s3,2.2,5.2,2.2C341.3,249.1,342.9,248.4,344,246.9z"/>
</g>
</svg>
