<?xml version="1.0" encoding="utf-8"?>
<!-- Generator: Adobe Illustrator 24.1.0, SVG Export Plug-In . SVG Version: 6.00 Build 0)  -->
<svg version="1.1" id="Layer_1" xmlns="http://www.w3.org/2000/svg" xmlns:xlink="http://www.w3.org/1999/xlink" x="0px" y="0px"
	 viewBox="0 0 745 301.1" style="enable-background:new 0 0 745 301.1;" xml:space="preserve">
<style type="text/css">
	.st0{fill:#FFFFFF;}
</style>
<g>
	<path class="st0" d="M155.6,4.6c2.5,2.4,3.9,5.1,4.1,8.2H155c-0.5-2.3-1.6-4.1-3.2-5.5c-1.6-1.4-3.8-2-6.6-2
		c-3.5,0-6.3,1.2-8.4,3.7s-3.2,6.3-3.2,11.4c0,4.2,1,7.6,2.9,10.2c1.9,2.6,4.8,3.9,8.6,3.9c3.5,0,6.2-1.4,8-4.1
		c1-1.4,1.7-3.4,2.2-5.7h4.7c-0.4,3.8-1.8,6.9-4.2,9.5c-2.8,3.1-6.6,4.6-11.4,4.6c-4.1,0-7.6-1.3-10.4-3.8
		c-3.7-3.3-5.5-8.5-5.5-15.5c0-5.3,1.4-9.6,4.1-13c3-3.7,7.1-5.5,12.4-5.5C149.6,1,153.1,2.2,155.6,4.6z"/>
	<path class="st0" d="M179.8,22c1-0.1,1.7-0.6,2-1.3c0.2-0.4,0.3-1,0.3-1.7c0-1.5-0.5-2.6-1.6-3.3s-2.6-1-4.6-1
		c-2.3,0-3.9,0.6-4.9,1.9c-0.5,0.7-0.9,1.7-1,3.1h-4.1c0.1-3.2,1.1-5.5,3.1-6.7s4.3-1.9,7-1.9c3.1,0,5.6,0.6,7.5,1.8
		c1.9,1.2,2.9,3,2.9,5.5v15.1c0,0.5,0.1,0.8,0.3,1.1c0.2,0.3,0.6,0.4,1.2,0.4c0.2,0,0.4,0,0.7,0c0.2,0,0.5-0.1,0.8-0.1V38
		c-0.7,0.2-1.2,0.3-1.6,0.4c-0.4,0-0.8,0.1-1.5,0.1c-1.5,0-2.6-0.5-3.3-1.6c-0.4-0.6-0.6-1.4-0.8-2.4c-0.9,1.2-2.2,2.2-3.9,3.1
		c-1.7,0.9-3.5,1.3-5.5,1.3c-2.4,0-4.4-0.7-5.9-2.2c-1.5-1.5-2.3-3.3-2.3-5.5c0-2.4,0.8-4.3,2.3-5.6c1.5-1.3,3.5-2.2,6-2.5L179.8,22
		z M170.5,33.9c0.9,0.7,2,1.1,3.3,1.1c1.5,0,3-0.4,4.5-1.1c2.4-1.2,3.7-3.1,3.7-5.8v-3.5c-0.5,0.3-1.2,0.6-2.1,0.9
		c-0.8,0.2-1.7,0.4-2.5,0.5l-2.7,0.3c-1.6,0.2-2.8,0.5-3.6,1c-1.4,0.8-2,2-2,3.7C169.1,32.2,169.6,33.2,170.5,33.9z"/>
	<path class="st0" d="M193.5,11.7h4.2v3.7c1.2-1.5,2.5-2.6,3.9-3.3c1.4-0.7,2.9-1,4.6-1c3.7,0,6.2,1.3,7.5,3.9
		c0.7,1.4,1.1,3.4,1.1,6.1v16.8h-4.5V21.4c0-1.6-0.2-2.9-0.7-3.9c-0.8-1.6-2.2-2.4-4.2-2.4c-1,0-1.9,0.1-2.6,0.3
		c-1.2,0.4-2.3,1.1-3.2,2.1c-0.7,0.9-1.2,1.8-1.4,2.7c-0.2,0.9-0.3,2.2-0.3,3.9v13.7h-4.4L193.5,11.7L193.5,11.7z"/>
	<path class="st0" d="M251.6,11.7h4.9c-0.6,1.7-2,5.5-4.1,11.5c-1.6,4.5-2.9,8.2-4,11c-2.5,6.7-4.3,10.7-5.4,12.2
		c-1,1.5-2.8,2.2-5.4,2.2c-0.6,0-1.1,0-1.4-0.1s-0.7-0.1-1.2-0.3v-4c0.8,0.2,1.3,0.3,1.7,0.4s0.6,0.1,0.9,0.1c0.8,0,1.4-0.1,1.8-0.4
		c0.4-0.3,0.7-0.6,1-1c0.1-0.1,0.4-0.8,0.9-2s0.9-2.1,1.1-2.7l-9.7-26.9h5l7,21.3L251.6,11.7z"/>
	<path class="st0" d="M279.2,14.3c2.3,2.2,3.5,5.5,3.5,9.9c0,4.2-1,7.7-3.1,10.4c-2,2.7-5.2,4.1-9.5,4.1c-3.6,0-6.4-1.2-8.5-3.6
		c-2.1-2.4-3.2-5.7-3.2-9.8c0-4.4,1.1-7.9,3.3-10.5s5.2-3.9,8.9-3.9C274.1,10.9,276.9,12.1,279.2,14.3z M276.5,31.7
		c1.1-2.2,1.6-4.7,1.6-7.4c0-2.4-0.4-4.4-1.2-6c-1.2-2.4-3.3-3.6-6.3-3.6c-2.7,0-4.6,1-5.8,3.1s-1.8,4.5-1.8,7.4
		c0,2.8,0.6,5.1,1.8,6.9s3.1,2.8,5.7,2.8C273.4,35,275.4,33.9,276.5,31.7z"/>
	<path class="st0" d="M292.4,11.7v17.4c0,1.3,0.2,2.4,0.6,3.3c0.8,1.6,2.2,2.3,4.3,2.3c3,0,5-1.4,6.1-4.1c0.6-1.5,0.9-3.5,0.9-6
		V11.7h4.4v26.1h-4.1l0-3.9c-0.6,1-1.3,1.8-2.1,2.5c-1.6,1.4-3.6,2.1-6,2.1c-3.7,0-6.1-1.2-7.5-3.7c-0.7-1.3-1.1-3.1-1.1-5.3V11.7
		H292.4z"/>
	<path class="st0" d="M331.8,3.7c1-1.5,3-2.2,5.9-2.2c0.3,0,0.6,0,0.9,0c0.3,0,0.6,0,1,0.1v4c-0.5,0-0.8-0.1-1-0.1s-0.4,0-0.6,0
		c-1.4,0-2.2,0.3-2.4,1s-0.4,2.5-0.4,5.3h4.4v3.5h-4.4v22.6h-4.3V15.3h-3.6v-3.5h3.6V7.7C330.9,5.9,331.2,4.6,331.8,3.7z"/>
	<path class="st0" d="M343.6,2h4.5v5h-4.5V2z M343.6,11.8h4.5v26h-4.5V11.8z"/>
	<path class="st0" d="M354.8,11.7h4.2v3.7c1.2-1.5,2.5-2.6,3.9-3.3c1.4-0.7,2.9-1,4.6-1c3.7,0,6.2,1.3,7.5,3.9
		c0.7,1.4,1.1,3.4,1.1,6.1v16.8h-4.5V21.4c0-1.6-0.2-2.9-0.7-3.9c-0.8-1.6-2.2-2.4-4.2-2.4c-1,0-1.9,0.1-2.6,0.3
		c-1.2,0.4-2.3,1.1-3.2,2.1c-0.7,0.9-1.2,1.8-1.4,2.7c-0.2,0.9-0.3,2.2-0.3,3.9v13.7h-4.4L354.8,11.7L354.8,11.7z"/>
	<path class="st0" d="M396.9,12.5c0.8,0.5,1.7,1.3,2.7,2.6V1.9h4.2v36h-4v-3.6c-1,1.6-2.2,2.8-3.6,3.5c-1.4,0.7-3,1.1-4.8,1.1
		c-2.9,0-5.4-1.2-7.5-3.7c-2.1-2.4-3.2-5.7-3.2-9.8c0-3.8,1-7.1,2.9-9.9c1.9-2.8,4.7-4.2,8.3-4.2C393.9,11.2,395.6,11.7,396.9,12.5z
		 M387.1,32.1c1.2,1.9,3.1,2.8,5.7,2.8c2,0,3.7-0.9,5-2.6c1.3-1.8,2-4.3,2-7.5c0-3.3-0.7-5.8-2-7.3s-3-2.4-5-2.4
		c-2.2,0-4,0.8-5.4,2.5c-1.4,1.7-2.1,4.2-2.1,7.5C385.3,27.9,385.9,30.2,387.1,32.1z"/>
	<path class="st0" d="M424.3,11.7h4.2v3.7c1.2-1.5,2.5-2.6,3.9-3.3c1.4-0.7,2.9-1,4.6-1c3.7,0,6.2,1.3,7.5,3.9
		c0.7,1.4,1.1,3.4,1.1,6.1v16.8h-4.5V21.4c0-1.6-0.2-2.9-0.7-3.9c-0.8-1.6-2.2-2.4-4.2-2.4c-1,0-1.9,0.1-2.6,0.3
		c-1.2,0.4-2.3,1.1-3.2,2.1c-0.7,0.9-1.2,1.8-1.4,2.7c-0.2,0.9-0.3,2.2-0.3,3.9v13.7h-4.4V11.7z"/>
	<path class="st0" d="M456.5,11.7v17.4c0,1.3,0.2,2.4,0.6,3.3c0.8,1.6,2.2,2.3,4.3,2.3c3,0,5-1.4,6.1-4.1c0.6-1.5,0.9-3.5,0.9-6
		V11.7h4.4v26.1h-4.1l0-3.9c-0.6,1-1.3,1.8-2.1,2.5c-1.6,1.4-3.6,2.1-6,2.1c-3.7,0-6.1-1.2-7.5-3.7c-0.7-1.3-1.1-3.1-1.1-5.3V11.7
		H456.5z"/>
	<path class="st0" d="M479.9,11.7h4.3v3.7c1-1.3,2-2.2,2.8-2.8c1.4-1,3.1-1.5,4.9-1.5c2.1,0,3.8,0.5,5,1.5c0.7,0.6,1.4,1.4,2,2.6
		c1-1.4,2.1-2.4,3.4-3.1c1.3-0.7,2.8-1,4.4-1c3.5,0,5.9,1.3,7.2,3.8c0.7,1.4,1,3.2,1,5.5v17.4h-4.6V19.7c0-1.7-0.4-2.9-1.3-3.6
		c-0.9-0.7-1.9-1-3.2-1c-1.7,0-3.2,0.6-4.5,1.7c-1.2,1.2-1.9,3.1-1.9,5.8v15.2h-4.5V20.8c0-1.8-0.2-3.1-0.6-3.9
		c-0.7-1.2-1.9-1.8-3.7-1.8c-1.7,0-3.2,0.6-4.5,1.9c-1.4,1.3-2,3.6-2,7v13.9h-4.4L479.9,11.7L479.9,11.7z"/>
	<path class="st0" d="M521.2,1.9h4.3v13c1-1.3,2.1-2.2,3.5-2.9c1.3-0.7,2.8-1,4.4-1c3.3,0,5.9,1.1,8,3.4c2,2.2,3.1,5.5,3.1,9.9
		c0,4.1-1,7.6-3,10.3c-2,2.7-4.8,4.1-8.4,4.1c-2,0-3.7-0.5-5-1.4c-0.8-0.6-1.7-1.5-2.6-2.7v3.3h-4.1L521.2,1.9L521.2,1.9z M538,32
		c1.2-1.9,1.8-4.4,1.8-7.5c0-2.8-0.6-5-1.8-6.8c-1.2-1.8-2.9-2.7-5.2-2.7c-2,0-3.8,0.7-5.3,2.2c-1.5,1.5-2.3,3.9-2.3,7.3
		c0,2.5,0.3,4.5,0.9,6c1.2,2.9,3.3,4.3,6.5,4.3C535,34.8,536.8,33.8,538,32z"/>
	<path class="st0" d="M565.5,12.4c1.7,0.9,3,2,4,3.4c0.9,1.3,1.5,2.9,1.7,4.6c0.3,1.2,0.4,3.1,0.4,5.8h-19c0.1,2.7,0.7,4.8,1.9,6.4
		c1.2,1.6,3,2.4,5.4,2.4c2.3,0,4.1-0.8,5.5-2.3c0.8-0.9,1.3-1.9,1.6-3.1h4.3c-0.1,1-0.5,2-1.1,3.2c-0.6,1.2-1.4,2.1-2.2,2.9
		c-1.3,1.3-3,2.2-4.9,2.6c-1.1,0.3-2.2,0.4-3.6,0.4c-3.2,0-6-1.2-8.2-3.6c-2.2-2.4-3.4-5.7-3.4-9.9c0-4.2,1.1-7.6,3.4-10.2
		c2.3-2.6,5.2-3.9,8.9-3.9C562,11.1,563.8,11.5,565.5,12.4z M567.1,22.7c-0.2-1.9-0.6-3.4-1.2-4.6c-1.2-2.1-3.2-3.2-6-3.2
		c-2,0-3.7,0.7-5,2.2c-1.4,1.5-2.1,3.3-2.2,5.6H567.1z"/>
	<path class="st0" d="M577.3,11.7h4.2v4.5c0.3-0.9,1.2-1.9,2.5-3.2c1.3-1.3,2.9-1.9,4.6-1.9c0.1,0,0.2,0,0.4,0c0.2,0,0.5,0,1,0.1
		v4.6c-0.3,0-0.5-0.1-0.7-0.1c-0.2,0-0.5,0-0.7,0c-2.2,0-3.9,0.7-5.1,2.1c-1.2,1.4-1.8,3.1-1.8,4.9v15h-4.4L577.3,11.7L577.3,11.7z"
		/>
	<path class="st0" d="M597.4,4.7c2-2.1,4.8-3.2,8.3-3.2c3.2,0,5.8,0.9,7.8,2.7c2,1.8,2.9,4.2,2.9,7c0,1.7-0.4,3.1-1.1,4.2
		c-0.7,1.1-2.2,2.7-4.4,4.7c-1.6,1.5-2.6,2.8-3.1,3.8c-0.5,1-0.7,2.6-0.7,4.7h-4.3c0-2.3,0.3-4.2,0.8-5.6c0.6-1.4,1.8-3.1,3.7-4.9
		l2-1.9c0.6-0.6,1.1-1.1,1.5-1.7c0.7-1.1,1-2.2,1-3.3c0-1.6-0.5-3-1.5-4.1c-1-1.2-2.6-1.8-4.8-1.8c-2.8,0-4.7,1-5.8,3
		c-0.6,1.1-0.9,2.7-1,4.9h-4.3C594.4,9.7,595.4,6.9,597.4,4.7z M602.7,32.8h4.9v5.1h-4.9V32.8z"/>
</g>
<g>
	<g>
		<g>
			<path class="st0" d="M369.8,87.7v100h-101v-100L369.8,87.7 M374.8,82.7h-5h-101h-5v5v100v5h5h101h5v-5v-100V82.7L374.8,82.7z"/>
		</g>
		<g>
			<path class="st0" d="M476.2,87.7v100h-101v-100L476.2,87.7 M481.2,82.7h-5h-101h-5v5v100v5h5h101h5v-5v-100V82.7L481.2,82.7z"/>
		</g>
	</g>
	<g>
		<path class="st0" d="M423,192.7v100H322v-100H423 M428,187.7h-5H322h-5v5v100v5h5h101h5v-5v-100V187.7L428,187.7z"/>
	</g>
	<g>
		<path class="st0" d="M311.2,135.4c-1.2-1.2-1.9-2.9-1.9-4.9c0-2.5,0.9-4.6,2.7-6.4s4.4-2.7,7.7-2.7c3.2,0,5.7,0.8,7.6,2.5
			s2.7,3.7,2.7,5.9c0,2.1-0.5,3.8-1.6,5.1c-0.6,0.7-1.5,1.5-2.8,2.2c1.4,0.6,2.5,1.4,3.3,2.2c1.5,1.6,2.2,3.6,2.2,6.1
			c0,3-1,5.5-3,7.5s-4.8,3.1-8.4,3.1c-3.3,0-6-0.9-8.3-2.7s-3.4-4.3-3.4-7.7c0-2,0.5-3.7,1.5-5.1c1-1.4,2.4-2.6,4.3-3.3
			C312.8,136.6,311.9,136,311.2,135.4z M324.8,150.5c1.3-1.1,1.9-2.6,1.9-4.7c0-2.2-0.7-3.8-2-4.9s-3-1.7-5.1-1.7
			c-2,0-3.7,0.6-4.9,1.7s-1.9,2.7-1.9,4.8c0,1.8,0.6,3.3,1.7,4.5s3,1.9,5.4,1.9C321.9,152.1,323.5,151.6,324.8,150.5z M324,133.9
			c1-1,1.6-2.3,1.6-3.7c0-1.3-0.5-2.4-1.5-3.5s-2.5-1.6-4.6-1.6c-2,0-3.5,0.5-4.4,1.6s-1.4,2.3-1.4,3.7c0,1.6,0.6,2.8,1.8,3.7
			c1.2,0.9,2.5,1.3,4.1,1.3C321.6,135.5,323,135,324,133.9z"/>
	</g>
	<g>
		<path class="st0" d="M434.2,124.2c1.5,1.9,2.2,3.9,2.2,6h-4.2c-0.2-1.3-0.6-2.4-1.2-3.1c-1-1.4-2.6-2.1-4.6-2.1
			c-2.4,0-4.2,1.1-5.6,3.3c-1.4,2.2-2.2,5.3-2.3,9.4c1-1.4,2.2-2.5,3.7-3.2c1.3-0.6,2.8-0.9,4.5-0.9c2.8,0,5.3,0.9,7.4,2.7
			s3.1,4.5,3.1,8c0,3-1,5.7-3,8.1s-4.8,3.5-8.5,3.5c-3.1,0-5.9-1.2-8.1-3.6s-3.4-6.4-3.4-12c0-4.2,0.5-7.7,1.5-10.6
			c2-5.6,5.5-8.3,10.7-8.3C430.1,121.3,432.7,122.3,434.2,124.2z M431,149.9c1.1-1.5,1.7-3.3,1.7-5.3c0-1.7-0.5-3.4-1.5-4.9
			s-2.8-2.3-5.4-2.3c-1.8,0-3.4,0.6-4.8,1.8s-2.1,3-2.1,5.4c0,2.1,0.6,3.9,1.9,5.4s3,2.2,5.2,2.2C428.3,152.1,429.9,151.4,431,149.9
			z"/>
	</g>
	<g>
		<path class="st0" d="M386.9,226v3.7c-1.1,1-2.5,2.9-4.3,5.5s-3.4,5.4-4.7,8.4c-1.4,2.9-2.4,5.6-3.1,8c-0.5,1.5-1,4-1.8,7.5h-4.7
			c1.1-6.4,3.4-12.8,7-19.1c2.1-3.7,4.4-6.9,6.8-9.6h-18.6V226H386.9z"/>
	</g>
</g>
<g>
	<g>
		<g>
			<g>
				<path class="st0" d="M115.7,87.7v100h-101v-100L115.7,87.7 M120.7,82.7h-5h-101h-5v5v100v5h5h101h5v-5v-100V82.7L120.7,82.7z"/>
			</g>
			<g>
				<path class="st0" d="M222,87.7v100H121v-100L222,87.7 M227,82.7h-5H121h-5v5v100v5h5h101h5v-5v-100V82.7L227,82.7z"/>
			</g>
		</g>
		<g>
			<path class="st0" d="M168.8,192.7v100h-101v-100H168.8 M173.8,187.7h-5h-101h-5v5v100v5h5h101h5v-5v-100V187.7L173.8,187.7z"/>
		</g>
		<g>
			<path class="st0" d="M77.6,122v3.7c-1.1,1-2.5,2.9-4.3,5.5c-1.8,2.6-3.4,5.4-4.7,8.4c-1.4,2.9-2.4,5.6-3.1,8
				c-0.5,1.5-1,4-1.8,7.5H59c1.1-6.4,3.4-12.8,7-19.1c2.1-3.7,4.4-6.9,6.8-9.6H54.2V122H77.6z"/>
		</g>
		<g>
			<path class="st0" d="M162,152.6c-1.8-2.2-2.7-4.8-2.7-8h4.4c0.2,2.2,0.6,3.8,1.2,4.7c1.1,1.8,3.1,2.6,5.9,2.6
				c2.2,0,4-0.6,5.3-1.8s2-2.7,2-4.6c0-2.3-0.7-3.9-2.1-4.9s-3.4-1.4-5.9-1.4c-0.3,0-0.6,0-0.9,0c-0.3,0-0.6,0-0.9,0v-3.7
				c0.4,0,0.8,0.1,1.1,0.1c0.3,0,0.6,0,1,0c1.6,0,2.9-0.2,3.9-0.8c1.8-0.9,2.7-2.4,2.7-4.7c0-1.7-0.6-3-1.8-3.9s-2.6-1.4-4.1-1.4
				c-2.8,0-4.8,0.9-5.8,2.8c-0.6,1-0.9,2.5-1,4.4h-4.2c0-2.5,0.5-4.6,1.5-6.4c1.7-3.1,4.7-4.7,9.1-4.7c3.4,0,6.1,0.8,7.9,2.3
				s2.8,3.7,2.8,6.6c0,2.1-0.6,3.7-1.7,5c-0.7,0.8-1.6,1.4-2.7,1.9c1.8,0.5,3.1,1.4,4.1,2.8c1,1.4,1.5,3.1,1.5,5.1
				c0,3.2-1.1,5.8-3.2,7.8s-5.1,3-9,3C166.7,155.9,163.8,154.8,162,152.6z"/>
		</g>
		<g>
			<path class="st0" d="M113.6,250.4c0.3,2.4,1.4,4.1,3.4,5c1,0.5,2.2,0.7,3.5,0.7c2.5,0,4.4-0.8,5.6-2.4s1.8-3.4,1.8-5.3
				c0-2.3-0.7-4.2-2.1-5.4s-3.1-1.9-5.1-1.9c-1.5,0-2.7,0.3-3.7,0.8s-1.9,1.3-2.7,2.3l-3.7-0.2L113,226h17.4v4.1h-14.3l-1.4,9.3
				c0.8-0.6,1.5-1,2.2-1.3c1.2-0.5,2.7-0.8,4.3-0.8c3.1,0,5.7,1,7.8,3c2.1,2,3.2,4.5,3.2,7.5c0,3.2-1,6-2.9,8.4
				c-2,2.4-5.1,3.6-9.4,3.6c-2.7,0-5.2-0.8-7.3-2.3s-3.3-3.9-3.5-7.1H113.6z"/>
		</g>
	</g>
	<g>
		<g>
			<g>
				<path class="st0" d="M624,87.7v100H523v-100L624,87.7 M629,82.7h-5H523h-5v5v100v5h5h101h5v-5v-100V82.7L629,82.7z"/>
			</g>
			<g>
				<path class="st0" d="M730.3,87.7v100h-101v-100L730.3,87.7 M735.3,82.7h-5h-101h-5v5v100v5h5h101h5v-5v-100V82.7L735.3,82.7z"/>
			</g>
		</g>
		<g>
			<path class="st0" d="M677.2,192.7v100h-101v-100H677.2 M682.2,187.7h-5h-101h-5v5v100v5h5h101h5v-5v-100V187.7L682.2,187.7z"/>
		</g>
		<g>
			<path class="st0" d="M576.8,155v-8.2H562v-4.1l15.4-21.3h3.6v21.8h4.9v3.7H581v8.2H576.8z M576.7,143.1v-15.2l-10.8,15.2H576.7z"
				/>
		</g>
		<g>
			<path class="st0" d="M669.8,147.5c1-2.1,3.1-4.1,6.1-5.8l4.5-2.6c2-1.2,3.4-2.2,4.2-3c1.3-1.3,1.9-2.8,1.9-4.5
				c0-2-0.6-3.5-1.8-4.7c-1.2-1.2-2.7-1.7-4.7-1.7c-2.9,0-4.9,1.1-6,3.3c-0.6,1.2-0.9,2.8-1,4.9h-4.3c0-2.9,0.6-5.3,1.6-7.1
				c1.8-3.2,5.1-4.9,9.7-4.9c3.8,0,6.7,1,8.4,3.1s2.7,4.4,2.7,6.9c0,2.7-0.9,5-2.8,6.9c-1.1,1.1-3.1,2.5-5.9,4l-3.2,1.8
				c-1.5,0.8-2.7,1.6-3.6,2.4c-1.6,1.4-2.5,2.9-3,4.5H691v4h-23C668.1,152.1,668.7,149.6,669.8,147.5z"/>
		</g>
		<g>
			<path class="st0" d="M622.5,227.2c1.9-2.1,4.6-3.1,7.9-3.1c3.1,0,5.6,0.9,7.5,2.6c1.9,1.8,2.8,4,2.8,6.7c0,1.7-0.3,3-1,4
				s-2.1,2.5-4.2,4.5c-1.5,1.5-2.5,2.7-3,3.7s-0.7,2.5-0.7,4.5h-4.2c0-2.2,0.3-4,0.8-5.4s1.7-2.9,3.5-4.7l1.9-1.9
				c0.6-0.5,1-1.1,1.4-1.7c0.6-1,1-2.1,1-3.2c0-1.5-0.5-2.9-1.4-4c-0.9-1.1-2.5-1.7-4.6-1.7c-2.7,0-4.5,1-5.5,2.9
				c-0.6,1.1-0.9,2.6-1,4.7h-4.2C619.6,232,620.6,229.3,622.5,227.2z M627.6,254.1h4.7v4.9h-4.7V254.1z"/>
		</g>
	</g>
</g>
</svg>
