<?xml version="1.0" encoding="utf-8"?>
<!-- Generator: Adobe Illustrator 16.0.0, SVG Export Plug-In . SVG Version: 6.00 Build 0)  -->
<!DOCTYPE svg PUBLIC "-//W3C//DTD SVG 1.1//EN" "http://www.w3.org/Graphics/SVG/1.1/DTD/svg11.dtd">
<svg version="1.1" id="Layer_1" xmlns="http://www.w3.org/2000/svg" xmlns:xlink="http://www.w3.org/1999/xlink" x="0px" y="0px"
	 width="520px" height="37px" viewBox="0 0 520 37" enable-background="new 0 0 520 37" xml:space="preserve">
<g>
	<path fill="#FFFFFF" d="M3.22,11.718V8.686C6.076,8.407,8.068,7.942,9.196,7.29c1.128-0.651,1.97-2.193,2.527-4.625h3.12v31.333
		h-4.219v-22.28H3.22z"/>
	<path fill="#FFFFFF" d="M29.499,25.979c0.264,2.256,1.311,3.815,3.142,4.68c0.938,0.439,2.021,0.659,3.252,0.659
		c2.344,0,4.08-0.747,5.208-2.241s1.692-3.149,1.692-4.966c0-2.197-0.67-3.896-2.011-5.098c-1.34-1.201-2.948-1.802-4.823-1.802
		c-1.362,0-2.531,0.264-3.504,0.791c-0.975,0.527-1.806,1.26-2.494,2.197l-3.428-0.197l2.396-16.941h16.347v3.823H31.894
		l-1.34,8.745c0.732-0.557,1.428-0.974,2.087-1.252c1.172-0.483,2.527-0.725,4.065-0.725c2.886,0,5.332,0.93,7.339,2.791
		s3.01,4.218,3.01,7.076c0,2.973-0.919,5.596-2.758,7.865c-1.838,2.271-4.771,3.406-8.8,3.406c-2.563,0-4.831-0.722-6.801-2.164
		c-1.97-1.443-3.072-3.658-3.307-6.646H29.499z"/>
	<path fill="#FFFFFF" d="M63.491,24.374v-3.691h9.58v-9.646h3.757v9.646h9.58v3.691h-9.58v9.624h-3.757v-9.624H63.491z"/>
	<path fill="#FFFFFF" d="M103.844,31.79c-1.678-2.044-2.516-4.53-2.516-7.46h4.131c0.176,2.036,0.557,3.516,1.143,4.438
		c1.025,1.655,2.878,2.483,5.559,2.483c2.08,0,3.75-0.557,5.01-1.67s1.89-2.549,1.89-4.307c0-2.168-0.663-3.685-1.988-4.549
		c-1.326-0.864-3.168-1.297-5.526-1.297c-0.264,0-0.531,0.004-0.802,0.012c-0.271,0.008-0.546,0.018-0.824,0.033V15.98
		c0.41,0.044,0.754,0.073,1.033,0.088s0.579,0.022,0.901,0.022c1.479,0,2.695-0.234,3.647-0.703c1.67-0.82,2.505-2.285,2.505-4.395
		c0-1.567-0.557-2.776-1.67-3.625s-2.41-1.274-3.889-1.274c-2.637,0-4.46,0.879-5.471,2.637c-0.557,0.967-0.872,2.344-0.945,4.131
		h-3.911c0-2.344,0.469-4.336,1.406-5.977c1.611-2.93,4.446-4.395,8.503-4.395c3.208,0,5.691,0.714,7.449,2.143
		c1.758,1.428,2.637,3.497,2.637,6.207c0,1.934-0.52,3.501-1.56,4.702c-0.645,0.747-1.479,1.333-2.505,1.758
		c1.655,0.454,2.948,1.329,3.878,2.626c0.93,1.296,1.396,2.882,1.396,4.757c0,3.003-0.989,5.449-2.966,7.339
		s-4.783,2.835-8.416,2.835C108.22,34.855,105.521,33.833,103.844,31.79z"/>
	<path fill="#FFFFFF" d="M148.811,3.061v3.45c-1.011,0.981-2.355,2.688-4.032,5.12c-1.678,2.432-3.161,5.054-4.45,7.866
		c-1.274,2.739-2.241,5.236-2.9,7.492c-0.425,1.451-0.974,3.787-1.648,7.01h-4.373c0.996-6.006,3.193-11.982,6.592-17.93
		c2.007-3.486,4.116-6.497,6.328-9.031h-17.402V3.061H148.811z"/>
	<path fill="#FFFFFF" d="M187.746,15.937v3.691h-22.917v-3.691H187.746z M187.746,25.363v3.757h-22.917v-3.757H187.746z"/>
</g>
<g>
	<path fill="#FFFFFF" d="M333.42,31.79c-1.678-2.044-2.517-4.53-2.517-7.46h4.131c0.176,2.036,0.557,3.516,1.143,4.438
		c1.025,1.655,2.878,2.483,5.56,2.483c2.08,0,3.75-0.557,5.01-1.67s1.889-2.549,1.889-4.307c0-2.168-0.662-3.685-1.988-4.549
		s-3.168-1.297-5.525-1.297c-0.264,0-0.531,0.004-0.803,0.012s-0.545,0.018-0.824,0.033V15.98c0.41,0.044,0.755,0.073,1.033,0.088
		s0.578,0.022,0.9,0.022c1.48,0,2.695-0.234,3.648-0.703c1.67-0.82,2.504-2.285,2.504-4.395c0-1.567-0.557-2.776-1.67-3.625
		s-2.409-1.274-3.889-1.274c-2.637,0-4.461,0.879-5.471,2.637c-0.557,0.967-0.872,2.344-0.945,4.131h-3.911
		c0-2.344,0.469-4.336,1.406-5.977c1.611-2.93,4.446-4.395,8.503-4.395c3.209,0,5.691,0.714,7.449,2.143
		c1.758,1.428,2.637,3.497,2.637,6.207c0,1.934-0.52,3.501-1.561,4.702c-0.645,0.747-1.479,1.333-2.504,1.758
		c1.654,0.454,2.947,1.329,3.877,2.626c0.931,1.296,1.396,2.882,1.396,4.757c0,3.003-0.989,5.449-2.967,7.339
		s-4.783,2.835-8.416,2.835C337.795,34.855,335.096,33.833,333.42,31.79z"/>
	<path fill="#FFFFFF" d="M358.446,31.79c-1.678-2.044-2.517-4.53-2.517-7.46h4.131c0.176,2.036,0.557,3.516,1.143,4.438
		c1.025,1.655,2.879,2.483,5.56,2.483c2.08,0,3.75-0.557,5.01-1.67s1.89-2.549,1.89-4.307c0-2.168-0.663-3.685-1.988-4.549
		c-1.326-0.864-3.168-1.297-5.526-1.297c-0.264,0-0.531,0.004-0.802,0.012c-0.271,0.008-0.546,0.018-0.824,0.033V15.98
		c0.41,0.044,0.754,0.073,1.033,0.088c0.277,0.015,0.578,0.022,0.9,0.022c1.479,0,2.695-0.234,3.647-0.703
		c1.67-0.82,2.505-2.285,2.505-4.395c0-1.567-0.557-2.776-1.67-3.625s-2.41-1.274-3.889-1.274c-2.637,0-4.461,0.879-5.472,2.637
		c-0.557,0.967-0.872,2.344-0.944,4.131h-3.912c0-2.344,0.469-4.336,1.406-5.977c1.611-2.93,4.446-4.395,8.504-4.395
		c3.208,0,5.691,0.714,7.449,2.143c1.758,1.428,2.637,3.497,2.637,6.207c0,1.934-0.521,3.501-1.561,4.702
		c-0.645,0.747-1.479,1.333-2.505,1.758c1.655,0.454,2.948,1.329,3.878,2.626c0.93,1.296,1.396,2.882,1.396,4.757
		c0,3.003-0.989,5.449-2.966,7.339c-1.979,1.89-4.783,2.835-8.416,2.835C362.822,34.855,360.123,33.833,358.446,31.79z"/>
	<path fill="#FFFFFF" d="M394.404,24.374v-3.691h9.58v-9.646h3.758v9.646h9.58v3.691h-9.58v9.624h-3.758v-9.624H394.404z"/>
	<path fill="#FFFFFF" d="M435.471,11.718V8.686c2.857-0.278,4.85-0.743,5.977-1.396c1.129-0.651,1.971-2.193,2.527-4.625h3.12
		v31.333h-4.219v-22.28H435.471z"/>
	<path fill="#FFFFFF" d="M459.278,26.923c0.974-2.007,2.875-3.831,5.702-5.472l4.219-2.438c1.89-1.099,3.215-2.037,3.977-2.815
		c1.201-1.218,1.803-2.612,1.803-4.183c0-1.835-0.55-3.292-1.648-4.37s-2.563-1.618-4.395-1.618c-2.71,0-4.585,1.029-5.625,3.085
		c-0.557,1.102-0.864,2.63-0.923,4.583h-4.021c0.043-2.739,0.549-4.973,1.516-6.702c1.714-3.047,4.738-4.57,9.074-4.57
		c3.604,0,6.236,0.974,7.899,2.922s2.494,4.116,2.494,6.504c0,2.52-0.886,4.673-2.659,6.46c-1.025,1.04-2.863,2.3-5.515,3.779
		l-3.011,1.67c-1.436,0.791-2.562,1.546-3.383,2.263c-1.465,1.275-2.389,2.688-2.77,4.241h17.184v3.735h-21.6
		C457.744,31.288,458.305,28.93,459.278,26.923z"/>
	<path fill="#FFFFFF" d="M518.66,15.937v3.691h-22.918v-3.691H518.66z M518.66,25.363v3.757h-22.918v-3.757H518.66z"/>
</g>
</svg>
