<?xml version="1.0" encoding="utf-8"?>
<!-- Generator: Adobe Illustrator 24.1.0, SVG Export Plug-In . SVG Version: 6.00 Build 0)  -->
<svg version="1.1" id="Layer_1" xmlns="http://www.w3.org/2000/svg" xmlns:xlink="http://www.w3.org/1999/xlink" x="0px" y="0px"
	 viewBox="0 0 864 335" style="enable-background:new 0 0 864 335;" xml:space="preserve">
<style type="text/css">
	.st0{fill:none;stroke:#FFFFFF;stroke-width:5;stroke-linecap:square;stroke-miterlimit:10;}
	.st1{fill-rule:evenodd;clip-rule:evenodd;fill:#FFFFFF;}
	.st2{fill:none;stroke:#FFFFFF;stroke-width:5;stroke-linecap:square;stroke-miterlimit:10;stroke-dasharray:10,10;}
	.st3{fill:#FFFFFF;}
</style>
<rect x="284.5" y="134" class="st0" width="198" height="196"/>
<polyline class="st0" points="382.5,82 579.5,82 579.5,278 "/>
<rect x="355.5" y="218" class="st1" width="156" height="76"/>
<line class="st0" x1="484.5" y1="329" x2="578.5" y2="279"/>
<line class="st0" x1="285.5" y1="329" x2="381.5" y2="278"/>
<line class="st0" x1="285.5" y1="133" x2="380.5" y2="83"/>
<line class="st0" x1="481.5" y1="134" x2="578.5" y2="83"/>
<polyline class="st2" points="578.5,278 381.5,278 381.5,82 "/>
<g>
	<path class="st3" d="M25.1,25.9c0.1,2,0.5,3.5,1.3,4.8c1.5,2.3,4.1,3.4,7.9,3.4c1.7,0,3.2-0.2,4.6-0.8c2.7-1,4-2.7,4-5.2
		c0-1.9-0.6-3.2-1.7-4c-1.2-0.8-3-1.5-5.4-2L31.3,21c-3-0.7-5-1.4-6.3-2.3c-2.1-1.4-3.2-3.6-3.2-6.4c0-3.1,1-5.6,3.1-7.6s5-3,8.9-3
		c3.5,0,6.5,0.9,9,2.6s3.7,4.5,3.7,8.4h-4.4c-0.2-1.8-0.7-3.3-1.4-4.2c-1.4-1.8-3.7-2.7-6.9-2.7c-2.6,0-4.5,0.6-5.7,1.7
		s-1.7,2.5-1.7,4c0,1.7,0.7,2.9,2,3.7c0.9,0.5,2.9,1.1,6.1,1.9l4.7,1.1c2.3,0.5,4,1.3,5.2,2.2c2.1,1.6,3.2,3.9,3.2,7
		c0,3.8-1.4,6.5-4.1,8.2C40.7,37.2,37.6,38,34,38c-4.2,0-7.4-1.1-9.8-3.3c-2.4-2.2-3.5-5.1-3.5-8.8L25.1,25.9L25.1,25.9z"/>
	<path class="st3" d="M69,12.6c1.7,0.8,2.9,1.9,3.8,3.2c0.8,1.3,1.4,2.7,1.7,4.4c0.2,1.2,0.4,3,0.4,5.5H56.6
		c0.1,2.6,0.7,4.6,1.8,6.1s2.8,2.3,5.2,2.3c2.2,0,3.9-0.7,5.2-2.2c0.7-0.8,1.2-1.8,1.5-2.9h4.1c-0.1,0.9-0.5,1.9-1.1,3.1
		c-0.6,1.1-1.3,2.1-2.1,2.8c-1.3,1.2-2.8,2.1-4.7,2.5c-1,0.2-2.1,0.4-3.4,0.4c-3.1,0-5.7-1.1-7.9-3.4s-3.2-5.5-3.2-9.6
		c0-4,1.1-7.3,3.3-9.8c2.2-2.5,5-3.8,8.5-3.8C65.7,11.3,67.4,11.8,69,12.6z M70.5,22.4c-0.2-1.8-0.6-3.3-1.2-4.4c-1.1-2-3.1-3-5.7-3
		c-1.9,0-3.5,0.7-4.8,2.1s-2,3.2-2.1,5.3H70.5z"/>
	<path class="st3" d="M80.3,2.6h4.2V37h-4.2V2.6z"/>
	<path class="st3" d="M106.4,12.6c1.7,0.8,2.9,1.9,3.8,3.2c0.8,1.3,1.4,2.7,1.7,4.4c0.2,1.2,0.4,3,0.4,5.5H94
		c0.1,2.6,0.7,4.6,1.8,6.1s2.8,2.3,5.2,2.3c2.2,0,3.9-0.7,5.2-2.2c0.7-0.8,1.2-1.8,1.5-2.9h4.1c-0.1,0.9-0.5,1.9-1.1,3.1
		c-0.6,1.1-1.3,2.1-2.1,2.8c-1.3,1.2-2.8,2.1-4.7,2.5c-1,0.2-2.1,0.4-3.4,0.4c-3.1,0-5.7-1.1-7.9-3.4s-3.2-5.5-3.2-9.6
		c0-4,1.1-7.3,3.3-9.8c2.2-2.5,5-3.8,8.5-3.8C103,11.3,104.7,11.8,106.4,12.6z M107.9,22.4c-0.2-1.8-0.6-3.3-1.2-4.4
		c-1.1-2-3.1-3-5.7-3c-1.9,0-3.5,0.7-4.8,2.1s-2,3.2-2.1,5.3H107.9z"/>
	<path class="st3" d="M134.2,13.2c1.8,1.4,2.8,3.7,3.2,7.1h-4.1c-0.2-1.5-0.8-2.8-1.7-3.9s-2.3-1.5-4.3-1.5c-2.7,0-4.6,1.3-5.8,3.9
		c-0.8,1.7-1.1,3.8-1.1,6.3c0,2.5,0.5,4.6,1.6,6.3s2.7,2.6,5,2.6c1.8,0,3.1-0.5,4.2-1.6c1-1.1,1.7-2.5,2.1-4.4h4.1
		c-0.5,3.3-1.6,5.8-3.5,7.3s-4.3,2.3-7.2,2.3c-3.3,0-5.9-1.2-7.9-3.6s-2.9-5.4-2.9-9c0-4.4,1.1-7.8,3.2-10.3s4.9-3.7,8.2-3.7
		C130.1,11.2,132.4,11.9,134.2,13.2z"/>
	<path class="st3" d="M142.4,4.9h4.3v7h4v3.4h-4v16.4c0,0.9,0.3,1.5,0.9,1.8c0.3,0.2,0.9,0.3,1.6,0.3c0.2,0,0.4,0,0.7,0
		c0.2,0,0.5,0,0.8-0.1V37c-0.5,0.1-1,0.2-1.5,0.3s-1.1,0.1-1.7,0.1c-2,0-3.3-0.5-4-1.5s-1.1-2.3-1.1-3.9V15.3H139v-3.4h3.4
		L142.4,4.9L142.4,4.9z"/>
	<path class="st3" d="M169.1,4.9h4.3v7h4v3.4h-4v16.4c0,0.9,0.3,1.5,0.9,1.8c0.3,0.2,0.9,0.3,1.6,0.3c0.2,0,0.4,0,0.7,0
		c0.2,0,0.5,0,0.8-0.1V37c-0.5,0.1-1,0.2-1.5,0.3s-1.1,0.1-1.7,0.1c-2,0-3.3-0.5-4-1.5s-1.1-2.3-1.1-3.9V15.3h-3.4v-3.4h3.4
		L169.1,4.9L169.1,4.9z"/>
	<path class="st3" d="M181.6,2.5h4.2v12.8c1-1.3,1.9-2.2,2.7-2.7c1.4-0.9,3.1-1.3,5.1-1.3c3.6,0,6.1,1.3,7.4,3.8
		c0.7,1.4,1.1,3.3,1.1,5.8V37h-4.3V21.2c0-1.8-0.2-3.2-0.7-4.1c-0.8-1.4-2.2-2.1-4.3-2.1c-1.8,0-3.3,0.6-4.8,1.8s-2.1,3.5-2.1,6.8
		V37h-4.2L181.6,2.5L181.6,2.5z"/>
	<path class="st3" d="M223.8,12.6c1.7,0.8,2.9,1.9,3.8,3.2c0.8,1.3,1.4,2.7,1.7,4.4c0.2,1.2,0.4,3,0.4,5.5h-18.3
		c0.1,2.6,0.7,4.6,1.8,6.1s2.8,2.3,5.2,2.3c2.2,0,3.9-0.7,5.2-2.2c0.7-0.8,1.2-1.8,1.5-2.9h4.1c-0.1,0.9-0.5,1.9-1.1,3.1
		c-0.6,1.1-1.3,2.1-2.1,2.8c-1.3,1.2-2.8,2.1-4.7,2.5c-1,0.2-2.1,0.4-3.4,0.4c-3.1,0-5.7-1.1-7.9-3.4s-3.2-5.5-3.2-9.6
		c0-4,1.1-7.3,3.3-9.8c2.2-2.5,5-3.8,8.5-3.8C220.4,11.3,222.1,11.8,223.8,12.6z M225.3,22.4c-0.2-1.8-0.6-3.3-1.2-4.4
		c-1.1-2-3.1-3-5.7-3c-1.9,0-3.5,0.7-4.8,2.1s-2,3.2-2.1,5.3H225.3z"/>
	<path class="st3" d="M248,12h4.1v3.3c0.8-1.1,1.8-2,2.8-2.6c1.4-0.9,3.1-1.4,5-1.4c2.9,0,5.3,1.1,7.3,3.3s3,5.3,3,9.3
		c0,5.5-1.4,9.4-4.3,11.7c-1.8,1.5-3.9,2.2-6.4,2.2c-1.9,0-3.5-0.4-4.8-1.2c-0.8-0.5-1.6-1.3-2.5-2.4V47H248L248,12L248,12z
		 M263.8,31.7c1.3-1.6,2-4.1,2-7.4c0-2-0.3-3.7-0.9-5.2c-1.1-2.8-3.1-4.1-6-4.1c-2.9,0-4.9,1.5-6,4.4c-0.6,1.6-0.9,3.5-0.9,6
		c0,1.9,0.3,3.6,0.9,4.9c1.1,2.6,3.1,3.9,6,3.9C260.9,34.2,262.5,33.3,263.8,31.7z"/>
	<path class="st3" d="M275,2.6h4.3v4.8H275V2.6z M275,12h4.3v25H275V12z"/>
	<path class="st3" d="M302.3,13.2c1.8,1.4,2.8,3.7,3.2,7.1h-4.1c-0.2-1.5-0.8-2.8-1.7-3.9s-2.3-1.5-4.3-1.5c-2.7,0-4.6,1.3-5.8,3.9
		c-0.8,1.7-1.1,3.8-1.1,6.3c0,2.5,0.5,4.6,1.6,6.3s2.7,2.6,5,2.6c1.8,0,3.1-0.5,4.2-1.6c1-1.1,1.7-2.5,2.1-4.4h4.1
		c-0.5,3.3-1.6,5.8-3.5,7.3s-4.3,2.3-7.2,2.3c-3.3,0-5.9-1.2-7.9-3.6s-2.9-5.4-2.9-9c0-4.4,1.1-7.8,3.2-10.3s4.9-3.7,8.2-3.7
		C298.2,11.2,300.5,11.9,302.3,13.2z"/>
	<path class="st3" d="M310.5,4.9h4.3v7h4v3.4h-4v16.4c0,0.9,0.3,1.5,0.9,1.8c0.3,0.2,0.9,0.3,1.6,0.3c0.2,0,0.4,0,0.7,0
		c0.2,0,0.5,0,0.8-0.1V37c-0.5,0.1-1,0.2-1.5,0.3s-1.1,0.1-1.7,0.1c-2,0-3.3-0.5-4-1.5s-1.1-2.3-1.1-3.9V15.3h-3.4v-3.4h3.4V4.9z"/>
	<path class="st3" d="M327.2,11.9v16.7c0,1.3,0.2,2.3,0.6,3.1c0.7,1.5,2.1,2.3,4.1,2.3c2.9,0,4.8-1.3,5.8-3.9
		c0.6-1.4,0.8-3.3,0.8-5.8V11.9h4.2V37h-4l0-3.7c-0.5,1-1.2,1.8-2,2.4c-1.6,1.3-3.5,2-5.7,2c-3.5,0-5.9-1.2-7.2-3.6
		c-0.7-1.3-1-3-1-5.1V11.9H327.2z"/>
	<path class="st3" d="M349.8,11.9h4v4.3c0.3-0.8,1.1-1.9,2.4-3.1s2.8-1.8,4.4-1.8c0.1,0,0.2,0,0.4,0s0.5,0,1,0.1v4.5
		c-0.2,0-0.5-0.1-0.7-0.1s-0.4,0-0.7,0c-2.1,0-3.8,0.7-4.9,2.1s-1.7,2.9-1.7,4.7V37h-4.2L349.8,11.9L349.8,11.9z"/>
	<path class="st3" d="M381.2,12.6c1.7,0.8,2.9,1.9,3.8,3.2c0.8,1.3,1.4,2.7,1.7,4.4c0.2,1.2,0.4,3,0.4,5.5h-18.3
		c0.1,2.6,0.7,4.6,1.8,6.1s2.8,2.3,5.2,2.3c2.2,0,3.9-0.7,5.2-2.2c0.7-0.8,1.2-1.8,1.5-2.9h4.1c-0.1,0.9-0.5,1.9-1.1,3.1
		c-0.6,1.1-1.3,2.1-2.1,2.8c-1.3,1.2-2.8,2.1-4.7,2.5c-1,0.2-2.1,0.4-3.4,0.4c-3.1,0-5.7-1.1-7.9-3.4s-3.2-5.5-3.2-9.6
		c0-4,1.1-7.3,3.3-9.8c2.2-2.5,5-3.8,8.5-3.8C377.8,11.3,379.5,11.8,381.2,12.6z M382.7,22.4c-0.2-1.8-0.6-3.3-1.2-4.4
		c-1.1-2-3.1-3-5.7-3c-1.9,0-3.5,0.7-4.8,2.1s-2,3.2-2.1,5.3H382.7z"/>
	<path class="st3" d="M406.6,4.9h4.3v7h4v3.4h-4v16.4c0,0.9,0.3,1.5,0.9,1.8c0.3,0.2,0.9,0.3,1.6,0.3c0.2,0,0.4,0,0.7,0
		c0.2,0,0.5,0,0.8-0.1V37c-0.5,0.1-1,0.2-1.5,0.3s-1.1,0.1-1.7,0.1c-2,0-3.3-0.5-4-1.5s-1.1-2.3-1.1-3.9V15.3h-3.4v-3.4h3.4V4.9z"/>
	<path class="st3" d="M419.1,2.5h4.2v12.8c1-1.3,1.9-2.2,2.7-2.7c1.4-0.9,3.1-1.3,5.1-1.3c3.6,0,6.1,1.3,7.4,3.8
		c0.7,1.4,1.1,3.3,1.1,5.8V37h-4.3V21.2c0-1.8-0.2-3.2-0.7-4.1c-0.8-1.4-2.2-2.1-4.3-2.1c-1.8,0-3.3,0.6-4.8,1.8s-2.1,3.5-2.1,6.8
		V37h-4.2V2.5z"/>
	<path class="st3" d="M459.2,21.8c1-0.1,1.6-0.5,1.9-1.2c0.2-0.4,0.3-0.9,0.3-1.6c0-1.4-0.5-2.5-1.5-3.1s-2.5-1-4.4-1
		c-2.2,0-3.8,0.6-4.7,1.8c-0.5,0.7-0.9,1.6-1,2.9h-3.9c0.1-3.1,1.1-5.3,3-6.5c1.9-1.2,4.2-1.8,6.7-1.8c2.9,0,5.3,0.6,7.2,1.7
		c1.8,1.1,2.7,2.9,2.7,5.2v14.5c0,0.4,0.1,0.8,0.3,1.1c0.2,0.3,0.6,0.4,1.1,0.4c0.2,0,0.4,0,0.6,0s0.5-0.1,0.8-0.1v3.1
		c-0.7,0.2-1.2,0.3-1.5,0.4s-0.8,0.1-1.4,0.1c-1.5,0-2.5-0.5-3.2-1.5c-0.3-0.5-0.6-1.3-0.7-2.3c-0.9,1.1-2.1,2.1-3.7,2.9
		s-3.4,1.2-5.3,1.2c-2.3,0-4.2-0.7-5.7-2.1s-2.2-3.2-2.2-5.3c0-2.3,0.7-4.1,2.2-5.4s3.4-2.1,5.7-2.4L459.2,21.8z M450.3,33.2
		c0.9,0.7,1.9,1.1,3.2,1.1c1.5,0,2.9-0.3,4.3-1c2.3-1.1,3.5-3,3.5-5.6v-3.4c-0.5,0.3-1.2,0.6-2,0.8c-0.8,0.2-1.6,0.4-2.4,0.5
		l-2.5,0.3c-1.5,0.2-2.7,0.5-3.4,1c-1.3,0.7-2,1.9-2,3.5C449,31.5,449.4,32.5,450.3,33.2z"/>
	<path class="st3" d="M473.3,4.9h4.3v7h4v3.4h-4v16.4c0,0.9,0.3,1.5,0.9,1.8c0.3,0.2,0.9,0.3,1.6,0.3c0.2,0,0.4,0,0.7,0
		c0.2,0,0.5,0,0.8-0.1V37c-0.5,0.1-1,0.2-1.5,0.3s-1.1,0.1-1.7,0.1c-2,0-3.3-0.5-4-1.5s-1.1-2.3-1.1-3.9V15.3h-3.4v-3.4h3.4V4.9z"/>
	<path class="st3" d="M498.8,2.5h4.1v12.5c0.9-1.2,2-2.1,3.3-2.8s2.7-0.9,4.2-0.9c3.1,0,5.7,1.1,7.6,3.2s2.9,5.3,2.9,9.5
		c0,4-1,7.3-2.9,9.9c-1.9,2.6-4.6,3.9-8,3.9c-1.9,0-3.5-0.5-4.8-1.4c-0.8-0.5-1.6-1.4-2.5-2.6V37h-3.9L498.8,2.5L498.8,2.5z
		 M514.9,31.4c1.1-1.8,1.7-4.2,1.7-7.2c0-2.6-0.6-4.8-1.7-6.6s-2.8-2.6-5-2.6c-1.9,0-3.6,0.7-5.1,2.1c-1.5,1.4-2.2,3.8-2.2,7
		c0,2.4,0.3,4.3,0.9,5.7c1.1,2.8,3.2,4.1,6.2,4.1C512.1,34.1,513.8,33.2,514.9,31.4z"/>
	<path class="st3" d="M541.3,12.6c1.7,0.8,2.9,1.9,3.8,3.2c0.8,1.3,1.4,2.7,1.7,4.4c0.2,1.2,0.4,3,0.4,5.5h-18.3
		c0.1,2.6,0.7,4.6,1.8,6.1s2.8,2.3,5.2,2.3c2.2,0,3.9-0.7,5.2-2.2c0.7-0.8,1.2-1.8,1.5-2.9h4.1c-0.1,0.9-0.5,1.9-1.1,3.1
		c-0.6,1.1-1.3,2.1-2.1,2.8c-1.3,1.2-2.8,2.1-4.7,2.5c-1,0.2-2.1,0.4-3.4,0.4c-3.1,0-5.7-1.1-7.9-3.4s-3.2-5.5-3.2-9.6
		c0-4,1.1-7.3,3.3-9.8c2.2-2.5,5-3.8,8.5-3.8C537.9,11.3,539.7,11.8,541.3,12.6z M542.8,22.4c-0.2-1.8-0.6-3.3-1.2-4.4
		c-1.1-2-3.1-3-5.7-3c-1.9,0-3.5,0.7-4.8,2.1s-2,3.2-2.1,5.3H542.8z"/>
	<path class="st3" d="M555,29.1c0.1,1.4,0.5,2.5,1.1,3.2c1.1,1.4,3,2,5.6,2c1.6,0,3-0.3,4.2-1c1.2-0.7,1.8-1.7,1.8-3.2
		c0-1.1-0.5-1.9-1.5-2.5c-0.6-0.3-1.8-0.7-3.7-1.2l-3.4-0.8c-2.2-0.5-3.8-1.1-4.8-1.8c-1.8-1.1-2.8-2.7-2.8-4.7
		c0-2.4,0.9-4.3,2.6-5.8s4.1-2.2,7-2.2c3.8,0,6.6,1.1,8.3,3.3c1.1,1.4,1.6,2.9,1.5,4.5h-4c-0.1-0.9-0.4-1.8-1-2.6
		c-1-1.1-2.7-1.7-5.2-1.7c-1.6,0-2.9,0.3-3.7,0.9c-0.8,0.6-1.3,1.4-1.3,2.4c0,1.1,0.6,2,1.7,2.6c0.6,0.4,1.6,0.7,2.8,1l2.8,0.7
		c3.1,0.7,5.2,1.4,6.2,2.1c1.6,1.1,2.5,2.8,2.5,5.1c0,2.2-0.9,4.2-2.6,5.8c-1.7,1.6-4.3,2.4-7.8,2.4c-3.8,0-6.5-0.8-8-2.5
		s-2.4-3.8-2.5-6.3L555,29.1L555,29.1z"/>
	<path class="st3" d="M577.4,4.9h4.3v7h4v3.4h-4v16.4c0,0.9,0.3,1.5,0.9,1.8c0.3,0.2,0.9,0.3,1.6,0.3c0.2,0,0.4,0,0.7,0
		c0.2,0,0.5,0,0.8-0.1V37c-0.5,0.1-1,0.2-1.5,0.3s-1.1,0.1-1.7,0.1c-2,0-3.3-0.5-4-1.5s-1.1-2.3-1.1-3.9V15.3H574v-3.4h3.4V4.9z"/>
	<path class="st3" d="M605.2,4.2c1-1.4,2.9-2.2,5.7-2.2c0.3,0,0.5,0,0.8,0s0.6,0,1,0.1V6c-0.4,0-0.8-0.1-1-0.1c-0.2,0-0.4,0-0.6,0
		c-1.3,0-2.1,0.3-2.3,1c-0.3,0.7-0.4,2.4-0.4,5.1h4.2v3.3h-4.2V37h-4.2V15.3h-3.5V12h3.5V8.1C604.3,6.3,604.6,5,605.2,4.2z"/>
	<path class="st3" d="M616.5,2.6h4.3v4.8h-4.3V2.6z M616.5,12h4.3v25h-4.3V12z"/>
	<path class="st3" d="M628,4.9h4.3v7h4v3.4h-4v16.4c0,0.9,0.3,1.5,0.9,1.8c0.3,0.2,0.9,0.3,1.6,0.3c0.2,0,0.4,0,0.7,0
		c0.2,0,0.5,0,0.8-0.1V37c-0.5,0.1-1,0.2-1.5,0.3s-1.1,0.1-1.7,0.1c-2,0-3.3-0.5-4-1.5S628,33.6,628,32V15.3h-3.4v-3.4h3.4V4.9z"/>
	<path class="st3" d="M654.7,4.9h4.3v7h4v3.4h-4v16.4c0,0.9,0.3,1.5,0.9,1.8c0.3,0.2,0.9,0.3,1.6,0.3c0.2,0,0.4,0,0.7,0
		c0.2,0,0.5,0,0.8-0.1V37c-0.5,0.1-1,0.2-1.5,0.3s-1.1,0.1-1.7,0.1c-2,0-3.3-0.5-4-1.5s-1.1-2.3-1.1-3.9V15.3h-3.4v-3.4h3.4V4.9z"/>
	<path class="st3" d="M667.2,2.5h4.2v12.8c1-1.3,1.9-2.2,2.7-2.7c1.4-0.9,3.1-1.3,5.1-1.3c3.6,0,6.1,1.3,7.4,3.8
		c0.7,1.4,1.1,3.3,1.1,5.8V37h-4.3V21.2c0-1.8-0.2-3.2-0.7-4.1c-0.8-1.4-2.2-2.1-4.3-2.1c-1.8,0-3.3,0.6-4.8,1.8s-2.1,3.5-2.1,6.8
		V37h-4.2V2.5z"/>
	<path class="st3" d="M709.4,12.6c1.7,0.8,2.9,1.9,3.8,3.2c0.8,1.3,1.4,2.7,1.7,4.4c0.2,1.2,0.4,3,0.4,5.5H697
		c0.1,2.6,0.7,4.6,1.8,6.1s2.8,2.3,5.2,2.3c2.2,0,3.9-0.7,5.2-2.2c0.7-0.8,1.2-1.8,1.5-2.9h4.1c-0.1,0.9-0.5,1.9-1.1,3.1
		c-0.6,1.1-1.3,2.1-2.1,2.8c-1.3,1.2-2.8,2.1-4.7,2.5c-1,0.2-2.1,0.4-3.4,0.4c-3.1,0-5.7-1.1-7.9-3.4s-3.2-5.5-3.2-9.6
		c0-4,1.1-7.3,3.3-9.8s5-3.8,8.5-3.8C706,11.3,707.7,11.8,709.4,12.6z M710.9,22.4c-0.2-1.8-0.6-3.3-1.2-4.4c-1.1-2-3.1-3-5.7-3
		c-1.9,0-3.5,0.7-4.8,2.1s-2,3.2-2.1,5.3H710.9z"/>
	<path class="st3" d="M733.6,2.5h4.1v12.5c0.9-1.2,2-2.1,3.3-2.8s2.7-0.9,4.2-0.9c3.1,0,5.7,1.1,7.6,3.2s2.9,5.3,2.9,9.5
		c0,4-1,7.3-2.9,9.9c-1.9,2.6-4.6,3.9-8,3.9c-1.9,0-3.5-0.5-4.8-1.4c-0.8-0.5-1.6-1.4-2.5-2.6V37h-3.9L733.6,2.5L733.6,2.5z
		 M749.7,31.4c1.1-1.8,1.7-4.2,1.7-7.2c0-2.6-0.6-4.8-1.7-6.6s-2.8-2.6-5-2.6c-1.9,0-3.6,0.7-5.1,2.1c-1.5,1.4-2.2,3.8-2.2,7
		c0,2.4,0.3,4.3,0.9,5.7c1.1,2.8,3.2,4.1,6.2,4.1C746.9,34.1,748.6,33.2,749.7,31.4z"/>
	<path class="st3" d="M760.7,2.6h4.2V37h-4.2V2.6z"/>
	<path class="st3" d="M784.7,21.8c1-0.1,1.6-0.5,1.9-1.2c0.2-0.4,0.3-0.9,0.3-1.6c0-1.4-0.5-2.5-1.5-3.1s-2.5-1-4.4-1
		c-2.2,0-3.8,0.6-4.7,1.8c-0.5,0.7-0.8,1.6-1,2.9h-3.9c0.1-3.1,1.1-5.3,3-6.5c1.9-1.2,4.2-1.8,6.7-1.8c2.9,0,5.3,0.6,7.2,1.7
		c1.8,1.1,2.7,2.9,2.7,5.2v14.5c0,0.4,0.1,0.8,0.3,1.1c0.2,0.3,0.6,0.4,1.1,0.4c0.2,0,0.4,0,0.6,0s0.5-0.1,0.8-0.1v3.1
		c-0.7,0.2-1.2,0.3-1.5,0.4s-0.8,0.1-1.4,0.1c-1.5,0-2.5-0.5-3.2-1.5c-0.3-0.5-0.6-1.3-0.7-2.3c-0.9,1.1-2.1,2.1-3.7,2.9
		s-3.4,1.2-5.3,1.2c-2.3,0-4.2-0.7-5.7-2.1s-2.2-3.2-2.2-5.3c0-2.3,0.7-4.1,2.2-5.4s3.4-2.1,5.7-2.4L784.7,21.8z M775.9,33.2
		c0.9,0.7,1.9,1.1,3.2,1.1c1.5,0,2.9-0.3,4.3-1c2.3-1.1,3.5-3,3.5-5.6v-3.4c-0.5,0.3-1.2,0.6-2,0.8c-0.8,0.2-1.6,0.4-2.4,0.5
		l-2.5,0.3c-1.5,0.2-2.7,0.5-3.4,1c-1.3,0.7-2,1.9-2,3.5C774.5,31.5,775,32.5,775.9,33.2z"/>
	<path class="st3" d="M798,11.9h4v3.6c1.2-1.5,2.4-2.5,3.8-3.2s2.8-1,4.4-1c3.6,0,6,1.2,7.2,3.7c0.7,1.4,1,3.3,1,5.8V37h-4.3V21.2
		c0-1.5-0.2-2.8-0.7-3.7c-0.8-1.6-2.1-2.3-4.1-2.3c-1,0-1.8,0.1-2.5,0.3c-1.2,0.3-2.2,1-3,2.1c-0.7,0.8-1.2,1.7-1.4,2.6
		s-0.3,2.1-0.3,3.8V37H798L798,11.9L798,11.9z"/>
	<path class="st3" d="M824.6,2.6h4.1v20l10.8-10.7h5.4l-9.6,9.3L845.4,37H840l-7.9-12.8l-3.5,3.4V37h-4.1L824.6,2.6L824.6,2.6z"/>
</g>
</svg>
